<?xml version="1.0" encoding="iso-8859-1"?>
<!-- Generator: Adobe Illustrator 23.0.4, SVG Export Plug-In . SVG Version: 6.00 Build 0)  -->
<svg version="1.1" xmlns="http://www.w3.org/2000/svg" xmlns:xlink="http://www.w3.org/1999/xlink" x="0px" y="0px"
	 viewBox="0 0 64 64" style="enable-background:new 0 0 64 64;" xml:space="preserve">
<g id="house-13">
	<path style="fill:#212121;" d="M42.836,21.092c-2.353,0-4.275,1.915-4.275,4.275c0,2.36,1.922,4.275,4.275,4.275
		c2.36,0,4.282-1.915,4.282-4.275C47.118,23.008,45.196,21.092,42.836,21.092z M42.836,28.335c-1.634,0-2.968-1.334-2.968-2.968
		c0-1.641,1.334-2.968,2.968-2.968c1.641,0,2.974,1.327,2.974,2.968C45.811,27.002,44.477,28.335,42.836,28.335z M52.962,35.33
		H45.15c-0.36,0-0.654,0.294-0.654,0.654v7.295c0,0.36,0.294,0.654,0.654,0.654h7.812c0.366,0,0.654-0.294,0.654-0.654v-7.295
		C53.616,35.624,53.328,35.33,52.962,35.33z M48.733,42.625h-2.929v-2.667h2.929V42.625z M48.733,39.304h-2.929v-2.667h2.929V39.304
		z M52.308,42.625h-2.922v-2.667h2.922V42.625z M52.308,39.304h-2.922v-2.667h2.922V39.304z M37.385,43.259v2.968h1.307v-2.968
		H37.385z M52.962,35.33H45.15c-0.36,0-0.654,0.294-0.654,0.654v7.295c0,0.36,0.294,0.654,0.654,0.654h7.812
		c0.366,0,0.654-0.294,0.654-0.654v-7.295C53.616,35.624,53.328,35.33,52.962,35.33z M48.733,42.625h-2.929v-2.667h2.929V42.625z
		 M48.733,39.304h-2.929v-2.667h2.929V39.304z M52.308,42.625h-2.922v-2.667h2.922V42.625z M52.308,39.304h-2.922v-2.667h2.922
		V39.304z M42.836,21.092c-2.353,0-4.275,1.915-4.275,4.275c0,2.36,1.922,4.275,4.275,4.275c2.36,0,4.282-1.915,4.282-4.275
		C47.118,23.008,45.196,21.092,42.836,21.092z M42.836,28.335c-1.634,0-2.968-1.334-2.968-2.968c0-1.641,1.334-2.968,2.968-2.968
		c1.641,0,2.974,1.327,2.974,2.968C45.811,27.002,44.477,28.335,42.836,28.335z M37.385,43.259v2.968h1.307v-2.968H37.385z
		 M37.385,43.259v2.968h1.307v-2.968H37.385z M42.836,21.092c-2.353,0-4.275,1.915-4.275,4.275c0,2.36,1.922,4.275,4.275,4.275
		c2.36,0,4.282-1.915,4.282-4.275C47.118,23.008,45.196,21.092,42.836,21.092z M42.836,28.335c-1.634,0-2.968-1.334-2.968-2.968
		c0-1.641,1.334-2.968,2.968-2.968c1.641,0,2.974,1.327,2.974,2.968C45.811,27.002,44.477,28.335,42.836,28.335z M52.962,35.33
		H45.15c-0.36,0-0.654,0.294-0.654,0.654v7.295c0,0.36,0.294,0.654,0.654,0.654h7.812c0.366,0,0.654-0.294,0.654-0.654v-7.295
		C53.616,35.624,53.328,35.33,52.962,35.33z M48.733,42.625h-2.929v-2.667h2.929V42.625z M48.733,39.304h-2.929v-2.667h2.929V39.304
		z M52.308,42.625h-2.922v-2.667h2.922V42.625z M52.308,39.304h-2.922v-2.667h2.922V39.304z M52.962,35.33H45.15
		c-0.36,0-0.654,0.294-0.654,0.654v7.295c0,0.36,0.294,0.654,0.654,0.654h7.812c0.366,0,0.654-0.294,0.654-0.654v-7.295
		C53.616,35.624,53.328,35.33,52.962,35.33z M48.733,42.625h-2.929v-2.667h2.929V42.625z M48.733,39.304h-2.929v-2.667h2.929V39.304
		z M52.308,42.625h-2.922v-2.667h2.922V42.625z M52.308,39.304h-2.922v-2.667h2.922V39.304z M42.836,21.092
		c-2.353,0-4.275,1.915-4.275,4.275c0,2.36,1.922,4.275,4.275,4.275c2.36,0,4.282-1.915,4.282-4.275
		C47.118,23.008,45.196,21.092,42.836,21.092z M42.836,28.335c-1.634,0-2.968-1.334-2.968-2.968c0-1.641,1.334-2.968,2.968-2.968
		c1.641,0,2.974,1.327,2.974,2.968C45.811,27.002,44.477,28.335,42.836,28.335z M37.385,43.259v2.968h1.307v-2.968H37.385z
		 M37.385,43.259v2.968h1.307v-2.968H37.385z M42.836,21.092c-2.353,0-4.275,1.915-4.275,4.275c0,2.36,1.922,4.275,4.275,4.275
		c2.36,0,4.282-1.915,4.282-4.275C47.118,23.008,45.196,21.092,42.836,21.092z M42.836,28.335c-1.634,0-2.968-1.334-2.968-2.968
		c0-1.641,1.334-2.968,2.968-2.968c1.641,0,2.974,1.327,2.974,2.968C45.811,27.002,44.477,28.335,42.836,28.335z M52.962,35.33
		H45.15c-0.36,0-0.654,0.294-0.654,0.654v7.295c0,0.36,0.294,0.654,0.654,0.654h7.812c0.366,0,0.654-0.294,0.654-0.654v-7.295
		C53.616,35.624,53.328,35.33,52.962,35.33z M48.733,42.625h-2.929v-2.667h2.929V42.625z M48.733,39.304h-2.929v-2.667h2.929V39.304
		z M52.308,42.625h-2.922v-2.667h2.922V42.625z M52.308,39.304h-2.922v-2.667h2.922V39.304z M52.962,35.33H45.15
		c-0.36,0-0.654,0.294-0.654,0.654v7.295c0,0.36,0.294,0.654,0.654,0.654h7.812c0.366,0,0.654-0.294,0.654-0.654v-7.295
		C53.616,35.624,53.328,35.33,52.962,35.33z M48.733,42.625h-2.929v-2.667h2.929V42.625z M48.733,39.304h-2.929v-2.667h2.929V39.304
		z M52.308,42.625h-2.922v-2.667h2.922V42.625z M52.308,39.304h-2.922v-2.667h2.922V39.304z M47.118,25.367
		c0-2.36-1.922-4.275-4.282-4.275c-2.353,0-4.275,1.915-4.275,4.275c0,2.36,1.922,4.275,4.275,4.275
		C45.196,29.643,47.118,27.727,47.118,25.367z M42.836,28.335c-1.634,0-2.968-1.334-2.968-2.968c0-1.641,1.334-2.968,2.968-2.968
		c1.641,0,2.974,1.327,2.974,2.968C45.811,27.002,44.477,28.335,42.836,28.335z M37.385,43.259v2.968h1.307v-2.968H37.385z
		 M63.754,27.969l-20.5-16.368c-0.235-0.19-0.575-0.19-0.811,0L21.925,27.969c-0.216,0.17-0.301,0.464-0.209,0.726
		c0.091,0.261,0.34,0.438,0.621,0.438h4.347c0.15,0,0.294-0.052,0.412-0.144l0.294-0.235v2.026H4.112
		c-0.177,0-0.34,0.072-0.458,0.19l-3.02,2.961c-0.196,0.183-0.248,0.464-0.15,0.713c0.098,0.242,0.34,0.405,0.601,0.405h1.262
		v16.185H0v1.307h63.343v-1.307H57.91V28.446l0.68,0.543c0.118,0.092,0.261,0.144,0.405,0.144h4.347
		c0.281,0,0.529-0.176,0.621-0.438C64.055,28.433,63.97,28.139,63.754,27.969z M22.186,51.234H9.211v-1.667h12.976V51.234z
		 M22.186,48.913H9.211v-2.308h12.976V48.913z M22.186,45.952H9.211v-2.301h12.976V45.952z M22.186,42.998H9.211v-2.026h12.976
		V42.998z M27.39,51.234h-3.896V40.317c0-0.36-0.294-0.654-0.654-0.654H8.557c-0.36,0-0.654,0.294-0.654,0.654v10.917H3.654V35.049
		H27.39V51.234z M27.39,33.741H2.687l1.687-1.654H27.39V33.741z M39.862,51.234h-7.504V40.017c0-2.066,1.68-3.752,3.752-3.752
		c2.072,0,3.752,1.686,3.752,3.752V51.234z M56.603,51.234H41.169V40.017c0-2.791-2.268-5.06-5.06-5.06
		c-2.791,0-5.06,2.268-5.06,5.06v11.217h-2.353v-23.52l14.152-11.296L56.603,27.4V51.234z M59.224,27.825l-15.97-12.753
		c-0.235-0.19-0.575-0.19-0.811,0L26.455,27.825H24.2l18.65-14.878l18.63,14.878H59.224z M44.497,35.983v7.295
		c0,0.36,0.294,0.654,0.654,0.654h7.812c0.366,0,0.654-0.294,0.654-0.654v-7.295c0-0.36-0.288-0.654-0.654-0.654H45.15
		C44.791,35.33,44.497,35.624,44.497,35.983z M49.386,36.637h2.922v2.667h-2.922V36.637z M49.386,39.958h2.922v2.667h-2.922V39.958z
		 M45.804,36.637h2.929v2.667h-2.929V36.637z M45.804,39.958h2.929v2.667h-2.929V39.958z M38.561,25.367
		c0,2.36,1.922,4.275,4.275,4.275c2.36,0,4.282-1.915,4.282-4.275c0-2.36-1.922-4.275-4.282-4.275
		C40.483,21.092,38.561,23.008,38.561,25.367z M45.811,25.367c0,1.634-1.334,2.968-2.974,2.968c-1.634,0-2.968-1.334-2.968-2.968
		c0-1.641,1.334-2.968,2.968-2.968C44.477,22.4,45.811,23.727,45.811,25.367z M37.385,46.227h1.307v-2.968h-1.307V46.227z
		 M37.385,43.259v2.968h1.307v-2.968H37.385z M42.836,21.092c-2.353,0-4.275,1.915-4.275,4.275c0,2.36,1.922,4.275,4.275,4.275
		c2.36,0,4.282-1.915,4.282-4.275C47.118,23.008,45.196,21.092,42.836,21.092z M42.836,28.335c-1.634,0-2.968-1.334-2.968-2.968
		c0-1.641,1.334-2.968,2.968-2.968c1.641,0,2.974,1.327,2.974,2.968C45.811,27.002,44.477,28.335,42.836,28.335z M52.962,35.33
		H45.15c-0.36,0-0.654,0.294-0.654,0.654v7.295c0,0.36,0.294,0.654,0.654,0.654h7.812c0.366,0,0.654-0.294,0.654-0.654v-7.295
		C53.616,35.624,53.328,35.33,52.962,35.33z M48.733,42.625h-2.929v-2.667h2.929V42.625z M48.733,39.304h-2.929v-2.667h2.929V39.304
		z M52.308,42.625h-2.922v-2.667h2.922V42.625z M52.308,39.304h-2.922v-2.667h2.922V39.304z M52.962,35.33H45.15
		c-0.36,0-0.654,0.294-0.654,0.654v7.295c0,0.36,0.294,0.654,0.654,0.654h7.812c0.366,0,0.654-0.294,0.654-0.654v-7.295
		C53.616,35.624,53.328,35.33,52.962,35.33z M48.733,42.625h-2.929v-2.667h2.929V42.625z M48.733,39.304h-2.929v-2.667h2.929V39.304
		z M52.308,42.625h-2.922v-2.667h2.922V42.625z M52.308,39.304h-2.922v-2.667h2.922V39.304z M42.836,21.092
		c-2.353,0-4.275,1.915-4.275,4.275c0,2.36,1.922,4.275,4.275,4.275c2.36,0,4.282-1.915,4.282-4.275
		C47.118,23.008,45.196,21.092,42.836,21.092z M42.836,28.335c-1.634,0-2.968-1.334-2.968-2.968c0-1.641,1.334-2.968,2.968-2.968
		c1.641,0,2.974,1.327,2.974,2.968C45.811,27.002,44.477,28.335,42.836,28.335z M37.385,43.259v2.968h1.307v-2.968H37.385z
		 M37.385,43.259v2.968h1.307v-2.968H37.385z M42.836,21.092c-2.353,0-4.275,1.915-4.275,4.275c0,2.36,1.922,4.275,4.275,4.275
		c2.36,0,4.282-1.915,4.282-4.275C47.118,23.008,45.196,21.092,42.836,21.092z M42.836,28.335c-1.634,0-2.968-1.334-2.968-2.968
		c0-1.641,1.334-2.968,2.968-2.968c1.641,0,2.974,1.327,2.974,2.968C45.811,27.002,44.477,28.335,42.836,28.335z M52.962,35.33
		H45.15c-0.36,0-0.654,0.294-0.654,0.654v7.295c0,0.36,0.294,0.654,0.654,0.654h7.812c0.366,0,0.654-0.294,0.654-0.654v-7.295
		C53.616,35.624,53.328,35.33,52.962,35.33z M48.733,42.625h-2.929v-2.667h2.929V42.625z M48.733,39.304h-2.929v-2.667h2.929V39.304
		z M52.308,42.625h-2.922v-2.667h2.922V42.625z M52.308,39.304h-2.922v-2.667h2.922V39.304z M52.962,35.33H45.15
		c-0.36,0-0.654,0.294-0.654,0.654v7.295c0,0.36,0.294,0.654,0.654,0.654h7.812c0.366,0,0.654-0.294,0.654-0.654v-7.295
		C53.616,35.624,53.328,35.33,52.962,35.33z M48.733,42.625h-2.929v-2.667h2.929V42.625z M48.733,39.304h-2.929v-2.667h2.929V39.304
		z M52.308,42.625h-2.922v-2.667h2.922V42.625z M52.308,39.304h-2.922v-2.667h2.922V39.304z M42.836,21.092
		c-2.353,0-4.275,1.915-4.275,4.275c0,2.36,1.922,4.275,4.275,4.275c2.36,0,4.282-1.915,4.282-4.275
		C47.118,23.008,45.196,21.092,42.836,21.092z M42.836,28.335c-1.634,0-2.968-1.334-2.968-2.968c0-1.641,1.334-2.968,2.968-2.968
		c1.641,0,2.974,1.327,2.974,2.968C45.811,27.002,44.477,28.335,42.836,28.335z M37.385,43.259v2.968h1.307v-2.968H37.385z"/>
	<path style="fill:#39CF9B;" d="M22.186,49.567v1.667H9.211v-1.667H22.186z M9.211,46.606v2.308h12.976v-2.308H9.211z M9.211,43.651
		v2.301h12.976v-2.301H9.211z M9.211,40.971v2.026h12.976v-2.026H9.211z"/>
	<path style="fill:#FFC600;" d="M42.849,16.418L28.697,27.714v23.52h2.353V40.017c0-2.791,2.268-5.06,5.06-5.06
		c2.791,0,5.06,2.268,5.06,5.06v11.217h15.434V27.4L42.849,16.418z M38.561,25.367c0-2.36,1.922-4.275,4.275-4.275
		c2.36,0,4.282,1.915,4.282,4.275c0,2.36-1.922,4.275-4.282,4.275C40.483,29.643,38.561,27.727,38.561,25.367z M53.616,43.279
		c0,0.36-0.288,0.654-0.654,0.654H45.15c-0.36,0-0.654-0.294-0.654-0.654v-7.295c0-0.36,0.294-0.654,0.654-0.654h7.812
		c0.366,0,0.654,0.294,0.654,0.654V43.279z"/>
</g>
<g id="Layer_1">
</g>
</svg>
