<svg xmlns="http://www.w3.org/2000/svg" viewBox="0 0 4680 3120"><defs><style>.cls-1{fill:#fff;}.cls-2{fill:#ebeff2;}.cls-3{fill:#99a9b5;}.cls-4{fill:#d8dfe5;}.cls-5{fill:#b3bbc3;}.cls-6{fill:#83d35e;}.cls-7{fill:#ff790b;}.cls-8{fill:#fa993b;}.cls-9{fill:#6bb14e;}.cls-10{fill:#f8bd88;}.cls-11{fill:#fc9d6b;}.cls-12{fill:#192057;}.cls-13{fill:#d74f29;}.cls-14{fill:#343d76;}.cls-15{fill:#c43924;}.cls-16{fill:#f2e5d6;}.cls-17{fill:#528e36;}.cls-18{fill:#d9cfc3;}.cls-19{fill:#ff8736;}</style></defs><title>jipbm_services_jipbm_5</title><g id="Real_estate_agent_buyers_looking_at_a_plot_of_land_that_s_for_sale" data-name="Real estate agent &amp; buyers looking at a plot of land that’s for sale"><rect class="cls-1" width="4680" height="3120"/><rect class="cls-2" y="2324.53" width="4680" height="795.47"/><path class="cls-3" d="M1697.83,511.11c0-20.87.51-52,4.13-60.72a11.32,11.32,0,0,1,8.44-6.77l56.95-.05,155.39-136.13a16.48,16.48,0,0,1,30.92.43L2353.57,454h98.19a15.35,15.35,0,0,1,9.13,3l54.23,40.2a4.32,4.32,0,0,1,1.76,3.48v.71a4.33,4.33,0,0,1-4.33,4.33h-41.29a9.22,9.22,0,0,1,2,17.37l33.29,49.23-.71,1.74-34.09-50.41a9.18,9.18,0,0,1-2.42.33h-23.85a9,9,0,0,1-2.95-.5L2408.3,574l-.7-1.74,33.45-49.47a9.23,9.23,0,0,1,2.47-17.13H1990.17a5.86,5.86,0,0,1-.1.58l-6.37,27.39h0l.42,1.64h-.08l2.15,8.52h1.56c.75,0,.75,6.71,0,6.71H1966v930.42h20.93v33.46h43.17v41.27H1851.22V1514.4h43.17v-33.46h19.85V550.52h-17c-.75,0-.75-6.71,0-6.71h2v-8.52h-.13v-1.64h.13v-28h-110.8v11.87h-90.7C1696.06,517.55,1696.06,511.12,1697.83,511.11ZM2101.3,495.6l17.48-15.83-17.49-16.34Zm19-17.18,19-17.26h-37.52Zm24.95,17.18,17.48-15.83-17.5-16.34Zm-5.51-32.1-18,16.29,18,16.81Zm24.47,14.92,19.05-17.26h-37.52Zm25,17.18,17.48-15.83-17.49-16.34Zm-5.51-32.1-18,16.29,18,16.81Zm24.48,14.92,19-17.26h-37.52Zm25,17.18,17.47-15.83L2233,463.43Zm-5.51-32.1-18,16.29,18,16.81ZM2252,478.42l19-17.26h-37.53ZM2277,495.6l17.48-15.83-17.5-16.34Zm-5.51-32.1-18,16.29,18,16.81Zm24.47,14.92,19-17.26h-37.52Zm68.87,17.18,17.48-15.83-17.5-16.34Zm-5.51-32.1-18,16.29,18,16.81Zm-.39-2.34h-37.53l18.48,17.26Zm-38,2.27,0,32.17,17.47-15.83Zm-5.49.07-18,16.29,18,16.81Zm68.38,14.92,19.05-17.26h-37.52Zm25,17.18,17.47-15.83-17.49-16.34Zm-5.51-32.1-18,16.29,18,16.81Zm24.47,14.92,19-17.26h-37.53Zm1.46,1.37,18,16.81,0-33.1Zm-1.48,1.35-18.94,17.16v.16h37.49Zm-43.92,0-18.94,17.16v.16h37.49Zm-43.91,0-18.94,17.16v.16h37.49Zm-43.92,0L2277,498.3v.16h37.49Zm-43.91,0-18.94,17.16v.16h37.49Zm-43.91,0-18.95,17.16v.16h37.49Zm-43.92,0-18.94,17.16v.16h37.49Zm-43.91,0-18.94,17.16v.16h37.48Zm-24.46-17.64-18,16.29,18,16.81Zm-.39-2.34h-37.52l18.47,17.26ZM1793.9,495.6l17.48-15.83-17.5-16.34Zm19-17.18,19.05-17.26h-37.52Zm25,17.18,12.27-11.12,5.2-4.71-17.49-16.34Zm-5.51-32.1-18,16.29,18,16.81Zm24.47,14.92,19-17.26H1838.3Zm19.44-14.92-18,16.29,18,16.81Zm46.08-37.75,15.44,20.37h.63l15.93-20.39Zm30.26-6.78-14.29-23.17L1923.53,419Zm17,69,.08.38,0,0-.11-.52Zm.61,2.73h0l.77,3.63,0,0Zm15-9.25,1.91-1.73-3.53-3.29Zm-12.29,17a5.4,5.4,0,0,1-1.35-1.91l0,0a5.2,5.2,0,0,0,1.35,1.89Zm-73.5-37.3h-17.12l17.12,16Zm35.32-15-13.22-17.44-1.12,17.44Zm2.18-52.64-11.9-19.29-2.72,42.28Zm.45-49.62-10.48,21.4,22.26,0-10.17-21.38ZM1926.49,372l11.81,19.16L1950.48,372Zm8.06-28.15h-7.66l-1.16,18Zm7.07,0,9.27,19.48-1.28-19.49Zm10,30.9-11.91,18.73,14.7,23.83Zm3.53,53.84-13.69,17.52h14.84Zm27.09,44,6.26,5.85,19-17.26h-29Zm31.21,23L2031,479.77l-17.49-16.34ZM2008,463.5l-18,16.29,18,16.81Zm24.48,14.92,19-17.26H2014Zm19.44-14.92-18,16.29,18,16.81Zm5.49-.07,0,32.17,17.48-15.83Zm-24.95,17.71-18.94,17.16v.16H2051Zm-43.92,0-2.7,2.44,3.77,11.72a21.41,21.41,0,0,1,.77,3.16h16.71Zm-106.79-17.71,0,32.17,17.48-15.83Zm-25,17.71-18.94,17.16v.16h37.48Zm-43.92,0L1793.9,498.3v.16h37.49Zm-42.31-37.57h12.83a5.18,5.18,0,0,1,5.18,5.18V454h110.8v-2.38a5.45,5.45,0,0,1,5.45-5.45h11.59L1923,343.87h-.32a1,1,0,0,1-1-1v-.81h0l0-28.66a17.56,17.56,0,0,1,.17-2.31Zm184.09-130.19,0,29.47a1,1,0,0,1-.83,1,.76.76,0,0,1-.16,0h-.11l6.72,102.27h9.52a5.46,5.46,0,0,1,5.19,3.78l1.27,4.05h311.64L1954.59,312.71C1954.6,312.93,1954.62,313.15,1954.62,313.38Zm5-1.09L2293.28,454h54.12ZM2461,464.1a16.42,16.42,0,0,0-8.44-2.9l0,37.26h57.8Zm-366.16,34.36-18.55-17.32-18.94,17.16v.16h37.49Zm-152,52.06-.8.86,16.69,18.42V550.52Zm14.67,461.56L1940.7,993.5l-17.38,18.6ZM1939.35,992l-16.61-18.33h-1.28v37.49Zm18.19-23.85-16.84-18.58-17.38,18.6Zm-32.1,5.52,15.28,16.87,15.78-16.89Zm13.91-25.58-16.61-18.34h-1.28v37.49Zm18.19-23.85-16.84-18.58-17.38,18.6Zm-32.1,5.51,15.28,16.87,15.78-16.89Zm13.91-25.58-16.61-18.33h-1.28v37.49Zm18.19-23.84-16.84-18.59-17.38,18.6Zm-32.11,5.51,15.29,16.87,15.78-16.89Zm13.92-25.58-16.61-18.34h-1.28v37.49Zm18.19-23.85-16.84-18.58-17.38,18.6Zm-32.11,5.51,15.29,16.87,15.78-16.89Zm13.92-25.58L1922.74,798h-1.28v37.49Zm18.19-23.84-16.84-18.59-17.38,18.61Zm-32.1,5.51,15.28,16.87L1956.5,798Zm13.91-25.58-16.61-18.34h-1.28v37.48Zm18.19-23.85L1940.7,730l-17.38,18.6Zm-32.1,5.51L1940.72,771l15.78-16.88Zm13.91-25.58-16.61-18.33h-1.28v37.49Zm18.19-23.84-16.84-18.59-17.38,18.61Zm-32.1,5.51,15.28,16.87,15.78-16.89Zm13.91-25.58-16.61-18.34h-1.28v37.48Zm18.19-23.85-16.84-18.58-17.38,18.6Zm-32.11,5.51,15.29,16.87,15.78-16.88Zm13.92-25.58-16.61-18.33h-1.28v37.49Zm1.37-1.46,15.78-16.89-31.07,0Zm17.5-22.38-17.52-19.34-18.08,19.36Zm.54-2.38V578.18l-16.69,17.87Zm-16.69,26.24,16.69,18.43V622.85Zm0,43.92,16.69,18.42V666.76Zm0,43.91L1958.76,747V710.68Zm0,43.92,16.69,18.42V754.59Zm0,43.91,16.69,18.42V798.5Zm0,43.92,16.69,18.42V842.42Zm0,43.91,16.69,18.42V886.33Zm0,43.92,16.69,18.42V930.25Zm0,43.91,16.69,18.42V974.16Zm14.43,25.54-31.06,0,15.28,16.87ZM1942.07,1036l16.69,18.42v-36.29Zm-19.33-18.36h-1.28v37.49l17.89-19.15ZM1939.35,596l-16.61-18.34h-1.28v37.49Zm1.37-1.47,15.78-16.89-31.06,0ZM1957.54,1056l-16.84-18.58-17.38,18.6Zm-32.11,5.52,15.29,16.87,15.78-16.89Zm32.79-489.33-17.52-19.33-18.08,19.35Zm.54,489.81-16.69,17.87,16.69,18.42V1062Zm-1.22,37.92-16.84-18.58-17.38,18.6Zm-32.12,5.51,15.3,16.89,15.8-16.91Zm33.34.51-16.69,17.87,16.69,18.42v-36.29Zm-1.22,302.15-16.84-18.58-17.38,18.6ZM1939.35,1388l-16.61-18.34h-1.28v37.49Zm18.19-23.85-16.84-18.58-17.38,18.6Zm-32.1,5.51,15.28,16.87,15.78-16.89Zm13.91-25.58-16.61-18.33h-1.28v37.48Zm18.19-23.85-16.84-18.58-17.38,18.6Zm-32.1,5.52,15.28,16.87,15.78-16.89Zm13.91-25.58-16.61-18.34h-1.28v37.49Zm18.19-23.85-16.84-18.58-17.38,18.6Zm-32.1,5.51,15.28,16.87,15.78-16.89Zm13.91-25.58-16.61-18.33h-1.28v37.49Zm18.19-23.84-16.84-18.59-17.38,18.6Zm-32.1,5.51,15.28,16.87,15.78-16.89Zm13.91-25.58L1922.74,1194h-1.28v37.49Zm1.37-1.47L1956.5,1194l-31.06,0Zm-17.4-22.36,34.22,0-16.84-18.58Zm16-20.09-16.61-18.33h-1.28v37.49Zm19.41,18.44v-36.29l-16.69,17.87Zm-16.69,25.5,16.69,18.42v-36.29Zm0,43.91,16.69,18.42v-36.29Zm0,43.92,16.69,18.42v-36.29Zm0,43.91,16.69,18.42v-36.29Zm0,43.92,16.69,18.42v-36.29Zm14.43,25.54h-31.06l15.28,16.88ZM1942.07,1432l16.69,18.42v-36.29Zm-19.33-18.35h-1.28v37.48l17.89-19.15Zm18-246.62,15.78-16.89-31.06,0Zm0,266.44-17.38,18.6,34.22,0Zm17.52-288.83-17.52-19.33-18.08,19.36Zm.54,336.35v-23.45l-37.3,0v23.43Zm-37.3-338,17.89-19.15-16.63-18.36h-1.26v37.51Zm0-43.94,17.89-19.15-16.61-18.33h-1.28V1099Zm0-528.48,17.89-19.15-.76-.84h-17.13Zm-22.12-88.17-17.61,16v.16h17.61Z"/><path class="cls-3" d="M2612.27,331.79c-.05-20.86.52-52,4.14-60.71a11.26,11.26,0,0,1,8.44-6.77l56.94-.05,155.39-136.13a16.48,16.48,0,0,1,30.92.43L3268,274.63h98.19a15.32,15.32,0,0,1,9.13,3l54.24,40.2a4.34,4.34,0,0,1,1.75,3.48V322a4.33,4.33,0,0,1-4.33,4.33H3385.7a9.22,9.22,0,0,1,2,17.37L3421,393l-.7,1.74-34.1-50.42a9.11,9.11,0,0,1-2.41.33h-23.85a9.05,9.05,0,0,1-3-.49l-34.2,50.58L3322,393l33.45-49.47a9.23,9.23,0,0,1,2.47-17.13H2904.62c0,.19-.06.38-.1.58l-6.37,27.38h0l.41,1.65h-.08l2.16,8.52h1.55c.75,0,.75,6.71,0,6.71h-21.79v930.42h20.93v33.46h43.17v41.27H2765.67v-41.27h43.16v-33.46h19.86V371.21h-17c-.75,0-.75-6.71,0-6.71h2.05V356h-.14v-1.65h.13v-28H2703v11.87h-90.71C2610.5,338.24,2610.5,331.81,2612.27,331.79Zm403.48-15.5,17.48-15.83-17.5-16.35Zm19-17.18,19.05-17.26h-37.52Zm24.95,17.18,17.48-15.83-17.49-16.35Zm-5.51-32.1-18,16.29,18,16.81Zm24.48,14.92,19-17.26h-37.52Zm24.95,17.18,17.47-15.83-17.49-16.35Zm-5.51-32.1-18,16.29,18,16.81Zm24.47,14.92,19.05-17.26h-37.53Zm24.95,17.18L3165,300.46l-17.5-16.35Zm-5.51-32.1-18,16.29,18,16.81Zm24.47,14.92,19.05-17.26H3148Zm25,17.18,17.47-15.83-17.49-16.35Zm-5.51-32.1-18,16.29,18,16.81Zm24.47,14.92,19.05-17.26h-37.53Zm68.87,17.18,17.47-15.83-17.49-16.35Zm-5.51-32.1-18,16.29,18,16.81Zm-.4-2.34h-37.52l18.47,17.26Zm-38,2.26,0,32.18,17.48-15.83Zm-5.49.08-18,16.29,18,16.81Zm68.39,14.92,19.05-17.26h-37.53Zm25,17.18,17.48-15.83-17.5-16.35Zm-5.51-32.1-18,16.29,18,16.81Zm24.47,14.92,19-17.26h-37.52Zm1.47,1.37,18,16.81v-33.1Zm-1.49,1.34L3323.15,319v.16h37.49Zm-43.91,0L3279.24,319v.16h37.49Zm-43.92,0L3235.32,319v.16h37.49Zm-43.91,0L3191.41,319v.16h37.49Zm-43.91,0-19,17.17v.16H3185Zm-43.92,0L3103.58,319v.16h37.49Zm-43.91,0L3059.67,319v.16h37.48Zm-43.92,0L3015.75,319v.16h37.49Zm-24.45-17.63-18,16.29,18,16.81Zm-.4-2.34h-37.52l18.48,17.26Zm-301.49,34.44,17.47-15.83-17.49-16.35Zm19-17.18,19-17.26h-37.52Zm25,17.18,12.27-11.12,5.21-4.71-17.5-16.35Zm-5.51-32.1-18,16.29,18,16.81Zm24.47,14.92,19.05-17.26h-37.52Zm19.44-14.92-18,16.29,18,16.81Zm46.08-37.75,15.44,20.37h.63l15.93-20.4Zm30.26-6.78-14.29-23.17L2838,239.68Zm17,69,.08.38,0,0-.11-.52Zm.61,2.72,0,0,.76,3.63,0,0Zm15-9.25,1.91-1.72-3.52-3.29Zm-12.28,17a5.43,5.43,0,0,1-1.36-1.91l0,0a5.55,5.55,0,0,0,1.35,1.89Zm-73.5-37.3h-17.13l17.13,16Zm35.31-15-13.21-17.44-1.13,17.44Zm2.18-52.65-11.89-19.28-2.72,42.28Zm.46-49.61L2841.26,186l22.26,0-10.17-21.38Zm-10.81,28.15,11.81,19.16,12.19-19.18Zm8.07-28.15h-7.67l-1.15,18Zm7.07,0,9.26,19.47-1.28-19.48Zm10,30.9-11.9,18.73L2868.87,238Zm3.53,53.84-13.68,17.52h14.83Zm27.09,44,6.27,5.85,19-17.26h-29Zm31.22,23,17.48-15.83-17.5-16.35Zm-5.51-32.1-18,16.29,18,16.81Zm24.47,14.92,19-17.26h-37.52Zm19.44-14.92-18,16.29,18,16.81Zm5.5-.08v32.18l17.48-15.83Zm-25,17.71L2927.92,319v.16h37.49Zm-43.91,0-2.7,2.45L2904,316a20.19,20.19,0,0,1,.76,3.16h16.71Zm-106.79-17.71,0,32.18,17.47-15.83Zm-25,17.71L2752.26,319v.16h37.49Zm-43.91,0L2708.35,319v.16h37.48ZM2685,264.26h12.84a5.18,5.18,0,0,1,5.18,5.18v5.2h110.8v-2.37a5.45,5.45,0,0,1,5.44-5.45h11.6l6.56-102.25h-.31a1,1,0,0,1-1-1v-.82h0l0-28.65a15.89,15.89,0,0,1,.18-2.31Zm184.1-130.2,0,29.48a1,1,0,0,1-.83,1,1,1,0,0,1-.17,0h-.1l6.71,102.27h9.53a5.45,5.45,0,0,1,5.18,3.78l1.28,4h311.63L2869,133.4C2869,133.62,2869.07,133.84,2869.07,134.06Zm5-1.09,333.63,141.66h54.12Zm501.38,151.82a16.3,16.3,0,0,0-8.43-2.9l0,37.26h57.8Zm-366.16,34.36-18.54-17.33L2971.84,319v.16h37.48Zm-152,52.06-.8.86,16.69,18.42V371.21ZM2872,832.77l-16.84-18.59-17.37,18.61ZM2853.8,812.7l-16.61-18.33h-1.28v37.48ZM2872,788.85l-16.84-18.58-17.37,18.6Zm-32.1,5.51,15.29,16.87,15.77-16.88Zm13.92-25.57-16.61-18.34h-1.28v37.49ZM2872,744.94l-16.84-18.58L2837.77,745Zm-32.1,5.51,15.29,16.87,15.77-16.89Zm13.92-25.58-16.62-18.33h-1.27V744ZM2872,701l-16.84-18.58L2837.77,701Zm-32.1,5.51,15.29,16.87,15.77-16.88ZM2853.8,681l-16.62-18.34h-1.27v37.49ZM2872,657.11l-16.84-18.58-17.37,18.6Zm-32.1,5.51,15.29,16.87,15.77-16.89ZM2853.8,637l-16.62-18.33h-1.27v37.48ZM2872,613.19l-16.84-18.58-17.37,18.6Zm-32.1,5.51,15.29,16.88,15.77-16.89Zm13.92-25.57-16.61-18.34h-1.28v37.49ZM2872,569.28l-16.84-18.58-17.37,18.6Zm-32.1,5.51,15.29,16.87,15.77-16.89Zm13.92-25.58-16.61-18.33h-1.28v37.48ZM2872,525.36l-16.84-18.58-17.37,18.6Zm-32.1,5.52,15.29,16.87,15.77-16.89Zm13.92-25.58L2837.18,487h-1.27v37.49ZM2872,481.45l-16.84-18.58-17.37,18.6Zm-32.1,5.51,15.29,16.87,15.77-16.89Zm13.92-25.58-16.62-18.33h-1.27v37.49Zm1.37-1.46L2870.94,443l-31.06,0Zm17.49-22.39-17.52-19.33-18.08,19.35Zm.54-2.37V398.87l-16.69,17.87Zm-16.69,26.24,16.69,18.42V443.53Zm0,43.92,16.69,18.42V487.45Zm0,43.91,16.69,18.42V531.36Zm0,43.92,16.69,18.42V575.28Zm0,43.91,16.69,18.42V619.19Zm0,43.92,16.69,18.42V663.11Zm0,43.91,16.69,18.42V707Zm0,43.91,16.69,18.43V750.94Zm0,43.92,16.69,18.42V794.85Zm14.43,25.54-31.06,0,15.29,16.87Zm-14.43,18.37,16.69,18.42V838.77Zm-19.33-18.35h-1.27v37.49l17.89-19.16Zm16.62-421.56-16.62-18.34h-1.27v37.49Zm1.37-1.47,15.77-16.89-31.06,0ZM2872,876.68l-16.84-18.58-17.37,18.6Zm-32.1,5.51,15.29,16.87,15.77-16.88Zm32.78-489.32-17.52-19.34-18.08,19.36Zm.54,489.81-16.69,17.87L2873.2,919V882.68ZM2872,920.6,2855.14,902l-17.37,18.61Zm-32.12,5.51L2855.17,943,2871,926.09Zm33.34.5-16.69,17.87,16.69,18.42V926.61ZM2872,1228.77l-16.84-18.58-17.37,18.6Zm-18.18-20.07-16.62-18.33h-1.27v37.49Zm18.18-23.84-16.84-18.59-17.37,18.61Zm-32.1,5.51,15.29,16.87,15.77-16.89Zm13.92-25.58-16.61-18.34h-1.28v37.48Zm18.18-23.85-16.84-18.58-17.37,18.6Zm-32.1,5.51,15.29,16.87,15.77-16.88Zm13.92-25.58-16.61-18.33h-1.28V1140ZM2872,1097l-16.84-18.59-17.37,18.61Zm-32.1,5.51,15.29,16.87,15.77-16.89ZM2853.8,1077l-16.62-18.34h-1.27v37.48Zm18.18-23.85-16.84-18.58-17.37,18.6Zm-32.1,5.51,15.29,16.87,15.77-16.88ZM2853.8,1033l-16.62-18.33h-1.27v37.49Zm1.37-1.46,15.77-16.89-31.06,0Zm-17.4-22.36,34.21,0-16.84-18.58Zm16-20.09-16.62-18.33h-1.27v37.48Zm19.4,18.44V971.28l-16.69,17.87Zm-16.69,25.49,16.69,18.43V1015.2Zm0,43.92,16.69,18.42v-36.29Zm0,43.91,16.69,18.42V1103Zm0,43.92,16.69,18.42v-36.29Zm0,43.91,16.69,18.42v-36.29Zm14.43,25.54-31.06,0,15.29,16.87Zm-14.43,18.38,16.69,18.42v-36.29Zm-19.33-18.36h-1.27v37.49l17.89-19.15Zm18-246.62,15.77-16.88h-31.06Zm0,266.44-17.37,18.61,34.21,0Zm17.52-288.82L2855.14,946l-18.08,19.35Zm.54,336.35v-23.45l-37.29,0v23.43Zm-37.29-338,17.89-19.16-16.63-18.35h-1.26v37.51Zm0-43.94,17.89-19.15-16.62-18.34h-1.27v37.49Zm0-528.48,17.89-19.15-.76-.84h-17.13ZM2813.79,303l-17.61,16v.16h17.61Z"/><path class="cls-3" d="M876.86,331.79c-.05-20.86.52-52,4.14-60.71a11.26,11.26,0,0,1,8.44-6.77l56.94-.05,155.39-136.13a16.48,16.48,0,0,1,30.92.43L1532.6,274.63h98.19a15.32,15.32,0,0,1,9.13,3l54.24,40.2a4.34,4.34,0,0,1,1.75,3.48V322a4.33,4.33,0,0,1-4.33,4.33h-41.29a9.22,9.22,0,0,1,2,17.37L1685.56,393l-.7,1.74-34.1-50.42a9.11,9.11,0,0,1-2.41.33H1624.5a9.05,9.05,0,0,1-3-.49l-34.2,50.58-.71-1.74,33.45-49.47a9.23,9.23,0,0,1,2.47-17.13H1169.21c0,.19-.06.38-.1.58l-6.37,27.38h0l.41,1.65h-.08l2.16,8.52h1.55c.75,0,.75,6.71,0,6.71H1145v930.42h20.93v33.46h43.17v41.27H1030.26v-41.27h43.16v-33.46h19.86V371.21h-17c-.75,0-.75-6.71,0-6.71h2.05V356h-.14v-1.65h.14v-28H967.58v11.87H876.87C875.09,338.24,875.09,331.81,876.86,331.79Zm403.48-15.5,17.47-15.83-17.49-16.35Zm19-17.18,19-17.26h-37.52Zm25,17.18,17.48-15.83-17.49-16.35Zm-5.51-32.1-18,16.29,18,16.81Zm24.47,14.92,19-17.26h-37.52Zm25,17.18,17.47-15.83-17.49-16.35Zm-5.51-32.1-18,16.29,18,16.81Zm24.47,14.92,19-17.26h-37.53Zm24.95,17.18,17.48-15.83-17.5-16.35Zm-5.51-32.1-18,16.29,18,16.81ZM1431,299.11l19-17.26h-37.52Zm25,17.18,17.47-15.83L1456,284.11Zm-5.51-32.1-18,16.29,18,16.81ZM1475,299.11l19-17.26h-37.53Zm68.87,17.18,17.47-15.83-17.49-16.35Zm-5.52-32.1-18,16.29,18,16.81Zm-.39-2.34H1500.4l18.47,17.26Zm-38,2.26,0,32.18,17.48-15.83Zm-5.49.08-18,16.29,18,16.81Zm68.39,14.92,19-17.26h-37.52Zm25,17.18,17.48-15.83-17.5-16.35Zm-5.51-32.1-18,16.29,18,16.81Zm24.47,14.92,19-17.26h-37.52Zm1.47,1.37,18,16.81,0-33.1Zm-1.49,1.34L1587.74,319v.16h37.49Zm-43.91,0L1543.83,319v.16h37.48Zm-43.92,0L1499.91,319v.16h37.49Zm-43.91,0L1456,319v.16h37.49Zm-43.92,0L1412.08,319v.16h37.49Zm-43.91,0L1368.17,319v.16h37.49Zm-43.91,0-19,17.17v.16h37.49Zm-43.92,0L1280.34,319v.16h37.49Zm-24.45-17.63-18,16.29,18,16.81Zm-.4-2.34h-37.52l18.48,17.26ZM972.94,316.29l17.47-15.83-17.49-16.35Zm19-17.18,19-17.26H973.42Zm25,17.18,12.27-11.12,5.21-4.71-17.5-16.35Zm-5.51-32.1-18,16.29,18,16.81Zm24.47,14.92,19-17.26h-37.52Zm19.44-14.92-18,16.29,18,16.81Zm46.08-37.75,15.44,20.37h.63l15.93-20.4Zm30.26-6.78-14.29-23.17-14.73,23.19Zm17,69,.08.38,0,0-.11-.52Zm.61,2.72,0,0,.76,3.63,0,0Zm15-9.25,1.91-1.72-3.52-3.29Zm-12.28,17a5.43,5.43,0,0,1-1.36-1.91l0,0a5.55,5.55,0,0,0,1.35,1.89Zm-73.5-37.3h-17.13l17.13,16Zm35.31-15-13.22-17.44-1.12,17.44Zm2.18-52.65L1104,194.88l-2.72,42.28Zm.46-49.61L1105.85,186l22.25,0-10.17-21.38Zm-10.81,28.15,11.81,19.16,12.18-19.18Zm8.07-28.15h-7.67l-1.15,18Zm7.07,0,9.26,19.47-1.28-19.48Zm10,30.9-11.9,18.73L1133.46,238Zm3.53,53.84-13.68,17.52h14.83Zm27.09,44,6.27,5.85,19-17.26h-29Zm31.22,23L1210,300.46l-17.5-16.35Zm-5.51-32.1-18,16.29,18,16.81Zm24.47,14.92,19-17.26H1193Zm19.44-14.92-18,16.29,18,16.81Zm5.5-.08v32.18l17.48-15.83Zm-25,17.71L1192.51,319v.16H1230Zm-43.91,0-2.7,2.45,3.77,11.72a20.19,20.19,0,0,1,.76,3.16h16.71Zm-106.79-17.71,0,32.18,17.47-15.83Zm-25,17.71L1016.85,319v.16h37.49Zm-43.91,0L972.94,319v.16h37.48Zm-42.32-37.56H962.4a5.18,5.18,0,0,1,5.18,5.18v5.2h110.8v-2.37a5.45,5.45,0,0,1,5.44-5.45h11.59L1102,164.56h-.31a1,1,0,0,1-1-1v-.82h0l0-28.65a15.89,15.89,0,0,1,.18-2.31Zm184.1-130.2,0,29.48a1,1,0,0,1-.83,1,1,1,0,0,1-.17,0h-.1l6.71,102.27h9.53a5.45,5.45,0,0,1,5.18,3.78l1.28,4h311.63L1133.62,133.4C1133.63,133.62,1133.66,133.84,1133.66,134.06Zm5-1.09,333.62,141.66h54.13Zm501.38,151.82a16.3,16.3,0,0,0-8.43-2.9l0,37.26h57.8Zm-366.16,34.36-18.54-17.33L1236.42,319v.16h37.49Zm-152,52.06-.8.86,16.69,18.42V371.21Zm14.67,461.56-16.84-18.59-17.37,18.61Zm-18.18-20.07-16.62-18.33h-1.27v37.48Zm18.18-23.85-16.84-18.58-17.37,18.6Zm-32.1,5.51,15.29,16.87,15.77-16.88Zm13.92-25.57-16.62-18.34h-1.27v37.49Zm18.18-23.85-16.84-18.58L1102.36,745Zm-32.1,5.51,15.29,16.87,15.77-16.89Zm13.92-25.58-16.62-18.33h-1.27V744ZM1136.57,701l-16.84-18.58L1102.36,701Zm-32.1,5.51,15.29,16.87,15.77-16.88ZM1118.39,681l-16.62-18.34h-1.27v37.49Zm18.18-23.85-16.84-18.58-17.37,18.6Zm-32.1,5.51,15.29,16.87,15.77-16.89ZM1118.39,637l-16.62-18.33h-1.27v37.48Zm18.18-23.85-16.84-18.58-17.37,18.6Zm-32.1,5.51,15.29,16.88,15.77-16.89Zm13.92-25.57-16.62-18.34h-1.27v37.49Zm18.18-23.85-16.84-18.58-17.37,18.6Zm-32.1,5.51,15.29,16.87,15.77-16.89Zm13.92-25.58-16.62-18.33h-1.27v37.48Zm18.18-23.85-16.84-18.58-17.37,18.6Zm-32.1,5.52,15.29,16.87,15.77-16.89Zm13.92-25.58L1101.77,487h-1.27v37.49Zm18.18-23.85-16.84-18.58-17.37,18.6Zm-32.1,5.51,15.29,16.87,15.77-16.89Zm13.92-25.58-16.62-18.33h-1.27v37.49Zm1.37-1.46L1135.53,443l-31.06,0Zm17.49-22.39-17.52-19.33-18.08,19.35Zm.54-2.37V398.87l-16.69,17.87ZM1121.1,461.4l16.69,18.42V443.53Zm0,43.92,16.69,18.42V487.45Zm0,43.91,16.69,18.42V531.36Zm0,43.92,16.69,18.42V575.28Zm0,43.91,16.69,18.42V619.19Zm0,43.92,16.69,18.42V663.11Zm0,43.91,16.69,18.42V707Zm0,43.91,16.69,18.43V750.94Zm0,43.92,16.69,18.42V794.85Zm14.43,25.54-31.06,0,15.29,16.87Zm-14.43,18.37,16.69,18.42V838.77Zm-19.33-18.35h-1.27v37.49l17.89-19.16Zm16.62-421.56-16.62-18.34h-1.27v37.49Zm1.37-1.47,15.77-16.89-31.06,0Zm16.81,461.43-16.84-18.58-17.37,18.6Zm-32.1,5.51,15.29,16.87,15.77-16.88Zm32.78-489.32-17.52-19.34-18.08,19.36Zm.54,489.81-16.69,17.87L1137.79,919V882.68Zm-1.22,37.92L1119.73,902l-17.37,18.61Zm-32.12,5.51L1119.76,943l15.79-16.91Zm33.34.5-16.69,17.87,16.69,18.42V926.61Zm-1.22,302.16-16.84-18.58-17.37,18.6Zm-18.18-20.07-16.62-18.33h-1.27v37.49Zm18.18-23.84-16.84-18.59-17.37,18.61Zm-32.1,5.51,15.29,16.87,15.77-16.89Zm13.92-25.58-16.62-18.34h-1.27v37.48Zm18.18-23.85-16.84-18.58-17.37,18.6Zm-32.1,5.51,15.29,16.87,15.77-16.88Zm13.92-25.58-16.62-18.33h-1.27V1140Zm18.18-23.84-16.84-18.59-17.37,18.61Zm-32.1,5.51,15.29,16.87,15.77-16.89Zm13.92-25.58-16.62-18.34h-1.27v37.48Zm18.18-23.85-16.84-18.58-17.37,18.6Zm-32.1,5.51,15.29,16.87,15.77-16.88Zm13.92-25.58-16.62-18.33h-1.27v37.49Zm1.37-1.46,15.77-16.89-31.06,0Zm-17.4-22.36,34.21,0-16.84-18.58Zm16-20.09-16.62-18.33h-1.27v37.48Zm19.4,18.44V971.28l-16.69,17.87Zm-16.69,25.49,16.69,18.43V1015.2Zm0,43.92,16.69,18.42v-36.29Zm0,43.91,16.69,18.42V1103Zm0,43.92,16.69,18.42v-36.29Zm0,43.91,16.69,18.42v-36.29Zm14.43,25.54-31.06,0,15.29,16.87Zm-14.43,18.38,16.69,18.42v-36.29Zm-19.33-18.36h-1.27v37.49l17.89-19.15Zm18-246.62,15.77-16.88h-31.06Zm0,266.44-17.37,18.61,34.21,0Zm17.52-288.82L1119.73,946l-18.08,19.35Zm.54,336.35v-23.45l-37.29,0v23.43Zm-37.29-338,17.89-19.16-16.63-18.35h-1.26v37.51Zm0-43.94,17.89-19.15-16.62-18.34h-1.27v37.49Zm0-528.48,17.89-19.15-.76-.84H1100.5ZM1078.38,303l-17.61,16v.16h17.61Z"/><rect class="cls-4" y="2263.07" width="4680" height="76.4"/><polygon class="cls-5" points="3929.27 570.36 3621.34 570.36 3621.34 450.51 3225.63 450.51 3225.63 764.09 2596.91 764.09 2596.91 869.37 2308.04 869.37 2308.04 1126.94 1673.55 1126.94 1673.55 733.34 1353.89 733.34 1353.89 828.65 1130.49 828.65 1130.49 1171.82 1130.49 1403.61 1130.49 1588.45 3929.27 1588.45 3929.27 570.36"/><rect class="cls-4" x="2198.51" y="578.53" width="348.49" height="1009.92"/><rect class="cls-1" x="2290.97" y="692.32" width="35.56" height="135.13"/><rect class="cls-1" x="2354.98" y="692.32" width="35.56" height="135.13"/><rect class="cls-1" x="2418.99" y="692.32" width="35.56" height="135.13"/><rect class="cls-1" x="2483" y="692.32" width="35.56" height="135.13"/><rect class="cls-1" x="2226.96" y="855.9" width="35.56" height="135.13"/><rect class="cls-1" x="2290.97" y="855.9" width="35.56" height="135.13"/><rect class="cls-1" x="2418.99" y="855.9" width="35.56" height="135.13"/><rect class="cls-1" x="2226.96" y="1019.48" width="35.56" height="135.13"/><rect class="cls-1" x="2290.97" y="1019.48" width="35.56" height="135.13"/><rect class="cls-1" x="2354.98" y="1019.48" width="35.56" height="135.13"/><rect class="cls-1" x="2418.99" y="1019.48" width="35.56" height="135.13"/><rect class="cls-1" x="2483" y="1019.48" width="35.56" height="135.13"/><rect class="cls-1" x="2226.96" y="1183.06" width="35.56" height="135.13"/><rect class="cls-1" x="2354.98" y="1183.06" width="35.56" height="135.13"/><rect class="cls-1" x="2418.99" y="1183.06" width="35.56" height="135.13"/><rect class="cls-1" x="2483" y="1183.06" width="35.56" height="135.13"/><rect class="cls-1" x="2226.96" y="1346.64" width="35.56" height="135.13"/><rect class="cls-1" x="2290.97" y="1346.64" width="35.56" height="135.13"/><rect class="cls-1" x="2354.98" y="1346.64" width="35.56" height="135.13"/><rect class="cls-1" x="2483" y="1346.64" width="35.56" height="135.13"/><rect class="cls-4" x="1516.64" y="678.1" width="312.93" height="910.35"/><rect class="cls-1" x="1601.99" y="784.78" width="28.45" height="120.91"/><rect class="cls-1" x="1715.78" y="784.78" width="28.45" height="120.91"/><rect class="cls-1" x="1772.68" y="784.78" width="28.45" height="120.91"/><rect class="cls-1" x="1601.99" y="934.13" width="28.45" height="120.91"/><rect class="cls-1" x="1658.89" y="934.13" width="28.45" height="120.91"/><rect class="cls-1" x="1772.68" y="934.13" width="28.45" height="120.91"/><rect class="cls-1" x="1601.99" y="1076.38" width="28.45" height="120.91"/><rect class="cls-1" x="1715.78" y="1076.38" width="28.45" height="120.91"/><rect class="cls-1" x="1772.68" y="1076.38" width="28.45" height="120.91"/><rect class="cls-1" x="1601.99" y="1225.73" width="28.45" height="120.91"/><rect class="cls-1" x="1658.89" y="1225.73" width="28.45" height="120.91"/><rect class="cls-1" x="1772.68" y="1225.73" width="28.45" height="120.91"/><rect class="cls-1" x="1658.89" y="1367.97" width="28.45" height="128.02"/><rect class="cls-1" x="1772.68" y="1367.97" width="28.45" height="128.02"/><polygon class="cls-4" points="3698.51 550.08 3428.25 450.51 3428.25 1588.45 3698.51 1588.45 3698.51 550.08"/><rect class="cls-1" x="3456.7" y="614.09" width="213.36" height="21.34"/><rect class="cls-1" x="3456.7" y="656.76" width="213.36" height="21.34"/><rect class="cls-1" x="3456.7" y="699.43" width="213.36" height="21.34"/><rect class="cls-1" x="3456.7" y="742.11" width="213.36" height="21.34"/><rect class="cls-1" x="3456.7" y="784.78" width="213.36" height="21.34"/><rect class="cls-1" x="3456.7" y="827.45" width="213.36" height="21.34"/><rect class="cls-1" x="3456.7" y="870.12" width="213.36" height="21.34"/><rect class="cls-1" x="3456.7" y="912.8" width="213.36" height="21.34"/><rect class="cls-1" x="3456.7" y="998.14" width="213.36" height="21.34"/><rect class="cls-1" x="3456.7" y="1040.82" width="213.36" height="21.34"/><rect class="cls-1" x="3456.7" y="1083.49" width="213.36" height="21.34"/><rect class="cls-1" x="3456.7" y="1126.16" width="213.36" height="21.34"/><rect class="cls-1" x="3456.7" y="1168.83" width="213.36" height="21.34"/><rect class="cls-1" x="3456.7" y="1211.51" width="213.36" height="21.34"/><rect class="cls-1" x="3456.7" y="1254.18" width="213.36" height="21.34"/><rect class="cls-1" x="3456.7" y="1296.85" width="213.36" height="21.34"/><rect class="cls-1" x="3456.7" y="1382.2" width="213.36" height="21.34"/><rect class="cls-1" x="3456.7" y="1424.87" width="213.36" height="21.34"/><rect class="cls-1" x="3456.7" y="1467.54" width="213.36" height="21.34"/><path class="cls-4" d="M1016.7,578.53V493.18H817.56v85.35H782V1588.45h348.49V578.53Zm-149.36,881.9H817.56v-49.78h49.78Zm0-71.12H817.56v-49.79h49.78Zm0-142.24H817.56v-49.79h49.78Zm0-71.12H817.56v-49.79h49.78Zm0-71.13H817.56V1055h49.78Zm0-71.12H817.56V983.92h49.78Zm0-142.24H817.56V841.68h49.78Zm0-71.12H817.56V770.55h49.78Zm0-71.12H817.56V699.43h49.78Zm71.13,640.09H895.79v-49.79h42.68Zm0-71.12H895.79V1268.4h42.68Zm0-71.12H895.79v-49.79h42.68Zm0-71.12H895.79v-49.79h42.68Zm0-71.13H895.79V1055h42.68Zm0-71.12H895.79V983.92h42.68Zm0-71.12H895.79V912.8h42.68Zm0-71.12H895.79V841.68h42.68Zm0-142.24H895.79V699.43h42.68Zm78.23,711.21H974v-49.78h42.67Zm0-71.12H974v-49.79h42.67Zm0-71.12H974V1268.4h42.67Zm0-71.12H974v-49.79h42.67Zm0-142.25H974V1055h42.67Zm0-71.12H974V983.92h42.67Zm0-71.12H974V912.8h42.67Zm0-71.12H974V841.68h42.67Zm0-71.12H974V770.55h42.67Zm0-71.12H974V699.43h42.67Zm71.12,711.21h-42.67v-49.78h42.67Zm0-142.24h-42.67V1268.4h42.67Zm0-71.12h-42.67v-49.79h42.67Zm0-71.12h-42.67v-49.79h42.67Zm0-71.13h-42.67V1055h42.67Zm0-71.12h-42.67V983.92h42.67Zm0-71.12h-42.67V912.8h42.67Zm0-71.12h-42.67V841.68h42.67Zm0-142.24h-42.67V699.43h42.67Z"/><rect class="cls-1" x="817.56" y="699.43" width="49.78" height="49.78"/><rect class="cls-1" x="895.79" y="699.43" width="42.67" height="49.78"/><rect class="cls-1" x="974.03" y="699.43" width="42.67" height="49.78"/><rect class="cls-1" x="1045.15" y="699.43" width="42.67" height="49.78"/><rect class="cls-1" x="817.56" y="770.55" width="49.78" height="49.78"/><rect class="cls-1" x="974.03" y="770.55" width="42.67" height="49.78"/><rect class="cls-1" x="817.56" y="841.68" width="49.78" height="49.78"/><rect class="cls-1" x="895.79" y="841.68" width="42.67" height="49.78"/><rect class="cls-1" x="974.03" y="841.68" width="42.67" height="49.78"/><rect class="cls-1" x="1045.15" y="841.68" width="42.67" height="49.78"/><rect class="cls-1" x="895.79" y="912.8" width="42.67" height="49.78"/><rect class="cls-1" x="974.03" y="912.8" width="42.67" height="49.78"/><rect class="cls-1" x="1045.15" y="912.8" width="42.67" height="49.78"/><rect class="cls-1" x="817.56" y="983.92" width="49.78" height="49.78"/><rect class="cls-1" x="895.79" y="983.92" width="42.67" height="49.78"/><rect class="cls-1" x="974.03" y="983.92" width="42.67" height="49.78"/><rect class="cls-1" x="1045.15" y="983.92" width="42.67" height="49.78"/><rect class="cls-1" x="817.56" y="1055.04" width="49.78" height="49.78"/><rect class="cls-1" x="895.79" y="1055.04" width="42.67" height="49.78"/><rect class="cls-1" x="974.03" y="1055.04" width="42.67" height="49.78"/><rect class="cls-1" x="1045.15" y="1055.04" width="42.67" height="49.78"/><rect class="cls-1" x="817.56" y="1126.16" width="49.78" height="49.78"/><rect class="cls-1" x="895.79" y="1126.16" width="42.67" height="49.78"/><rect class="cls-1" x="1045.15" y="1126.16" width="42.67" height="49.78"/><rect class="cls-1" x="817.56" y="1197.28" width="49.78" height="49.78"/><rect class="cls-1" x="895.79" y="1197.28" width="42.67" height="49.78"/><rect class="cls-1" x="974.03" y="1197.28" width="42.67" height="49.78"/><rect class="cls-1" x="1045.15" y="1197.28" width="42.67" height="49.78"/><rect class="cls-1" x="895.79" y="1268.4" width="42.67" height="49.78"/><rect class="cls-1" x="974.03" y="1268.4" width="42.67" height="49.78"/><rect class="cls-1" x="1045.15" y="1268.4" width="42.67" height="49.78"/><rect class="cls-1" x="817.56" y="1339.52" width="49.78" height="49.78"/><rect class="cls-1" x="895.79" y="1339.52" width="42.67" height="49.78"/><rect class="cls-1" x="974.03" y="1339.52" width="42.67" height="49.78"/><rect class="cls-1" x="817.56" y="1410.65" width="49.78" height="49.78"/><rect class="cls-1" x="974.03" y="1410.65" width="42.67" height="49.78"/><rect class="cls-1" x="1045.15" y="1410.65" width="42.67" height="49.78"/><path class="cls-4" d="M3192.86,720.77V607H3086.17V464.73h-35.56V607H2951V720.77h-56.89v867.68h348.49V720.77Zm-78.24-78.23h35.56v71.12h-35.56Zm-64,56.89V642.54h35.56v71.12h-35.56Zm-64-56.89h35.56v71.12H2986.6Zm-28.44,832.11h-35.57v-71.12h35.57Zm0-106.68h-35.57v-71.12h35.57Zm0-106.68h-35.57v-71.12h35.57Zm0-106.68h-35.57v-71.12h35.57Zm0-106.68h-35.57V976.81h35.57Zm0-106.68h-35.57V870.12h35.57Zm0-106.69h-35.57V763.44h35.57Zm64,640.09H2986.6v-71.12h35.56Zm0-106.68H2986.6v-71.12h35.56Zm0-213.36H2986.6v-71.12h35.56Zm0-213.36H2986.6V870.12h35.56Zm0-106.69H2986.6V763.44h35.56Zm64,640.09h-35.56v-71.12h35.56Zm0-213.36h-35.56v-71.12h35.56Zm0-106.68h-35.56v-71.12h35.56Zm0-106.68h-35.56V976.81h35.56Zm0-106.68h-35.56V870.12h35.56Zm0-106.69h-35.56V763.44h35.56Zm64,640.09h-35.56v-71.12h35.56Zm0-106.68h-35.56v-71.12h35.56Zm0-106.68h-35.56v-71.12h35.56Zm0-106.68h-35.56v-71.12h35.56Zm0-106.68h-35.56V976.81h35.56Zm0-213.37h-35.56V763.44h35.56Zm64,640.09h-35.56v-71.12h35.56Zm0-106.68h-35.56v-71.12h35.56Zm0-106.68h-35.56v-71.12h35.56Zm0-106.68h-35.56v-71.12h35.56Zm0-106.68h-35.56V976.81h35.56Zm0-106.68h-35.56V870.12h35.56Zm0-106.69h-35.56V763.44h35.56Z"/><rect class="cls-1" x="2922.59" y="763.44" width="35.56" height="71.12"/><rect class="cls-1" x="2986.6" y="763.44" width="35.56" height="71.12"/><rect class="cls-1" x="3050.61" y="763.44" width="35.56" height="71.12"/><rect class="cls-1" x="3114.62" y="763.44" width="35.56" height="71.12"/><rect class="cls-1" x="3178.63" y="763.44" width="35.56" height="71.12"/><rect class="cls-1" x="2922.59" y="870.12" width="35.56" height="71.12"/><rect class="cls-1" x="2986.6" y="870.12" width="35.56" height="71.12"/><rect class="cls-1" x="3050.61" y="870.12" width="35.56" height="71.12"/><rect class="cls-1" x="3178.63" y="870.12" width="35.56" height="71.12"/><rect class="cls-1" x="2922.59" y="976.81" width="35.56" height="71.12"/><rect class="cls-1" x="3050.61" y="976.81" width="35.56" height="71.12"/><rect class="cls-1" x="3114.62" y="976.81" width="35.56" height="71.12"/><rect class="cls-1" x="3178.63" y="976.81" width="35.56" height="71.12"/><rect class="cls-1" x="2922.59" y="1083.49" width="35.56" height="71.12"/><rect class="cls-1" x="2986.6" y="1083.49" width="35.56" height="71.12"/><rect class="cls-1" x="3050.61" y="1083.49" width="35.56" height="71.12"/><rect class="cls-1" x="3114.62" y="1083.49" width="35.56" height="71.12"/><rect class="cls-1" x="3178.63" y="1083.49" width="35.56" height="71.12"/><rect class="cls-1" x="2922.59" y="1190.17" width="35.56" height="71.12"/><rect class="cls-1" x="3050.61" y="1190.17" width="35.56" height="71.12"/><rect class="cls-1" x="3114.62" y="1190.17" width="35.56" height="71.12"/><rect class="cls-1" x="3178.63" y="1190.17" width="35.56" height="71.12"/><rect class="cls-1" x="2922.59" y="1296.85" width="35.56" height="71.12"/><rect class="cls-1" x="2986.6" y="1296.85" width="35.56" height="71.12"/><rect class="cls-1" x="3114.62" y="1296.85" width="35.56" height="71.12"/><rect class="cls-1" x="3178.63" y="1296.85" width="35.56" height="71.12"/><rect class="cls-1" x="2922.59" y="1403.53" width="35.56" height="71.12"/><rect class="cls-1" x="2986.6" y="1403.53" width="35.56" height="71.12"/><rect class="cls-1" x="3050.61" y="1403.53" width="35.56" height="71.12"/><rect class="cls-1" x="3114.62" y="1403.53" width="35.56" height="71.12"/><rect class="cls-1" x="3178.63" y="1403.53" width="35.56" height="71.12"/><rect class="cls-1" x="2986.6" y="642.54" width="35.56" height="71.12"/><polygon class="cls-1" points="3086.17 699.43 3086.17 642.54 3050.61 642.54 3050.61 699.43 3050.61 713.66 3086.17 713.66 3086.17 699.43"/><rect class="cls-1" x="3114.62" y="642.54" width="35.56" height="71.12"/><path class="cls-6" d="M1349.35,2263s1.48-74.47-14.17-93.61c0,0,15.61,12,19.53,41.81,0,0-5.88-33.89,16.09-53.83,0,0-20,28.33-2.75,68,0,0-6.28-22,2.75-34.92,0,0-3.92,25.11,6.28,34.13,0,0,6.23-34.74-1.8-49.15,0,0,11.21,15.41,11.21,43.27,0,0-.78-20.48,6.67-24.17,0,0-6.28,8.08,0,26.91,0,0-1-37.66,15.78-40.41,0,0-15.38,18.05-5.58,40.41,0,0,15.08-39,5.58-63.07,0,0,14.43,22.27,9.73,57.19,0,0,4.31-33,14.91-43.16,0,0-10.6,26.28-6.28,42.77,0,0,18.44-33.35,11.38-54.93,0,0,12.64,40.41,1.61,68.27,0,0,15.65-21.58,9.76-41.59,0,0,7.75,16.87,1.33,39.23,0,0,4.17-19.14,10.84-17.65,0,0-8.86,9.41,1.65,18.44,0,0,9.1-22,0-36.88a35.36,35.36,0,0,1,8.55,34.92s12.91-30.39,1.55-50.51c0,0,13,17.55,7.08,47,0,0,6.67-32.5,16.87-38.42,0,0-12.16,18.42-5.1,35.68,0,0,5.89-3.19,5.1-14.74a32.81,32.81,0,0,1,1.94,23.37s11.42-22.36,4.74-36.1c0,0,10.19,18.84,5.09,33.35,0,0,12.56-35.74-3.53-58.87,0,0,18.83,25.13,12.95,56.52,0,0,2-25.18,9-27.7,0,0-5.88,23.38,0,29.27,0,0,14.84-26.68,8.24-53,0,0,8.26,18.44,2.37,49.83,0,0,1.4-25.5,14.43-29,0,0-14.05,13.34-4.24,31,0,0,20.38-28.68,4.3-56.91,0,0,18.06,25.92,8.65,59.27,0,0,18.83-25.51,11.37-42.38,0,0,9.35,18.84,3.31,40.81,0,0,4.15-20.41,11.21-25.11,0,0-6.67,14.91,4.32,27.46a22.69,22.69,0,0,0,2.45-18.83s8.93,9.81,4.22,22c0,0,10.8-34.92-9.12-59.25,0,0,23.64,18.84,15.79,56.9,0,0,5.1-34.92,23.93-24.33,0,0-18-5.49-13.34,25.5,0,0,10.67-6.32,6.63-16.48,0,0,11,3.93,4.94,15.7,0,0,15.9-25-2.15-47.61,0,0,17.65,13.47,10.59,43.69,0,0,5.49-24.33,15.3-26.69,0,0-7.45,6.28-5.1,22,0,0,14.52-13.74,7.07-33.35,0,0,9.75,12.94,2.12,38.84,0,0,7.3-29,21-26.68,0,0-16,13.11-17.09,65.92Z"/><path class="cls-6" d="M838.9,2263s1.48-74.47-14.17-93.61c0,0,15.61,12,19.53,41.81,0,0-5.88-33.89,16.09-53.83,0,0-20,28.33-2.75,68,0,0-6.28-22,2.75-34.92,0,0-3.93,25.11,6.27,34.13,0,0,6.24-34.74-1.79-49.15,0,0,11.21,15.41,11.21,43.27,0,0-.78-20.48,6.67-24.17,0,0-6.28,8.08,0,26.91,0,0-1-37.66,15.78-40.41,0,0-15.39,18.05-5.58,40.41,0,0,15.08-39,5.58-63.07,0,0,14.43,22.27,9.72,57.19,0,0,4.32-33,14.91-43.16,0,0-10.59,26.28-6.27,42.77,0,0,18.44-33.35,11.38-54.93,0,0,12.63,40.41,1.61,68.27,0,0,15.65-21.58,9.76-41.59,0,0,7.75,16.87,1.33,39.23,0,0,4.17-19.14,10.84-17.65,0,0-8.87,9.41,1.65,18.44,0,0,9.1-22,0-36.88A35.36,35.36,0,0,1,962,2225s12.91-30.39,1.55-50.51c0,0,13,17.55,7.08,47,0,0,6.67-32.5,16.87-38.42,0,0-12.16,18.42-5.1,35.68,0,0,5.88-3.19,5.1-14.74a32.81,32.81,0,0,1,1.94,23.37s11.42-22.36,4.74-36.1c0,0,10.19,18.84,5.09,33.35,0,0,12.56-35.74-3.53-58.87,0,0,18.83,25.13,12.95,56.52,0,0,2-25.18,9-27.7,0,0-5.88,23.38,0,29.27,0,0,14.83-26.68,8.24-53,0,0,8.26,18.44,2.36,49.83,0,0,1.41-25.5,14.44-29,0,0-14,13.34-4.24,31,0,0,20.38-28.68,4.3-56.91,0,0,18.06,25.92,8.64,59.27,0,0,18.84-25.51,11.38-42.38,0,0,9.35,18.84,3.3,40.81,0,0,4.16-20.41,11.22-25.11,0,0-6.67,14.91,4.32,27.46a22.69,22.69,0,0,0,2.45-18.83s8.92,9.81,4.22,22c0,0,10.8-34.92-9.12-59.25,0,0,23.63,18.84,15.79,56.9,0,0,5.1-34.92,23.93-24.33,0,0-18.05-5.49-13.34,25.5,0,0,10.67-6.32,6.63-16.48,0,0,11,3.93,4.94,15.7,0,0,15.9-25-2.15-47.61,0,0,17.65,13.47,10.59,43.69,0,0,5.49-24.33,15.3-26.69,0,0-7.45,6.28-5.1,22,0,0,14.52-13.74,7.06-33.35,0,0,9.75,12.94,2.13,38.84,0,0,7.29-29,21-26.68,0,0-16,13.11-17.08,65.92Z"/><path class="cls-6" d="M1815.89,2263s1.49-74.47-14.17-93.61c0,0,15.61,12,19.53,41.81,0,0-5.88-33.89,16.09-53.83,0,0-20,28.33-2.75,68,0,0-6.27-22,2.75-34.92,0,0-3.92,25.11,6.28,34.13,0,0,6.23-34.74-1.79-49.15,0,0,11.2,15.41,11.2,43.27,0,0-.78-20.48,6.67-24.17,0,0-6.27,8.08,0,26.91,0,0-1-37.66,15.78-40.41,0,0-15.38,18.05-5.58,40.41,0,0,15.08-39,5.58-63.07,0,0,14.44,22.27,9.73,57.19,0,0,4.31-33,14.91-43.16,0,0-10.6,26.28-6.28,42.77,0,0,18.44-33.35,11.38-54.93,0,0,12.64,40.41,1.61,68.27,0,0,15.65-21.58,9.77-41.59,0,0,7.74,16.87,1.32,39.23,0,0,4.17-19.14,10.84-17.65,0,0-8.86,9.41,1.65,18.44,0,0,9.11-22,0-36.88A35.36,35.36,0,0,1,1939,2225s12.91-30.39,1.55-50.51c0,0,13,17.55,7.08,47,0,0,6.67-32.5,16.87-38.42,0,0-12.16,18.42-5.1,35.68,0,0,5.89-3.19,5.1-14.74a32.81,32.81,0,0,1,1.94,23.37s11.43-22.36,4.74-36.1c0,0,10.19,18.84,5.09,33.35,0,0,12.56-35.74-3.53-58.87,0,0,18.84,25.13,13,56.52,0,0,2-25.18,9-27.7,0,0-5.88,23.38,0,29.27,0,0,14.84-26.68,8.24-53,0,0,8.26,18.44,2.37,49.83,0,0,1.4-25.5,14.43-29,0,0-14,13.34-4.24,31,0,0,20.38-28.68,4.3-56.91,0,0,18.06,25.92,8.65,59.27,0,0,18.83-25.51,11.38-42.38,0,0,9.34,18.84,3.3,40.81,0,0,4.15-20.41,11.21-25.11,0,0-6.67,14.91,4.32,27.46a22.71,22.71,0,0,0,2.46-18.83s8.92,9.81,4.21,22c0,0,10.8-34.92-9.12-59.25,0,0,23.64,18.84,15.79,56.9,0,0,5.1-34.92,23.93-24.33,0,0-18.05-5.49-13.34,25.5,0,0,10.67-6.32,6.63-16.48,0,0,11,3.93,4.95,15.7,0,0,15.89-25-2.16-47.61,0,0,17.66,13.47,10.59,43.69,0,0,5.5-24.33,15.3-26.69,0,0-7.45,6.28-5.1,22,0,0,14.52-13.74,7.07-33.35,0,0,9.75,12.94,2.12,38.84,0,0,7.3-29,21-26.68,0,0-16,13.11-17.09,65.92Z"/><path class="cls-6" d="M1496,2151.63h0c-3.92,9.15-7.13,16.76-9.56,22.56h-49.84s1-48.63-9.25-61.13c.31.24,9.86,7.84,12.6,26.24-.54-4.57-1.81-22.78,10.66-34.1,0,0-13,18.47-1.82,44.32-.29-1-3.85-14.62,1.82-22.74,0,0-2.56,16.4,4.1,22.29,0,0,4.07-22.68-1.16-32.1.21.3,7,9.94,7.29,27.16,0-3.24.35-12.68,4.37-14.68-.16.21-4,5.53,0,17.57,0,0-.65-24.6,10.31-26.39,0,0-10,11.78-3.64,26.39,0,0,9.85-25.49,3.65-41.18.24.38,9.19,14.54,6.44,36.65.55-3.74,3.46-21.54,9.64-27.49-.18.43-6.88,17.3-4.1,27.92,0,0,11.45-20.7,7.75-34.8C1496.69,2113.24,1502.33,2135.61,1496,2151.63Z"/><path class="cls-6" d="M1198.85,2040.92h0c-3.92,9.15-7.13,16.75-9.56,22.56h-49.84s1-48.63-9.24-61.13c.3.23,9.85,7.84,12.59,26.23-.54-4.57-1.81-22.78,10.66-34.09,0,0-13,18.47-1.82,44.32-.28-1-3.85-14.62,1.82-22.74,0,0-2.56,16.4,4.1,22.29,0,0,4.07-22.68-1.16-32.1.21.3,7,9.93,7.3,27.16,0-3.24.35-12.68,4.36-14.68-.16.21-4,5.53,0,17.57,0,0-.66-24.6,10.31-26.39,0,0-10.06,11.78-3.64,26.39,0,0,9.84-25.49,3.64-41.19.25.39,9.19,14.55,6.44,36.65.55-3.74,3.46-21.53,9.64-27.49-.17.44-6.88,17.3-4.09,27.93,0,0,11.44-20.7,7.74-34.8C1199.55,2002.54,1205.18,2024.91,1198.85,2040.92Z"/><path class="cls-6" d="M2459.12,2081.75h0c-3.92,9.15-7.13,16.75-9.57,22.56h-49.83s1-48.63-9.25-61.13c.31.23,9.86,7.84,12.6,26.23-.54-4.57-1.81-22.78,10.66-34.09,0,0-13.05,18.47-1.82,44.32-.29-1-3.85-14.62,1.82-22.75,0,0-2.56,16.41,4.1,22.3,0,0,4.07-22.68-1.16-32.1.21.3,7,9.93,7.29,27.16,0-3.25.35-12.69,4.37-14.68-.16.21-4,5.53,0,17.57,0,0-.65-24.6,10.31-26.39,0,0-10,11.78-3.64,26.39,0,0,9.85-25.49,3.65-41.19.24.39,9.19,14.55,6.43,36.65.56-3.74,3.47-21.53,9.64-27.49-.17.44-6.87,17.3-4.09,27.93,0,0,11.45-20.7,7.75-34.8C2459.82,2043.37,2465.46,2065.74,2459.12,2081.75Z"/><path class="cls-6" d="M3111.29,1961.49h0c-3.92,9.15-7.12,16.75-9.56,22.56h-49.83s1-48.63-9.25-61.13c.31.23,9.86,7.84,12.6,26.23-.54-4.57-1.82-22.78,10.66-34.1,0,0-13.05,18.48-1.82,44.32-.29-1-3.85-14.61,1.82-22.74,0,0-2.56,16.4,4.1,22.29,0,0,4.07-22.67-1.17-32.09.22.3,7,9.93,7.3,27.15,0-3.24.35-12.68,4.36-14.68-.15.22-4,5.54,0,17.58,0,0-.66-24.6,10.31-26.4,0,0-10,11.79-3.64,26.4,0,0,9.85-25.5,3.65-41.19.24.38,9.19,14.54,6.43,36.65.56-3.74,3.47-21.53,9.64-27.49-.17.44-6.87,17.3-4.09,27.93,0,0,11.45-20.7,7.75-34.81C3112,1923.1,3117.63,1945.48,3111.29,1961.49Z"/><path class="cls-6" d="M3731.36,2186.12h0c-3.92,9.15-7.13,16.75-9.56,22.56H3672s1-48.63-9.24-61.13c.3.23,9.85,7.84,12.59,26.23-.54-4.57-1.81-22.78,10.66-34.09,0,0-13,18.47-1.82,44.32-.28-1-3.85-14.62,1.82-22.75,0,0-2.56,16.41,4.1,22.3,0,0,4.07-22.68-1.16-32.1.21.3,7,9.93,7.29,27.16,0-3.25.35-12.69,4.37-14.68-.16.21-4,5.53,0,17.57,0,0-.65-24.6,10.32-26.39,0,0-10.06,11.78-3.65,26.39,0,0,9.85-25.49,3.65-41.19.25.39,9.19,14.55,6.44,36.65.55-3.74,3.46-21.53,9.64-27.49-.18.44-6.88,17.3-4.1,27.93,0,0,11.45-20.7,7.75-34.8C3732.06,2147.74,3737.7,2170.11,3731.36,2186.12Z"/><path class="cls-6" d="M3425.31,1736.22h0c-3.92,9.15-7.13,16.76-9.56,22.56H3365.9s1-48.63-9.24-61.13c.3.24,9.85,7.84,12.59,26.24-.54-4.57-1.81-22.78,10.66-34.1,0,0-13,18.47-1.82,44.32-.28-1-3.85-14.62,1.82-22.74,0,0-2.56,16.4,4.1,22.29,0,0,4.07-22.68-1.16-32.1.21.3,7,9.94,7.3,27.16,0-3.24.35-12.68,4.36-14.68-.16.21-4,5.53,0,17.57,0,0-.66-24.6,10.31-26.39,0,0-10.06,11.78-3.64,26.39,0,0,9.84-25.49,3.64-41.19.25.39,9.19,14.55,6.44,36.66.55-3.74,3.46-21.54,9.64-27.49-.17.43-6.88,17.3-4.09,27.92,0,0,11.44-20.7,7.74-34.8C3426,1697.83,3431.64,1720.2,3425.31,1736.22Z"/><path class="cls-6" d="M3731.36,1700.12h0c-3.92,9.15-7.13,16.75-9.56,22.56H3672s1-48.63-9.24-61.13c.3.23,9.85,7.84,12.59,26.23-.54-4.57-1.81-22.78,10.66-34.09,0,0-13,18.47-1.82,44.32-.28-1-3.85-14.62,1.82-22.74,0,0-2.56,16.4,4.1,22.29,0,0,4.07-22.68-1.16-32.1.21.3,7,9.93,7.29,27.16,0-3.24.35-12.68,4.37-14.68-.16.21-4,5.53,0,17.57,0,0-.65-24.6,10.32-26.39,0,0-10.06,11.78-3.65,26.39,0,0,9.85-25.49,3.65-41.19.25.39,9.19,14.55,6.44,36.66.55-3.75,3.46-21.54,9.64-27.5-.18.44-6.88,17.31-4.1,27.93,0,0,11.45-20.7,7.75-34.8C3732.06,1661.73,3737.7,1684.1,3731.36,1700.12Z"/><path class="cls-6" d="M1671.39,1729.69h0c-1.77,4.14-3.23,7.59-4.33,10.22h-22.59s.44-22-4.19-27.71c.14.11,4.47,3.56,5.71,11.89-.25-2.07-.82-10.32,4.83-15.45,0,0-5.91,8.37-.82,20.09-.13-.47-1.75-6.63.82-10.31,0,0-1.16,7.43,1.86,10.1,0,0,1.84-10.27-.53-14.54.1.13,3.18,4.5,3.31,12.3,0-1.46.16-5.74,2-6.65-.07.1-1.82,2.51,0,8,0,0-.3-11.15,4.67-12,0,0-4.55,5.34-1.65,12,0,0,4.47-11.56,1.66-18.67.11.17,4.16,6.59,2.91,16.61.26-1.7,1.57-9.76,4.37-12.46-.08.2-3.11,7.84-1.85,12.66,0,0,5.19-9.38,3.51-15.78C1671.7,1712.29,1674.26,1722.43,1671.39,1729.69Z"/><path class="cls-6" d="M1291,1634.64h0c-1.78,4.15-3.23,7.59-4.33,10.22h-22.59s.44-22-4.19-27.7c.14.1,4.46,3.55,5.71,11.89-.25-2.07-.82-10.33,4.83-15.46,0,0-5.92,8.38-.83,20.09-.13-.47-1.74-6.62.83-10.31,0,0-1.16,7.44,1.86,10.11,0,0,1.84-10.28-.53-14.55.1.14,3.18,4.5,3.31,12.31,0-1.47.16-5.75,2-6.66-.07.1-1.81,2.51,0,8,0,0-.3-11.15,4.67-12,0,0-4.56,5.34-1.65,12,0,0,4.46-11.55,1.65-18.67.11.18,4.17,6.59,2.92,16.61.25-1.69,1.57-9.76,4.37-12.46-.08.2-3.12,7.85-1.86,12.66,0,0,5.19-9.38,3.52-15.77C1291.3,1617.24,1293.85,1627.38,1291,1634.64Z"/><path class="cls-6" d="M1891.49,1644h0c-1.77,4.14-3.23,7.59-4.33,10.22h-22.59s.44-22-4.19-27.7c.14.1,4.47,3.55,5.71,11.89-.24-2.08-.82-10.33,4.83-15.46,0,0-5.91,8.37-.82,20.09-.13-.47-1.75-6.63.82-10.31,0,0-1.16,7.44,1.86,10.11,0,0,1.85-10.28-.53-14.55.1.13,3.19,4.5,3.31,12.31,0-1.47.16-5.75,2-6.66-.07.1-1.82,2.51,0,8,0,0-.3-11.15,4.68-12,0,0-4.56,5.34-1.65,12,0,0,4.46-11.56,1.65-18.67.11.17,4.16,6.59,2.91,16.61.26-1.69,1.57-9.76,4.37-12.46-.07.2-3.11,7.84-1.85,12.66,0,0,5.19-9.38,3.51-15.77C1891.8,1626.56,1894.36,1636.7,1891.49,1644Z"/><path class="cls-6" d="M1434.7,1738.88h0c-1.77,4.15-3.23,7.59-4.33,10.22h-22.59s.44-22-4.19-27.7c.14.1,4.47,3.55,5.71,11.89-.24-2.07-.82-10.33,4.83-15.46,0,0-5.91,8.38-.82,20.09-.13-.47-1.75-6.62.82-10.31,0,0-1.16,7.44,1.86,10.11,0,0,1.85-10.28-.53-14.55.1.14,3.19,4.5,3.31,12.31,0-1.47.16-5.75,2-6.66-.07.1-1.82,2.51,0,8,0,0-.3-11.15,4.68-12,0,0-4.56,5.34-1.66,12,0,0,4.47-11.55,1.66-18.67.11.18,4.16,6.59,2.91,16.61.26-1.69,1.57-9.76,4.37-12.46-.07.2-3.11,7.85-1.85,12.66,0,0,5.19-9.38,3.51-15.77C1435,1721.48,1437.57,1731.62,1434.7,1738.88Z"/><path class="cls-6" d="M2252.32,2263s1.48-74.47-14.17-93.61c0,0,15.61,12,19.53,41.81,0,0-5.88-33.89,16.09-53.83,0,0-20,28.33-2.75,68,0,0-6.28-22,2.75-34.92,0,0-3.93,25.11,6.28,34.13,0,0,6.23-34.74-1.8-49.15,0,0,11.21,15.41,11.21,43.27,0,0-.78-20.48,6.67-24.17,0,0-6.28,8.08,0,26.91,0,0-1-37.66,15.78-40.41,0,0-15.39,18.05-5.58,40.41,0,0,15.08-39,5.58-63.07,0,0,14.43,22.27,9.73,57.19,0,0,4.31-33,14.9-43.16,0,0-10.59,26.28-6.27,42.77,0,0,18.44-33.35,11.38-54.93,0,0,12.63,40.41,1.61,68.27,0,0,15.65-21.58,9.76-41.59,0,0,7.75,16.87,1.33,39.23,0,0,4.17-19.14,10.84-17.65,0,0-8.86,9.41,1.65,18.44,0,0,9.1-22,0-36.88a35.36,35.36,0,0,1,8.55,34.92s12.91-30.39,1.55-50.51c0,0,13,17.55,7.08,47,0,0,6.67-32.5,16.87-38.42,0,0-12.16,18.42-5.1,35.68,0,0,5.89-3.19,5.1-14.74a32.81,32.81,0,0,1,1.94,23.37s11.42-22.36,4.74-36.1c0,0,10.19,18.84,5.09,33.35,0,0,12.56-35.74-3.53-58.87,0,0,18.83,25.13,12.95,56.52,0,0,2-25.18,9-27.7,0,0-5.88,23.38,0,29.27,0,0,14.84-26.68,8.24-53,0,0,8.26,18.44,2.37,49.83,0,0,1.4-25.5,14.43-29,0,0-14,13.34-4.24,31,0,0,20.38-28.68,4.3-56.91,0,0,18.06,25.92,8.64,59.27,0,0,18.84-25.51,11.38-42.38,0,0,9.35,18.84,3.3,40.81,0,0,4.16-20.41,11.22-25.11,0,0-6.67,14.91,4.32,27.46a22.69,22.69,0,0,0,2.45-18.83s8.92,9.81,4.22,22c0,0,10.8-34.92-9.12-59.25,0,0,23.63,18.84,15.79,56.9,0,0,5.1-34.92,23.93-24.33,0,0-18-5.49-13.34,25.5,0,0,10.67-6.32,6.63-16.48,0,0,11,3.93,4.94,15.7,0,0,15.9-25-2.15-47.61,0,0,17.65,13.47,10.59,43.69,0,0,5.49-24.33,15.3-26.69,0,0-7.45,6.28-5.1,22,0,0,14.52-13.74,7.06-33.35,0,0,9.76,12.94,2.13,38.84,0,0,7.29-29,21-26.68,0,0-16,13.11-17.08,65.92Z"/><path class="cls-6" d="M2619.11,2263s1.48-74.47-14.17-93.61c0,0,15.61,12,19.53,41.81,0,0-5.89-33.89,16.09-53.83,0,0-20,28.33-2.75,68,0,0-6.28-22,2.75-34.92,0,0-3.93,25.11,6.27,34.13,0,0,6.24-34.74-1.79-49.15,0,0,11.21,15.41,11.21,43.27,0,0-.78-20.48,6.67-24.17,0,0-6.28,8.08,0,26.91,0,0-1-37.66,15.78-40.41,0,0-15.39,18.05-5.58,40.41,0,0,15.08-39,5.58-63.07,0,0,14.43,22.27,9.72,57.19,0,0,4.32-33,14.91-43.16,0,0-10.59,26.28-6.27,42.77,0,0,18.44-33.35,11.37-54.93,0,0,12.64,40.41,1.62,68.27,0,0,15.65-21.58,9.76-41.59,0,0,7.75,16.87,1.32,39.23,0,0,4.18-19.14,10.85-17.65,0,0-8.87,9.41,1.65,18.44,0,0,9.1-22,0-36.88a35.39,35.39,0,0,1,8.55,34.92s12.9-30.39,1.55-50.51c0,0,13,17.55,7.08,47,0,0,6.67-32.5,16.87-38.42,0,0-12.16,18.42-5.1,35.68,0,0,5.88-3.19,5.1-14.74a32.81,32.81,0,0,1,1.94,23.37s11.42-22.36,4.74-36.1c0,0,10.19,18.84,5.09,33.35,0,0,12.56-35.74-3.53-58.87,0,0,18.83,25.13,12.95,56.52,0,0,2-25.18,9-27.7,0,0-5.88,23.38,0,29.27,0,0,14.83-26.68,8.24-53,0,0,8.26,18.44,2.36,49.83,0,0,1.41-25.5,14.44-29,0,0-14,13.34-4.24,31,0,0,20.38-28.68,4.3-56.91,0,0,18.06,25.92,8.64,59.27,0,0,18.84-25.51,11.38-42.38,0,0,9.35,18.84,3.3,40.81,0,0,4.16-20.41,11.22-25.11,0,0-6.67,14.91,4.32,27.46a22.69,22.69,0,0,0,2.45-18.83s8.92,9.81,4.22,22c0,0,10.8-34.92-9.12-59.25,0,0,23.63,18.84,15.79,56.9,0,0,5.1-34.92,23.93-24.33,0,0-18-5.49-13.34,25.5,0,0,10.67-6.32,6.63-16.48,0,0,11,3.93,4.94,15.7,0,0,15.89-25-2.15-47.61,0,0,17.65,13.47,10.59,43.69,0,0,5.49-24.33,15.3-26.69,0,0-7.45,6.28-5.1,22,0,0,14.52-13.74,7.06-33.35,0,0,9.75,12.94,2.13,38.84,0,0,7.29-29,21-26.68,0,0-16,13.11-17.08,65.92Z"/><path class="cls-6" d="M3171.72,2263s1.49-74.47-14.16-93.61c0,0,15.6,12,19.53,41.81,0,0-5.89-33.89,16.08-53.83,0,0-20,28.33-2.74,68,0,0-6.28-22,2.74-34.92,0,0-3.92,25.11,6.28,34.13,0,0,6.23-34.74-1.79-49.15,0,0,11.21,15.41,11.21,43.27,0,0-.79-20.48,6.67-24.17,0,0-6.28,8.08,0,26.91,0,0-1-37.66,15.77-40.41,0,0-15.38,18.05-5.57,40.41,0,0,15.07-39,5.57-63.07,0,0,14.44,22.27,9.73,57.19,0,0,4.32-33,14.91-43.16,0,0-10.59,26.28-6.28,42.77,0,0,18.44-33.35,11.38-54.93,0,0,12.64,40.41,1.61,68.27,0,0,15.65-21.58,9.77-41.59,0,0,7.75,16.87,1.32,39.23,0,0,4.18-19.14,10.84-17.65,0,0-8.86,9.41,1.65,18.44,0,0,9.11-22,0-36.88a35.36,35.36,0,0,1,8.55,34.92s12.91-30.39,1.55-50.51c0,0,13,17.55,7.09,47,0,0,6.67-32.5,16.87-38.42,0,0-12.17,18.42-5.1,35.68,0,0,5.88-3.19,5.1-14.74a32.84,32.84,0,0,1,1.93,23.37s11.43-22.36,4.75-36.1c0,0,10.19,18.84,5.09,33.35,0,0,12.55-35.74-3.53-58.87,0,0,18.83,25.13,12.94,56.52,0,0,2-25.18,9-27.7,0,0-5.89,23.38,0,29.27,0,0,14.83-26.68,8.24-53,0,0,8.26,18.44,2.36,49.83,0,0,1.41-25.5,14.43-29,0,0-14.05,13.34-4.24,31,0,0,20.38-28.68,4.31-56.91,0,0,18.06,25.92,8.64,59.27,0,0,18.83-25.51,11.38-42.38,0,0,9.35,18.84,3.3,40.81,0,0,4.15-20.41,11.22-25.11,0,0-6.67,14.91,4.31,27.46a22.71,22.71,0,0,0,2.46-18.83s8.92,9.81,4.21,22c0,0,10.8-34.92-9.11-59.25,0,0,23.63,18.84,15.78,56.9,0,0,5.1-34.92,23.94-24.33,0,0-18-5.49-13.34,25.5,0,0,10.67-6.32,6.62-16.48,0,0,11,3.93,4.95,15.7,0,0,15.89-25-2.16-47.61,0,0,17.66,13.47,10.6,43.69,0,0,5.49-24.33,15.3-26.69,0,0-7.46,6.28-5.1,22,0,0,14.51-13.74,7.06-33.35,0,0,9.75,12.94,2.13,38.84,0,0,7.29-29,21-26.68,0,0-16,13.11-17.09,65.92Z"/><path class="cls-6" d="M2176,1683h0c-2.29,5.34-4.16,9.78-5.58,13.16h-29.08s.57-28.37-5.39-35.66c.18.13,5.75,4.57,7.35,15.3-.32-2.66-1.06-13.29,6.22-19.89,0,0-7.62,10.78-1.06,25.86-.17-.61-2.25-8.53,1.06-13.27,0,0-1.5,9.57,2.39,13,0,0,2.37-13.24-.68-18.73.13.17,4.1,5.79,4.26,15.84,0-1.89.2-7.4,2.54-8.56-.09.12-2.33,3.23,0,10.25,0,0-.39-14.35,6-15.4,0,0-5.86,6.88-2.12,15.4,0,0,5.75-14.87,2.13-24,.14.22,5.36,8.49,3.75,21.39.33-2.19,2-12.57,5.63-16-.1.26-4,10.1-2.39,16.3,0,0,6.68-12.08,4.52-20.31C2176.38,1660.55,2179.67,1673.6,2176,1683Z"/><path class="cls-6" d="M2356.77,1683.75h0c-2.29,5.34-4.16,9.77-5.58,13.16h-29.08s.56-28.37-5.4-35.67c.18.14,5.75,4.58,7.35,15.31-.31-2.67-1.06-13.29,6.22-19.89,0,0-7.61,10.77-1.06,25.86-.17-.61-2.24-8.53,1.06-13.27,0,0-1.49,9.57,2.4,13,0,0,2.37-13.23-.68-18.72.12.17,4.09,5.79,4.25,15.84,0-1.89.21-7.4,2.55-8.57-.09.13-2.34,3.23,0,10.26,0,0-.38-14.36,6-15.4,0,0-5.87,6.87-2.12,15.4,0,0,5.74-14.88,2.12-24,.15.22,5.37,8.48,3.76,21.38.32-2.18,2-12.56,5.62-16-.1.26-4,10.1-2.38,16.3,0,0,6.67-12.08,4.52-20.31C2357.18,1661.35,2360.47,1674.4,2356.77,1683.75Z"/><path class="cls-6" d="M3147.09,2130.56a0,0,0,0,0,0,0c-3.92,9.15-7.12,16.75-9.56,22.56h-49.83s1-48.63-9.25-61.13c.31.23,9.85,7.84,12.6,26.23-.55-4.57-1.82-22.78,10.66-34.09,0,0-13.06,18.47-1.82,44.32-.29-1-3.85-14.62,1.82-22.75,0,0-2.57,16.41,4.09,22.3,0,0,4.08-22.68-1.16-32.1.22.3,7,9.93,7.3,27.16,0-3.25.35-12.69,4.36-14.69-.16.22-4,5.54,0,17.58,0,0-.66-24.6,10.31-26.39,0,0-10.05,11.78-3.64,26.39,0,0,9.84-25.5,3.65-41.19.24.39,9.19,14.55,6.43,36.65.56-3.74,3.46-21.53,9.64-27.49-.17.44-6.88,17.3-4.09,27.93,0,0,11.45-20.7,7.75-34.8C3147.79,2092.18,3153.42,2114.55,3147.09,2130.56Z"/><path class="cls-6" d="M2783.73,1804.27h0c-2.28,5.33-4.15,9.77-5.57,13.16h-29.08s.56-28.38-5.4-35.67c.18.14,5.75,4.57,7.35,15.31-.31-2.67-1.06-13.3,6.22-19.9,0,0-7.61,10.78-1.06,25.86-.17-.6-2.25-8.53,1.06-13.27,0,0-1.49,9.57,2.39,13,0,0,2.38-13.23-.67-18.73.12.18,4.09,5.8,4.25,15.85,0-1.9.21-7.4,2.55-8.57-.09.13-2.34,3.23,0,10.25,0,0-.38-14.35,6-15.4,0,0-5.87,6.88-2.13,15.4,0,0,5.75-14.87,2.13-24,.15.23,5.37,8.49,3.76,21.39.32-2.18,2-12.57,5.62-16-.1.25-4,10.09-2.38,16.29,0,0,6.67-12.08,4.52-20.3C2784.14,1781.87,2787.42,1794.93,2783.73,1804.27Z"/><rect class="cls-7" x="1647.69" y="2009.23" width="22.46" height="253.64"/><path class="cls-8" d="M1759.26,2029.75H1571.44a22.86,22.86,0,0,1-22.85-22.85v-82.67a22.88,22.88,0,0,1,22.85-22.85h187.82a22.84,22.84,0,0,1,22.84,22.85v82.67a22.85,22.85,0,0,1-22.84,22.85Z"/><path class="cls-1" d="M1599.87,1956.76a2.79,2.79,0,0,1-.88-.16,17.79,17.79,0,0,0-5.44-.72,22.25,22.25,0,0,0-2.42.14c-.92.09-1.93.23-3.05.41q0,3.32,0,5.7a18.89,18.89,0,0,1,4.35-.64,47.83,47.83,0,0,1,5.6.29,2.19,2.19,0,0,1,2.22,2.35,2.23,2.23,0,0,1-.7,1.68,2.42,2.42,0,0,1-1.73.67c-.6,0-1.5,0-2.69-.14s-2.1-.13-2.7-.13a20.5,20.5,0,0,0-4.35.79v10.83a2.09,2.09,0,0,1-.79,1.67,2.67,2.67,0,0,1-1.8.68,2.08,2.08,0,0,1-1.62-.67,2.33,2.33,0,0,1-.63-1.68V1958q0-.68,0-2c0-.91,0-1.59,0-2a2.26,2.26,0,0,1,.69-1.69,2.34,2.34,0,0,1,1.72-.68,2.5,2.5,0,0,1,1.15.26c1.34-.23,2.56-.4,3.68-.51s2.13-.16,3-.16a19.65,19.65,0,0,1,5,.81q3.75,1,3.75,2.37a2.41,2.41,0,0,1-2.39,2.4Z"/><path class="cls-1" d="M1616.68,1979.4a13.32,13.32,0,0,1-8.71-2.94,10,10,0,0,1-3.83-8.13,17.3,17.3,0,0,1,3.68-10.71,12.58,12.58,0,0,1,10.4-5.44q6,0,9,2.76t3,8.31a17.92,17.92,0,0,1-3.38,10.64A12,12,0,0,1,1616.68,1979.4Zm1.54-22.54c-2.57,0-4.77,1.25-6.6,3.73a12.72,12.72,0,0,0-2.57,7.74,5.7,5.7,0,0,0,2.22,4.66,8.35,8.35,0,0,0,5.41,1.73c2.53,0,4.65-1.24,6.34-3.73a13.41,13.41,0,0,0,2.33-7.74q0-3.63-1.62-5T1618.22,1956.86Z"/><path class="cls-1" d="M1650.79,1978.55a2.47,2.47,0,0,1-1.71-.72,29.1,29.1,0,0,0-11.5-6.81c.12,3.35.19,5.21.19,5.58a2.26,2.26,0,0,1-.69,1.67,2.54,2.54,0,0,1-3.46,0,2.26,2.26,0,0,1-.69-1.67c0-.86,0-2.15,0-3.88s0-3,0-3.87l0-13.94a3.36,3.36,0,0,1,.68-2,2.6,2.6,0,0,1,2.43-1l4.3.33a12.17,12.17,0,0,1,4.11,1.15q7.38,3.72,7.38,9.21a5.85,5.85,0,0,1-1.55,4,11.76,11.76,0,0,1-4.63,2.92,26,26,0,0,1,6.89,5.22,2.28,2.28,0,0,1,.6,1.54,2.23,2.23,0,0,1-.72,1.66A2.4,2.4,0,0,1,1650.79,1978.55Zm-11.07-21.72-2-.14v9.17l.76,0a14.13,14.13,0,0,0,6.27-1.06,6.27,6.27,0,0,0,1.61-1.19c.49-.49.74-.87.74-1.12q0-1.93-2.46-3.73A9.92,9.92,0,0,0,1639.72,1956.83Z"/><path class="cls-1" d="M1679.18,1979.4a11,11,0,0,1-6.91-2,4.68,4.68,0,0,1-2.12-3.75,2.55,2.55,0,0,1,.66-1.8,2.31,2.31,0,0,1,1.81-.72,2.38,2.38,0,0,1,2.28,1.59c.65,1.41,2.14,2.12,4.45,2.12a13.58,13.58,0,0,0,5.76-1.29c1.92-.89,2.88-1.86,2.88-2.92a2.77,2.77,0,0,0-1.8-2.87,18.09,18.09,0,0,0-5.13-.59,13.76,13.76,0,0,1-5.35-1.12q-3.2-1.42-3.14-4.11,0-3.36,3.59-6.17A12.28,12.28,0,0,1,1684,1953a14.52,14.52,0,0,1,4.18.78c2.06.64,3.09,1.39,3.09,2.23a2.32,2.32,0,0,1-.62,1.58,2.29,2.29,0,0,1-1.78.78,12.76,12.76,0,0,1-2.43-.34,12.94,12.94,0,0,0-2.44-.35,9.16,9.16,0,0,0-4.24,1.07c-1.38.72-2.07,1.49-2.07,2.33a1.26,1.26,0,0,0,.63,1.08,4.66,4.66,0,0,0,1.89.6l4.41.24a10.52,10.52,0,0,1,6.06,2.16,7.08,7.08,0,0,1,2.45,5.73q0,4.45-5.08,6.76A21.29,21.29,0,0,1,1679.18,1979.4Z"/><path class="cls-1" d="M1715.43,1978.86c-.91,0-1.82-1.1-2.74-3.21a26.93,26.93,0,0,1-1.57-4.7c-.86.13-2.25.26-4.18.38s-3.22.28-4.18.45q-.79,1.9-2.77,5.72a2.34,2.34,0,0,1-2.1,1.24,2.54,2.54,0,0,1-1.71-.64,2.09,2.09,0,0,1-.76-1.65q0-.89,2.52-6a2.12,2.12,0,0,1-.21-1c0-.55.61-1,1.68-1.3q2.44-4.25,5.45-8.8c2.88-4.37,4.66-6.55,5.32-6.55,1.27,0,2.12.77,2.54,2.3q.35,1.85,1.09,5.54,1.05,5,2.57,11.38a23.15,23.15,0,0,0,.88,2.28,6.48,6.48,0,0,1,.63,2.23,2.14,2.14,0,0,1-.76,1.68A2.33,2.33,0,0,1,1715.43,1978.86Zm-6.44-17.72c-.9,1.55-2.13,3.65-3.71,6.31a16.5,16.5,0,0,1,2.42-.28c1.29-.08,2.1-.14,2.43-.19Q1709.73,1964.75,1709,1961.14Z"/><path class="cls-1" d="M1737.71,1977.69a28.53,28.53,0,0,1-6.3,1.61,41,41,0,0,1-6.41.65q-4.23,0-4.23-3.71c0,.2.11-1.63.35-5.48q.44-7.48.44-16.68a2.26,2.26,0,0,1,.69-1.67,2.3,2.3,0,0,1,1.72-.69,2.33,2.33,0,0,1,1.72.69,2.26,2.26,0,0,1,.69,1.67q0,9.21-.46,17-.17,1.38-.33,4.23a40.1,40.1,0,0,0,10.5-2,2.61,2.61,0,0,1,.76-.12,2.2,2.2,0,0,1,1.76.79,2.4,2.4,0,0,1,.61,1.59A2.26,2.26,0,0,1,1737.71,1977.69Z"/><path class="cls-1" d="M1758.35,1956.21a2.68,2.68,0,0,1-.72-.11,21,21,0,0,0-5.44-.76,19.84,19.84,0,0,0-2.78.21,29.74,29.74,0,0,0-3.16.62c0,1.53-.06,3.81-.16,6.82.64,0,2.89-.26,6.75-.64,2.2-.21,3.59-.32,4.18-.32a2.55,2.55,0,0,1,1.75.64,2.22,2.22,0,0,1,.72,1.72,2.17,2.17,0,0,1-2.19,2.33l-4.13.35c-1.63.18-4.1.41-7.39.67q-.12,2.19-.12,3.54c0,2.26.13,3.54.4,3.85a4.89,4.89,0,0,0,2.17.23c.72,0,1.79,0,3.23,0s2.52,0,3.23,0a7.43,7.43,0,0,0,1-.11,7,7,0,0,1,1-.1,2.63,2.63,0,0,1,1.71.57,2.14,2.14,0,0,1,.81,1.79,2.17,2.17,0,0,1-2,2.32,48,48,0,0,1-7.16.33q-5.64,0-7.35-1.52-1.87-1.68-1.88-7.26,0-2.31.34-7c.22-3.09.34-5.4.34-6.93a12.92,12.92,0,0,0-.18-1.79,14.28,14.28,0,0,1-.17-1.79c0-1.75.81-2.62,2.42-2.62a2.46,2.46,0,0,1,1.4.43,32.76,32.76,0,0,1,3.81-.75,24.36,24.36,0,0,1,3.41-.25,19.81,19.81,0,0,1,7,1,2.19,2.19,0,0,1,1.59,2.19,2.29,2.29,0,0,1-.63,1.59A2.22,2.22,0,0,1,1758.35,1956.21Z"/><path class="cls-9" d="M1656.94,2263l-11.6-.53s-16.47-21.52-23.71-43.57c-10.17-31,4.29-50.9,12.84-51.69s14.58,6.86,10.26,30C1642.19,2210.89,1643.06,2236.54,1656.94,2263Z"/><path class="cls-1" d="M1647.85,2253.31l.09,0a.73.73,0,0,0,.17-1c-17.47-24.94-21.75-59.9-15.69-78a.72.72,0,1,0-1.36-.46c-6.17,18.41-1.85,53.94,15.88,79.26A.71.71,0,0,0,1647.85,2253.31Z"/><path class="cls-9" d="M1678.54,2263l-17.45-.2s3-43.82,17.79-78.4c20.8-48.61,59.69-57.36,70.94-49.16s10.4,23.95-19.61,47.49C1712.5,2196.65,1690,2215.93,1678.54,2263Z"/><path class="cls-1" d="M1674,2254.34l.16,0a1.16,1.16,0,0,0,1.28-1c5.44-49.07,37.65-96.19,64.36-111.7a1.17,1.17,0,0,0-1.17-2c-27.2,15.8-60,63.67-65.5,113.46A1.16,1.16,0,0,0,1674,2254.34Z"/><path class="cls-9" d="M2328.31,1934.31l9.4-.43s13.34-17.43,19.19-35.28c8.24-25.1-3.47-41.22-10.39-41.85s-11.81,5.55-8.31,24.28C2340.26,1892.09,2339.55,1912.86,2328.31,1934.31Z"/><path class="cls-1" d="M2335.67,1926.44l-.06,0a.59.59,0,0,1-.15-.82c14.15-20.2,17.61-48.5,12.71-63.14a.57.57,0,0,1,.37-.73.59.59,0,0,1,.74.36c5,14.91,1.49,43.68-12.86,64.18A.6.6,0,0,1,2335.67,1926.44Z"/><path class="cls-6" d="M2315.47,1934.31l5.68-.26s8.07-10.54,11.61-21.33c5-15.18-2.1-24.92-6.29-25.3s-7.13,3.35-5,14.68C2322.7,1908.78,2322.27,1921.34,2315.47,1934.31Z"/><path class="cls-1" d="M2319.92,1929.55l0,0a.36.36,0,0,1-.08-.5c8.55-12.21,10.64-29.32,7.68-38.17a.35.35,0,0,1,.22-.44.36.36,0,0,1,.45.22c3,9,.9,26.4-7.78,38.8A.36.36,0,0,1,2319.92,1929.55Z"/><path class="cls-9" d="M2602,1701.1l9.39-.43s13.34-17.43,19.2-35.28c8.23-25.1-3.48-41.22-10.4-41.85s-11.8,5.55-8.31,24.28C2613.91,1658.88,2613.21,1679.65,2602,1701.1Z"/><path class="cls-1" d="M2609.33,1693.23l-.07,0a.59.59,0,0,1-.15-.82c14.15-20.2,17.62-48.5,12.71-63.14a.59.59,0,0,1,1.11-.37c5,14.91,1.49,43.68-12.86,64.18A.59.59,0,0,1,2609.33,1693.23Z"/><path class="cls-6" d="M2589.13,1701.1l5.68-.26s8.06-10.54,11.6-21.33c5-15.18-2.1-24.92-6.29-25.3s-7.13,3.35-5,14.68C2596.35,1675.57,2595.92,1688.13,2589.13,1701.1Z"/><path class="cls-1" d="M2593.58,1696.34l0,0a.35.35,0,0,1-.08-.49c8.55-12.21,10.65-29.32,7.68-38.17a.35.35,0,0,1,.67-.22c3,9,.9,26.4-7.78,38.8A.35.35,0,0,1,2593.58,1696.34Z"/><path class="cls-9" d="M2034.63,1732.09l9.4-.42s13.34-17.43,19.19-35.29c8.24-25.1-3.47-41.21-10.39-41.85s-11.81,5.55-8.31,24.29C2046.58,1689.87,2045.87,1710.64,2034.63,1732.09Z"/><path class="cls-1" d="M2042,1724.22l-.07,0a.59.59,0,0,1-.14-.81c14.15-20.2,17.61-48.51,12.71-63.14a.58.58,0,0,1,.37-.74.57.57,0,0,1,.73.37c5,14.9,1.5,43.68-12.85,64.18A.59.59,0,0,1,2042,1724.22Z"/><path class="cls-6" d="M2021.79,1732.09l5.68-.25s8.07-10.54,11.61-21.34c5-15.17-2.1-24.91-6.29-25.3s-7.13,3.36-5,14.69C2029,1706.57,2028.59,1719.12,2021.79,1732.09Z"/><path class="cls-1" d="M2026.24,1727.33l0,0a.35.35,0,0,1-.09-.49c8.56-12.21,10.65-29.33,7.69-38.17a.35.35,0,0,1,.22-.45.37.37,0,0,1,.45.22c3,9,.9,26.41-7.78,38.8A.35.35,0,0,1,2026.24,1727.33Z"/><path class="cls-9" d="M1822.85,2070.86l9-.4s12.72-16.62,18.3-33.65c7.85-23.94-3.31-39.3-9.91-39.91s-11.26,5.3-7.92,23.16C1834.24,2030.6,1833.57,2050.41,1822.85,2070.86Z"/><path class="cls-1" d="M1829.87,2063.36l-.07,0a.56.56,0,0,1-.13-.78c13.49-19.26,16.79-46.25,12.11-60.2a.56.56,0,0,1,1.06-.36c4.76,14.21,1.42,41.65-12.27,61.2A.55.55,0,0,1,1829.87,2063.36Z"/><path class="cls-6" d="M1810.6,2070.86l5.42-.24s7.69-10,11.07-20.34c4.74-14.47-2-23.76-6-24.13s-6.8,3.2-4.79,14C1817.49,2046.52,1817.08,2058.5,1810.6,2070.86Z"/><path class="cls-1" d="M1814.85,2066.33l0,0a.33.33,0,0,1-.08-.47c8.15-11.64,10.15-28,7.32-36.4a.34.34,0,0,1,.21-.42.34.34,0,0,1,.43.21c2.88,8.59.86,25.18-7.41,37A.35.35,0,0,1,1814.85,2066.33Z"/><g id="Plants"><path class="cls-9" d="M1418.89,1924.27l7.5-.34s10.63-13.9,15.3-28.13c6.56-20-2.77-32.86-8.29-33.37s-9.41,4.43-6.62,19.37C1428.42,1890.61,1427.86,1907.17,1418.89,1924.27Z"/><path class="cls-1" d="M1424.76,1918l0,0a.48.48,0,0,1-.12-.65c11.28-16.1,14.05-38.67,10.14-50.33a.46.46,0,0,1,.29-.59.47.47,0,0,1,.59.29c4,11.88,1.19,34.82-10.26,51.16A.45.45,0,0,1,1424.76,1918Z"/><path class="cls-6" d="M1398.05,1925.32c-1.18,0-2.48-2.06-3-2.92a9.77,9.77,0,0,1-1.19-4.83,9.22,9.22,0,0,1,1.79-5.29,21.34,21.34,0,0,1,2-2.29l2-2.17a7.27,7.27,0,0,0,1.68-2.37c.67-1.85-.25-3.86-1.11-5.62-1-2-1.79-4.32-.71-6.4a8.34,8.34,0,0,1,4.09-3.44c1.65-.75,3.41-1.26,5-2.13a5.77,5.77,0,0,0,2.72-2.71,6,6,0,0,0,.33-2.39,32.45,32.45,0,0,1-.13-5.21c.24-1.73,1.24-3.51,2.92-4a5.41,5.41,0,0,1,4.06,1,9.46,9.46,0,0,1,2.74,2.89c2.37,3.55,2.25,8.45,5,11.67a39.62,39.62,0,0,0,3.73,3.23,5.87,5.87,0,0,1,2.28,4.21c0,3.24-4.06,5.2-4.55,8.4-.44,2.84,1.44,5,1.64,7.84a5.83,5.83,0,0,1-1,3.49,17.08,17.08,0,0,1-4.09,4.68,43.32,43.32,0,0,1-5.43,3.33C1418.81,1924.29,1398.23,1925.31,1398.05,1925.32Z"/><path class="cls-1" d="M1410,1925.13h0a.46.46,0,0,1-.18-.64c9.09-16,10.64-38.13,7.72-46.27a.46.46,0,1,1,.87-.31c3,8.3,1.43,30.76-7.78,47A.47.47,0,0,1,1410,1925.13Z"/><path class="cls-1" d="M1417.51,1904.48a.42.42,0,0,1-.12-.08,62.16,62.16,0,0,0-10.92-8,.46.46,0,0,1-.17-.63.44.44,0,0,1,.63-.18,63.63,63.63,0,0,1,11.11,8.17.45.45,0,0,1,0,.65A.46.46,0,0,1,1417.51,1904.48Z"/></g><g id="Plants-2" data-name="Plants"><path class="cls-9" d="M1066.46,1789.19l7.49-.34s10.63-13.89,15.3-28.13c6.57-20-2.76-32.86-8.29-33.36s-9.4,4.42-6.62,19.36C1076,1755.53,1075.42,1772.09,1066.46,1789.19Z"/><path class="cls-1" d="M1072.33,1782.91l-.06,0a.47.47,0,0,1-.11-.65c11.28-16.1,14-38.66,10.13-50.33a.46.46,0,0,1,.88-.3c4,11.88,1.19,34.82-10.25,51.17A.46.46,0,0,1,1072.33,1782.91Z"/><path class="cls-6" d="M1045.62,1790.24c-1.19.06-2.49-2.06-3-2.92a9.87,9.87,0,0,1-1.2-4.82,9.19,9.19,0,0,1,1.8-5.29,20.51,20.51,0,0,1,2-2.3l2-2.17a7.13,7.13,0,0,0,1.68-2.37c.67-1.85-.25-3.85-1.11-5.62-1-2-1.78-4.31-.7-6.4a8.21,8.21,0,0,1,4.08-3.43c1.65-.76,3.41-1.27,5-2.14a5.75,5.75,0,0,0,2.71-2.71,5.86,5.86,0,0,0,.34-2.39,32.46,32.46,0,0,1-.14-5.21c.24-1.72,1.25-3.5,2.92-4a5.39,5.39,0,0,1,4.06.94,9.27,9.27,0,0,1,2.74,2.9c2.38,3.54,2.25,8.44,5.05,11.67a39.71,39.71,0,0,0,3.73,3.22,6,6,0,0,1,2.28,4.21c0,3.25-4.06,5.2-4.56,8.41-.44,2.83,1.45,5,1.65,7.83a5.87,5.87,0,0,1-1,3.5,17.2,17.2,0,0,1-4.09,4.68,42.24,42.24,0,0,1-5.42,3.32C1066.38,1789.22,1045.8,1790.23,1045.62,1790.24Z"/><path class="cls-1" d="M1057.6,1790.05h0a.46.46,0,0,1-.18-.63c9.09-16.06,10.65-38.13,7.72-46.28a.46.46,0,0,1,.28-.59.47.47,0,0,1,.6.28c3,8.31,1.43,30.76-7.79,47A.46.46,0,0,1,1057.6,1790.05Z"/><path class="cls-1" d="M1065.07,1769.41a.31.31,0,0,1-.11-.09,63,63,0,0,0-10.92-8,.45.45,0,0,1-.18-.63.46.46,0,0,1,.63-.18,63.52,63.52,0,0,1,11.12,8.17.47.47,0,0,1,0,.66A.46.46,0,0,1,1065.07,1769.41Z"/></g><g id="Plants-3" data-name="Plants"><path class="cls-9" d="M2944.4,1708.05l7.49-.34s10.63-13.9,15.3-28.13c6.57-20-2.76-32.86-8.29-33.36s-9.4,4.42-6.62,19.36C2953.93,1674.39,2953.36,1691,2944.4,1708.05Z"/><path class="cls-1" d="M2950.27,1701.77l-.06,0a.47.47,0,0,1-.11-.65c11.28-16.1,14-38.66,10.13-50.33a.46.46,0,0,1,.88-.3c4,11.88,1.19,34.82-10.25,51.17A.46.46,0,0,1,2950.27,1701.77Z"/><path class="cls-6" d="M2923.56,1709.1c-1.19.06-2.49-2.06-3-2.92a9.87,9.87,0,0,1-1.2-4.82,9.24,9.24,0,0,1,1.8-5.3,21.34,21.34,0,0,1,2-2.29l2-2.17a7.13,7.13,0,0,0,1.68-2.37c.67-1.85-.25-3.85-1.11-5.62-1-1.95-1.78-4.31-.7-6.4a8.21,8.21,0,0,1,4.08-3.43c1.65-.76,3.41-1.27,5-2.14a5.81,5.81,0,0,0,2.72-2.71,6,6,0,0,0,.33-2.39,32.46,32.46,0,0,1-.14-5.21c.24-1.72,1.25-3.5,2.92-4a5.44,5.44,0,0,1,4.06,1,9.27,9.27,0,0,1,2.74,2.9c2.38,3.54,2.26,8.44,5.05,11.67a39.71,39.71,0,0,0,3.73,3.22,6,6,0,0,1,2.28,4.21c0,3.25-4.06,5.2-4.56,8.41-.44,2.83,1.45,5,1.65,7.83a5.87,5.87,0,0,1-1,3.5,17.2,17.2,0,0,1-4.09,4.68,42.24,42.24,0,0,1-5.42,3.32C2944.32,1708.08,2923.74,1709.09,2923.56,1709.1Z"/><path class="cls-1" d="M2935.54,1708.91h0a.47.47,0,0,1-.18-.63c9.09-16.06,10.65-38.13,7.72-46.28a.47.47,0,0,1,.88-.31c3,8.31,1.43,30.76-7.79,47A.46.46,0,0,1,2935.54,1708.91Z"/><path class="cls-1" d="M2943,1688.27a.48.48,0,0,1-.11-.09,63,63,0,0,0-10.92-8,.45.45,0,0,1-.18-.63.46.46,0,0,1,.63-.18,63.52,63.52,0,0,1,11.12,8.17.47.47,0,0,1,0,.66A.46.46,0,0,1,2943,1688.27Z"/></g><g id="Plants-4" data-name="Plants"><path class="cls-9" d="M3417.45,1997l7.49-.34s10.63-13.89,15.3-28.13c6.57-20-2.76-32.86-8.28-33.36s-9.41,4.42-6.63,19.36C3427,1963.32,3426.41,1979.88,3417.45,1997Z"/><path class="cls-1" d="M3423.32,1990.71l-.05,0a.46.46,0,0,1-.12-.64c11.28-16.11,14-38.67,10.13-50.34a.47.47,0,0,1,.3-.59.46.46,0,0,1,.58.29c4,11.88,1.2,34.82-10.25,51.17A.47.47,0,0,1,3423.32,1990.71Z"/><path class="cls-6" d="M3396.61,1998c-1.19.06-2.48-2.06-3-2.92a9.87,9.87,0,0,1-1.2-4.82,9.19,9.19,0,0,1,1.8-5.29,20.51,20.51,0,0,1,2-2.3l2-2.17a7.3,7.3,0,0,0,1.69-2.37c.66-1.85-.25-3.85-1.12-5.62-.95-2-1.78-4.31-.7-6.4a8.25,8.25,0,0,1,4.08-3.43c1.65-.75,3.41-1.27,5-2.14a5.81,5.81,0,0,0,2.72-2.71,6,6,0,0,0,.33-2.39,32.46,32.46,0,0,1-.14-5.21c.24-1.72,1.25-3.5,2.93-4a5.37,5.37,0,0,1,4,.94,9.16,9.16,0,0,1,2.74,2.9c2.38,3.54,2.26,8.44,5,11.67a39.51,39.51,0,0,0,3.73,3.22,5.92,5.92,0,0,1,2.28,4.21c0,3.25-4.06,5.2-4.56,8.41-.43,2.83,1.45,5,1.65,7.84a5.79,5.79,0,0,1-1,3.49,17.2,17.2,0,0,1-4.09,4.68,42.24,42.24,0,0,1-5.42,3.32C3417.37,1997,3396.79,1998,3396.61,1998Z"/><path class="cls-1" d="M3408.59,1997.84h0a.47.47,0,0,1-.19-.63c9.1-16.06,10.65-38.13,7.72-46.28a.47.47,0,0,1,.88-.31c3,8.31,1.43,30.76-7.79,47A.46.46,0,0,1,3408.59,1997.84Z"/><path class="cls-1" d="M3416.06,1977.2l-.11-.08a62.68,62.68,0,0,0-10.92-8,.46.46,0,0,1-.18-.63.46.46,0,0,1,.64-.17,63.13,63.13,0,0,1,11.11,8.16.47.47,0,0,1-.54.75Z"/></g><g id="Plants-5" data-name="Plants"><path class="cls-9" d="M3855,2049.41l7.5-.34s10.63-13.9,15.3-28.13c6.56-20-2.77-32.86-8.29-33.37s-9.41,4.43-6.62,19.36C3864.51,2015.75,3864,2032.3,3855,2049.41Z"/><path class="cls-1" d="M3860.85,2043.13l0,0a.48.48,0,0,1-.12-.65c11.28-16.11,14.05-38.67,10.14-50.34a.45.45,0,0,1,.29-.58.47.47,0,0,1,.59.29c4,11.88,1.19,34.82-10.26,51.16A.47.47,0,0,1,3860.85,2043.13Z"/><path class="cls-6" d="M3834.14,2050.46c-1.18.05-2.48-2.07-3-2.92a9.82,9.82,0,0,1-1.19-4.83,9.22,9.22,0,0,1,1.79-5.29,22.47,22.47,0,0,1,2-2.3l2-2.16a7.27,7.27,0,0,0,1.68-2.37c.67-1.85-.25-3.86-1.11-5.62-1-2-1.79-4.32-.71-6.4a8.34,8.34,0,0,1,4.09-3.44c1.65-.75,3.41-1.26,5-2.13a5.77,5.77,0,0,0,2.72-2.71,6,6,0,0,0,.33-2.39,32.45,32.45,0,0,1-.13-5.21c.24-1.73,1.24-3.51,2.92-4a5.41,5.41,0,0,1,4.06,1,9.35,9.35,0,0,1,2.74,2.89c2.37,3.55,2.25,8.45,5,11.67a39.62,39.62,0,0,0,3.73,3.23,5.87,5.87,0,0,1,2.28,4.21c0,3.24-4.06,5.2-4.55,8.4-.44,2.84,1.44,5,1.64,7.84a5.83,5.83,0,0,1-1,3.49,17.08,17.08,0,0,1-4.09,4.68,43.32,43.32,0,0,1-5.43,3.33C3854.9,2049.43,3834.32,2050.45,3834.14,2050.46Z"/><path class="cls-1" d="M3846.12,2050.26h0a.46.46,0,0,1-.18-.64c9.09-16,10.64-38.13,7.72-46.27a.46.46,0,1,1,.87-.32c3,8.31,1.43,30.77-7.78,47A.46.46,0,0,1,3846.12,2050.26Z"/><path class="cls-1" d="M3853.6,2029.62l-.12-.08a62.16,62.16,0,0,0-10.92-8,.46.46,0,0,1-.17-.63.44.44,0,0,1,.63-.18,63.63,63.63,0,0,1,11.11,8.17.45.45,0,0,1,0,.65A.46.46,0,0,1,3853.6,2029.62Z"/></g><path class="cls-10" d="M2688.91,1793.65c-4.6,6.48-12.87,11.1-19,7.5-10.7-6.22-4.48-7.71-4.48-7.71,1.78-9.62,8-16.43,14.2-18.29,4.25-1.29,8.47-.24,11.22,3.82C2693.66,1783.2,2692.27,1788.92,2688.91,1793.65Z"/><path class="cls-11" d="M2688.91,1793.65c-4.6,6.48-12.87,11.1-19,7.5-10.7-6.22-4.48-7.71-4.48-7.71,1.78-9.62,8-16.43,14.2-18.29-2.94,6.44-1.53,11.51,5.73,16A31.68,31.68,0,0,1,2688.91,1793.65Z"/><path class="cls-10" d="M2595.32,1801.61c-4.83,2.81-11,.27-15.45-4.17-4.77-4.77-7.48-11.76-4.19-16.62,3-4.49,8-5.06,12.65-2.73,5.05,2.51,9.72,8.39,11.17,16.3C2599.5,1794.39,2605.34,1795.78,2595.32,1801.61Z"/><path class="cls-11" d="M2595.32,1801.61c-4.83,2.81-11,.27-15.45-4.17a11.31,11.31,0,0,1,2.53-4.32c3.41-3.74,7.78-9.77,5.93-15,5.05,2.51,9.72,8.39,11.17,16.3C2599.5,1794.39,2605.34,1795.78,2595.32,1801.61Z"/><path class="cls-12" d="M2481.94,2629.61c-.71,5.7-.54,20.51-3.92,22.47s1.24,6.06,17.83,6.42,13.91-4.64,11.06-6.6,2.85-16.76,1.25-20.51S2481.94,2629.61,2481.94,2629.61Z"/><path class="cls-12" d="M2652.12,2629.61c-.72,5.7-.54,20.51-3.93,22.47s1.25,6.06,17.84,6.42,13.91-4.64,11-6.6,2.86-16.76,1.25-20.51S2652.12,2629.61,2652.12,2629.61Z"/><path class="cls-13" d="M2751.14,2370.84c-9.86,94.57-43,203.16-60.26,246.79-4.92,12.48-8.54,19.65-9.93,19.65-5.26,0-19.35,1.25-27.79.59a24.74,24.74,0,0,1-4-.56l-.11,0c-6.87-1.74-30-81.32-32.46-150.66s3.1-181.16,3.1-184.28-10.62,57.47-28.11,118.06c-14.82,51.34-57.95,171.91-74,207.56-2.9,6.44-4.93,10.11-5.74,10.11-4.9,0-31.7,2.15-35.88-2.63a2,2,0,0,1-.56-1.39c0-6.56-36.45-206.56,45.6-422.92-.31.77,1.66,1.54,5.46,2.31,33.87,6.9,212.87,13.1,215.68-5.43.14-.9.25-2.11.35-3.61,0,0,6,12.59,9.72,42.54C2755.55,2273.49,2757.1,2313.7,2751.14,2370.84Z"/><path class="cls-14" d="M2796,1978c-7.65,15.88-26.87,39.11-38.59,52.55-2.46,2.84-4.6,5.23-6.22,7-5.5-14.91-8-26.47-9-29.42-2-6.22-.26,64.82.54,124.29.43,31.89.6,60.47-.19,72-.1,1.5-.21,2.71-.35,3.61-3.12,20.62-224.26,10.62-221.14,3.12s25-113.48,30-165.54-20.82-58.31-42.06-56c-2.49.27-6.06.72-10.42,1.17-1.86-32.54-.94-97.4,33-119.69,21.69,5.49,52.95,4.66,83.84,3.82C2748,1869.53,2776.36,1916.61,2796,1978Z"/><path class="cls-12" d="M2742.71,2132.4c-8.81-2.28-19.43-7.52-31.46-18.09-36.24-31.86-27.75-135-30.41-180.55,0,0,51.65,50,70.3,82.47a81.66,81.66,0,0,1,6.22,14.27c-2.46,2.84-4.6,5.23-6.22,7-5.5-14.91-8-26.47-9-29.42C2740.22,2001.89,2741.91,2072.93,2742.71,2132.4Z"/><path class="cls-13" d="M2907.71,1978c-30.92,30.12-61.84,25.48-61.53,18.29s-9.37-.62-27.86-38.1,13.18-60.6,19.11-76.84-40.29-44.67-6.87-65.28c26.84-16.56,30.51-28.47,34-43,.85-3.57,1.7-7.31,2.86-11.31,0,0,1.72,4,4.22,10,1.59,3.82,3.47,8.44,5.44,13.34,5.24,13.13,10.9,28.2,12.15,35.06C2891.68,1833.51,2938.63,1947.83,2907.71,1978Z"/><path class="cls-15" d="M2848.24,1853.4c2,21,23.66,35.19,29.69,49.55s-25,73.09-42.06,77.88,65.28,30.4,78.71-24.88S2848.24,1853.4,2848.24,1853.4Z"/><path class="cls-15" d="M2877.08,1785c-.79,7.17-7.2,10.5-7.69,9.45a158,158,0,0,1-4.83-21.49s3.52-3.19,7.08-1.3C2873.23,1775.5,2875.11,1780.12,2877.08,1785Z"/><path class="cls-10" d="M2979.4,2636.7c-1.8,7.49-2.35,20.47-4,20.47h-33c-2.22-.26,15.86-4.66,18.87-5.66.17-.06-3.48-7.09-5.88-12.5a29.56,29.56,0,0,1-2-5.34l26.62-1.87C2978.93,2632.92,2979.71,2635.35,2979.4,2636.7Z"/><path class="cls-11" d="M2979.4,2636.7c-1.8,7.49-2.35,20.47-4,20.47h-6.19c7.76-4.19,7.79-14.94,6.89-15.43s-18.8-2.53-20.74-2.74a29.56,29.56,0,0,1-2-5.34l26.62-1.87C2978.93,2632.92,2979.71,2635.35,2979.4,2636.7Z"/><path class="cls-10" d="M2878.83,2635.68c-1.8,7.5-8.53,21.49-10.15,21.49h-33c-2.24-.26,15.84-4.66,18.85-5.66.17-.06-.74-7.59-1.5-13.19-.31-2.24-.59-4.17-.76-5.2l27.21-2.34C2878.35,2631.9,2879.14,2634.34,2878.83,2635.68Z"/><path class="cls-14" d="M2848.38,2657.65a.51.51,0,0,0,.46-.31,3.36,3.36,0,0,0-.6-3.55,2.59,2.59,0,0,0-2.5-.94.49.49,0,0,0-.34.6.5.5,0,0,0,.61.35,1.66,1.66,0,0,1,1.49.65,2.35,2.35,0,0,1,.42,2.52.49.49,0,0,0,.27.64A.46.46,0,0,0,2848.38,2657.65Z"/><path class="cls-11" d="M2878.83,2635.68c-1.8,7.5-8.53,21.49-10.15,21.49h-13.41c.53-.05,1.1-.1,1.74-.13,14.68-.87,17.23-13.62,16.61-14.66s-20.62-4.07-20.62-4.07c-.31-2.24-.59-4.17-.76-5.2l27.21-2.34C2878.35,2631.9,2879.14,2634.34,2878.83,2635.68Z"/><path class="cls-14" d="M2941.48,2658.52h36.75a.74.74,0,1,0,0-1.48h-36.75a.74.74,0,1,0,0,1.48Z"/><path class="cls-14" d="M2955.12,2657.65a.5.5,0,0,0,.46-.31,3.36,3.36,0,0,0-.6-3.55,2.57,2.57,0,0,0-2.49-.94.49.49,0,0,0-.35.6.5.5,0,0,0,.61.35,1.66,1.66,0,0,1,1.49.65,2.35,2.35,0,0,1,.42,2.52.5.5,0,0,0,.28.64A.39.39,0,0,0,2955.12,2657.65Z"/><path class="cls-14" d="M2985.51,2614.21c-2,15.52-3.79,24.59-5.12,24.76-7.09.91-19.89,0-25.73,0-3.66,0-20.86-36-32.92-83.57-7.13-28.09-12.47-60.18-12.16-91.27.52-51.18,30.36-119.66,53.48-165.13,14.68-28.9,26.65-48.51,26.65-48.51C3004.77,2362,2993.92,2547.57,2985.51,2614.21Z"/><path class="cls-12" d="M2978.54,2316.71c-3.87,99.12-42.32,191.24-56.8,238.69-7.13-28.09-12.47-60.18-12.16-91.27.52-51.18,30.36-119.66,53.48-165.13A233.94,233.94,0,0,1,2978.54,2316.71Z"/><path class="cls-14" d="M2989.32,2271.73c-3.11,53.41-24.94,111.16-56.41,186.57-32.62,78.18-43,132.08-47.25,159.34-2,13.12-2.62,20.07-3.56,20.61-2.91,1.63-23.74,0-32.9,0s-24.59-116.65-28.75-234.92,27.79-198.93,27.79-198.93l128.6-16.79A202.07,202.07,0,0,1,2989.32,2271.73Z"/><path class="cls-12" d="M2989.32,2271.73c-5.31-16.67-10.18-50.73-19.55-55.81-11.45-6.19-94.76,1.25-121.53-11.52l128.6-16.79A202.07,202.07,0,0,1,2989.32,2271.73Z"/><path class="cls-8" d="M3031.85,2062.1c-16.12,10.12-33,26.32-49.16,50.86a62.47,62.47,0,0,0-4.08-6.37,74.63,74.63,0,0,0-8.43-9.77c-.5-.49-1-1-1.44-1.49-9.35-10.18-12.07-23.56-11-37.78,2.64-34.17,27.23-73.13,34.41-83.85.86-1.3,1.48-2.18,1.76-2.6l.19-.26.15.44c2.17,6.56,5.52,14.68,9.5,23.87C3012.05,2014.32,3023,2038.13,3031.85,2062.1Z"/><path class="cls-8" d="M2980.3,2180.49c2.45,15.81,4.11,23.91-2.62,23.91-2.85,0-10.44.17-20.59.4h0c-36.52.82-106.28,2.42-108.82-.4-1.39-1.55-.54-27.65-.52-59.11,0-17.1-.24-35.78-1.23-53-1.45-25.09-4.47-47-10.62-56.11,23.74-68.09,141.86-121,156.17-63.09.05.19.1.38.14.57,12.91,52.94-5.46,78.46-12.84,127.76-.26,1.68-.5,3.39-.73,5.13-.35,2.71-.66,5.48-.93,8.34-.55,5.66-.87,11.06-1,16.19A262.62,262.62,0,0,0,2980.3,2180.49Z"/><path class="cls-7" d="M2930.71,2119.83c-1.73,3.77-24.79,18.24-83,25.46,0-17.1-.24-35.78-1.23-53,8.7-1.16,17.66.44,24.68,5.42C2892.72,2113.06,2932.52,2115.88,2930.71,2119.83Z"/><path class="cls-10" d="M2498.53,1990.71c-12.06,1.25-30.11,2.52-47.67.06-30.53-4.25-59.55-19.78-52.89-66.37,11.86-83.08,70.27-186,80.89-192.55s17.66,5.3,23.58,2.5,15.78-23,20.78-24.37,2.66,3.43-11.56,26.7-18.74,100.68-4.16,120.67c4.83,6.63,13.24,10.93,24,13.67C2497.59,1893.31,2496.67,1958.17,2498.53,1990.71Z"/><path class="cls-10" d="M2663.15,1828.91s-.09,12.62-.19,25.6-.23,26.28-.29,27.74c-.14,2.92-10.44,6.93-23.33,8.11s-29.86-2.76-32-7.08c-.45-.91-.7-3.79-.83-7.82-.27-9.39.18-24.93.58-35.39.23-6.44.45-10.94.45-10.94Z"/><path class="cls-10" d="M2858.36,2130.55c-33.42-1.37-57.52-16.83-74.81-36.37h0c-16-18-26.13-39.54-32.41-56.64,9.33-10.37,35.54-40.35,44.81-59.58,1.92,6,3.74,12.08,5.56,18.29a178,178,0,0,0,27.38,55.55c25.2,34.16,58.47,52.28,81.32,53.15C2943.32,2106.19,2949.56,2134.3,2858.36,2130.55Z"/><path class="cls-11" d="M2498.53,1990.71c-12.06,1.25-30.11,2.52-47.67.06,9.66-.74,19.49-1.86,26.13-3.59,17.45-4.51-4.37-96.51,54.53-116.16C2497.59,1893.31,2496.67,1958.17,2498.53,1990.71Z"/><path class="cls-11" d="M2663.15,1828.91s-.09,12.62-.19,25.6c-11.31,6.61-28.23,3.79-37.56-2.83-9.49-6.76-14-11.37-18.31-11.61.23-6.44.45-10.94.45-10.94Z"/><path class="cls-8" d="M2603.25,1744.41c.39,1.8-3.9-.86-10.15,3.75s-9.5,13.62-8.14,20.49,8.85,11.24,8.32,14.47-12.8,14.16-11.66,28,8.36,20.19,15.15,23.16,16.56-1.8,18.2-.78,2.57,21.55,21.73,21.24,22.75-20,24.94-19,22.28,6.9,28.05-8.88.11-30.42-10.2-38.23,3.12-10.94,2-21-8.23-11.77-11.24-14.79-1.57-22.28-19.68-25.61-21.35,10.72-23.84,10.31S2609.06,1724.45,2603.25,1744.41Z"/><path class="cls-11" d="M2662.67,1882.25c-.14,2.92-10.44,6.93-23.33,8.11s-29.86-2.76-32-7.08c-.45-.91-.7-3.79-.83-7.82C2614.06,1886.48,2645.54,1888.29,2662.67,1882.25Z"/><path class="cls-10" d="M2925.83,1825.29c-6.15,12.29-17.07,40.28-22.68,55-2.17,5.7-3.56,9.38-3.56,9.38s-30.91-9.09-44.49-21.89a20.57,20.57,0,0,1-5.7-8.09c-5.62-16.87,11-32.07,10.21-39.78s-9.16-7.07-1.25-10.2,10.21-19.79,11-35c0,0,15.83-4.59,39,8.74S2934.36,1808.21,2925.83,1825.29Z"/><path class="cls-11" d="M2828.89,2051.79c-.83,23.77-48.28,27.57-45.34,42.38-16-18-26.13-39.54-32.41-56.64,9.33-10.37,35.54-40.35,44.81-59.58,1.92,6,3.74,12.08,5.56,18.29A178,178,0,0,0,2828.89,2051.79Z"/><path class="cls-10" d="M2820.45,2058c-26.18,18.06-56.69,29.12-87,24.29-47.92-7.64-51.22-102.89-53-159.7-.72-23.66-1.17-40.64-4.46-41.87a8,8,0,0,1-4.42-3.31c-2.77-5.09,6.74-11.93,29.35-6.34,28.32,7,43.31,91.28,74.55,109.6,10.67,6.26,24.3,6.85,38.67,2.89C2814,2008.17,2817.46,2037.48,2820.45,2058Z"/><path class="cls-11" d="M2683.55,1897c-.86,5.93-2,15.68-3.08,25.52-.72-23.66-1.17-40.64-4.46-41.87a8,8,0,0,1-4.42-3.31C2679.37,1876.74,2685.71,1882.22,2683.55,1897Z"/><path class="cls-8" d="M2889.23,1975.59c-10.57,26.92-36.35,60-68.78,82.36-3-20.47-6.48-49.78-6.29-74.44,27.66-7.63,58-32.12,75.07-65.35C2889.23,1918.16,2908.34,1926.9,2889.23,1975.59Z"/><path class="cls-11" d="M2820.45,2058c-7.7-9.51-15-61.92-6.29-74.44C2814,2008.17,2817.46,2037.48,2820.45,2058Z"/><path class="cls-7" d="M2982.69,2113a62.47,62.47,0,0,0-4.08-6.37c-.35,2.71-.66,5.48-.93,8.34-.55,5.66-.87,11.06-1,16.19-2.59-12.29-5.54-25.35-7.94-35.79-2.76-12-4.81-20.53-4.81-20.53s10,14.37,15.41,26.66C2981.24,2105.79,2982.56,2109.86,2982.69,2113Z"/><path class="cls-7" d="M3005.06,2025.19c-2.43,10.67-6,17.83-13.84,23.35-5.2,3.67-12.26,6.63-22.08,9.41-4.6,1.3-8.26,1-11.37-.4-13.51-6-16.95-32-44-32.36-15.33-.2-30.4-8.25-40.25-20.67a53.63,53.63,0,0,1-7.56-12.8c-5.26-12.76-5.52-28,2.39-43.39,0,0,6.63-.51,28.35,2,7.68.87,17.27,2.12,29.12,3.91l6.74,1c26.46,4.11,46.22,8.8,58.48,14.45,1,.47,2,.95,2.92,1.43l.34.18c2.17,6.56,5.52,14.68,9.5,23.87C3003.23,2005,3008.4,2010.57,3005.06,2025.19Z"/><path class="cls-7" d="M2977.68,2204.4c-2.85,0-10.44.17-20.59.4,19.09-1.62,22.95-12.17,23.21-24.31C2982.75,2196.3,2984.41,2204.4,2977.68,2204.4Z"/><path class="cls-10" d="M3043.27,2149.91c-18.12,45.61-50.74,53.1-46.62,74.34s18.51,40,6.33,34.05a39.2,39.2,0,0,1-15.37-14.39s0,0,0,0c-5.73-9-9.64-21.56-9-37.88a82,82,0,0,1,2.25-14.62c4.56-19.66,13.8-43.05,6.85-66.52a58.5,58.5,0,0,0-5-11.9c16.18-24.54,33-40.74,49.16-50.86C3043.94,2094.94,3052,2128.06,3043.27,2149.91Z"/><path class="cls-11" d="M3031.85,2062.1c-23.34,19.47-39,47.4-44.14,62.76a58.5,58.5,0,0,0-5-11.9C2998.87,2088.42,3015.73,2072.22,3031.85,2062.1Z"/><path class="cls-11" d="M2987.6,2243.88c-5.73-9-9.64-21.56-9-37.88a82,82,0,0,1,2.25-14.62C2979,2211.72,2980.85,2231.32,2987.6,2243.88Z"/><path class="cls-12" d="M2985.51,2614.21c-2,15.52-3.79,24.59-5.12,24.76-7.09.91-19.89,0-25.73,0C2970,2638.31,2980.56,2627.34,2985.51,2614.21Z"/><path class="cls-12" d="M2885.66,2617.64c-2,13.12-2.62,20.07-3.56,20.61-2.91,1.63-23.74,0-32.9,0C2863,2637.16,2877.88,2629.09,2885.66,2617.64Z"/><path class="cls-14" d="M2834.74,2658.52h36.75a.74.74,0,0,0,0-1.48h-36.75a.74.74,0,0,0,0,1.48Z"/><path class="cls-11" d="M2878.66,1790.61c12.08,17.29,27.21,22.29,27.21,22.29s13.19-7.19,1.32-14S2878.66,1790.61,2878.66,1790.61Z"/><path class="cls-11" d="M2903.15,1880.25c-2.17,5.7-3.56,9.38-3.56,9.38s-30.91-9.09-44.49-21.89c13.54,9.87,22.14,11.75,24.19,10.44,2.28-1.47,8.64-9.06,8.64-9.06S2897.12,1874.28,2903.15,1880.25Z"/><path class="cls-13" d="M2889.23,1738c-27.12.41-39.82,42.68-1.3,60.38s22.28,23.12,16.66,26.86,7.7,7.71,0,20.62-28.32,16.87-22.07,50.18-14.34,38.32-18.83,68.72,28,51.64,55.27,49.14,37.68,9,46.85,22.49,36.23-4.37,35.6-32.07,10.42-34.36-3.12-60.59-57.05-55.6-38.73-108.07S2978,1738.66,2889.23,1738Z"/><path class="cls-10" d="M2896.45,1811.65c10-14.22,20.32-15.62,23.6-2.82s-19.52,17.65-22.18,15.31S2896.45,1811.65,2896.45,1811.65Z"/><path class="cls-11" d="M2899.28,1818c-.35-7.55,13.12-9.6,13.19-4.68s-7.88.54-8.19,1.64-1.25,2.1-2,1.64S2899.36,1819.69,2899.28,1818Z"/><path class="cls-15" d="M2752.24,2246.94c-42.21-34.43-133.95,4-225.75-33.5,33.87,6.9,212.87,13.1,215.68-5.43.14-.9.25-2.11.35-3.61C2742.52,2204.4,2748.5,2217,2752.24,2246.94Z"/><path class="cls-15" d="M2690.88,2617.63c-4.92,12.48-8.54,19.65-9.93,19.65-5.26,0-19.35,1.25-27.79.59-2.16-.27-3.57-.5-4-.56l-.11,0C2664.18,2635.78,2679.28,2632.21,2690.88,2617.63Z"/><path class="cls-15" d="M2517.61,2628c-2.9,6.44-4.93,10.11-5.74,10.11-4.9,0-31.7,2.15-35.88-2.63C2489.49,2636.36,2508,2633.25,2517.61,2628Z"/><polygon class="cls-16" points="1898.43 1788.15 1916.61 2061.52 2112.48 2061.52 2112.48 1779.16 1898.43 1788.15"/><path class="cls-17" d="M2083,1934.11H1928l41.82-86.5h71.35l.08.18Zm-154-.63h153l-41.21-85.24h-70.57Z"/><rect class="cls-17" x="1972.36" y="1839.39" width="64.11" height="0.31"/><path class="cls-17" d="M1970.47,1839.55a9.5,9.5,0,0,1,2.67,1.48l-.54-1.48.54-1.49A9.28,9.28,0,0,1,1970.47,1839.55Z"/><path class="cls-17" d="M2038.35,1839.55a9.78,9.78,0,0,0-2.67,1.48l.54-1.48-.54-1.49A9.55,9.55,0,0,0,2038.35,1839.55Z"/><rect class="cls-17" x="1935.71" y="1939.24" width="129.29" height="0.31"/><path class="cls-17" d="M1933.82,1939.39a9.52,9.52,0,0,1,2.67,1.49l-.54-1.49.54-1.48A9.25,9.25,0,0,1,1933.82,1939.39Z"/><path class="cls-17" d="M2066.88,1939.39a9.52,9.52,0,0,0-2.67,1.49l.54-1.49-.54-1.48A9.25,9.25,0,0,0,2066.88,1939.39Z"/><polygon class="cls-17" points="2089.03 1931.86 2048.98 1850 2049.26 1849.86 2089.31 1931.72 2089.03 1931.86"/><path class="cls-17" d="M2048.29,1848.24a9.14,9.14,0,0,1-.16,3l1.1-1.14,1.57-.17A9.59,9.59,0,0,1,2048.29,1848.24Z"/><path class="cls-17" d="M2090,1933.48a9.38,9.38,0,0,0-2.5-1.74l1.57-.17,1.1-1.14A9.41,9.41,0,0,0,2090,1933.48Z"/><polygon class="cls-17" points="1923.58 1928.68 1923.3 1928.54 1963.35 1846.68 1963.63 1846.82 1923.58 1928.68"/><path class="cls-17" d="M1964.31,1845.06a9.38,9.38,0,0,1-2.5,1.74l1.57.17,1.1,1.14A9.41,9.41,0,0,1,1964.31,1845.06Z"/><path class="cls-17" d="M1922.62,1930.31a9.39,9.39,0,0,0-.17-3l1.1,1.13,1.57.17A9.42,9.42,0,0,0,1922.62,1930.31Z"/><rect class="cls-14" x="1949.86" y="1807.59" width="112.34" height="3.75" rx="1.5"/><rect class="cls-18" x="1961.31" y="1816.75" width="89.43" height="2.41" rx="0.96"/><rect class="cls-18" x="1961.31" y="1824.57" width="89.43" height="2.41" rx="0.96"/><rect class="cls-18" x="1930.1" y="1946.24" width="151.86" height="2.41" rx="0.96"/><rect class="cls-18" x="1930.1" y="1954.06" width="151.86" height="2.41" rx="0.96"/><rect class="cls-18" x="1930.1" y="1965.37" width="151.86" height="2.41" rx="0.96"/><rect class="cls-18" x="1930.1" y="1973.19" width="151.86" height="2.41" rx="0.96"/><rect class="cls-18" x="1930.1" y="2011.17" width="151.86" height="2.41" rx="0.96"/><rect class="cls-18" x="1930.1" y="2019" width="151.86" height="2.41" rx="0.96"/><rect class="cls-18" x="1930.1" y="2032.66" width="151.86" height="2.41" rx="0.96"/><rect class="cls-18" x="1930.1" y="2040.48" width="151.86" height="2.41" rx="0.96"/><path class="cls-11" d="M2112.48,1831.64c0,5.83,12.91,18.94,16.24,36.23s-9.57,23.28-16.24,23S2112.48,1831.64,2112.48,1831.64Z"/><path class="cls-12" d="M2016.23,2629.61c-.71,5.7-.53,20.51-3.92,22.47s1.25,6.06,17.84,6.42,13.91-4.64,11-6.6,2.86-16.76,1.25-20.51S2016.23,2629.61,2016.23,2629.61Z"/><path class="cls-12" d="M2184.9,2629.61c-.71,5.7-.53,20.51-3.92,22.47s1.24,6.06,17.83,6.42,13.91-4.64,11.06-6.6,2.85-16.76,1.25-20.51S2184.9,2629.61,2184.9,2629.61Z"/><path class="cls-14" d="M2224.38,2164.86c-26.81,4.3-143,2.21-166.94-4.4-3.05-.84-4.61-1.75-4.3-2.74,2.27-7.29,14.86-39.51,21.5-83.1a349.53,349.53,0,0,0,4.11-52.45s4-4.28,10.78-11c31.4-31.33,121.4-115.82,134.77-69.28,16.24,56.54-15.62,202.93,5.22,220.28C2230.81,2163.25,2228.82,2164.13,2224.38,2164.86Z"/><path class="cls-12" d="M2107.9,2015.29c-14.43,23.17-25.75,44.39-33.26,59.33a349.53,349.53,0,0,0,4.11-52.45s4-4.28,10.78-11A73.53,73.53,0,0,1,2107.9,2015.29Z"/><path class="cls-8" d="M2223.05,2635c-15,5.63-46.22,0-56.22,0-2.77,0-7.16-10.44-12.06-27.61-12.74-44.65-29-134.79-29.58-205.18-.84-97.45-1.68-121.62-5.84-113.28s5.84,126.6-17.49,211.55-49.13,137.44-53.31,137c-.55-.05-1.57-.1-3-.12h0c-9.14-.19-33.69.12-39.48.12-1.88,0-6.06-17.25-9.73-45.84-9.32-72.56-15.33-218.17,28.06-340.21q6.78-19.07,12.66-35.37c7.88-21.87,14.62-40.21,20.38-55.6,24,6.61,140.13,8.7,166.94,4.4C2252.51,2331.36,2236.52,2629.94,2223.05,2635Z"/><path class="cls-10" d="M2135.8,1793.74c1.25,16.24-6.87,26.44-9,30.4s6.28,2.71,3.14,12.08-20.78,38.94-4.67,43.1,58.88-20.41,56.34-50.6S2135.8,1793.74,2135.8,1793.74Z"/><path class="cls-14" d="M2221.18,2032c34.15-26.65,65.38-99.53,19.16-139.51s-37.9,11.24-39.15,41.64S2221.18,2032,2221.18,2032Z"/><path class="cls-10" d="M1897,1924.44c.08-1.7.09-3.21,0-4.51-.19-3.15-.24-7-.19-11.27.24-19.25,2.65-45.89,4.35-45.38,2.08.63,6.46,33.54,11.24,46.44a37.21,37.21,0,0,0,4.24,7.46C1910.21,1918.8,1902.53,1921.22,1897,1924.44Z"/><path class="cls-14" d="M2142.47,1993.64c-5.84,37.9-103.29,72.47-182.41,36.23-34-15.59-50.29-34.89-57.82-53.21a77.56,77.56,0,0,1-3.81-11.93c9.62-3,35.89-15.79,42.44-21.35,14,12.13,31.15,22.91,46.68,24.44,31.85,3.12,96.82-33.11,124.93-68.19C2112.48,1899.63,2148.3,1955.74,2142.47,1993.64Z"/><path class="cls-12" d="M2074.38,1933.8c-14,41.1,12.28,45.68,24.78,84.83s-1.67,68.71,17.07,63.3,47.73-11.35,74.47-45.86S2074.38,1933.8,2074.38,1933.8Z"/><path class="cls-13" d="M2216.76,1933.87c-10.84,53.31-8.34,100.79-54.14,130.36s-63.31-66.21-79.14-98.29-10.81-63.71,13.34-81.21c20.7-15,50.9-44.06,43.35-74.73a46.39,46.39,0,0,0-7.12-15.41,120.7,120.7,0,0,1,21.11-18c12.27-8.17,28.31-15.06,43.71-10.3,9,2.78,17.82,9.59,25.51,22.5,1.95,3.27,3.68,6.47,5.22,9.61C2254.14,1850.13,2227,1883.62,2216.76,1933.87Z"/><path class="cls-14" d="M1942.36,1941.37c.08.45-.45,1.14-1.49,2-6.55,5.56-32.82,18.38-42.44,21.35-2.11.66-3.41.84-3.55.38-.83-2.91-3.54-22.07-2.7-25.82.19-.83,1.74-2.11,4.1-3.57,6.68-4.12,19.85-9.67,26.34-10.77,1.71-.29,3-.26,3.49.18C1929.45,1927.84,1941.59,1937.46,1942.36,1941.37Z"/><path class="cls-1" d="M1922.62,1925c-6.49,1.1-19.66,6.65-26.34,10.77.09-1.8.19-3.52.3-5.13.14-2.25.29-4.31.37-6.15,5.58-3.22,13.26-5.64,19.66-7.26C1918.25,1919.54,1920.27,1922.17,1922.62,1925Z"/><path class="cls-12" d="M1940.87,1943.38c-11.11,13.63-32.41,20.39-38.63,33.28a77.56,77.56,0,0,1-3.81-11.93C1908.05,1961.76,1934.32,1948.94,1940.87,1943.38Z"/><circle class="cls-12" cx="1902.12" cy="1945.88" r="3.98"/><path class="cls-18" d="M1922.62,1925c-6.49,1.1-19.66,6.65-26.34,10.77.09-1.8.19-3.52.3-5.13.37.58.59,1.75,1.56,1.93C1899.8,1932.85,1908.76,1924.09,1922.62,1925Z"/><path class="cls-11" d="M1897,1924.44c.08-1.7.09-3.21,0-4.51-.19-3.15-.24-7-.19-11.27,2.18,13.27,7.09,9.8,19.83,8.52C1910.21,1918.8,1902.53,1921.22,1897,1924.44Z"/><path class="cls-7" d="M2224.38,2164.86c-67.53,24.4-140.05,1.27-187.32,51.2,7.88-21.87,14.62-40.21,20.38-55.6C2081.4,2167.07,2197.57,2169.16,2224.38,2164.86Z"/><path class="cls-7" d="M2045.55,2637.36c-9.14-.19-33.69.12-39.48.12-1.88,0-6.06-17.25-9.73-45.84C2006.5,2612,2023,2635.42,2045.55,2637.36Z"/><path class="cls-7" d="M2223.05,2635c-15,5.63-46.22,0-56.22,0-2.77,0-7.16-10.44-12.06-27.61C2168.23,2623.78,2192.18,2641.74,2223.05,2635Z"/><path class="cls-7" d="M2151.21,2216.06c-3.44,9.8-1.87,60.35,5.94,70.35s44.66,9.06,50.91,1.87,1.25-71.84-1.56-73.71S2152.78,2211.61,2151.21,2216.06Z"/><circle class="cls-1" cx="2178.49" cy="2229.15" r="6.87"/><path class="cls-15" d="M2228.6,1798.42c-1.37.13-82.37,8.19-85.49,9.48a12.36,12.36,0,0,0-2.94,2.1,46.39,46.39,0,0,0-7.12-15.41,120.7,120.7,0,0,1,21.11-18c18-4.54,31.4-9.63,43.71-10.3,9,2.78,17.82,9.59,25.51,22.5C2225.33,1792.08,2227.06,1795.28,2228.6,1798.42Z"/><path class="cls-19" d="M2141.81,1752.72a53.35,53.35,0,0,1,37.33-17.4c14.07-.74,28.54,4.52,38.23,14.86,7.69,8,11.87,18.49,13.51,29.31.34,2.25.57,4.5.71,6.75,0,.8.08,1.6.1,2.4h-.26l-8,.16-84.72,1.85-8.3.18C2128.71,1777.29,2132.55,1762.94,2141.81,1752.72Z"/><path class="cls-8" d="M2130.27,1800.56l103-2.25a4.4,4.4,0,0,0,1-.13,4.85,4.85,0,0,0-1-9.56H2233l-8,.17-84.72,1.85-8.3.18-1.91,0a4.85,4.85,0,0,0,.21,9.7Z"/><path class="cls-7" d="M2185.82,1733.9c-3.68-.65-11.81-.63-15.41.51s-2,55.62-2,55.62l17.18-.5S2186.52,1734,2185.82,1733.9Z"/><path class="cls-13" d="M2659.25,1761.63c19.22-28.53-98.34-62.68-108.69-183.45s135-182.8,305.55-94.31-67.69,208.78-122.66,219S2702.5,1755.17,2659.25,1761.63Z"/><path class="cls-1" d="M2658.16,1651.82l-52.37-.5.51-53.36,52.38.5Zm-52.08-.79,51.8.5.51-52.79-51.8-.49Z"/><path class="cls-1" d="M2660.18,1600.05l-64.49-.62,0-2.87,64.49.62Zm-64.2-.9,63.92.61,0-2.29-63.92-.62Z"/><path class="cls-1" d="M2660.21,1597.47l-66.83-.64L2611,1570.4l49.45.47Zm-66.29-.92,66,.63.25-26-49-.47Z"/><path class="cls-1" d="M2734.52,1576.51l-7.31-.07.76-58.85,7.31.07Zm-7-.34,6.74.07.75-58.31-6.74-.07Z"/><path class="cls-1" d="M2663,1575.83l-7.31-.07.76-58.86,7.3.07Zm-7-.34,6.74.06.74-58.31-6.73-.06Z"/><path class="cls-1" d="M2802.85,1576.55l-7.31-.07.75-58.39,7.31.07Zm-7-.34,6.74.06.74-57.84-6.73-.07Z"/><path class="cls-1" d="M2709.78,1576.14l-30.85-.3.19-19.65,30.85.29Zm-30.56-.58,30.28.29.18-19.08-30.28-.29Z"/><path class="cls-1" d="M2798,1651.41l-135.54-1.31.66-67.94,135.53,1.3Zm-135.25-1.59,135,1.3.65-67.37-135-1.3Z"/><path class="cls-1" d="M2673.46,1652l-21.28-.21,0-3.8,21.28.2Zm-21-.49,20.71.2,0-3.23-20.71-.2Z"/><path class="cls-1" d="M2671.65,1617.16l-17-.17,0-3.08,17,.16Zm-16.69-.45,16.4.16,0-2.51-16.41-.16Z"/><path class="cls-1" d="M2668.3,1585.51l-10.24-.1,0-2,10.24.1Zm-10-.38,9.67.09v-1.41l-9.67-.09Z"/><path class="cls-1" d="M2669.84,1614.34l-13.72-.13v-.15l2.41-28.93,9.22.09Zm-13.41-.41,13.1.12-2-28.55-8.69-.08Z"/><path class="cls-1" d="M2670.33,1621.2l-14.78-.14.12-1.47,14.55.14Zm-14.47-.42,14.16.13-.07-.9-14-.13Z"/><path class="cls-1" d="M2665.05,1620.56l-9.46-.09.32-3.75,9.18.08Zm-9.14-.38,8.86.09,0-3.18-8.63-.08Z"/><path class="cls-1" d="M2670.29,1620.61l-5.52,0,0-3.76,5.22,0Zm-5.23-.34,4.92,0-.23-3.18-4.66-.05Z"/><path class="cls-1" d="M2670.62,1625.27l-15.41-.15.12-1.48,15.18.15Zm-15.1-.44,14.79.14-.07-.89-14.65-.15Z"/><path class="cls-1" d="M2670.08,1624.67l-10.42-.1,0-3.76,10.42.1Zm-10.13-.39,9.85.1,0-3.18-9.85-.1Z"/><path class="cls-1" d="M2660,1624.57l-4.69,0,.31-3.75,4.42,0Zm-4.38-.33,4.09,0,0-3.18-3.87,0Z"/><path class="cls-1" d="M2670.58,1624.67h-.79l0-3.75h.48Zm-.5-.29h.19l-.16-2.24Z"/><path class="cls-1" d="M2670.91,1629.33l-16-.16.12-1.47,15.81.15Zm-15.73-.44,15.42.15-.07-.9-15.27-.15Z"/><path class="cls-1" d="M2665,1628.68l-10.06-.1.31-3.75,9.78.09Zm-9.75-.38,9.46.09,0-3.18-9.23-.09Z"/><path class="cls-1" d="M2670.86,1628.73l-6.17,0,0-3.76,5.88.06Zm-5.88-.34,5.58,0-.23-3.18-5.32,0Z"/><path class="cls-1" d="M2671.2,1633.39l-16.67-.16.12-1.47,16.44.16Zm-16.36-.44,16,.15-.07-.9-15.9-.15Z"/><path class="cls-1" d="M2670,1632.79l-10.42-.1,0-3.76,10.42.1Zm-10.13-.39,9.85.1,0-3.18-9.85-.1Z"/><path class="cls-1" d="M2659.87,1632.69l-5.29,0,.31-3.75,5,0Zm-5-.34,4.7.05,0-3.18-4.46,0Z"/><path class="cls-1" d="M2671.15,1632.8l-1.43,0,0-3.75h1.14Zm-1.14-.3h.84l-.23-3.18H2670Z"/><path class="cls-1" d="M2671.49,1637.45l-17.3-.16.12-1.47,17.07.16Zm-17-.45,16.68.16-.07-.9-16.53-.15Z"/><path class="cls-1" d="M2664.9,1636.8l-10.42-.1,0-3.76,10.42.1Zm-10.13-.39,9.84.1,0-3.18-9.84-.1Z"/><path class="cls-1" d="M2671.44,1636.86l-6.83-.07,0-3.75,6.52.06Zm-6.54-.35,6.23.06-.22-3.18-6-.06Z"/><path class="cls-1" d="M2654.87,1636.7h-.63l.27-3.22v-.53h.4Zm-.32-.29h0v-.49Z"/><path class="cls-1" d="M2671.78,1641.52l-17.93-.18.12-1.47,17.7.17Zm-17.62-.46,17.31.17-.07-.9-17.16-.17Z"/><path class="cls-1" d="M2669.93,1640.91l-10.43-.1,0-3.76,10.42.1Zm-10.14-.39,9.85.1,0-3.18-9.84-.1Z"/><path class="cls-1" d="M2659.79,1640.81l-5.89-.06.31-3.75,5.62.06Zm-5.58-.34,5.3,0,0-3.18-5.06,0Z"/><path class="cls-1" d="M2671.73,1640.92l-2.09,0,0-3.75,1.8,0Zm-1.8-.3h1.49l-.22-3.18H2670Z"/><path class="cls-1" d="M2672.06,1645.58l-18.55-.18.13-1.47,18.32.18Zm-18.23-.46,17.93.17-.07-.9-17.79-.17Z"/><path class="cls-1" d="M2664.82,1644.92l-10.42-.1,0-3.76,10.42.1Zm-10.13-.39,9.85.1,0-3.18-9.85-.1Z"/><path class="cls-1" d="M2672,1645l-7.49-.08,0-3.75,7.18.07Zm-7.2-.36,6.89.07-.22-3.19-6.64-.06Z"/><path class="cls-1" d="M2654.69,1644.82h-1.13l.32-3.75h.84Zm-.82-.3h.53l0-3.18h-.29Z"/><path class="cls-1" d="M2669.85,1648.43l-10.42-.1,0-3.16,10.42.1Zm-10.13-.38,9.85.09,0-2.58-9.84-.1Z"/><path class="cls-1" d="M2659.72,1648.32l-6.44-.06.26-3.15,6.21.06Zm-6.13-.35,5.85.06,0-2.57-5.66-.06Z"/><path class="cls-1" d="M2672.27,1648.44l-2.7,0,0-3.14,2.44,0Zm-2.41-.31,2.1,0-.18-2.57-1.9,0Z"/><path class="cls-1" d="M2741.15,1652.62l-21.28-.21,0-3.8,21.28.2Zm-21-.49,20.71.2,0-3.23-20.7-.2Z"/><path class="cls-1" d="M2739.34,1617.81l-17-.17,0-3.08,17,.16Zm-16.69-.45,16.4.16,0-2.51-16.41-.16Z"/><path class="cls-1" d="M2736,1586.16l-10.24-.1,0-2,10.24.1Zm-9.95-.38,9.67.09v-1.4l-9.67-.1Z"/><path class="cls-1" d="M2737.53,1615l-13.72-.13v-.15l2.41-28.93,9.22.09Zm-13.41-.41,13.1.12-2-28.55-8.69-.08Z"/><path class="cls-1" d="M2738,1621.85l-14.78-.14.12-1.47,14.55.14Zm-14.47-.42,14.16.13-.07-.9-14-.13Z"/><path class="cls-1" d="M2732.74,1621.21l-9.45-.09.31-3.75,9.18.09Zm-9.14-.38,8.86.09,0-3.18-8.63-.08Z"/><path class="cls-1" d="M2738,1621.26l-5.52,0,0-3.76,5.22,0Zm-5.23-.34,4.92,0-.23-3.18-4.66,0Z"/><path class="cls-1" d="M2738.31,1625.92l-15.41-.15.12-1.47,15.18.14Zm-15.1-.44,14.79.15-.07-.9-14.65-.14Z"/><path class="cls-1" d="M2737.77,1625.32l-10.42-.1,0-3.76,10.42.1Zm-10.13-.39,9.85.1,0-3.18-9.85-.1Z"/><path class="cls-1" d="M2727.64,1625.22l-4.69,0,.31-3.76,4.42,0Zm-4.38-.33,4.09,0,0-3.18-3.87,0Z"/><path class="cls-1" d="M2738.27,1625.32h-.78l0-3.76h.48Zm-.49-.29h.18l-.16-2.24Z"/><path class="cls-1" d="M2738.6,1630l-16-.15.12-1.48,15.81.16Zm-15.73-.44,15.42.15-.07-.9-15.27-.15Z"/><path class="cls-1" d="M2732.67,1629.33l-10.06-.1.31-3.75,9.78.09Zm-9.75-.38,9.46.09,0-3.18-9.22-.09Z"/><path class="cls-1" d="M2738.55,1629.39l-6.17-.06,0-3.76,5.87.06Zm-5.88-.35,5.58.06-.23-3.19-5.32-.05Z"/><path class="cls-1" d="M2738.89,1634l-16.67-.16.12-1.47,16.44.16Zm-16.36-.44,16,.15-.07-.9-15.9-.15Z"/><path class="cls-1" d="M2737.69,1633.44l-10.42-.1,0-3.76,10.42.1Zm-10.13-.39,9.85.1,0-3.18-9.85-.1Z"/><path class="cls-1" d="M2727.56,1633.34l-5.29,0,.31-3.75,5,0Zm-5-.33,4.7,0,0-3.18-4.46,0Z"/><path class="cls-1" d="M2738.84,1633.45h-1.43l0-3.76h1.14Zm-1.14-.3h.84l-.23-3.18h-.58Z"/><path class="cls-1" d="M2739.18,1638.11l-17.3-.17.12-1.47,17.07.16Zm-17-.46,16.68.16-.07-.89-16.53-.16Z"/><path class="cls-1" d="M2732.59,1637.45l-10.42-.1,0-3.76,10.42.1Zm-10.13-.39,9.84.1,0-3.18-9.84-.1Z"/><path class="cls-1" d="M2739.13,1637.51l-6.83-.06,0-3.76,6.53.06Zm-6.54-.35,6.23.06-.22-3.18-6-.06Z"/><path class="cls-1" d="M2722.56,1637.35h-.63l.27-3.22v-.54h.4Zm-.32-.29h0v-.5Z"/><path class="cls-1" d="M2739.47,1642.17l-17.93-.17.13-1.48,17.69.17Zm-17.62-.46,17.31.17-.07-.9-17.16-.17Z"/><path class="cls-1" d="M2737.62,1641.56l-10.42-.1,0-3.76,10.42.1Zm-10.13-.39,9.84.1,0-3.18-9.84-.1Z"/><path class="cls-1" d="M2727.48,1641.46l-5.89-.06.31-3.75,5.62.06Zm-5.58-.34,5.3.05,0-3.18-5.06,0Z"/><path class="cls-1" d="M2739.42,1641.57l-2.09,0,0-3.75,1.79,0Zm-1.8-.3h1.49l-.22-3.18h-1.24Z"/><path class="cls-1" d="M2739.76,1646.23l-18.56-.18.13-1.47,18.32.18Zm-18.24-.46,17.93.17-.07-.9-17.79-.17Z"/><path class="cls-1" d="M2732.51,1645.57l-10.42-.1,0-3.76,10.42.1Zm-10.13-.39,9.85.1,0-3.18-9.85-.1Z"/><path class="cls-1" d="M2739.71,1645.64l-7.49-.08,0-3.75,7.19.07Zm-7.2-.36,6.89.07-.22-3.18-6.64-.07Z"/><path class="cls-1" d="M2722.38,1645.47h-1.13l.32-3.75h.84Zm-.81-.3h.52l0-3.18h-.29Z"/><path class="cls-1" d="M2737.54,1649.08l-10.42-.1,0-3.16,10.42.1Zm-10.13-.38,9.85.09,0-2.58-9.84-.1Z"/><path class="cls-1" d="M2727.41,1649l-6.44-.06.26-3.14,6.21.06Zm-6.13-.35,5.85.06,0-2.57-5.66,0Z"/><path class="cls-1" d="M2740,1649.09l-2.7,0,0-3.14,2.44,0Zm-2.41-.31,2.1,0-.18-2.57-1.9,0Z"/><path class="cls-1" d="M2810.08,1653.28l-21.27-.2,0-3.81,21.28.21Zm-21-.49,20.7.2,0-3.23-20.7-.2Z"/><path class="cls-1" d="M2808.27,1618.47l-17-.16,0-3.09,17,.17Zm-16.69-.45,16.41.16,0-2.51-16.41-.16Z"/><path class="cls-1" d="M2804.92,1586.82l-10.24-.1,0-2,10.24.09Zm-10-.38,9.67.09v-1.4L2795,1585Z"/><path class="cls-1" d="M2806.46,1615.66l-13.72-.14v-.15l2.42-28.93,9.22.09Zm-13.41-.42,13.1.12-2-28.54-8.69-.09Z"/><path class="cls-1" d="M2807,1622.52l-14.78-.15.12-1.47,14.56.14Zm-14.47-.43,14.16.14-.06-.9-14-.14Z"/><path class="cls-1" d="M2801.68,1621.87l-9.46-.09.31-3.75,9.18.09Zm-9.15-.37,8.86.08,0-3.18-8.63-.08Z"/><path class="cls-1" d="M2806.91,1621.92l-5.52-.05,0-3.75,5.21.05Zm-5.23-.33,4.92,0-.23-3.18-4.66,0Z"/><path class="cls-1" d="M2807.24,1626.58l-15.41-.15.12-1.47,15.18.14Zm-15.1-.43,14.79.14-.06-.9-14.65-.14Z"/><path class="cls-1" d="M2806.7,1626l-10.42-.1,0-3.75,10.42.1Zm-10.13-.38,9.85.09,0-3.18-9.85-.09Z"/><path class="cls-1" d="M2796.57,1625.88l-4.69,0,.31-3.75,4.42,0Zm-4.38-.33,4.1,0,0-3.18-3.86,0Z"/><path class="cls-1" d="M2807.2,1626h-.78l0-3.76h.48Zm-.49-.3h.18l-.16-2.24Z"/><path class="cls-1" d="M2807.53,1630.64l-16-.15.12-1.47,15.82.15Zm-15.73-.44,15.42.15-.06-.9-15.28-.14Z"/><path class="cls-1" d="M2801.6,1630l-10.06-.09.31-3.76,9.78.1Zm-9.75-.38,9.46.09,0-3.18-9.22-.09Z"/><path class="cls-1" d="M2807.49,1630.05l-6.18-.06,0-3.76,5.87.06Zm-5.89-.35,5.58.06-.23-3.18-5.32-.06Z"/><path class="cls-1" d="M2807.82,1634.7l-16.67-.16.12-1.47,16.44.16Zm-16.36-.44,16.05.15-.06-.9-15.91-.15Z"/><path class="cls-1" d="M2806.63,1634.1l-10.42-.1,0-3.75,10.42.1Zm-10.13-.38,9.84.09,0-3.18-9.84-.09Z"/><path class="cls-1" d="M2796.49,1634l-5.29,0,.31-3.75,5,0Zm-5-.33,4.7,0,0-3.18-4.46,0Z"/><path class="cls-1" d="M2807.78,1634.11h-1.44l0-3.76,1.13,0Zm-1.15-.3h.84l-.23-3.18h-.58Z"/><path class="cls-1" d="M2808.11,1638.77l-17.3-.17.13-1.47,17.06.16Zm-17-.45,16.67.16-.06-.9-16.54-.16Z"/><path class="cls-1" d="M2801.52,1638.11l-10.42-.1,0-3.75,10.42.1Zm-10.13-.38,9.85.09,0-3.18-9.85-.09Z"/><path class="cls-1" d="M2808.07,1638.17l-6.84-.06,0-3.76,6.53.07Zm-6.55-.35,6.24.06-.23-3.18-6-.06Z"/><path class="cls-1" d="M2791.5,1638h-.64l.27-3.22v-.53h.39Zm-.33-.29h0v-.49Z"/><path class="cls-1" d="M2808.4,1642.83l-17.92-.17.12-1.47,17.69.17Zm-17.61-.46,17.3.17-.07-.9-17.16-.16Z"/><path class="cls-1" d="M2806.55,1642.22l-10.42-.1,0-3.75,10.42.1Zm-10.13-.39,9.84.1,0-3.18-9.84-.09Z"/><path class="cls-1" d="M2796.42,1642.12l-5.9,0,.32-3.76,5.61.06Zm-5.58-.34,5.29,0,0-3.18-5.06-.05Z"/><path class="cls-1" d="M2808.36,1642.24l-2.1,0,0-3.76,1.79,0Zm-1.81-.31,1.5,0-.23-3.18-1.24,0Z"/><path class="cls-1" d="M2808.69,1646.89l-18.55-.17.12-1.48,18.32.18Zm-18.24-.46,17.93.17-.07-.9-17.79-.17Z"/><path class="cls-1" d="M2801.44,1646.23l-10.42-.1,0-3.75,10.42.1Zm-10.13-.38,9.85.09,0-3.18-9.85-.09Z"/><path class="cls-1" d="M2808.64,1646.3l-7.48-.07,0-3.76,7.19.07Zm-7.19-.36,6.89.07-.23-3.18-6.63-.07Z"/><path class="cls-1" d="M2791.31,1646.13h-1.12l.31-3.75h.85Zm-.81-.29h.53l0-3.18h-.3Z"/><path class="cls-1" d="M2806.48,1649.75l-10.42-.1,0-3.16,10.42.1Zm-10.13-.39,9.84.1,0-2.59-9.85-.09Z"/><path class="cls-1" d="M2796.34,1649.63l-6.44-.06.26-3.14,6.21.06Zm-6.13-.34,5.85,0,0-2.57-5.66,0Z"/><path class="cls-1" d="M2808.89,1649.75l-2.7,0,0-3.15,2.45,0Zm-2.41-.31,2.1,0-.18-2.57-1.9,0Z"/><path class="cls-1" d="M2810.48,1585.18l-159.39-1.53,0-4.22,159.39,1.53Zm-159.1-1.81,158.81,1.52,0-3.64-158.81-1.53Z"/><path class="cls-1" d="M2810.74,1581.25l-159.84-1.53,4.68-4.18,150.57,1.45,0,0Zm-159.09-1.81L2810,1581l-4-3.68-150.35-1.45Z"/><path class="cls-1" d="M2810.48,1518.51,2651.09,1517l0-4.22,159.39,1.53Zm-159.1-1.82,158.81,1.53,0-3.64-158.81-1.53Z"/><path class="cls-1" d="M2810.74,1514.58,2650.9,1513l29.29-38.39,107,1.45,0,0Zm-159.09-1.82,158.35,1.53-22.9-37.9-106.81-1.45Z"/><path class="cls-1" d="M2679.6,1575.85l-2.12,0,.18-18.81,2.12,0Zm-1.83-.31,1.55,0,.17-18.24h-1.55Z"/><path class="cls-1" d="M2710.7,1576.15l-2.12,0,.18-18.82,2.12,0Zm-1.83-.31,1.55,0,.17-18.24H2709Z"/><path class="cls-1" d="M2713.77,1557.65l-38.68-.37,0-2,38.67.37Zm-38.39-.66,38.1.37V1556l-38.1-.37Z"/><path class="cls-1" d="M2713.92,1556l-38.93-.37,5.49-8.53,27.24.26.05.06Zm-38.41-.65,37.85.36-5.79-8.06-26.93-.26Z"/><path class="cls-1" d="M2606.08,1651.32l-5.67-.06.5-52.06,5.67,0Zm-5.38-.34,5.09,0,.5-51.5-5.1,0Z"/><path class="cls-1" d="M2711.12,1650.57l-30.3-.29.53-55.5,30.3.3Zm-30-.57,29.72.28.53-54.92-29.72-.29Z"/><path class="cls-1" d="M2780.61,1577l-30.3-.29.53-55.5,30.3.3Zm-30-.58,29.72.29.53-54.92-29.72-.29Z"/><path class="cls-1" d="M2788.37,1628.62l-20.38-.2.32-32.76,20.37.19Zm-20.09-.48,19.81.19.3-32.19-19.8-.19Z"/><path class="cls-1" d="M2787.22,1611.85l-8.64-.08.14-14.74,8.64.08Zm-8.35-.37,8.06.08.14-14.17-8.07-.07Z"/><path class="cls-1" d="M2787.06,1627.54l-8.64-.08.15-14.74,8.64.08Zm-8.35-.37,8.07.08.14-14.17-8.07-.07Z"/><path class="cls-1" d="M2764,1628.38l-20.38-.19.31-32.77,20.38.2Zm-20.09-.48,19.8.19.31-32.19-19.8-.19Z"/><path class="cls-1" d="M2753.68,1611.53l-8.64-.09.15-14.74,8.64.09Zm-8.35-.37,8.07.08.14-14.17-8.07-.08Z"/><path class="cls-1" d="M2753.53,1627.22l-8.64-.08.14-14.75,8.64.09Zm-8.35-.37,8.07.08.13-14.17-8.06-.08Z"/><path class="cls-1" d="M2777,1630.35l-22.66-.22.35-36.44,22.66.22Zm-22.37-.5,22.08.21.35-35.87L2755,1594Z"/><path class="cls-1" d="M2765.57,1611.58l-9.59-.09.16-16.38,9.59.1Zm-9.3-.37,9,.08.16-15.8-9-.09Z"/><path class="cls-1" d="M2775.7,1611.68l-9.58-.09.15-16.38,9.59.09Zm-9.29-.38,9,.09.15-15.8-9-.09Z"/><path class="cls-1" d="M2765.4,1629.05l-9.58-.09.15-16.38,9.59.09Zm-9.29-.38,9,.09.15-15.8-9-.09Z"/><path class="cls-1" d="M2775.53,1629.15l-9.58-.09.15-16.38,9.59.09Zm-9.29-.38,9,.09.15-15.8-9-.09Z"/><path class="cls-1" d="M2720.16,1652.42l-47-.46,0-2,47,.45Zm-46.7-.74,46.42.45v-1.47l-46.41-.45Z"/><path class="cls-1" d="M2727.86,1655.54l-62.45-.6,0-3.34,62.44.6Zm-62.16-.89,61.88.6,0-2.76-61.87-.6Z"/><path class="cls-1" d="M2732.38,1658.63l-71.55-.68,0-3.34,71.55.69Zm-71.26-1,71,.68,0-2.76-71-.68Z"/><polygon class="cls-5" points="1931.97 1386.04 2885.6 1387.86 2866.01 1366.91 1949.86 1366.91 1931.97 1386.04"/></g></svg>