<svg xmlns="http://www.w3.org/2000/svg" viewBox="0 0 4680 2947.38"><defs><style>.cls-1{fill:#ebeff2;}.cls-2{fill:#b3bbc3;}.cls-3{fill:#d3dce2;}.cls-4{fill:#4a5a66;}.cls-5{fill:#99a9b5;}.cls-6{fill:#fff;}.cls-7{fill:#343d76;}.cls-8{fill:#d9cfc3;}.cls-9{fill:#fa993b;}.cls-10{fill:#6bb14e;}.cls-11{fill:#83d35e;}.cls-12{fill:#f8bd88;}.cls-13{fill:#fc9d6b;}.cls-14{fill:#7ccfd5;}.cls-15{fill:#a6dfea;}.cls-16{fill:#d74f29;}.cls-17{fill:#c43924;}.cls-18{fill:#192057;}.cls-19{fill:#528e36;}.cls-20{fill:#69aa44;}.cls-21{fill:#ff790b;}.cls-22{fill:#ff8736;}</style></defs><title>header-logo-white-textAsset 1</title><g id="Layer_2" data-name="Layer 2"><g id="Layer_1-2" data-name="Layer 1"><rect class="cls-1" y="2248.02" width="4680" height="699.36"/><path class="cls-1" d="M4227,256.9c.06-25-.62-62.38-5-72.81a13.53,13.53,0,0,0-10.12-8.12l-68.29-.06L3957.23,12.66a19.77,19.77,0,0,0-37.08.51L3440.57,188.38H3322.82a18.38,18.38,0,0,0-11,3.62l-65,48.21a5.2,5.2,0,0,0-2.1,4.17v.85a5.19,5.19,0,0,0,5.19,5.19h49.52a11.07,11.07,0,0,0-2.37,20.84l-39.93,59,.87,2.12,40.88-60.46a10.91,10.91,0,0,0,2.9.4h28.6a11,11,0,0,0,3.55-.59l41,60.65.85-2.08L3335.66,271a11.07,11.07,0,0,0-3-20.55h543.66a3.42,3.42,0,0,0,.12.7l7.64,32.84h0l-.5,2h.1l-2.59,10.22h-1.86c-.9,0-.9,8.05,0,8.05h26.13V1420h-25.11v40.12h-51.76v49.49H4043v-49.49h-51.77V1420h-23.81V304.17h20.32c.9,0,.9-8.05,0-8.05h-2.45V285.9h.16v-2h-.16V250.38h132.87v14.24h108.78C4229.07,264.63,4229.08,256.92,4227,256.9Zm-483.86-18.59-21-19,21-19.6ZM3720.4,217.7,3697.56,197h45Zm-29.92,20.61-21-19,21-19.6Zm6.61-38.5,21.5,19.57L3697,239.5Zm-29.35,17.89L3644.9,197h45Zm-29.93,20.61-21-19,21-19.6Zm6.61-38.5,21.51,19.57-21.58,20.16ZM3615,217.7,3592.16,197h45Zm-29.92,20.61-21-19,21-19.6Zm6.61-38.5,21.58,19.57-21.58,20.16Zm-29.35,17.9L3539.5,197h45Zm-29.92,20.6-21-19,21-19.6Zm6.6-38.5,21.58,19.57L3539,239.51Zm-29.34,17.89L3486.83,197h45Zm-82.59,20.61-21-19,21-19.6Zm6.61-38.5,21.57,19.57-21.58,20.15Zm.47-2.8h45L3457,217.7Zm45.6,2.71v38.59l-21-19Zm6.59.09,21.58,19.57-21.58,20.15Zm-82,17.89L3381.52,197h45Zm-29.93,20.61-21-19,21-19.6Zm6.61-38.5,21.57,19.57L3381,239.51Zm-29.35,17.89L3328.85,197h45Zm-1.69,1.68-21.58,20.16v-39.7Zm1.78,1.61,22.71,20.58v.2h-45Zm52.66,0,22.72,20.58v.2h-45Zm52.66,0,22.72,20.58v.2h-45Zm52.67,0,22.71,20.58v.2h-44.95Zm52.66,0,22.72,20.58v.2h-45Zm52.67,0,22.71,20.58v.2h-45Zm52.66,0,22.71,20.58v.2h-45Zm52.66,0,22.72,20.58v.2h-45Zm29.33-21.15,21.51,19.54-21.58,20.15Zm.47-2.8h45L3773,217.7Zm361.57,41.3-21-19,21-19.6ZM4089,217.71,4066.16,197h45Zm-29.93,20.6L4044.36,225l-6.25-5.65,21-19.6Zm6.61-38.5,21.56,19.57-21.58,20.16Zm-29.35,17.89L4013.49,197h45ZM4013,199.81l21.58,19.57L4013,239.5Zm-55.26-45.27L3939.22,179h-.75l-19.1-24.46Zm-36.27-8.16,17.14-27.79,17.67,27.81Zm-20.38,82.81-.1.45h0l.14-.63Zm-.73,3.26h0l-.91,4.34h0Zm-18-11.09-2.29-2.07,4.23-3.95Zm14.73,20.35a6.53,6.53,0,0,0,1.63-2.29h0a6.46,6.46,0,0,1-1.63,2.27ZM3985.24,197h20.54l-20.54,19.18Zm-42.35-18,15.85-20.92,1.34,20.92Zm-2.61-63.14,14.26-23.13,3.26,50.71Zm-.55-59.5L3952.3,82h-26.7l12.2-25.65Zm13,33.77-14.17,23-14.61-23Zm-9.67-33.73h9.19l1.39,21.6Zm-8.47,0-11.11,23.36L3925,56.37Zm-12,37.06,14.27,22.47-17.62,28.57ZM3918.35,158l16.41,21H3917Zm-32.48,52.74-7.52,7-22.84-20.69h34.76Zm-37.44,27.62-21-19,21-19.6Zm6.61-38.5,21.54,19.52L3855,239.51Zm-29.35,17.9-22.84-20.7h45Zm-23.32-17.9,21.55,19.52-21.58,20.16Zm-6.58-.09v38.59l-20.95-19ZM3825.71,221l22.72,20.58v.2h-45Zm52.67,0,3.23,2.93L3877.09,238a23.79,23.79,0,0,0-.92,3.79h-20Zm128.06-21.24v38.59l-21-19ZM4036.37,221l22.71,20.58v.2h-45Zm52.66,0,22.72,20.58v.2H4066.8Zm50.75-45h-15.39a6.22,6.22,0,0,0-6.22,6.21v6.21H3985.29v-2.84a6.54,6.54,0,0,0-6.53-6.54h-13.9L3957,56.38h.38a1.19,1.19,0,0,0,1.19-1.19h0v-1h0V19.81a19.76,19.76,0,0,0-.22-2.77ZM3919,19.77V55.12a1.38,1.38,0,0,0,1.2,1.2h.12L3912.27,179h-11.43a6.53,6.53,0,0,0-6.21,4.53l-1.53,4.85H3519.34L3919,19Zm-6-1.3L3512.87,188.38H3448ZM3311.69,200.53a19.71,19.71,0,0,1,10.11-3.48v44.69h-69.32Zm439.11,41.21L3773,221l22.71,20.58v.2Zm182.29,62.43,1,1-20,22.09V304.17ZM3915.5,857.68l20.19-22.28,20.84,22.31Zm21.81-24.06,19.92-22h1.53v45ZM3915.5,805l20.19-22.29L3956.53,805Zm38.5,6.61-18.33,20.23-18.92-20.25ZM3937.31,781l19.92-22h1.53V803.9Zm-21.81-28.57,20.19-22.28,20.84,22.28ZM3954,759l-18.33,20.24L3916.75,759Zm-16.69-30.67,19.92-22h1.53v45Zm-21.81-28.6,20.19-22.34,20.84,22.3Zm38.5,6.61-18.33,20.23-18.92-20.25Zm-16.69-30.67,19.92-22h1.53v45Zm-21.81-28.6,20.19-22.29,20.84,22.31Zm38.5,6.61-18.33,20.23-18.92-20.25ZM3937.31,623l19.92-22h1.53v45Zm-21.81-28.61,20.19-22.28,20.84,22.28ZM3954,601l-18.33,20.23L3916.75,601Zm-16.69-30.67,19.92-22h1.53v45Zm-21.81-28.6,20.19-22.34,20.84,22.3Zm38.5,6.61-18.33,20.23-18.92-20.25Zm-16.69-30.68,19.92-22h1.53v45Zm-21.81-28.59,20.19-22.29,20.84,22.31Zm38.5,6.6-18.33,20.24-18.92-20.26ZM3937.31,465l19.92-22h1.53v45Zm-21.81-28.61,20.19-22.28,20.84,22.28ZM3954,443l-18.33,20.23L3916.75,443Zm-16.69-30.67,19.92-22h1.53v45Zm-1.64-1.76-18.92-20.25H3954Zm-21-26.84,21-23.19,21.68,23.21Zm-.64-2.85V337.38l20,21.42Zm20,31.47-20,22V390.9Zm0,52.66-20,22.09V443.57Zm0,52.67-20,22.09V496.23Zm0,52.66-20,22V548.89Zm0,52.67-20,22.09V601.56Zm0,52.66-20,22.09V654.22Zm0,52.66-20,22.06v-43.5Zm0,52.67-20,22.09V759.55Zm0,52.66-20,22.09V812.21Zm-17.3,30.63H3954l-18.33,20.23Zm17.3,22-20,22.1v-43.5Zm23.18-22h1.53v45l-21.45-23Zm-19.92-505.55,19.92-22h1.53v45Zm-1.64-1.76-18.92-20.25H3954ZM3915.5,910.38l20.19-22.29,20.84,22.31ZM3954,917l-18.33,20.23L3916.75,917Zm-39.32-586.82,21-23.18,21.68,23.21Zm-.64,587.4L3934,939l-20,22.09ZM3915.5,963l20.19-22.28,20.84,22.3Zm38.52,6.61-18.35,20.25-19-20.27Zm-40,.61,20,21.43-20,22.09Zm1.46,362.35,20.19-22.28,20.84,22.31Zm21.81-24.06,19.92-22h1.53v45Zm-21.81-28.6,20.19-22.29,20.84,22.31Zm38.5,6.61-18.33,20.23-18.92-20.25Zm-16.69-30.68,19.92-22h1.53v45Zm-21.81-28.6,20.19-22.28,20.84,22.31Zm38.5,6.61-18.33,20.24-18.92-20.26Zm-16.69-30.67,19.92-22h1.53v45Zm-21.81-28.6,20.19-22.28,20.84,22.3Zm38.5,6.61-18.33,20.23-18.92-20.25Zm-16.69-30.67,19.92-22h1.53v45Zm-21.81-28.6,20.19-22.29,20.84,22.31Zm38.5,6.61-18.33,20.23-18.92-20.25Zm-16.69-30.68,19.92-22h1.53v45Zm-1.64-1.76-18.92-20.25H3954Zm20.86-26.81h-41L3935.7,1047Zm-19.22-24.09,19.92-22h1.53v45ZM3914,1067.31v-43.52l20,21.43Zm20,30.58L3914,1120v-43.52Zm0,52.66-20,22.09v-43.52Zm0,52.66-20,22.09v-43.52Zm0,52.67L3914,1278v-43.52Zm0,52.66-20,22.09v-43.52Zm-17.3,30.63H3954l-18.28,20.21Zm17.3,22-20,22.1v-43.49Zm23.18-22h1.53v45l-21.45-23Zm-21.56-295.75-18.92-20.25H3954Zm0,319.52,20.84,22.31h-41Zm-21-346.36,21-23.19,21.68,23.21Zm-.65,403.36v-28.13h44.72v28.1Zm44.72-405.36-21.45-23,19.94-22h1.51Zm0-52.69-21.45-23,19.92-22h1.53Zm0-633.77-21.45-23,.91-1h20.54Zm26.6-105.74,21.12,19.13v.2h-21.12Z"/><path class="cls-1" d="M2967.49,514.11c0-15,.37-37.41,3-43.67a8.14,8.14,0,0,1,6.07-4.87h41l111.76-97.91a11.85,11.85,0,0,1,22.24.31L3439.2,473h70.62a11,11,0,0,1,6.57,2.17l39,28.91a3.14,3.14,0,0,1,1.26,2.51v.51a3.12,3.12,0,0,1-3.12,3.11h-29.69a6.63,6.63,0,0,1,1.42,12.49l24,35.41-.51,1.25-24.52-36.26a6.41,6.41,0,0,1-1.74.24h-17.16a6.64,6.64,0,0,1-2.12-.35l-24.71,36.36-.51-1.25,24.06-35.58a6.64,6.64,0,0,1,1.77-12.32H3177.76a.89.89,0,0,1-.07.42l-4.59,19.69h0l.3,1.19h-.06l1.55,6.13H3176c.54,0,.54,4.82,0,4.82h-15.68v669.2h15.06v24.07h31v29.63H3077.82V1235.7h31v-24.07h14.28V542.46H3111c-.54,0-.54-4.82,0-4.82h1.48v-6.13h-.1v-1.19h.1V510.21h-79.7v8.54h-65.24C2966.21,518.75,2966.21,514.12,2967.49,514.11ZM3257.69,503l12.57-11.39-12.59-11.75Zm13.64-12.36,13.7-12.41h-27ZM3289.27,503l12.57-11.39-12.58-11.75Zm-4-23.09-12.93,11.72,12.94,12.09Zm17.6,10.73,13.7-12.41h-27Zm18,12.36,12.57-11.39-12.58-11.75Zm-4-23.09L3304,491.59l12.94,12.09Zm17.6,10.73,13.7-12.41h-27ZM3352.41,503,3365,491.57l-12.58-11.75Zm-4-23.09-12.93,11.72,12.94,12.09ZM3366,490.6l13.7-12.41h-27ZM3384,503l12.57-11.39L3384,479.82Zm-4-23.09-12.93,11.72L3380,503.68Zm17.6,10.73,13.7-12.41h-27ZM3447.14,503l12.57-11.39-12.58-11.75Zm-4-23.09-12.93,11.72,12.94,12.09Zm-.29-1.68h-27l13.28,12.41Zm-27.35,1.63V503l12.57-11.39Zm-3.95,0-12.93,11.72,13,12.09Zm49.19,10.73,13.7-12.41h-27Zm18,12.36,12.57-11.39-12.59-11.75Zm-4-23.09-12.93,11.72,13,12.09Zm17.6,10.73,13.7-12.41h-27Zm1.06,1,12.94,12.09V479.87Zm-1.07,1-13.62,12.34V505h27Zm-31.58,0-13.63,12.34V505h27Zm-31.59,0-13.62,12.34V505h27Zm-31.59,0L3384,504.9V505h27Zm-31.58,0-13.62,12.34V505h27Zm-31.59,0-13.62,12.34V505h27Zm-31.58,0-13.63,12.34V505h27Zm-31.59,0-13.62,12.34V505h27Zm-17.59-12.69-12.93,11.72,13,12.09Zm-.28-1.68h-27l13.29,12.41ZM3036.46,503,3049,491.56l-12.58-11.75Zm13.64-12.36,13.7-12.41h-27ZM3068,503l8.83-8,3.74-3.39L3068,479.81Zm-4-23.09-12.93,11.72,12.94,12.09Zm17.6,10.73,13.7-12.41h-27Zm14-10.73-12.93,11.72,12.94,12.09Zm33.14-27.15L3140,467.38h.46L3152,452.7Zm21.76-4.87-10.28-16.67-10.59,16.68Zm12.23,49.66.06.27h0l-.08-.38Zm.44,2h0l.55,2.61h0Zm10.76-6.65,1.37-1.25-2.53-2.36Zm-8.84,12.2a4,4,0,0,1-1-1.37h0a3.94,3.94,0,0,0,1,1.36Zm-52.86-26.83H3100l12.32,11.51Zm25.4-10.82-9.51-12.54-.81,12.54Zm1.56-37.86-8.55-13.88-2,30.42Zm.33-35.69L3132,409.24h16l-7.31-15.38ZM3132,414.07l8.5,13.78,8.76-13.79Zm5.8-20.25h-5.51l-.83,12.95Zm5.09,0,6.66,14-.92-14Zm7.2,22.23-8.56,13.47,10.57,17.14Zm2.54,38.72-9.84,12.6h10.67Zm19.43,31.61,4.51,4.2,13.7-12.41h-20.85Zm22.46,16.56,12.57-11.39L3194.5,479.8Zm-4-23.09-12.93,11.72,13,12.09Zm17.6,10.73,13.7-12.41h-27Zm14-10.73-12.93,11.72,12.94,12.09Zm4,0V503l12.57-11.39Zm-18,12.74-13.62,12.34v.12h27Zm-31.58,0-1.95,1.76,2.72,8.43a16,16,0,0,1,.55,2.27h12Zm-76.81-12.74V503l12.57-11.39Zm-17.95,12.74-13.62,12.34v.12h27Zm-31.59,0-13.62,12.34v.12h27Zm-30.43-27H3029a3.73,3.73,0,0,1,3.72,3.72v3.75h79.7v-1.71a3.92,3.92,0,0,1,3.92-3.92h8.33l4.73-73.54h-.23a.72.72,0,0,1-.72-.72v-.59h0V371.91a11.6,11.6,0,0,1,.13-1.66Zm132.41-93.65v21.2a.71.71,0,0,1-.59.7h-.2l4.83,73.56h6.85a3.92,3.92,0,0,1,3.73,2.72l.92,2.91h224.14L3152.16,371.38c0,.2,0,.35,0,.51Zm3.62-.78,240,101.89h38.92Zm360.62,109.19a11.79,11.79,0,0,0-6.07-2.08v26.8h41.57Zm-263.36,24.72-13.34-12.46L3226.08,505v.12h27Zm-109.34,37.44-.57.62,12,13.25V542.46Zm10.55,332-12.11-13.37-12.5,13.38Zm-13.08-14.44-11.94-13.18h-.92v27Zm13.08-17.15-12.11-13.36-12.5,13.37Zm-23.09,4,11,12.13,11.35-12.15Zm10-18.4-11.94-13.19h-.92v27Zm13.08-17.15L3142.14,798l-12.5,13.38Zm-23.09,4,11,12.13,11.35-12.14Zm10-18.4-11.94-13.19h-.92v27Zm13.08-17.15-12.11-13.37-12.5,13.38Zm-23.09,4,11,12.14,11.35-12.15Zm10-18.39-11.94-13.19h-.92v27Zm13.08-17.16-12.11-13.36-12.5,13.38Zm-23.09,4,11,12.13,11.35-12.14Zm10-18.4-11.94-13.19h-.92v27Zm13.08-17.15-12.11-13.37-12.5,13.38Zm-23.09,4,11,12.14,11.35-12.15Zm10-18.39-11.94-13.19h-.92v27Zm13.08-17.16-12.11-13.36-12.5,13.38Zm-23.09,4,11,12.13,11.35-12.15Zm10-18.4-11.94-13.19h-.92v27Zm13.16-17.39L3142.17,640l-12.5,13.37Zm-23.09,4,11,12.14,11.35-12.15Zm10-18.4-11.94-13.18h-.92v27Zm13.08-17.15-12.1-13.45-12.5,13.38Zm-23.09,4,11,12.13,11.35-12.15Zm10-18.4-11.94-13.19h-.92v27Zm1-1.06,11.35-12.14h-22.35Zm12.58-16.09-12.6-13.91-13,13.92Zm.39-1.71V562.38l-12,12.86Zm-12,18.87,12,13.25V594.48Zm0,31.59,12,13.25v-26.1Zm0,31.58,12,13.25v-26.1Zm0,31.59,12,13.25v-26.1Zm0,31.59,12,13.24v-26.1Zm0,31.58,12,13.25V752.38Zm0,31.59,12,13.25V784Zm0,31.58,12,13.25V815.58Zm0,31.59,12,13.25v-26.1Zm10.38,18.37h-22.35l11,12.13Zm-10.38,13.21,12,13.25v-26.1Zm-13.9-13.2h-.92v27l12.86-13.77Zm11.94-303.21-11.94-13.18h-.92v27Zm1-1,11.35-12.15h-22.35Zm12.09,331.88-12.11-13.36-12.5,13.38Zm-23.09,4,11,12.13,11.35-12.15Zm23.58-351.95-12.6-13.91-13,13.92Zm.39,352.3-12,12.85,12,13.25v-26.1Zm-.88,27.27-12.11-13.37-12.5,13.38Zm-23.1,4,11,12.15,11.36-12.16Zm24,.37-12,12.85,12,13.25Zm-.88,217.32-12.11-13.36-12.5,13.38Zm-13.08-14.43-11.94-13.19h-.92v27Zm13.08-17.15-12.11-13.37-12.5,13.38Zm-23.09,4,11,12.13,11.35-12.14Zm10-18.4-11.94-13.18h-.92v27Zm13.08-17.15L3142.18,1083l-12.5,13.37Zm-23.09,4,11,12.14,11.35-12.15Zm10-18.39-11.94-13.19h-.92v27Zm13.08-17.15-12.11-13.37-12.5,13.38Zm-23.09,4,11,12.13,11.35-12.14Zm10-18.4-11.94-13.19h-.92v27Zm13.08-17.15-12.11-13.37-12.5,13.38Zm-23.09,4,11,12.14,11.35-12.15Zm10-18.39-11.94-13.19h-.92v27Zm1-1.06,11.35-12.14h-22.35Zm-12.51-16.44h24.61L3142.17,988Zm11.53-14.45-11.94-13.19h-.92v27Zm14,13.26v-26.1l-12,12.85Zm-12,18.34,12,13.25v-26.1Zm0,31.59,12,13.25v-26.11Zm0,31.58,12,13.25v-26.1Zm0,31.59,12,13.25v-26.16Zm0,31.58,12,13.25V1132Zm10.38,18.37h-22.35l11,12.13Zm-10.38,13.22,12,13.25v-26.1Zm-13.9-13.2h-.92v27l12.82-13.88Zm12.93-177.38,11.35-12.15h-22.35Zm0,191.63-12.5,13.38h24.61Zm12.6-207.73-12.6-13.91-13,13.92Zm.39,241.91v-16.86H3128.4v16.85ZM3128.4,968.58l12.86-13.78-12-13.2h-.9v27Zm0-31.6,12.86-13.78L3129.32,910h-.92v27Zm0-380.11,12.86-13.77-.54-.61H3128.4Zm-16-63.49-12.67,11.48V505h12.67Z"/><polygon class="cls-2" points="3520.95 607.32 3521.03 1808.41 3521.03 1809.18 4248.96 1809.18 4248.93 607.32 3520.95 607.32"/><path class="cls-3" d="M4372.42,850.57H3394.89v729c.15,0,.15.56.15.56h977.45ZM3559,1481.71h-79v-83h79Zm0-242h-79v-83h79Zm0-242h-79v-83h79Zm245,484.07h-79v-83h79Zm0-242h-79v-83h79Zm0-242h-79v-83h79Zm239.72,484.07h-79v-83h79Zm0-242h-79v-83h79Zm0-242h-79v-83h79Zm244.85,484.07h-79v-83h79Zm0-242h-79v-83h79Zm0-242h-79v-83h79Z"/><rect class="cls-4" x="3389.78" y="355.4" width="23.01" height="1453.77"/><rect class="cls-4" x="3631.31" y="355.4" width="23.01" height="1453.77"/><rect class="cls-4" x="3872.84" y="355.4" width="23.01" height="1453.77"/><rect class="cls-4" x="3398.28" y="1568.62" width="969.13" height="23.01"/><rect class="cls-4" x="3398.28" y="1325.43" width="969.13" height="23.01"/><rect class="cls-4" x="3398.28" y="1082.25" width="969.13" height="23.01"/><rect class="cls-4" x="3398.28" y="839.06" width="969.13" height="23.01"/><rect class="cls-4" x="3394.76" y="595.88" width="972.65" height="23.01"/><rect class="cls-4" x="4114.38" y="355.4" width="23.01" height="1453.77"/><rect class="cls-4" x="4355.91" y="355.4" width="23.01" height="1453.77"/><polygon class="cls-4" points="2634.23 1799.69 2634.26 691.12 3377.56 691.12 3377.53 1056.81 3468.6 1056.81 3468.6 1251.47 3553.25 1251.88 3553.18 1799.37 2634.23 1799.69"/><rect class="cls-5" x="3459.44" y="498.22" width="17.62" height="1301.47"/><rect class="cls-5" x="3274.5" y="498.22" width="17.62" height="1301.47"/><rect class="cls-5" x="3089.55" y="498.22" width="17.62" height="1301.47"/><rect class="cls-5" x="2543.53" y="1615.49" width="930.94" height="17.62"/><rect class="cls-5" x="2543.53" y="1429.28" width="930.94" height="17.62"/><rect class="cls-5" x="2543.52" y="1243.07" width="930.94" height="17.62"/><rect class="cls-5" x="2543.52" y="1056.85" width="930.94" height="17.62"/><rect class="cls-5" x="2543.52" y="870.64" width="930.94" height="17.62"/><rect class="cls-5" x="2543.53" y="684.44" width="748.59" height="17.62"/><polygon class="cls-5" points="3107.17 498.22 3107.17 515.84 2922.23 515.84 2922.23 1799.69 2904.61 1799.69 2904.61 515.84 2737.28 515.84 2737.28 1799.69 2719.67 1799.69 2719.67 515.84 2552.34 515.84 2552.34 1799.69 2534.72 1799.69 2534.72 498.22 3107.17 498.22"/><ellipse class="cls-5" cx="3488.51" cy="2432.08" rx="342.37" ry="15.67"/><ellipse class="cls-5" cx="3207.66" cy="2062.62" rx="428.11" ry="15.67"/><path class="cls-6" d="M4175.1,1806.13l-63.27-148h-16.61v-20h-29.69v-468.5h11.4V1156h68.13v-15.11h-4v-74.77h-12.47a5.37,5.37,0,0,0,.12-1.39,8.51,8.51,0,0,0-8.45-8.55h-.1q-.63,0-1.26.12v0l-59.67-77.16a10.36,10.36,0,0,0,1.32-2.56l9.85,1.78a26.18,26.18,0,0,0,10.3,14.23,26.89,26.89,0,0,0,9.18,4l9.62,2.52,38.59,9.65.05-.2h.12c2.64-12.3,5.4-24.55,7.73-36.93a25.85,25.85,0,0,0-22.58-26.42h0l-46.91-9.86h-.19v.19l-3.42,17.7-28.39-5.9a15.25,15.25,0,0,0,.31-3.44,14.86,14.86,0,0,0-4.68-10.44,14.55,14.55,0,0,0-10.69-4.07,14.89,14.89,0,0,0-8.58,3L3878,778.18l-.72.66a10.1,10.1,0,0,0,1.3-6.75,10.93,10.93,0,0,0-3.78-6.33l-.1.12-1.35-1.17-.09-.09h0l-54.9-48.16-164.19,89.1-16.07,3-1.65.31,2.27,7.57,1.44-.43v.15l17.79-3.34,1.91,3.77V981.92h3V822.51l.15.29h0a15.8,15.8,0,0,0,11.49,7.58c4.83.85,9.5-1.67,12.82-4.91,6.35-7,15-11.15,23.85-14.19s18.14-4.52,27.39-6.15l27.68-5,57-10.7a13.93,13.93,0,0,0,4.21,11.66,13.28,13.28,0,0,0,3.66,2.5,8.76,8.76,0,0,0-.62,3.24,8.53,8.53,0,0,0,4,7.23l-3.17.72h0l-5.73,1.25,150.72,317.67v.74h0v21.42h0v.3h8.84v13.48h13.1V1638.1h-33.79v20h-15.14l-63.27,148h-20.29v8.37h71v-8.37H3926l19.39-45.33h67.18v45.33h-16.25v8.37h71v-8.37h-16.26v-45.33h64.6l19.39,45.33h-8.68v8.37h71v-8.37Zm-157.71-168,13.76-17,13.09,17Zm14.37,60.15A10.26,10.26,0,1,1,4042,1688a10.26,10.26,0,0,1-10.23,10.29h0Zm11.5,33.54a11.5,11.5,0,1,1-11.5-11.5,11.5,11.5,0,0,1,11.5,11.5Zm-11.5,33.83a13.49,13.49,0,1,1-13.49,13.49h0a13.5,13.5,0,0,1,13.47-13.53h0Zm16.29-127.52-15-19.36,25.27-31.12v50.48Zm-39.55-59.08,23.35-29.49,23.34,29.49Zm25.27-31.92,24.6-31.06v62.13Zm-25.27-39.75,23.35-29.49,23.34,29.49Zm46.69,7.78-23.34,29.49-23.35-29.49Zm-21.42-39.7,24.6-31.07v62.14Zm-25.27-39.7,23.35-29.49,23.34,29.49Zm46.7,7.78L4031.85,1473l-23.35-29.49Zm-21.43-39.7,24.6-31.07v62.14Zm-25.27-39.7,23.35-29.49,23.34,29.49Zm46.7,7.78-23.35,29.5-23.35-29.5Zm-21.43-39.69,24.6-31.07v62.14Zm-25.27-39.7,23.35-29.49,23.35,29.49Zm46.69,7.78-23.34,29.49-23.35-29.42Zm-21.42-39.7,24.6-31.07v62.14Zm21.43-31.92-23.35,29.49-23.35-29.49Zm-25.28,31.92-24.47,30.91V1229.7Zm0,71.62-24.47,30.91v-61.76Zm0,71.61-24.47,30.92v-61.83Zm0,71.62-24.47,30.92v-61.82Zm0,71.61L4005.45,1578v-61.81Zm-21.59-326.16,23.58-32.5,23.45,32.5Zm46.82,365.87-23.94,29.48-22.76-29.48Zm3.22-366.86-24.6-34.08,11.77-16.23h12.83Zm-59.18-161.49,1.33.27h-12.7l1.85-.27-4.61-31.52L4013.44,990Zm4.55.27,5.76-27.62,25.53,4.81-4.7,22.54,1.13.23Zm31.9-25.76-25.53-4.81,8.16-39.11,25.52,4.81Zm8.77-42-25.53-4.82.89-4.28,8.53-11.09,12.3,2.22a.67.67,0,0,0,0,.2,10.31,10.31,0,0,0,5.62,9.16ZM3828.26,773l-8.72-48.83,47.27,41.63Zm-3,.56-90.09,16.8-3.79-21.18,84.93-46ZM3732.17,791l-62.45,11.67,58.83-31.88Zm309.61,378.66-9.9,13.66-9.86-13.66Zm69.82-104.9a9.21,9.21,0,0,0,.13,1.39h-75.9v-7.45h-1l15.69-75.27h.29a10.27,10.27,0,0,0,4.67-1.12l58.93,76.1a8.35,8.35,0,0,0-2.77,6.35ZM3846.07,801.62a13.43,13.43,0,0,0,3.6-4.68,13.93,13.93,0,0,0-.29-12.41l9.28-1.74,140.15,169.64-31.54,28.8L3855.74,809.31l-2.7.57h0l-6.44,1.45a8.5,8.5,0,0,0-.5-9.66Zm130.27,324.88v4.88h0Zm42,43.13,11.71,16.23-24.6,33.92v-50.15Zm-12.89,418.21,23.81,30.85-15.75,19.4h-8.06Zm-7.83,159h-46.24l25.41-59.48h35.82v59.48Zm100.3,0h-46.78v-59.46h33.23l25.41,59.48Z"/><path class="cls-6" d="M3664.3,982h-8.45v28H3659v5.62h-1.1v3h.51l.06.41a11.37,11.37,0,0,0,.64,2,18.35,18.35,0,0,0,1.82,3.2c1.62,2.22,2.43,2.59,2.12,4.18a3.19,3.19,0,0,1-3.46,2.54c-1.74-.28-3-2.31-3.67-4.28.22,2,.77,4.52,3.19,5.71s5.5-.36,6.74-2.85a6,6,0,0,0,.4-4.33c-.58-1.61-1-2.21-1.37-3.16a12.82,12.82,0,0,1-.75-2.59,5.55,5.55,0,0,1-.06-.82h.7v-3h-1V1010h3.47V982h-2.94Z"/><path class="cls-7" d="M3392,2062.61l-404.44-6.35a88.1,88.1,0,0,1-86.71-89.44l15.51-1013.93a88.12,88.12,0,0,1,89.45-86.75h0l404.43,6.34A88.13,88.13,0,0,1,3497,961.93l-15.51,1013.93a88.11,88.11,0,0,1-89.45,86.75Z"/><path class="cls-1" d="M3407.23,908l-78.41-1.23c-10.52-.17-19.18,8.61-19.35,19.6l-.22,14.23c-.16,11-8.83,19.77-19.34,19.6l-152.85-2.4c-10.51-.16-18.9-9.21-18.73-20.2l.22-14.22c.16-11-8.23-20-18.74-20.21l-27.58-.43-68.63-1.08a61.71,61.71,0,0,0-62.66,60.75h0l-15.14,989.67a61.7,61.7,0,0,0,60.73,62.64l403.63,6.33a61.69,61.69,0,0,0,62.66-60.7v0L3468,970.62A61.7,61.7,0,0,0,3407.25,908Z"/><polygon class="cls-6" points="3412.58 1267.26 3401.44 1746.97 2985.34 1737.31 2999.2 1140.1 3291.34 1146.88 3412.58 1267.26"/><polygon class="cls-7" points="3412.58 1267.26 3288.61 1264.38 3291.34 1146.88 3412.58 1267.26"/><path class="cls-7" d="M3048.81,1310.72c25.86-.28,51.71-.1,77.56.15s51.69.88,77.54,1.3c25.84.77,51.68,1.35,77.51,2.29l38.75,1.51c12.92.65,25.83,1.16,38.74,2-12.93.19-25.86.1-38.79.16l-38.77-.3c-25.85-.26-51.69-.87-77.54-1.3-25.84-.78-51.68-1.35-77.52-2.31S3074.63,1312.21,3048.81,1310.72Z"/><path class="cls-7" d="M3048,1347.06c25.87-.29,51.72-.11,77.57.14s51.69.88,77.54,1.3c25.83.77,51.68,1.35,77.51,2.29l38.75,1.51c12.91.65,25.83,1.16,38.74,2-12.93.19-25.86.1-38.79.16l-38.78-.3c-25.85-.25-51.69-.87-77.53-1.3-25.84-.78-51.69-1.35-77.52-2.3S3073.78,1348.54,3048,1347.06Z"/><path class="cls-5" d="M3041.22,1637.7c25.86-.29,51.71-.11,77.56.15s51.69.87,77.54,1.29c25.84.77,51.68,1.36,77.51,2.3l38.75,1.5c12.92.66,25.83,1.17,38.74,2-12.93.19-25.86.1-38.79.15l-38.77-.29c-25.85-.26-51.69-.88-77.54-1.31-25.84-.78-51.68-1.35-77.52-2.3S3067,1639.19,3041.22,1637.7Z"/><path class="cls-5" d="M3040.37,1674c25.87-.29,51.72-.11,77.57.15s51.69.87,77.54,1.29c25.83.77,51.68,1.36,77.51,2.3l38.75,1.5c12.91.66,25.83,1.17,38.74,2-12.93.19-25.86.1-38.79.15l-38.78-.29c-25.85-.26-51.69-.88-77.53-1.31-25.84-.78-51.68-1.35-77.52-2.3S3066.19,1675.52,3040.37,1674Z"/><path class="cls-5" d="M3041.22,1792.14c25.86-.29,51.71-.11,77.56.15s51.69.87,77.54,1.29c25.84.77,51.68,1.35,77.51,2.3l38.75,1.5c12.92.66,25.83,1.17,38.74,2-12.93.18-25.86.09-38.79.15l-38.77-.3c-25.85-.25-51.69-.87-77.54-1.3-25.84-.78-51.68-1.35-77.52-2.3S3067,1793.63,3041.22,1792.14Z"/><path class="cls-5" d="M3040.37,1828.47c25.87-.29,51.72-.11,77.57.15s51.69.87,77.54,1.29c25.83.77,51.68,1.35,77.51,2.3l38.75,1.5c12.91.66,25.83,1.17,38.74,2-12.93.18-25.86.09-38.79.15l-38.78-.29c-25.85-.26-51.69-.88-77.53-1.31-25.84-.78-51.68-1.35-77.52-2.3S3066.19,1830,3040.37,1828.47Z"/><path class="cls-5" d="M3041.22,1860.89c25.86-.29,51.71-.11,77.56.15s51.69.88,77.54,1.29c25.84.77,51.68,1.36,77.51,2.3l38.75,1.5c12.92.66,25.83,1.17,38.74,2-12.93.19-25.86.1-38.79.15l-38.77-.29c-25.85-.26-51.69-.88-77.54-1.31-25.84-.78-51.68-1.35-77.52-2.3S3067,1862.38,3041.22,1860.89Z"/><path class="cls-5" d="M3040.37,1897.22c25.87-.29,51.72-.11,77.57.15s51.69.88,77.54,1.3c25.83.76,51.68,1.35,77.51,2.29l38.75,1.5c12.91.66,25.83,1.17,38.74,2-12.93.19-25.86.1-38.79.15l-38.78-.29c-25.85-.26-51.69-.88-77.53-1.31-25.84-.78-51.68-1.34-77.52-2.3S3066.19,1898.71,3040.37,1897.22Z"/><polygon class="cls-5" points="3312.43 1468.44 3215.91 1385.61 3142.18 1437.05 3152.24 1562.57 3309.01 1567.96 3312.43 1468.44"/><polygon class="cls-1" points="3175.74 1466.63 3139.37 1436.96 3101.05 1464.06 3097.73 1560.69 3172.41 1563.26 3175.74 1466.63"/><path class="cls-6" d="M3138.31,1467.89h0a17.76,17.76,0,0,1,17.13,18.35l-1.59,46.2-35.48-1.22L3120,1485a17.75,17.75,0,0,1,18.35-17.13Z"/><path class="cls-6" d="M3276,1488.38h0a17.76,17.76,0,0,1,17.13,18.36l-1.59,46.19-35.48-1.22,1.59-46.2a17.75,17.75,0,0,1,18.35-17.13Z"/><path class="cls-6" d="M3215.47,1413.6h0a17.74,17.74,0,0,1,17.13,18.33v0l-1,29.88-35.48-1.22,1-29.88A17.78,17.78,0,0,1,3215.47,1413.6Z"/><rect class="cls-7" x="3193.33" y="1468.31" width="19.42" height="211.44" transform="translate(1519.83 4721.06) rotate(-88.03)"/><rect class="cls-7" x="3088.69" y="1518.18" width="24.2" height="3.33" transform="translate(1475.25 4566.55) rotate(-88.03)"/><rect class="cls-7" x="3160.05" y="1520.64" width="24.2" height="3.33" transform="translate(1541.7 4640.25) rotate(-88.03)"/><rect class="cls-7" x="3094.64" y="1519.38" width="24.2" height="1.35" transform="translate(1480.79 4572.71) rotate(-88.03)"/><rect class="cls-7" x="3100.58" y="1519.58" width="24.2" height="1.35" transform="translate(1486.32 4578.83) rotate(-88.03)"/><rect class="cls-7" x="3093.88" y="1510.53" width="24.21" height="1.35" transform="translate(1502.32 4570.48) rotate(-88.28)"/><rect class="cls-7" x="3112.48" y="1520" width="24.2" height="1.35" transform="translate(1497.39 4591.13) rotate(-88.03)"/><rect class="cls-7" x="3135.99" y="1497.4" width="1.35" height="70.21" transform="translate(1497.24 4614.64) rotate(-88.03)"/><rect class="cls-7" x="3136.78" y="1474.57" width="1.35" height="70.21" transform="translate(1520.82 4593.38) rotate(-88.03)"/><rect class="cls-7" x="3118.43" y="1520.2" width="24.2" height="1.35" transform="translate(1502.93 4597.28) rotate(-88.03)"/><rect class="cls-7" x="3111.63" y="1511.14" width="24.21" height="1.35" transform="translate(1518.94 4588.81) rotate(-88.28)"/><rect class="cls-7" x="3117.55" y="1511.34" width="24.21" height="1.35" transform="translate(1524.47 4594.93) rotate(-88.28)"/><rect class="cls-7" x="3136.26" y="1520.81" width="24.2" height="1.35" transform="translate(1519.54 4615.69) rotate(-88.03)"/><rect class="cls-7" x="3142.21" y="1521.01" width="24.2" height="1.35" transform="translate(1525.08 4621.82) rotate(-88.03)"/><rect class="cls-7" x="3148.15" y="1521.23" width="24.2" height="1.35" transform="translate(1530.61 4627.97) rotate(-88.03)"/><rect class="cls-7" x="3154.1" y="1521.43" width="24.2" height="1.35" transform="translate(1536.15 4634.1) rotate(-88.03)"/><rect class="cls-1" x="3168.03" y="1522.63" width="86.15" height="36.55" transform="translate(1560.72 4697.14) rotate(-88.03)"/><circle class="cls-8" cx="3223.7" cy="1542.17" r="2.76"/><polygon class="cls-7" points="3179.6 1471.98 3139.3 1439.09 3096.83 1469.13 3094.87 1466.35 3139.45 1434.82 3181.75 1469.34 3179.6 1471.98"/><polygon class="cls-7" points="3320.66 1475.5 3215.91 1385.61 3140.34 1438.35 3138.4 1435.56 3216.13 1381.31 3322.87 1472.92 3320.66 1475.5"/><path class="cls-1" d="M3085.51,1557.55c7.65-5,9.68-14.61,9.69-23.33,0-1.46.21-3-.44-4.29a3,3,0,0,0-3.56-1.66c-1.09.47-1.61,1.72-2.25,2.73a8.51,8.51,0,0,1-3.52,3.15,3.25,3.25,0,0,1-3,.16c-1.23-.73-1.32-2.47-1.26-3.92l.33-8.09a13.58,13.58,0,0,0-.29-4.31,4.45,4.45,0,0,0-2.72-3.13,2.72,2.72,0,0,0-3.43,1.71,13.58,13.58,0,0,0-.1,1.8,1.51,1.51,0,0,1-.94,1.4,1.76,1.76,0,0,1-1.57-.72,19.37,19.37,0,0,1-3.27-5.33,26.92,26.92,0,0,0-3-5.5,7.83,7.83,0,0,0-5.2-3.15,4.66,4.66,0,0,0-4.91,3c-.6,2,.52,4.13,1.76,5.83a32.73,32.73,0,0,0,6.5,6.64,2.65,2.65,0,0,1,1.09,1.25c.28,1-.67,1.9-1.63,2.18a16.05,16.05,0,0,1-3.39.27,3.27,3.27,0,0,0-2.84,1.6c-.64,1.46.54,3,1.72,4.11a27.83,27.83,0,0,0,8,5,9.19,9.19,0,0,1,3,1.58,2.67,2.67,0,0,1,.76,3.1,2.76,2.76,0,0,1-3,1,18.74,18.74,0,0,1-3.13-1.33c-2-.82-4.54-.77-5.87.91a4.59,4.59,0,0,0-.63,4,10.76,10.76,0,0,0,2.07,3.65,27.8,27.8,0,0,0,11.6,8.76c4.55,1.76,8.81,2.34,13.46.82"/><path class="cls-1" d="M3058.19,1506.19l.13.14.42.4c.37.34.91.86,1.59,1.54a53.69,53.69,0,0,1,5.32,6.15c1,1.38,2.1,2.94,3.21,4.63s2.29,3.51,3.46,5.47a65.63,65.63,0,0,1,3.35,6.31c.52,1.12,1,2.3,1.45,3.5l1.41,3.64a132.29,132.29,0,0,1,4.68,14.1,65.1,65.1,0,0,1,2,12,46.45,46.45,0,0,1-.15,8.17c-.1,1-.2,1.71-.29,2.21a2.62,2.62,0,0,1-.09.58c0,.15,0,.19,0,.19s-1.24,8.7.05-.19a5.43,5.43,0,0,1,.11-.57c.11-.5.22-1.24.35-2.2a46,46,0,0,0,.23-8.21,63.45,63.45,0,0,0-2-12,129.91,129.91,0,0,0-4.66-14.14l-1.42-3.64c-.46-1.2-.93-2.38-1.45-3.51a66.22,66.22,0,0,0-3.38-6.33c-1.18-2-2.36-3.77-3.48-5.46s-2.21-3.25-3.25-4.62a52.3,52.3,0,0,0-5.4-6.12c-.69-.67-1.25-1.17-1.63-1.5l-.43-.38Z"/><path class="cls-1" d="M3075.83,1530.71a2.72,2.72,0,0,0,.17-.62c.09-.39.2-1,.32-1.69.26-1.43.54-3.43.85-5.62s.61-4.18.89-5.61c.13-.71.25-1.29.33-1.69a2.59,2.59,0,0,0,.1-.62,4.69,4.69,0,0,0-.2.6c-.11.39-.26,1-.42,1.67-.32,1.42-.66,3.41-1,5.61s-.56,4.13-.76,5.63c-.1.68-.18,1.25-.25,1.7C3075.84,1530.28,3075.83,1530.5,3075.83,1530.71Z"/><path class="cls-1" d="M3057.35,1526.59a3.67,3.67,0,0,0,.74.11c.47.06,1.16.14,2,.27,1.7.24,4,.66,6.59,1.23s4.84,1.2,6.48,1.7c.83.24,1.49.46,1.94.6a4.89,4.89,0,0,0,.72.21,3.22,3.22,0,0,0-.68-.31c-.45-.17-1.1-.42-1.92-.68-1.63-.55-3.92-1.2-6.49-1.78a56.1,56.1,0,0,0-6.61-1.16c-.86-.1-1.55-.16-2-.18A3.31,3.31,0,0,0,3057.35,1526.59Z"/><path class="cls-1" d="M3083.23,1551.66a1,1,0,0,0,.13-.22c.09-.18.21-.4.34-.67.3-.57.7-1.42,1.19-2.47,1-2.1,2.22-5,3.55-8.31s2.56-6.22,3.48-8.34l1.11-2.5c.12-.27.21-.5.29-.68a1.06,1.06,0,0,0,.09-.25,1,1,0,0,0-.13.22l-.35.66c-.29.58-.69,1.42-1.18,2.48-1,2.1-2.22,5-3.55,8.31s-2.56,6.21-3.49,8.33l-1.1,2.51-.3.68A.73.73,0,0,0,3083.23,1551.66Z"/><path class="cls-1" d="M3058.78,1542.84a.66.66,0,0,0,.24.11l.71.26,2.62,1c2.21.81,5.25,2,8.61,3.21s6.41,2.39,8.64,3.14c1.11.38,2,.68,2.64.87l.73.22a.58.58,0,0,0,.26.06.8.8,0,0,0-.25-.11l-.7-.27-2.62-1c-2.21-.8-5.25-1.94-8.61-3.21s-6.41-2.38-8.64-3.14c-1.11-.38-2-.67-2.65-.86l-.72-.22A1.1,1.1,0,0,0,3058.78,1542.84Z"/><path class="cls-1" d="M3321.81,1565.68c-7.3-5.48-8.66-15.24-8.07-23.94.1-1.46,0-3,.73-4.25a3,3,0,0,1,3.66-1.41c1.07.55,1.5,1.82,2.06,2.88a8.71,8.71,0,0,0,3.3,3.38,3.24,3.24,0,0,0,3,.37c1.28-.65,1.49-2.38,1.53-3.83.07-2.7.15-5.39.23-8.09a13.49,13.49,0,0,1,.58-4.28,4.51,4.51,0,0,1,2.93-2.94,2.72,2.72,0,0,1,3.3,1.94,13.52,13.52,0,0,1,0,1.8,1.53,1.53,0,0,0,.84,1.47,1.76,1.76,0,0,0,1.62-.61,19.11,19.11,0,0,0,3.63-5.1,27.14,27.14,0,0,1,3.41-5.27,7.81,7.81,0,0,1,5.4-2.79,4.67,4.67,0,0,1,4.69,3.36c.46,2.06-.8,4.09-2.15,5.69a32.2,32.2,0,0,1-6.95,6.18,2.75,2.75,0,0,0-1.17,1.17,2,2,0,0,0,1.48,2.3,16.61,16.61,0,0,0,3.36.49,3.29,3.29,0,0,1,2.72,1.8c.54,1.5-.75,3-2,4a27.29,27.29,0,0,1-8.35,4.44,9.45,9.45,0,0,0-3.09,1.38,2.68,2.68,0,0,0-1,3,2.75,2.75,0,0,0,2.93,1.25,18.57,18.57,0,0,0,3.22-1.11c2-.68,4.57-.45,5.79,1.31a4.55,4.55,0,0,1,.35,4.06,10.49,10.49,0,0,1-2.32,3.51,28.06,28.06,0,0,1-12.17,7.94c-4.67,1.44-9,1.72-13.48-.11"/><path class="cls-1" d="M3352.59,1516.31l-.14.14-.45.36c-.39.33-1,.8-1.69,1.43a54.86,54.86,0,0,0-5.73,5.78c-1.12,1.3-2.29,2.78-3.52,4.39s-2.53,3.35-3.82,5.23a65.36,65.36,0,0,0-3.79,6.06c-.59,1.08-1.13,2.22-1.68,3.39l-1.66,3.53a134.45,134.45,0,0,0-5.63,13.75,64.46,64.46,0,0,0-2.82,11.79,47.51,47.51,0,0,0-.42,8.17,19.72,19.72,0,0,0,.14,2.22v.78s.64,8.76,0-.2a1.89,1.89,0,0,0-.07-.57c-.07-.51-.13-1.26-.19-2.23a44.88,44.88,0,0,1,.33-8.19,63.38,63.38,0,0,1,2.78-11.85,128.76,128.76,0,0,1,5.62-13.78l1.66-3.54c.55-1.16,1.09-2.31,1.7-3.4a67.23,67.23,0,0,1,3.81-6.08c1.3-1.87,2.61-3.6,3.84-5.21s2.42-3.09,3.56-4.39a50.71,50.71,0,0,1,5.81-5.73c.73-.62,1.32-1.08,1.72-1.39l.46-.35Z"/><path class="cls-1" d="M3333.3,1539.56a3.24,3.24,0,0,1-.12-.62c-.06-.4-.13-1-.21-1.71-.15-1.45-.3-3.46-.45-5.67s-.33-4.21-.5-5.65c-.09-.72-.17-1.31-.22-1.71a2.25,2.25,0,0,1-.06-.63,4.21,4.21,0,0,1,.16.61c.09.4.19,1,.3,1.7.23,1.44.43,3.45.58,5.66s.28,4.16.38,5.67c.05.68.09,1.26.12,1.72A2.66,2.66,0,0,1,3333.3,1539.56Z"/><path class="cls-1" d="M3352,1536.73a4.74,4.74,0,0,1-.75.06c-.48,0-1.17.06-2,.13-1.71.12-4.06.38-6.65.78s-4.91.86-6.59,1.24l-2,.47a4.5,4.5,0,0,1-.73.15,3.75,3.75,0,0,1,.71-.25c.46-.15,1.12-.34,2-.55a66.84,66.84,0,0,1,6.59-1.33,64.9,64.9,0,0,1,6.68-.7h2A4.57,4.57,0,0,1,3352,1536.73Z"/><path class="cls-1" d="M3324.49,1560a1,1,0,0,1-.12-.23l-.3-.69c-.25-.59-.6-1.46-1-2.55-.82-2.16-1.87-5.18-3-8.53s-2.13-6.38-2.9-8.56c-.39-1-.7-1.93-.93-2.57-.1-.28-.19-.51-.25-.7a.77.77,0,0,1-.07-.26,1.34,1.34,0,0,1,.12.24c.08.18.17.41.29.68.26.59.6,1.46,1,2.55.83,2.16,1.87,5.18,3,8.53s2.12,6.38,2.9,8.56c.38,1.06.69,1.93.93,2.57l.25.71A1,1,0,0,1,3324.49,1560Z"/><path class="cls-1" d="M3349.48,1552.84a1.06,1.06,0,0,1-.25.09l-.72.22-2.68.77c-2.26.64-5.37,1.57-8.81,2.61s-6.56,1.93-8.83,2.54c-1.14.3-2.06.53-2.7.68l-.74.17h-.26a.58.58,0,0,0,.25-.1l.72-.21,2.68-.77c2.26-.65,5.37-1.58,8.81-2.61s6.56-1.94,8.83-2.54c1.14-.3,2.06-.53,2.7-.68l.74-.17Z"/><rect class="cls-7" x="3073.03" y="1067.85" width="293.94" height="14.78" rx="4.37"/><rect class="cls-5" x="3137.08" y="1096.57" width="165.84" height="14.78" rx="4.37"/><path class="cls-1" d="M434.14,1799.69l-28.29-484.25s501.63-605,857.5-339.66,376.93,655.28,376.93,655.28Z"/><path class="cls-2" d="M1329.15,1512.69H1077.43a21.89,21.89,0,0,1,0-43.78h251.72a21.89,21.89,0,0,1,0,43.78Z"/><rect class="cls-2" x="1279.44" y="819.83" width="8.75" height="659.25" transform="translate(-119.26 149.04) rotate(-6.35)"/><rect class="cls-2" x="800.12" y="1145.04" width="659.25" height="8.75" transform="translate(-137.4 2145.32) rotate(-83.66)"/><path class="cls-2" d="M1093.22,1476.94a4.38,4.38,0,0,1-1.76-8.39l207.93-91L1113.78,1277.4a4.38,4.38,0,0,1,2-8.23L1280,1265.4l-155.85-80.21a4.37,4.37,0,0,1-.1-7.73l145.15-79.67-127.46-72a4.38,4.38,0,0,1,0-7.63l112.08-62.78-97.54-62.27a4.38,4.38,0,0,1,4.46-7.54l.25.16,103.71,66.21a4.38,4.38,0,0,1,1.33,6,4.34,4.34,0,0,1-1.55,1.46L1152.81,1022,1280.33,1094a4.38,4.38,0,0,1,0,7.65l-144.83,79.49,163.82,84.3a4.38,4.38,0,0,1-1.9,8.27l-164.9,3.8,179,96.56a4.37,4.37,0,0,1-.32,7.86l-216.2,94.6A4.37,4.37,0,0,1,1093.22,1476.94Z"/><path class="cls-2" d="M1320.39,1476.94a4.23,4.23,0,0,1-1.75-.37L1102.48,1382a4.37,4.37,0,0,1-2.25-5.77,4.43,4.43,0,0,1,1.92-2.09l179-96.56-164.9-3.8a4.38,4.38,0,0,1-1.9-8.27l163.83-84.3-144.83-79.49a4.38,4.38,0,0,1,0-7.65L1260.88,1022,1149.2,959.49A4.39,4.39,0,0,1,1149,952l103.71-66.21a4.38,4.38,0,0,1,4.71,7.38l-97.63,62.23,112.09,62.77a4.37,4.37,0,0,1,1.68,5.95,4.31,4.31,0,0,1-1.68,1.68l-127.46,72,145.16,79.67a4.38,4.38,0,0,1-.1,7.73l-155.85,80.21,164.22,3.77a4.38,4.38,0,0,1,2,8.23l-185.62,100.15,207.94,91a4.38,4.38,0,0,1-1.76,8.39Z"/><path class="cls-2" d="M1158.64,960.05a4.38,4.38,0,0,1-2.36-8.07L1260,885.77a4.38,4.38,0,0,1,4.71,7.38L1161,959.38A4.31,4.31,0,0,1,1158.64,960.05Z"/><path class="cls-2" d="M1206.57,834.38c-90.72,0-164.53-73.81-164.53-164.53s73.81-164.53,164.53-164.53S1371.1,579.08,1371.1,669.8,1297.29,834.38,1206.57,834.38Zm0-320.3c-85.89,0-155.77,69.88-155.77,155.77s69.88,155.77,155.77,155.77,155.77-69.88,155.77-155.77S1292.46,514,1206.57,514Z"/><circle class="cls-2" cx="1206.57" cy="669.8" r="36.85"/><path class="cls-2" d="M1423,584.61,1206.6,669.8h232.57A232.37,232.37,0,0,0,1423,584.61Z"/><path class="cls-2" d="M974.52,685.21l232-15.41L996.29,769.15A232.47,232.47,0,0,1,974.52,685.21Z"/><path class="cls-2" d="M1424.91,764.47l-213.26-92.78L1376.1,836.14A232.5,232.5,0,0,0,1424.91,764.47Z"/><path class="cls-2" d="M1036.67,518.5l175,153.19-219-78.44A232.64,232.64,0,0,1,1036.67,518.5Z"/><path class="cls-2" d="M1263.91,905.48l-49.62-227.21-37.06,229.59A232.53,232.53,0,0,0,1263.91,905.48Z"/><path class="cls-2" d="M1236.06,446.72l-21.77,231.55-64.56-223.43A232.86,232.86,0,0,1,1236.06,446.72Z"/><path class="cls-2" d="M1086,878.73,1211.62,683,1023.06,819.12A232.58,232.58,0,0,0,1086,878.73Z"/><path class="cls-2" d="M1390.73,534.64,1211.62,683,1324,479.38A232.6,232.6,0,0,1,1390.73,534.64Z"/><path class="cls-3" d="M0,1545.17V1138.85s133.54-240.47,357.47-136.63S637.31,1316,637.31,1316Z"/><path class="cls-2" d="M0,1463.56c8.22-44.63,367.8-357.69,790-219.65s422.9,167.3,576.62,146.51,210.08,136.19,395.65,93.87S2133,1319.6,2187.82,1315.73s-37.34,181.78-58.54,220.2-56.36,99.79-56.36,99.79L1929,1778.38,0,1799.69Z"/><path class="cls-1" d="M2042.69,1568.17c78.83,65.32,226.37,29.7,208.35-69.61s19.14-161.26,70.95-195,83.34-110.37-5.63-196,33.79-236.51-4.51-323.23-289.44-152-305.2-5.63,23.65,174.56,0,210.6-198.22-5.63-223,104.74,57.43,200.47,0,288.31S2042.69,1568.17,2042.69,1568.17Z"/><path class="cls-3" d="M2001.58,1449.38c51.24,11.82,76.58-28.72,73.77-85.6s61.94-65.32,63.63-135.14-63.07-63.64-29.28-144.16,27.59-157.67-65.89-179.07-183.57,53.5-140.77,149.22,3.94,169.5-52.94,208.92,1.69,209.48,132.9,162.74Z"/><path class="cls-3" d="M1864.46,1754.56c42.24,7.6,58.71-37.59,55.75-61.66s38.86-18.16,11.83-53.21-21.12-75.18-19.43-98.83-55.75-68-110.65-22.81-39.7,107.28-36.75,116.15-29.56,16.47-23.22,46.45,45.19,13.52,46,22.81,3.8,55.32,44.77,50.26S1864.46,1754.56,1864.46,1754.56Z"/><path class="cls-5" d="M1810.69,2434.8c-10.27,4.64,150.35,0,167.24,0S1916,2403.26,1932,2267.27s33.78-160.48-25.34-279.58,16.89-186.67,78.55-234.82,162.18-147,179.07-380.1c0,0-31.68,109-45.19,155s-37.59,83-41,82.78-4.5-39-32.09-83.49-55.19-98.54-33.79-223.55c0,0-17.74,104.32-16.89,125s-52.8-108.54-52.8-108.54,28.3,89.11,41.39,128,50.68,107.27,62.93,150.77-21.26,71-59.41,104.32-82.78,87.28-105.86,66.16-28.72-130.64-28.72-130.64-3.1,87.56-1.41,119.66-9.85,74.61-36.88,163,54.62,115.44,54.62,235.38S1869.25,2408.38,1810.69,2434.8Z"/><path class="cls-9" d="M1593.71,1791a2.5,2.5,0,0,1-1.47-.47,29.91,29.91,0,0,1-6.6-6.4,2.54,2.54,0,0,1,4.06-3,24.27,24.27,0,0,0,5.49,5.31,2.54,2.54,0,0,1-1.48,4.6Z"/><path class="cls-9" d="M1626,1799.38h-.07a88.89,88.89,0,0,1-17.28-2,2.53,2.53,0,0,1,1.11-4.94,85.06,85.06,0,0,0,16.3,1.83,2.53,2.53,0,1,1-.06,5.06h0Zm16.89-.59a2.53,2.53,0,0,1-.21-5.06h0c5.17-.45,10.76-1.14,16.62-2.07a2.54,2.54,0,1,1,1.21,4.93,2,2,0,0,1-.42.07c-6,.94-11.69,1.65-17,2.11Zm33.46-5.19a2.53,2.53,0,0,1-.52-5c5.23-1.1,10.75-2.38,16.41-3.79a2.53,2.53,0,1,1,1.23,4.91c-5.72,1.44-11.3,2.73-16.6,3.84a2.24,2.24,0,0,1-.51.07Zm32.86-8.17a2.54,2.54,0,0,1-.68-5c5.2-1.46,10.64-3.07,16.18-4.77a2.53,2.53,0,0,1,1.5,4.84c-5.59,1.72-11.07,3.34-16.31,4.81a2.31,2.31,0,0,1-.68.15Zm32.38-10a2.53,2.53,0,0,1-.79-4.94c5.2-1.72,10.58-3.54,16-5.43a2.53,2.53,0,1,1,1.67,4.78h0c-5.44,1.9-10.85,3.74-16.07,5.46a2.48,2.48,0,0,1-.8.16Zm32-11.15a2.53,2.53,0,0,1-.87-4.91q7.86-2.88,15.83-5.91a2.54,2.54,0,0,1,1.81,4.74q-8,3-15.9,5.93a2.62,2.62,0,0,1-.87.2Zm31.66-12a2.53,2.53,0,0,1-.93-4.89q7.82-3.07,15.7-6.28a2.54,2.54,0,0,1,1.91,4.7q-7.9,3.2-15.75,6.29a2.5,2.5,0,0,1-.93.23Zm31.39-12.73a2.53,2.53,0,0,1-1-4.87q7.78-3.24,15.57-6.57a2.54,2.54,0,1,1,2,4.66q-7.8,3.33-15.61,6.59a2.42,2.42,0,0,1-1,.19Zm31.14-13.29a2.53,2.53,0,0,1-1-4.85q7.77-3.39,15.51-6.84a2.53,2.53,0,1,1,2.06,4.63q-7.74,3.45-15.54,6.85A2.29,2.29,0,0,1,1867.78,1726.31Zm31-13.78a2.54,2.54,0,0,1-1-4.85q7.74-3.51,15.39-7a2.54,2.54,0,0,1,2.12,4.61q-7.65,3.53-15.41,7a2.52,2.52,0,0,1-1.12.19Zm30.76-14.2a2.53,2.53,0,0,1-1.08-4.82q7.72-3.63,15.3-7.24a2.54,2.54,0,1,1,2.43,4.46,1.15,1.15,0,0,1-.25.12q-7.59,3.62-15.33,7.25a2.45,2.45,0,0,1-1.09.28Zm30.58-14.57A2.53,2.53,0,0,1,1959,1679q7.73-3.73,15.22-7.42a2.53,2.53,0,0,1,2.23,4.55h0q-7.5,3.69-15.24,7.43a2.55,2.55,0,0,1-1.12.25Zm30.41-14.92a2.54,2.54,0,0,1-1.13-4.81c5.15-2.56,10.2-5.1,15.12-7.58a2.53,2.53,0,1,1,2.29,4.52q-7.39,3.73-15.15,7.6a2.56,2.56,0,0,1-1.15.27Zm30.24-15.28a2.53,2.53,0,0,1-1.16-4.79q7.79-4,15-7.78a2.54,2.54,0,1,1,2.59,4.37l-.25.13q-7.26,3.78-15.07,7.79a2.49,2.49,0,0,1-1.13.28Zm30.05-15.67a2.53,2.53,0,0,1-1.19-4.77c2.07-1.09,4.09-2.16,6.07-3.23,2.66-1.42,5.65-3,8.93-4.72a2.54,2.54,0,0,1,2.36,4.49q-4.92,2.58-8.9,4.7l-6.08,3.24a2.43,2.43,0,0,1-1.21.29Zm30-15.82a2.53,2.53,0,0,1-1.17-4.78l.16-.08,14.88-7.78a2.53,2.53,0,0,1,2.35,4.49h0l-14.89,7.78-.15.08a2.62,2.62,0,0,1-1.16.29Zm30.07-15.75a2.53,2.53,0,0,1-1.18-4.77l15-7.92a2.53,2.53,0,0,1,2.44,4.44l-.07,0q-7.78,4.14-15,7.93a2.5,2.5,0,0,1-1.17.29Zm30-15.89a2.53,2.53,0,0,1-1.2-4.77q7.28-3.89,14.92-8a2.53,2.53,0,0,1,2.41,4.46q-7.65,4.14-14.94,8a2.56,2.56,0,0,1-1.21.31Zm29.82-16.12a2.53,2.53,0,0,1-1.21-4.75c4.85-2.66,9.81-5.37,14.84-8.15a2.54,2.54,0,0,1,2.45,4.44q-7.56,4.17-14.86,8.15a2.56,2.56,0,0,1-1.24.31Zm316.82-4.74h0c-5.67,0-11.37-.1-16.94-.21a2.54,2.54,0,0,1,0-5.07h0c5.55.11,11.22.18,16.87.21a2.54,2.54,0,0,1,0,5.07Zm16.9,0a2.54,2.54,0,0,1,0-5.07q8.42-.06,16.85-.24a2.54,2.54,0,1,1,.41,5.06,1.51,1.51,0,0,1-.3,0q-8.47.18-16.92.24Zm-50.67-.63h-.09c-5.59-.19-11.29-.41-16.94-.68a2.53,2.53,0,0,1,.24-5.06c5.62.26,11.3.49,16.87.67a2.54,2.54,0,0,1-.08,5.07Zm84.44-.08a2.53,2.53,0,0,1-.09-5.06h0q8.41-.3,16.85-.69a2.53,2.53,0,1,1,.24,5.06q-8.46.4-16.91.69Zm-118.26-1.48h-.15c-5.6-.34-11.29-.73-16.92-1.16a2.53,2.53,0,0,1-.3-5,2.57,2.57,0,0,1,.68,0c5.61.42,11.27.81,16.84,1.15a2.54,2.54,0,0,1-.15,5.07Zm152-.09a2.53,2.53,0,1,1-.15-5.06q8.4-.51,16.83-1.13a2.54,2.54,0,0,1,.37,5.06q-8.46.61-16.9,1.13Zm33.71-2.47a2.54,2.54,0,0,1-.22-5.06q8.4-.72,16.8-1.55a2.53,2.53,0,1,1,1.09,4.94,2.32,2.32,0,0,1-.59.06q-8.43.84-16.86,1.56Zm-219.44,0H2386c-5.66-.51-11.34-1.07-16.87-1.66a2.53,2.53,0,1,1,0-5.06,2.76,2.76,0,0,1,.57.06c5.51.58,11.17,1.13,16.8,1.65a2.53,2.53,0,0,1-.23,5Zm253.08-3.32a2.53,2.53,0,0,1-.28-5q8.38-.95,16.76-2a2.53,2.53,0,1,1,1.08,4.94,1.74,1.74,0,0,1-.45.06l-16.82,2Zm-286.73-.24h-.31c-5.57-.67-11.23-1.41-16.81-2.17a2.53,2.53,0,1,1,.34-5l.35,0c5.56.76,11.19,1.49,16.74,2.16a2.53,2.53,0,0,1-.31,5ZM2200.38,1558a2.54,2.54,0,0,1-1.24-4.75q7.29-4.05,14.76-8.28a2.54,2.54,0,1,1,2.72,4.29,1.71,1.71,0,0,1-.23.13q-7.48,4.21-14.78,8.29a2.52,2.52,0,0,1-1.24.26Zm472.47-.69a2.54,2.54,0,0,1-.34-5q8.35-1.14,16.71-2.41a2.54,2.54,0,0,1,.75,5q-8.37,1.26-16.77,2.42Zm-353.81-.66h-.39c-5.61-.86-11.24-1.78-16.74-2.71a2.54,2.54,0,0,1,.85-5c5.47.93,11.08,1.84,16.66,2.7a2.53,2.53,0,0,1-.38,5Zm387.26-4.39a2.53,2.53,0,0,1-.4-5q8.32-1.37,16.64-2.84a2.54,2.54,0,1,1,.89,5q-8.35,1.49-16.71,2.85ZM2285.69,1551a1.85,1.85,0,0,1-.47,0c-5.54-1-11.13-2.14-16.65-3.28a2.55,2.55,0,0,1,1-5h0c5.48,1.13,11,2.23,16.55,3.26a2.53,2.53,0,0,1-.46,5Zm453.94-4.59a2.53,2.53,0,0,1-.47-5q8.3-1.58,16.57-3.26a2.55,2.55,0,0,1,1,5q-8.31,1.7-16.64,3.28a2.43,2.43,0,0,1-.47-.08Zm-487.08-2.23a2.1,2.1,0,0,1-.56-.07c-5.55-1.24-11.11-2.55-16.52-3.87a2.54,2.54,0,0,1-1.37-.87l-3,1.7a2.53,2.53,0,1,1-2.51-4.4h0q7.26-4.15,14.67-8.44a2.54,2.54,0,0,1,2.54,4.39l-6,3.46c4.37,1.06,8.82,2.09,13.26,3.09a2.54,2.54,0,0,1-.55,5Zm520.24-4.52a2.53,2.53,0,0,1-.53-5q8.26-1.8,16.49-3.7a2.53,2.53,0,0,1,1.14,4.94h0q-8.26,1.9-16.55,3.71a2.62,2.62,0,0,1-.56,0Zm-553.11-3.51a2.37,2.37,0,0,1-.65-.09c-5.45-1.44-11-3-16.36-4.49a2.54,2.54,0,0,1,1.39-4.88c5.38,1.54,10.85,3,16.26,4.47a2.54,2.54,0,0,1-.64,5Zm586.11-4.11a2.53,2.53,0,0,1-.6-5q8.2-2,16.39-4.13a2.53,2.53,0,0,1,1.27,4.9h0q-8.22,2.13-16.46,4.15a2.49,2.49,0,0,1-.61,0Zm-618.65-5.18a2.34,2.34,0,0,1-.74-.12c-5.46-1.68-10.9-3.41-16.17-5.15a2.53,2.53,0,1,1,1.59-4.81c5.23,1.73,10.64,3.45,16.07,5.12a2.54,2.54,0,0,1-.75,5Zm72.07-2.41a2.54,2.54,0,0,1-1.28-4.73q7.25-4.23,14.58-8.59a2.54,2.54,0,0,1,2.85,4.21,1.74,1.74,0,0,1-.26.15q-7.35,4.36-14.61,8.61a2.53,2.53,0,0,1-1.29.33Zm579.36-.9a2.53,2.53,0,0,1-.66-5c5.37-1.47,10.85-3,16.27-4.56a2.53,2.53,0,0,1,1.4,4.87c-5.44,1.56-10.94,3.11-16.34,4.58a2.21,2.21,0,0,1-.68,0ZM2155,1516.13a2.45,2.45,0,0,1-.85-.15c-5.33-1.89-10.69-3.86-15.93-5.85a2.54,2.54,0,0,1,1.8-4.74c5.2,2,10.53,3.93,15.83,5.81a2.54,2.54,0,0,1-.85,4.93Zm716.11-2.06a2.53,2.53,0,0,1-.73-5c5.4-1.64,10.83-3.33,16.14-5a2.53,2.53,0,0,1,1.54,4.83c-5.33,1.7-10.78,3.4-16.22,5a2.52,2.52,0,0,1-.72.17Zm-582.78-7a2.53,2.53,0,0,1-1.31-4.7q7.2-4.33,14.48-8.76a2.53,2.53,0,0,1,2.64,4.32q-7.29,4.44-14.51,8.78a2.44,2.44,0,0,1-1.29.34Zm-165-3a2.47,2.47,0,0,1-1-.19c-5.23-2.13-10.49-4.34-15.64-6.59a2.54,2.54,0,1,1,1.61-4.82,3.29,3.29,0,0,1,.39.17c5.11,2.23,10.33,4.44,15.53,6.55a2.53,2.53,0,0,1-1,4.88Zm780-.3a2.54,2.54,0,0,1-.8-4.94c5.33-1.77,10.71-3.61,16-5.46a2.53,2.53,0,0,1,1.67,4.78c-5.31,1.86-10.71,3.71-16.07,5.49a2.2,2.2,0,0,1-.72.15Zm32-11.19a2.53,2.53,0,0,1-.87-4.91c5.31-1.94,10.64-3.94,15.84-5.93a2.53,2.53,0,0,1,1.81,4.73c-5.22,2-10.57,4-15.91,6a2.44,2.44,0,0,1-.8.13Zm-843-2a2.46,2.46,0,0,1-1.07-.24c-5.1-2.38-10.25-4.87-15.29-7.38a2.54,2.54,0,1,1,2-4.67l.26.13c5,2.5,10.11,5,15.17,7.32a2.54,2.54,0,0,1-1.07,4.84Zm224.88-1.15a2.53,2.53,0,0,1-1.33-4.69q7.15-4.42,14.36-8.94a2.53,2.53,0,0,1,2.69,4.29q-7.21,4.53-14.39,9a2.46,2.46,0,0,1-1.28.29Zm649.8-8.94a2.54,2.54,0,0,1-.94-4.89c5.19-2.08,10.45-4.23,15.65-6.41a2.54,2.54,0,0,1,2,4.68c-5.22,2.18-10.51,4.35-15.73,6.44a2.47,2.47,0,0,1-.93.17Zm-904.94-5a2.34,2.34,0,0,1-1.19-.3c-5-2.66-10-5.42-14.87-8.21a2.53,2.53,0,0,1,2.51-4.4h0c4.84,2.76,9.8,5.5,14.74,8.14a2.53,2.53,0,0,1-1.19,4.77Zm283.83-4a2.53,2.53,0,0,1-1.37-4.67q7.11-4.53,14.23-9.15a2.54,2.54,0,0,1,2.76,4.26q-7.14,4.62-14.26,9.16a2.41,2.41,0,0,1-1.26.29Zm652.39-4a2.54,2.54,0,0,1-1-4.86c5.19-2.27,10.39-4.59,15.45-6.89a2.53,2.53,0,0,1,2.1,4.61c-5.08,2.32-10.3,4.65-15.52,6.93a2.51,2.51,0,0,1-1,.1Zm-965.59-8.73a2.55,2.55,0,0,1-1.32-.37c-4.86-3-9.68-6-14.35-9.09a2.53,2.53,0,0,1,2.77-4.24c4.63,3,9.41,6.06,14.23,9a2.53,2.53,0,0,1,.84,3.48,2.5,2.5,0,0,1-2.17,1.21Zm996.45-5.34a2.53,2.53,0,0,1-1.09-4.82c5.11-2.44,10.23-4.92,15.22-7.4a2.53,2.53,0,0,1,2.25,4.54h0c-5,2.49-10.16,5-15.29,7.43a2.31,2.31,0,0,1-1,.15Zm-654.83-.33a2.53,2.53,0,0,1-1.32-4.71q7-4.62,14-9.33a2.53,2.53,0,0,1,2.82,4.21q-7,4.71-14.08,9.36a2.54,2.54,0,0,1-1.37.37Zm-369.9-12.88a2.5,2.5,0,0,1-1.45-.46c-4.66-3.27-9.28-6.64-13.74-10a2.53,2.53,0,1,1,2.38-4.46,2.56,2.56,0,0,1,.62.46c4.42,3.33,9,6.67,13.6,9.91a2.53,2.53,0,0,1-1.46,4.6Zm1055.11-1.88a2.53,2.53,0,0,1-1.17-4.78c5-2.62,10.07-5.28,14.93-7.9a2.53,2.53,0,1,1,2.41,4.45c-4.88,2.65-9.93,5.32-15,8a2.51,2.51,0,0,1-1.12.13Zm-657.13-4.06a2.53,2.53,0,0,1-1.43-4.62q7-4.77,13.93-9.6a2.54,2.54,0,1,1,3.15,4,2.2,2.2,0,0,1-.25.17q-7,4.85-14,9.62a2.47,2.47,0,0,1-1.35.34Zm-425-14.44a2.53,2.53,0,0,1-1.6-.57c-4.41-3.58-8.78-7.27-13-11a2.53,2.53,0,1,1,3.34-3.81h0c4.17,3.65,8.49,7.29,12.86,10.84a2.53,2.53,0,0,1,.38,3.56,2.5,2.5,0,0,1-2,.94Zm452.8-4.93a2.53,2.53,0,0,1-1.47-4.6q6.9-4.89,13.75-9.85a2.54,2.54,0,0,1,3,4.1q-6.87,5-13.78,9.88a2.49,2.49,0,0,1-1.41.37ZM1952,1397.55a2.55,2.55,0,0,1-1.74-.69c-4.13-3.91-8.21-7.92-12.12-11.93a2.53,2.53,0,0,1,3.62-3.54c3.87,4,7.9,7.92,12,11.79a2.53,2.53,0,0,1,.09,3.58h0a2.5,2.5,0,0,1-1.76.69Zm505.67-2.52a2.53,2.53,0,0,1-1.51-4.57q6.8-5,13.53-10.13a2.53,2.53,0,1,1,3.45,3.7,1.85,1.85,0,0,1-.39.3q-6.75,5.12-13.58,10.17a2.54,2.54,0,0,1-1.41.43Zm27-20.46a2.53,2.53,0,0,1-1.55-4.53q6.69-5.2,13.28-10.45a2.55,2.55,0,0,1,3.16,4q-6.61,5.28-13.33,10.49a2.53,2.53,0,0,1-1.49.39Zm-556.27-1.21a2.53,2.53,0,0,1-1.88-.83c-3.79-4.21-7.52-8.55-11.11-12.89a2.54,2.54,0,1,1,3.72-3.45,2,2,0,0,1,.19.22c3.54,4.29,7.23,8.57,11,12.72a2.54,2.54,0,0,1-1.89,4.23Zm582.83-20a2.54,2.54,0,0,1-1.61-4.5c4.37-3.57,8.74-7.21,13-10.8a2.54,2.54,0,0,1,3.27,3.88c-4.27,3.6-8.66,7.25-13,10.84A2.49,2.49,0,0,1,2511.19,1353.38Zm-604.27-6.17a2.51,2.51,0,0,1-2-1c-3.41-4.51-6.75-9.15-9.93-13.78a2.54,2.54,0,0,1,4.18-2.87c3.14,4.57,6.43,9.14,9.8,13.6a2.52,2.52,0,0,1-.49,3.53h0a2.48,2.48,0,0,1-1.55.5Zm630.15-15.67a2.53,2.53,0,0,1-1.67-4.44c4.28-3.73,8.54-7.49,12.65-11.19a2.53,2.53,0,0,1,3.39,3.76h0c-4.13,3.72-8.41,7.51-12.71,11.25a2.47,2.47,0,0,1-1.66.61Zm-649.26-12.16a2.55,2.55,0,0,1-2.16-1.19c-3-4.81-5.9-9.74-8.65-14.66a2.53,2.53,0,0,1,4.42-2.48c2.72,4.85,5.59,9.72,8.54,14.46a2.53,2.53,0,0,1-2.15,3.87Zm674.42-10.51a2.53,2.53,0,0,1-1.73-4.38c4.16-3.89,8.28-7.8,12.23-11.64a2.54,2.54,0,0,1,3.53,3.64c-4,3.86-8.11,7.79-12.3,11.7A2.53,2.53,0,0,1,2562.23,1308.87Zm-690.94-19a2.54,2.54,0,0,1-2.27-1.4c-2.53-5.06-5-10.26-7.27-15.45a2.53,2.53,0,1,1,4.53-2.25,2.72,2.72,0,0,1,.11.25c2.26,5.11,4.67,10.23,7.16,15.22a2.54,2.54,0,0,1-1.12,3.4h0a2.43,2.43,0,0,1-1.13.22Zm715.22-4.58a2.53,2.53,0,0,1-1.8-4.31c4-4,7.92-8.12,11.71-12.15a2.54,2.54,0,0,1,3.69,3.48c-3.82,4-7.79,8.17-11.79,12.23a2.51,2.51,0,0,1-1.81.74Zm23.19-24.66a2.53,2.53,0,0,1-1.89-4.22c3.79-4.25,7.51-8.53,11.05-12.73a2.53,2.53,0,0,1,3.87,3.27c-3.56,4.23-7.31,8.55-11.14,12.83a2.49,2.49,0,0,1-1.89.84Zm-752.1-1.71a2.5,2.5,0,0,1-2.36-1.62c-2-5.26-4-10.64-5.77-16a2.53,2.53,0,0,1,4.8-1.6c1.77,5.29,3.69,10.6,5.69,15.78a2.54,2.54,0,0,1-1.44,3.28h0a2.35,2.35,0,0,1-.91.15Zm773.89-24.18a2.54,2.54,0,0,1-2-4.11c3.52-4.46,7-9,10.19-13.39a2.54,2.54,0,0,1,4.09,3h0c-3.28,4.48-6.74,9-10.3,13.54a2.48,2.48,0,0,1-2,1Zm-784.61-7.86a2.54,2.54,0,0,1-2.44-1.85c-1-3.42-1.9-6.89-2.77-10.31q-.78-3.09-1.51-6.15a2.52,2.52,0,0,1,1.87-3,2.55,2.55,0,0,1,3.06,1.87q.72,3,1.5,6.09c.85,3.37,1.77,6.8,2.73,10.17a2.54,2.54,0,0,1-1.74,3.13h0a2.29,2.29,0,0,1-.69,0Zm804.58-19.5a2.53,2.53,0,0,1-2.1-4c3.18-4.73,6.22-9.49,9-14.15a2.53,2.53,0,1,1,4.33,2.63h0c-2.87,4.73-6,9.55-9.17,14.35A2.54,2.54,0,0,1,2651.46,1207.38ZM1839,1194a2.53,2.53,0,0,1-2.48-2c-1.14-5.59-2.17-11.22-3.07-16.74a2.53,2.53,0,0,1,5-.81c.89,5.45,1.91,11,3,16.54a2.54,2.54,0,0,1-2,3h0A2.26,2.26,0,0,1,1839,1194Zm830-15.49a2.47,2.47,0,0,1-1.19-.3,2.53,2.53,0,0,1-1-3.43c2.7-5,5.22-10,7.5-15a2.53,2.53,0,0,1,4.6,2.13c-2.32,5-4.89,10.15-7.63,15.24A2.51,2.51,0,0,1,2669,1178.5Zm-835.46-17.89a2.53,2.53,0,0,1-2.54-2.23c-.7-5.66-1.28-11.35-1.73-16.93a2.54,2.54,0,0,1,5.06-.41c.44,5.51,1,11.13,1.7,16.72a2.54,2.54,0,0,1-2.21,2.83Zm849.62-12.76a2.32,2.32,0,0,1-.9-.17,2.52,2.52,0,0,1-1.46-3.26h0c2-5.29,3.83-10.6,5.37-15.78a2.53,2.53,0,0,1,4.86,1.44c-1.58,5.3-3.43,10.74-5.5,16.15a2.55,2.55,0,0,1-2.4,1.63Zm-852.31-21a2.54,2.54,0,0,1-2.53-2.45c-.16-4.3-.23-8.63-.23-12.87v-4.16a2.53,2.53,0,0,1,2.53-2.5h0a2.54,2.54,0,0,1,2.51,2.56v4.09c0,4.19.08,8.46.23,12.71a2.53,2.53,0,0,1-2.44,2.62h-.07Zm861.85-11.37a2.94,2.94,0,0,1-.51,0,2.53,2.53,0,0,1-2-3v0a158.45,158.45,0,0,0,2.52-16.42,2.53,2.53,0,0,1,5,.52c-.57,5.56-1.44,11.25-2.59,16.91a2.53,2.53,0,0,1-2.45,2.09ZM1831.26,1093h-.16a2.53,2.53,0,0,1-2.37-2.69c.35-5.7.85-11.4,1.49-17a2.53,2.53,0,1,1,5.06.07,2.22,2.22,0,0,1-.06.51c-.62,5.47-1.12,11.09-1.46,16.7a2.53,2.53,0,0,1-2.53,2.46Zm864.82-11.11a2.53,2.53,0,0,1-2.54-2.51,145.8,145.8,0,0,0-1-16.58,2.53,2.53,0,0,1,5-.61,149.3,149.3,0,0,1,1.08,17.16,2.52,2.52,0,0,1-2.52,2.54h0Zm-861-22.46h-.43a2.54,2.54,0,0,1-2.07-2.93c1-5.6,2.07-11.22,3.32-16.71a2.54,2.54,0,0,1,5,1s0,.11,0,.16c-1.24,5.39-2.34,10.92-3.27,16.43a2.54,2.54,0,0,1-2.5,2.13Zm856.89-11a2.54,2.54,0,0,1-2.46-1.93,144.79,144.79,0,0,0-4.85-15.89,2.53,2.53,0,1,1,4.75-1.75,149.7,149.7,0,0,1,5,16.44,2.62,2.62,0,0,1-2.41,3.15Zm-849.34-21.9a2.44,2.44,0,0,1-.71-.1,2.53,2.53,0,0,1-1.73-3.13h0c1.59-5.46,3.36-10.91,5.26-16.22a2.54,2.54,0,0,1,4.78,1.71c-1.87,5.21-3.61,10.57-5.17,15.93a2.53,2.53,0,0,1-2.43,1.84Zm837.69-9.77a2.54,2.54,0,0,1-2.27-1.4c-2.43-4.86-5.19-9.74-8.19-14.49a2.53,2.53,0,0,1,4.28-2.71,169.74,169.74,0,0,1,8.44,14.93,2.54,2.54,0,0,1-1.12,3.4h0a2.38,2.38,0,0,1-1.13.29Zm-826.3-22a2.52,2.52,0,0,1-2.54-2.5,2.64,2.64,0,0,1,.21-1c2.24-5.21,4.67-10.41,7.22-15.46a2.53,2.53,0,0,1,4.52,2.29h0c-2.5,5-4.88,10.06-7.08,15.17a2.54,2.54,0,0,1-2.35,1.52Zm808.3-6.55a2.51,2.51,0,0,1-2-1c-3.3-4.3-6.89-8.62-10.69-12.84a2.54,2.54,0,0,1,3.56-3.63l.21.24c3.88,4.31,7.57,8.74,10.94,13.15a2.53,2.53,0,0,1-.47,3.55,2.5,2.5,0,0,1-1.53.52Zm-793.07-23.6a2.55,2.55,0,0,1-2.53-2.55,2.69,2.69,0,0,1,.35-1.27c2.86-4.87,5.92-9.73,9.08-14.43a2.54,2.54,0,1,1,4.36,2.61c0,.07-.1.15-.15.22-3.11,4.61-6.11,9.38-8.92,14.17a2.55,2.55,0,0,1-2.19,1.24Zm770.5-1.54a2.51,2.51,0,0,1-1.76-.71c-3.9-3.78-8.08-7.57-12.4-11.27a2.53,2.53,0,1,1,3.29-3.85c4.41,3.77,8.66,7.63,12.63,11.47a2.53,2.53,0,0,1-1.76,4.36Zm-25.67-22a2.51,2.51,0,0,1-1.54-.52c-4.32-3.32-8.89-6.65-13.56-9.9a2.53,2.53,0,1,1,2.89-4.16c4.74,3.29,9.37,6.67,13.76,10a2.53,2.53,0,0,1,.47,3.55,2.51,2.51,0,0,1-2,1Zm-726-4.45a2.46,2.46,0,0,1-1.54-.53,2.53,2.53,0,0,1-.47-3.55h0c3.43-4.48,7.06-8.92,10.78-13.21a2.53,2.53,0,0,1,3.83,3.32h0c-3.65,4.21-7.22,8.58-10.59,13a2.54,2.54,0,0,1-2,.95Zm698.3-15a2.55,2.55,0,0,1-1.39-.42c-4.68-3.09-9.45-6.16-14.18-9.13a2.53,2.53,0,0,1,2.7-4.29h0c4.76,3,9.56,6.08,14.27,9.19a2.53,2.53,0,0,1-1.4,4.65Zm-676.15-10.54a2.53,2.53,0,0,1-1.81-4.31c4-4,8.08-8,12.3-11.86a2.53,2.53,0,0,1,3.41,3.75h0c-4.14,3.77-8.21,7.69-12.09,11.66a2.49,2.49,0,0,1-1.78.75Zm647.51-7.46a2.57,2.57,0,0,1-1.3-.36c-4.81-2.87-9.71-5.73-14.57-8.48a2.53,2.53,0,0,1,2.5-4.41c4.9,2.78,9.83,5.65,14.67,8.54a2.53,2.53,0,0,1-1.3,4.71Zm-622.5-15.33a2.53,2.53,0,0,1-1.6-4.5c4.37-3.55,8.91-7,13.5-10.39a2.54,2.54,0,0,1,3,4.1c-4.51,3.28-9,6.73-13.29,10.22a2.46,2.46,0,0,1-1.58.56ZM2528.31,887a2.5,2.5,0,0,1-1.19-.3c-4.92-2.65-9.94-5.28-14.94-7.82a2.54,2.54,0,0,1,2.3-4.52c5,2.56,10.09,5.21,15,7.87a2.54,2.54,0,0,1-1.21,4.77Zm-30.15-15.34a2.42,2.42,0,0,1-1.09-.25c-5.06-2.43-10.2-4.83-15.28-7.12a2.54,2.54,0,1,1,1.81-4.74,1.39,1.39,0,0,1,.28.12c5.11,2.31,10.29,4.72,15.38,7.17a2.53,2.53,0,0,1-1.1,4.82Zm-535.6-3.2a2.54,2.54,0,0,1-1.39-4.66c4.7-3.06,9.58-6.07,14.5-8.94a2.54,2.54,0,0,1,2.56,4.38c-4.86,2.83-9.66,5.79-14.29,8.81a2.47,2.47,0,0,1-1.35.36Zm504.78-10.74a2.32,2.32,0,0,1-1-.2c-5.16-2.19-10.41-4.35-15.59-6.41a2.53,2.53,0,1,1,1.87-4.71c5.22,2.08,10.5,4.25,15.7,6.45a2.54,2.54,0,0,1-1,4.87Zm-475.58-6.3a2.53,2.53,0,0,1-1.17-4.78c5-2.59,10.11-5.12,15.27-7.52a2.54,2.54,0,0,1,2.14,4.6c-5.1,2.36-10.17,4.86-15.07,7.41a2.49,2.49,0,0,1-1.14.28Zm444.14-6.19a2.41,2.41,0,0,1-.88-.16c-5.25-1.94-10.6-3.85-15.88-5.67a2.53,2.53,0,0,1,1.65-4.79c5.32,1.83,10.7,3.75,16,5.71a2.54,2.54,0,0,1-.88,4.91Zm-413.48-8.06a2.54,2.54,0,0,1-1-4.88c5.19-2.14,10.52-4.21,15.87-6.15a2.53,2.53,0,1,1,1.73,4.76c-5.28,1.92-10.55,4-15.67,6.08a2.33,2.33,0,0,1-.9.18Zm381.48-2.93a2.46,2.46,0,0,1-.76-.12c-5.35-1.7-10.78-3.35-16.13-4.9a2.54,2.54,0,0,1,1.41-4.87c5.4,1.57,10.86,3.23,16.25,4.94a2.53,2.53,0,0,1-.77,5Zm-349.7-8.65a2.53,2.53,0,0,1-.77-4.95c5.33-1.7,10.82-3.34,16.3-4.86a2.54,2.54,0,0,1,1.35,4.89c-5.41,1.5-10.84,3.11-16.11,4.8a2.65,2.65,0,0,1-.74.11Zm317.22-.8a2.36,2.36,0,0,1-.65-.08c-5.4-1.43-10.9-2.81-16.35-4.11a2.53,2.53,0,0,1,1.18-4.93h0c5.49,1.31,11,2.7,16.47,4.14a2.53,2.53,0,0,1-.65,5Zm-32.91-7.84a2.35,2.35,0,0,1-.53,0c-5.49-1.17-11.05-2.28-16.52-3.29a2.54,2.54,0,0,1,.92-5h0c5.52,1,11.12,2.14,16.65,3.32a2.53,2.53,0,0,1-.52,5Zm-251.72-.4a2.53,2.53,0,0,1-.59-5c5.48-1.31,11.07-2.53,16.62-3.64a2.55,2.55,0,1,1,1,5h0c-5.48,1.1-11,2.31-16.44,3.6a2.6,2.6,0,0,1-.56,0Zm218.46-5.78h-.4c-5.54-.88-11.15-1.7-16.67-2.44a2.53,2.53,0,0,1,.25-5,1.84,1.84,0,0,1,.41,0c5.57.74,11.22,1.57,16.81,2.45a2.54,2.54,0,0,1-.4,5Zm-185.3-.87a2.54,2.54,0,0,1-.41-5c5.55-.91,11.21-1.74,16.82-2.48a2.54,2.54,0,0,1,.66,5c-5.56.72-11.16,1.55-16.65,2.46Zm151.76-3.58h-.26c-5.61-.6-11.25-1.11-16.78-1.55a2.53,2.53,0,1,1,.39-5h0c5.58.44,11.27,1,16.92,1.56a2.53,2.53,0,0,1-.27,5Zm-118.22-.8a2.54,2.54,0,0,1-.24-5.06c5.54-.55,11.24-1,16.94-1.39a2.54,2.54,0,0,1,.33,5.06c-5.64.37-11.28.83-16.78,1.37Zm84.5-1.85h-.14c-5.62-.29-11.29-.49-16.83-.62a2.54,2.54,0,0,1,.06-5.07h.06c5.59.13,11.3.34,17,.63a2.53,2.53,0,0,1-.12,5.06Zm-50.74-.4a2.54,2.54,0,0,1-.09-5.07c5.62-.2,11.34-.32,17-.35h0a2.53,2.53,0,0,1,0,5.06h0c-5.6,0-11.27.16-16.84.36Z"/><path class="cls-9" d="M3088.52,1422.61a2.54,2.54,0,0,1-1.24-4.75q3.67-2.05,7.32-4.16a2.54,2.54,0,0,1,2.53,4.4c-2.45,1.4-4.91,2.8-7.37,4.18A2.48,2.48,0,0,1,3088.52,1422.61Z"/><ellipse class="cls-5" cx="1270.71" cy="2439.15" rx="761.04" ry="10.98"/><path class="cls-10" d="M1859.58,2434.8l18.9-.86s26.83-35.06,38.61-71c16.57-50.5-7-82.92-20.91-84.19s-23.74,11.17-16.71,48.85C1883.61,2349.87,1882.19,2391.65,1859.58,2434.8Z"/><path class="cls-6" d="M1874.39,2419l-.14-.09a1.17,1.17,0,0,1-.29-1.63h0c28.46-40.64,35.43-97.57,25.56-127a1.18,1.18,0,0,1,2.23-.75c10,30,3,87.87-25.87,129.11A1.18,1.18,0,0,1,1874.39,2419Z"/><path class="cls-11" d="M1833.75,2434.8l11.43-.52s16.22-21.19,23.34-42.91c10-30.53-4.22-50.12-12.65-50.9s-14.35,6.76-10.1,29.54C1848.28,2383.45,1847.42,2408.71,1833.75,2434.8Z"/><path class="cls-6" d="M1842.7,2425.23h-.08a.71.71,0,0,1-.18-1c17.21-24.57,21.42-59,15.46-76.79a.69.69,0,0,1,.42-.88h0a.72.72,0,0,1,.9.44c6.07,18.13,1.82,53.12-15.64,78A.7.7,0,0,1,1842.7,2425.23Z"/><path class="cls-12" d="M1322.23,1315.05a22.71,22.71,0,0,1-1.79,7.43c-.22.51-.46,1-.69,1.54h0c-7.13,14.56-27.23,25.83-32.42,31-6.2,6.2-7,27-10.69,26.48s-21.69-9.3-42.81,2.24c-8.93,4.89-22.79,14.85-38.13,32.15-21.87-10.37-44.49-31.64-50.54-50.75,6.6-4.81,13.18-9.51,19.68-14.09h0q12.57-8.86,24.75-17.18l3.45-2.35c39.46-26.86,66.14-42.43,84.09-50.93,46.16-21.88,34.67,3,34.67,3Z"/><path class="cls-13" d="M1320.44,1322.48c-.22.51-.46,1-.69,1.54h0c-38.23,4.19-34.34-15.48-36.84-17.33s-3.92,0-3.92,0-22.27,6.43-34.31,2.53a127,127,0,0,1-11,8c-4.66,3.16-25,9.59-40.64,14.27-10.53,3.14-18.92,5.49-18.92,5.49s13.31-22.5,26.82-42.57c9.6-14.22,52.22-14.75,76.19-13.85,9.82.37,16.51,1,16.51,1Z"/><path class="cls-14" d="M893.6,1739.71c-37.07,213.63-45,528.14-38.19,547.7s39.39,6,39.39,6,122.12-232.61,113.77-427.81S893.6,1739.71,893.6,1739.71Z"/><path class="cls-15" d="M893.6,1739.71c-.14,1.79-.24,3.6-.34,5.41a429.49,429.49,0,0,0,7.2,102.35q6.84,36.52,14.49,70.8c49.48,222.64,119,369.14,119,369.14h55.67s6.53-315.82,20.71-542C1082.75,1751.67,974,1772.91,893.6,1739.71Z"/><path class="cls-16" d="M1195.68,1415.9c-20.91,23.58-44.54,60.82-62.1,117.36-2.24,7.23-4.39,17.48-6.45,30.31-2.26,14.07-4.43,31.2-6.47,50.76-3.83,36.61-7.28,81.71-10.37,131.11-27.54,6.23-136.31,27.47-216.69-5.73.3-4.76.71-9.49,1.2-14.17,15.27-146.64,111.44-251.61,210.08-329.86,13.43-10.66,26.93-20.81,40.26-30.53C1151.19,1384.26,1173.81,1405.53,1195.68,1415.9Z"/><path class="cls-17" d="M1127.13,1563.57c-2.26,14.07-4.43,31.2-6.47,50.76-44.36,36.62-112.91,91.31-167.28,126.16-25.39,16.27-44.82,7.43-58.58-15,15.27-146.64,111.44-251.61,210.08-329.86,18.92-2.21,33.47-2.13,40.26.44l14.32,11.25c-.11,25.8-46.15,95.48-49.53,128.42C1108.63,1548.51,1116.71,1557.38,1127.13,1563.57Z"/><path class="cls-7" d="M1318.57,1323.78c-27.88-1.13-26.75-24.21-29.57-19.43s-34.34,13.23-49.55-9c0,0-.28,3.06-21.32,19.7l-.37.28c-21.38,16.9-52.37,32.39-57.15,28.17s0-12.67,13.23-19.67c11.12-5.86,15.29-17.8,12-37.4a117.45,117.45,0,0,0-2.69-12c-7.31-26.9,15.78-52.26,46.81-49.47s56.24,20.87,57.93,14.68,18.58-26.76,46.46-4.8,3.11,34.08,1.42,43.08,14.63,3.11,20,17.47S1346.44,1324.91,1318.57,1323.78Z"/><path class="cls-12" d="M1275.44,1562.1c-20,2.24-78.29,11-119.68,31.81S915,1740.3,910.54,1647.38c-2.53-52.09,19.19-95,45.12-128.22a365,365,0,0,1,36.54-39.78c53.27,6.08,93.34,16.88,118.12,25.12-8.45,17.71-12.23,32.71-4.1,39.84,25.34,22.25,144.72-19.72,154.28-35.48s9-42.79,14.94-37.16-5.65,34.92-1.69,40,16.89.85,18,12.1S1295.42,1559.85,1275.44,1562.1Z"/><path class="cls-16" d="M1110.32,1504.52c-24.78-8.24-64.85-19-118.12-25.12,8.25-7.85,16-14.68,22.51-20.47,80-71,130.72-72.81,143.67-54.23C1167.18,1417.32,1128.25,1467,1110.32,1504.52Z"/><path class="cls-13" d="M1110.32,1504.52c-77.74-5.64-128.25,5.7-154.66,14.67a365.25,365.25,0,0,1,36.54-39.81C1045.47,1485.48,1085.54,1496.28,1110.32,1504.52Z"/><path class="cls-13" d="M1195.68,1415.9c-21.87-10.37-44.49-31.64-50.54-50.75,6.6-4.81,13.18-9.51,19.68-14.09C1154.18,1361.38,1158.37,1380.09,1195.68,1415.9Z"/><path class="cls-18" d="M1229,1283.68a184.89,184.89,0,0,1-10.82,31.37l-.37.28c-21.38,16.9-52.37,32.39-57.15,28.17s0-12.67,13.23-19.67c11.12-5.86,15.29-17.8,12-37.4C1202.05,1284.93,1229,1283.68,1229,1283.68Z"/><path class="cls-12" d="M1250.57,1327.3c6.76-32.24-20.41-55.18-35.9-37.73s-.14,43.64,16.33,46.88S1250.57,1327.3,1250.57,1327.3Z"/><path class="cls-13" d="M1232.69,1321c6.25-9.38,2.68-29.43-6.9-24.92s2.26,7.32,3.8,10.7-4.22,5.49-.28,7.32S1231,1323.5,1232.69,1321Z"/><path class="cls-2" d="M946.65,2306.14v101.47a29,29,0,0,1-29,29H615.26a29,29,0,0,1-29-29V2306.14c0,4,2.6,7.71,6.88,10.55,5.33,3.54,13.27,5.78,22.14,5.78H917.63c8.86,0,16.81-2.24,22.13-5.78C944.05,2313.85,946.65,2310.16,946.65,2306.14Z"/><path class="cls-3" d="M946.65,2204.65v101.49c0,4-2.6,7.71-6.89,10.55-5.32,3.54-13.27,5.78-22.13,5.78H615.26c-8.87,0-16.81-2.24-22.14-5.78-4.28-2.84-6.88-6.53-6.88-10.55V2204.65a29,29,0,0,1,28-29h303.4c.56,0,1.12,0,1.68,0h.1c.53,0,1,.08,1.56.13a13.12,13.12,0,0,1,1.5.23c.5.1,1.14.2,1.72.33.88.2,1.74.45,2.59.73a30.06,30.06,0,0,1,5.21,2.26,11.1,11.1,0,0,1,1,.61c.32.22.89.56,1.32.87l1,.73.76.6c.25.2.51.41.74.63.39.34.77.69,1.15,1.06l.48.48a21.6,21.6,0,0,1,1.63,1.82A28.94,28.94,0,0,1,946.65,2204.65Z"/><path class="cls-6" d="M802.64,2335.29H730.25A8.27,8.27,0,0,1,722,2327v-7.45a8.26,8.26,0,0,1,8.25-8.27h72.41a8.27,8.27,0,0,1,8.27,8.25V2327A8.29,8.29,0,0,1,802.64,2335.29Z"/><path class="cls-11" d="M1682,2347.87c-10.54,2.82-49.34,22.69-61.17,30.38l-16.48-15.6c-49.94-47.25-107.87-101-127.24-99.06a64.22,64.22,0,0,0-17.74,4.73c-29.75,12.16-59.4,42.59-59.4,42.59s-163.26,16.37-213.68-3.8c-8-3.18-13.15-7.28-14.38-12.52-9-38.3,42.79-62,42.79-62,193.43-141.06,282.12-185.82,333.64-120.79C1582.25,2154.68,1642.43,2271.87,1682,2347.87Z"/><path class="cls-19" d="M1459.34,2268.32c-29.75,12.16-59.4,42.59-59.4,42.59s-163.26,16.37-213.68-3.8c31.89-22.61,71.49-33.5,71.49-33.5C1306.64,2246.83,1425,2260,1459.34,2268.32Z"/><path class="cls-12" d="M1763.91,2428.89a131.26,131.26,0,0,0-13.45-.54.17.17,0,0,1-.1,0c-20.36-.2-56,.56-69.23.56-2.06,0-6.07-2.4-11.59-6.65-2.67-2.05-5.69-4.53-9-7.39-3.61-3.09-7.6-6.62-11.87-10.49,12-5.67,37.58-18.82,47.69-25.29l.22-.15c11.11,20.91,18.68,34.33,20.64,35.12C1725.63,2417.38,1772.93,2430.26,1763.91,2428.89Z"/><path class="cls-11" d="M1698.12,2377.86l-1.58,1.06c-10,6.44-35.8,19.73-47.91,25.44l-1.56.73c-2.94,1.37-4.74,2.11-4.88,2s-24.14-23.5-24.83-26c-.07-.29.62-.93,2-1.84l1.48-1c11.83-7.69,50.63-27.56,61.17-30.38l.38-.1a6.8,6.8,0,0,1,1.67-.24c6.69.48,15.42,25.29,16.54,28C1700.69,2375.86,1699.8,2376.67,1698.12,2377.86Z"/><path class="cls-19" d="M1682,2347.87c-10.54,2.82-49.34,22.69-61.17,30.38l-16.48-15.6C1632.61,2370.24,1662.61,2347,1682,2347.87Z"/><path class="cls-13" d="M1696.32,2379.07c-3,2.11-34.6,24.8-35.8,31.24a9.68,9.68,0,0,0,0,4.54c-3.61-3.09-7.6-6.62-11.87-10.49C1660.65,2398.69,1686.21,2385.54,1696.32,2379.07Z"/><path class="cls-13" d="M1750.36,2428.38c-20.36-.2-56,.56-69.23.56-2.06,0-6.07-2.4-11.59-6.65,12.77,3.48,63.52,6.3,77.27,5.93A24.75,24.75,0,0,1,1750.36,2428.38Z"/><path class="cls-7" d="M1733,2429.59a1.15,1.15,0,0,1-1.07-.72,7.8,7.8,0,0,1,1.4-8.26,6,6,0,0,1,5.81-2.21,1.16,1.16,0,0,1,.8,1.42,1.15,1.15,0,0,1-1.41.8h0a3.88,3.88,0,0,0-3.48,1.53,5.46,5.46,0,0,0-1,5.86,1.16,1.16,0,0,1-.65,1.5A1,1,0,0,1,1733,2429.59Z"/><path class="cls-7" d="M1764.79,2431.62h-85.63a1.73,1.73,0,1,1-.26-3.45,1.13,1.13,0,0,1,.26,0h85.63a1.73,1.73,0,1,1,.26,3.45A1.13,1.13,0,0,1,1764.79,2431.62Z"/><path class="cls-11" d="M1395.43,2431.56c-57,0-144.44-2.53-251.71,0-74.25,1.76-126.85-24-151.21-54.46-10.85-13.55-16.1-28-15.19-41.41-7.48-49.72,64.55-60.19,118.44-61.17a518.06,518.06,0,0,1,56.41,2s199.34-26.18,292.25,29.57S1452.44,2431.56,1395.43,2431.56Z"/><path class="cls-19" d="M1202.36,2338.21c-26.12,26.2-18.94,38-40.48,36.34s-60-39.7-98.4-31.26c-32.59,7.17-56.68,17.07-71,33.81-10.85-13.55-16.1-28-15.19-41.41-7.48-49.72,64.55-60.19,118.44-61.17C1157.27,2295.55,1202.36,2338.21,1202.36,2338.21Z"/><path class="cls-20" d="M996.79,2382.08c9.67,1.33,21.5-12.6,22.76-14.29s58.29,29.56,63.35,41.39-6.33,17.31-29.14,13.09S1000.63,2393,996.79,2382.08Z"/><path class="cls-6" d="M924.6,2175.63c.61,0,1.22,0,1.82.06C925.81,2175.66,925.21,2175.63,924.6,2175.63Z"/><path class="cls-9" d="M1365.58,1929.12c-23.92,14.07-48.23,19.54-58.92,39.85a42.84,42.84,0,0,0-3.13,7.62h0a51,51,0,0,0-1.57,6.57c-1.07,6.16-4.61,8.85-9.7,9-21.76.65-71.39-45.26-71.39-60.79,0-19.15-22-116.56-4.51-143.59s89.86-149.24,89.86-149.24a48.15,48.15,0,0,0,2.68,6.53c15.81,32.13,60,36,49.92,75.14-10.69,41.66-52.92,77.13-29.27,127.81S1394.3,1912.23,1365.58,1929.12Z"/><path class="cls-21" d="M1306.66,1969a61.59,61.59,0,0,1-3.13,7.62h0a55.69,55.69,0,0,1-11.27,15.56c-21.76.65-71.39-45.26-71.39-60.79,0-19.15-22-116.56-4.51-143.59s89.86-149.24,89.86-149.24a48.15,48.15,0,0,0,2.68,6.53c-3.53,10.77-7.3,22.82-6.7,32.72.64,10.56-10.38,44.38-3.91,58.74s-23.51,30.69-38.78,48.43,5,94.06,37.94,128.1C1310.1,1926.13,1313.33,1949.07,1306.66,1969Z"/><path class="cls-9" d="M1290.69,1652.38c-10.47,1.82-4.22,36.74-55.32,29.56,0,0-.58,5.63-1.61,14.92-3.88,35.29-14.12,123.52-23,157.39-11.27,42.79-32.1,67-108.12,101.36-37,16.71-53.72,10.9-60-.91-6.67-12.43-1.76-31.51,3.16-37.79,9.58-12.23,21.4-17.05,13-59.84s44.48-49.56,80.51-90.66a49.83,49.83,0,0,0,7-10.21c6.86-13.31,5.41-26.91,1.71-40.59-6.86-25.58-21.48-51.41-3.79-75.9,29.57-41,60.82-12.25,76-46.46s92.07-37.59,114.88-2.11S1301.17,1650.53,1290.69,1652.38Z"/><path class="cls-21" d="M1233.76,1696.84c-3.88,35.29-14.12,123.52-23,157.39-11.27,42.79-32.1,67-108.12,101.36-37,16.71-53.72,10.9-60-.91,15.68-12.3,34.68-22.64,43.7-28.65,24.08-16,78-72.64,93.47-106.43s13.25-81.65,12.12-84.75c-.7-1.88-25.9,11-45.65,21.33,6.86-13.31,5.41-26.91,1.71-40.59,12.29-11.74,50.49-44.23,60.09-50.53C1208,1665.06,1224.28,1679.57,1233.76,1696.84Z"/><path class="cls-12" d="M1578.44,1836.49c-1.58,12.89-38.62,15.07-68.12,31.37-13,7.18-24.6,17.13-31,32-20.85,48.44-70.23,239.33-166.89,195.41q-9.71-4.41-18.4-9c-6.84-3.6-13.22-7.28-19.2-11,11.65-25.88,43.63-82.61,62.28-112.22h0c16.72,8.55,32.91,5.34,49.83-11.28,22.13-21.76,64.74-71.63,91-117.06,13.16-22.77,18.27-57.25,22.59-60.81,6.57-5.44,4.51,12.39,2.77,29.41-1.67,16.5-3,32.23,4.12,25.13C1558.86,1777.38,1580.68,1817.91,1578.44,1836.49Z"/><path class="cls-18" d="M1337.15,1962.94c-18.65,29.61-50.65,86.36-62.3,112.24-65-40.88-80.13-89.52-65.23-121.28,17.43-37.16,76.56-46.74,76.56-46.74C1304.43,1935.62,1321,1954.73,1337.15,1962.94Z"/><path class="cls-7" d="M1274.22,2014.3c-44.77,49.41-43.21,206.52-17.32,238.06s-2.82,37.72-13,47.3-32.66,27.58-44.9,42.37-32-21.12-55.9-24.08-108.39-5.62-125.84-8.16c-17.23-2.5-30.33,44.3-40.68,44.5a3.23,3.23,0,0,1-.44,0c-10.41-1.13-28.43-60.81,26.47-124.16,27.52-31.76,54.41-73.5,76.29-117.34h0c7.41-14.89,14.27-30,20.37-45.06,11.79-29,20.8-57.89,25.8-84.24,9.47-50,29.41-87.16,45-116.47,8.85-16.7,16.27-30.86,19.51-43.35,15.68,3,41-.32,54.8-2.6,4.33,20.63,15.7,44.38,34.94,61.48C1313.07,1912.51,1319,1964.88,1274.22,2014.3Z"/><path class="cls-12" d="M1300.27,1697.68c0,7.89,11,41.39-12.67,58.57a91.67,91.67,0,0,1-13.77,8.38c-.47.25-.94.47-1.42.69-5.67,2.64-10,3.87-13.82,5.73-4.54,2.23-8.26,5.34-12.38,12.79-4.36,7.87-5.08,21.65-1.81,37.21-13.78,2.28-39.12,5.63-54.8,2.6.22-.79.41-1.58.58-2.36,1-4.73,2.21-10.25,3.49-16.29,4.8-22.33,11.24-51.79,18.77-75h0c5.34-16.45,11.22-29.73,17.42-35,6.94-5.93,18.16-19.93,29.63-33.21,17.13-19.87,34.81-38.15,39.63-25.49,5.35,26.47-.56,43.92,10.13,47S1300.27,1689.81,1300.27,1697.68Z"/><path class="cls-13" d="M1259.51,1661.8c-7.55,16.5-14.53,26.08-19.21,31.1-3.6,3.84-16.24,19.8-27.84,37.13,5.34-16.45,11.22-29.73,17.42-35C1236.82,1689.08,1248,1675.08,1259.51,1661.8Z"/><path class="cls-12" d="M1250.15,1691.21c-16.61-36-50.4-40.54-50.68-2.81s56.59,13.79,56.59,13.79Z"/><path class="cls-13" d="M1236.86,1692.18c-5-14.91-21.61-13-22.11-3.49s13.13-2.08,14.79,3.83S1240.6,1703.32,1236.86,1692.18Z"/><path class="cls-13" d="M1272.41,1765.32c-5.67,2.64-10,3.87-13.82,5.73-16.57-4.48-23.41-16-25.07-19.28C1237.93,1760.09,1257.66,1771.69,1272.41,1765.32Z"/><path class="cls-13" d="M1244.4,1821.05c-13.78,2.28-39.12,5.63-54.8,2.6.22-.79.41-1.58.58-2.36,1-4.73,2.21-10.25,3.49-16.29,1.27,4.45,3.15,8.72,6,11.42C1207.91,1824.25,1244.4,1821.05,1244.4,1821.05Z"/><path class="cls-18" d="M1256.57,1930.81c-15.73,33.33-104,99.28-157.23,136.9,11.79-29,20.8-57.89,25.8-84.24,9.47-50,29.41-87.16,44.95-116.47,14.73-1.67,39.85-2.73,63.67,2.71C1233.76,1869.71,1279.34,1882.53,1256.57,1930.81Z"/><path class="cls-12" d="M1143.15,2021.66c-16,9.29-32.59,18.26-49.22,26.68-13.92,7.06-27.85,13.73-41.43,19.88-42.56,19.27-79.56,39-110.79,56.19C889.88,2153,854,2174.58,835,2175.63c-30.4,1.69-71.37,0-81.93,0-4.61,0,4.12-1.37,17.15-3.47,16.84-2.72,40.86-6.65,52.54-10.47,20.69-6.76,106.71-103.61,161-159.93,19.14-19.83,42.74-40.15,68.11-58.77,12.54-9.21,25.51-18,38.61-26.1C1119.33,1943.38,1135.48,1991.74,1143.15,2021.66Z"/><path class="cls-7" d="M1143.15,2021.66c-7.67-29.92-23.82-78.3-52.64-104.77,67-41.56,137-65.18,166.39-35.07C1291.35,1917.09,1225.48,1973.77,1143.15,2021.66Z"/><path class="cls-13" d="M1337.13,1963c-15.37,42.16-41.74,88.86-43.08,123.27-6.84-3.6-13.22-7.28-19.2-11C1286.5,2049.3,1318.48,1992.57,1337.13,1963Z"/><path class="cls-13" d="M1578.44,1836.49c-1.58,12.89-38.62,15.07-68.12,31.37-14.71-2.39-30.83-5.87-31.13-9.69-.56-7,18.28-40.34,24.17-55-1.67,16.5-3,32.23,4.12,25.13C1558.86,1777.38,1580.68,1817.91,1578.44,1836.49Z"/><path class="cls-7" d="M1552.24,1872.07,1500.51,1850a12.26,12.26,0,0,1-6.46-16.08l55.33-129.71a12.25,12.25,0,0,1,16.07-6.47h0l51.73,22.09a12.27,12.27,0,0,1,6.46,16.08l-55.33,129.72a12.24,12.24,0,0,1-16.07,6.46Z"/><path class="cls-6" d="M1614.93,1724.22l-10-4.28a2.69,2.69,0,0,0-3.51,1.5h0l-.78,1.81a2.7,2.7,0,0,1-3.5,1.52h0l-19.55-8.35a2.69,2.69,0,0,1-1.35-3.57h0l.77-1.82a2.71,2.71,0,0,0-1.35-3.59h0l-3.52-1.51-8.78-3.74a8.57,8.57,0,0,0-11.25,4.5v0l-54,126.61a8.58,8.58,0,0,0,4.53,11.26h0l51.63,22a8.58,8.58,0,0,0,11.26-4.53l54-126.61A8.58,8.58,0,0,0,1614.93,1724.22Z"/><polygon class="cls-9" points="1593.63 1767.11 1582.07 1797.27 1532.98 1778.46 1544.54 1748.3 1564.48 1769.72 1593.63 1767.11"/><polygon class="cls-21" points="1593.63 1767.11 1564.48 1769.72 1544.54 1748.3 1593.63 1767.11"/><circle class="cls-6" cx="1564.48" cy="1769.72" r="2.74"/><path class="cls-10" d="M1553.1,1800.64c.78-.15,14.43,16.65,14.11,17.39s-20.21,5.42-20.91,4.35,2.66-5.62,1-6.92-22.41-8.06-22.71-9.62.91-6.3,2.45-7.24c.88-.54,21.81,10,23.38,8.61C1551.17,1806.5,1553.1,1800.64,1553.1,1800.64Z"/><path class="cls-13" d="M941.71,2124.38C889.88,2153,854,2174.58,835,2175.63c-30.4,1.69-71.37,0-81.93,0-4.61,0,4.12-1.37,17.15-3.47a278.46,278.46,0,0,0,28,1.36C834.37,2173.55,896.44,2146.16,941.71,2124.38Z"/><path class="cls-13" d="M1093.93,2048.38c9.36-10.58,21.07-92.46-3.42-131.45,28.82,26.47,45,74.85,52.64,104.77C1127.16,2031,1110.56,2039.92,1093.93,2048.38Z"/><path class="cls-18" d="M976.78,2312a254.73,254.73,0,0,0-.15,42.25,3.23,3.23,0,0,1-.44,0c-10.41-1.13-28.43-60.81,26.47-124.16,27.52-31.76,54.41-73.5,76.29-117.34h0C1066,2172.38,981,2258.54,976.78,2312Z"/><polygon class="cls-9" points="1947.26 1638.18 1982.47 1725.33 1840.62 1782.66 1805.4 1695.5 1890.35 1701.55 1947.26 1638.18"/><polygon class="cls-21" points="1947.26 1638.18 1890.35 1701.55 1805.4 1695.5 1947.26 1638.18"/><circle class="cls-6" cx="1890.35" cy="1701.55" r="7.97"/><path class="cls-21" d="M1746.22,1809.38a1.65,1.65,0,0,1-1.23-.54,1.68,1.68,0,0,1,.07-2.37h0c.33-.32,34.25-31.79,81.88-42.33a1.69,1.69,0,0,1,.73,3.3c-46.73,10.34-80,41.18-80.3,41.49A1.67,1.67,0,0,1,1746.22,1809.38Z"/><path class="cls-21" d="M1753.39,1767.76a1.64,1.64,0,0,1-1.23-.53,1.68,1.68,0,0,1,.06-2.37l0,0c.33-.31,13.59-17.9,61.21-28.43a1.69,1.69,0,1,1,.76,3.29h0c-46.73,10.33-59.3,27.29-59.63,27.6A1.72,1.72,0,0,1,1753.39,1767.76Z"/><path class="cls-21" d="M1723.69,1747.56a1.69,1.69,0,0,1-1.15-2.92c.33-.32,24.45-24.84,72.08-35.38a1.69,1.69,0,1,1,.84,3.27l-.12,0c-46.72,10.34-70.16,34.23-70.49,34.54A1.67,1.67,0,0,1,1723.69,1747.56Z"/><path class="cls-7" d="M3601.94,1758.88a126.5,126.5,0,0,1-42.08,2.92c-26-2.29-48.12-12.55-67-27.58-2.05-1.64-4.08-3.33-6.07-5.11-25.74-22.71-45-54.28-59.11-85.38a471.5,471.5,0,0,1-20.23-53.44h0a.21.21,0,0,0,.14-.07c15.49-10.54,44.34-32.5,51.27-39.41,7.62,5.18,15.53,10.26,23.35,15.12,17,10.56,33.67,19.91,45.94,26,8.94,4.5,15.53,7.26,18.29,7.53,1.34.14,3.33-.73,5.86-2.37h0c15.23-10,50.42-48.58,87.35-67.49,16.24-8.35,32.82-12.86,48.16-9.46,0,0,8.51-1,17.13,22.76,3,8.21,6,19.36,8.69,34.55C3722.7,1628.83,3685.57,1737.71,3601.94,1758.88Z"/><path class="cls-18" d="M3601.94,1758.88a126.5,126.5,0,0,1-42.08,2.92c-26-2.29-48.12-12.55-67-27.58-2.05-1.64-4.08-3.33-6.07-5.11,5.87.82,11.57.64,14.87-2,8.81-7.16,17.11-63.84,50.66-130h0c15.23-10,50.42-48.58,87.35-67.49,16.24-8.35,32.82-12.86,48.16-9.46,0,0,8.51-1,17.13,22.76,3,8.21,6,19.36,8.69,34.55C3722.7,1628.83,3685.57,1737.71,3601.94,1758.88Z"/><path class="cls-12" d="M3387.31,1502.54c-11.48,8.87-38.32,3.25-32.23,18.12,4.45,10.83,26.93,19.26,41.54,30.53,5.44,4.19,9.79,8.78,11.71,14,7.09,19.4,41,6.35,19.56-36a121.54,121.54,0,0,0-6.55-11.33c-25-38.45-69.06-62.88-73.88-60.8C3342.19,1459.38,3398.79,1493.67,3387.31,1502.54Z"/><path class="cls-13" d="M3396.68,1551l-.06.18c5.44,4.19,9.79,8.78,11.71,14,7.09,19.4,41,6.35,19.56-36a121.54,121.54,0,0,0-6.55-11.33C3417,1537.32,3398.07,1545.92,3396.68,1551Z"/><path class="cls-7" d="M3398,1595.89c.71-.1,2.52-1.11,5.11-2.74,1.26-.8,2.73-1.77,4.32-2.86,15.45-10.49,44.49-32.57,51.44-39.49,1.15-1.16,1.7-1.88,1.47-2.08-9.05-7.88-14.2-19.67-21.42-21.41-1.39-.34-4.26.45-7.94,2-.26.13-.53.23-.8.35-9.63,4.2-24.31,13.19-33.53,21.37-5.69,5-9.31,9.78-8.41,12.88C3391.29,1574.15,3393.07,1596.64,3398,1595.89Z"/><circle class="cls-18" cx="3402.47" cy="1569.29" r="6.59"/><path class="cls-18" d="M3482.25,1565.92c-7.76-.77-16.1-1.57-20.2-1.84-8.45-.52-51.52,24.44-54.42,26.12,15.47-10.53,44.34-32.51,51.28-39.41C3466.51,1556,3474.43,1561.06,3482.25,1565.92Z"/><path class="cls-12" d="M3660.72,1491.28c1.14-5.56.81-9.66-.77-13.16h0c-3.22-7.23-11.71-11.87-23.3-21.6-1-.86-2.09-1.77-3.18-2.72-1.38-1.22-2.79-2.52-4.26-3.9-21.54-20.46,1.86-45,1.45-58.49s-10.24-4.76-13.17-10,27.72-23,27-46.7c0,0,4.69-.47,12.45-.84,4.94-.25,11.13-.48,18.15-.52,18-.08,32.6,33.59,33.32,44.35s1.38,42.62.19,68c-.27,5.7,2.31,20,6.36,40.11-7.58.29-47.81,9.94-58.16,14.67C3659,1496.48,3660.28,1493.49,3660.72,1491.28Z"/><path class="cls-13" d="M3710.78,1480.78c2.34-3.76-8.9-26.8-6.19-41.28s-.28-13.19-2.4-21.67,1.14-15.86-1.59-23.07-1.44-17.19-1.44-17.19-14.06-6.51-17.33-13.13-4.62-10.32-4.62-10.32-2.56-5.48-6.09-4-18.44,3.13-25.74-.45a77.9,77.9,0,0,1,11.6-15.87c4.94-.25,11.13-.48,18.15-.52,18-.08,32.6,33.59,33.32,44.35s1.38,42.62.19,68c-.27,5.7,2.31,20,6.36,40.11-7.58.29-47.81,9.94-58.16,14.67C3665.9,1493,3708.44,1484.54,3710.78,1480.78Z"/><path class="cls-9" d="M3766.05,2356.08c-.29,6.47-.59,12.5-.92,18l-57.91,2.56c-11.27-25.07-36.3-74.7-62.75-127.25-14.68-29.15-29.79-59.19-43.24-86.44-20.18-40.9-36.63-75.51-42.22-91.3-12.07-34.14,74.62-143,136.47-214.63,33.06-38.3,59-66,59-66C3769.6,1938.58,3771.61,2230.65,3766.05,2356.08Z"/><path class="cls-21" d="M3739.21,1857c3.94,88.88-70.83,320.83-94.74,392.41-14.68-29.15-29.79-59.19-43.24-86.44-20.18-40.9-36.63-75.51-42.22-91.3-12.07-34.14,74.62-143,136.47-214.63A391.37,391.37,0,0,1,3739.21,1857Z"/><path class="cls-9" d="M3754.5,1791.08c-8.53,130-75.86,261.82-153.27,371.91-59.91,85.18-125.82,157.34-175.2,205.64-8,7.83-15.55,15-22.57,21.51l-72.46,3.24c23.4-75.4,77.71-307.8,158-532q12.87-35.93,25.11-67.48c11.8-30.5,23.13-58,33.87-83,17.59-40.78,33.66-74.42,47.8-102.11,29.4-40.25,71.64-89.08,93.33-86.23,20.11,3.93,37.15,39.07,39.16,71.36s4.38,122.59,6.73,131.74c1.46,5.61,2.85,16.51,19.84,18.33A459.42,459.42,0,0,1,3754.5,1791.08Z"/><path class="cls-7" d="M3716.54,1493.38c-.64,2.89-62.13,29.57-64.73,31.41-1.94,1.39-1-9.22.73-16.73a26.83,26.83,0,0,1,1.91-6.12,5.9,5.9,0,0,1,2.39-1.54c10.35-4.73,50.58-14.38,58.16-14.67.68,0,1.1,0,1.21.16C3717.76,1487.75,3717.18,1490.52,3716.54,1493.38Z"/><path class="cls-7" d="M3403.46,2390.15c-29.66,27.52-49.93,43.08-53.61,43.25-16.94.75-71.55,3.94-77,3.41s34.93-12.35,47.77-18.32c2.16-1,5.64-9.84,10.39-25.14Z"/><path class="cls-7" d="M3765.13,2374.12c-1.53,26.06-3.49,55-5.79,55.14l-115.46,5.12c-8.46.38,67.57-17.21,69.59-27.33.28-1.37-2-21-6.25-30.36Z"/><path class="cls-21" d="M3766.05,2356.08c-.29,6.47-.59,12.5-.92,18l-57.91,2.56s52-6.74,53.35-7C3761.35,2369.55,3764,2362.26,3766.05,2356.08Z"/><path class="cls-21" d="M3426,2368.63q-12,11.73-22.56,21.52l-72.44,3.23s70.52-11.22,74-11.37C3406.78,2381.9,3416.69,2375.2,3426,2368.63Z"/><circle class="cls-21" cx="3719.26" cy="1740.93" r="10.83"/><path class="cls-16" d="M3768.25,1381.26c-2.84,9.56-22.79,11.94-23.11,13.72s19.54,19.38,5.81,31.27c-.28.24-.59.49-.91.73-15.48,11.87-23.89,4.92-23.51,8.94s-15.2,13.6-19.28,21.88-5-20.4,0-25.84-7-10.87-2.25-24.76a32,32,0,0,0,1.37-11.79c-.55-11.72-5.37-23.45-5.37-23.45-25.25,1.63-22.11-23.19-29.32-23.38s-26.33,9-32.78-5.87a39.25,39.25,0,0,1-2.28-6.87c-2.81-12.31,2.17-22.76,21.54-19.7,18.08,2.86,66.69,20.79,90,31.94,6.24,3,10.66,5.5,12.19,7.11C3767.62,1362.78,3771.1,1371.68,3768.25,1381.26Z"/><path class="cls-17" d="M3768.25,1381.26c-2.84,9.56-22.79,11.94-23.11,13.72s19.54,19.38,5.81,31.27l-44.57-30.87s9-6.49,15.09-14.21,5.45-21.45,5.45-21.58l-90.29-23.78c1.26.08,74.5,4.5,99.7,9.68,3.88.8,7.85,1.64,11.82,2.56,6.24,3,10.66,5.5,12.19,7.11C3767.62,1362.78,3771.1,1371.68,3768.25,1381.26Z"/><path class="cls-12" d="M3688.11,1383.84c8.83-26.87,42.87-33.14,46-15.41s-29.91,29.86-37.93,28.55S3688.11,1383.84,3688.11,1383.84Z"/><path class="cls-13" d="M3697.35,1386.51c1.52-8.43,15.12-21.36,20.53-15.43s-8.66,4.74-10.3,6.88-.25,4.51-2.42,4.86S3697.13,1387.73,3697.35,1386.51Z"/><path class="cls-21" d="M3773,1343.89l-11.57-1.86a2.68,2.68,0,0,0,.07-.27c.08-.26.14-.51.19-.75,18.65-72.52-91.52-108.26-115.58-29.55-.83,2.7-1.55,5.54-2.18,8.53-.2,1-.39,2-.58,3l-11.22-1.8h-.36q.27-1.67.6-3.33c.63-3.12,1.39-6.22,2.3-9.3,4.39-14.81,12.27-28.7,24.57-38.36,15.55-12.57,36.81-17.12,56.34-13.36,19.61,3.56,37.71,15,48.81,31.56C3775.35,1304.47,3777.94,1325.29,3773,1343.89Z"/><path class="cls-22" d="M3761.69,1341c-.05.24-.11.49-.19.75a2.68,2.68,0,0,1-.07.27l-118.08-19c.19-1,.38-2,.58-3q.93-4.48,2.18-8.53C3670.17,1232.75,3780.34,1268.49,3761.69,1341Z"/><path class="cls-9" d="M3771.25,1357.51l-143.54-23.13a6.94,6.94,0,0,1-1.42-.39,6.84,6.84,0,0,1,3.23-13.17h.37l11.22,1.81,118.07,19,11.57,1.86,2.68.43a6.85,6.85,0,0,1-2.18,13.52Z"/><path class="cls-18" d="M3705.25,1578.81c10.82,59.31,7.53,107.43,1.26,148.48s-77.11,40.13-107.33,4,14-120.79,58.89-160.84Z"/><path class="cls-13" d="M3660,1478.11c-3.22-7.23-11.71-11.87-23.3-21.6,9.91,7.56,27.4,13.75,29.91,14.09C3669.37,1471,3657.35,1471.38,3660,1478.11Z"/><path class="cls-12" d="M3605.86,1445.86c-11.9-31-15.3-40.83-7.38-35.38s12,20.51,24,33.35c2.64,2.85,3,14.66,2.16,31.2a163.71,163.71,0,0,0-23.49-2.15C3605.57,1459.86,3607.62,1450.38,3605.86,1445.86Z"/><path class="cls-7" d="M3625,1502.23c-.13.37-1.07.62-2.57.73-6.64.6-24.25-.93-31.68-2.67-2.1-.5-3.38-1-3.38-1.48,0-2.28,7.05-23.37,8.76-25.29.41-.46,2.3-.64,5-.64a163.71,163.71,0,0,1,23.49,2.15,4.57,4.57,0,0,1,1.94.59C3627.12,1476.76,3626,1499.75,3625,1502.23Z"/><path class="cls-18" d="M3716.54,1493.38c-.64,2.89-62.13,29.57-64.73,31.41-1.94,1.39-1-9.22.73-16.73-4.15,7.08-9.76,16.24-16.69,28a53.17,53.17,0,0,1,8.9-5.27,52.08,52.08,0,0,0-8.89,5.28c-10.54,17.78-24.09,41.48-40.08,72.79,29.4-40.25,71.64-89.08,93.33-86.23a52.86,52.86,0,0,0-16.7-.16,52.5,52.5,0,0,1,16.69.15c20.13,3.94,37.17,39.08,39.16,71.38s4.38,122.57,6.74,131.72c1.46,5.62,2.86,16.51,19.84,18.35C3751.48,1657.15,3728.84,1553.66,3716.54,1493.38Z"/><path class="cls-7" d="M3563.83,1792.86c-84.18-43.65-8.32-205,26.94-292.57,7.43,1.74,25,3.27,31.68,2.67-.23,2.44-.48,4.91-.73,7.42-5.93,59.68-17.27,136.61-10.5,130.27,10.59-9.92,24.64-40.9,40.26-62,25.77-34.81,53-36.79,56.4,20.13C3711.41,1658.87,3716,1871.75,3563.83,1792.86Z"/><circle class="cls-18" cx="3619.42" cy="1487.99" r="3.85"/><path class="cls-18" d="M3622.45,1503c-.23,2.44-.48,4.91-.73,7.42-8.44-2.56-22.15-5.71-30.95-10.09C3598.2,1502,3615.81,1503.56,3622.45,1503Z"/><path class="cls-10" d="M2729.24,2308.48l18.9-.86s26.83-35.06,38.61-71c16.57-50.49-7-82.91-20.91-84.19s-23.74,11.17-16.71,48.86C2753.27,2223.55,2751.85,2265.38,2729.24,2308.48Z"/><path class="cls-6" d="M2744.05,2292.64l-.14-.08a1.17,1.17,0,0,1-.29-1.63h0c28.46-40.64,35.43-97.57,25.56-127a1.18,1.18,0,1,1,2.17-.92.49.49,0,0,1,.06.17c10,30,3,87.86-25.87,129.1A1.16,1.16,0,0,1,2744.05,2292.64Z"/><path class="cls-11" d="M2703.41,2308.48l11.43-.52s16.22-21.2,23.34-42.91c10-30.53-4.22-50.13-12.65-50.9s-14.35,6.75-10.1,29.54C2717.94,2257.13,2717.08,2282.38,2703.41,2308.48Z"/><path class="cls-6" d="M2712.36,2298.91l-.08,0a.72.72,0,0,1-.18-1c17.21-24.57,21.42-59,15.46-76.79a.71.71,0,0,1,.44-.9.72.72,0,0,1,.9.45c6.07,18.12,1.82,53.12-15.64,78.05A.71.71,0,0,1,2712.36,2298.91Z"/><path class="cls-10" d="M747.76,1862.46l18.9-.87s26.83-35.06,38.61-71c16.57-50.5-7-82.92-20.91-84.19s-23.74,11.17-16.71,48.85C771.79,1777.52,770.37,1819.3,747.76,1862.46Z"/><path class="cls-6" d="M762.57,1846.62a.42.42,0,0,1-.14-.09,1.17,1.17,0,0,1-.29-1.63h0c28.46-40.64,35.43-97.57,25.56-127a1.17,1.17,0,0,1,2.23-.74c10,30,3,87.86-25.87,129.1A1.18,1.18,0,0,1,762.57,1846.62Z"/><path class="cls-11" d="M721.93,1862.46l11.43-.53s16.22-21.19,23.34-42.91c10-30.52-4.22-50.12-12.64-50.89s-14.36,6.75-10.11,29.53C736.46,1811.11,735.6,1836.38,721.93,1862.46Z"/><path class="cls-6" d="M730.88,1852.88h-.08a.71.71,0,0,1-.18-1c17.21-24.57,21.42-59,15.46-76.79a.69.69,0,0,1,.42-.88h0a.7.7,0,0,1,.89.44h0c6.08,18.12,1.82,53.11-15.64,78A.7.7,0,0,1,730.88,1852.88Z"/><path class="cls-10" d="M3811.05,2425.9,3830,2425s26.82-35.06,38.6-71c16.57-50.5-7-82.92-20.91-84.2s-23.74,11.18-16.71,48.86C3835.09,2341,3833.66,2382.75,3811.05,2425.9Z"/><path class="cls-6" d="M3825.86,2410.07l-.14-.09a1.17,1.17,0,0,1-.29-1.63h0c28.46-40.64,35.43-97.57,25.57-127a1.17,1.17,0,0,1,2.22-.75c10,30,3,87.87-25.87,129.1A1.16,1.16,0,0,1,3825.86,2410.07Z"/><path class="cls-11" d="M3785.22,2425.9l11.43-.52s16.22-21.19,23.34-42.91c10-30.53-4.22-50.13-12.64-50.9s-14.36,6.76-10.11,29.54C3799.75,2374.55,3798.89,2399.81,3785.22,2425.9Z"/><path class="cls-6" d="M3794.17,2416.38h-.08a.72.72,0,0,1-.18-1h0c17.2-24.57,21.41-59,15.45-76.79a.71.71,0,0,1,.45-.89.69.69,0,0,1,.88.42v0c6.08,18.13,1.83,53.12-15.63,78A.71.71,0,0,1,3794.17,2416.38Z"/><path class="cls-4" d="M4116.07,1845.44v-168.8a4.58,4.58,0,0,1,9.16,0v168.8C4125.23,1848,4116.07,1848,4116.07,1845.44Z"/><path class="cls-4" d="M3966.9,1845.44v-168.8a4.58,4.58,0,1,1,9.16,0v168.84C3976.06,1848,3966.9,1848,3966.9,1845.44Z"/><path class="cls-4" d="M3975.67,1755.12h140.64c2.11,0,2.11,9.16,0,9.16H3975.67C3973.56,1764.28,3973.56,1755.12,3975.67,1755.12Z"/><path class="cls-4" d="M3975.67,1783.69h140.64c2.11,0,2.11,9.16,0,9.16H3975.67C3973.56,1792.85,3973.56,1783.69,3975.67,1783.69Z"/><rect class="cls-2" x="3948.09" y="1685.48" width="195.95" height="63.46" rx="0.4"/><path class="cls-6" d="M3976.79,1748.94H3962l63.46-63.46h14.8Zm-28.7-45.64v14.8l32.63-32.62h-14.81ZM4070,1685.48h-14.8l-63.46,63.46h14.8Zm-74.34,0-47.59,47.58v12a3.71,3.71,0,0,0,.7,2.08l61.69-61.69Zm148.34,45v-14.8l-33.21,33.21h14.8Zm0-29.77v-11.44a3.75,3.75,0,0,0-.93-2.43l-62,62h14.8Zm-14.48-15.28h-14.8l-63.47,63.46h14.81Zm-29.77,0H4085l-63.46,63.46h14.8Z"/><path class="cls-4" d="M4140.2,1684.17H3951.94a5.17,5.17,0,0,0-5.15,5.15v55.77a5.15,5.15,0,0,0,5.15,5.16H4140.2a5.15,5.15,0,0,0,5.15-5.16v-55.77A5.17,5.17,0,0,0,4140.2,1684.17Zm2.53,60.92a2.54,2.54,0,0,1-2.53,2.54H3951.94a2.54,2.54,0,0,1-2.54-2.54h0v-55.77a2.54,2.54,0,0,1,2.54-2.54H4140.2a2.54,2.54,0,0,1,2.53,2.54Z"/><path class="cls-4" d="M2726.92,1845.44v-168.8a4.58,4.58,0,0,1,9.16,0v168.8C2736.08,1848,2726.92,1848,2726.92,1845.44Z"/><path class="cls-4" d="M2577.75,1845.44v-168.8a4.58,4.58,0,0,1,9.16,0v168.8C2586.91,1848,2577.75,1848,2577.75,1845.44Z"/><path class="cls-4" d="M2586.52,1755.12h140.64c2.11,0,2.11,9.16,0,9.16H2586.52C2584.41,1764.28,2584.41,1755.12,2586.52,1755.12Z"/><path class="cls-4" d="M2586.52,1783.69h140.64c2.11,0,2.11,9.16,0,9.16H2586.52C2584.41,1792.85,2584.41,1783.69,2586.52,1783.69Z"/><rect class="cls-2" x="2558.94" y="1685.48" width="195.95" height="63.46" rx="0.4"/><path class="cls-6" d="M2587.64,1748.94h-14.81l63.47-63.46h14.8Zm-28.7-45.64v14.8l32.62-32.62h-14.8Zm121.93-17.82h-14.81l-63.46,63.46h14.81Zm-74.34,0-47.59,47.58v12a3.78,3.78,0,0,0,.69,2.08l61.7-61.69Zm148.36,45v-14.8l-33.21,33.21h14.8Zm0-29.77v-11.44a3.83,3.83,0,0,0-.93-2.43l-62.05,62h14.8Zm-14.49-15.28h-14.8l-63.46,63.46h14.8Zm-29.77,0h-14.8l-63.46,63.46h14.8Z"/><path class="cls-4" d="M2751,1684.17H2562.78a5.17,5.17,0,0,0-5.15,5.15v55.77a5.15,5.15,0,0,0,5.15,5.16H2751a5.16,5.16,0,0,0,5.16-5.16v-55.77A5.16,5.16,0,0,0,2751,1684.17Zm2.54,60.92a2.54,2.54,0,0,1-2.54,2.54H2562.78a2.54,2.54,0,0,1-2.53-2.54v-55.77a2.54,2.54,0,0,1,2.53-2.54H2751a2.54,2.54,0,0,1,2.54,2.54h0Z"/></g></g></svg>