<svg xmlns="http://www.w3.org/2000/svg" viewBox="0 0 4680 3120"><defs><style>.cls-1{fill:#fff;}.cls-2{fill:#ebeff2;}.cls-3{fill:#99a9b5;}.cls-4{fill:#d8dfe5;}.cls-5{fill:#b3bbc3;}.cls-6{fill:#343d76;}.cls-7{fill:#192057;}.cls-8{fill:#f2e5d6;}.cls-9{fill:#d9cfc3;}.cls-10{fill:#fa993b;}.cls-11{fill:#d74f29;}.cls-12{fill:#c43924;}.cls-13{fill:#6bb14e;}.cls-14{fill:#57a542;}.cls-15{fill:#528e36;}.cls-16{fill:#67a546;}.cls-17{fill:#f8bd88;}.cls-18{fill:#fc9d6b;}.cls-19{fill:#ff790b;}.cls-20{fill:#ff8736;}.cls-21{fill:#eb928c;}.cls-22{fill:#feb3b0;}.cls-23{fill:#010428;}.cls-24{fill:#02084c;}.cls-25{fill:#00023b;}.cls-26{fill:#e3edf0;}.cls-27{fill:#83d35e;}.cls-28{fill:#68b8ea;}.cls-29{fill:#484689;}.cls-30{fill:#363f3a;}</style></defs><title>jipbm_services_jipbm</title><g id="color"><rect class="cls-1" width="4680" height="3120"/><rect class="cls-2" y="2295.52" width="4680" height="824.48"/><ellipse class="cls-3" cx="3565.71" cy="2669.76" rx="202.61" ry="7.26"/><ellipse class="cls-3" cx="2577.98" cy="2669.76" rx="332.5" ry="7.81"/><ellipse class="cls-3" cx="1160.81" cy="2669.76" rx="627.34" ry="7.81"/><path class="cls-4" d="M4146.54,322.49v1613c0,49-40.34,88.62-90.11,88.62H1556.81c-49.77,0-90.1-39.67-90.1-88.62v-1613c0-48.95,40.33-88.61,90.1-88.61H4056.43C4106.2,233.88,4146.54,273.54,4146.54,322.49Z"/><path class="cls-5" d="M4146.54,334.21v1601.3a88.61,88.61,0,0,1-88.62,88.62h-46.31V334.21Z"/><path class="cls-6" d="M4146.54,322.49v99.73H1466.71V322.49c0-48.95,40.33-88.61,90.1-88.61H4056.43C4106.2,233.88,4146.54,273.54,4146.54,322.49Z"/><path class="cls-7" d="M2176,233.88,1984.5,422.22H1466.71V322.49c0-48.95,40.33-88.61,90.1-88.61Z"/><circle class="cls-6" cx="1670.74" cy="334.2" r="29.43"/><circle class="cls-6" cx="1790.74" cy="334.2" r="29.43"/><circle class="cls-6" cx="1910.75" cy="334.2" r="29.43"/><rect class="cls-1" x="4039.28" y="647.15" width="79.59" height="376.38" rx="5.28"/><path class="cls-5" d="M1857.15,1944.62H1612.9a53.6,53.6,0,0,1-53.6-53.6V555.12a53.59,53.59,0,0,1,53.6-53.6h244.25a53.58,53.58,0,0,1,53.6,53.6V1891a53.59,53.59,0,0,1-53.6,53.6Z"/><path class="cls-5" d="M3166.4,1818.55h-440a49,49,0,0,1-49-49V1329.62a49,49,0,0,1,49-49h440a49,49,0,0,1,49,49v440a49,49,0,0,1-49,49Z"/><path class="cls-4" d="M3126.47,1532.26l3.42-4.27L2953,1386.48,2833,1476.57h0l-1.64,1.25-.37.28h0l-68,51.68,3.31,4.36,6.51-5v183.54h340.49v-31.28h-.06V1521.65Zm-173.84-138.64.29-.22h0Z"/><path class="cls-5" d="M2497.58,1818.55h-440a49,49,0,0,1-49-49V1329.62a49,49,0,0,1,49-49h440a49,49,0,0,1,49,49v440a49,49,0,0,1-49,49Z"/><path class="cls-4" d="M2457.65,1532.26l3.42-4.27-176.86-141.51-120.07,90.09h0l-1.65,1.25-.37.28h0l-68,51.68,3.32,4.36,6.51-5v183.54h340.48v-31.28h-.05V1521.65ZM2283.8,1393.62l.3-.22h0Z"/><path class="cls-5" d="M3077.86,1156.64H2905.78a24.73,24.73,0,0,1-24.72-24.72v-52.29a24.74,24.74,0,0,1,24.72-24.73h172.08a24.74,24.74,0,0,1,24.72,24.73v52.29a24.72,24.72,0,0,1-24.72,24.72Z"/><path class="cls-5" d="M3743.73,1156.64H3571.65a24.71,24.71,0,0,1-24.72-24.72v-52.29a24.74,24.74,0,0,1,24.72-24.73h172.08a24.74,24.74,0,0,1,24.72,24.73v52.29a24.72,24.72,0,0,1-24.72,24.72Z"/><path class="cls-1" d="M3195,1013.13H2755.05a49,49,0,0,1-49-49V524.21a49,49,0,0,1,49-49H3195a49,49,0,0,1,49,49V964.16a49,49,0,0,1-49,49Z"/><rect class="cls-8" x="2841.6" y="677.27" width="165.61" height="216.4"/><path class="cls-1" d="M2923.08,714.72h0a23.36,23.36,0,0,1,23.35,23.34v39.32h-46.69V738.06a23.33,23.33,0,0,1,23.34-23.34Z"/><rect class="cls-9" x="3007.2" y="677.27" width="170.14" height="216.4"/><rect class="cls-6" x="2841.6" y="737.89" width="7.38" height="41.83"/><rect class="cls-6" x="2999.83" y="737.89" width="7.38" height="41.83"/><rect class="cls-6" x="2856.98" y="737.89" width="2.98" height="41.83"/><rect class="cls-6" x="2870.17" y="737.89" width="2.98" height="41.83"/><rect class="cls-6" x="2883.35" y="737.89" width="2.98" height="41.83"/><rect class="cls-6" x="2896.54" y="737.89" width="2.98" height="41.83"/><rect class="cls-6" x="2847.92" y="777.38" width="155.6" height="2.33"/><rect class="cls-6" x="2847.92" y="737.89" width="155.6" height="2.33"/><rect class="cls-6" x="2909.72" y="737.89" width="2.98" height="41.83"/><rect class="cls-6" x="2922.91" y="737.89" width="2.98" height="41.83"/><rect class="cls-6" x="2936.1" y="737.89" width="2.98" height="41.83"/><rect class="cls-6" x="2949.28" y="737.89" width="2.98" height="41.83"/><rect class="cls-6" x="2962.47" y="737.89" width="2.98" height="41.83"/><rect class="cls-6" x="2975.65" y="737.89" width="2.98" height="41.83"/><rect class="cls-6" x="2988.84" y="737.89" width="2.98" height="41.83"/><rect class="cls-10" x="2904.2" y="804.66" width="37.77" height="89.02"/><circle class="cls-9" cx="2936.15" cy="850" r="2.85"/><polygon class="cls-11" points="2841.6 677.27 2936.1 591.95 3007.2 677.27 2841.6 677.27"/><polygon class="cls-12" points="3106.24 591.95 2936.1 591.95 3007.2 677.27 3011.74 677.27 3177.35 677.27 3106.24 591.95"/><path class="cls-13" d="M2811.21,856.73c13.82-9.66,17-27.59,16.41-43.7-.09-2.69.21-5.53-1.07-7.89s-4.27-4-6.68-2.84c-2,.94-2.87,3.27-4,5.19a15.84,15.84,0,0,1-6.31,6c-1.72.88-3.83,1.43-5.53.49-2.32-1.28-2.59-4.48-2.57-7.16l.09-15a24.64,24.64,0,0,0-.81-7.95c-.83-2.54-2.67-4.9-5.21-5.61s-5.69.75-6.23,3.37a24.61,24.61,0,0,0-.08,3.33,2.81,2.81,0,0,1-1.64,2.65c-1.07.32-2.14-.44-2.94-1.23-2.76-2.7-4.64-6.18-6.39-9.64s-3.45-7-5.95-10-6-5.28-9.81-5.49-7.91,2.14-8.88,5.9,1.23,7.6,3.63,10.66a59.69,59.69,0,0,0,12.43,11.85,4.92,4.92,0,0,1,2.08,2.23c.58,1.79-1.11,3.56-2.87,4.14-2,.67-4.16.46-6.25.71s-4.34,1.16-5.13,3.13c-1.1,2.74,1.19,5.61,3.44,7.48a51.17,51.17,0,0,0,15.14,8.74c2,.72,4,1.35,5.63,2.74s2.54,3.78,1.58,5.67-3.42,2.49-5.48,2.11-3.9-1.51-5.87-2.25c-3.68-1.39-8.42-1.13-10.78,2a8.45,8.45,0,0,0-.9,7.48,19.34,19.34,0,0,0,4.06,6.61,51.38,51.38,0,0,0,22,15.44c8.53,3,16.43,3.76,24.91.66"/><path class="cls-14" d="M2757.5,763.61s.08.1.26.26l.79.71c.7.62,1.73,1.53,3,2.74a101.62,101.62,0,0,1,10.22,11c2,2.48,4.06,5.29,6.23,8.34s4.45,6.35,6.72,9.89a119.07,119.07,0,0,1,6.6,11.43c1,2,2,4.19,2.89,6.37s1.88,4.39,2.84,6.63a243.92,243.92,0,0,1,9.53,25.75,118.34,118.34,0,0,1,4.46,22,87.61,87.61,0,0,1,.25,15.11c-.14,1.78-.27,3.16-.4,4.1l-.12,1.06a1.64,1.64,0,0,0,0,.36s-1.74,16.14.08-.35c0-.27.1-.62.17-1.06.16-.93.33-2.31.5-4.09a84.45,84.45,0,0,0-.1-15.16,116.76,116.76,0,0,0-4.37-22,237.81,237.81,0,0,0-9.52-25.81l-2.84-6.64c-.94-2.18-1.87-4.33-2.91-6.39a119.45,119.45,0,0,0-6.65-11.46c-2.29-3.55-4.6-6.83-6.77-9.88s-4.28-5.85-6.29-8.32a95.6,95.6,0,0,0-10.36-11c-1.32-1.19-2.37-2.08-3.1-2.68l-.82-.67Z"/><path class="cls-14" d="M2791.64,807.77a4.45,4.45,0,0,0,.26-1.14c.14-.74.31-1.81.5-3.15.38-2.66.78-6.36,1.2-10.43s.87-7.76,1.29-10.41c.2-1.33.38-2.4.51-3.14a5.43,5.43,0,0,0,.15-1.16,5.68,5.68,0,0,0-.34,1.12c-.19.73-.42,1.79-.67,3.12-.5,2.64-1,6.33-1.43,10.41s-.77,7.67-1.06,10.45c-.13,1.25-.24,2.31-.34,3.16A6.4,6.4,0,0,0,2791.64,807.77Z"/><path class="cls-14" d="M2757.25,801.34a7,7,0,0,0,1.37.17c.88.08,2.16.18,3.73.37,3.15.34,7.49,1,12.24,1.85s9,1.91,12.09,2.72c1.53.4,2.77.75,3.62,1a6.9,6.9,0,0,0,1.34.33,8.13,8.13,0,0,0-1.28-.51c-.84-.3-2.06-.71-3.59-1.15-3.05-.9-7.32-2-12.09-2.87a123.35,123.35,0,0,0-12.29-1.71c-1.59-.14-2.87-.2-3.76-.22A8.22,8.22,0,0,0,2757.25,801.34Z"/><path class="cls-14" d="M2806.62,846s.1-.13.24-.42l.59-1.24c.5-1.08,1.2-2.67,2-4.64,1.66-3.94,3.78-9.46,6-15.57s4.33-11.65,5.9-15.62c.78-1.93,1.41-3.51,1.88-4.69.21-.52.37-.94.51-1.29a1.4,1.4,0,0,0,.14-.46,2.87,2.87,0,0,0-.23.42c-.16.34-.36.75-.59,1.25-.51,1.08-1.2,2.67-2,4.64-1.66,3.94-3.78,9.45-6,15.57s-4.32,11.65-5.9,15.62c-.77,1.93-1.4,3.51-1.88,4.69-.2.51-.36.94-.5,1.28A2.78,2.78,0,0,0,2806.62,846Z"/><path class="cls-14" d="M2760.92,831.26s.15.08.45.19l1.33.44,4.89,1.59c4.14,1.34,9.82,3.26,16.1,5.38s12,4,16.16,5.25c2.08.63,3.77,1.12,4.94,1.44l1.35.35a1.47,1.47,0,0,0,.48.09,1.88,1.88,0,0,0-.45-.18l-1.33-.45-4.89-1.58c-4.13-1.34-9.82-3.26-16.1-5.39s-12-4-16.15-5.25c-2.08-.62-3.77-1.12-4.95-1.43l-1.35-.36A2.81,2.81,0,0,0,2760.92,831.26Z"/><path class="cls-1" d="M2495.25,1013.13H2055.3a49,49,0,0,1-49-49V524.21a49,49,0,0,1,49-49h439.95a49,49,0,0,1,49,49V964.16a49,49,0,0,1-49,49Z"/><polygon class="cls-9" points="2445.17 715.8 2285.25 587.85 2169.43 674.73 2192.57 876.17 2445.17 876.17 2445.17 715.8"/><polygon class="cls-8" points="2225.08 720.47 2164.91 674.73 2104.74 720.47 2104.74 876.17 2225.08 876.17 2225.08 720.47"/><path class="cls-1" d="M2164.91,724.57h0a28.6,28.6,0,0,1,28.59,28.59v74.43h-57.17V753.16a28.56,28.56,0,0,1,28.58-28.59Z"/><path class="cls-1" d="M2387.57,749.93h0a28.58,28.58,0,0,1,28.58,28.58V853H2359V778.51a28.58,28.58,0,0,1,28.59-28.58Z"/><path class="cls-1" d="M2286.1,632.92h0a28.58,28.58,0,0,1,28.58,28.58v48.15h-57.17V661.5a28.58,28.58,0,0,1,28.59-28.58Z"/><rect class="cls-6" x="2104.74" y="876.17" width="340.49" height="31.27"/><rect class="cls-6" x="2104.74" y="790.79" width="5.36" height="38.97"/><rect class="cls-6" x="2219.72" y="790.79" width="5.36" height="38.97"/><rect class="cls-6" x="2115.92" y="790.79" width="2.17" height="38.97"/><rect class="cls-6" x="2125.5" y="790.79" width="2.17" height="38.97"/><rect class="cls-6" x="2135.08" y="790.79" width="2.17" height="38.97"/><rect class="cls-6" x="2144.66" y="790.79" width="2.17" height="38.97"/><rect class="cls-6" x="2109.33" y="827.59" width="113.07" height="2.17"/><rect class="cls-6" x="2109.33" y="790.79" width="113.07" height="2.17"/><rect class="cls-6" x="2154.25" y="790.79" width="2.17" height="38.97"/><rect class="cls-6" x="2163.83" y="790.79" width="2.17" height="38.97"/><rect class="cls-6" x="2173.41" y="790.79" width="2.17" height="38.97"/><rect class="cls-6" x="2182.99" y="790.79" width="2.17" height="38.97"/><rect class="cls-6" x="2192.57" y="790.79" width="2.17" height="38.97"/><rect class="cls-6" x="2202.15" y="790.79" width="2.17" height="38.97"/><rect class="cls-6" x="2211.74" y="790.79" width="2.17" height="38.97"/><rect class="cls-10" x="2256.67" y="768.72" width="58.86" height="138.72"/><circle class="cls-9" cx="2306.46" cy="839.38" r="4.45"/><polygon class="cls-6" points="2231.59 728.85 2164.91 678.16 2098.23 728.85 2094.92 724.5 2164.91 671.29 2234.91 724.5 2231.59 728.85"/><polygon class="cls-6" points="2458.8 726.71 2285.25 587.85 2166.55 676.92 2163.27 672.54 2285.36 580.92 2462.22 722.44 2458.8 726.71"/><path class="cls-13" d="M2084.9,871.79c12-8.42,14.78-24,14.3-38.09-.08-2.34.18-4.82-.94-6.87s-3.71-3.46-5.81-2.48c-1.74.82-2.5,2.85-3.48,4.52a13.66,13.66,0,0,1-5.49,5.25c-1.5.78-3.34,1.25-4.82.44-2-1.12-2.26-3.91-2.24-6.24q0-6.52.08-13a21.69,21.69,0,0,0-.71-6.92,7.19,7.19,0,0,0-4.54-4.89c-2.22-.62-5,.65-5.43,2.94a21.53,21.53,0,0,0-.07,2.9,2.44,2.44,0,0,1-1.43,2.31,2.83,2.83,0,0,1-2.56-1.07,31.2,31.2,0,0,1-5.57-8.4,42.9,42.9,0,0,0-5.19-8.68c-2.18-2.56-5.2-4.6-8.54-4.79s-6.9,1.87-7.74,5.15,1.07,6.62,3.16,9.29a52,52,0,0,0,10.83,10.32,4.3,4.3,0,0,1,1.81,1.95c.51,1.56-1,3.1-2.5,3.61-1.74.58-3.62.4-5.44.62s-3.79,1-4.47,2.73c-1,2.38,1,4.88,3,6.52a44.59,44.59,0,0,0,13.19,7.61,15,15,0,0,1,4.9,2.39c1.39,1.2,2.22,3.3,1.39,4.94s-3,2.17-4.78,1.84a31.2,31.2,0,0,1-5.12-2c-3.2-1.21-7.34-1-9.39,1.78a7.39,7.39,0,0,0-.79,6.53,16.94,16.94,0,0,0,3.54,5.76,44.87,44.87,0,0,0,19.14,13.45c7.43,2.58,14.32,3.28,21.71.58"/><path class="cls-14" d="M2038.09,790.63s.07.09.22.23l.69.61c.61.54,1.51,1.34,2.65,2.4a86.51,86.51,0,0,1,8.9,9.61c1.74,2.16,3.54,4.61,5.43,7.27s3.88,5.53,5.86,8.61a105.65,105.65,0,0,1,5.75,10c.9,1.78,1.7,3.64,2.52,5.55l2.47,5.78a212.23,212.23,0,0,1,8.31,22.44,104,104,0,0,1,3.89,19.13,76.86,76.86,0,0,1,.22,13.17c-.12,1.55-.24,2.75-.35,3.57-.05.39-.08.69-.11.92a1.54,1.54,0,0,0,0,.32s-1.52,14.07.06-.31c0-.23.09-.53.15-.92.14-.81.29-2,.43-3.57a72.8,72.8,0,0,0-.08-13.21,102.43,102.43,0,0,0-3.81-19.22,210.13,210.13,0,0,0-8.29-22.49q-1.26-2.93-2.48-5.79c-.82-1.89-1.63-3.77-2.53-5.56a105.13,105.13,0,0,0-5.8-10c-2-3.09-4-5.94-5.9-8.6s-3.73-5.1-5.48-7.26a83.64,83.64,0,0,0-9-9.54c-1.15-1-2.07-1.81-2.7-2.33l-.72-.59Z"/><path class="cls-14" d="M2067.84,829.12a4.69,4.69,0,0,0,.23-1c.12-.64.27-1.58.43-2.74.33-2.32.68-5.54,1.05-9.1s.76-6.76,1.12-9.07c.18-1.15.33-2.09.45-2.73a4.73,4.73,0,0,0,.13-1,4.48,4.48,0,0,0-.29,1c-.17.64-.37,1.57-.59,2.72-.44,2.31-.88,5.52-1.25,9.08s-.67,6.68-.92,9.1c-.11,1.1-.21,2-.29,2.76A4.85,4.85,0,0,0,2067.84,829.12Z"/><path class="cls-14" d="M2037.87,823.52a6.13,6.13,0,0,0,1.19.14c.77.07,1.89.16,3.26.32,2.74.3,6.52.84,10.66,1.62s7.86,1.66,10.54,2.37c1.33.34,2.41.65,3.15.86a6.78,6.78,0,0,0,1.17.29,6,6,0,0,0-1.12-.45c-.73-.26-1.79-.61-3.12-1-2.66-.78-6.38-1.71-10.54-2.5a106.73,106.73,0,0,0-10.71-1.5c-1.38-.12-2.5-.16-3.28-.18A6.26,6.26,0,0,0,2037.87,823.52Z"/><path class="cls-14" d="M2080.9,862.43s.09-.12.21-.37l.51-1.08c.44-.94,1-2.33,1.77-4,1.44-3.44,3.29-8.24,5.26-13.58s3.77-10.15,5.14-13.61l1.64-4.09c.17-.44.32-.81.44-1.11s.14-.4.12-.41a2,2,0,0,0-.2.37l-.51,1.08c-.44.95-1.05,2.33-1.77,4-1.45,3.43-3.29,8.24-5.26,13.57s-3.77,10.15-5.14,13.61c-.68,1.68-1.23,3.06-1.64,4.09L2081,862A1.66,1.66,0,0,0,2080.9,862.43Z"/><path class="cls-14" d="M2041.07,849.59s.13.07.39.16l1.16.39,4.27,1.38c3.6,1.17,8.55,2.84,14,4.7s10.45,3.48,14.07,4.57c1.82.55,3.29,1,4.31,1.25l1.18.31a1.66,1.66,0,0,0,.42.08,1.57,1.57,0,0,0-.39-.16l-1.16-.39-4.27-1.38c-3.6-1.17-8.55-2.84-14-4.7s-10.45-3.48-14.07-4.57c-1.82-.55-3.29-1-4.31-1.25l-1.18-.31A1.66,1.66,0,0,0,2041.07,849.59Z"/><path class="cls-13" d="M2465.65,871.79c-12.05-8.42-14.78-24-14.31-38.09.08-2.34-.17-4.82.94-6.87s3.72-3.46,5.82-2.48c1.74.82,2.5,2.85,3.47,4.52a13.75,13.75,0,0,0,5.5,5.25c1.49.78,3.34,1.25,4.81.44,2-1.12,2.26-3.91,2.25-6.24q0-6.52-.08-13a21.69,21.69,0,0,1,.7-6.92,7.23,7.23,0,0,1,4.55-4.89c2.21-.62,5,.65,5.43,2.94a21.53,21.53,0,0,1,.06,2.9,2.46,2.46,0,0,0,1.44,2.31,2.84,2.84,0,0,0,2.56-1.07,31.16,31.16,0,0,0,5.56-8.4,43.37,43.37,0,0,1,5.19-8.68c2.19-2.56,5.21-4.6,8.55-4.79s6.89,1.87,7.74,5.15-1.07,6.62-3.16,9.29a52.26,52.26,0,0,1-10.84,10.32,4.36,4.36,0,0,0-1.81,1.95c-.51,1.56,1,3.1,2.5,3.61,1.74.58,3.63.4,5.44.62s3.79,1,4.48,2.73c.95,2.38-1,4.88-3,6.52a44.64,44.64,0,0,1-13.2,7.61,15,15,0,0,0-4.9,2.39c-1.38,1.2-2.22,3.3-1.38,4.94s3,2.17,4.78,1.84a31.45,31.45,0,0,0,5.11-2c3.21-1.21,7.34-1,9.4,1.78A7.36,7.36,0,0,1,2510,852a16.91,16.91,0,0,1-3.53,5.76,44.93,44.93,0,0,1-19.14,13.45c-7.44,2.58-14.32,3.28-21.71.58"/><path class="cls-14" d="M2512.46,790.63a1.3,1.3,0,0,1-.23.23l-.69.61c-.61.54-1.51,1.34-2.64,2.4a86.42,86.42,0,0,0-8.91,9.61c-1.73,2.16-3.54,4.61-5.42,7.27s-3.88,5.53-5.87,8.61a105.65,105.65,0,0,0-5.75,10c-.9,1.78-1.7,3.64-2.52,5.55s-1.63,3.83-2.47,5.78a214.47,214.47,0,0,0-8.31,22.44,103.93,103.93,0,0,0-3.88,19.13,75.83,75.83,0,0,0-.22,13.17c.12,1.55.24,2.75.35,3.57,0,.39.08.69.11.92s0,.32,0,.32,1.52,14.07-.07-.31c0-.23-.09-.53-.15-.92-.14-.81-.28-2-.43-3.57a72.8,72.8,0,0,1,.08-13.21,102.43,102.43,0,0,1,3.81-19.22,208.15,208.15,0,0,1,8.3-22.49c.83-2,1.66-3.88,2.47-5.79s1.63-3.77,2.54-5.56a105.1,105.1,0,0,1,5.79-10c2-3.09,4-5.94,5.91-8.6s3.72-5.1,5.48-7.26a82.76,82.76,0,0,1,9-9.54c1.15-1,2.07-1.81,2.69-2.33.31-.25.55-.44.72-.59Z"/><path class="cls-14" d="M2482.7,829.12a4.69,4.69,0,0,1-.23-1c-.12-.64-.27-1.58-.43-2.74-.33-2.32-.68-5.54-1-9.1s-.76-6.76-1.13-9.07c-.18-1.15-.33-2.09-.44-2.73a4,4,0,0,1-.13-1,5.33,5.33,0,0,1,.29,1c.16.64.36,1.57.58,2.72.44,2.31.88,5.52,1.25,9.08s.68,6.68.92,9.1l.3,2.76A4.36,4.36,0,0,1,2482.7,829.12Z"/><path class="cls-14" d="M2512.68,823.52a6.34,6.34,0,0,1-1.2.14c-.77.07-1.88.16-3.25.32-2.75.3-6.53.84-10.67,1.62s-7.86,1.66-10.53,2.37c-1.34.34-2.42.65-3.16.86a6.55,6.55,0,0,1-1.17.29,6,6,0,0,1,1.12-.45c.73-.26,1.8-.61,3.13-1,2.66-.78,6.38-1.71,10.53-2.5a107.27,107.27,0,0,1,10.72-1.5c1.38-.12,2.5-.16,3.27-.18A6.33,6.33,0,0,1,2512.68,823.52Z"/><path class="cls-14" d="M2469.64,862.43a1.65,1.65,0,0,1-.2-.37l-.52-1.08c-.44-.94-1-2.33-1.76-4-1.45-3.44-3.3-8.24-5.26-13.58s-3.77-10.15-5.15-13.61l-1.63-4.09c-.18-.44-.32-.81-.44-1.11a1.64,1.64,0,0,1-.13-.41,2.42,2.42,0,0,1,.21.37q.19.43.51,1.08c.44.95,1,2.33,1.76,4,1.45,3.43,3.3,8.24,5.27,13.57s3.77,10.15,5.14,13.61l1.64,4.09c.17.45.32.82.44,1.12S2469.66,862.42,2469.64,862.43Z"/><path class="cls-14" d="M2509.48,849.59a1.54,1.54,0,0,1-.4.16l-1.16.39-4.26,1.38c-3.6,1.17-8.56,2.84-14,4.7s-10.45,3.48-14.08,4.57c-1.81.55-3.29,1-4.31,1.25l-1.18.31a1.59,1.59,0,0,1-.42.08,2.16,2.16,0,0,1,.4-.16l1.15-.39,4.27-1.38c3.6-1.17,8.56-2.84,14-4.7s10.45-3.48,14.08-4.57c1.81-.55,3.28-1,4.31-1.25l1.18-.31A1.59,1.59,0,0,1,2509.48,849.59Z"/><path class="cls-5" d="M3877.66,1013.13H3437.71a49,49,0,0,1-49-49V524.21a49,49,0,0,1,49-49h439.95a49,49,0,0,1,49,49V964.16a49,49,0,0,1-49,49Z"/><path class="cls-4" d="M3837.73,726.85l3.43-4.28L3664.29,581.06l-120.07,90.1h0l-1.64,1.25-.37.28h0l-68,51.68,3.31,4.36,6.51-5V907.3h340.49V876h-.06V716.24ZM3663.89,588.21l.3-.22h0Z"/><path class="cls-5" d="M3877.66,1818.55H3437.71a49,49,0,0,1-49-49V1329.62a49,49,0,0,1,49-49h439.95a49,49,0,0,1,49,49v440a49,49,0,0,1-49,49Z"/><path class="cls-4" d="M3837.73,1532.26l3.43-4.27-176.87-141.51-120.07,90.09h0l-1.64,1.25-.37.28h0l-68,51.68,3.31,4.36,6.51-5v183.54h340.49v-31.28h-.06V1521.65Zm-173.84-138.64.3-.22h0Z"/><path class="cls-15" d="M2376.37,1162.12H2204.29a24.73,24.73,0,0,1-24.72-24.72v-52.3a24.72,24.72,0,0,1,24.72-24.72h172.08a24.72,24.72,0,0,1,24.72,24.72v52.3a24.72,24.72,0,0,1-24.72,24.72Z"/><path class="cls-16" d="M2376.37,1156.64H2204.29a24.73,24.73,0,0,1-24.72-24.72v-52.29a24.74,24.74,0,0,1,24.72-24.73h172.08a24.74,24.74,0,0,1,24.72,24.73v52.29a24.72,24.72,0,0,1-24.72,24.72Z"/><path class="cls-1" d="M2212.13,1110.26q2-5.12,3.15-8.15c.4-1.07.79-2.15,1.18-3.23a10.72,10.72,0,0,1,1.71-3,1.87,1.87,0,0,1,1.45-.69,1.9,1.9,0,0,1,1.35.54,1.68,1.68,0,0,1,.58,1.3,1.85,1.85,0,0,1-.36,1.06,13.34,13.34,0,0,0-1.34,2.54s-.35.92-1,2.67q-1.21,3.11-3.62,9.34a25.07,25.07,0,0,1-1.52,3.26,1.83,1.83,0,0,1-1.68,1,2,2,0,0,1-2-1.32,95.32,95.32,0,0,1-3.65-11.31c-.37-1.21-.74-2.43-1.12-3.64a14.61,14.61,0,0,1-.76-3.52,1.68,1.68,0,0,1,.6-1.32,2,2,0,0,1,1.32-.48,1.83,1.83,0,0,1,1.8,1.34c.18.79.36,1.56.54,2.34.3,1,.73,2.42,1.28,4.36Q2211.14,1107.3,2212.13,1110.26Z"/><path class="cls-1" d="M2234.82,1100c-.43,0-1.62-.13-3.55-.38-.12,1.66-.19,3.85-.19,6.59v6.06c1.19,0,2.41,0,3.65,0a1.79,1.79,0,0,1,1.34.54,1.8,1.8,0,0,1,0,2.58,1.89,1.89,0,0,1-1.37.53l-2.31,0c-1,0-1.8,0-2.32,0a24.61,24.61,0,0,0-2.72.23,23,23,0,0,1-2.73.24,1.89,1.89,0,0,1-1.37-.53,1.77,1.77,0,0,1-.55-1.29,1.74,1.74,0,0,1,.57-1.3,2,2,0,0,1,1.44-.53,20.87,20.87,0,0,0,2.58-.21q0-1.59,0-6.09c0-2.44.09-4.78.27-7l-2.93.08a1.87,1.87,0,0,1-1.35-.52,1.77,1.77,0,0,1-.55-1.31,1.7,1.7,0,0,1,.53-1.29,2,2,0,0,1,1.18-.53c.77-.07,2.1-.11,4-.11a49.12,49.12,0,0,1,6.6.57,1.68,1.68,0,0,1,1.61,1.86,1.63,1.63,0,0,1-.63,1.36A1.76,1.76,0,0,1,2234.82,1100Z"/><path class="cls-1" d="M2252.25,1098.64a2.37,2.37,0,0,1-.57-.08,16.34,16.34,0,0,0-4.24-.59,15.31,15.31,0,0,0-2.17.16c-.78.11-1.6.27-2.47.48,0,1.2,0,3-.12,5.33.5,0,2.26-.2,5.27-.5,1.71-.17,2.8-.26,3.26-.26a2,2,0,0,1,1.36.51,1.83,1.83,0,0,1-1.14,3.16l-3.23.27c-1.27.14-3.2.32-5.77.53q-.09,1.71-.09,2.76a7.35,7.35,0,0,0,.31,3,4.06,4.06,0,0,0,1.7.17c.55,0,1.4,0,2.52,0s2,0,2.52,0a6.57,6.57,0,0,0,.8-.08,6.34,6.34,0,0,1,.78-.08,2.09,2.09,0,0,1,1.33.44,1.84,1.84,0,0,1-.94,3.21,37.79,37.79,0,0,1-5.6.26q-4.4,0-5.73-1.19t-1.47-5.66q0-1.8.27-5.43c.17-2.41.26-4.21.26-5.41a10.26,10.26,0,0,0-.13-1.39,10.77,10.77,0,0,1-.14-1.4c0-1.36.63-2,1.89-2a1.87,1.87,0,0,1,1.09.34,28.29,28.29,0,0,1,3-.59,19.49,19.49,0,0,1,2.67-.19,15.54,15.54,0,0,1,5.43.78,1.72,1.72,0,0,1,1.24,1.71,1.77,1.77,0,0,1-.49,1.24A1.75,1.75,0,0,1,2252.25,1098.64Z"/><path class="cls-1" d="M2282.2,1098.63c-.15.37-.33.82-.54,1.36s-.4,1.29-.74,2.32c-.51,1.32-1.33,3.24-2.44,5.77s-2,4.49-2.45,5.75a18.22,18.22,0,0,1-1,2.27,2.09,2.09,0,0,1-1.93,1.12,2.45,2.45,0,0,1-1.39-.42,1.63,1.63,0,0,1-.78-1.28,13,13,0,0,1-.78-2.54q-.6-2.88-1.65-8.66a41.59,41.59,0,0,1-1.88,4.86,30.52,30.52,0,0,0-2,5.09,1.64,1.64,0,0,1-.62,2,2.47,2.47,0,0,1-1.43.45,2.64,2.64,0,0,1-1.64-.5,1.88,1.88,0,0,1-.72-1.51l-.42-1.58c-.3-1.4-.78-3.5-1.46-6.28q-.89-3.19-3-9.1a2,2,0,0,1-.12-.68,1.55,1.55,0,0,1,.62-1.28,2.17,2.17,0,0,1,1.34-.43,1.9,1.9,0,0,1,1.63.87,7.55,7.55,0,0,1,.77,1.71,112.81,112.81,0,0,1,3,11.08q1.08-2.62,2.19-6.2a39.22,39.22,0,0,1,1.47-4.14c.9-2,1.82-2.94,2.75-2.94a2,2,0,0,1,1.93,1.44,11.73,11.73,0,0,1,.58,2.5c.05.36.17,1.27.35,2.71s.76,4.35,1.7,8.43c.95-2.22,2.23-5.44,3.84-9.63.1-.26.33-1.08.7-2.48a7.57,7.57,0,0,1,1-2.39,2,2,0,0,1,1.72-.94,1.89,1.89,0,0,1,1.36.5,1.7,1.7,0,0,1,.54,1.3A5.7,5.7,0,0,1,2282.2,1098.63Z"/><path class="cls-1" d="M2302.34,1105.27q-.6,2.19-1.7,6.6c-.17,1-.33,2-.5,3-.36,1.28-1,1.91-2,1.91a1.84,1.84,0,0,1-1.47-.63,1.9,1.9,0,0,1-.46-1.28,19.38,19.38,0,0,1,.93-5.33q1.39-4.69,1.5-5.21c.26-1.39.52-2.77.79-4.15a10.93,10.93,0,0,1,1.32-3.81,2.12,2.12,0,0,1,1.78-1,1.9,1.9,0,0,1,1.81,1.24,23.45,23.45,0,0,1,1.16,4.8,67.42,67.42,0,0,0,1.76,7.57q1.55-4,2.86-8.79l.76-3.1c.48-1.28,1.23-1.93,2.25-1.93s1.71.75,2.18,2.24a22.67,22.67,0,0,1,.64,3.37,69.63,69.63,0,0,0,2,9.84q1.2,4.17,1.2,4.53a1.7,1.7,0,0,1-.63,1.34,2.05,2.05,0,0,1-1.33.48q-1.47,0-2.19-2.1l-.75-3.26q-.64-2.43-1.4-7-.62,1.8-2,5.67l-.81,2.48a13.88,13.88,0,0,1-1,2.42,2.22,2.22,0,0,1-2,1.25,2.13,2.13,0,0,1-1.94-1.5l-.75-2.5Q2303.18,1109.08,2302.34,1105.27Z"/><path class="cls-1" d="M2330.18,1116.75a10.4,10.4,0,0,1-6.8-2.3,7.83,7.83,0,0,1-3-6.35,13.48,13.48,0,0,1,2.87-8.35,9.83,9.83,0,0,1,8.12-4.25c3.13,0,5.49.72,7,2.16s2.34,3.6,2.34,6.48a14,14,0,0,1-2.64,8.31A9.35,9.35,0,0,1,2330.18,1116.75Zm1.2-17.6a6.25,6.25,0,0,0-5.15,2.92,9.9,9.9,0,0,0-2,6,4.44,4.44,0,0,0,1.74,3.64,6.49,6.49,0,0,0,4.22,1.35,5.84,5.84,0,0,0,5-2.91,10.45,10.45,0,0,0,1.82-6c0-1.89-.43-3.2-1.27-3.93S2333.44,1099.15,2331.38,1099.15Z"/><path class="cls-1" d="M2356.8,1116.09a1.9,1.9,0,0,1-1.33-.57,22.79,22.79,0,0,0-9-5.31q.15,3.91.15,4.35a1.75,1.75,0,0,1-.54,1.3,2,2,0,0,1-2.7,0,1.75,1.75,0,0,1-.54-1.3c0-.67,0-1.68,0-3s0-2.36,0-3l0-10.88a2.64,2.64,0,0,1,.53-1.59,2,2,0,0,1,1.9-.82l3.36.25a9.87,9.87,0,0,1,3.21.91q5.74,2.89,5.75,7.18a4.56,4.56,0,0,1-1.2,3.12,9.22,9.22,0,0,1-3.62,2.29,19.84,19.84,0,0,1,5.37,4.07,1.76,1.76,0,0,1,.48,1.2,1.74,1.74,0,0,1-.57,1.3A1.91,1.91,0,0,1,2356.8,1116.09Zm-8.64-17-1.58-.11v7.16h.6a11.08,11.08,0,0,0,4.89-.82,5.13,5.13,0,0,0,1.26-.93c.38-.39.57-.68.57-.88a3.79,3.79,0,0,0-1.91-2.91A7.73,7.73,0,0,0,2348.16,1099.13Z"/><path class="cls-1" d="M2374.24,1098.64a2.29,2.29,0,0,1-.56-.08,16.41,16.41,0,0,0-4.25-.59,15.42,15.42,0,0,0-2.17.16q-1.16.16-2.46.48c0,1.2-.05,3-.13,5.33.51,0,2.26-.2,5.28-.5,1.71-.17,2.8-.26,3.26-.26a2,2,0,0,1,1.36.51,1.83,1.83,0,0,1-1.15,3.16l-3.22.27q-1.92.21-5.77.53-.09,1.71-.09,2.76a7.35,7.35,0,0,0,.31,3,4.06,4.06,0,0,0,1.7.17c.55,0,1.39,0,2.52,0s2,0,2.52,0a6.28,6.28,0,0,0,.79-.08,6.34,6.34,0,0,1,.78-.08,2.1,2.1,0,0,1,1.34.44,1.84,1.84,0,0,1-.94,3.21,37.79,37.79,0,0,1-5.6.26q-4.4,0-5.73-1.19t-1.47-5.66q0-1.8.27-5.43c.17-2.41.26-4.21.26-5.41a10.65,10.65,0,0,0-.14-1.39,10.38,10.38,0,0,1-.13-1.4c0-1.36.63-2,1.89-2a1.87,1.87,0,0,1,1.09.34,28.29,28.29,0,0,1,3-.59,19.46,19.46,0,0,1,2.66-.19,15.56,15.56,0,0,1,5.44.78,1.72,1.72,0,0,1,1.24,1.71,1.82,1.82,0,0,1-.49,1.24A1.76,1.76,0,0,1,2374.24,1098.64Z"/><path class="cls-5" d="M3077.86,1955.44H2905.78a24.71,24.71,0,0,1-24.72-24.72v-52.29a24.72,24.72,0,0,1,24.72-24.72h172.08a24.72,24.72,0,0,1,24.72,24.72v52.29a24.72,24.72,0,0,1-24.72,24.72Z"/><path class="cls-5" d="M2372.13,1955.44H2200.06a24.71,24.71,0,0,1-24.73-24.72v-52.29a24.74,24.74,0,0,1,24.73-24.72h172.07a24.72,24.72,0,0,1,24.73,24.72v52.29a24.72,24.72,0,0,1-24.73,24.72Z"/><path class="cls-5" d="M3743.73,1955.44H3571.65a24.69,24.69,0,0,1-24.72-24.72v-52.29a24.72,24.72,0,0,1,24.72-24.72h172.08a24.72,24.72,0,0,1,24.72,24.72v52.29a24.72,24.72,0,0,1-24.72,24.72Z"/><path class="cls-7" d="M2716.87,2654.6c1.3,10.89,19.67,16.27,48.25,15s30.14-11.24,30-13.18S2716.87,2654.6,2716.87,2654.6Z"/><path class="cls-6" d="M2728.32,2607.09c-1.44,14.85,1.44,36.89-8.15,41.69s-2.39,13.41,36.9,13.89,43.6-4.79,33.06-14.37,3.36-40.25-6.23-43.61S2728.32,2607.09,2728.32,2607.09Z"/><path class="cls-7" d="M2418.46,2654.6c1.3,10.89,19.67,16.27,48.25,15s30.15-11.24,29.95-13.18S2418.46,2654.6,2418.46,2654.6Z"/><path class="cls-6" d="M2429.91,2607.09c-1.43,14.85,1.44,36.89-8.14,41.69s-2.4,13.41,36.89,13.89,43.61-4.79,33.07-14.37,3.35-40.25-6.23-43.61S2429.91,2607.09,2429.91,2607.09Z"/><path class="cls-10" d="M2902.92,2261.17c-24.67,191.43-102.14,349.58-113.12,352.76-14.86,4.3-37.13,3.12-65.32,0-16.48-1.82-37.25-164.21-52.71-309.22-7.73-72.35-14.12-140.41-18-182-1.65-17.74-2.85-30.68-3.52-37.12-6.68-65.31-7.42-224.16-15.57-53.44q-.6,12.26-1.87,26.1a1.32,1.32,0,0,0,0,.22c-17,183.25-121.08,557-143.68,555.54-23.76-1.47-52.62,6-66-4.34s-87.59-264.27-77.19-403.83,33-307.48,105.4-448.89c.49-.13,1-.29,1.49-.4a0,0,0,0,1,0,0c8.71-4.41,56.28-32.92,179.42-32.43,138.63.56,179.83,29,185.39,26.72,0,0,16.15,10,36.88,69,15.57,44.2,33.69,116,49.59,231.68C2913.79,2121.9,2911.65,2193.61,2902.92,2261.17Z"/><path class="cls-6" d="M2817.63,1750.79c-5.56,2.23-46.76-26.16-185.39-26.72-123.14-.49-170.71,28-179.42,32.43a0,0,0,0,0,0,0c-.51.11-1,.27-1.49.4l0,0c.72-2.74,70.51-107,88.79-207.3a243.25,243.25,0,0,0,4.34-49.24c0-1.71-.09-3.41-.18-5.1,0,0-14.29-37.68,50-83.44s211.1-33.47,211.1-33.47A947.21,947.21,0,0,0,2794,1585.09C2799.84,1688.35,2821.22,1749.37,2817.63,1750.79Z"/><path class="cls-6" d="M2452.8,1756.52c-1.09.53-1.56.71-1.49.4C2451.8,1756.79,2452.29,1756.63,2452.8,1756.52Z"/><path class="cls-7" d="M2615.83,1463.79c.49,7.62-27.61,54.23-75.71,85.81a243.25,243.25,0,0,0,4.34-49.24C2570.29,1478.43,2615.39,1457.25,2615.83,1463.79Z"/><path class="cls-1" d="M2977.54,977.25A191.8,191.8,0,0,0,2969,997c-9.21-5.06-40.41-13.25-52.56-14.18,2.85-7.36,5.54-14.56,8.05-21.53C2938.39,963.05,2964.52,972.2,2977.54,977.25Z"/><path class="cls-6" d="M2958.08,1032.87c-2.47,10-4.94,21.18-7.39,34-.22,1.23-.47,2.45-.69,3.7-22.2,119-43.38,387.07-235.36,341.29l5-147.6c77.85-37.74,142.19-154.32,182.76-247.49C2913.23,1022,2947.75,1031.82,2958.08,1032.87Z"/><path class="cls-1" d="M2268,1417.83c7.24-1,14.72-2,22.36-2.83-4.81,16.13-12,53.56-12.67,65.79-8.69-3.81-16.77-7.35-24.19-10.49C2255.88,1457.07,2261.14,1431.66,2268,1417.83Z"/><path class="cls-6" d="M2510.88,1529.78c-61.68,8.53-121-5.7-170.94-23.7-7-2.49-13.74-5.07-20.33-7.68,9.89-19.13,23-72.77,24.48-87.34,21.82-.89,43.71-1,64.18-.24,63.08,2.22,100.2-60.86,195.2-119.5,0,0,23.76,9.65,37.13,52.51S2643.94,1511.41,2510.88,1529.78Z"/><path class="cls-17" d="M2616.84,1081.25c-6.31,36.37-6.92,47.13-9,54.18s-16,18.93-13.53,20.79,13.41-2.23,13.53,2.6-20.29,32.29,2.35,50.47,45.28,30.81,45.65,60.5c0,0,72-41.94,63.1-89.08s-30.07-85-50.85-93.7S2616.84,1081.25,2616.84,1081.25Z"/><path class="cls-7" d="M2570.3,1405c6.83,34.55,50.81,39.56,56.38,76.86s14.78,77.45,36.06,81.59,51-24.19,79.18-81.59,74.6-85.74,73.49-121.37-27.47-50.29-19.67-114.12Z"/><path class="cls-18" d="M2616.53,1090.34c13.12,15.77,51.34,18.74,57.84,28.76s14.34,74.05,4.94,96.32,22.34,17.07,31.8-8.91,30.33-89.21-24.18-112.06S2616.53,1090.34,2616.53,1090.34Z"/><path class="cls-11" d="M2709.63,1498.42c-31.91,86.09-65.32,87.59-72.75,0s-47.5-36.38-75.72-113.57,65-115.8,101.7-155.52c20-21.56,24.26-50.46,23.83-73.54,0-3.49-.22-6.85-.44-10a239.18,239.18,0,0,0-4.08-28c-1.11-7.23-14.47-16-47.7-19.86-28.35-3.32-32.11-32-21.27-46.16a19.72,19.72,0,0,1,6.8-5.79s158.66,14.47,148,41c-10.49,26.25-21.07,52.33,13.09,106,.36.58.74,1.16,1.12,1.76,35.49,54.94-2.85,60.88,17.19,148.47S2741.54,1412.31,2709.63,1498.42Z"/><path class="cls-12" d="M2686.69,1155.79l94.44,37.26c-34.16-53.71-23.58-79.79-13.09-106,10.62-26.55-148-41-148-41a19.6,19.6,0,0,0-6.79,5.79l91,43.76-17.92,50.23Z"/><path class="cls-19" d="M2773.55,1091.93,2760,1087c0-.11.11-.21.15-.31.15-.29.28-.59.4-.87,39.3-83.49-85.82-152.16-133.1-62.43-1.63,3.08-3.18,6.35-4.61,9.82-.47,1.16-.93,2.34-1.4,3.54l-13.17-4.77-.43-.14c.48-1.31,1-2.6,1.5-3.89q2.22-5.46,4.93-10.73c8.73-16.91,21.47-31.91,38.59-40.77,21.72-11.64,48.51-12.24,71.28-3.19,22.93,8.84,42.21,26.83,51.81,49.47C2785.48,1044.75,2783.82,1070.55,2773.55,1091.93Z"/><path class="cls-20" d="M2760.52,1085.83c-.12.28-.25.58-.4.87,0,.1-.11.2-.15.31l-138.56-50.25c.47-1.2.93-2.38,1.4-3.54,1.43-3.47,3-6.74,4.61-9.82C2674.7,933.67,2799.82,1002.34,2760.52,1085.83Z"/><path class="cls-10" d="M2768.28,1108l-168.43-61.08a8.43,8.43,0,0,1,5.32-16l.44.14,13.16,4.77,138.56,50.25,13.57,4.92,3.14,1.14a8.44,8.44,0,0,1-5.76,15.86Z"/><path class="cls-17" d="M2665.09,1141.37c-3.34-34.7,29.88-60.12,48.25-39.53s-39.71,60.32-44.17,51.22S2665.09,1141.37,2665.09,1141.37Z"/><path class="cls-6" d="M2344.09,1411.06c-1.47,14.57-14.59,68.21-24.48,87.34-1.91,3.7-3.69,6.1-5.25,6.7-10.76,4.08-33.41-18.19-36.37-20.42-.38-.26-.46-1.67-.33-3.89.62-12.23,7.86-49.66,12.67-65.79,1.34-4.52,2.49-7.35,3.25-7.52,13.54-3,47.9-3.48,50.46,0C2344.31,1407.83,2344.31,1409.08,2344.09,1411.06Z"/><path class="cls-17" d="M2268,1417.83c-6.83,13.83-12.09,39.24-14.5,52.47-16.41-6.91-29.59-11.72-38.77-12.34-2.18-.16-4.4-.33-6.65-.58-40.53-4.05-92.73-20.31-88-25.59,5-5.56,54,8.91,101.33-4.45A377.39,377.39,0,0,1,2268,1417.83Z"/><path class="cls-6" d="M2960.93,1032.74c-.32.28-1.31.3-2.84.14-10.35-1.06-44.85-10.91-55.65-16.16-2.21-1.08-3.43-2-3.25-2.53,1.18-3.78,9.9-23.75,12.32-30.69.24-.69,2.06-.88,4.9-.64,12.15.93,43.35,9.12,52.56,14.18,1.5.83,2.42,1.58,2.57,2.18C2972.92,1004.52,2963.82,1030.27,2960.93,1032.74Z"/><path class="cls-17" d="M3014.56,914.91c-7,18.55-15,28.17-23.56,40.24a168.26,168.26,0,0,0-13.45,22.09c-13-5-39.15-14.18-53.09-15.92,14.31-39.84,22.89-73.15,24.71-91.52,6.46-65.38,6.15-91.77,14.19-74s-6,66,1.31,70.77S3032.37,867.66,3014.56,914.91Z"/><path class="cls-19" d="M2502.9,1804.61c8.75,2,78.68,9.28,92,7.8s1.86,119.5-21.15,128-86.85,4.45-89.82-16.7S2494,1802.62,2502.9,1804.61Z"/><circle class="cls-1" cx="2542.08" cy="1837.64" r="12.62"/><path class="cls-18" d="M2673.51,1141.33c-3.74-15,18.69-31.21,22.89-22.8s-10.45,7.55-11.61,10-5.43,6.12-8.22,7.21S2674.07,1143.55,2673.51,1141.33Z"/><path class="cls-7" d="M2339.94,1506.08c-7-2.49-13.74-5.07-20.33-7.68,9.89-19.13,23-72.77,24.48-87.34C2343.69,1439.41,2332.53,1488.89,2339.94,1506.08Z"/><circle class="cls-7" cx="2315.1" cy="1421.77" r="7.79"/><path class="cls-18" d="M2268,1417.83c-6.83,13.83-12.09,39.24-14.5,52.47-16.41-6.91-29.59-11.72-38.77-12.34-2.18-.16-4.4-.33-6.65-.58C2234.21,1456,2253.83,1446.45,2268,1417.83Z"/><path class="cls-18" d="M2991,955.15a168.26,168.26,0,0,0-13.45,22.09c-13-5-39.15-14.18-53.09-15.92,0,0,40.41,2.7,48.5,4.37C2976.74,966.47,2984.18,961.1,2991,955.15Z"/><path class="cls-7" d="M2958.08,1032.87c-2.47,10-4.94,21.18-7.39,34-.54-9.46-3.12-22-4.83-26-2.14-5-28.4-6.5-43.43-24.07C2913.23,1022,2947.75,1031.82,2958.08,1032.87Z"/><circle class="cls-7" cx="2919.51" cy="999.69" r="6.03"/><path class="cls-19" d="M2854.51,1819.74c-84.49-77.56-265.24-101.88-401.69-63.24,8.71-4.41,56.28-32.92,179.42-32.43,138.63.56,179.83,29,185.39,26.72C2817.63,1750.79,2833.78,1760.75,2854.51,1819.74Z"/><path class="cls-19" d="M2902.92,2261.17c-24.67,191.43-102.14,349.58-113.12,352.76-14.86,4.3-37.13,3.12-65.32,0C2750.22,2616,2857.05,2446.94,2902.92,2261.17Z"/><path class="cls-19" d="M2632.76,2058.44c-17,183.25-121.08,557-143.68,555.54-23.76-1.47-52.62,6-66-4.34C2522.5,2600.46,2630.24,2070.84,2632.76,2058.44Z"/><path class="cls-7" d="M2817.63,1750.79c-5.56,2.23-46.76-26.16-185.39-26.72-123.14-.49-170.71,28-179.42,32.43,79.77-91.44,299.12-64.72,321.39-44.68,13.27,11.94,15.85-61.44,19.8-126.73C2799.84,1688.35,2821.22,1749.37,2817.63,1750.79Z"/><path class="cls-17" d="M1913.84,1142.1c-6.3,31.27-29.69-3.78-48.62,47.2-8.81,23.73-39.81,98.2-78,167.1-22.78,41.13-48.12,80.28-72.8,105.47-19.37-27.15-42.89-90.33-52.31-175.37,0,0,0-.09,0-.11-.51-4.61-1-9.31-1.4-14.05,93-36,219-179,219-205.58,0-33.41,7.42-53.4,9.65-37.86s2.6,30.81,7.05,43S1920.17,1110.86,1913.84,1142.1Z"/><path class="cls-18" d="M1787.26,1356.4c-22.78,41.13-48.12,80.28-72.8,105.47-19.37-27.15-42.89-90.33-52.31-175.37,6.8,47.34,33.56,91.59,68.15,13.49C1752.12,1250.76,1775.88,1298.72,1787.26,1356.4Z"/><path class="cls-17" d="M1417.49,2666.83c-13-.33-42.67,0-63.45,0-1.93,0-4.52-3.74-7.59-10.67l0,0c-30.18-67.61-109-437.27-107.29-563.31,0,0,28.54,56.3,63.4,125.69,55,109.45,125.64,251.52,124.72,256.73s-19.22,69.3-33,119.14c-9,32.47-10.47,63.29-9.6,63.42C1386.87,2658.19,1430.47,2667.16,1417.49,2666.83Z"/><path class="cls-21" d="M1417.49,2666.83c-13-.33-42.67,0-63.45,0-1.93,0-4.52-3.74-7.59-10.67,3,2.92,6.26,5.75,8.26,6.35C1359.16,2663.8,1417.49,2666.83,1417.49,2666.83Z"/><path class="cls-18" d="M1427.26,2475.25c-.89,5.19-19.22,69.3-33,119.14-27.46-52.87-143.64-283.92-155.1-501.56,0,0,47.14,118.78,63.4,125.69C1357.52,2328,1428.18,2470,1427.26,2475.25Z"/><path class="cls-12" d="M1714.46,1461.87c-22.78,23.24-45,34.58-64.13,24.56-74.6-39.06-50.53-217.35-50.53-217.35,15.57,13.05,36.88,12.54,60.93,3.26C1669,1364.53,1694,1433.23,1714.46,1461.87Z"/><path class="cls-11" d="M1694.49,1750.78c0,9.38-.22,19.06-.56,29-34.45.38-75.49.51-120.36,0-98-1-214.34-5-321-15.74,35.07-193.34,108.31-315,183.8-417.08,20-27,40.13-52.66,59.77-77.92h0q10.36-13.32,20.49-26.54c12.54,3.88,83.2,8.64,107.89,9.15,25.61,80.5,68.7,226.74,69.93,476.82C1694.53,1735.84,1694.53,1743.25,1694.49,1750.78Z"/><path class="cls-12" d="M1694.49,1728.51s-38.7,27.57-120.92,51.31c-98-1-214.34-5-321-15.74,35.07-193.34,108.31-315,183.8-417.08,51.53-39.55,84-55.42,105.13-65.51,27-12.83,54.67,21.89,41.94,68.54s-56.72,254.89-52.27,294.42S1694.49,1728.51,1694.49,1728.51Z"/><path class="cls-7" d="M1661.29,970.26c23.61,9.37,27.73,32.21-11,44.31S1661.29,970.26,1661.29,970.26Z"/><path class="cls-17" d="M1663.69,1066.22c-10.27,15.27,8.33,22.75,1.83,54.35-3.21,15.57-14.57,25.12-26.73,31.74-12.49,6.81-25.81,10.46-31.91,14.29-1.24.81-2,2.54-2.22,5.06-.76,7.06,2,20.13,5.9,34.45-17-.78-49.6,1.07-66.65.22,1.49-2.56,3-5.3,4.5-8.15a317,317,0,0,0,15.58-34.47c10.78-28.1,18.51-59.9,16.19-85.29a131.81,131.81,0,0,0,12.5,7.08c1.47.74,3,1.43,4.43,2.09.33.16.69.29,1,.45l8.73-33a112.32,112.32,0,0,0-8.06-16.83,65.88,65.88,0,0,0-10.42-13.76c13.29-9.78,23.49-23.52,28.77-25.81s26.63-6.13,42.84-15.21c-.49,2.09-1,4.54-1.53,7.37a87.64,87.64,0,0,0-.45,27.66c3.48,24.85,19.42,21.49,22.58,25.9S1674,1050.92,1663.69,1066.22Z"/><path class="cls-17" d="M1594.66,2666.54a4.53,4.53,0,0,1-.56,0h-70.64c-3.51,0-11.89-6-23.71-17.5-54.23-52.62-180.6-219.64-238.19-441.17q-6.45-24.75-11.67-50.37c-4.3-21.15-7.93-42.73-10.75-64.69,118.11,26.83,300.29,20.13,419.05,10.91-43.11,271.82-108.72,549.08-104.17,550.6C1560.5,2656.5,1599.47,2666,1594.66,2666.54Z"/><path class="cls-22" d="M1661.12,975.46c.43,1.47-.22,4.08-1.12,7.93-16.22,9.1-37.54,12.89-42.86,15.21s-15.46,16-28.77,25.82c11.44,11.07,18.49,30.59,18.49,30.59l-8.74,33-1-.45a130.84,130.84,0,0,1-16.94-9.18,73.78,73.78,0,0,0-2.94-15.39s-1.92-9.66-4-21c-.52-2.93-1.06-6-1.57-9-1-5.63-1.83-11.16-2.41-15.71a81.08,81.08,0,0,1-.74-8.12c-.22-11.37,5-19.73,31.06-39.07S1659.86,971.25,1661.12,975.46Z"/><path class="cls-6" d="M1677.71,965.68c-3,7.49-9.73,13.24-17.71,17.71-16.22,9.1-37.54,12.89-42.86,15.21s-15.46,16-28.77,25.82c-5.45-5.29-11.91-8.66-19.07-7.06a22.59,22.59,0,0,0-9.25,4.73c-.68.55-1.33,1.11-1.94,1.67-18.8,17.39,11,34.4,34.52,49.5.52,5.6-2.86,15.75-3.26,21.86-1.38,21.61-17,46.68-25.38,68.59-15.31,2.91-33.39-.24-45.51-18.29a63.53,63.53,0,0,1-5.26-9.33c-12.32-27.46,12.48-38.45,14.16-44.51,1.57-5.74-32.28,1.68-39.74-31a69.78,69.78,0,0,1-1.21-20.4c3.88-56,54.52-50.48,59.6-50.32s-20.82-17.61,9.37-44.77,60.65-3.84,68.17-2.34-.57-9.21,25.37-16.86S1686.76,943,1677.71,965.68Z"/><path class="cls-7" d="M1589,1085.8a51.34,51.34,0,0,1-8.67,10.23c-15.76,15.08-45.89,33.71-67.1,40.06-12.32-27.46,12.48-38.45,14.16-44.51,1.57-5.74-32.28,1.68-39.74-31,19.39-10.68,63.08-30,70.47-36.81C1558.11,1023.76,1600.56,1066.19,1589,1085.8Z"/><path class="cls-18" d="M1660,983.39c-.49,2.09-1,4.56-1.55,7.37-8.4,5.69-30.89,9.88-41.4,15-9.46,4.58-14.49,17.5-18.26,32.45a65.63,65.63,0,0,0-10.42-13.76c13.31-9.78,23.5-23.52,28.77-25.82S1643.78,992.49,1660,983.39Z"/><path class="cls-18" d="M1638.8,1152.31c-12.5,6.81-25.82,10.47-31.92,14.3-1.25.8-2,2.54-2.23,5-8.66-3.8-19.52-7.41-15.22-6.8C1595.84,1165.75,1621.42,1161,1638.8,1152.31Z"/><path class="cls-17" d="M1606.86,1055l-9.52,36.43-1-.45c-5.73-2.58-10.71-9.09-16.15-12.58-24.29-15.58-42-38.69-20.13-56.32a22.59,22.59,0,0,1,9.25-4.73c7.16-1.6,13.62,1.77,19.07,7.06C1599.81,1035.49,1606.86,1055,1606.86,1055Z"/><path class="cls-18" d="M1593.27,1066.77c3.84-13.11-14.83-36.15-20.91-25.44s9.09,7.66,13.22,13.7S1592.29,1070.1,1593.27,1066.77Z"/><path class="cls-11" d="M1633.07,1251.4c-.22.32-3.36.38-8.51.29-24.69-.51-95.35-5.27-107.89-9.15-1.31-.4-2-.78-1.91-1.16.84-4.74,25.07-35.34,25.07-35.34,1.23.11,2.58.2,4.08.29,17,.85,49.7-1,66.65-.22,5.68.27,9.57.82,10.55,1.87C1625.28,1212.43,1634.47,1249.47,1633.07,1251.4Z"/><path class="cls-6" d="M1693.93,1779.8c-3,92.28-17.3,207.61-35.74,323.94-118.76,9.22-300.94,15.92-419-10.91a843.49,843.49,0,0,1-6.35-146.08q2.18-48.11,6.84-91.64,5.07-48.06,13-91c106.64,10.73,223,14.69,321,15.74C1618.44,1780.31,1659.48,1780.18,1693.93,1779.8Z"/><path class="cls-17" d="M1893.44,1620.89c-10.29,8.13-37.37,31.17-79.64,56.11h0c-70.79,41.78-184.18,88.81-332.69,79.79-153.35-9.33-221.51-79.16-190-185.76a263.77,263.77,0,0,1,15.33-39.22c97.07-28.52,170.64-23,211-15.27-3.41,13.45-4.66,25.18-2.65,34.33,5.74,26.15,77.09,42.47,156.32,49.62h.05a1047.46,1047.46,0,0,0,117.49,3.9c42.55-1.09,77.9-5.26,94.42-12.32C1947.62,1564.46,1939.45,1584.5,1893.44,1620.89Z"/><path class="cls-11" d="M1517.41,1516.54c-40.4-7.71-114-13.25-211,15.27,23.64-49.28,65.93-104.79,128-164.65,68.28-65.87,135.84-123.6,154.15-70.15C1603.7,1341.48,1534.24,1449.93,1517.41,1516.54Z"/><path class="cls-12" d="M1624.56,1251.69c-54,.23-100.65,7-128.38,17.39q10.36-13.32,20.49-26.54C1529.21,1246.42,1599.87,1251.18,1624.56,1251.69Z"/><path class="cls-21" d="M1594.66,2666.54a4.53,4.53,0,0,1-.56,0h-70.64c-3.51,0-11.89-6-23.71-17.5,9.26,5.66,20.77,12.63,23.47,13.3C1527.61,2663.42,1588.24,2666.25,1594.66,2666.54Z"/><path class="cls-6" d="M1596.61,2669.47h-79.2a1.6,1.6,0,0,1,0-3.2h79.2a1.6,1.6,0,1,1,0,3.2Z"/><path class="cls-6" d="M1567.21,2667.59a1.07,1.07,0,0,1-1-.67,7.2,7.2,0,0,1,1.3-7.64,5.54,5.54,0,0,1,5.37-2,1.05,1.05,0,0,1,.74,1.31,1.07,1.07,0,0,1-1.31.74,3.58,3.58,0,0,0-3.22,1.41,5.05,5.05,0,0,0-.9,5.42,1.07,1.07,0,0,1-.59,1.39A1.12,1.12,0,0,1,1567.21,2667.59Z"/><path class="cls-6" d="M1424.21,2669.76H1345a1.6,1.6,0,0,1,0-3.2h79.2a1.6,1.6,0,0,1,0,3.2Z"/><path class="cls-6" d="M1393.14,2669a1,1,0,0,1-1-.67,7.2,7.2,0,0,1,1.29-7.64,5.56,5.56,0,0,1,5.37-2,1.07,1.07,0,0,1-.57,2.06,3.56,3.56,0,0,0-3.21,1.4,5.08,5.08,0,0,0-.91,5.43,1,1,0,0,1-.59,1.38A.92.92,0,0,1,1393.14,2669Z"/><path class="cls-18" d="M1658.19,2103.74c-139.87,58.61-305.71,60.35-408.3,53.78-4.3-21.15-7.93-42.73-10.75-64.69C1357.25,2119.66,1539.43,2113,1658.19,2103.74Z"/><path class="cls-7" d="M1573.57,1779.82c-112.7,40.17-253.31,73.4-333.94,75.29q5.07-48.06,13-91C1359.23,1774.81,1475.59,1778.77,1573.57,1779.82Z"/><path class="cls-18" d="M1813.8,1677h0c-1.85-1.22-110.56-72.06-142.65-76.51a1047.46,1047.46,0,0,0,117.49,3.9C1802.07,1628.1,1813.8,1677,1813.8,1677Z"/><path class="cls-1" d="M2029.46,1395.86c3.85,25.41-198.21,278.61-211.24,284s-133.21-256.65-137.5-269.76,106.48-232.72,129.94-216S2026.75,1378,2029.46,1395.86Z"/><path class="cls-18" d="M1517.41,1516.54c-119.5,1.11-194.12,35.47-226.37,54.49a263.77,263.77,0,0,1,15.33-39.22C1403.44,1503.29,1477,1508.83,1517.41,1516.54Z"/><path class="cls-18" d="M1610.56,1206.11c-17-.78-49.6,1.07-66.65.22,1.49-2.56,3-5.3,4.5-8.15C1561.61,1202.14,1594.86,1202,1610.56,1206.11Z"/><rect class="cls-8" x="1749.41" y="1343.76" width="79.47" height="103.84" transform="translate(1528.52 -858.44) rotate(45.45)"/><path class="cls-1" d="M1812.89,1371.41h0a11.21,11.21,0,0,1-.12,15.84l-13.45,13.24-15.71-16,13.44-13.24a11.2,11.2,0,0,1,15.84.13Z"/><rect class="cls-9" x="1804.84" y="1401.16" width="81.64" height="103.84" transform="translate(1586.3 -881.58) rotate(45.45)"/><rect class="cls-6" x="1761.6" y="1357.87" width="20.07" height="3.54" transform="translate(-444.72 1633.65) rotate(-44.55)"/><rect class="cls-6" x="1814.86" y="1411.98" width="20.07" height="3.54" transform="translate(-467.37 1686.57) rotate(-44.55)"/><rect class="cls-6" x="1766.03" y="1363.44" width="20.07" height="1.43" transform="translate(-446.61 1638.06) rotate(-44.55)"/><rect class="cls-6" x="1770.47" y="1367.95" width="20.07" height="1.43" transform="translate(-448.5 1642.47) rotate(-44.55)"/><rect class="cls-6" x="1774.91" y="1372.46" width="20.07" height="1.43" transform="translate(-450.39 1646.88) rotate(-44.55)"/><rect class="cls-6" x="1779.35" y="1376.96" width="20.07" height="1.43" transform="translate(-452.27 1651.29) rotate(-44.55)"/><rect class="cls-6" x="1791.4" y="1356.46" width="1.12" height="74.66" transform="translate(-462.84 1657.73) rotate(-44.55)"/><rect class="cls-6" x="1804.9" y="1343.17" width="1.12" height="74.66" transform="translate(-449.63 1663.38) rotate(-44.55)"/><rect class="cls-6" x="1783.79" y="1381.47" width="20.07" height="1.43" transform="translate(-454.16 1655.7) rotate(-44.55)"/><rect class="cls-6" x="1788.23" y="1385.98" width="20.07" height="1.43" transform="translate(-456.05 1660.11) rotate(-44.55)"/><rect class="cls-6" x="1792.67" y="1390.49" width="20.07" height="1.43" transform="translate(-457.94 1664.52) rotate(-44.55)"/><rect class="cls-6" x="1797.11" y="1395" width="20.07" height="1.43" transform="translate(-459.82 1668.93) rotate(-44.55)"/><rect class="cls-6" x="1801.55" y="1399.51" width="20.07" height="1.43" transform="translate(-461.71 1673.34) rotate(-44.55)"/><rect class="cls-6" x="1805.98" y="1404.02" width="20.07" height="1.43" transform="translate(-463.6 1677.75) rotate(-44.55)"/><rect class="cls-6" x="1810.42" y="1408.53" width="20.07" height="1.43" transform="translate(-465.49 1682.16) rotate(-44.55)"/><rect class="cls-10" x="1757.86" y="1395.31" width="18.12" height="42.71" transform="translate(1536.85 -836.33) rotate(45.45)"/><circle class="cls-9" cx="1771.03" cy="1421.42" r="1.37"/><polygon class="cls-11" points="1798.27 1330.94 1859.26 1334.53 1854.02 1387.57 1798.27 1330.94"/><polygon class="cls-12" points="1916.53 1392.71 1859.26 1334.53 1854.02 1387.57 1855.55 1389.12 1911.3 1445.74 1916.53 1392.71"/><path class="cls-13" d="M1726.67,1381c8,1.47,15.14-3.49,20.47-9.1.89-.94,2-1.79,2.33-3a2.62,2.62,0,0,0-1.27-3.24c-1-.37-2.08.12-3.12.38a7.52,7.52,0,0,1-4.18-.13,2.84,2.84,0,0,1-2-1.72c-.34-1.22.66-2.39,1.58-3.29l5.15-5a12.07,12.07,0,0,0,2.44-2.95,4,4,0,0,0,.16-3.68,2.41,2.41,0,0,0-3.25-1,12,12,0,0,0-1.16,1.1,1.36,1.36,0,0,1-1.46.32,1.53,1.53,0,0,1-.57-1.41,16.75,16.75,0,0,1,1.15-5.43,23.75,23.75,0,0,0,1.39-5.39,6.89,6.89,0,0,0-1.42-5.2,4.14,4.14,0,0,0-5-1c-1.61.94-2.18,3-2.42,4.82a28.87,28.87,0,0,0,.13,8.25,2.34,2.34,0,0,1-.06,1.46c-.41.8-1.59.82-2.38.41a14.63,14.63,0,0,1-2.34-1.9,2.92,2.92,0,0,0-2.81-.7c-1.3.55-1.51,2.3-1.39,3.7a24.59,24.59,0,0,0,2.1,8.12,8.1,8.1,0,0,1,1,2.84,2.37,2.37,0,0,1-1.4,2.45,2.42,2.42,0,0,1-2.57-1.16,17.48,17.48,0,0,1-1.21-2.76c-.76-1.73-2.45-3.27-4.33-3a4,4,0,0,0-2.86,2.21,9.19,9.19,0,0,0-.89,3.61,24.68,24.68,0,0,0,2.11,12.71c1.86,3.91,4.25,6.88,8.16,8.74"/><path class="cls-14" d="M1740.43,1331.25v.17c0,.13,0,.3,0,.51,0,.45,0,1.11.08,2a48.88,48.88,0,0,1-.33,7.21c-.18,1.51-.45,3.17-.76,4.94s-.67,3.65-1.12,5.62a57.92,57.92,0,0,1-1.68,6.11c-.36,1-.78,2.07-1.21,3.13l-1.31,3.2a117,117,0,0,1-5.6,11.93,57.14,57.14,0,0,1-6,8.92,42.44,42.44,0,0,1-5.08,5.17c-.66.55-1.18,1-1.54,1.24l-.4.32-.14.11s-6.1,4.84.15-.09l.42-.3c.37-.26.9-.67,1.57-1.21a40.72,40.72,0,0,0,5.15-5.14,57.2,57.2,0,0,0,6.07-8.91,115.31,115.31,0,0,0,5.62-12l1.31-3.2c.43-1.06.85-2.1,1.21-3.15a58.9,58.9,0,0,0,1.68-6.13c.44-2,.78-3.87,1.09-5.64s.56-3.43.73-5a44.93,44.93,0,0,0,.26-7.23c0-.86-.09-1.52-.13-2,0-.22,0-.39,0-.51S1740.43,1331.25,1740.43,1331.25Z"/><path class="cls-14" d="M1736.83,1357.79l.47-.3c.3-.2.73-.5,1.25-.89,1-.76,2.43-1.87,4-3.1s2.94-2.32,4-3.07l1.25-.88a2,2,0,0,0,.44-.34,3.1,3.1,0,0,0-.49.27c-.31.18-.76.46-1.29.82-1.08.71-2.51,1.78-4.05,3l-3.92,3.16-1.2,1A2,2,0,0,0,1736.83,1357.79Z"/><path class="cls-14" d="M1727.44,1343.86a4.52,4.52,0,0,0,.41.53c.27.32.66.8,1.13,1.4,1,1.19,2.19,2.88,3.49,4.81s2.38,3.72,3.13,5c.39.66.68,1.2.89,1.58a3.31,3.31,0,0,0,.34.57,4.15,4.15,0,0,0-.26-.62c-.18-.38-.46-.94-.82-1.61-.72-1.35-1.79-3.16-3.09-5.1a57.31,57.31,0,0,0-3.55-4.78c-.48-.59-.9-1-1.19-1.36A3.82,3.82,0,0,0,1727.44,1343.86Z"/><path class="cls-14" d="M1728.8,1375.78l.22-.06.63-.22c.54-.19,1.31-.49,2.26-.87,1.91-.76,4.51-1.89,7.36-3.18s5.44-2.44,7.33-3.24l2.24-.94.6-.25.21-.11a.63.63,0,0,0-.22.06l-.63.22c-.54.19-1.31.49-2.26.87-1.91.76-4.51,1.89-7.36,3.18s-5.44,2.44-7.33,3.24l-2.24.93-.6.26A.72.72,0,0,0,1728.8,1375.78Z"/><path class="cls-14" d="M1718.45,1355.19a.67.67,0,0,0,.09.22c.08.16.18.36.29.6l1.11,2.21c.93,1.86,2.19,4.45,3.58,7.32s2.67,5.44,3.64,7.29c.49.92.89,1.66,1.17,2.17l.34.58a1.23,1.23,0,0,0,.13.2s0-.08-.09-.22-.18-.36-.29-.6l-1.11-2.21c-.93-1.87-2.19-4.46-3.58-7.32s-2.67-5.44-3.64-7.29c-.49-.92-.89-1.66-1.18-2.17l-.33-.59A.88.88,0,0,0,1718.45,1355.19Z"/><path class="cls-7" d="M3549,2642.43V1977.6c0-11.08,7.49-20.06,16.72-20.06s16.71,9,16.71,20.06v664.83c0,11.09-7.48,20.07-16.71,20.07S3549,2653.52,3549,2642.43Z"/><path class="cls-6" d="M3601.45,2669.76h-79.78c-17.36-15.25-6.78-34.58,8.31-34.58h79.78C3627.12,2650.43,3616.54,2669.76,3601.45,2669.76Z"/><path class="cls-6" d="M3866.59,1995.25H3264.85a21,21,0,1,1,0-42h601.74a21,21,0,0,1,0,42Z"/><path class="cls-23" d="M3460.75,1773.39c-6.57,13.15-75.57,175.5-77.29,180s37.79-4,50.43-3,40.49,11.39,40.49,11.39,15.72-61.38,15.94-63.7S3460.75,1773.39,3460.75,1773.39Z"/><path class="cls-23" d="M3535.26,1782.83c-4.52-18-6.09-53.79,8.92-73.33,6.79-8.84,16.1-13.42,27.68-13.59,9.88-.16,18.07,4.07,24.33,12.55,17.1,23.15,13.92,71,13.26,73l-5.91-1.92a1.36,1.36,0,0,0-.06.24c.68-3.7,2.88-49.82-13.59-69.3-4.85-5.75-10.72-8.49-17.94-8.38-9.58.14-17.27,3.9-22.85,11.16-12.95,16.86-12.37,49.93-7.82,68Z"/><path class="cls-24" d="M3716.4,1843c1,5.4-255.65,20.53-256.91,11.17,0,0,0,0,0,0-2.74-41.74-3.22-79.89,1.28-80.71,1.61-2.43,238.55-1.44,241-.16C3702.86,1773.78,3709.49,1806.13,3716.4,1843Z"/><path class="cls-25" d="M3733.32,1949.28c-2,9.69-249.61,16.89-258.94,12.49-5.09-2.4-11.61-57.6-14.89-107.63,1.26,9.36,257.92-5.77,256.91-11.17C3725.19,1889.78,3734.42,1943.85,3733.32,1949.28Z"/><path class="cls-1" d="M3558.85,1838.08c-3.22,1.06-3.69,32.58,3.39,36s69.76-1.93,71.81-5-3.65-33.28-10.8-34S3558.85,1838.08,3558.85,1838.08Z"/><rect class="cls-1" x="670.25" y="438.37" width="655.07" height="999.46"/><polygon class="cls-4" points="679.23 913.01 829.21 913.01 829.21 1109.71 960.39 1109.71 960.39 784.98 1039.39 666.14 1121.67 783.15 1121.67 990.31 1222.47 990.31 1222.47 1306.6 1325.32 1306.6 1315.46 1435.84 679.23 1435.84 679.23 913.01"/><rect class="cls-5" x="645.77" y="446.71" width="48.96" height="1016.96"/><rect class="cls-5" x="1300.84" y="446.71" width="48.96" height="1016.96"/><rect class="cls-5" x="972.52" y="95.47" width="48.96" height="702.47" transform="translate(1443.71 -550.3) rotate(90)"/><rect class="cls-5" x="972.52" y="1086.6" width="48.96" height="702.47" transform="translate(2434.84 440.83) rotate(90)"/><rect class="cls-5" x="1227.15" y="464.92" width="9.64" height="307.66"/><rect class="cls-5" x="731.06" y="467.64" width="9.64" height="307.66"/><rect class="cls-5" x="1263.88" y="464.92" width="9.64" height="531.96"/><ellipse class="cls-5" cx="1268.7" cy="1027.41" rx="24.91" ry="45"/><rect class="cls-26" x="645.77" y="464.92" width="704.03" height="37.43"/><rect class="cls-26" x="645.77" y="526.34" width="704.03" height="37.42"/><rect class="cls-26" x="645.77" y="580.4" width="704.03" height="37.43"/><rect class="cls-26" x="645.77" y="638.23" width="704.03" height="37.43"/><rect class="cls-26" x="645.77" y="696.05" width="704.03" height="37.43"/><rect class="cls-26" x="645.77" y="753.88" width="704.03" height="37.42"/><path class="cls-13" d="M864.36,1252.75c31-21.7,38.09-62,36.86-98.15-.2-6,.46-12.41-2.41-17.72s-9.58-8.92-15-6.37c-4.49,2.11-6.44,7.33-9,11.64a35.36,35.36,0,0,1-14.17,13.54c-3.85,2-8.61,3.21-12.41,1.12-5.21-2.88-5.82-10.08-5.78-16.09l.21-33.59c0-6,0-12.15-1.82-17.85s-6-11-11.71-12.6-12.79,1.69-14,7.58c-.51,2.44,0,5-.17,7.48s-1.33,5.25-3.7,6-4.81-1-6.6-2.76c-6.2-6.07-10.41-13.88-14.35-21.66s-7.75-15.73-13.37-22.34-13.41-11.86-22-12.35-17.77,4.82-20,13.27,2.76,17.07,8.14,23.92a133.78,133.78,0,0,0,27.93,26.62c1.89,1.35,3.94,2.8,4.67,5,1.3,4-2.49,8-6.45,9.3-4.48,1.49-9.34,1-14,1.58s-9.76,2.61-11.53,7c-2.47,6.14,2.67,12.58,7.72,16.8a115.07,115.07,0,0,0,34,19.63c4.42,1.62,9.07,3,12.64,6.14s5.71,8.51,3.56,12.74-7.68,5.59-12.31,4.73-8.78-3.37-13.19-5c-8.26-3.11-18.92-2.54-24.21,4.59-3.48,4.69-3.78,11.23-2,16.82s5.32,10.41,9.1,14.85c13.24,15.53,30.18,28,49.34,34.67s36.9,8.44,55.94,1.48"/><path class="cls-14" d="M743.72,1043.61a5.46,5.46,0,0,0,.58.57l1.79,1.59c1.57,1.39,3.89,3.44,6.81,6.17a226.28,226.28,0,0,1,23,24.77c4.47,5.57,9.12,11.88,14,18.73s10,14.25,15.11,22.2a275.06,275.06,0,0,1,14.83,25.69c2.31,4.59,4.38,9.4,6.48,14.3l6.38,14.9c8.54,20.15,16,39.63,21.41,57.82a268.66,268.66,0,0,1,10,49.31,196.81,196.81,0,0,1,.56,33.93c-.31,4-.62,7.11-.9,9.2-.12,1-.21,1.8-.28,2.39a4.22,4.22,0,0,0-.06.82s-3.91,36.25.17-.8c.1-.59.23-1.38.39-2.38.35-2.08.73-5.18,1.11-9.19a187.15,187.15,0,0,0-.22-34.05,263.75,263.75,0,0,0-9.81-49.52c-5.33-18.27-12.83-37.81-21.38-58l-6.38-14.91c-2.1-4.89-4.19-9.73-6.53-14.35a269.34,269.34,0,0,0-14.94-25.75c-5.15-8-10.32-15.33-15.21-22.18s-9.6-13.14-14.12-18.69a213.61,213.61,0,0,0-23.27-24.59c-3-2.68-5.33-4.68-7-6l-1.85-1.51A4,4,0,0,0,743.72,1043.61Z"/><path class="cls-14" d="M820.42,1142.79a13.13,13.13,0,0,0,.58-2.57c.32-1.66.69-4.07,1.12-7.07.85-6,1.74-14.28,2.69-23.44s2-17.42,2.89-23.38c.46-3,.86-5.38,1.15-7a12.34,12.34,0,0,0,.34-2.61,11.59,11.59,0,0,0-.76,2.52c-.42,1.63-.94,4-1.5,7-1.14,5.94-2.27,14.22-3.22,23.39s-1.74,17.22-2.37,23.47c-.3,2.82-.56,5.19-.76,7.1A11.33,11.33,0,0,0,820.42,1142.79Z"/><path class="cls-14" d="M743.16,1128.35a16.9,16.9,0,0,0,3.08.37c2,.18,4.85.41,8.39.83,7.07.76,16.81,2.16,27.49,4.17s20.26,4.28,27.14,6.11c3.45.89,6.22,1.68,8.14,2.22a17.47,17.47,0,0,0,3,.74,16.56,16.56,0,0,0-2.89-1.16c-1.89-.66-4.63-1.58-8.06-2.57-6.86-2-16.44-4.4-27.15-6.44a270.56,270.56,0,0,0-27.62-3.86c-3.55-.31-6.44-.43-8.44-.47A15.59,15.59,0,0,0,743.16,1128.35Z"/><path class="cls-14" d="M854.07,1228.64a4.75,4.75,0,0,0,.53-1c.35-.75.79-1.67,1.32-2.79,1.13-2.43,2.69-6,4.55-10.42,3.72-8.85,8.49-21.24,13.56-35s9.72-26.16,13.25-35.07l4.22-10.55c.46-1.15.83-2.1,1.14-2.88a4,4,0,0,0,.32-1,4.43,4.43,0,0,0-.53.94c-.35.76-.79,1.68-1.32,2.79-1.13,2.44-2.69,6-4.55,10.42-3.73,8.85-8.49,21.24-13.56,35s-9.72,26.15-13.25,35.07c-1.74,4.33-3.16,7.9-4.22,10.54-.46,1.15-.83,2.1-1.14,2.88A3.86,3.86,0,0,0,854.07,1228.64Z"/><path class="cls-14" d="M751.41,1195.55a4,4,0,0,0,1,.42l3,1,11,3.56c9.28,3,22.06,7.32,36.16,12.09s26.94,9,36.28,11.79c4.68,1.41,8.47,2.51,11.11,3.22l3,.8a4.68,4.68,0,0,0,1.08.21,3.76,3.76,0,0,0-1-.43l-3-1-11-3.57c-9.29-3-22.06-7.31-36.17-12.09s-26.93-9-36.28-11.78c-4.67-1.42-8.46-2.52-11.1-3.23l-3-.8A3.81,3.81,0,0,0,751.41,1195.55Z"/><path class="cls-27" d="M871,1286.94c-23-16.08-28.23-45.93-27.32-72.76.15-4.48-.34-9.2,1.79-13.13s7.1-6.61,11.11-4.73c3.32,1.57,4.77,5.44,6.63,8.64a26.21,26.21,0,0,0,10.51,10c2.85,1.48,6.38,2.39,9.19.83,3.87-2.13,4.32-7.47,4.29-11.92L887,1179c0-4.45,0-9,1.34-13.22s4.45-8.16,8.69-9.35,9.47,1.26,10.37,5.62c.37,1.81,0,3.7.12,5.55s1,3.89,2.75,4.41,3.56-.74,4.89-2c4.6-4.5,7.71-10.29,10.63-16s5.75-11.66,9.92-16.57,9.94-8.79,16.32-9.15,13.17,3.58,14.79,9.84-2.05,12.65-6,17.73a99.61,99.61,0,0,1-20.7,19.74c-1.4,1-2.93,2.07-3.46,3.72-1,3,1.84,5.92,4.78,6.89,3.32,1.11,6.92.76,10.39,1.17s7.24,1.94,8.55,5.23c1.83,4.55-2,9.32-5.73,12.45a85.18,85.18,0,0,1-25.21,14.55c-3.27,1.2-6.72,2.25-9.36,4.55s-4.24,6.31-2.64,9.44,5.69,4.15,9.12,3.51,6.51-2.5,9.78-3.73c6.12-2.31,14-1.89,18,3.4,2.57,3.48,2.8,8.32,1.5,12.46s-4,7.72-6.76,11c-9.81,11.51-22.37,20.78-36.57,25.7s-27.35,6.26-41.47,1.1"/><path class="cls-13" d="M960.39,1131.91a3.86,3.86,0,0,1-.43.42l-1.32,1.18c-1.17,1-2.89,2.55-5,4.57a167.85,167.85,0,0,0-17,18.37c-3.31,4.12-6.75,8.8-10.36,13.88s-7.41,10.56-11.2,16.46a201.68,201.68,0,0,0-11,19c-1.72,3.4-3.25,7-4.81,10.6s-3.13,7.32-4.73,11a411.7,411.7,0,0,0-15.87,42.87,198.68,198.68,0,0,0-7.42,36.55,145.7,145.7,0,0,0-.42,25.15c.23,3,.46,5.27.67,6.82.09.75.15,1.34.2,1.77a3.49,3.49,0,0,1,.05.61s2.9,26.87-.13-.59c-.07-.44-.16-1-.28-1.76-.27-1.55-.55-3.85-.83-6.82a139.08,139.08,0,0,1,.16-25.24,195,195,0,0,1,7.28-36.71,400.37,400.37,0,0,1,15.84-43l4.73-11.05c1.57-3.62,3.11-7.22,4.84-10.64a200.41,200.41,0,0,1,11.08-19.09c3.82-5.9,7.65-11.36,11.28-16.44s7.11-9.74,10.47-13.85a158.15,158.15,0,0,1,17.24-18.24c2.2-2,4-3.47,5.16-4.46l1.37-1.11A3.57,3.57,0,0,1,960.39,1131.91Z"/><path class="cls-13" d="M903.54,1205.43a8.59,8.59,0,0,1-.44-1.9c-.23-1.23-.51-3-.82-5.24-.63-4.44-1.29-10.59-2-17.38s-1.44-12.92-2.14-17.33c-.34-2.21-.64-4-.86-5.22a8.36,8.36,0,0,1-.24-1.94,9.74,9.74,0,0,1,.56,1.87c.31,1.21.69,3,1.11,5.19.84,4.4,1.68,10.54,2.39,17.34s1.29,12.76,1.75,17.39c.23,2.1.42,3.86.57,5.27A8.67,8.67,0,0,1,903.54,1205.43Z"/><path class="cls-13" d="M960.81,1194.73a13.37,13.37,0,0,1-2.29.27c-1.47.13-3.59.31-6.21.61-5.25.57-12.47,1.6-20.38,3.1s-15,3.17-20.12,4.52c-2.56.66-4.61,1.25-6,1.65a13.36,13.36,0,0,1-2.23.55,11.27,11.27,0,0,1,2.14-.86c1.4-.49,3.43-1.17,6-1.9,5.07-1.51,12.18-3.27,20.12-4.78a201,201,0,0,1,20.47-2.86c2.64-.23,4.78-.32,6.26-.35A11.19,11.19,0,0,1,960.81,1194.73Z"/><path class="cls-13" d="M878.59,1269.07a3.27,3.27,0,0,1-.39-.7c-.26-.56-.59-1.25-1-2.07-.84-1.81-2-4.45-3.37-7.73-2.76-6.56-6.3-15.74-10.05-25.93s-7.21-19.39-9.83-26c-1.28-3.21-2.34-5.85-3.13-7.82-.33-.85-.61-1.55-.84-2.13a.4.4,0,1,1,.15-.07c.27.56.59,1.25,1,2.08.84,1.8,2,4.44,3.38,7.72,2.76,6.56,6.29,15.74,10,25.93s7.2,19.39,9.82,26c1.29,3.21,2.35,5.85,3.13,7.82.34.85.62,1.55.84,2.13A2.4,2.4,0,0,1,878.59,1269.07Z"/><path class="cls-13" d="M954.69,1244.54a3,3,0,0,1-.75.31l-2.21.74-8.15,2.64c-6.88,2.23-16.35,5.43-26.81,9s-20,6.64-26.89,8.73c-3.47,1-6.28,1.87-8.23,2.39l-2.25.59a3.63,3.63,0,0,1-.81.16,3.17,3.17,0,0,1,.76-.32l2.21-.74,8.15-2.64c6.88-2.23,16.35-5.42,26.81-9s20-6.65,26.89-8.74c3.46-1,6.27-1.86,8.23-2.39l2.25-.59A2.67,2.67,0,0,1,954.69,1244.54Z"/><polygon class="cls-28" points="835.74 1413.36 900.33 1413.36 925.85 1306.6 811.26 1306.6 835.74 1413.36"/><path class="cls-17" d="M1160.38,1347.93a77.69,77.69,0,0,0-5,12.25c-5.95,18.53-6,75.16-16,129.27-10.65,57.41-32.56,112-84.74,115.13-101.32,6.12-71.26-139.74-38.41-159.22,5.75-3.41,13.05-9.89,21.44-18.44v0c26.68-27.17,64.32-75.1,97.32-110.64Z"/><path class="cls-18" d="M1139.32,1489.45c-10.65,57.41-32.56,112-84.74,115.13-101.32,6.12-71.26-139.74-38.41-159.22,5.75-3.41,13.05-9.89,21.44-18.44,9.22,47.76,46.5,102.86,76.56,82.26C1126.24,1500.92,1133.93,1494.88,1139.32,1489.45Z"/><path class="cls-6" d="M1080.66,2145.46c0,36.08-.87,72-2.34,107.76-.29,6.75-.58,13.41-.91,20-6.66,133.7-22.89,232.06-32.71,286q-2,11-3.57,19.4c-16.85,1.74-32.91,2.49-45.65,2.81-2.78.06-5.41.09-7.84.11-7.75.11-13.6,0-16.68,0-9.39-41.49-35.07-113.29-63.35-190.25-44.16-120.31-94.64-253.28-99.25-302.79-9.29-100.36,159.82-257.78,211.35-303.21,9.22-8.13,14.68-12.67,14.68-12.67q8.55,30.3,15.23,60.59,3,13.39,5.59,26.79,3,15.08,5.54,30.11C1075.43,1975.73,1080.57,2061,1080.66,2145.46Z"/><path class="cls-7" d="M907.62,2391.22c-44.16-120.32-94.66-253.28-99.26-302.78-9.3-100.38,159.83-257.8,211.35-303.22a239.29,239.29,0,0,1,29.91,47.93c2.77,5.89,1.68,7.73,1.68,7.73.71,5.48,3.62,13,3.92,19C1061.47,1999,953.29,2279.59,907.62,2391.22Z"/><path class="cls-1" d="M1007.75,2604.4a1.72,1.72,0,0,0,1.43-1.88c-.1-2.86-.24-6.48-.42-10.83a1.65,1.65,0,0,0-1.61-1.72,1.81,1.81,0,0,0-1.46,1.89c.18,4.34.32,8,.42,10.82a1.66,1.66,0,0,0,1.6,1.72Zm-.89-21.65a1.72,1.72,0,0,0,1.44-1.89q-.22-5-.5-10.82a1.65,1.65,0,0,0-1.61-1.71h0a1.72,1.72,0,0,0-1.43,1.9c.18,3.87.34,7.47.49,10.82a1.66,1.66,0,0,0,1.61,1.71Zm-1-21.63a1.73,1.73,0,0,0,1.44-1.91q-.27-5.17-.55-10.82a1.65,1.65,0,0,0-1.63-1.69h0a1.73,1.73,0,0,0-1.44,1.91c.2,3.76.38,7.37.55,10.81a1.65,1.65,0,0,0,1.62,1.7Zm-1.11-21.63a1.73,1.73,0,0,0,1.43-1.91c-.19-3.5-.38-7.11-.59-10.82a1.65,1.65,0,0,0-1.64-1.68,1.73,1.73,0,0,0-1.43,1.92q.32,5.57.59,10.8a1.65,1.65,0,0,0,1.63,1.69Zm-1.21-21.62h0A1.72,1.72,0,0,0,1005,2516c-.2-3.53-.41-7.13-.64-10.82a1.64,1.64,0,0,0-1.63-1.67h0a1.73,1.73,0,0,0-1.42,1.93q.33,5.52.64,10.8A1.63,1.63,0,0,0,1003.53,2517.87Zm-1.3-21.62h0a1.75,1.75,0,0,0,1.43-1.93c-.22-3.55-.45-7.15-.69-10.82a1.64,1.64,0,0,0-1.63-1.67h0a1.74,1.74,0,0,0-1.42,1.94c.24,3.66.46,7.27.68,10.81A1.64,1.64,0,0,0,1002.23,2496.25Zm-1.38-21.63h0a1.74,1.74,0,0,0,1.42-1.94q-.36-5.32-.73-10.81a1.64,1.64,0,0,0-1.63-1.66h0a1.74,1.74,0,0,0-1.41,1.95q.38,5.48.72,10.8A1.64,1.64,0,0,0,1000.85,2474.62ZM999.39,2453h0a1.75,1.75,0,0,0,1.41-2c-.25-3.56-.5-7.16-.77-10.81a1.64,1.64,0,0,0-1.63-1.65h0a1.76,1.76,0,0,0-1.4,2q.39,5.46.77,10.79A1.64,1.64,0,0,0,999.39,2453Zm-1.55-21.61h0a1.75,1.75,0,0,0,1.4-2q-.39-5.35-.81-10.8a1.65,1.65,0,0,0-1.66-1.64,1.74,1.74,0,0,0-1.4,1.95q.42,5.46.81,10.8A1.63,1.63,0,0,0,997.84,2431.4Zm-1.63-21.59h0a1.75,1.75,0,0,0,1.4-2q-.42-5.35-.85-10.8a1.64,1.64,0,0,0-1.63-1.64h0a1.74,1.74,0,0,0-1.39,2q.43,5.45.85,10.79A1.64,1.64,0,0,0,996.21,2409.81Zm-1.72-21.58h0a1.75,1.75,0,0,0,1.38-2c-.29-3.57-.59-7.16-.89-10.79a1.6,1.6,0,0,0-1.68-1.62,1.74,1.74,0,0,0-1.37,2q.45,5.43.88,10.79A1.65,1.65,0,0,0,994.49,2388.23Zm-1.8-21.58h.06a1.74,1.74,0,0,0,1.37-2q-.45-5.36-.93-10.79a1.65,1.65,0,0,0-1.68-1.61,1.75,1.75,0,0,0-1.37,2q.47,5.43.93,10.78A1.63,1.63,0,0,0,992.69,2366.65Zm-1.88-21.56h.06a1.75,1.75,0,0,0,1.37-2c-.32-3.58-.65-7.17-1-10.79a1.62,1.62,0,0,0-1.62-1.6h-.07a1.76,1.76,0,0,0-1.36,2q.49,5.41,1,10.77A1.64,1.64,0,0,0,990.81,2345.09Zm-2-21.56h.07a1.76,1.76,0,0,0,1.36-2q-.51-5.37-1-10.78a1.62,1.62,0,0,0-1.7-1.59,1.75,1.75,0,0,0-1.35,2q.51,5.41,1,10.77A1.62,1.62,0,0,0,988.84,2323.53ZM986.78,2302h.08a1.77,1.77,0,0,0,1.35-2q-.53-5.37-1.06-10.77a1.62,1.62,0,0,0-1.71-1.59,1.78,1.78,0,0,0-1.35,2q.54,5.4,1.07,10.76A1.61,1.61,0,0,0,986.78,2302Zm-2.15-21.52h.09a1.77,1.77,0,0,0,1.34-2q-.55-5.35-1.11-10.76a1.63,1.63,0,0,0-1.71-1.58,1.77,1.77,0,0,0-1.34,2c.38,3.6.74,7.19,1.11,10.76A1.63,1.63,0,0,0,984.63,2280.47ZM982.39,2259h.09a1.76,1.76,0,0,0,1.34-2c-.38-3.58-.77-7.16-1.16-10.76a1.6,1.6,0,0,0-1.72-1.56,1.78,1.78,0,0,0-1.33,2q.58,5.38,1.16,10.74A1.62,1.62,0,0,0,982.39,2259Zm-2.34-21.5h.1a1.77,1.77,0,0,0,1.33-2q-.6-5.37-1.21-10.75a1.6,1.6,0,0,0-1.72-1.55,1.77,1.77,0,0,0-1.32,2q.62,5.39,1.2,10.74A1.63,1.63,0,0,0,980.05,2237.45ZM977.62,2216l.11,0a1.78,1.78,0,0,0,1.32-2l-1.26-10.74a1.62,1.62,0,0,0-1.73-1.54,1.78,1.78,0,0,0-1.31,2q.63,5.37,1.25,10.73A1.63,1.63,0,0,0,977.62,2216Zm-2.53-21.47.11,0a1.77,1.77,0,0,0,1.31-2q-.64-5.36-1.31-10.73a1.6,1.6,0,0,0-1.74-1.53,1.78,1.78,0,0,0-1.3,2.05q.66,5.37,1.31,10.72A1.62,1.62,0,0,0,975.09,2194.5Zm-2.64-21.45.12,0a1.78,1.78,0,0,0,1.3-2.05q-.68-5.36-1.36-10.72a1.62,1.62,0,0,0-1.75-1.52,1.79,1.79,0,0,0-1.29,2.06q.69,5.35,1.36,10.71A1.62,1.62,0,0,0,972.45,2173.05Zm-2.75-21.43.14,0a1.79,1.79,0,0,0,1.28-2.06q-.71-5.36-1.42-10.72a1.59,1.59,0,0,0-1.75-1.5,1.8,1.8,0,0,0-1.28,2.07q.72,5.36,1.41,10.7A1.63,1.63,0,0,0,969.7,2151.62Zm-2.86-21.42.14,0a1.79,1.79,0,0,0,1.28-2.06q-.74-5.35-1.48-10.71a1.57,1.57,0,0,0-1.76-1.49,1.79,1.79,0,0,0-1.27,2.08q.75,5.34,1.47,10.69A1.62,1.62,0,0,0,966.84,2130.2Zm-3-21.39.16,0a1.79,1.79,0,0,0,1.26-2.07l-1.53-10.7a1.59,1.59,0,0,0-1.78-1.47,1.79,1.79,0,0,0-1.25,2.08l1.53,10.68A1.61,1.61,0,0,0,963.86,2108.81Zm-3.1-21.36.17,0a1.81,1.81,0,0,0,1.25-2.09q-.79-5.34-1.6-10.68a1.59,1.59,0,0,0-1.78-1.46,1.8,1.8,0,0,0-1.25,2.09q.81,5.34,1.6,10.67A1.61,1.61,0,0,0,960.76,2087.45Zm-3.23-21.38.18,0a1.8,1.8,0,0,0,1.23-2.1q-.83-5.34-1.67-10.69a1.57,1.57,0,0,0-1.79-1.45,1.82,1.82,0,0,0-1.23,2.11q.84,5.34,1.67,10.68A1.61,1.61,0,0,0,957.53,2066.07Zm-3.37-21.37.19,0a1.81,1.81,0,0,0,1.22-2.11q-.86-5.34-1.74-10.67a1.56,1.56,0,0,0-1.8-1.43,1.82,1.82,0,0,0-1.21,2.12c.58,3.54,1.16,7.1,1.73,10.65A1.61,1.61,0,0,0,954.16,2044.7Zm-3.5-21.3a.63.63,0,0,0,.19,0,1.8,1.8,0,0,0,1.21-2.12q-.88-5.32-1.8-10.63a1.56,1.56,0,0,0-1.81-1.42,1.82,1.82,0,0,0-1.2,2.13c.6,3.54,1.21,7.08,1.8,10.62A1.6,1.6,0,0,0,950.66,2023.4ZM947,2002.17l.21,0a1.8,1.8,0,0,0,1.19-2.13q-.93-5.31-1.88-10.6a1.55,1.55,0,0,0-1.82-1.39,1.81,1.81,0,0,0-1.18,2.14q.94,5.28,1.88,10.58A1.61,1.61,0,0,0,947,2002.17Zm-3.8-21.17.23,0a1.82,1.82,0,0,0,1.17-2.14q-1-5.29-2-10.56a1.55,1.55,0,0,0-1.83-1.38,1.82,1.82,0,0,0-1.17,2.15c.65,3.51,1.31,7,2,10.55A1.59,1.59,0,0,0,943.21,1981Zm-4-21.09.24,0a1.82,1.82,0,0,0,1.16-2.16q-1-5.3-2-10.57a1.55,1.55,0,0,0-1.84-1.36,1.85,1.85,0,0,0-1.15,2.17q1,5.27,2,10.55A1.59,1.59,0,0,0,939.25,1959.91Zm-4.13-21.12a1.18,1.18,0,0,0,.25,0,1.84,1.84,0,0,0,1.14-2.17q-1.07-5.3-2.14-10.55a1.55,1.55,0,0,0-1.85-1.34,1.84,1.84,0,0,0-1.14,2.18q1.08,5.27,2.14,10.53A1.59,1.59,0,0,0,935.12,1938.79Zm-4.33-21.07a.86.86,0,0,0,.27,0,1.84,1.84,0,0,0,1.12-2.18q-1.11-5.28-2.24-10.52a1.53,1.53,0,0,0-1.87-1.31,1.84,1.84,0,0,0-1.11,2.19q1.14,5.24,2.24,10.5A1.58,1.58,0,0,0,930.79,1917.72Zm-4.53-21a1,1,0,0,0,.29,0,1.86,1.86,0,0,0,1.1-2.2c-.77-3.51-1.56-7-2.34-10.49a1.54,1.54,0,0,0-1.88-1.29,1.86,1.86,0,0,0-1.09,2.21q1.17,5.22,2.33,10.47A1.58,1.58,0,0,0,926.26,1896.71Zm-4.73-20.94.3-.06a1.87,1.87,0,0,0,1.08-2.22q-1.21-5.25-2.46-10.46a1.52,1.52,0,0,0-1.89-1.25,1.85,1.85,0,0,0-1.06,2.22q1.23,5.2,2.45,10.44A1.58,1.58,0,0,0,921.53,1875.77Zm-5-20.88.33-.06a1.89,1.89,0,0,0,1.05-2.24c-.85-3.48-1.71-7-2.57-10.41a1.53,1.53,0,0,0-1.91-1.23,1.88,1.88,0,0,0-1,2.25q1.29,5.17,2.57,10.39A1.56,1.56,0,0,0,916.56,1854.89Zm-5.2-20.79a1.45,1.45,0,0,0,.35-.07,1.87,1.87,0,0,0,1-2.25c-.89-3.48-1.79-6.93-2.7-10.38a1.52,1.52,0,0,0-1.93-1.19,1.88,1.88,0,0,0-1,2.26q1.36,5.16,2.7,10.35A1.56,1.56,0,0,0,911.36,1834.1Zm-5.47-20.7a1.23,1.23,0,0,0,.37-.08,1.89,1.89,0,0,0,1-2.27q-1.41-5.19-2.85-10.32a1.5,1.5,0,0,0-1.94-1.15,1.9,1.9,0,0,0-1,2.28q1.44,5.12,2.84,10.29A1.55,1.55,0,0,0,905.89,1813.4Zm-5.75-20.59a1.38,1.38,0,0,0,.39-.09,1.9,1.9,0,0,0,1-2.29q-1.49-5.16-3-10.26a1.49,1.49,0,0,0-2-1.11,1.88,1.88,0,0,0-.94,2.29q1.5,5.1,3,10.24A1.55,1.55,0,0,0,900.14,1792.81Zm-6.07-20.46a1.31,1.31,0,0,0,.42-.11,1.91,1.91,0,0,0,.93-2.31q-1.57-5.13-3.16-10.19a1.48,1.48,0,0,0-2-1.07,1.93,1.93,0,0,0-.91,2.32q1.59,5.05,3.16,10.16A1.55,1.55,0,0,0,894.07,1772.35Zm-6.4-20.33a1.48,1.48,0,0,0,.45-.11,1.92,1.92,0,0,0,.88-2.33q-1.65-5.1-3.34-10.12a1.49,1.49,0,0,0-2-1,1.93,1.93,0,0,0-.86,2.35q1.68,5,3.33,10.08A1.53,1.53,0,0,0,887.67,1752Zm-6.78-20.15a1.43,1.43,0,0,0,.48-.13,1.94,1.94,0,0,0,.84-2.36q-1.77-5.06-3.55-10a1.46,1.46,0,0,0-2-1,1.93,1.93,0,0,0-.82,2.37q1.78,4.95,3.54,10A1.53,1.53,0,0,0,880.89,1731.87Zm-7.19-19.95a1.65,1.65,0,0,0,.51-.15,1.94,1.94,0,0,0,.79-2.38q-1.87-5-3.77-9.92a1.46,1.46,0,0,0-2-.89,2,2,0,0,0-.76,2.39q1.91,4.89,3.76,9.87A1.55,1.55,0,0,0,873.7,1711.92Zm-7.65-19.72a1.46,1.46,0,0,0,.55-.17,2,2,0,0,0,.73-2.41q-2-4.93-4-9.78a1.45,1.45,0,0,0-2.06-.82,2,2,0,0,0-.7,2.42q2,4.82,4,9.73A1.51,1.51,0,0,0,866.05,1692.2Zm-8.17-19.43a1.38,1.38,0,0,0,.6-.2,2,2,0,0,0,.66-2.43q-2.13-4.87-4.31-9.62a1.43,1.43,0,0,0-2.08-.73,2,2,0,0,0-.62,2.45q2.16,4.71,4.28,9.55A1.51,1.51,0,0,0,857.88,1672.77Zm-8.74-19.08a1.38,1.38,0,0,0,.65-.23,2,2,0,0,0,.58-2.46q-2.29-4.77-4.63-9.41a1.41,1.41,0,0,0-2.1-.63,2,2,0,0,0-.54,2.47q2.32,4.6,4.6,9.35A1.47,1.47,0,0,0,849.14,1653.69Z"/><path class="cls-1" d="M1020.06,2603.55c0-4.34-4.22-437.85-82.18-740.93l-2.94,1c77.84,302.6,82,735.59,82,739.92Z"/><path class="cls-6" d="M1053.6,1851.83c-6.86,32.11-19.95,89.23-27.39,116.82-11.93,44.32-26.52,88.21-42.75,131C962.59,2154.84,939,2208.2,915,2258.35c-61.35,128.11-125.64,235.33-155.55,298q-4.8,10.05-8.7,18.17a.33.33,0,0,0-.11,0c-15.28-2.72-31.38-6.11-46-9.4-1.92-.45-3.83-.89-5.68-1.34-6.59-1.51-12.8-3-18.37-4.38-1-106.18,3.16-309.05,20.82-505.8,8.08-89.76,19-178.26,33.45-255.73,3.92-20.91,8.06-41,12.51-60.08,74.63,43.6,215.52,95.33,299.63,83.91C1044.56,1834.37,1056.88,1836.46,1053.6,1851.83Z"/><path class="cls-7" d="M1040.54,1853.85s-287.44,44-299.46,56.81c-10.49,11.2-12.23,105-39.67,142.92,8.07-89.77,18.94-178.26,33.44-255.74C862.3,1791.11,1040.54,1853.85,1040.54,1853.85Z"/><path class="cls-1" d="M716.51,2584.16c0-.18.65-2.32,1.74-6.28a1.66,1.66,0,0,0-.88-2,1.34,1.34,0,0,0-1.7,1c-1.09,3.95-1.69,6.09-1.74,6.25Zm2.58-14.35a1.34,1.34,0,0,0,1.66-1c.73-2.71,1.56-5.76,2.47-9.13a1.66,1.66,0,0,0-.88-2,1.33,1.33,0,0,0-1.71,1q-1.36,5.05-2.47,9.12a1.66,1.66,0,0,0,.88,2Zm4.93-18.25a1.34,1.34,0,0,0,1.66-1.06c.77-2.88,1.59-5.93,2.44-9.14a1.67,1.67,0,0,0-.89-2h0a1.34,1.34,0,0,0-1.66,1.06c-.85,3.21-1.67,6.26-2.44,9.13a1.65,1.65,0,0,0,.89,2Zm4.87-18.28a1.34,1.34,0,0,0,1.66-1.06l2.41-9.15a1.65,1.65,0,0,0-.89-2,1.31,1.31,0,0,0-1.7,1.05l-2.41,9.14a1.65,1.65,0,0,0,.89,2Zm4.82-18.29a1.34,1.34,0,0,0,1.66-1.07l2.39-9.15a1.66,1.66,0,0,0-.9-2,1.35,1.35,0,0,0-1.7,1l-2.39,9.16a1.66,1.66,0,0,0,.9,2Zm4.76-18.31a1.35,1.35,0,0,0,1.67-1.07q1.15-4.49,2.36-9.16a1.66,1.66,0,0,0-.9-2h0a1.33,1.33,0,0,0-1.66,1.07q-1.21,4.68-2.37,9.16a1.65,1.65,0,0,0,.9,2Zm4.72-18.32a1.34,1.34,0,0,0,1.67-1.08l2.34-9.17a1.64,1.64,0,0,0-.91-2h0a1.35,1.35,0,0,0-1.67,1.08l-2.34,9.16a1.66,1.66,0,0,0,.91,2Zm4.68-18.34a1.34,1.34,0,0,0,1.67-1.08l2.32-9.17a1.65,1.65,0,0,0-.91-2,1.39,1.39,0,0,0-1.69,1.08l-2.32,9.17a1.64,1.64,0,0,0,.91,2Zm4.64-18.35a1.34,1.34,0,0,0,1.66-1.09l2.31-9.18a1.66,1.66,0,0,0-.92-2h0a1.34,1.34,0,0,0-1.67,1.08l-2.3,9.18a1.65,1.65,0,0,0,.92,2Zm4.59-18.37a1.34,1.34,0,0,0,1.67-1.09l2.28-9.19a1.64,1.64,0,0,0-.93-2h0a1.35,1.35,0,0,0-1.67,1.09l-2.28,9.19a1.66,1.66,0,0,0,.93,2Zm4.55-18.38a1.34,1.34,0,0,0,1.67-1.09l2.26-9.2a1.64,1.64,0,0,0-.93-2,1.34,1.34,0,0,0-1.68,1.09l-2.26,9.19a1.66,1.66,0,0,0,.93,2Zm4.51-18.39a1.35,1.35,0,0,0,1.67-1.1l2.24-9.2a1.64,1.64,0,0,0-.93-2h0a1.35,1.35,0,0,0-1.67,1.1l-2.24,9.2a1.65,1.65,0,0,0,.93,2Zm4.47-18.41a1.34,1.34,0,0,0,1.67-1.1l2.22-9.21a1.65,1.65,0,0,0-.94-2h0a1.34,1.34,0,0,0-1.67,1.1l-2.22,9.21a1.65,1.65,0,0,0,.93,2Zm4.43-18.42a1.35,1.35,0,0,0,1.67-1.11l2.2-9.21a1.65,1.65,0,0,0-.94-2,1.35,1.35,0,0,0-1.68,1.11l-2.19,9.21a1.64,1.64,0,0,0,.93,2Zm4.38-18.44h0a1.35,1.35,0,0,0,1.68-1.1l2.17-9.23a1.64,1.64,0,0,0-.94-2h0a1.34,1.34,0,0,0-1.67,1.11l-2.18,9.22A1.64,1.64,0,0,0,779.44,2331.26Zm4.35-18.44h0a1.35,1.35,0,0,0,1.67-1.12l2.16-9.23a1.65,1.65,0,0,0-1-1.95h0a1.35,1.35,0,0,0-1.67,1.12l-2.16,9.23A1.66,1.66,0,0,0,783.79,2312.82Zm4.3-18.47h0a1.34,1.34,0,0,0,1.66-1.12l2.14-9.24a1.64,1.64,0,0,0-.95-1.95h0a1.34,1.34,0,0,0-1.66,1.12l-2.14,9.24A1.65,1.65,0,0,0,788.09,2294.35Zm4.25-18.47h0a1.35,1.35,0,0,0,1.66-1.12c.7-3.07,1.41-6.15,2.11-9.25a1.65,1.65,0,0,0-.94-2h0a1.35,1.35,0,0,0-1.67,1.13c-.7,3.09-1.41,6.17-2.11,9.23A1.66,1.66,0,0,0,792.34,2275.88Zm4.22-18.49h0a1.35,1.35,0,0,0,1.66-1.13q1-4.61,2.09-9.25a1.63,1.63,0,0,0-1-1.94h0a1.34,1.34,0,0,0-1.66,1.13q-1.05,4.65-2.09,9.25A1.65,1.65,0,0,0,796.56,2257.39Zm4.17-18.51h0a1.36,1.36,0,0,0,1.66-1.14l2.07-9.26a1.61,1.61,0,0,0-1-1.94,1.35,1.35,0,0,0-1.66,1.14l-2.07,9.25A1.65,1.65,0,0,0,800.73,2238.88Zm4.13-18.51h0a1.35,1.35,0,0,0,1.66-1.14l2-9.26a1.63,1.63,0,0,0-.94-1.94h0a1.35,1.35,0,0,0-1.65,1.15l-2.05,9.26A1.65,1.65,0,0,0,804.86,2220.37Zm4.08-18.54h0a1.35,1.35,0,0,0,1.65-1.14l2-9.28a1.63,1.63,0,0,0-.95-1.93h0a1.36,1.36,0,0,0-1.65,1.15l-2,9.27A1.64,1.64,0,0,0,808.94,2201.83Zm4-18.54h0a1.36,1.36,0,0,0,1.65-1.15q1-4.64,2-9.28a1.62,1.62,0,0,0-1-1.94,1.36,1.36,0,0,0-1.65,1.16q-1,4.65-2,9.27A1.65,1.65,0,0,0,813,2183.29Zm4-18.56h0a1.35,1.35,0,0,0,1.64-1.16l2-9.29a1.62,1.62,0,0,0-1-1.93,1.36,1.36,0,0,0-1.65,1.16l-2,9.29A1.63,1.63,0,0,0,817,2164.73Zm3.94-18.58,0,0a1.36,1.36,0,0,0,1.64-1.17l1.95-9.29a1.59,1.59,0,0,0-1-1.93,1.35,1.35,0,0,0-1.64,1.17l-1.95,9.29A1.62,1.62,0,0,0,820.9,2146.15Zm3.88-18.58h.05a1.36,1.36,0,0,0,1.64-1.17l1.92-9.3a1.68,1.68,0,0,0-1-1.93,1.36,1.36,0,0,0-1.64,1.18l-1.93,9.29A1.65,1.65,0,0,0,824.78,2127.57Zm3.84-18.61,0,0a1.36,1.36,0,0,0,1.64-1.18c.63-3.1,1.27-6.2,1.9-9.31a1.64,1.64,0,0,0-1-1.92,1.35,1.35,0,0,0-1.63,1.18c-.63,3.11-1.27,6.21-1.9,9.3A1.64,1.64,0,0,0,828.62,2109Zm3.78-18.62.06,0a1.35,1.35,0,0,0,1.63-1.18c.63-3.1,1.25-6.21,1.88-9.32a1.67,1.67,0,0,0-1-1.92,1.37,1.37,0,0,0-1.63,1.19q-.93,4.66-1.87,9.31A1.63,1.63,0,0,0,832.4,2090.34Zm3.74-18.63.05,0a1.36,1.36,0,0,0,1.63-1.19q.93-4.65,1.85-9.32a1.64,1.64,0,0,0-1-1.9l-.06,0a1.36,1.36,0,0,0-1.62,1.2c-.62,3.11-1.23,6.21-1.85,9.31A1.64,1.64,0,0,0,836.14,2071.71Zm3.67-18.65.06,0a1.37,1.37,0,0,0,1.63-1.19c.61-3.11,1.21-6.22,1.82-9.34a1.63,1.63,0,0,0-1-1.91,1.38,1.38,0,0,0-1.63,1.2c-.6,3.12-1.21,6.23-1.81,9.33A1.62,1.62,0,0,0,839.81,2053.06Zm3.62-18.66.07,0a1.36,1.36,0,0,0,1.62-1.2q.9-4.68,1.79-9.38a1.57,1.57,0,0,0-1-1.9,1.36,1.36,0,0,0-1.62,1.2l-1.8,9.37A1.64,1.64,0,0,0,843.43,2034.4Zm3.57-18.75.08,0a1.37,1.37,0,0,0,1.61-1.22l1.77-9.37a1.62,1.62,0,0,0-1-1.9,1.36,1.36,0,0,0-1.61,1.21l-1.77,9.37A1.64,1.64,0,0,0,847,2015.65Zm3.51-18.75.08,0a1.38,1.38,0,0,0,1.61-1.22q.87-4.7,1.73-9.39a1.6,1.6,0,0,0-1-1.89,1.37,1.37,0,0,0-1.61,1.22c-.57,3.13-1.15,6.25-1.73,9.38A1.62,1.62,0,0,0,850.51,1996.9Zm3.44-18.75.09,0a1.38,1.38,0,0,0,1.61-1.23c.56-3.12,1.13-6.25,1.69-9.38a1.59,1.59,0,0,0-1-1.89,1.37,1.37,0,0,0-1.61,1.23c-.56,3.13-1.13,6.25-1.7,9.38A1.64,1.64,0,0,0,854,1978.15Zm3.38-18.76.08,0a1.37,1.37,0,0,0,1.61-1.23c.56-3.13,1.11-6.26,1.67-9.39a1.61,1.61,0,0,0-1.06-1.88,1.37,1.37,0,0,0-1.6,1.23c-.55,3.13-1.11,6.26-1.66,9.38A1.63,1.63,0,0,0,857.33,1959.39Zm3.3-18.77.1,0a1.38,1.38,0,0,0,1.6-1.25q.82-4.7,1.63-9.39a1.61,1.61,0,0,0-1.06-1.88,1.39,1.39,0,0,0-1.6,1.25q-.81,4.69-1.63,9.38A1.63,1.63,0,0,0,860.63,1940.62Zm3.24-18.77.1,0a1.39,1.39,0,0,0,1.6-1.25l1.59-9.4a1.61,1.61,0,0,0-1.07-1.87,1.39,1.39,0,0,0-1.6,1.26q-.78,4.68-1.58,9.38A1.62,1.62,0,0,0,863.87,1921.85Zm3.16-18.78.1,0a1.39,1.39,0,0,0,1.6-1.26c.52-3.13,1-6.26,1.55-9.39a1.59,1.59,0,0,0-1.08-1.87,1.38,1.38,0,0,0-1.59,1.26q-.76,4.7-1.55,9.39A1.62,1.62,0,0,0,867,1903.07Zm3.08-18.78.11,0a1.39,1.39,0,0,0,1.59-1.27q.77-4.71,1.51-9.4a1.59,1.59,0,0,0-1.08-1.86,1.39,1.39,0,0,0-1.59,1.27q-.75,4.7-1.51,9.39A1.65,1.65,0,0,0,870.11,1884.29Zm3-18.79.12,0a1.39,1.39,0,0,0,1.58-1.28l1.47-9.4a1.62,1.62,0,0,0-1.09-1.86,1.4,1.4,0,0,0-1.58,1.29q-.72,4.7-1.47,9.39A1.63,1.63,0,0,0,873.11,1865.5Zm2.92-18.8.12,0a1.39,1.39,0,0,0,1.58-1.28q.72-4.71,1.42-9.41a1.57,1.57,0,0,0-1.09-1.85,1.4,1.4,0,0,0-1.58,1.3q-.71,4.69-1.42,9.39A1.62,1.62,0,0,0,876,1846.7Zm2.83-18.8.13,0a1.4,1.4,0,0,0,1.57-1.3q.71-4.7,1.38-9.41a1.58,1.58,0,0,0-1.11-1.84,1.4,1.4,0,0,0-1.56,1.31l-1.38,9.4A1.62,1.62,0,0,0,878.86,1827.9Zm2.73-18.81.15,0a1.39,1.39,0,0,0,1.56-1.3c.45-3.15.89-6.28,1.33-9.42a1.58,1.58,0,0,0-1.11-1.83,1.4,1.4,0,0,0-1.56,1.31q-.66,4.69-1.34,9.41A1.64,1.64,0,0,0,881.59,1809.09Zm2.65-18.82.14,0a1.4,1.4,0,0,0,1.56-1.32q.66-4.74,1.29-9.46a1.57,1.57,0,0,0-1.13-1.82,1.4,1.4,0,0,0-1.55,1.32q-.63,4.73-1.29,9.45A1.62,1.62,0,0,0,884.24,1790.27Zm2.55-18.91.16,0a1.4,1.4,0,0,0,1.55-1.33q.63-4.74,1.23-9.46a1.55,1.55,0,0,0-1.13-1.82,1.42,1.42,0,0,0-1.55,1.34q-.62,4.72-1.24,9.45A1.63,1.63,0,0,0,886.79,1771.36Zm2.45-18.92.17,0a1.4,1.4,0,0,0,1.54-1.34q.6-4.74,1.18-9.48a1.56,1.56,0,0,0-1.15-1.8,1.4,1.4,0,0,0-1.53,1.35q-.59,4.72-1.19,9.46A1.62,1.62,0,0,0,889.24,1752.44Zm2.33-18.94.18,0a1.42,1.42,0,0,0,1.54-1.36q.57-4.74,1.12-9.48a1.57,1.57,0,0,0-1.16-1.8,1.42,1.42,0,0,0-1.53,1.36c-.37,3.16-.74,6.31-1.12,9.48A1.62,1.62,0,0,0,891.57,1733.5Zm2.23-19,.18,0a1.42,1.42,0,0,0,1.53-1.37c.36-3.17.72-6.34,1.06-9.5a1.55,1.55,0,0,0-1.17-1.78,1.42,1.42,0,0,0-1.52,1.38q-.52,4.73-1.06,9.48A1.63,1.63,0,0,0,893.8,1714.54Z"/><path class="cls-1" d="M723.54,2586.7c36.83-99.11,154.86-641.78,187.1-880l-2.68-.5c-32.22,238-150.13,780.22-186.91,879.19Z"/><path class="cls-11" d="M790.53,2669.76c-1.43-.12-18.18-5.58-38.06-12.17h0l-9.87-3.28c-26.17-8.7-54.11-18.12-58.55-19.57-1.66-.56-3.07-28.57-3.46-75.35,6.31,1.56,13.38,3.23,20.88,5,15.48,3.54,32.84,7.25,49.29,10.15-1.18,2.47-2.29,4.78-3.35,7-7,14.52-11,22.9-11.31,24-1.87,7.85,34.93,43.25,49.13,57.9C789.08,2667.37,791.27,2669.83,790.53,2669.76Z"/><path class="cls-12" d="M742.59,2654.31c-26.17-8.7-54.11-18.12-58.55-19.57-1.66-.56-3.07-28.57-3.46-75.35,6.31,1.56,13.38,3.23,20.88,5-4.44,19.52-9.27,54.53-3,62.69C703,2632.86,728.62,2646.26,742.59,2654.31Z"/><path class="cls-1" d="M897.49,2005.24a2.09,2.09,0,0,1-.32-4.16c.6-.09,60.45-10.61,84.33-98.5a2.09,2.09,0,1,1,4,1.1c-24.63,90.64-87.1,101.43-87.72,101.53Z"/><path class="cls-11" d="M1083.84,2662.9l-30.61-.3-57,.67c-4.83-.25-14.28-33.15-25.29-81.8,3.42.07,10.29.16,19.44,0,13.36-.2,31.52-.91,50.71-2.89q-1.11,5.94-2,10.67c-1.84,10-7.51,45.75-7,46.94C1033.72,2640.2,1085.93,2663,1083.84,2662.9Z"/><path class="cls-12" d="M1053.23,2662.6l-57,.67c-4.83-.25-14.28-33.15-25.29-81.8,3.42.07,10.29.16,19.44,0,2.83,21.4,12.52,69.09,21.92,73.08C1019.4,2657.56,1041.26,2659.46,1053.23,2662.6Z"/><path class="cls-17" d="M983.46,2099.68C962.59,2154.84,939,2208.2,915,2258.35,872.63,2162.88,920.7,2085.5,983.46,2099.68Z"/><path class="cls-1" d="M981.49,2091.52l-.25,0c-1.8-.41-3.62-.76-5.39-1a1.11,1.11,0,0,1,.35-2.2c1.82.3,3.68.66,5.54,1.08a1.11,1.11,0,0,1-.25,2.2Z"/><path class="cls-1" d="M899.86,2249.93a1.1,1.1,0,0,1-1-.69c-1.35-3.27-2.61-6.68-3.74-10.13a1.11,1.11,0,0,1,.7-1.41,1.12,1.12,0,0,1,1.41.71c1.12,3.4,2.36,6.76,3.69,10a1.11,1.11,0,0,1-.61,1.45A1,1,0,0,1,899.86,2249.93Zm-6.72-20.35a1.12,1.12,0,0,1-1.08-.84c-.89-3.47-1.67-7-2.32-10.55a1.11,1.11,0,0,1,2.18-.4c.65,3.48,1.42,7,2.3,10.4a1.11,1.11,0,0,1-.81,1.35A.84.84,0,0,1,893.14,2229.58Zm-3.92-21.08a1.1,1.1,0,0,1-1.1-1c-.42-3.58-.72-7.2-.9-10.76a1.11,1.11,0,1,1,2.22-.11c.18,3.51.48,7.08.89,10.61a1.13,1.13,0,0,1-1,1.24Zm-1.07-21.4h0A1.12,1.12,0,0,1,887,2186c.05-3.57.23-7.2.53-10.78a1.1,1.1,0,0,1,1.2-1,1.11,1.11,0,0,1,1,1.2c-.29,3.54-.47,7.11-.53,10.64A1.11,1.11,0,0,1,888.15,2187.1Zm1.82-21.36-.18,0a1.1,1.1,0,0,1-.92-1.27c.57-3.58,1.29-7.15,2.13-10.6a1.12,1.12,0,0,1,2.17.53c-.83,3.39-1.54,6.9-2.1,10.42A1.12,1.12,0,0,1,890,2165.74Zm5.1-20.81a1.12,1.12,0,0,1-1.06-1.47c1.17-3.46,2.5-6.86,4-10.08a1.12,1.12,0,0,1,2,.91c-1.43,3.16-2.73,6.49-3.88,9.88A1.1,1.1,0,0,1,895.07,2144.93Zm8.81-19.52a1,1,0,0,1-.56-.15,1.11,1.11,0,0,1-.4-1.52,90.14,90.14,0,0,1,6-9,1.12,1.12,0,0,1,1.78,1.35,86.8,86.8,0,0,0-5.89,8.79A1.09,1.09,0,0,1,903.88,2125.41Zm13-17a1.09,1.09,0,0,1-.79-.33,1.12,1.12,0,0,1,0-1.58,70.31,70.31,0,0,1,8.29-7.05,1.11,1.11,0,0,1,1.3,1.8,70.36,70.36,0,0,0-8,6.83A1.1,1.1,0,0,1,916.9,2108.45ZM934.21,2096a1.13,1.13,0,0,1-1-.62,1.11,1.11,0,0,1,.51-1.49,63.51,63.51,0,0,1,10.14-4,1.11,1.11,0,0,1,1.39.75,1.12,1.12,0,0,1-.75,1.39,61.45,61.45,0,0,0-9.8,3.83A1.07,1.07,0,0,1,934.21,2096Zm20.45-6.07a1.12,1.12,0,0,1-1.1-1,1.11,1.11,0,0,1,1-1.24,72.1,72.1,0,0,1,10.86-.49,1.11,1.11,0,0,1,1.08,1.14,1.15,1.15,0,0,1-1.15,1.09,67.61,67.61,0,0,0-10.52.47Z"/><path class="cls-1" d="M907.08,2264.62a1.12,1.12,0,0,1-.94-.52c0-.07-1.12-1.76-2.76-4.94a1.11,1.11,0,1,1,2-1c1.59,3.08,2.64,4.75,2.65,4.77a1.11,1.11,0,0,1-.34,1.53A1.07,1.07,0,0,1,907.08,2264.62Z"/><path class="cls-1" d="M1071.12,2143.14a1.11,1.11,0,0,1-1.08-.85,1.1,1.1,0,0,1,.81-1.34c1.79-.44,3.66-.82,5.55-1.12a1.11,1.11,0,1,1,.35,2.2c-1.83.29-3.63.65-5.37,1.08A1.15,1.15,0,0,1,1071.12,2143.14Z"/><path class="cls-1" d="M1060.93,2270a1.1,1.1,0,0,1-.83-.37c-2.41-2.7-4.75-5.58-6.93-8.55a1.11,1.11,0,1,1,1.79-1.32c2.15,2.92,4.44,5.74,6.8,8.39a1.12,1.12,0,0,1-.08,1.57A1.13,1.13,0,0,1,1060.93,2270ZM1048,2252.44a1.11,1.11,0,0,1-1-.54c-1.88-3.12-3.65-6.38-5.24-9.67a1.11,1.11,0,1,1,2-1c1.57,3.23,3.3,6.43,5.15,9.49a1.11,1.11,0,0,1-.38,1.53A1.1,1.1,0,0,1,1048,2252.44Zm-9.5-19.61a1.1,1.1,0,0,1-1-.72c-.9-2.39-1.74-4.85-2.48-7.3-.32-1-.63-2.11-.91-3.17a1.1,1.1,0,0,1,.78-1.37,1.11,1.11,0,0,1,1.36.78q.43,1.56.9,3.12c.73,2.4,1.55,4.81,2.43,7.16a1.11,1.11,0,0,1-.65,1.43A1.07,1.07,0,0,1,1038.51,2232.83Zm-5.65-21a1.1,1.1,0,0,1-1.09-.94,90.61,90.61,0,0,1-1.08-11,1.11,1.11,0,0,1,1.07-1.15,1.15,1.15,0,0,1,1.15,1.07,92.33,92.33,0,0,0,1,10.72,1.1,1.1,0,0,1-.92,1.27Zm-.72-21.75H1032a1.1,1.1,0,0,1-1-1.22,68.68,68.68,0,0,1,2-10.9,1.11,1.11,0,1,1,2.15.58,66.4,66.4,0,0,0-1.92,10.54A1.11,1.11,0,0,1,1032.14,2190.05Zm5.76-20.92a1.17,1.17,0,0,1-.49-.11,1.11,1.11,0,0,1-.51-1.49,49.79,49.79,0,0,1,6-9.4,1.11,1.11,0,1,1,1.73,1.4,48,48,0,0,0-5.69,9A1.13,1.13,0,0,1,1037.9,2169.13Zm13.61-16.8a1.13,1.13,0,0,1-.89-.43,1.11,1.11,0,0,1,.21-1.56,50,50,0,0,1,9.52-5.75,1.11,1.11,0,1,1,.94,2,48.35,48.35,0,0,0-9.11,5.49A1.07,1.07,0,0,1,1051.51,2152.33Z"/><path class="cls-1" d="M1072.94,2281.34a1.12,1.12,0,0,1-.65-.21c-.07-.05-1.72-1.25-4.37-3.63a1.12,1.12,0,0,1,1.49-1.66c2.55,2.3,4.17,3.47,4.18,3.48a1.12,1.12,0,0,1,.25,1.56A1.09,1.09,0,0,1,1072.94,2281.34Z"/><path class="cls-17" d="M1080.66,2145.46c0,36.08-.87,72-2.34,107.76-.29,6.75-.58,13.41-.91,20-11.22-10.38-30.38-31.11-33.76-54.38C1039,2186.22,1045.59,2160.92,1080.66,2145.46Z"/><path class="cls-6" d="M1070.6,1170.72c-2.74,18-9.36,40.36-23.65,65.35-37.36,65.34-54.51,2.38-52.92-25.92,1.48-26.23-20.67-70.61-24.54-91.54a30.19,30.19,0,0,1-.58-4.5c-.31-6.95.07-25.23,3.63-35.36,2.4-6.77,11.81-6.78,29.42-16.24l67.33,61.15S1075,1141.62,1070.6,1170.72Z"/><path class="cls-7" d="M1070.6,1170.72c-2.74,18-9.36,40.36-23.65,65.35-37.36,65.34-54.51,2.38-52.92-25.92,1.48-26.23-20.67-70.61-24.54-91.54,11.55,35.73,30.33,68.69,33.87,97.73s40.68-36.91,24-70.77C1012.41,1115.23,1059.62,1138.24,1070.6,1170.72Z"/><path class="cls-6" d="M969,1076.61s-.05,37.5-5.51,35.39-40.33,13.61-13.87,57.72c5.14,8.59,9.25,21.77,12.45,38,13.38,67.37,11.74,187.33,7.44,248.81-5.08,72.33-118.29,139-190,75.56a115,115,0,0,1-11.42-11.67c-70.31-82.44,47.16-208.16,81.57-252.66S830.45,1165,867.06,1097.64,950.94,1060.2,969,1076.61Z"/><path class="cls-7" d="M969.47,1456.56c-5.08,72.33-118.29,139-190,75.56,14.56-8.3,28.2-19.47,31.57-37.29,7.14-37.67,78.85-109.6,113.36-146.67,28.46-30.55,42.09-93.5,37.62-140.41C975.41,1275.12,973.77,1395.08,969.47,1456.56Z"/><path class="cls-7" d="M974.84,1075.37s11-4.09,18.35-5-15,3.4-15.38,6.55,11,4.93,8.23,7.71-10.15.07-9.73,4.22,6.25,12.83,6.5,17.67-7.75-6.59-8.42-1.64,6.71,16.84,2.49,16.62-7.44-5-8-7.37-2.12-2.88-6.58-2.52-11.36,1.64-16.59,4.52,2.79-2.88,9.62-8.49-2.75-.38-9.74-2.45,10.19-4.48,14.3-6.49-.07-8-5.15-8.71,7.07-2.13,8.26-4.83-24.11-5.33-15.18-9,16.06-.44,18.62-1.69S974.84,1075.37,974.84,1075.37Z"/><path class="cls-10" d="M1039.77,1854c-53.95,7.77-159,17.5-230.46,23.38-37.76,3.09-104.73.58-111.18.71-19.78.36,91.21-260.57,180.89-425.62a615.72,615.72,0,0,1,35-57.55c6.81-9.77,13.65-18.75,20.48-26.78-1.47,11.31,88.12,26.27,103.08,24.71a4.19,4.19,0,0,0,2-.53c-1.87,18.75-2.33,43.62-1.8,72.08,2.65,141.88,30.38,372.94,36.68,381.27C1076.1,1847.78,1062.44,1850.72,1039.77,1854Z"/><path class="cls-17" d="M1157,1151.2c-3.69,5.81-19.46,3.21-22.85,21.6-3.31,18,11.93,63.9-32.31,76.94-.31.1-.63.2-1,.28-.71.21-1.44.4-2.2.59a43.32,43.32,0,0,0-11.34,4.53c-26.53,15.08-38.52,56.11-43.4,79.93l-.2,0-.46-.07c-16.09-2.35-49.91-5.74-70.55-8a290.61,290.61,0,0,1,13.49-27.31c15.44-28.34,38-64.86,51.84-89.83,6.57-11.9,11.18-21.17,12.07-25.7,1.45-7.28,4.79-18,9-29.37,2-5.48,4.31-11.09,6.65-16.52,6.85-15.87,14.53-30.28,20.29-35.39.2-.17.41-.37.63-.54,12.34-10.61,44.79-29.14,44.79-29.14,8.83,24.65,4.91,48.14,10,58.76S1160.71,1145.39,1157,1151.2Z"/><path class="cls-18" d="M1059.18,1154.8c1.93,9.31,7.65,18.89,7.65,18.89-7.89,15-19.89,27.88-28.76,36.18,6.57-11.9,11.18-21.17,12.07-25.7C1051.59,1176.89,1054.93,1166.17,1059.18,1154.8Z"/><path class="cls-18" d="M1108.76,1118.56s-23.64,14.73-42,19.45a5.92,5.92,0,0,0-.88.27c6.85-15.87,14.53-30.28,20.29-35.39.2-.17.41-.37.63-.54C1103.43,1105.11,1108.76,1118.56,1108.76,1118.56Z"/><path class="cls-6" d="M1069.29,1123.66,1002,1062.51a213.81,213.81,0,0,0,28.7-18.27c30.94-23.57,100.14-33.68,122.69,7.48S1120.35,1125.64,1069.29,1123.66Z"/><path class="cls-10" d="M967,1073.22c2.89,0,7.12-.52,7.88,2.15s-1.5,38.07-5.93,38.74-6.87-.15-6.58-2.52S965,1073.24,967,1073.22Z"/><path class="cls-10" d="M1039.57,1392.29c-4.59,4.09-106.59-12.12-105-24.19s16.12-44.19,21.6-43.12c1.94.37,8.17,1.09,16.6,2,20.93,2.25,55.4,5.7,71.21,8.06,4.7.69,7.76,1.31,8.3,1.75C1055.41,1339.35,1044.18,1388.17,1039.57,1392.29Z"/><path class="cls-18" d="M1043.29,1335c-16.09-2.35-49.91-5.74-70.55-8a290.61,290.61,0,0,1,13.49-27.31c-1.28,8-2.74,18.21-2.27,21C984.72,1325.16,1036.79,1333.88,1043.29,1335Z"/><path class="cls-18" d="M1100.89,1250c-.71.21-1.44.4-2.2.59a43.32,43.32,0,0,0-11.34,4.53l-4.59-1.4a44.62,44.62,0,0,1-25-19.79C1066.11,1245.09,1089.48,1252.89,1100.89,1250Z"/><path class="cls-17" d="M1082.2,1160.85c6.75-35.36-13.72-71.24-49.42-48.92s15.81,78.38,27.5,73.33S1082.2,1160.85,1082.2,1160.85Z"/><path class="cls-18" d="M1070.91,1161.11c2.06-21.15-14.79-40.32-24.81-26.35s15.22,7.21,14.41,12.53-3,6.89,1.11,7S1070.43,1166.06,1070.91,1161.11Z"/><path class="cls-19" d="M1037.62,1392.83c-29,7.48-101.32-4.85-111.95-2a122.87,122.87,0,0,0-11.63,4c6.81-9.77,13.65-18.76,20.5-26.8C933.07,1379.42,1022.65,1394.38,1037.62,1392.83Z"/><path class="cls-19" d="M1039.77,1854a283,283,0,0,1-40.28-31.18c-85.36-77.94-143.25-246.43-96.94-376.36l68.81-25.55s36.24,9.93,66.41,43.49c2.65,141.88,30.38,372.94,36.68,381.27C1076.1,1847.78,1062.44,1850.72,1039.77,1854Z"/><path class="cls-17" d="M1286.38,1396c-71.19,110.63-83.87,460.72-254.67,374.49a235.55,235.55,0,0,1-79.27-64.87,266.36,266.36,0,0,1-32.78-53.93c67.49-28.86,127.55-88.83,156.26-120.57,14.67,13.72,29,19.09,44.13,6.93,35-28.1,91.13-111.43,134.2-177.15,5.92-9,11.58-17.75,16.92-25.92,18.64-28.57,35.76-38,40.82-53.67a18.42,18.42,0,0,1,4.76-8.19C1329,1262.31,1348.22,1299.9,1286.38,1396Z"/><path class="cls-10" d="M1075.92,1531.11c-28.71,31.74-88.77,91.71-156.26,120.57-46.55-101.26-29.62-219.26,4-232C992.94,1393.45,1035.72,1493.57,1075.92,1531.11Z"/><path class="cls-18" d="M1075.92,1531.11C980.56,1664,958.05,1652.81,950.5,1672.76c-2.63,7-1.14,19.47,1.94,32.85a266.36,266.36,0,0,1-32.78-53.93C987.15,1622.82,1047.21,1562.85,1075.92,1531.11Z"/><path class="cls-29" d="M1320.44,1162.34a1.09,1.09,0,0,1-.46-.1,1.11,1.11,0,0,1-.56-1.47l23.39-52a1.11,1.11,0,0,1,2,.91l-23.38,52.06A1.13,1.13,0,0,1,1320.44,1162.34Z"/><path class="cls-29" d="M1332.65,1167.65a1.07,1.07,0,0,1-.34-.33,1.12,1.12,0,0,1,.32-1.54l47.63-31.43a1.11,1.11,0,1,1,1.22,1.86l-47.62,31.43A1.11,1.11,0,0,1,1332.65,1167.65Z"/><path class="cls-29" d="M1334.14,1178.28a1,1,0,0,1-.05-.46,1.11,1.11,0,0,1,1.23-1l56.69,6.53a1.12,1.12,0,0,1-.25,2.22l-56.69-6.54A1.09,1.09,0,0,1,1334.14,1178.28Z"/><path class="cls-18" d="M1313.86,1311a244.8,244.8,0,0,0-12.63,38.23c-16.7,11.8-37.25,13.18-47,11.67,5.92-9,11.58-17.75,16.92-25.92,18.64-28.57,35.76-38,40.82-53.67a18.42,18.42,0,0,1,4.76-8.19C1320.56,1279.63,1320.43,1295.42,1313.86,1311Z"/><path class="cls-29" d="M1291.59,1352.6,1234.67,1333c-6.85-2.36-11.53-10.47-10.46-18.11l22.3-159.34c1.07-7.65,7.49-11.93,14.34-9.57l56.93,19.63c6.85,2.36,11.53,10.47,10.46,18.12L1305.94,1343C1304.87,1350.68,1298.44,1355,1291.59,1352.6Z"/><path class="cls-1" d="M1316.64,1171l-11-3.8a2.37,2.37,0,0,0-3.11,2.2l-.32,2.24a2.38,2.38,0,0,1-3.11,2.2l-21.52-7.42a3.8,3.8,0,0,1-2.24-4l.31-2.24a3.8,3.8,0,0,0-2.24-4.05l-3.88-1.34-9.66-3.33c-4.8-1.65-9.3,1.35-10,6.7L1228,1313.67c-.74,5.36,2.53,11,7.33,12.69l56.81,19.59c4.8,1.66,9.3-1.34,10-6.7L1324,1183.73C1324.72,1178.37,1321.44,1172.7,1316.64,1171Z"/><path class="cls-17" d="M1264.09,1239.17c-1.85,6.32-51.95,29-50.48,40.31s20.44,28.17,1.69,33.44c-16.53,4.68-41,8.11-54.92,35l-25.45-31.67c16-17.28,31-31.62,43-39.23C1238.61,1238.79,1265.94,1232.87,1264.09,1239.17Z"/><path class="cls-30" d="M1277.91,210.45c1.1-4,.77-6.57-.69-8.06A21,21,0,0,0,1277.91,210.45Z"/><path class="cls-30" d="M580.15,227.84c-1.92-.46-3.08-.77-3-.76C576.83,228.83,578.12,228.75,580.15,227.84Z"/></g></svg>