<svg xmlns="http://www.w3.org/2000/svg" xmlns:xlink="http://www.w3.org/1999/xlink" viewBox="0 0 590 151.78"><defs><style>.cls-1{fill:#75a641;}.cls-2{fill:#f36d21;}.cls-3{fill:#0696c4;}.cls-4{fill:#cc1d56;}.cls-5{fill:#fff;}.cls-6,.cls-7,.cls-8,.cls-9{opacity:0.34;}.cls-6{fill:url(#linear-gradient);}.cls-7{fill:url(#linear-gradient-2);}.cls-8{fill:url(#linear-gradient-3);}.cls-9{fill:url(#linear-gradient-4);}.cls-10{fill:#010101;}</style><linearGradient id="linear-gradient" x1="10.86" y1="111.81" x2="77.44" y2="111.81" gradientUnits="userSpaceOnUse"><stop offset="0" stop-color="#fdfeff"/><stop offset="0.06" stop-color="#fdfeff" stop-opacity="0.86"/><stop offset="0.16" stop-color="#fdfeff" stop-opacity="0.66"/><stop offset="0.26" stop-color="#fdfeff" stop-opacity="0.48"/><stop offset="0.37" stop-color="#fdfeff" stop-opacity="0.33"/><stop offset="0.48" stop-color="#fdfeff" stop-opacity="0.21"/><stop offset="0.59" stop-color="#fdfeff" stop-opacity="0.12"/><stop offset="0.71" stop-color="#fdfeff" stop-opacity="0.05"/><stop offset="0.84" stop-color="#fdfeff" stop-opacity="0.01"/><stop offset="1" stop-color="#fdfeff" stop-opacity="0"/></linearGradient><linearGradient id="linear-gradient-2" x1="90.82" y1="121.17" x2="147.36" y2="121.17" gradientUnits="userSpaceOnUse"><stop offset="0" stop-color="#fdfeff" stop-opacity="0"/><stop offset="0.16" stop-color="#fdfeff" stop-opacity="0.01"/><stop offset="0.29" stop-color="#fdfeff" stop-opacity="0.05"/><stop offset="0.41" stop-color="#fdfeff" stop-opacity="0.12"/><stop offset="0.52" stop-color="#fdfeff" stop-opacity="0.21"/><stop offset="0.63" stop-color="#fdfeff" stop-opacity="0.33"/><stop offset="0.74" stop-color="#fdfeff" stop-opacity="0.48"/><stop offset="0.84" stop-color="#fdfeff" stop-opacity="0.66"/><stop offset="0.94" stop-color="#fdfeff" stop-opacity="0.86"/><stop offset="1" stop-color="#fdfeff"/></linearGradient><linearGradient id="linear-gradient-3" x1="87.33" y1="46.26" x2="146.63" y2="46.26" xlink:href="#linear-gradient"/><linearGradient id="linear-gradient-4" x1="15.02" y1="37.3" x2="80.72" y2="37.3" xlink:href="#linear-gradient"/></defs><title>jipbm_services_Asset 1</title><g id="Layer_2" data-name="Layer 2"><g id="Layer_1-2" data-name="Layer 1"><rect class="cls-1" x="10.86" y="78.52" width="66.59" height="66.59"/><rect class="cls-2" x="91.31" y="92.91" width="56.54" height="56.54"/><rect class="cls-3" x="87.33" y="16.61" width="59.3" height="59.3"/><path class="cls-4" d="M0,28.49,49.67,0,80.72,44.67l-14.89-3L59.23,74.6l-50.15-10,6.59-32.92Z"/><rect class="cls-5" x="30.79" y="27.94" width="9.74" height="9.74" transform="translate(-3.51 61.32) rotate(-78.66)"/><rect class="cls-5" x="45.62" y="30.91" width="9.74" height="9.74" transform="matrix(0.2, -0.98, 0.98, 0.2, 5.48, 78.25)"/><rect class="cls-5" x="28.12" y="41.26" width="9.74" height="9.74" transform="translate(-18.72 69.41) rotate(-78.66)"/><rect class="cls-5" x="42.95" y="44.23" width="9.74" height="9.74" transform="translate(-9.72 86.33) rotate(-78.66)"/><path class="cls-6" d="M72.25,78.52a123.42,123.42,0,0,0-61.39,57v9.57H77.44V78.52H72.25Z"/><path class="cls-7" d="M127.18,110A90.21,90.21,0,0,0,101.9,92.91H90.82v56.53h56.54V139.23A90.36,90.36,0,0,0,127.18,110Z"/><path class="cls-8" d="M146.63,75.92V16.61H138a129.87,129.87,0,0,0-50.7,59.28v0Z"/><path class="cls-9" d="M65.83,41.69l14.89,3L49.67,0,15,19.88A142,142,0,0,1,37.62,41,142.62,142.62,0,0,1,59,74.57l.19,0Z"/><path class="cls-10" d="M210.16,105.14q-5.26,8.44-18,10.64l-3.84.32-6.57.11h-21.6v-13h19.51a26.4,26.4,0,0,0,10.53-1.86,11.77,11.77,0,0,0,6.35-8.12l.88-5.92.22-49.87h17.1V84.31Q214.76,97.59,210.16,105.14Z"/><path class="cls-10" d="M226.16,116.21v-13.7h13.05v13.7Z"/><path class="cls-10" d="M251.59,116.21V37.4h17.32v78.81Z"/><path class="cls-10" d="M348.28,111.17q-6.69,5-64,5V102.07h41.43c4,0,6.95-.47,8.77-1.42q4.07-2.09,4.06-5.48a24.15,24.15,0,0,0-.33-4.94,3.88,3.88,0,0,0-.66-2,4,4,0,0,0-.87-1.42Q333.79,84,320.54,84h-3.73l-5.37.11q-12.39,0-18.08-2.2Q281,77.08,281,62.83t7.67-20.28q6.8-5.16,19.95-5.15h43.52V51.54H311.22c-3.94,0-7.09.77-9.42,2.3a8.47,8.47,0,0,0-3.51,7.34c0,3.22,1,5.59,3,7.13q3.06,2.09,29.38,2.08l6.25.11,2.63.33,2.3.44a16.62,16.62,0,0,1,5,2l1.86,1.43,2.42,2a13,13,0,0,1,3.72,7A58,58,0,0,1,356,96.59Q356,105.47,348.28,111.17Z"/><path class="cls-10" d="M423.58,116.21l-7.23-18.85H382l-6.8,18.85H357.7L390.81,37.4h17.54L442,116.21ZM399,53.29,387.41,83.44H411Z"/><path class="cls-10" d="M502.84,116.21,495.6,97.36H461.29l-6.79,18.85H437l33.1-78.81H487.6l33.66,78.81ZM478.28,53.29,466.66,83.44h23.57Z"/><path class="cls-10" d="M558.53,116.21l-7-.33-2.52-.1a8,8,0,0,1-2.08-.33,3.11,3.11,0,0,1-.88-.33,7,7,0,0,1-1-.22,27.93,27.93,0,0,1-18-13.92,40.12,40.12,0,0,1-5.37-20.17,81.87,81.87,0,0,1,1.76-18.42,34.86,34.86,0,0,1,5.92-13.26,25,25,0,0,1,12-9,52.88,52.88,0,0,1,8.45-2.09q4.59-.64,36.5-.65V50.88H559.18q-7.89,0-12.6,4.38a20.84,20.84,0,0,0-5.26,10.2,61.67,61.67,0,0,0-1.54,13.92,40.5,40.5,0,0,0,2,13.38q2.85,7.33,9.21,9.09l1.76.44,2,.11,31.68.11v13.7Z"/><path class="cls-10" d="M170.16,139.88a3.52,3.52,0,0,1-2.14,1.65l-.37.08-.63.17a4,4,0,0,1-.71.08l-.39,0-5,0V147h-3.09V132.32h6.7a19.24,19.24,0,0,1,2.39.13,5.59,5.59,0,0,1,2,.65,3.54,3.54,0,0,1,1.45,1.65,5.9,5.9,0,0,1,.51,2.49A5.06,5.06,0,0,1,170.16,139.88Zm-3.59-4.53a4.3,4.3,0,0,0-2.06-.39h-3.57v4.3h3.73a3.88,3.88,0,0,0,1.94-.42,2,2,0,0,0,.86-1.76A1.85,1.85,0,0,0,166.57,135.35Z"/><path class="cls-10" d="M182.94,147l-3.24-5.73h-3.62V147H173V132.32h8.33l.57.11.43.06a.87.87,0,0,1,.27,0l.49.12a3.08,3.08,0,0,1,2,1.57,5.32,5.32,0,0,1,.63,2.64,4.49,4.49,0,0,1-.72,2.57,3.65,3.65,0,0,1-2.22,1.45l3.61,6.14Zm-.81-11.55a3.69,3.69,0,0,0-2.27-.49h-3.78v3.71h3.78a3.53,3.53,0,0,0,2.23-.49,1.85,1.85,0,0,0,.53-1.39A1.7,1.7,0,0,0,182.13,135.45Z"/><path class="cls-10" d="M200.23,145.39a5.66,5.66,0,0,1-2.26,1.43,10,10,0,0,1-3.29.49q-3.72,0-5.53-1.94t-1.8-5.74a8,8,0,0,1,1.8-5.65,6.43,6.43,0,0,1,5-1.94A10.12,10.12,0,0,1,199,133a5.52,5.52,0,0,1,2.61,3.45,13.55,13.55,0,0,1,.35,1.87,23,23,0,0,1,.12,2.45A6.58,6.58,0,0,1,200.23,145.39Zm-2.37-9.27a4,4,0,0,0-6.3,0,5.41,5.41,0,0,0-.86,3.06,11.85,11.85,0,0,0,.39,3.23,4,4,0,0,0,.53,1.2,2.46,2.46,0,0,0,1.06.8l1,.28a9.58,9.58,0,0,0,1.88.13,2.85,2.85,0,0,0,2.26-1.53,6.66,6.66,0,0,0,.84-3.58A6.46,6.46,0,0,0,197.86,136.12Z"/><path class="cls-10" d="M211.81,144.94a4.62,4.62,0,0,1-3.35,2l-.72.06-1.22,0h-4v-2.43h3.63a4.74,4.74,0,0,0,2-.35,2.19,2.19,0,0,0,1.19-1.51l.16-1.1,0-9.29h3.18v8.74A7.47,7.47,0,0,1,211.81,144.94Z"/><path class="cls-10" d="M221.4,147l-1.31-.06-.46,0a1.55,1.55,0,0,1-.39-.06l-.17-.06-.18,0a5.22,5.22,0,0,1-3.35-2.6,6.6,6.6,0,0,1-.73-1.79,7,7,0,0,1-.27-2,15,15,0,0,1,.33-3.41,6.48,6.48,0,0,1,1.1-2.47,4.76,4.76,0,0,1,2.25-1.68,10,10,0,0,1,1.57-.38c.6-.09,2.86-.13,6.8-.13v2.56h-5.07q-3.47,0-3.47,3.43h8.54v2.55h-8.54a6.16,6.16,0,0,0,.15,1.47,3.07,3.07,0,0,0,.18.61,2.12,2.12,0,0,0,.35.51l.55.53a2.08,2.08,0,0,0,.65.33,2.66,2.66,0,0,0,.76.12l5.9,0V147Z"/><path class="cls-10" d="M235.2,147l-1.31-.06-.47,0a1.54,1.54,0,0,1-.38-.06l-.17-.06-.18,0a5.22,5.22,0,0,1-3.35-2.6,7.42,7.42,0,0,1-1-3.75,15.08,15.08,0,0,1,.33-3.43,6.48,6.48,0,0,1,1.1-2.47,4.76,4.76,0,0,1,2.25-1.68,10.23,10.23,0,0,1,1.57-.38q.85-.13,6.8-.13v2.51h-5.07a3.3,3.3,0,0,0-2.34.82,3.83,3.83,0,0,0-1,1.9,11,11,0,0,0-.29,2.59,7.34,7.34,0,0,0,.37,2.49,2.57,2.57,0,0,0,1.71,1.7l.33.08.37,0,5.9,0V147Z"/><path class="cls-10" d="M249,134.92V147h-3.2V134.92h-4.7v-2.56h12.64v2.56Z"/><path class="cls-10" d="M274.43,147l.25-11.41L270.94,147h-3.28l-3.84-11.51.33,11.51H261V132.32h4.53l3.72,11.25L273,132.32h4.52V147Z"/><path class="cls-10" d="M290.79,147l-1.35-3.51h-6.39L281.78,147h-3.26l6.16-14.68H288L294.21,147Zm-4.58-11.72-2.16,5.62h4.39Z"/><path class="cls-10" d="M304.58,147l-6.28-11.08.12,11.08h-3.16V132.32h3.92l6,10.58L305,132.32h3.11V147Z"/><path class="cls-10" d="M321.41,147l-1.35-3.51h-6.39L312.4,147h-3.26l6.16-14.68h3.27L324.83,147Zm-4.58-11.72-2.16,5.62h4.39Z"/><path class="cls-10" d="M330.67,147a4.14,4.14,0,0,1-.49,0l0,0c-.2,0-.41-.07-.61-.12l-1.1-.37a6.21,6.21,0,0,1-.82-.45l-.73-.57a5.6,5.6,0,0,1-1.54-2.53,12.13,12.13,0,0,1-.42-3.45,8.79,8.79,0,0,1,.69-3.66,5.66,5.66,0,0,1,2.86-2.93,4.36,4.36,0,0,1,1.55-.43q1-.13,8.45-.13v2.56h-6.61a3.05,3.05,0,0,0-2.8,1.45,5.57,5.57,0,0,0-.67,2.91l.06,1.54c0,.21.05.38.06.51v0a5.5,5.5,0,0,0,.1.59,3,3,0,0,0,1,1.75q.78.66,5.7.66V140.9h-4.11v-2.59h7.25V147Z"/><path class="cls-10" d="M346.92,147l-1.3-.06-.47,0a1.55,1.55,0,0,1-.39-.06l-.17-.06-.18,0a5.22,5.22,0,0,1-3.35-2.6,6.6,6.6,0,0,1-.73-1.79,7,7,0,0,1-.27-2,15,15,0,0,1,.33-3.41,6.48,6.48,0,0,1,1.1-2.47,4.76,4.76,0,0,1,2.25-1.68,10,10,0,0,1,1.57-.38c.6-.09,2.86-.13,6.8-.13v2.56H347q-3.46,0-3.47,3.43h8.54v2.55h-8.54a6.16,6.16,0,0,0,.15,1.47,3.07,3.07,0,0,0,.18.61,2.12,2.12,0,0,0,.35.51l.55.53a2.2,2.2,0,0,0,.65.33,2.72,2.72,0,0,0,.76.12l5.9,0V147Z"/><path class="cls-10" d="M368.29,147l.25-11.41L364.8,147h-3.28l-3.84-11.51L358,147h-3.17V132.32h4.53l3.72,11.25,3.73-11.25h4.52V147Z"/><path class="cls-10" d="M380.26,147l-1.31-.06-.47,0a1.55,1.55,0,0,1-.39-.06l-.16-.06-.18,0a5.2,5.2,0,0,1-3.35-2.6,6.62,6.62,0,0,1-.74-1.79,7.4,7.4,0,0,1-.26-2,15.61,15.61,0,0,1,.32-3.41,6.49,6.49,0,0,1,1.11-2.47,4.69,4.69,0,0,1,2.24-1.68,10.34,10.34,0,0,1,1.57-.38q.9-.13,6.8-.13v2.56h-5.06c-2.32,0-3.47,1.14-3.47,3.43h8.53v2.55h-8.53a6.78,6.78,0,0,0,.14,1.47,3.07,3.07,0,0,0,.18.61,2.46,2.46,0,0,0,.35.51l.55.53a2.26,2.26,0,0,0,.66.33,2.65,2.65,0,0,0,.75.12l5.9,0V147Z"/><path class="cls-10" d="M397.49,147l-6.29-11.08.12,11.08h-3.16V132.32h3.92l6,10.58-.13-10.58H401V147Z"/><path class="cls-10" d="M410.41,134.92V147H407.2V134.92h-4.69v-2.56h12.63v2.56Z"/><path class="cls-10" d="M424.9,151.78V131.41H427v20.37Z"/><path class="cls-10" d="M444.48,147l-1.31-.06-.47,0a1.55,1.55,0,0,1-.39-.06l-.16-.06-.18,0a5.2,5.2,0,0,1-3.35-2.6,7.42,7.42,0,0,1-1-3.75,15.74,15.74,0,0,1,.32-3.43,6.49,6.49,0,0,1,1.11-2.47,4.69,4.69,0,0,1,2.24-1.68,10.52,10.52,0,0,1,1.57-.38c.58-.09,2.84-.13,6.8-.13v2.51H444.6a3.34,3.34,0,0,0-2.35.82,3.91,3.91,0,0,0-1,1.9,11.55,11.55,0,0,0-.28,2.59,7.61,7.61,0,0,0,.36,2.49,2.6,2.6,0,0,0,1.72,1.7l.32.08.37,0,5.9,0V147Z"/><path class="cls-10" d="M463.85,145.39a5.7,5.7,0,0,1-2.27,1.43,9.94,9.94,0,0,1-3.28.49q-3.72,0-5.54-1.94T451,139.63a8,8,0,0,1,1.79-5.65,6.43,6.43,0,0,1,5-1.94,10.06,10.06,0,0,1,4.84.92,5.54,5.54,0,0,1,2.62,3.45,13.6,13.6,0,0,1,.34,1.87,22.81,22.81,0,0,1,.13,2.45A6.58,6.58,0,0,1,463.85,145.39Zm-2.37-9.27a4,4,0,0,0-6.31,0,5.41,5.41,0,0,0-.85,3.06,11.88,11.88,0,0,0,.38,3.23,4.27,4.27,0,0,0,.53,1.2,2.48,2.48,0,0,0,1.07.8l1,.28a9.47,9.47,0,0,0,1.87.13,2.85,2.85,0,0,0,2.27-1.53,6.66,6.66,0,0,0,.84-3.58A6.55,6.55,0,0,0,461.48,136.12Z"/><path class="cls-10" d="M477,147l-6.29-11.08.12,11.08h-3.16V132.32h3.92l6,10.58-.13-10.58h3.11V147Z"/><path class="cls-10" d="M495.26,146.06q-1.25.94-11.92.94v-2.63h7.72a3.66,3.66,0,0,0,1.63-.27,1.15,1.15,0,0,0,.76-1,4.64,4.64,0,0,0-.06-.92.73.73,0,0,0-.13-.36.72.72,0,0,0-.16-.27c-.35-.35-1.35-.53-3-.53h-.69l-1,0a10.15,10.15,0,0,1-3.37-.41,3.46,3.46,0,0,1-2.31-3.55,4.54,4.54,0,0,1,1.43-3.78,6.06,6.06,0,0,1,3.71-1H496V135h-7.62a3.11,3.11,0,0,0-1.75.43,1.56,1.56,0,0,0-.65,1.36,1.58,1.58,0,0,0,.55,1.33c.38.26,2.2.39,5.47.39l1.16,0,.49.06.43.08a3,3,0,0,1,.94.37l.35.26.45.37a2.48,2.48,0,0,1,.69,1.31,10.63,10.63,0,0,1,.2,2.41A3.23,3.23,0,0,1,495.26,146.06Z"/><path class="cls-10" d="M511.47,143.63a6.62,6.62,0,0,1-1.14,2.17,2.91,2.91,0,0,1-1.39.89L508,147a4.75,4.75,0,0,1-1,.1l-1.73.08-1.68-.06a5.69,5.69,0,0,1-.83-.06,4.16,4.16,0,0,1-1.06-.28,3.22,3.22,0,0,1-1.41-.86,8.76,8.76,0,0,1-.62-.9,6.82,6.82,0,0,1-.46-.88,5.26,5.26,0,0,1-.31-1.94v-9.86H502v8.82a4.45,4.45,0,0,0,.63,2.76,3.31,3.31,0,0,0,2.64.92,3.22,3.22,0,0,0,2.63-.92q.66-.84.65-11.58h3.07v8.9A10.81,10.81,0,0,1,511.47,143.63Z"/><path class="cls-10" d="M520,147q-3,0-4.35-1.47t-1.33-13.21h3.06v8.07l0,.9,0,1a2.1,2.1,0,0,0,1.13,1.79c.51.3,2.46.45,5.83.45V147Z"/><path class="cls-10" d="M529.66,134.92V147h-3.2V134.92h-4.7v-2.56H534.4v2.56Z"/><path class="cls-10" d="M544.36,147,543,143.49h-6.39L535.36,147h-3.27l6.16-14.68h3.27L547.79,147Zm-4.57-11.72-2.17,5.62H542Z"/><path class="cls-10" d="M558.16,147l-6.29-11.08L552,147h-3.16V132.32h3.92l6,10.58-.12-10.58h3.1V147Z"/><path class="cls-10" d="M570.59,147l-1.31-.06-.47,0a1.42,1.42,0,0,1-.38-.06l-.17-.06-.18,0a5.22,5.22,0,0,1-3.35-2.6,7.42,7.42,0,0,1-1-3.75,15.08,15.08,0,0,1,.33-3.43,6.33,6.33,0,0,1,1.1-2.47,4.79,4.79,0,0,1,2.24-1.68,10.64,10.64,0,0,1,1.58-.38q.85-.13,6.79-.13v2.51h-5.06a3.34,3.34,0,0,0-2.35.82,3.91,3.91,0,0,0-1,1.9,11.55,11.55,0,0,0-.28,2.59,7.34,7.34,0,0,0,.37,2.49,2.57,2.57,0,0,0,1.71,1.7l.33.08.36,0,5.9,0V147Z"/><path class="cls-10" d="M584.39,140.55V147h-3.12v-6.45l-5.54-8.23h3.43L582.8,138l3.65-5.64H590Z"/></g></g></svg>