<svg xmlns="http://www.w3.org/2000/svg" viewBox="0 0 4680 3120"><defs><style>.cls-1{fill:#fff;}.cls-2{fill:#ebeff2;}.cls-3{fill:#d3dce2;}.cls-4{fill:none;}.cls-5{fill:#b3bbc3;}.cls-6{fill:#6bb14e;}.cls-7{fill:#57a542;}.cls-8{fill:#d8dfe5;}.cls-9{fill:#343d76;}.cls-10{fill:#192057;}.cls-11{fill:#d9cfc3;}.cls-12{fill:#ff790b;}.cls-13{fill:#fa993b;}.cls-14{fill:#f2e5d6;}.cls-15{fill:#99a9b5;}.cls-16{fill:#f8bd88;}.cls-17{fill:#fc9d6b;}.cls-18{fill:#a6dfea;}.cls-19{fill:#7ccfd5;}.cls-20{fill:#d74f29;}.cls-21{fill:#c43924;}.cls-22{fill:#ff8736;}.cls-23{fill:#feb3b0;}.cls-24{fill:#528e36;}.cls-25{fill:#3b467f;}</style></defs><title>jipbm_services_jipbm_4</title><g id="Buyers_construction_worker_working_on_a_blueprint_together" data-name="Buyers &amp; construction worker working on a blueprint together"><rect class="cls-1" width="4680" height="3120"/><rect class="cls-2" y="2420.64" width="4680" height="699.36"/><path class="cls-3" d="M2792.3,1680.6l-69.8-559.23,28.89-404.91,3.58-50.32-3.58,50.32c33.39-14.32,53.09-39.12,53.09-67.37,0-40.68-39.52-74.2-107.7-79.53V286.3h-29.22V569.19c-58.43,4.2-106.57,38.37-106.57,79.9,0,28.25,23.35,53,56.74,67.37l29.5,404.91-69.5,559.23-24,8.18h263Z"/><polygon class="cls-2" points="3813 852.58 3813 747.95 3526.18 747.95 3526.18 1180.03 2956.88 1180.03 2956.88 897.28 2697.68 897.28 2697.68 781.71 2133.56 781.71 2133.56 437.47 1778.49 437.47 1778.49 569.04 1433.39 569.04 1433.39 1149.76 1259.05 1149.76 1259.05 1354.57 1287.38 1686.64 4013.45 1686.64 4013.45 1483.73 4013.45 1229.29 4013.45 852.58 3813 852.58"/><path class="cls-2" d="M2194.71,307.41V194.52h-263.4V307.41h-47V1643.19h460.94V307.41ZM1997.16,1473.87h-65.85V1408h65.85Zm0-94.07h-65.85V1314h65.85Zm0-188.14h-65.85v-65.85h65.85Zm0-94.07h-65.85v-65.85h65.85Zm0-94.07h-65.85V937.67h65.85Zm0-94.07h-65.85V843.6h65.85Zm0-188.14h-65.85V655.46h65.85Zm0-94.07h-65.85V561.39h65.85Zm0-94.07h-65.85V467.32h65.85Zm94.07,846.63h-56.44V1314h56.44Zm0-94.07h-56.44v-65.85h56.44Zm0-94.07h-56.44v-65.85h56.44Zm0-94.07h-56.44v-65.85h56.44Zm0-94.07h-56.44V937.67h56.44Zm0-94.07h-56.44V843.6h56.44Zm0-94.07h-56.44V749.53h56.44Zm0-94.07h-56.44V655.46h56.44Zm0-188.14h-56.44V467.32h56.44Zm103.48,940.7h-56.44V1408h56.44Zm0-94.07h-56.44V1314h56.44Zm0-94.07h-56.44v-65.85h56.44Zm0-94.07h-56.44v-65.85h56.44Zm0-188.14h-56.44V937.67h56.44Zm0-94.07h-56.44V843.6h56.44Zm0-94.07h-56.44V749.53h56.44Zm0-94.07h-56.44V655.46h56.44Zm0-94.07h-56.44V561.39h56.44Zm0-94.07h-56.44V467.32h56.44Zm94.07,940.7h-56.44V1408h56.44Zm0-188.14h-56.44v-65.85h56.44Zm0-94.07h-56.44v-65.85h56.44Zm0-94.07h-56.44v-65.85h56.44Zm0-94.07h-56.44V937.67h56.44Zm0-94.07h-56.44V843.6h56.44Zm0-94.07h-56.44V749.53h56.44Zm0-94.07h-56.44V655.46h56.44Zm0-188.14h-56.44V467.32h56.44Z"/><rect class="cls-1" x="1931.31" y="467.32" width="65.85" height="65.85"/><rect class="cls-1" x="2034.79" y="467.32" width="56.44" height="65.85"/><rect class="cls-1" x="2138.27" y="467.32" width="56.44" height="65.85"/><rect class="cls-1" x="2232.34" y="467.32" width="56.44" height="65.85"/><rect class="cls-1" x="1931.31" y="561.39" width="65.85" height="65.85"/><rect class="cls-1" x="2138.27" y="561.39" width="56.44" height="65.85"/><rect class="cls-1" x="1931.31" y="655.46" width="65.85" height="65.85"/><rect class="cls-1" x="2034.79" y="655.46" width="56.44" height="65.85"/><rect class="cls-1" x="2138.27" y="655.46" width="56.44" height="65.85"/><rect class="cls-1" x="2232.34" y="655.46" width="56.44" height="65.85"/><rect class="cls-1" x="2034.79" y="749.53" width="56.44" height="65.85"/><rect class="cls-1" x="2138.27" y="749.53" width="56.44" height="65.85"/><rect class="cls-1" x="2232.34" y="749.53" width="56.44" height="65.85"/><rect class="cls-1" x="1931.31" y="843.6" width="65.85" height="65.85"/><rect class="cls-1" x="2034.79" y="843.6" width="56.44" height="65.85"/><rect class="cls-1" x="2138.27" y="843.6" width="56.44" height="65.85"/><rect class="cls-1" x="2232.34" y="843.6" width="56.44" height="65.85"/><rect class="cls-1" x="1931.31" y="937.67" width="65.85" height="65.85"/><rect class="cls-1" x="2034.79" y="937.67" width="56.44" height="65.85"/><rect class="cls-1" x="2138.27" y="937.67" width="56.44" height="65.85"/><rect class="cls-1" x="2232.34" y="937.67" width="56.44" height="65.85"/><rect class="cls-1" x="1931.31" y="1031.74" width="65.85" height="65.85"/><rect class="cls-1" x="2034.79" y="1031.74" width="56.44" height="65.85"/><rect class="cls-1" x="2232.34" y="1031.74" width="56.44" height="65.85"/><rect class="cls-1" x="1931.31" y="1125.81" width="65.85" height="65.85"/><rect class="cls-1" x="2034.79" y="1125.81" width="56.44" height="65.85"/><rect class="cls-1" x="2138.27" y="1125.81" width="56.44" height="65.85"/><rect class="cls-1" x="2232.34" y="1125.81" width="56.44" height="65.85"/><rect class="cls-1" x="2034.79" y="1219.88" width="56.44" height="65.85"/><rect class="cls-1" x="2138.27" y="1219.88" width="56.44" height="65.85"/><rect class="cls-1" x="2232.34" y="1219.88" width="56.44" height="65.85"/><rect class="cls-1" x="1931.31" y="1313.95" width="65.85" height="65.85"/><rect class="cls-1" x="2034.79" y="1313.95" width="56.44" height="65.85"/><rect class="cls-1" x="2138.27" y="1313.95" width="56.44" height="65.85"/><rect class="cls-1" x="1931.31" y="1408.02" width="65.85" height="65.85"/><rect class="cls-1" x="2138.27" y="1408.02" width="56.44" height="65.85"/><rect class="cls-1" x="2232.34" y="1408.02" width="56.44" height="65.85"/><path class="cls-4" d="M554.41,1202.44l46.58-46.6,21.54,21.53,286-286A54.08,54.08,0,0,1,903.21,871H498.33v41.25H435.18q1.89,22.24,5.6,43.91L504.59,939l24,89.65-64.19,17.2c5.06,13.94,10.77,27.54,16.95,40.9l57.15-33,46.4,80.38-57.29,33.07C536.1,1179.34,545,1191.11,554.41,1202.44Z"/><path class="cls-4" d="M666.62,506.86l-27,27L925.08,821.94c5.77-3.76,16.69-6.48,16.69-7.84V406.93H910.83V345.12c-10.31,1.22-28.23,3.08-43.32,5.62l17.11,59.08-89,24L780,374.19c-13.94,5-27.41,10.68-40.78,16.82l30.62,52.9L689.45,490.3l-30.72-53.25c-12.11,8.43-23.91,17.27-35.25,26.67Z"/><path class="cls-4" d="M441.63,774.22c-2.69,14.88-4.79,29.93-6.19,45.2h62.89v30.94H905.89a54.33,54.33,0,0,1,6.94-14.08L625,548.46l-24,24L557.55,529q-14.29,16.86-27.13,34.9l52.76,30.46-46.42,80.38-53.41-30.84q-9.45,19.94-17.24,40.76l59.12,15.86-24,89.65Z"/><path class="cls-4" d="M910.83,1390v-65.24h30.94V921c0-1.91-16.06-6.58-23.24-13L635.82,1192,666,1221.47l-46.44,46.76c11.26,9.51,23.1,18.49,35.14,27l33-57,80.43,46.41L735,1342.11c13.32,6.26,26.91,12,40.81,17.19l17.13-63.9,89.66,24-19.76,64.09C879.41,1386.47,900.52,1388.62,910.83,1390Z"/><path class="cls-4" d="M986.05,912.07c-6.21,4.37-13.35,7.47-23.66,8.94v403.72h41.25v64.47c20.62-1.38,30.65-3.44,44.44-5.93l-15.56-62.89,90.29-24,17.06,62.44c13.88-5.18,27.63-10.94,40.93-17.25l-32.47-56.38,80.41-46.42,32.2,55.73q18-12.84,34.9-27.12L1250,1221.48l22.74-24Z"/><path class="cls-4" d="M1003.64,345.9v61H962.39V814.08c10.31.92,11.91,2.57,16.19,4.67L1270.22,528.4l-20.9-21.54,42.58-42.26c-11.32-9.43-22.93-18.31-35-26.77l-29.93,52-80.35-46.41,30-51.85c-13.35-6.18-27-11.89-40.87-16.94l-15.61,58.27-89.65-24,12.93-57.9C1031.1,348.88,1024.26,347.12,1003.64,345.9Z"/><path class="cls-4" d="M1416.13,871H1011.5a54.16,54.16,0,0,1-8.54,26.27l285.63,285.62,27-27,45.56,45.57c9.4-11.34,18.25-23.15,26.68-35.27l-56.23-32.45,46.4-80.4,55.87,32.27c6.14-13.38,11.81-27,16.83-41l-63-16.87,24-89.66,62.4,16.73q3.54-21,5.36-42.58h-63.39Z"/><path class="cls-4" d="M1358,530.06l-42.44,42.43L1286.09,543,997.77,831.3a54.27,54.27,0,0,1,11.05,19.06h407.31V819.42h63.13c-1.35-14.81-3.38-29.43-6-43.87l-58.18,15.59-24-89.65,58-15.54c-5.14-13.88-10.92-27.48-17.19-40.79l-52.14,30.1-46.41-80.37L1385.06,565Q1372.25,547,1358,530.06Z"/><path class="cls-5" d="M1024.26,1438.65c288.75-35.59,506.29-278.05,506.29-571.1,0-317.48-257-575.77-574.5-575.77S378.36,550.07,378.36,867.55c0,293,223.1,535.37,501.53,571.06v102.68H529.27v113.43h845.61V1541.29H1024.26ZM792.89,1295.4l-17.12,63.9c-13.9-5.15-27.48-10.93-40.8-17.19l33.17-57.45-80.39-46.41-32.91,57q-18.06-12.81-35-27l46.76-46.76L637.11,1192,918.53,908c7.18,6.44,23.24,11.11,23.24,13v403.74H910.83V1390c-10.31-1.35-31.42-3.5-48-6.46l18.47-64.09ZM538.52,1053.79l-57.15,33c-6.18-13.36-11.89-27-16.95-40.9l64.19-17.2-24-89.65-63.81,17.1q-3.7-21.66-5.6-43.91h63.15V871H903.21a54.08,54.08,0,0,0,5.34,20.38l-286,286L601,1155.84l-46.58,46.6c-9.43-11.33-18.31-23.1-26.78-35.2l57.29-33.07Zm-72.41-369.1q7.77-20.81,17.24-40.76l53.41,30.84,46.42-80.38-52.76-30.46q12.86-18,27.13-34.9L601,572.48l24-24L912.83,836.28a54.33,54.33,0,0,0-6.94,14.08H498.33V819.42H435.44c1.4-15.27,3.5-30.32,6.19-45.2l59.56,16,24-89.65ZM689.49,490.3l80.39-46.39L739.34,391c13.37-6.14,27-11.81,40.94-16.82l16,59.65,89.65-24-18.4-59.08c15.09-2.54,33-4.4,43.32-5.62v61.81h30.94V814.1c0,1.36-10.92,4.08-16.69,7.84L638.31,533.88l27.67-27-42.82-43.14c11.35-9.4,23.32-18.24,35.43-26.67Zm430.59-57.41,15.61-58.27c13.92,5.05,27.53,10.76,40.88,16.94l-29.93,51.85L1227,489.82l30-52c12.09,8.46,23.86,17.34,35.18,26.77L1250,506.86l21.54,21.54L978.58,818.75c-4.28-2.1-5.88-3.75-16.19-4.67V406.93h41.25v-61c20.62,1.22,27.46,3,39.71,5.07l-14.22,57.9Zm259.68,242.37,52.14-30.1c6.27,13.31,12,26.91,17.19,40.79l-58,15.54,24,89.65,58.18-15.59c2.57,14.44,4.6,29.06,6,43.87h-63.13v30.94H1008.82a54.27,54.27,0,0,0-11.05-19.06L1286.09,543l29.51,29.51L1358,530.06q14.24,16.88,27,35l-51.71,29.85Zm-83.91,592.09q-16.85,14.3-34.89,27.12l-32.18-55.73-80.36,46.42,32.54,56.38q-19.93,9.46-40.77,17.25l-16.73-62.44-89.65,24,14.27,62.89c-13.79,2.49-23.82,4.55-44.44,5.93v-64.47H962.39V921c10.31-1.47,17.45-4.57,23.66-8.94l286.67,285.38-23.38,24Zm213.09-355.12h-29.42q-1.83,21.56-5.36,42.58l-62.4-16.73-24,89.66,63,16.87c-5,14-10.69,27.57-16.83,41L1378,1053.29l-46.4,80.4,56.23,32.45c-8.43,12.12-17.28,23.93-26.68,35.27l-45.56-45.57-27,27L1003,897.25A54.16,54.16,0,0,0,1011.5,871h404.63v41.25h92.81v0Z"/><path class="cls-3" d="M3588.84,1049.41V575H3527V451.3h-92.81v-165H3362v165h-92.81V575h-61.87v474.37h-51.56v639.37H3640.4V1049.41ZM3413.52,636.92V812.23h-41.24V636.92ZM3496,812.23h-41.25V636.92H3496Zm0,61.87v175.31h-41.25V874.1Zm-123.74,0h41.24v175.31h-41.24ZM3331,812.23h-41.25V636.92H3331Zm-41.25,61.87H3331v175.31h-41.25Zm-82.5,505.31V1162.85h41.25v216.56Zm82.5,0V1162.85H3331v216.56Zm82.5,0V1162.85h41.24v216.56Zm82.49,0V1162.85H3496v216.56Zm82.5,0V1162.85h41.25v216.56Z"/><polygon class="cls-1" points="3248.53 1162.85 3207.28 1162.85 3207.28 1214.41 3207.28 1379.41 3248.53 1379.41 3248.53 1162.85"/><rect class="cls-1" x="3289.78" y="1162.85" width="41.25" height="216.56"/><rect class="cls-1" x="3372.28" y="1162.85" width="41.25" height="216.56"/><rect class="cls-1" x="3454.77" y="1162.85" width="41.25" height="216.56"/><rect class="cls-1" x="3537.27" y="1162.85" width="41.25" height="216.56"/><rect class="cls-1" x="3289.78" y="874.1" width="41.25" height="175.31"/><rect class="cls-1" x="3372.28" y="874.1" width="41.25" height="175.31"/><rect class="cls-1" x="3454.77" y="874.1" width="41.25" height="175.31"/><rect class="cls-1" x="3289.78" y="636.92" width="41.25" height="175.31"/><rect class="cls-1" x="3372.28" y="636.92" width="41.25" height="175.31"/><rect class="cls-1" x="3454.77" y="636.92" width="41.25" height="175.31"/><path class="cls-2" d="M4273.8,1654.72V857.24c0-351.95-477.8-584.37-477.8-584.37V1654.72Z"/><rect class="cls-1" x="3865.02" y="1139.1" width="51.56" height="195.93"/><rect class="cls-1" x="3957.83" y="1139.1" width="51.56" height="195.93"/><rect class="cls-1" x="4143.45" y="1139.1" width="51.56" height="195.93"/><rect class="cls-1" x="3865.02" y="870.98" width="51.56" height="195.93"/><rect class="cls-1" x="4050.64" y="870.98" width="51.56" height="195.93"/><rect class="cls-1" x="4143.45" y="870.98" width="51.56" height="195.93"/><rect class="cls-1" x="3865.02" y="602.86" width="51.56" height="195.93"/><rect class="cls-1" x="3957.83" y="602.86" width="51.56" height="195.93"/><path class="cls-6" d="M4035.09,1512c-44.89-31.36-55.07-89.56-53.29-141.88.29-8.74-.67-18,3.49-25.61s13.85-12.9,21.67-9.22c6.48,3.06,9.31,10.6,12.94,16.84a51.05,51.05,0,0,0,20.48,19.56c5.56,2.89,12.44,4.65,17.93,1.63,7.54-4.16,8.42-14.57,8.37-23.26l-.3-48.56c-.06-8.69-.08-17.56,2.62-25.8s8.67-15.91,16.93-18.22,18.48,2.45,20.23,11c.73,3.54,0,7.21.25,10.82s1.92,7.59,5.34,8.6,6.94-1.45,9.54-4c9-8.77,15.05-20.07,20.74-31.3s11.2-22.74,19.34-32.31,19.38-17.14,31.82-17.85,25.7,7,28.84,19.19-4,24.67-11.76,34.58a194.07,194.07,0,0,1-40.37,38.48c-2.74,1.95-5.71,4-6.76,7.26-1.88,5.79,3.6,11.55,9.32,13.45,6.47,2.16,13.5,1.48,20.27,2.28s14.11,3.79,16.68,10.19c3.55,8.88-3.87,18.18-11.18,24.28a166.17,166.17,0,0,1-49.16,28.37c-6.39,2.34-13.11,4.39-18.26,8.88s-8.27,12.3-5.15,18.42,11.1,8.08,17.8,6.84,12.68-4.88,19.06-7.28c11.93-4.51,27.35-3.69,35,6.63,5,6.78,5.46,16.22,2.92,24.31s-7.69,15-13.17,21.47c-19.13,22.44-43.62,40.51-71.31,50.12s-53.35,12.2-80.87,2.13"/><path class="cls-7" d="M4209.48,1209.68a5.94,5.94,0,0,1-.84.83l-2.58,2.3c-2.28,2-5.63,5-9.85,8.91a327.23,327.23,0,0,0-33.17,35.81c-6.47,8-13.18,17.17-20.22,27.08s-14.44,20.6-21.84,32.1a392.8,392.8,0,0,0-21.43,37.12c-3.34,6.64-6.33,13.59-9.38,20.68l-9.21,21.54c-12.35,29.13-23.2,57.28-31,83.59a388.91,388.91,0,0,0-14.48,71.27,284.65,284.65,0,0,0-.81,49.06c.45,5.79.9,10.28,1.31,13.3.16,1.46.3,2.6.4,3.46a6.17,6.17,0,0,1,.08,1.18s5.65,52.4-.25-1.16c-.13-.85-.32-2-.55-3.43-.52-3-1.06-7.5-1.61-13.29a271.63,271.63,0,0,1,.31-49.23c1.9-20.73,6.44-45.2,14.19-71.59s18.55-54.65,30.9-83.8q4.68-10.9,9.23-21.55c3-7.06,6.06-14.07,9.44-20.74a385.89,385.89,0,0,1,21.6-37.23c7.44-11.5,14.92-22.15,22-32.06s13.88-19,20.41-27a308.51,308.51,0,0,1,33.64-35.55c4.28-3.88,7.71-6.77,10.05-8.7l2.68-2.18A7.53,7.53,0,0,1,4209.48,1209.68Z"/><path class="cls-7" d="M4098.61,1353.06a18.61,18.61,0,0,1-.84-3.71c-.46-2.4-1-5.89-1.62-10.22-1.22-8.65-2.51-20.65-3.88-33.89s-2.83-25.19-4.19-33.8c-.66-4.3-1.24-7.78-1.66-10.18a17,17,0,0,1-.49-3.77,17.2,17.2,0,0,1,1.09,3.64c.62,2.36,1.37,5.82,2.17,10.12,1.65,8.59,3.29,20.56,4.66,33.82,1.32,13.07,2.51,24.89,3.43,33.92.43,4.08.8,7.51,1.1,10.27A17.5,17.5,0,0,1,4098.61,1353.06Z"/><path class="cls-7" d="M4210.29,1332.18a23.7,23.7,0,0,1-4.45.54c-2.87.25-7,.6-12.13,1.19-10.22,1.11-24.3,3.13-39.73,6s-29.29,6.19-39.24,8.83c-5,1.29-9,2.44-11.77,3.22a25.47,25.47,0,0,1-4.36,1.07,24,24,0,0,1,4.18-1.68c2.72-1,6.69-2.28,11.65-3.71,9.91-2.93,23.77-6.37,39.25-9.32a396.53,396.53,0,0,1,39.92-5.58c5.14-.44,9.31-.62,12.2-.68A23.67,23.67,0,0,1,4210.29,1332.18Z"/><path class="cls-7" d="M4050,1477.16a5.7,5.7,0,0,1-.77-1.36l-1.91-4c-1.64-3.52-3.89-8.67-6.58-15.07-5.38-12.79-12.27-30.7-19.6-50.56s-14.05-37.82-19.16-50.7l-6.1-15.25-1.64-4.16a5.62,5.62,0,0,1-.47-1.5,5.91,5.91,0,0,1,.76,1.37l1.91,4c1.65,3.52,3.89,8.67,6.58,15.07,5.39,12.79,12.28,30.7,19.61,50.57s14.05,37.81,19.16,50.7c2.51,6.26,4.57,11.42,6.1,15.24.65,1.67,1.19,3,1.64,4.16A6.14,6.14,0,0,1,4050,1477.16Z"/><path class="cls-7" d="M4198.37,1429.33a5.88,5.88,0,0,1-1.47.6l-4.31,1.45-15.89,5.15c-13.42,4.35-31.88,10.57-52.28,17.48s-38.93,13-52.45,17c-6.75,2-12.23,3.63-16,4.66l-4.4,1.15a6.07,6.07,0,0,1-1.56.3,5.61,5.61,0,0,1,1.47-.61l4.31-1.44c4-1.3,9.35-3,15.89-5.15,13.42-4.35,31.88-10.58,52.28-17.48s38.93-13,52.44-17c6.76-2,12.24-3.64,16.05-4.66l4.4-1.16A5.66,5.66,0,0,1,4198.37,1429.33Z"/><polygon class="cls-5" points="1735.62 1011.16 1207.08 588.26 824.29 875.4 900.76 1541.18 1735.62 1541.18 1735.62 1011.16"/><polygon class="cls-8" points="1008.2 1026.57 809.34 875.4 610.47 1026.57 610.47 1541.18 1008.2 1541.18 1008.2 1026.57"/><path class="cls-1" d="M809.34,1040.14h0a94.47,94.47,0,0,1,94.47,94.48v246H714.86v-246a94.45,94.45,0,0,1,94.48-94.48Z"/><path class="cls-1" d="M1545.24,1124h0a94.46,94.46,0,0,1,94.47,94.47v246H1450.77v-246a94.42,94.42,0,0,1,94.47-94.47Z"/><path class="cls-1" d="M1209.86,737.22h0a94.49,94.49,0,0,1,94.48,94.48V990.84H1115.39V831.7a94.42,94.42,0,0,1,94.47-94.48Z"/><rect class="cls-9" x="610.47" y="1541.18" width="1125.34" height="103.36"/><rect class="cls-9" x="610.47" y="1258.99" width="17.72" height="128.81"/><rect class="cls-9" x="990.49" y="1258.99" width="17.72" height="128.81"/><rect class="cls-9" x="647.42" y="1258.99" width="7.16" height="128.81"/><rect class="cls-9" x="679.08" y="1258.99" width="7.16" height="128.81"/><rect class="cls-9" x="710.75" y="1258.99" width="7.16" height="128.81"/><rect class="cls-9" x="742.42" y="1258.99" width="7.16" height="128.81"/><rect class="cls-9" x="625.65" y="1380.63" width="373.7" height="7.16"/><rect class="cls-9" x="625.65" y="1258.99" width="373.7" height="7.16"/><rect class="cls-9" x="774.09" y="1258.99" width="7.16" height="128.81"/><rect class="cls-9" x="805.76" y="1258.99" width="7.16" height="128.81"/><rect class="cls-9" x="837.42" y="1258.99" width="7.16" height="128.81"/><rect class="cls-9" x="869.09" y="1258.99" width="7.16" height="128.81"/><rect class="cls-9" x="900.76" y="1258.99" width="7.16" height="128.81"/><rect class="cls-9" x="932.43" y="1258.99" width="7.16" height="128.81"/><rect class="cls-9" x="964.1" y="1258.99" width="7.16" height="128.81"/><rect class="cls-10" x="1112.6" y="1186.04" width="194.53" height="458.49"/><circle class="cls-11" cx="1277.16" cy="1419.59" r="14.7"/><polygon class="cls-9" points="1029.72 1054.3 809.34 886.76 588.95 1054.3 578 1039.89 809.34 864.03 1040.67 1039.89 1029.72 1054.3"/><polygon class="cls-9" points="1780.68 1047.21 1207.08 588.26 814.77 882.63 803.91 868.16 1207.44 565.37 1791.98 1033.08 1780.68 1047.21"/><rect class="cls-8" x="378.36" y="1644.38" width="3895.45" height="87.14"/><path class="cls-10" d="M3549.81,1784.51a7,7,0,0,0,2.75-2.66l123.06-213a7,7,0,0,0-12.14-7.07l-123.06,213a7,7,0,0,0,9.39,9.73Z"/><path class="cls-9" d="M3732,1562.11a7,7,0,0,0,.62-12.65l-84.27-46.92a7,7,0,0,0-9.73,9.1l25.41,55.55a7,7,0,0,0,6.7,4.1l58.86-8.64A6.73,6.73,0,0,0,3732,1562.11Zm-71.89-37.26,43.46,24.89-28.73,7.3Z"/><path class="cls-9" d="M3546.05,1770.8l1.3.7,50.5,27s-59,82.37-96.88,58c-41.25-18-5.41-112.79-5.41-112.79Z"/><path class="cls-12" d="M3825.89,1914.15s-76.28-29.23-125.29-88.92-53.18-80.42-53.18-80.42l404.94-60.55s13.92,123.68-47,152.75S3825.89,1914.15,3825.89,1914.15Z"/><path class="cls-9" d="M3856.41,1913.18a9.32,9.32,0,0,0,5.25-.84l293.7-140a9.41,9.41,0,0,0,5.31-9.58l-6.67-58.13,91.91,11.88a9.42,9.42,0,1,0,2.42-18.69l-103.86-13.43a9.42,9.42,0,0,0-10.57,10.42l7.28,63.41-287.63,137.16a9.42,9.42,0,0,0,2.86,17.85Z"/><path class="cls-10" d="M4231.8,1717.81l55.66,7.19a12.56,12.56,0,1,0,3.23-24.92l-55.67-7.2a12.57,12.57,0,0,0-3.22,24.93Z"/><path class="cls-9" d="M4093.25,1990.69a9.43,9.43,0,0,0,10.58-8.42l19.92-199.73a9.43,9.43,0,1,0-18.76-1.87l-17.74,178-100.71-116.19a9.43,9.43,0,0,0-14.25,12.35l115,132.71A9.42,9.42,0,0,0,4093.25,1990.69Z"/><circle class="cls-10" cx="3825.89" cy="1913.73" r="76.72"/><circle class="cls-9" cx="3825.89" cy="1914.15" r="22.83"/><path class="cls-13" d="M3631.74,1756.58a8.54,8.54,0,0,0,1.41-.11l434.86-65a9.42,9.42,0,1,0-2.79-18.64l-434.86,65a9.43,9.43,0,0,0,1.38,18.75Z"/><path class="cls-13" d="M2141,1638.72l-67.36-175c-6.83-17.74-18-17.74-24.83,0l-67.36,175Z"/><polygon class="cls-14" points="2112.46 1564.59 2100.4 1533.24 2022.03 1533.24 2009.97 1564.59 2112.46 1564.59"/><polygon class="cls-14" points="2028.07 1517.55 2094.36 1517.55 2082.3 1486.2 2040.13 1486.2 2028.07 1517.55"/><polygon class="cls-14" points="2130.57 1611.63 2118.5 1580.29 2003.93 1580.29 1991.87 1611.63 2130.57 1611.63"/><path class="cls-12" d="M2154.52,1640.61a3.92,3.92,0,0,1-3.92,3.93H1971.83a3.93,3.93,0,0,1-3.92-3.93h0a3.92,3.92,0,0,1,3.92-3.92H2150.6a3.91,3.91,0,0,1,3.92,3.92Z"/><path class="cls-6" d="M544.88,1526.69c39.82-27.82,48.85-79.45,47.28-125.87-.27-7.75.59-15.92-3.1-22.71s-12.29-11.45-19.22-8.18c-5.76,2.71-8.26,9.4-11.48,14.93a45.39,45.39,0,0,1-18.18,17.36c-4.93,2.56-11,4.13-15.9,1.44-6.69-3.69-7.47-12.92-7.43-20.63l.27-43.08c0-7.71.07-15.58-2.32-22.89s-7.7-14.11-15-16.16-16.39,2.17-17.94,9.71c-.65,3.14,0,6.4-.22,9.6s-1.7,6.74-4.74,7.63-6.16-1.28-8.46-3.54c-8-7.78-13.36-17.8-18.4-27.77s-9.94-20.17-17.16-28.66-17.2-15.21-28.23-15.84-22.8,6.19-25.59,17,3.55,21.89,10.44,30.69a172,172,0,0,0,35.82,34.13c2.43,1.73,5.06,3.59,6,6.45,1.67,5.13-3.2,10.24-8.27,11.92-5.74,1.92-12,1.32-18,2s-12.52,3.36-14.8,9c-3.15,7.88,3.44,16.14,9.92,21.54A147.33,147.33,0,0,0,443.76,1410c5.67,2.07,11.63,3.89,16.2,7.87s7.33,10.91,4.57,16.34-9.85,7.17-15.79,6.07-11.25-4.33-16.91-6.46c-10.59-4-24.26-3.27-31.05,5.89-4.46,6-4.85,14.39-2.59,21.56s6.82,13.35,11.68,19c17,19.91,38.7,35.94,63.27,44.46s47.33,10.82,71.74,1.89"/><path class="cls-7" d="M390.17,1258.48a4.88,4.88,0,0,0,.74.74l2.29,2c2,1.78,5,4.41,8.74,7.91a288.85,288.85,0,0,1,29.43,31.77c5.73,7.14,11.69,15.22,17.93,24s12.82,18.27,19.38,28.47a350.4,350.4,0,0,1,19,32.94c3,5.89,5.62,12.05,8.32,18.34l8.18,19.11c10.95,25.84,20.58,50.82,27.46,74.15a344.26,344.26,0,0,1,12.84,63.23,251.66,251.66,0,0,1,.72,43.53c-.4,5.13-.79,9.11-1.15,11.8l-.36,3.06a5.19,5.19,0,0,0-.07,1.05s-5,46.49.21-1c.13-.75.29-1.76.5-3,.45-2.68.94-6.66,1.43-11.8a241.24,241.24,0,0,0-.28-43.66,338.61,338.61,0,0,0-12.59-63.51c-6.83-23.43-16.45-48.49-27.41-74.35q-4.15-9.68-8.19-19.11c-2.7-6.27-5.38-12.49-8.37-18.41a346.12,346.12,0,0,0-19.16-33c-6.61-10.21-13.24-19.66-19.51-28.44s-12.31-16.85-18.11-24a274,274,0,0,0-29.85-31.54c-3.8-3.43-6.83-6-8.91-7.71L391,1259.1A8.85,8.85,0,0,0,390.17,1258.48Z"/><path class="cls-7" d="M488.52,1385.68a15.54,15.54,0,0,0,.76-3.29c.4-2.13.88-5.23,1.43-9.07,1.08-7.67,2.23-18.32,3.44-30.06s2.51-22.35,3.71-30c.6-3.82,1.1-6.91,1.48-9a14.86,14.86,0,0,0,.43-3.34,15.75,15.75,0,0,0-1,3.23c-.55,2.09-1.21,5.16-1.93,9-1.46,7.62-2.92,18.25-4.13,30l-3,30.09c-.39,3.61-.72,6.66-1,9.11A15,15,0,0,0,488.52,1385.68Z"/><path class="cls-7" d="M389.45,1367.16a21,21,0,0,0,3.95.47c2.54.23,6.22.54,10.75,1.06,9.08,1,21.57,2.78,35.26,5.36s26,5.49,34.8,7.83c4.43,1.14,8,2.16,10.45,2.85a21.78,21.78,0,0,0,3.86,1,20.76,20.76,0,0,0-3.7-1.49c-2.42-.85-5.94-2-10.34-3.29-8.79-2.6-21.08-5.65-34.81-8.27a353.23,353.23,0,0,0-35.42-5c-4.56-.39-8.26-.55-10.82-.6A21.25,21.25,0,0,0,389.45,1367.16Z"/><path class="cls-7" d="M531.68,1495.77a5,5,0,0,0,.68-1.21c.46-1,1-2.15,1.69-3.58,1.46-3.12,3.45-7.69,5.84-13.36,4.78-11.35,10.89-27.24,17.39-44.86s12.46-33.55,17-45l5.41-13.53,1.45-3.69a4.74,4.74,0,0,0,.42-1.33,5.59,5.59,0,0,0-.68,1.22c-.46,1-1,2.15-1.69,3.58-1.46,3.12-3.45,7.69-5.84,13.36-4.78,11.35-10.89,27.24-17.39,44.86s-12.46,33.55-17,45l-5.41,13.53-1.45,3.69A4.85,4.85,0,0,0,531.68,1495.77Z"/><path class="cls-7" d="M400,1453.34a5.43,5.43,0,0,0,1.31.54l3.82,1.28,14.1,4.57c11.91,3.86,28.29,9.38,46.38,15.51s34.54,11.5,46.53,15.11c6,1.81,10.85,3.23,14.23,4.14l3.9,1a5,5,0,0,0,1.39.26,5.43,5.43,0,0,0-1.31-.54l-3.82-1.28-14.1-4.57c-11.9-3.85-28.28-9.38-46.38-15.5s-34.53-11.51-46.52-15.12c-6-1.81-10.86-3.22-14.24-4.13l-3.9-1A4.9,4.9,0,0,0,400,1453.34Z"/><path class="cls-6" d="M1803.3,1526.69c-39.82-27.82-48.85-79.45-47.28-125.87.27-7.75-.58-15.92,3.1-22.71s12.29-11.45,19.22-8.18c5.76,2.71,8.27,9.4,11.48,14.93a45.39,45.39,0,0,0,18.18,17.36c4.93,2.56,11,4.13,15.9,1.44,6.69-3.69,7.48-12.92,7.43-20.63l-.27-43.08c0-7.71-.07-15.58,2.32-22.89s7.7-14.11,15-16.16,16.39,2.17,17.94,9.71c.65,3.14,0,6.4.22,9.6s1.7,6.74,4.74,7.63,6.16-1.28,8.47-3.54c8-7.78,13.35-17.8,18.39-27.77s9.94-20.17,17.16-28.66,17.2-15.21,28.23-15.84,22.8,6.19,25.59,17-3.54,21.89-10.44,30.69a172,172,0,0,1-35.82,34.13c-2.42,1.73-5.06,3.59-6,6.45-1.67,5.13,3.2,10.24,8.27,11.92,5.74,1.92,12,1.32,18,2s12.51,3.36,14.79,9c3.15,7.88-3.43,16.14-9.92,21.54a147.21,147.21,0,0,1-43.61,25.18c-5.67,2.07-11.63,3.89-16.2,7.87s-7.33,10.91-4.57,16.34,9.85,7.17,15.79,6.07,11.25-4.33,16.91-6.46c10.59-4,24.27-3.27,31.05,5.89,4.46,6,4.85,14.39,2.59,21.56s-6.82,13.35-11.68,19c-17,19.91-38.7,35.94-63.27,44.46s-47.32,10.82-71.74,1.89"/><path class="cls-7" d="M1958,1258.48a4.88,4.88,0,0,1-.74.74l-2.29,2c-2,1.78-5,4.41-8.74,7.91a289.84,289.84,0,0,0-29.43,31.77c-5.73,7.14-11.69,15.22-17.93,24s-12.82,18.27-19.38,28.47a350.4,350.4,0,0,0-19,32.94c-3,5.89-5.62,12.05-8.32,18.34s-5.41,12.66-8.18,19.11c-11,25.84-20.58,50.82-27.46,74.15a344.26,344.26,0,0,0-12.84,63.23,251.66,251.66,0,0,0-.72,43.53c.4,5.13.79,9.11,1.15,11.8l.36,3.06a7.49,7.49,0,0,1,.08,1.05s5,46.49-.22-1c-.12-.75-.29-1.76-.5-3-.45-2.68-.94-6.66-1.42-11.8a241.07,241.07,0,0,1,.27-43.66,338.61,338.61,0,0,1,12.59-63.51c6.83-23.43,16.45-48.49,27.41-74.35q4.15-9.68,8.19-19.11c2.7-6.27,5.38-12.49,8.37-18.41a346.12,346.12,0,0,1,19.16-33c6.61-10.21,13.24-19.66,19.51-28.44s12.32-16.85,18.12-24a273.23,273.23,0,0,1,29.84-31.54c3.8-3.43,6.83-6,8.91-7.71l2.38-1.94A8.85,8.85,0,0,1,1958,1258.48Z"/><path class="cls-7" d="M1859.66,1385.68a15.24,15.24,0,0,1-.75-3.29c-.41-2.13-.89-5.23-1.43-9.07-1.09-7.67-2.24-18.32-3.45-30.06s-2.51-22.35-3.71-30c-.59-3.82-1.1-6.91-1.48-9a14.86,14.86,0,0,1-.43-3.34,16.07,16.07,0,0,1,1,3.23c.54,2.09,1.2,5.16,1.92,9,1.46,7.62,2.92,18.25,4.13,30,1.18,11.59,2.23,22.07,3,30.09.39,3.61.72,6.66,1,9.11A15,15,0,0,1,1859.66,1385.68Z"/><path class="cls-7" d="M1958.73,1367.16a21,21,0,0,1-4,.47c-2.54.23-6.22.54-10.75,1.06-9.08,1-21.57,2.78-35.26,5.36s-26,5.49-34.8,7.83c-4.43,1.14-8,2.16-10.45,2.85a21.56,21.56,0,0,1-3.86,1,20.76,20.76,0,0,1,3.7-1.49c2.42-.85,5.94-2,10.34-3.29,8.79-2.6,21.08-5.65,34.81-8.27a353.62,353.62,0,0,1,35.42-5c4.56-.39,8.26-.55,10.82-.6A21.25,21.25,0,0,1,1958.73,1367.16Z"/><path class="cls-7" d="M1816.5,1495.77a5,5,0,0,1-.68-1.21c-.46-1-1-2.15-1.69-3.58-1.46-3.12-3.45-7.69-5.84-13.36-4.78-11.35-10.89-27.24-17.39-44.86s-12.46-33.55-17-45l-5.41-13.53-1.45-3.69a4.74,4.74,0,0,1-.42-1.33,5.59,5.59,0,0,1,.68,1.22c.46,1,1,2.15,1.69,3.58,1.46,3.12,3.45,7.69,5.84,13.36,4.78,11.35,10.89,27.24,17.39,44.86s12.46,33.55,17,45l5.41,13.53,1.45,3.69A4.85,4.85,0,0,1,1816.5,1495.77Z"/><path class="cls-7" d="M1948.16,1453.34a5.43,5.43,0,0,1-1.31.54l-3.82,1.28-14.1,4.57c-11.91,3.86-28.28,9.38-46.38,15.51s-34.54,11.5-46.53,15.11c-6,1.81-10.85,3.23-14.23,4.14l-3.9,1a5,5,0,0,1-1.39.26,5.43,5.43,0,0,1,1.31-.54l3.82-1.28,14.1-4.57c11.9-3.85,28.28-9.38,46.38-15.5s34.53-11.51,46.52-15.12c6-1.81,10.86-3.22,14.24-4.13l3.9-1A5,5,0,0,1,1948.16,1453.34Z"/><path class="cls-13" d="M2860.32,1815.18c-11.87,50.88-47.37,52.11-69.16,81.47s77.68,26.53,75.79,56.85-75.79,72-18,62.53,113.69-86.22,177.16-55,98.53,66.32,139.27,23.68,145.9-31.26,271.9,22.74,218.86-19,135.48-85.27-109.9-218.85-153.48-300.32-324-228.33-457.59-78.64S2865.72,1792,2860.32,1815.18Z"/><ellipse class="cls-15" cx="1364.56" cy="2671.6" rx="202.87" ry="9.37"/><ellipse class="cls-15" cx="1805.89" cy="2674.5" rx="248.78" ry="9.37"/><ellipse class="cls-15" cx="3109.89" cy="2674.5" rx="420.07" ry="15.82"/><ellipse class="cls-15" cx="2601.07" cy="2557.2" rx="420.07" ry="15.82"/><rect class="cls-10" x="2596.9" y="1705.18" width="19.16" height="887.05"/><path class="cls-10" d="M2637.24,2601.81h-63.76c-2.85,0-5.16-4.29-5.16-9.58s2.31-9.58,5.16-9.58h63.76c2.85,0,5.16,4.29,5.16,9.58S2640.09,2601.81,2637.24,2601.81Z"/><rect class="cls-10" x="2073.25" y="2090.32" width="887.05" height="19.16" transform="translate(-128.61 4035.27) rotate(-76.03)"/><path class="cls-10" d="M2441.21,2544.86h-63.77c-2.85,0-5.16-4.29-5.16-9.58s2.31-9.58,5.16-9.58h63.77c2.85,0,5.16,4.29,5.16,9.58S2444.06,2544.86,2441.21,2544.86Z"/><rect class="cls-10" x="2684.37" y="1656.37" width="19.16" height="887.05" transform="translate(-427.27 712.48) rotate(-13.97)"/><path class="cls-10" d="M2769.51,2544.86h63.77c2.85,0,5.16-4.29,5.16-9.58s-2.31-9.58-5.16-9.58h-63.77c-2.85,0-5.16,4.29-5.16,9.58S2766.66,2544.86,2769.51,2544.86Z"/><rect class="cls-9" x="2119.9" y="2055.49" width="970.91" height="35.76"/><rect class="cls-9" x="2119.9" y="1160.72" width="970.91" height="35.76"/><rect class="cls-1" x="2166.22" y="1196.47" width="878.27" height="857.31"/><path class="cls-16" d="M2914,1747.19c-9.25,13-39.22,15.54-28.12,29.23,8.09,10,34.38,11.71,53.29,18.93,7,2.68,13.05,6.12,16.74,11,13.58,18.13,45-6.29,9.14-44a133,133,0,0,0-10.46-9.83c-38.38-32.5-92.44-44.2-96.83-40.49C2852.92,1716.11,2923.21,1734.24,2914,1747.19Z"/><path class="cls-17" d="M2939.14,1795.14v.21c7,2.68,13.05,6.12,16.74,11,13.58,18.13,45-6.29,9.14-44a133,133,0,0,0-10.46-9.83C2956.16,1774.33,2939,1789.35,2939.14,1795.14Z"/><path class="cls-16" d="M3238.84,1629c1.25-6.09.88-10.59-.84-14.43h0c-3.54-7.93-12.85-13-25.57-23.69q-1.68-1.42-3.48-3c-1.52-1.34-3.07-2.76-4.67-4.28-23.64-22.43,2-49.37,1.58-64.16s-11.22-5.22-14.44-11,30.4-25.23,29.66-51.22c0,0,5.15-.52,13.66-.93,5.42-.27,12.21-.52,19.9-.56,19.74-.1,35.76,36.84,36.56,48.65s1.51,46.74.2,74.58c-.29,6.26,2.53,21.92,7,44-8.31.32-52.44,10.9-63.8,16.09C3236.91,1634.74,3238.35,1631.47,3238.84,1629Z"/><path class="cls-17" d="M3293.75,1617.52c2.56-4.12-9.76-29.39-6.79-45.27s-.3-14.47-2.63-23.78,1.25-17.39-1.74-25.3-1.58-18.86-1.58-18.86-15.43-7.13-19-14.4-5.07-11.32-5.07-11.32-2.8-6-6.67-4.35-20.23,3.43-28.24-.49a85.87,85.87,0,0,1,12.73-17.42c5.42-.27,12.21-.52,19.9-.56,19.74-.1,35.76,36.84,36.56,48.65s1.51,46.74.2,74.58c-.29,6.26,2.53,21.92,7,44-8.31.32-52.44,10.9-63.8,16.09C3244.52,1631,3291.18,1621.65,3293.75,1617.52Z"/><path class="cls-9" d="M3354.37,2577.65c-.31,7.1-.64,13.72-1,19.79l-63.52,2.81c-12.37-27.5-39.82-81.95-68.84-139.59-16.1-32-32.67-64.92-47.43-94.81-22.14-44.87-40.18-82.83-46.31-100.15-13.23-37.45,81.86-156.81,149.7-235.43,36.26-42,64.74-72.37,64.74-72.37C3358.27,2119.69,3360.47,2440.07,3354.37,2577.65Z"/><path class="cls-10" d="M3324.94,2030.23c4.32,97.5-77.7,351.92-103.93,430.43-16.1-32-32.67-64.92-47.43-94.81-22.14-44.87-40.18-82.83-46.31-100.15-13.23-37.45,81.86-156.81,149.7-235.43A426.4,426.4,0,0,1,3324.94,2030.23Z"/><path class="cls-9" d="M3342.08,1906.32a509,509,0,0,1-.37,51.58c-9.36,142.64-83.22,287.2-168.13,407.95-65.7,93.43-138,172.6-192.18,225.57-8.76,8.58-17.05,16.46-24.76,23.6l-79.43,3.52c25.68-82.7,85.23-337.62,173.28-583.51q14.12-39.43,27.54-74c12.94-33.44,25.35-63.67,37.14-91,41.13-95.34,74.64-155.09,96.39-191.87,10.9-8.39,39-18.55,58.41-14.74,22.08,4.32,40.77,42.86,43,78.3s4.81,134.45,7.4,144.49C3321.91,1892.35,3323.45,1904.3,3342.08,1906.32Z"/><path class="cls-18" d="M3300.07,1631.39c-.7,3.18-68.15,32.44-71,34.46-2.14,1.52-1.06-10.12.79-18.36a29.5,29.5,0,0,1,2.11-6.71,6.3,6.3,0,0,1,2.61-1.69c11.36-5.19,55.49-15.77,63.8-16.09.74,0,1.2,0,1.33.18C3301.4,1625.17,3300.78,1628.21,3300.07,1631.39Z"/><path class="cls-13" d="M2956.64,2615c-32.53,30.19-54.77,47.26-58.8,47.44-18.58.82-78.48,4.32-84.43,3.74s38.31-13.54,52.4-20.09c2.37-1.1,6.19-10.79,11.4-27.57Z"/><path class="cls-13" d="M3353.37,2597.44c-1.68,28.58-3.83,60.37-6.36,60.48l-126.64,5.61c-9.29.41,74.11-18.88,76.33-30,.3-1.5-2.22-23-6.85-33.3Z"/><path class="cls-10" d="M3354.37,2577.65c-.31,7.1-.64,13.72-1,19.79l-63.52,2.81s57.06-7.4,58.52-7.67C3349.22,2592.43,3352.08,2584.43,3354.37,2577.65Z"/><path class="cls-10" d="M3276.82,1901.53S3241.75,2094.17,3078,1961c12.94-33.44,25.35-63.67,37.14-91C3163.82,1863.46,3276.82,1901.53,3276.82,1901.53Z"/><path class="cls-10" d="M2981.4,2591.42c-8.76,8.58-17.05,16.46-24.76,23.6l-79.43,3.52s77.35-12.31,81.15-12.48C2960.29,2606,2971.16,2598.62,2981.4,2591.42Z"/><path class="cls-19" d="M3342.08,1906.32c-18.63-2-20.17-14-21.76-20.12-2.59-10-5.22-109.06-7.4-144.49s-20.87-74-43-78.3c-19.46-3.81-47.51,6.35-58.41,14.74,7.6-12.84,13.76-22.89,18.3-30.66-1.85,8.24-2.93,19.88-.79,18.36,2.85-2,70.3-31.28,71-34.46C3313.56,1697.47,3338.4,1811,3342.08,1906.32Z"/><circle class="cls-10" cx="3303.06" cy="1902.89" r="11.88"/><path class="cls-20" d="M3356.79,1508.36c-3.12,10.49-25,13.1-25.35,15.05s21.43,21.26,6.38,34.3c-.31.27-.66.54-1,.8-17,13-26.21,5.4-25.79,9.81s-16.68,14.92-21.15,24-5.44-22.38,0-28.34-7.72-11.93-2.47-27.17a35.27,35.27,0,0,0,1.51-12.92c-.61-12.87-5.9-25.73-5.9-25.73-27.7,1.79-24.25-25.43-32.16-25.64s-28.88,9.87-35.95-6.45a42.59,42.59,0,0,1-2.5-7.53c-3.09-13.5,2.38-25,23.62-21.6,19.84,3.13,73.16,22.79,98.7,35,6.85,3.28,11.69,6,13.38,7.79C3356.1,1488.09,3359.92,1497.85,3356.79,1508.36Z"/><path class="cls-21" d="M3356.79,1508.36c-3.12,10.49-25,13.1-25.35,15.05s21.43,21.26,6.38,34.3l-48.89-33.82s9.87-7.12,16.55-15.59,6-23.53,6-23.68l-99-26.08c1.37.09,81.72,4.94,109.36,10.62,4.25.87,8.61,1.8,13,2.81,6.85,3.28,11.69,6,13.38,7.79C3356.1,1488.09,3359.92,1497.85,3356.79,1508.36Z"/><path class="cls-16" d="M3268.88,1511.19c9.69-29.47,47-36.35,50.43-16.9s-32.81,32.75-41.61,31.31S3268.88,1511.19,3268.88,1511.19Z"/><path class="cls-17" d="M3279,1514.12c1.67-9.25,16.59-23.43,22.51-16.93s-9.49,5.21-11.29,7.55-.28,5-2.66,5.34S3278.78,1515.46,3279,1514.12Z"/><path class="cls-12" d="M3362,1467.37l-12.69-2c0-.1.06-.2.08-.3.08-.28.14-.56.21-.82,20.45-79.55-100.39-118.75-126.79-32.41q-1.36,4.44-2.39,9.35c-.22,1.09-.42,2.2-.63,3.33l-12.31-2a2.57,2.57,0,0,0-.4-.06c.2-1.22.42-2.43.67-3.65q1-5.15,2.51-10.2c4.82-16.25,13.46-31.48,27-42.08,17.05-13.79,40.37-18.78,61.79-14.66,21.52,3.9,41.37,16.43,53.54,34.62C3364.58,1424.13,3367.42,1447,3362,1467.37Z"/><path class="cls-22" d="M3349.6,1464.21c-.07.26-.13.54-.21.82,0,.1-.06.2-.08.3l-129.52-20.85c.21-1.13.41-2.24.63-3.33q1-4.9,2.39-9.35C3249.21,1345.46,3370.05,1384.66,3349.6,1464.21Z"/><path class="cls-13" d="M3360.08,1482.31,3202.63,1457a7.09,7.09,0,0,1-1.55-.43,7.5,7.5,0,0,1,3.53-14.45l.41.06,12.3,2L3346.85,1465l12.69,2,2.93.47a7.51,7.51,0,0,1-2.39,14.83Z"/><path class="cls-17" d="M3238,1614.6c-3.54-7.93-12.85-13-25.57-23.69,10.87,8.28,30.06,15.08,32.81,15.45C3248.32,1606.75,3235.15,1607.21,3238,1614.6Z"/><path class="cls-19" d="M3240.94,1671.26c44.36,7.8,61.62,57.62,56.69,120.76s-13.5,99.65-20.81,109.51-99.06,17.1-111.89,13.24S3240.94,1671.26,3240.94,1671.26Z"/><path class="cls-18" d="M2954.77,1841.85c.7-.33,2.29-2,4.5-4.5,1.07-1.24,2.3-2.72,3.63-4.37,12.91-15.91,36.42-48.29,41.53-57.75.84-1.58,1.19-2.51.89-2.65-12-5.42-21.14-16.17-29.27-15.71-1.57.08-4.33,1.82-7.71,4.59-.24.22-.49.41-.73.63-8.79,7.45-21.37,21.54-28.46,33.05-4.38,7.09-6.69,13.21-4.75,16.18C2940.79,1821.15,2949.78,1844.2,2954.77,1841.85Z"/><path class="cls-18" d="M3280.44,1722.62c25.75,51.11,21.2,177.22-60,225.91-12.12,7.24-26.43,12.87-43.28,16.37C3106.47,1979.63,3045,1933,3001,1882.71A518.92,518.92,0,0,1,2962.9,1833a0,0,0,0,0,0,0,.26.26,0,0,0,.11-.12c12.93-15.95,36.3-48.17,41.4-57.61,9.62,3,19.55,5.87,29.3,8.51,21.23,5.68,41.66,10.25,56.48,12.82,10.81,1.88,18.62,2.69,21.59,2.12,14.07-2.68,60.64-123.38,123.4-128.06C3235.2,1670.61,3250.84,1663.9,3280.44,1722.62Z"/><circle class="cls-19" cx="2951.01" cy="1812.5" r="7.23"/><path class="cls-19" d="M3033.73,1783.73c-8.39,1.64-17.41,3.44-21.79,4.46-9,2.12-46.39,42-48.91,44.64,12.93-15.95,36.3-48.17,41.4-57.61C3014.05,1778.25,3024,1781.09,3033.73,1783.73Z"/><path class="cls-13" d="M1802.32,2515.39c-.43,2.53-6.22,23.14-13.13,47.7-4.06,14.5-8.51,30.36-12.49,44.71a231.1,231.1,0,0,0-6.93,37.14h-34.38c-1.19-3.36-2.44-7.13-3.73-11.26-26.94-85.28-76.48-326.82-75.27-414.94,0,0,22.15,43.67,49.17,97.5C1748.22,2401.15,1803,2511.34,1802.32,2515.39Z"/><path class="cls-12" d="M1769.77,2644.94h-34.38c-1.19-3.36-2.44-7.13-3.73-11.26C1746.07,2644,1769.77,2644.94,1769.77,2644.94Z"/><path class="cls-12" d="M1802.31,2515.39c-.69,4-14.9,53.76-25.61,92.41-21.3-41-111.42-220.23-120.31-389.05,0,0,36.57,92.14,49.18,97.49C1748.21,2401.14,1803,2511.35,1802.31,2515.39Z"/><path class="cls-16" d="M1794.73,2664c-10.07-.26-33.09,0-49.2,0-1.51,0-3.53-2.91-5.91-8.28h0c-1.29-2.9-2.7-6.52-4.22-10.76h34.38c-.76,7.35-.81,12-.51,12.06C1771,2657.3,1804.8,2664.26,1794.73,2664Z"/><path class="cls-17" d="M1794.73,2664c-10.07-.25-33.09,0-49.21,0-1.5,0-3.51-2.9-5.89-8.27,2.31,2.26,4.85,4.46,6.41,4.92C1749.49,2661.65,1794.73,2664,1794.73,2664Z"/><path class="cls-9" d="M1800,2666.27h-61.44a1.24,1.24,0,0,1,0-2.48H1800a1.24,1.24,0,0,1,0,2.48Z"/><path class="cls-9" d="M1775.85,2665.7a.83.83,0,0,1-.77-.52,5.57,5.57,0,0,1,1-5.92,4.27,4.27,0,0,1,4.16-1.58.82.82,0,0,1,.58,1,.83.83,0,0,1-1,.58,2.77,2.77,0,0,0-2.49,1.09,3.91,3.91,0,0,0-.7,4.21.83.83,0,0,1-.46,1.07A.85.85,0,0,1,1775.85,2665.7Z"/><path class="cls-1" d="M1758.41,2644.28a1.52,1.52,0,0,1-1.32-1.63c0-2.54.05-5.77.1-9.64a1.47,1.47,0,0,1,1.39-1.57,1.61,1.61,0,0,1,1.34,1.65c-.05,3.86-.08,7.08-.1,9.62a1.47,1.47,0,0,1-1.38,1.57Zm.24-19.26a1.52,1.52,0,0,1-1.32-1.65c0-3,.1-6.19.16-9.63a1.47,1.47,0,0,1,1.39-1.55h0a1.52,1.52,0,0,1,1.32,1.65c-.06,3.44-.12,6.65-.16,9.62a1.47,1.47,0,0,1-1.39,1.56Zm.35-19.25a1.54,1.54,0,0,1-1.32-1.66q.09-4.61.21-9.63a1.47,1.47,0,0,1,1.4-1.54h0a1.53,1.53,0,0,1,1.32,1.66q-.12,5-.21,9.62a1.47,1.47,0,0,1-1.4,1.55Zm.45-19.25a1.54,1.54,0,0,1-1.33-1.66q.12-4.68.26-9.63a1.45,1.45,0,0,1,1.41-1.54,1.55,1.55,0,0,1,1.32,1.67q-.13,4.95-.26,9.62a1.45,1.45,0,0,1-1.4,1.54Zm.52-19.24h0a1.55,1.55,0,0,1-1.32-1.68c.09-3.13.19-6.35.3-9.63a1.46,1.46,0,0,1,1.4-1.53h0a1.56,1.56,0,0,1,1.32,1.68q-.17,4.92-.3,9.62A1.46,1.46,0,0,1,1760,2567.28Zm.61-19.26h0a1.54,1.54,0,0,1-1.31-1.68q.15-4.73.33-9.63a1.45,1.45,0,0,1,1.41-1.52h0a1.55,1.55,0,0,1,1.31,1.69q-.18,4.89-.33,9.62A1.45,1.45,0,0,1,1760.58,2548Zm.68-19.25h0a1.55,1.55,0,0,1-1.3-1.69q.18-4.74.37-9.62a1.45,1.45,0,0,1,1.41-1.52h0a1.55,1.55,0,0,1,1.3,1.69c-.13,3.26-.25,6.46-.37,9.62A1.46,1.46,0,0,1,1761.26,2528.77Zm.76-19.24h0a1.54,1.54,0,0,1-1.29-1.69q.19-4.76.4-9.62a1.46,1.46,0,0,1,1.41-1.51h0a1.54,1.54,0,0,1,1.29,1.7c-.14,3.24-.27,6.45-.4,9.61A1.47,1.47,0,0,1,1762,2509.53Zm.83-19.24h0a1.56,1.56,0,0,1-1.29-1.71q.21-4.76.44-9.62a1.48,1.48,0,0,1,1.44-1.5,1.56,1.56,0,0,1,1.29,1.71q-.23,4.86-.44,9.61A1.46,1.46,0,0,1,1762.85,2490.29Zm.91-19.24h0a1.56,1.56,0,0,1-1.29-1.71q.24-4.76.48-9.62a1.47,1.47,0,0,1,1.41-1.49h0a1.56,1.56,0,0,1,1.28,1.72q-.24,4.85-.48,9.61A1.44,1.44,0,0,1,1763.76,2471.05Zm1-19.22h0a1.57,1.57,0,0,1-1.28-1.72q.25-4.77.52-9.61a1.43,1.43,0,0,1,1.45-1.49,1.57,1.57,0,0,1,1.28,1.72q-.27,4.84-.52,9.61A1.46,1.46,0,0,1,1764.73,2451.83Zm1.06-19.22h0a1.55,1.55,0,0,1-1.27-1.72q.27-4.77.55-9.61a1.47,1.47,0,0,1,1.46-1.47,1.56,1.56,0,0,1,1.27,1.72q-.29,4.84-.56,9.6A1.45,1.45,0,0,1,1765.79,2432.61Zm1.13-19.21h-.06a1.56,1.56,0,0,1-1.26-1.73q.29-4.77.59-9.6a1.45,1.45,0,0,1,1.41-1.47h.06a1.57,1.57,0,0,1,1.26,1.73c-.21,3.22-.4,6.42-.6,9.6A1.45,1.45,0,0,1,1766.92,2413.4Zm1.2-19.21h-.06a1.56,1.56,0,0,1-1.25-1.74q.3-4.77.63-9.6a1.45,1.45,0,0,1,1.47-1.46,1.57,1.57,0,0,1,1.25,1.74c-.21,3.22-.42,6.41-.63,9.6A1.44,1.44,0,0,1,1768.12,2394.19Zm1.29-19.19h-.07a1.57,1.57,0,0,1-1.25-1.74c.22-3.18.45-6.38.67-9.6a1.44,1.44,0,0,1,1.48-1.45,1.58,1.58,0,0,1,1.25,1.75c-.23,3.21-.46,6.41-.67,9.59A1.46,1.46,0,0,1,1769.41,2375Zm1.37-19.19h-.08a1.57,1.57,0,0,1-1.24-1.76q.35-4.77.71-9.59a1.44,1.44,0,0,1,1.48-1.44,1.56,1.56,0,0,1,1.24,1.75q-.36,4.82-.71,9.59A1.44,1.44,0,0,1,1770.78,2355.81Zm1.45-19.18h-.09a1.57,1.57,0,0,1-1.23-1.76q.38-4.77.75-9.59a1.42,1.42,0,0,1,1.49-1.43,1.57,1.57,0,0,1,1.23,1.76q-.37,4.82-.75,9.58A1.44,1.44,0,0,1,1772.23,2336.63Zm1.53-19.16h-.09a1.57,1.57,0,0,1-1.23-1.76c.26-3.19.53-6.38.8-9.59a1.43,1.43,0,0,1,1.5-1.42,1.58,1.58,0,0,1,1.22,1.77q-.4,4.8-.8,9.57A1.45,1.45,0,0,1,1773.76,2317.47Zm1.62-19.16h-.1a1.58,1.58,0,0,1-1.22-1.77c.28-3.18.56-6.38.85-9.58a1.44,1.44,0,0,1,1.5-1.41,1.58,1.58,0,0,1,1.21,1.78q-.42,4.8-.84,9.57A1.43,1.43,0,0,1,1775.38,2298.31Zm1.71-19.14h-.1a1.58,1.58,0,0,1-1.21-1.78q.43-4.77.89-9.57a1.42,1.42,0,0,1,1.51-1.4,1.57,1.57,0,0,1,1.2,1.78c-.3,3.2-.6,6.38-.89,9.56A1.44,1.44,0,0,1,1777.09,2279.17Zm1.8-19.13h-.11a1.59,1.59,0,0,1-1.2-1.79q.47-4.77.94-9.57a1.43,1.43,0,0,1,1.51-1.39,1.59,1.59,0,0,1,1.2,1.8c-.31,3.19-.63,6.37-.93,9.55A1.45,1.45,0,0,1,1778.89,2260Zm1.91-19.12h-.12a1.59,1.59,0,0,1-1.2-1.8l1-9.55a1.41,1.41,0,0,1,1.52-1.38,1.58,1.58,0,0,1,1.19,1.8l-1,9.54A1.42,1.42,0,0,1,1780.8,2240.92Zm2-19.1h-.13a1.59,1.59,0,0,1-1.18-1.81c.34-3.18.68-6.36,1-9.55a1.4,1.4,0,0,1,1.53-1.37,1.61,1.61,0,0,1,1.17,1.82q-.52,4.77-1,9.53A1.44,1.44,0,0,1,1782.8,2221.82Zm2.1-19.08-.13,0a1.59,1.59,0,0,1-1.18-1.81q.54-4.77,1.1-9.54a1.41,1.41,0,0,1,1.53-1.36,1.59,1.59,0,0,1,1.17,1.82c-.36,3.18-.73,6.35-1.09,9.53A1.44,1.44,0,0,1,1784.9,2202.74Zm2.22-19.07H1787a1.62,1.62,0,0,1-1.16-1.83c.38-3.18.76-6.35,1.15-9.53a1.41,1.41,0,0,1,1.55-1.34,1.61,1.61,0,0,1,1.16,1.83q-.59,4.76-1.16,9.52A1.42,1.42,0,0,1,1787.12,2183.67Zm2.33-19.08-.15,0a1.59,1.59,0,0,1-1.15-1.83q.6-4.78,1.21-9.55a1.39,1.39,0,0,1,1.55-1.33,1.61,1.61,0,0,1,1.15,1.84q-.61,4.77-1.21,9.53A1.44,1.44,0,0,1,1789.45,2164.59Zm2.46-19.07-.17,0a1.63,1.63,0,0,1-1.14-1.85c.42-3.17.85-6.35,1.28-9.52a1.39,1.39,0,0,1,1.56-1.32,1.62,1.62,0,0,1,1.13,1.85q-.64,4.76-1.27,9.51A1.44,1.44,0,0,1,1791.91,2145.52Zm2.58-19-.18,0a1.62,1.62,0,0,1-1.13-1.85c.44-3.17.89-6.33,1.34-9.5a1.38,1.38,0,0,1,1.57-1.3,1.61,1.61,0,0,1,1.12,1.86q-.68,4.74-1.33,9.48A1.43,1.43,0,0,1,1794.49,2126.5Zm2.7-19-.19,0a1.62,1.62,0,0,1-1.11-1.87c.46-3.16.93-6.31,1.4-9.47a1.39,1.39,0,0,1,1.58-1.28,1.62,1.62,0,0,1,1.11,1.87q-.7,4.72-1.4,9.45A1.43,1.43,0,0,1,1797.19,2107.53Zm2.84-18.9-.2,0a1.64,1.64,0,0,1-1.1-1.88q.74-4.72,1.48-9.43a1.37,1.37,0,0,1,1.59-1.27,1.62,1.62,0,0,1,1.09,1.88c-.49,3.14-1,6.28-1.47,9.42A1.43,1.43,0,0,1,1800,2088.63Zm3-18.85-.22,0a1.63,1.63,0,0,1-1.08-1.89q.77-4.72,1.55-9.45a1.38,1.38,0,0,1,1.61-1.24,1.61,1.61,0,0,1,1.07,1.89q-.78,4.71-1.55,9.43A1.41,1.41,0,0,1,1803,2069.78Zm3.14-18.87a.83.83,0,0,1-.22,0,1.64,1.64,0,0,1-1.07-1.9c.54-3.15,1.08-6.3,1.63-9.43a1.37,1.37,0,0,1,1.62-1.23,1.63,1.63,0,0,1,1.06,1.9c-.55,3.13-1.1,6.27-1.63,9.42A1.43,1.43,0,0,1,1806.16,2050.91Zm3.32-18.83-.24,0a1.65,1.65,0,0,1-1.06-1.91c.57-3.15,1.15-6.28,1.73-9.41a1.36,1.36,0,0,1,1.63-1.21,1.65,1.65,0,0,1,1,1.92c-.58,3.12-1.16,6.25-1.72,9.39A1.42,1.42,0,0,1,1809.48,2032.08Zm3.49-18.79a1.09,1.09,0,0,1-.25,0,1.65,1.65,0,0,1-1-1.93c.6-3.14,1.21-6.26,1.82-9.38a1.36,1.36,0,0,1,1.63-1.19,1.65,1.65,0,0,1,1,1.94c-.61,3.11-1.22,6.23-1.81,9.36A1.42,1.42,0,0,1,1813,2013.29Zm3.68-18.74a.84.84,0,0,1-.27,0,1.63,1.63,0,0,1-1-1.94q.95-4.69,1.91-9.36a1.35,1.35,0,0,1,1.65-1.16,1.67,1.67,0,0,1,1,2q-1,4.65-1.92,9.34A1.38,1.38,0,0,1,1816.65,1994.55Zm3.88-18.67a1.37,1.37,0,0,1-.28-.05,1.66,1.66,0,0,1-1-2c.67-3.12,1.34-6.23,2-9.32a1.35,1.35,0,0,1,1.66-1.14,1.67,1.67,0,0,1,1,2q-1,4.63-2,9.3A1.41,1.41,0,0,1,1820.53,1975.88Zm4.1-18.61a.89.89,0,0,1-.31-.06,1.65,1.65,0,0,1-1-2c.7-3.11,1.42-6.21,2.14-9.29a1.34,1.34,0,0,1,1.68-1.1,1.67,1.67,0,0,1,1,2q-1.08,4.61-2.13,9.26A1.4,1.4,0,0,1,1824.63,1957.27Zm4.34-18.53a1.3,1.3,0,0,1-.33-.07,1.67,1.67,0,0,1-.94-2c.75-3.09,1.5-6.18,2.27-9.24a1.34,1.34,0,0,1,1.69-1.08,1.69,1.69,0,0,1,.93,2c-.76,3.06-1.52,6.13-2.26,9.22A1.4,1.4,0,0,1,1829,1938.74Zm4.6-18.45a1.15,1.15,0,0,1-.36-.07,1.68,1.68,0,0,1-.91-2c.79-3.08,1.6-6.15,2.41-9.2a1.32,1.32,0,0,1,1.71-1,1.68,1.68,0,0,1,.89,2q-1.2,4.55-2.39,9.17A1.39,1.39,0,0,1,1833.57,1920.29Zm4.87-18.34a1.29,1.29,0,0,1-.38-.08,1.7,1.7,0,0,1-.88-2c.85-3.07,1.7-6.11,2.56-9.14a1.31,1.31,0,0,1,1.72-1,1.7,1.7,0,0,1,.87,2q-1.29,4.53-2.55,9.11A1.37,1.37,0,0,1,1838.44,1902Zm5.18-18.22a1.44,1.44,0,0,1-.4-.09,1.71,1.71,0,0,1-.85-2.05c.9-3,1.8-6.08,2.72-9.08a1.31,1.31,0,0,1,1.75-1,1.7,1.7,0,0,1,.82,2.06q-1.37,4.49-2.71,9A1.37,1.37,0,0,1,1843.62,1883.73Zm5.52-18.08a1.3,1.3,0,0,1-.43-.11,1.71,1.71,0,0,1-.81-2.07c1-3,1.92-6,2.9-9a1.3,1.3,0,0,1,1.77-.9,1.72,1.72,0,0,1,.78,2.08q-1.45,4.44-2.89,9A1.37,1.37,0,0,1,1849.14,1865.65Zm5.88-17.92a1.31,1.31,0,0,1-.46-.12,1.72,1.72,0,0,1-.76-2.09q1.53-4.5,3.1-8.91a1.3,1.3,0,0,1,1.79-.85,1.74,1.74,0,0,1,.74,2.11c-1,2.93-2.07,5.88-3.09,8.87A1.36,1.36,0,0,1,1855,1847.73Zm6.31-17.72a1.2,1.2,0,0,1-.51-.13,1.74,1.74,0,0,1-.7-2.12q1.65-4.46,3.33-8.8a1.29,1.29,0,0,1,1.81-.78,1.76,1.76,0,0,1,.68,2.14q-1.68,4.32-3.32,8.74A1.34,1.34,0,0,1,1861.33,1830Zm6.76-17.47a1.24,1.24,0,0,1-.54-.16,1.75,1.75,0,0,1-.65-2.14q1.78-4.38,3.59-8.66a1.27,1.27,0,0,1,1.83-.7,1.76,1.76,0,0,1,.62,2.16q-1.8,4.24-3.57,8.6A1.33,1.33,0,0,1,1868.09,1812.54Zm7.29-17.17a1.21,1.21,0,0,1-.58-.19,1.76,1.76,0,0,1-.58-2.17c1.27-2.87,2.57-5.7,3.87-8.49a1.27,1.27,0,0,1,1.86-.61,1.77,1.77,0,0,1,.54,2.18q-2,4.15-3.85,8.43A1.34,1.34,0,0,1,1875.38,1795.37Z"/><path class="cls-1" d="M1747.44,2643.84c-.08-3.86-7.29-389.24,54.35-660.56l2.64.85c-61.55,270.89-54.34,655.8-54.26,659.66Z"/><path class="cls-16" d="M2017.45,2078.69c-9.46-16.37-19.61-40.1-29.39-72.56-15.7-52.15-23.09-141.48-26.43-224.93q-.53-12.65-.91-25.06c5.24-1.85,8.88-3.17,8.88-3.17,12.61-10,25.45-19.34,36.62-27.17,7.18,32.42,13.56,66.62,19.17,100.5l0,0v0c19.21,115.56,29.72,227.49,32.89,253.34C2062.5,2113.82,2042.37,2121.81,2017.45,2078.69Z"/><path class="cls-17" d="M2025.41,1826.34,1997.69,1917l8.81,80,11,81.65c-9.46-16.37-19.61-40.1-29.39-72.56-15.7-52.15-23.09-141.48-26.43-224.93a324.17,324.17,0,0,1,63.76,45.1l0,0Z"/><path class="cls-16" d="M1932.16,2663.76a1.33,1.33,0,0,1-.43,0h-54.79c-2.73,0-9.22-4.7-18.4-13.59-1.67-1.62-3.42-3.37-5.25-5.27h48.31c-1,6-1.39,9.22-1,9.37C1905.67,2656,1935.9,2663.33,1932.16,2663.76Z"/><path class="cls-17" d="M1932.16,2663.77a2.62,2.62,0,0,1-.43,0h-54.79c-2.73,0-9.23-4.68-18.4-13.58,7.19,4.39,16.12,9.79,18.21,10.31C1880.15,2661.35,1927.18,2663.55,1932.16,2663.77Z"/><path class="cls-9" d="M1933.67,2666h-61.43a1.24,1.24,0,0,1,0-2.48h61.43a1.24,1.24,0,0,1,0,2.48Z"/><path class="cls-9" d="M1910.87,2664.59a.83.83,0,0,1-.77-.52,5.61,5.61,0,0,1,1-5.93,4.31,4.31,0,0,1,4.16-1.58.82.82,0,1,1-.44,1.59,2.77,2.77,0,0,0-2.49,1.09,3.92,3.92,0,0,0-.7,4.21.83.83,0,0,1-.46,1.08A.85.85,0,0,1,1910.87,2664.59Z"/><path class="cls-13" d="M2009.16,1975.93c-2.29,71.58-13.42,161-27.71,251.29-29.42,185.4-72.33,374.1-79.85,417.72h-48.31c-8.38-8.65-18.45-20.12-29.54-34.17-10.74-13.58-22.46-29.55-34.56-47.68-41.86-62.71-88.39-151.17-115.41-255.08q-5-19.22-9-39.09-5-24.59-8.35-50.18a657,657,0,0,1-4.93-113.3q1.69-37.3,5.31-71.08c2.63-24.86,6-48.35,10-70.61,4,.41,8.08.79,12.15,1.17,72.46,6.8,149.81,9.74,217.74,10.78,6.44.1,12.82.18,19.09.25C1950.61,1976.33,1982.44,1976.23,2009.16,1975.93Z"/><path class="cls-12" d="M1901.6,2644.94h-48.31c-8.38-8.65-18.45-20.12-29.54-34.17C1861.17,2638.52,1901.6,2644.94,1901.6,2644.94Z"/><path class="cls-12" d="M1896.71,1975.7c-29.54,18.63-66,33.25-110.43,38.41-55.27,6.43-89-14.58-107.31-49.19C1751.43,1971.72,1828.78,1974.66,1896.71,1975.7Z"/><path class="cls-1" d="M1883,2642.07a1.58,1.58,0,0,1-1.55-1.5c-.29-2.58-.66-5.86-1.09-9.79a1.51,1.51,0,0,1,1.21-1.76,1.63,1.63,0,0,1,1.57,1.5c.43,3.92.8,7.2,1.09,9.78a1.5,1.5,0,0,1-1.2,1.77Zm-2.15-19.58a1.57,1.57,0,0,1-1.55-1.51q-.48-4.55-1-9.8a1.51,1.51,0,0,1,1.23-1.75h0a1.59,1.59,0,0,1,1.55,1.52c.36,3.49.71,6.76,1,9.78a1.51,1.51,0,0,1-1.22,1.76Zm-2-19.59a1.56,1.56,0,0,1-1.54-1.51q-.48-4.69-1-9.8a1.5,1.5,0,0,1,1.23-1.75h0a1.58,1.58,0,0,1,1.54,1.53c.34,3.4.67,6.67,1,9.79a1.49,1.49,0,0,1-1.23,1.74Zm-1.93-19.59a1.57,1.57,0,0,1-1.55-1.52q-.46-4.76-.94-9.81a1.48,1.48,0,0,1,1.24-1.73,1.58,1.58,0,0,1,1.55,1.53c.32,3.36.63,6.63.94,9.79a1.51,1.51,0,0,1-1.24,1.74Zm-1.86-19.6h0a1.58,1.58,0,0,1-1.55-1.53q-.43-4.8-.89-9.81a1.49,1.49,0,0,1,1.24-1.73h0a1.58,1.58,0,0,1,1.54,1.54q.47,5,.9,9.8A1.48,1.48,0,0,1,1875,2563.71Zm-1.77-19.61h0a1.58,1.58,0,0,1-1.54-1.54c-.29-3.22-.57-6.49-.86-9.82a1.48,1.48,0,0,1,1.24-1.72h0a1.58,1.58,0,0,1,1.54,1.54c.29,3.33.57,6.6.86,9.81A1.5,1.5,0,0,1,1873.26,2544.1Zm-1.7-19.63h0a1.57,1.57,0,0,1-1.53-1.55c-.28-3.22-.55-6.5-.82-9.82a1.49,1.49,0,0,1,1.24-1.71h0A1.59,1.59,0,0,1,1872,2513q.4,5,.82,9.81A1.49,1.49,0,0,1,1871.56,2524.47Zm-1.63-19.63h0a1.59,1.59,0,0,1-1.53-1.56q-.39-4.84-.78-9.81a1.49,1.49,0,0,1,1.24-1.71h0a1.58,1.58,0,0,1,1.52,1.56c.26,3.31.53,6.58.79,9.81A1.49,1.49,0,0,1,1869.93,2504.84Zm-1.54-19.63h0a1.58,1.58,0,0,1-1.52-1.56c-.25-3.24-.5-6.52-.75-9.82a1.51,1.51,0,0,1,1.28-1.7,1.58,1.58,0,0,1,1.52,1.57q.36,5,.74,9.81A1.48,1.48,0,0,1,1868.39,2485.21Zm-1.47-19.63h0a1.58,1.58,0,0,1-1.51-1.57c-.24-3.25-.48-6.52-.71-9.83a1.49,1.49,0,0,1,1.24-1.69h0a1.59,1.59,0,0,1,1.51,1.58c.24,3.3.47,6.57.71,9.81A1.49,1.49,0,0,1,1866.92,2465.58Zm-1.39-19.64h0a1.58,1.58,0,0,1-1.51-1.58c-.22-3.25-.45-6.52-.67-9.82a1.46,1.46,0,0,1,1.29-1.69,1.61,1.61,0,0,1,1.51,1.59q.33,4.95.67,9.82A1.48,1.48,0,0,1,1865.53,2445.94Zm-1.32-19.64h0a1.59,1.59,0,0,1-1.51-1.59q-.32-4.87-.63-9.82a1.51,1.51,0,0,1,1.3-1.68,1.6,1.6,0,0,1,1.5,1.6q.32,4.93.63,9.81A1.48,1.48,0,0,1,1864.21,2426.3Zm-1.24-19.64h-.06a1.59,1.59,0,0,1-1.5-1.59c-.19-3.26-.39-6.53-.59-9.83a1.47,1.47,0,0,1,1.25-1.66h.06a1.59,1.59,0,0,1,1.49,1.6c.2,3.3.39,6.57.59,9.82A1.48,1.48,0,0,1,1863,2406.66Zm-1.16-19.64h-.07a1.59,1.59,0,0,1-1.49-1.6c-.18-3.26-.37-6.54-.55-9.83a1.47,1.47,0,0,1,1.31-1.66,1.61,1.61,0,0,1,1.49,1.61c.18,3.29.37,6.56.55,9.82A1.47,1.47,0,0,1,1861.81,2387Zm-1.08-19.64h-.07a1.61,1.61,0,0,1-1.49-1.61q-.26-4.89-.51-9.83a1.47,1.47,0,0,1,1.32-1.65,1.59,1.59,0,0,1,1.48,1.61q.26,4.93.51,9.82A1.48,1.48,0,0,1,1860.73,2367.38Zm-1-19.65h-.07a1.61,1.61,0,0,1-1.48-1.63q-.24-4.89-.47-9.82a1.48,1.48,0,0,1,1.32-1.65,1.61,1.61,0,0,1,1.48,1.63c.15,3.28.31,6.56.47,9.82A1.47,1.47,0,0,1,1859.73,2347.73Zm-.91-19.64h-.08a1.61,1.61,0,0,1-1.48-1.63q-.21-4.89-.42-9.83a1.45,1.45,0,0,1,1.33-1.63,1.61,1.61,0,0,1,1.47,1.63q.21,4.93.42,9.82A1.48,1.48,0,0,1,1858.82,2328.09Zm-.82-19.65h-.09a1.62,1.62,0,0,1-1.47-1.64c-.13-3.27-.26-6.54-.38-9.83a1.47,1.47,0,0,1,1.34-1.63,1.61,1.61,0,0,1,1.46,1.65c.13,3.28.25,6.55.38,9.81A1.46,1.46,0,0,1,1858,2308.44Zm-.74-19.64h-.1a1.6,1.6,0,0,1-1.45-1.64q-.18-4.9-.34-9.83a1.47,1.47,0,0,1,1.35-1.62,1.62,1.62,0,0,1,1.45,1.65q.16,4.92.34,9.82A1.47,1.47,0,0,1,1857.26,2288.8Zm-.64-19.64h-.11a1.62,1.62,0,0,1-1.45-1.66c-.09-3.26-.19-6.54-.28-9.82a1.45,1.45,0,0,1,1.36-1.61,1.6,1.6,0,0,1,1.44,1.66q.14,4.92.29,9.81A1.49,1.49,0,0,1,1856.62,2269.16Zm-.54-19.64H1856a1.62,1.62,0,0,1-1.44-1.67l-.24-9.82a1.46,1.46,0,0,1,1.37-1.6,1.62,1.62,0,0,1,1.44,1.67c.07,3.27.15,6.55.23,9.81A1.49,1.49,0,0,1,1856.08,2249.52Zm-.45-19.64h-.12a1.62,1.62,0,0,1-1.44-1.68l-.18-9.82a1.45,1.45,0,0,1,1.37-1.59,1.62,1.62,0,0,1,1.43,1.68q.09,4.92.19,9.81A1.48,1.48,0,0,1,1855.63,2229.88Zm-.34-19.64h-.13a1.64,1.64,0,0,1-1.43-1.68c0-3.27-.09-6.55-.13-9.83a1.44,1.44,0,0,1,1.39-1.58,1.64,1.64,0,0,1,1.42,1.7q.06,4.91.13,9.81A1.47,1.47,0,0,1,1855.29,2210.24Zm-.23-19.63h-.14a1.63,1.63,0,0,1-1.42-1.7q0-4.9-.07-9.82a1.43,1.43,0,0,1,1.39-1.56,1.62,1.62,0,0,1,1.41,1.7c0,3.27,0,6.54.07,9.81A1.46,1.46,0,0,1,1855.06,2190.61Zm-.12-19.63h-.15a1.63,1.63,0,0,1-1.41-1.7q0-4.92,0-9.82a1.45,1.45,0,0,1,1.4-1.56,1.65,1.65,0,0,1,1.4,1.72q0,4.89,0,9.8A1.46,1.46,0,0,1,1854.94,2171Zm0-19.66h-.16a1.63,1.63,0,0,1-1.4-1.72q0-4.92,0-9.84a1.43,1.43,0,0,1,1.42-1.54,1.65,1.65,0,0,1,1.39,1.72q0,4.92,0,9.83A1.45,1.45,0,0,1,1854.94,2151.32Zm.12-19.66h-.17a1.66,1.66,0,0,1-1.39-1.73c0-3.28.07-6.55.11-9.83a1.43,1.43,0,0,1,1.43-1.53,1.66,1.66,0,0,1,1.38,1.74c-.05,3.27-.08,6.54-.11,9.81A1.47,1.47,0,0,1,1855.06,2131.66Zm.25-19.63h-.18a1.64,1.64,0,0,1-1.37-1.74q.08-4.9.17-9.81a1.42,1.42,0,0,1,1.44-1.51,1.65,1.65,0,0,1,1.37,1.75q-.1,4.89-.18,9.79A1.45,1.45,0,0,1,1855.31,2112Zm.4-19.58h-.2a1.66,1.66,0,0,1-1.36-1.76c.07-3.26.16-6.52.25-9.78a1.41,1.41,0,0,1,1.44-1.5,1.66,1.66,0,0,1,1.36,1.76q-.14,4.88-.25,9.77A1.46,1.46,0,0,1,1855.71,2092.45Zm.53-19.55H1856a1.66,1.66,0,0,1-1.35-1.77c.1-3.25.21-6.51.33-9.76a1.4,1.4,0,0,1,1.45-1.48,1.66,1.66,0,0,1,1.35,1.77q-.16,4.88-.32,9.75A1.45,1.45,0,0,1,1856.24,2072.9Zm.69-19.49h-.22a1.67,1.67,0,0,1-1.34-1.78c.13-3.26.26-6.53.41-9.78a1.4,1.4,0,0,1,1.47-1.47,1.67,1.67,0,0,1,1.33,1.79q-.21,4.88-.41,9.77A1.45,1.45,0,0,1,1856.93,2053.41Zm.85-19.55h-.24a1.68,1.68,0,0,1-1.32-1.8c.16-3.27.32-6.52.49-9.78a1.42,1.42,0,0,1,1.49-1.45,1.68,1.68,0,0,1,1.31,1.81c-.17,3.24-.33,6.5-.49,9.76A1.44,1.44,0,0,1,1857.78,2033.86Zm1-19.53h-.25a1.69,1.69,0,0,1-1.3-1.82c.18-3.26.38-6.51.58-9.76a1.39,1.39,0,0,1,1.5-1.43,1.69,1.69,0,0,1,1.3,1.82c-.2,3.24-.4,6.49-.58,9.75A1.44,1.44,0,0,1,1858.8,2014.33Zm1.22-19.5a1.22,1.22,0,0,1-.27,0,1.68,1.68,0,0,1-1.29-1.83q.33-4.89.68-9.75a1.38,1.38,0,0,1,1.51-1.4,1.67,1.67,0,0,1,1.28,1.83q-.35,4.86-.67,9.73A1.44,1.44,0,0,1,1860,1994.83Zm1.4-19.47a1.37,1.37,0,0,1-.28,0,1.68,1.68,0,0,1-1.27-1.84q.38-4.89.78-9.73a1.39,1.39,0,0,1,1.53-1.39,1.68,1.68,0,0,1,1.26,1.86q-.39,4.83-.78,9.71A1.44,1.44,0,0,1,1861.42,1975.36Zm1.63-19.44a1.1,1.1,0,0,1-.31,0,1.69,1.69,0,0,1-1.25-1.86q.43-4.87.9-9.72a1.38,1.38,0,0,1,1.55-1.35,1.7,1.7,0,0,1,1.24,1.87q-.47,4.83-.9,9.69A1.42,1.42,0,0,1,1863.05,1955.92Zm1.84-19.4a1.17,1.17,0,0,1-.32,0,1.69,1.69,0,0,1-1.22-1.88c.33-3.24.67-6.48,1-9.69a1.38,1.38,0,0,1,1.57-1.33,1.7,1.7,0,0,1,1.22,1.89q-.53,4.82-1,9.67A1.42,1.42,0,0,1,1864.89,1936.52Zm2.11-19.35a1.37,1.37,0,0,1-.35,0,1.72,1.72,0,0,1-1.2-1.9c.37-3.24.76-6.46,1.15-9.67a1.37,1.37,0,0,1,1.59-1.3,1.72,1.72,0,0,1,1.19,1.91q-.6,4.8-1.15,9.64A1.42,1.42,0,0,1,1867,1917.17Zm2.37-19.29a1.18,1.18,0,0,1-.37,0,1.72,1.72,0,0,1-1.17-1.92c.42-3.23.85-6.45,1.29-9.64a1.36,1.36,0,0,1,1.61-1.26,1.71,1.71,0,0,1,1.16,1.93q-.66,4.79-1.29,9.61A1.42,1.42,0,0,1,1869.37,1897.88Zm2.66-19.22a1.08,1.08,0,0,1-.39,0,1.73,1.73,0,0,1-1.14-1.95c.47-3.22,1-6.41,1.45-9.59a1.34,1.34,0,0,1,1.63-1.23,1.74,1.74,0,0,1,1.14,2q-.75,4.76-1.46,9.57A1.41,1.41,0,0,1,1872,1878.66Zm3-19.14a1.2,1.2,0,0,1-.42,0,1.75,1.75,0,0,1-1.11-2c.53-3.2,1.07-6.39,1.63-9.55a1.32,1.32,0,0,1,1.65-1.18,1.75,1.75,0,0,1,1.1,2c-.56,3.15-1.1,6.33-1.63,9.52A1.4,1.4,0,0,1,1875,1859.52Zm3.35-19a1.45,1.45,0,0,1-.45,0,1.77,1.77,0,0,1-1.07-2q.89-4.79,1.83-9.49a1.33,1.33,0,0,1,1.67-1.14,1.77,1.77,0,0,1,1.06,2q-.93,4.7-1.82,9.46A1.4,1.4,0,0,1,1878.38,1840.48Zm3.75-18.92a1.16,1.16,0,0,1-.48-.06,1.76,1.76,0,0,1-1-2c.66-3.17,1.35-6.31,2-9.43a1.32,1.32,0,0,1,1.71-1.08,1.78,1.78,0,0,1,1,2q-1,4.65-2,9.38A1.38,1.38,0,0,1,1882.13,1821.56Zm4.2-18.76a1.25,1.25,0,0,1-.53-.08,1.78,1.78,0,0,1-1-2.06q1.13-4.73,2.29-9.34a1.31,1.31,0,0,1,1.74-1,1.8,1.8,0,0,1,1,2.08q-1.17,4.61-2.28,9.29A1.39,1.39,0,0,1,1886.33,1802.8Zm4.7-18.58a1.14,1.14,0,0,1-.57-.09,1.79,1.79,0,0,1-.92-2.1c.83-3.11,1.69-6.19,2.56-9.23a1.3,1.3,0,0,1,1.77-.94,1.78,1.78,0,0,1,.89,2.11c-.86,3-1.71,6.08-2.54,9.18A1.37,1.37,0,0,1,1891,1784.22Zm5.26-18.34a1.2,1.2,0,0,1-.61-.11,1.8,1.8,0,0,1-.86-2.13c.94-3.07,1.9-6.11,2.88-9.1a1.28,1.28,0,0,1,1.8-.85,1.8,1.8,0,0,1,.82,2.15q-1.46,4.46-2.86,9A1.34,1.34,0,0,1,1896.29,1765.88Z"/><path class="cls-1" d="M1871.82,2643c-.56-3.91-55.75-394.17-26.89-677.22l2.79.54c-28.82,282.59,26.31,672.39,26.87,676.29Z"/><path class="cls-21" d="M2006.22,1725.8c-11.17,7.83-24,17.2-36.62,27.17,0,0-3.64,1.32-8.88,3.17-3-95.07-1.12-176.35-1.12-176.35C1977.83,1614.56,1993.31,1667.29,2006.22,1725.8Z"/><path class="cls-20" d="M2009.59,1953.44c0,7.27-.16,14.77-.43,22.49-26.72.3-58.55.4-93.36,0-6.27-.07-12.65-.15-19.09-.25-67.93-1-145.28-4-217.74-10.78-4.07-.38-8.12-.76-12.15-1.17,1.16-6.4,2.38-12.68,3.65-18.88,28.4-139.11,82.87-228.83,138.92-304.64,13.9-18.78,27.88-36.71,41.6-54.33,1.59-2,3.17-4.08,4.76-6.11h0q8-10.35,15.89-20.6c9.72,3,64.54,6.71,83.7,7.11,16.46,51.77,42.26,138.57,51.1,277.26,0,.08,0,.15,0,.18a.42.42,0,0,1,0,.07h0c1.82,28.55,2.93,59.27,3.09,92.34Q2009.65,1944.67,2009.59,1953.44Z"/><path class="cls-21" d="M2006.5,1843.81h0c-.53,1.46-29.81,81.4-109.79,131.88-67.93-1-145.28-4-217.74-10.78a129.54,129.54,0,0,1-8.5-20.05c28.4-139.11,82.87-228.83,138.92-304.64,13.9-18.78,27.88-36.71,41.6-54.33,26.63-9.45,47.65-12.67,54.58-11l35.3,29.34c3.39,40.21,12.76,99.15,33.68,126.16,20.3,26.15,31.26,108.11,31.92,113.17,0,.08,0,.15,0,.18A.42.42,0,0,1,2006.5,1843.81Z"/><path class="cls-10" d="M1983.85,1348c18.31,7.27,21.51,25-8.54,34.37S1983.85,1348,1983.85,1348Z"/><path class="cls-16" d="M1985.71,1422.43c-8,11.84,6.46,17.65,1.41,42.16-2.48,12.07-11.29,19.48-20.72,24.61-9.69,5.29-20,8.12-24.76,11.09-1,.63-1.53,2-1.72,3.93-.59,5.47,1.57,15.61,4.57,26.72-13.14-.61-38.47.83-51.7.17,1.16-2,2.32-4.11,3.49-6.32a245.62,245.62,0,0,0,12.09-26.74c8.36-21.8,14.36-46.47,12.56-66.16a104.21,104.21,0,0,0,9.69,5.49c1.14.57,2.3,1.11,3.44,1.63.26.12.54.22.79.34l6.78-25.61a87.14,87.14,0,0,0-6.26-13.06,51,51,0,0,0-8.08-10.68c10.31-7.58,18.22-18.24,22.32-20s20.66-4.75,33.23-11.8c-.38,1.63-.81,3.53-1.19,5.72a68.29,68.29,0,0,0-.35,21.46c2.7,19.27,15.07,16.67,17.52,20.09S1993.67,1410.56,1985.71,1422.43Z"/><path class="cls-23" d="M1983.71,1352c.34,1.13-.17,3.16-.87,6.15-12.57,7.06-29.11,10-33.24,11.8s-12,12.44-22.32,20c8.87,8.58,14.34,23.73,14.34,23.73l-6.77,25.62-.78-.35a102.82,102.82,0,0,1-13.14-7.12,57.13,57.13,0,0,0-2.28-12s-1.49-7.49-3.07-16.26c-.41-2.27-.83-4.63-1.22-7-.75-4.36-1.42-8.65-1.87-12.18a60.16,60.16,0,0,1-.57-6.3c-.17-8.82,3.9-15.3,24.09-30.31S1982.73,1348.76,1983.71,1352Z"/><path class="cls-9" d="M1996.58,1344.44c-2.32,5.81-7.55,10.27-13.74,13.74-12.57,7.06-29.11,10-33.24,11.8s-12,12.44-22.32,20c-4.23-4.11-9.23-6.72-14.79-5.48a17.45,17.45,0,0,0-7.17,3.67c-.53.42-1,.86-1.51,1.29-14.58,13.5,8.53,26.68,26.78,38.4.4,4.34-2.22,12.21-2.53,16.95-1.07,16.77-13.17,36.21-19.69,53.21-11.87,2.26-25.9-.19-35.3-14.19a49.64,49.64,0,0,1-4.08-7.23c-9.55-21.3,9.68-29.83,11-34.53,1.21-4.45-25,1.31-30.83-24.06a54,54,0,0,1-.94-15.82c3-43.44,42.29-39.15,46.23-39s-16.15-13.66,7.27-34.73,47-3,52.88-1.82-.45-7.14,19.67-13.07S2003.6,1326.83,1996.58,1344.44Z"/><path class="cls-10" d="M1927.76,1437.62a40.11,40.11,0,0,1-6.72,7.93c-12.23,11.7-35.6,26.15-52,31.08-9.55-21.3,9.68-29.83,11-34.53,1.21-4.45-25,1.31-30.83-24.06,15-8.28,48.93-23.23,54.66-28.55C1903.81,1389.49,1936.74,1422.4,1927.76,1437.62Z"/><path class="cls-17" d="M1982.84,1358.18c-.38,1.62-.81,3.53-1.19,5.72-6.52,4.41-24,7.66-32.12,11.61-7.34,3.55-11.24,13.57-14.16,25.17a50.79,50.79,0,0,0-8.09-10.67c10.33-7.59,18.23-18.25,22.32-20S1970.27,1365.24,1982.84,1358.18Z"/><path class="cls-17" d="M1966.4,1489.21c-9.7,5.28-20,8.12-24.76,11.09-1,.62-1.53,2-1.73,3.91-6.72-3-15.14-5.75-11.8-5.28C1933.08,1499.63,1952.92,1495.91,1966.4,1489.21Z"/><path class="cls-16" d="M1941.62,1413.74l-7.38,28.25-.78-.35c-4.45-2-8.31-7.05-12.53-9.75-18.84-12.09-32.57-30-15.61-43.69a17.45,17.45,0,0,1,7.17-3.67c5.56-1.24,10.56,1.37,14.79,5.48C1936.15,1398.59,1941.62,1413.74,1941.62,1413.74Z"/><path class="cls-17" d="M1931.08,1422.86c3-10.17-11.5-28-16.21-19.74s7,6,10.25,10.62S1930.33,1425.44,1931.08,1422.86Z"/><path class="cls-20" d="M1962,1566.07c-.18.24-2.61.3-6.6.23-19.16-.4-74-4.1-83.69-7.1-1-.31-1.54-.61-1.49-.9.66-3.68,19.45-27.41,19.45-27.41.95.08,2,.15,3.16.22,13.23.66,38.56-.78,51.7-.17,4.41.21,7.43.64,8.19,1.45C1955.91,1535.84,1963,1564.57,1962,1566.07Z"/><path class="cls-21" d="M1955.36,1566.3c-41.86.17-78.08,5.44-99.58,13.49q8-10.33,15.89-20.59C1881.39,1562.2,1936.2,1565.9,1955.36,1566.3Z"/><path class="cls-17" d="M1944.49,1530.94c-13.14-.61-38.47.83-51.7.17,1.16-2,2.32-4.11,3.49-6.32C1906.53,1527.86,1932.32,1527.74,1944.49,1530.94Z"/><path class="cls-16" d="M2226.05,1631c-2.48,6.61-27.28,2.9-32.65,7s-318.38,425.18-424,266.51a219.45,219.45,0,0,1-17.45-31.32,194.58,194.58,0,0,1-15-49c83.57-57.59,157-93.7,206.59-114.63h0c2.94,10.53,8.2,17.29,17.29,17.29,37.07,0,233.82-140.91,240-144.62s-1.65-12,.83-24,7.85,9.5,8.26,17.77,3.31.41,10.33,3.72S2228.53,1624.41,2226.05,1631Z"/><path class="cls-20" d="M1943.53,1709.6c-49.55,20.92-123,57-206.62,114.64-26.31-159.91,162-299.67,200.9-231.78C1947.35,1609.12,1934.49,1677.22,1943.53,1709.6Z"/><path class="cls-17" d="M1943.5,1709.61c-2.51,1.43-163.58,92.81-184.9,145.83-2.66,6.65-4.88,12.55-6.69,17.8a194.58,194.58,0,0,1-15-49C1820.48,1766.65,1894,1730.54,1943.5,1709.61Z"/><path class="cls-6" d="M1528.4,2169.74c-19.45,280.38-116,421.43-147.12,463.94h-51.81c-1.09-5.55-2.28-11.88-3.56-18.91-12.9-70.85-35-212.85-50.08-359-4.41-42.54-8.21-85.43-11-127.05-4.13-60.92-6.16-119-4.82-169.24,19.93,4.41,43.47,6.52,68.42,7.07,46.33,1,97.59-3.31,139.81-8.36,23.34-2.83,43.94-5.85,59.41-8.32C1533.29,2031.09,1532.94,2104.22,1528.4,2169.74Z"/><path class="cls-24" d="M1381.28,2633.68h-51.81c-1.09-5.55-2.28-11.88-3.56-18.91a35.94,35.94,0,0,0,4.17,7C1333.7,2625.76,1381.28,2633.68,1381.28,2633.68Z"/><path class="cls-24" d="M1528.4,2169.74s-182.44,62.76-252.57,86c-4.41-42.54-8.21-85.43-11-127.05l94.21-99.26Z"/><path class="cls-24" d="M1481.17,1990.11c-4.4,1.32-75.06,11.82-152.77-23.6,46.33,1,97.58-3.31,139.81-8.36C1485.35,1980.94,1485.8,1988.72,1481.17,1990.11Z"/><path class="cls-1" d="M1348.17,2632.19a1.57,1.57,0,0,0,1.62-1.41c.43-2.57,1-5.82,1.6-9.73a1.5,1.5,0,0,0-1.12-1.82,1.63,1.63,0,0,0-1.64,1.42c-.64,3.9-1.18,7.15-1.6,9.71a1.51,1.51,0,0,0,1.11,1.83Zm3.16-19.44a1.59,1.59,0,0,0,1.63-1.43c.48-3,1-6.25,1.54-9.73a1.51,1.51,0,0,0-1.13-1.81h0a1.56,1.56,0,0,0-1.62,1.43c-.55,3.47-1.06,6.72-1.54,9.72a1.51,1.51,0,0,0,1.13,1.82Zm3.06-19.45a1.58,1.58,0,0,0,1.62-1.44c.48-3.11,1-6.35,1.49-9.74a1.5,1.5,0,0,0-1.14-1.8h0a1.56,1.56,0,0,0-1.62,1.44c-.52,3.38-1,6.62-1.49,9.73a1.49,1.49,0,0,0,1.14,1.8Zm2.95-19.47a1.56,1.56,0,0,0,1.62-1.44q.72-4.72,1.45-9.75a1.49,1.49,0,0,0-1.15-1.79,1.57,1.57,0,0,0-1.62,1.45c-.49,3.34-1,6.58-1.45,9.73a1.5,1.5,0,0,0,1.14,1.8Zm2.87-19.48h0a1.57,1.57,0,0,0,1.63-1.45c.46-3.17.93-6.43,1.4-9.75a1.49,1.49,0,0,0-1.14-1.79h0a1.58,1.58,0,0,0-1.62,1.46l-1.41,9.74A1.49,1.49,0,0,0,1360.21,2554.35Zm2.79-19.49h0a1.58,1.58,0,0,0,1.62-1.46q.67-4.8,1.37-9.76a1.48,1.48,0,0,0-1.15-1.78h0a1.58,1.58,0,0,0-1.62,1.46q-.69,5-1.36,9.75A1.49,1.49,0,0,0,1363,2534.86Zm2.72-19.51h0a1.58,1.58,0,0,0,1.61-1.47q.66-4.82,1.33-9.76a1.5,1.5,0,0,0-1.15-1.78h0a1.59,1.59,0,0,0-1.61,1.47c-.44,3.3-.89,6.56-1.33,9.76A1.5,1.5,0,0,0,1365.72,2515.35Zm2.64-19.52h0a1.58,1.58,0,0,0,1.6-1.48c.43-3.21.86-6.47,1.3-9.76a1.5,1.5,0,0,0-1.16-1.77h0a1.59,1.59,0,0,0-1.61,1.48c-.43,3.29-.86,6.55-1.29,9.76A1.49,1.49,0,0,0,1368.36,2495.83Zm2.57-19.53h0a1.6,1.6,0,0,0,1.6-1.49c.42-3.22.83-6.48,1.25-9.77a1.51,1.51,0,0,0-1.18-1.76,1.58,1.58,0,0,0-1.6,1.49q-.63,4.93-1.25,9.76A1.47,1.47,0,0,0,1370.93,2476.3Zm2.48-19.53h0a1.6,1.6,0,0,0,1.6-1.5q.6-4.83,1.22-9.77a1.49,1.49,0,0,0-1.16-1.75h0a1.59,1.59,0,0,0-1.59,1.5c-.41,3.29-.81,6.54-1.22,9.77A1.49,1.49,0,0,0,1373.41,2456.77Zm2.42-19.53h0a1.59,1.59,0,0,0,1.59-1.5q.6-4.84,1.18-9.77a1.45,1.45,0,0,0-1.2-1.75,1.57,1.57,0,0,0-1.58,1.5q-.6,4.92-1.18,9.77A1.49,1.49,0,0,0,1375.83,2437.24Zm2.34-19.55h0a1.59,1.59,0,0,0,1.58-1.51q.57-4.86,1.14-9.78a1.49,1.49,0,0,0-1.21-1.74,1.59,1.59,0,0,0-1.58,1.51c-.38,3.28-.75,6.54-1.14,9.77A1.48,1.48,0,0,0,1378.17,2417.69Zm2.26-19.55h0a1.6,1.6,0,0,0,1.58-1.52c.37-3.24.73-6.5,1.1-9.78a1.47,1.47,0,0,0-1.15-1.73H1382a1.62,1.62,0,0,0-1.58,1.53c-.37,3.27-.73,6.53-1.1,9.77A1.47,1.47,0,0,0,1380.43,2398.14Zm2.18-19.55h.06a1.59,1.59,0,0,0,1.57-1.52c.36-3.24.71-6.51,1.06-9.78a1.47,1.47,0,0,0-1.22-1.73,1.6,1.6,0,0,0-1.57,1.53q-.52,4.9-1.06,9.77A1.48,1.48,0,0,0,1382.61,2378.59Zm2.09-19.56h.07a1.59,1.59,0,0,0,1.57-1.53q.51-4.87,1-9.79a1.46,1.46,0,0,0-1.23-1.72,1.6,1.6,0,0,0-1.56,1.54q-.51,4.92-1,9.78A1.48,1.48,0,0,0,1384.7,2359Zm2-19.57h.08a1.6,1.6,0,0,0,1.56-1.54c.33-3.25.65-6.52,1-9.79a1.48,1.48,0,0,0-1.24-1.72,1.62,1.62,0,0,0-1.56,1.55q-.48,4.92-1,9.78A1.49,1.49,0,0,0,1386.72,2339.46Zm1.93-19.57h.09a1.61,1.61,0,0,0,1.55-1.55c.32-3.25.63-6.52.94-9.79a1.47,1.47,0,0,0-1.25-1.71,1.61,1.61,0,0,0-1.55,1.56l-.93,9.78A1.46,1.46,0,0,0,1388.65,2319.89Zm1.85-19.57h.09a1.62,1.62,0,0,0,1.55-1.56c.3-3.25.59-6.52.89-9.79a1.47,1.47,0,0,0-1.26-1.7,1.62,1.62,0,0,0-1.54,1.57c-.3,3.27-.59,6.53-.89,9.78A1.48,1.48,0,0,0,1390.5,2300.32Zm1.75-19.58h.1a1.61,1.61,0,0,0,1.54-1.57q.43-4.89.85-9.8a1.49,1.49,0,0,0-1.27-1.69,1.61,1.61,0,0,0-1.53,1.58q-.42,4.91-.85,9.78A1.48,1.48,0,0,0,1392.25,2280.74Zm1.66-19.59h.11a1.61,1.61,0,0,0,1.53-1.58c.27-3.25.54-6.52.8-9.79a1.45,1.45,0,0,0-1.27-1.68,1.61,1.61,0,0,0-1.53,1.58q-.39,4.91-.8,9.79A1.47,1.47,0,0,0,1393.91,2261.15Zm1.57-19.58h.11a1.62,1.62,0,0,0,1.53-1.59c.26-3.26.5-6.53.75-9.8a1.46,1.46,0,0,0-1.28-1.67,1.62,1.62,0,0,0-1.53,1.59c-.24,3.27-.49,6.54-.74,9.79A1.47,1.47,0,0,0,1395.48,2241.57ZM1397,2222h.12a1.64,1.64,0,0,0,1.52-1.6c.23-3.26.47-6.53.69-9.8a1.45,1.45,0,0,0-1.29-1.66,1.62,1.62,0,0,0-1.51,1.6q-.35,4.91-.7,9.79A1.48,1.48,0,0,0,1397,2222Zm1.36-19.6h.13a1.62,1.62,0,0,0,1.51-1.6q.33-4.9.64-9.81a1.44,1.44,0,0,0-1.3-1.65,1.65,1.65,0,0,0-1.51,1.62c-.2,3.27-.42,6.53-.64,9.79A1.46,1.46,0,0,0,1398.31,2202.38Zm1.25-19.59h.14a1.62,1.62,0,0,0,1.5-1.62q.3-4.89.59-9.8a1.45,1.45,0,0,0-1.31-1.64,1.63,1.63,0,0,0-1.5,1.63c-.19,3.26-.38,6.53-.58,9.79A1.47,1.47,0,0,0,1399.56,2182.79Zm1.14-19.59h.15a1.63,1.63,0,0,0,1.49-1.63c.19-3.27.36-6.54.53-9.81a1.43,1.43,0,0,0-1.32-1.62,1.63,1.63,0,0,0-1.49,1.63q-.25,4.91-.52,9.79A1.46,1.46,0,0,0,1400.7,2163.2Zm1-19.63h.17a1.65,1.65,0,0,0,1.48-1.65c.16-3.28.32-6.55.47-9.83a1.44,1.44,0,0,0-1.33-1.62,1.64,1.64,0,0,0-1.48,1.65q-.22,4.92-.47,9.82A1.47,1.47,0,0,0,1401.72,2143.57Zm.9-19.65h.17a1.64,1.64,0,0,0,1.48-1.66q.21-4.91.4-9.81a1.42,1.42,0,0,0-1.34-1.6,1.64,1.64,0,0,0-1.47,1.66c-.13,3.27-.26,6.53-.4,9.8A1.45,1.45,0,0,0,1402.62,2123.92Zm.77-19.61h.18a1.66,1.66,0,0,0,1.47-1.67l.33-9.8a1.42,1.42,0,0,0-1.36-1.59,1.65,1.65,0,0,0-1.45,1.68l-.33,9.78A1.46,1.46,0,0,0,1403.39,2104.31Zm.63-19.58h.19a1.65,1.65,0,0,0,1.45-1.68q.15-4.91.27-9.79a1.42,1.42,0,0,0-1.37-1.57,1.66,1.66,0,0,0-1.45,1.69c-.08,3.25-.16,6.51-.26,9.77A1.46,1.46,0,0,0,1404,2084.73Zm.48-19.54h.21a1.66,1.66,0,0,0,1.44-1.69c.07-3.26.13-6.51.18-9.77a1.4,1.4,0,0,0-1.38-1.55,1.66,1.66,0,0,0-1.43,1.7c-.06,3.24-.12,6.5-.19,9.75A1.46,1.46,0,0,0,1404.5,2065.19Zm.33-19.51h.22a1.67,1.67,0,0,0,1.42-1.71c0-3.27.08-6.54.11-9.79a1.41,1.41,0,0,0-1.39-1.55,1.68,1.68,0,0,0-1.43,1.72c0,3.26-.06,6.51-.1,9.78A1.44,1.44,0,0,0,1404.83,2045.68Zm.17-19.56a.88.88,0,0,0,.23,0,1.65,1.65,0,0,0,1.41-1.72c0-3.27,0-6.53,0-9.79a1.4,1.4,0,0,0-1.41-1.52,1.67,1.67,0,0,0-1.4,1.73q0,4.88,0,9.77A1.45,1.45,0,0,0,1405,2026.12Zm0-19.56h.25a1.68,1.68,0,0,0,1.39-1.74c0-3.27,0-6.53-.07-9.79a1.39,1.39,0,0,0-1.42-1.5,1.68,1.68,0,0,0-1.39,1.75q0,4.88.07,9.76A1.44,1.44,0,0,0,1405,2006.56Zm-.2-19.54a1.13,1.13,0,0,0,.26,0,1.69,1.69,0,0,0,1.39-1.76q-.07-4.9-.17-9.77a1.39,1.39,0,0,0-1.44-1.49,1.7,1.7,0,0,0-1.38,1.77q.1,4.86.17,9.75A1.44,1.44,0,0,0,1404.79,1987Zm-.39-19.52a.88.88,0,0,0,.28,0,1.67,1.67,0,0,0,1.36-1.77q-.12-4.9-.27-9.76a1.4,1.4,0,0,0-1.46-1.47,1.69,1.69,0,0,0-1.35,1.79c.1,3.24.19,6.48.27,9.74A1.43,1.43,0,0,0,1404.4,1967.5Zm-.61-19.49h.3a1.69,1.69,0,0,0,1.34-1.8q-.18-4.89-.39-9.75a1.38,1.38,0,0,0-1.47-1.44,1.71,1.71,0,0,0-1.34,1.81q.21,4.85.39,9.73A1.44,1.44,0,0,0,1403.79,1948Zm-.84-19.47h.32a1.72,1.72,0,0,0,1.33-1.82q-.25-4.89-.52-9.73a1.36,1.36,0,0,0-1.49-1.41,1.7,1.7,0,0,0-1.32,1.82c.18,3.23.35,6.46.52,9.71A1.42,1.42,0,0,0,1403,1928.54Zm-1.09-19.43a1.3,1.3,0,0,0,.34,0,1.7,1.7,0,0,0,1.3-1.84c-.2-3.25-.42-6.49-.64-9.71a1.37,1.37,0,0,0-1.52-1.38,1.72,1.72,0,0,0-1.29,1.85c.23,3.21.44,6.44.65,9.69A1.42,1.42,0,0,0,1401.86,1909.11Zm-1.37-19.39a1.54,1.54,0,0,0,.37,0,1.73,1.73,0,0,0,1.27-1.87q-.37-4.86-.79-9.68a1.36,1.36,0,0,0-1.54-1.35,1.72,1.72,0,0,0-1.26,1.87c.27,3.21.54,6.43.79,9.66A1.43,1.43,0,0,0,1400.49,1889.72Zm-1.66-19.34a1.28,1.28,0,0,0,.39,0,1.75,1.75,0,0,0,1.25-1.89q-.46-4.86-1-9.66a1.33,1.33,0,0,0-1.56-1.31,1.72,1.72,0,0,0-1.23,1.9c.33,3.19.64,6.4,1,9.63A1.4,1.4,0,0,0,1398.83,1870.38Zm-2-19.27a1.19,1.19,0,0,0,.42,0,1.74,1.74,0,0,0,1.22-1.91c-.37-3.23-.74-6.44-1.13-9.63a1.33,1.33,0,0,0-1.59-1.26,1.74,1.74,0,0,0-1.2,1.92c.39,3.18.76,6.38,1.13,9.59A1.4,1.4,0,0,0,1396.83,1851.11Zm-2.36-19.19a1.44,1.44,0,0,0,.46,0,1.77,1.77,0,0,0,1.17-2c-.43-3.21-.87-6.41-1.33-9.57a1.33,1.33,0,0,0-1.61-1.23,1.76,1.76,0,0,0-1.16,2q.68,4.74,1.32,9.54A1.4,1.4,0,0,0,1394.47,1831.92Zm-2.76-19.08a1.18,1.18,0,0,0,.49,0,1.77,1.77,0,0,0,1.14-2c-.51-3.2-1-6.38-1.56-9.52a1.31,1.31,0,0,0-1.65-1.17,1.77,1.77,0,0,0-1.11,2c.53,3.13,1,6.29,1.54,9.48A1.4,1.4,0,0,0,1391.71,1812.84Zm-3.21-19a1.21,1.21,0,0,0,.53-.05,1.77,1.77,0,0,0,1.08-2c-.58-3.18-1.18-6.32-1.8-9.44a1.31,1.31,0,0,0-1.68-1.11,1.79,1.79,0,0,0-1.06,2q.92,4.65,1.79,9.4A1.38,1.38,0,0,0,1388.5,1793.88Zm-3.73-18.79a1.25,1.25,0,0,0,.57-.07,1.79,1.79,0,0,0,1-2c-.68-3.15-1.37-6.27-2.09-9.35a1.29,1.29,0,0,0-1.71-1,1.81,1.81,0,0,0-1,2.07q1.07,4.59,2.07,9.29A1.38,1.38,0,0,0,1384.77,1775.09Zm-4.3-18.59a1.23,1.23,0,0,0,.62-.08,1.82,1.82,0,0,0,1-2.09q-1.17-4.66-2.41-9.23a1.28,1.28,0,0,0-1.75-.95,1.83,1.83,0,0,0-.94,2.11c.82,3,1.62,6.07,2.39,9.16A1.37,1.37,0,0,0,1380.47,1756.5Z"/><path class="cls-1" d="M1359.29,2633.68c.77-3.87,76.18-390.73,62.07-674.9l-2.81.39c14.09,283.71-61.23,670.11-62,674Z"/><path class="cls-13" d="M1561.72,1632c-20.38,12-41.09,16.65-50.21,34a37.18,37.18,0,0,0-2.66,6.49v0a44.42,44.42,0,0,0-1.34,5.59c-.9,5.26-3.93,7.55-8.26,7.66-18.54.56-60.82-38.56-60.82-51.78,0-16.33-18.71-99.32-3.85-122.34s76.56-127.15,76.56-127.15a40.57,40.57,0,0,0,2.29,5.55c13.47,27.38,51.11,30.65,42.53,64-9.11,35.5-45.09,65.72-24.94,108.9S1586.18,1617.64,1561.72,1632Z"/><path class="cls-12" d="M1511.51,1666a50.81,50.81,0,0,1-2.66,6.49v0a47.35,47.35,0,0,1-9.6,13.25c-18.54.56-60.82-38.56-60.82-51.78,0-16.33-18.71-99.32-3.85-122.34s76.56-127.15,76.56-127.15a40.57,40.57,0,0,0,2.29,5.55c-3,9.19-6.22,19.45-5.72,27.88.55,9-8.83,37.81-3.32,50s-20,26.15-33.05,41.26,4.25,80.14,32.33,109.14C1514.45,1629.49,1517.2,1649,1511.51,1666Z"/><path class="cls-16" d="M1634.88,1574.89c-3.31,21.76-33.47,18.86-43,69.69-7.19,38.41-12.32,154.42-52.58,196.43-13,13.57-29.67,19.42-51.25,12.45-41.75-13.49-50.68-68.66-48.46-123.12,23.85-19.06,48.69-38.48,64.09-49.35l0,0a19.77,19.77,0,0,0,12.73,4.79c26.69-.28,96.93-197,110.15-196.55s-23.13,48.76-21.89,61.16S1638.18,1553.13,1634.88,1574.89Z"/><path class="cls-10" d="M1503.73,1681c-15.41,10.88-40.25,30.31-64.11,49.37,2.46-60.87,18.86-120.89,18.86-120.89C1475.7,1624.31,1485.78,1666.67,1503.73,1681Z"/><path class="cls-17" d="M1539.33,1841c-13,13.57-29.67,19.42-51.25,12.45-41.75-13.49-50.68-68.66-48.46-123.12,23.85-19.06,48.69-38.48,64.09-49.35-.36.94-12.89,31.8-12.08,52.42C1492.39,1752.75,1505.83,1829.36,1539.33,1841Z"/><path class="cls-13" d="M1497.91,1396.24c-8.92,1.56-3.6,31.31-47.14,25.19,0,0-.48,4.79-1.37,12.71-3.3,30.07-12,105.24-19.6,134.09-9.6,36.46-27.35,57.09-92.13,86.36a125.49,125.49,0,0,1-16.74,6.3c-20.07,5.78-30.08,1-34.41-7.07-5.69-10.6-1.49-26.85,2.69-32.2,8.17-10.43,18.25-14.53,11-51s37.9-42.23,68.61-77.24a42.46,42.46,0,0,0,6-8.69c5.83-11.34,4.61-22.92,1.45-34.59-5.85-21.79-18.3-43.8-3.22-64.66,25.19-34.91,51.81-10.45,64.75-39.58s78.45-32,97.88-1.81S1506.84,1394.69,1497.91,1396.24Z"/><path class="cls-12" d="M1449.4,1434.14c-3.3,30.07-12,105.24-19.6,134.09-9.6,36.46-27.35,57.09-92.13,86.36a125.49,125.49,0,0,1-16.74,6.3c6.33-3.92,12-7.21,15.62-9.65,20.51-13.69,53.66-83.73,66.84-112.51s11.29-69.57,10.33-72.21c-.6-1.6-22.07,9.4-38.89,18.18,5.83-11.34,4.61-22.92,1.45-34.59,10.48-10,43-37.69,51.19-43C1427.47,1407.07,1441.34,1419.43,1449.4,1434.14Z"/><path class="cls-9" d="M1527.61,1949.83c-15.47,2.47-36.06,5.49-59.4,8.32-42.23,5-93.48,9.4-139.81,8.36-25-.55-48.49-2.66-68.43-7.07q.48-18.29,1.59-35.08.92-13.8,2.26-26.47c16.17-149.75,68.84-235.38,107-289.91,20.38-29.12,36.62-49.38,41-65.79l46.7-2.22C1498.16,1695,1519.31,1831.11,1527.61,1949.83Z"/><path class="cls-10" d="M1468.21,1958.15c-42.23,5-93.48,9.4-139.81,8.36a279.33,279.33,0,0,1-40.89-22.91c-9.65-6.53-18.26-13-26-19.24q.92-13.8,2.26-26.47c16.17-149.75,68.84-235.38,107-289.91a126.15,126.15,0,0,1,31.58-6.31l47,43.73c2,44.22-29.39,108.68-33.1,134.71s22,140.45,45.45,169.72C1464.13,1952.81,1466.28,1955.57,1468.21,1958.15Z"/><path class="cls-16" d="M1506.07,1434.85c0,6.73,9.36,35.27-10.79,49.9a77.3,77.3,0,0,1-11.73,7.14c-.4.22-.81.41-1.21.59-4.84,2.25-8.55,3.3-11.77,4.88-3.87,1.9-7,4.55-10.55,10.9-3.72,6.71-4.34,18.45-1.54,31.71-11.75,1.94-33.34,4.79-46.69,2.21.18-.67.34-1.35.49-2,.87-4,1.88-8.74,3-13.88,4.09-19,9.58-44.13,16-63.86h0c4.55-14,9.56-25.34,14.84-29.84,5.91-5,15.47-17,25.24-28.3,14.6-16.92,29.67-32.5,33.77-21.72,4.56,22.56-.48,37.43,8.64,40.06S1506.07,1428.15,1506.07,1434.85Z"/><path class="cls-17" d="M1471.34,1404.28c-6.43,14.07-12.37,22.23-16.36,26.5-3.07,3.27-13.83,16.87-23.72,31.64,4.55-14,9.56-25.34,14.84-29.84C1452,1427.53,1461.57,1415.6,1471.34,1404.28Z"/><path class="cls-16" d="M1463.37,1429.34c-14.15-30.7-42.94-34.54-43.18-2.4s48.22,11.76,48.22,11.76Z"/><path class="cls-17" d="M1452.05,1430.17c-4.27-12.7-18.42-11.12-18.84-3s11.19-1.78,12.61,3.25S1455.24,1439.66,1452.05,1430.17Z"/><path class="cls-17" d="M1482.34,1492.48c-4.84,2.25-8.55,3.3-11.77,4.88-14.12-3.81-20-13.63-21.36-16.42C1453,1488,1469.77,1497.91,1482.34,1492.48Z"/><path class="cls-17" d="M1458.48,1540c-11.75,1.94-33.34,4.79-46.69,2.21.18-.67.34-1.35.49-2,.87-4,1.88-8.74,3-13.88,1.08,3.79,2.68,7.43,5.11,9.73C1427.39,1542.69,1458.48,1540,1458.48,1540Z"/><path class="cls-9" d="M1409,1747.05c-18.08-16.89-53.5-41-111.73-46.36q5.32-9.11,11.5-18.78c60.58-95.05,112-84.39,129.62-76.12C1455.62,1613.87,1456.41,1674.24,1409,1747.05Z"/><path class="cls-10" d="M1408.44,2661.47h-72.31c-.79,0-3.17-10-6.66-27.79h51.82c-6.65,9.08-10.31,13.65-9.62,14.15C1377.45,2652,1417.12,2661.47,1408.44,2661.47Z"/><path class="cls-10" d="M1514.92,2055a4.14,4.14,0,0,0,4.13-4.05c1.15-56.08-30.41-88.9-52.66-90.15-6.35-.37-12.75,2.63-18.53,8.65-15.15,15.76-23.58,49-20.52,80.71a4.13,4.13,0,0,0,8.23-.79c-3.33-34.47,7.13-62.62,18.25-74.2,2.83-2.94,7.22-6.39,12.11-6.12,16.68.94,45.94,29.05,44.86,81.73a4.13,4.13,0,0,0,4,4.22Z"/><path class="cls-9" d="M1594,2169.59H1325.15a10.43,10.43,0,0,1-9.9-13.69l40-121.29a10.4,10.4,0,0,1,9.9-7.16h190.34a10.39,10.39,0,0,1,9.93,7.26L1603.93,2156a10.43,10.43,0,0,1-9.93,13.59Z"/><circle class="cls-10" cx="1421.34" cy="2051.45" r="8.99"/><circle class="cls-10" cx="1504.81" cy="2051.45" r="8.99"/><path class="cls-25" d="M1421.37,2055a4.14,4.14,0,0,1-4.13-4.05c-1.15-56.08,30.41-88.9,52.66-90.15,6.35-.37,12.75,2.63,18.54,8.65,15.14,15.76,23.58,49,20.51,80.71a4.13,4.13,0,1,1-8.22-.79c3.32-34.47-7.13-62.62-18.25-74.2-2.83-2.94-7.22-6.39-12.12-6.12-16.68.94-45.93,29.05-44.86,81.73a4.13,4.13,0,0,1-4,4.22Z"/><path class="cls-16" d="M1487.94,1987.6c-5,13.75-123.39-30.87-180.7-86-49.38-47.5-65.71-92.86-23.43-176.42q5.93-11.76,13.43-24.53c58.23,5.34,93.65,29.47,111.73,46.36-1,1.59-2.08,3.17-3.15,4.78C1355.17,1826.77,1492.9,1973.83,1487.94,1987.6Z"/><path class="cls-17" d="M1409,1747.05c-49.33-28.15-102.47-25-125.16-21.83q5.93-11.76,13.43-24.53C1355.47,1706,1390.89,1730.16,1409,1747.05Z"/><path class="cls-20" d="M3399.68,1418.91c13.22-6.06,57.84-20.38,60.6-26.44s-157.57-79.34-68.87-122.31,330.84-53.16,357.28,18.73-30.57,124.62-206.18,122.72C3431.32,1410.42,3399.68,1418.91,3399.68,1418.91Z"/><path class="cls-1" d="M3527.07,1342.33h-6.65l-6.61,0a12.11,12.11,0,0,1-3.27-.3,2.42,2.42,0,0,1-1.71-2.53q0-3.37,5.25-3.38l1.6,0,1.37.06c0-1.07-.1-2.64-.29-4.74s-.28-3.66-.28-4.71q0-4.23.77-12.89.73-8.5.7-12.92c-3,2.32-4.89,3.47-5.71,3.47a3.13,3.13,0,0,1-2.32-1,3.18,3.18,0,0,1-1-2.3q0-1.58,2.88-3.81,1.8-1.26,5.1-4.07,2.94-3,5.61-3c1.49,0,2.24.85,2.24,2.57a17.74,17.74,0,0,1-.2,2.28,20.11,20.11,0,0,0-.2,2.29c0,.74,0,1.85.12,3.34s.11,2.61.11,3.34q0,3.81-.8,11.35t-.8,11.32c0,1.3.09,2.86.27,4.71s.28,3.36.3,4.54l3.51-.06a3.17,3.17,0,0,1,2.32.91,3.36,3.36,0,0,1,0,4.6A3.2,3.2,0,0,1,3527.07,1342.33Z"/><path class="cls-1" d="M3556.66,1343.6q-10.14,0-14.82-9.29-3.54-7.14-3.54-18.6a30.63,30.63,0,0,1,4.61-16.89q5.43-8.44,14.79-8.45a15.5,15.5,0,0,1,13.69,7.48q4.24,6.48,4.24,15.79,0,15-4.74,22.46T3556.66,1343.6Zm1-46.79q-6.23,0-9.86,6.32a23.73,23.73,0,0,0-3,12q0,11,3,16.5a9.57,9.57,0,0,0,8.91,5.51q7.08,0,10.15-8.09a40.25,40.25,0,0,0,2.14-14.22q0-9-2.82-13.56A9.33,9.33,0,0,0,3557.67,1296.81Z"/><path class="cls-1" d="M3627,1345.07q-2.73,0-3.2-2.91-.6-3.67-1.2-10.35l-1.14-10.35a22.74,22.74,0,0,0-1.13-4.51c-.76-2-1.59-3-2.48-3s-2.36.71-4.6,2.11a19.29,19.29,0,0,0-4.21,3.1c0,2.1,0,4.19.17,6.28l1,8.92a76.16,76.16,0,0,1,.63,8.71,3.3,3.3,0,0,1-.92,2.42,3.38,3.38,0,0,1-4.7,0,3.3,3.3,0,0,1-.92-2.42q0-4-.82-11.94t-.82-11.93a12.32,12.32,0,0,0-1-5.51,16.61,16.61,0,0,0-4.74,3.47l-3.94,4.41a21.57,21.57,0,0,1-1.71,2.1q0,2-.36,5.91c-.25,2.61-.37,4.53-.37,5.78a16.38,16.38,0,0,0,.32,2.8,17.12,17.12,0,0,1,.31,2.61,3,3,0,0,1-1,2.3,3.45,3.45,0,0,1-2.39.94q-3.78,0-3.77-8.58,0-2,.36-6t.37-6c0-1.18-.11-3-.32-5.31s-.31-4.14-.31-5.34q0-7.57,3.4-7.58a3.29,3.29,0,0,1,2.39,1.13,3.55,3.55,0,0,1,1.08,2.48,17.61,17.61,0,0,1-.16,2,16.11,16.11,0,0,0-.17,2l.07,3.51a19.9,19.9,0,0,1,5.11-6.46c2.24-1.93,4.16-2.89,5.74-2.89q5.24,0,7.21,5.21a11.86,11.86,0,0,1,4.38-3.66,13.27,13.27,0,0,1,5.81-1.22q5.57,0,7.61,6a87.47,87.47,0,0,1,1.37,9.39q.93,5.74,2.4,19.13a2.67,2.67,0,0,1-.9,2.27A3.47,3.47,0,0,1,3627,1345.07Z"/><path class="cls-1" d="M3647.35,1332a3.28,3.28,0,0,1-2.41-1,3.32,3.32,0,0,1-1-2.39q0-2.31,4.27-5.68l8-6q4.31-3.7,4.31-6.78c0-2.58-1.22-5-3.64-7.14a11,11,0,0,0-7.45-3.17c-1.4,0-3.18.71-5.34,2.15s-3.5,2.15-4,2.15a3,3,0,0,1-2.35-1.1,3.58,3.58,0,0,1-1-2.47c0-1.76,1.71-3.51,5.11-5.24q4.57-2.34,7.58-2.34a17.25,17.25,0,0,1,12.19,5.24q5.47,5.25,5.48,11.92a13.13,13.13,0,0,1-3.14,8.65,37.75,37.75,0,0,1-6.95,5.88,45.32,45.32,0,0,0-7.11,6A3.34,3.34,0,0,1,3647.35,1332Zm-1.84,12.69a4,4,0,0,1-2.66-1,3,3,0,0,1-1.18-2.38,6.67,6.67,0,0,1,1.1-3.74,3.67,3.67,0,0,1,3.17-1.87q3.21,0,3.21,3.94a6.36,6.36,0,0,1-.87,3.3A3.18,3.18,0,0,1,3645.51,1344.7Z"/><path class="cls-24" d="M2460.37,1843.24l-145.32-1.4,1.42-148.06,145.33,1.39Zm-144.52-2.19,143.74,1.39L2461,1696l-143.73-1.38Z"/><path class="cls-24" d="M2466,1699.59l-179-1.72.08-8,179,1.72Zm-178.17-2.51,177.38,1.71.06-6.37-177.38-1.7Z"/><path class="cls-24" d="M2466.05,1692.43l-185.44-1.78,48.92-73.35,137.23,1.32Zm-184-2.56,183.16,1.76.69-72.22-136-1.31Z"/><path class="cls-24" d="M2672.26,1634.27l-20.28-.19,2.09-163.32,20.28.19Zm-19.47-.94,18.68.18,2.08-161.81-18.69-.18Z"/><path class="cls-24" d="M2473.8,1632.38l-20.29-.2,2.09-163.32,20.29.2Zm-19.48-1,18.69.18,2.07-161.8-18.69-.18Z"/><path class="cls-24" d="M2861.87,1634.37l-20.28-.2,2.07-162,20.28.19Zm-19.48-.94,18.69.18,2.06-160.52-18.69-.18Z"/><path class="cls-24" d="M2603.61,1633.23l-85.61-.82.52-54.54,85.62.82Zm-84.81-1.61,84,.81.51-53-84-.81Z"/><path class="cls-24" d="M2848.26,1842.09l-376.09-3.61L2474,1650l376.1,3.61Zm-375.29-4.4,374.5,3.6,1.8-186.94-374.5-3.6Z"/><path class="cls-24" d="M2502.82,1843.65l-59-.57.1-10.55,59,.57Zm-58.24-1.36,57.45.55.09-8.95-57.45-.55Z"/><path class="cls-24" d="M2497.79,1747.05l-47.12-.45.08-8.56,47.12.46Zm-46.32-1.24,45.53.44.07-7-45.53-.44Z"/><path class="cls-24" d="M2488.5,1659.24l-28.42-.27.05-5.5,28.43.27Zm-27.62-1.06,26.83.25,0-3.9-26.83-.25Z"/><path class="cls-24" d="M2492.77,1739.24l-38.08-.36,0-.43,6.69-80.27,25.59.25Zm-37.21-1.15,36.35.35-5.64-79.22-24.11-.23Z"/><path class="cls-24" d="M2494.13,1758.28l-41-.39.34-4.09,40.38.39ZM2454,1757.1l39.3.38-.18-2.5-38.91-.37Z"/><path class="cls-24" d="M2479.49,1756.5l-26.25-.26.87-10.41,25.48.25Zm-25.38-1,24.59.23.09-8.82-23.95-.23Z"/><path class="cls-24" d="M2494,1756.64l-15.32-.15.11-10.42,14.47.14Zm-14.51-.94,13.65.13-.63-8.83-12.94-.12Z"/><path class="cls-24" d="M2494.93,1769.56l-42.76-.42.34-4.08,42.13.4Zm-41.9-1.2,41,.39-.18-2.5-40.65-.39Z"/><path class="cls-24" d="M2493.44,1767.9l-28.91-.28.1-10.42,28.91.28Zm-28.11-1.07,27.32.26.09-8.82-27.32-.26Z"/><path class="cls-24" d="M2465.33,1767.63l-13-.13.87-10.41,12.26.12Zm-12.16-.92,11.37.11.08-8.82-10.71-.1Z"/><path class="cls-24" d="M2494.81,1767.91l-2.16,0,.1-10.42h1.32Zm-1.36-.81h.51l-.45-6.21Z"/><path class="cls-24" d="M2495.73,1780.83l-44.51-.43.35-4.08,43.87.42Zm-43.64-1.21,42.78.41-.17-2.5-42.4-.41Z"/><path class="cls-24" d="M2479.28,1779l-27.91-.27.86-10.41,27.15.26Zm-27.05-1.06,26.26.25.08-8.82-25.6-.25Z"/><path class="cls-24" d="M2495.62,1779.18l-17.14-.16.1-10.42,16.29.16Zm-16.34-1,15.48.15-.63-8.83-14.76-.14Z"/><path class="cls-24" d="M2496.53,1792.1l-46.24-.44.34-4.09,45.62.44Zm-45.38-1.23,44.53.43-.18-2.5-44.14-.42Z"/><path class="cls-24" d="M2493.23,1790.43l-28.92-.28.1-10.42,28.92.28Zm-28.11-1.07,27.32.26.08-8.82-27.32-.26Z"/><path class="cls-24" d="M2465.11,1790.16l-14.69-.14.87-10.41,13.92.13Zm-13.82-.93,13,.12.09-8.82-12.39-.12Z"/><path class="cls-24" d="M2496.42,1790.46l-4,0,.1-10.42,3.14,0Zm-3.18-.83,2.32,0-.63-8.83h-1.61Z"/><path class="cls-24" d="M2497.34,1803.38l-48-.46.34-4.09,47.36.46Zm-47.13-1.25,46.27.44-.18-2.49-45.88-.44Z"/><path class="cls-24" d="M2479.06,1801.56l-28.92-.28.1-10.42,28.92.28Zm-28.11-1.07,27.32.26.08-8.82-27.32-.26Z"/><path class="cls-24" d="M2497.22,1801.73l-19-.18.1-10.42,18.12.18Zm-18.15-1,17.29.17-.63-8.83-16.58-.16Z"/><path class="cls-24" d="M2451.24,1801.29l-1.76,0,.75-8.93v-1.48h1.1Zm-.89-.81h.1l0-1.37Z"/><path class="cls-24" d="M2498.14,1814.65l-49.73-.47.34-4.09,49.1.47Zm-48.87-1.26,48,.46-.18-2.5-47.63-.46Z"/><path class="cls-24" d="M2493,1813l-28.92-.28.1-10.42,28.92.28Zm-28.11-1.07,27.32.26.08-8.82-27.32-.26Z"/><path class="cls-24" d="M2464.89,1812.69l-16.34-.16.86-10.41,15.58.15Zm-15.48-1,14.69.14.09-8.82-14-.13Z"/><path class="cls-24" d="M2498,1813l-5.81-.06.1-10.42,5,0Zm-5-.85,4.15,0-.63-8.83-3.44,0Z"/><path class="cls-24" d="M2499,1825.93l-51.48-.5.34-4.08,50.84.48Zm-50.62-1.29,49.76.48-.18-2.5-49.37-.47Z"/><path class="cls-24" d="M2478.84,1824.09l-28.91-.28.1-10.42,28.91.28Zm-28.11-1.07,27.32.26.09-8.82-27.32-.26Z"/><path class="cls-24" d="M2498.83,1824.28l-20.78-.2.1-10.42,19.94.2Zm-20-1,19.12.18-.63-8.82-18.41-.18Z"/><path class="cls-24" d="M2450.72,1823.82l-3.12,0,.87-10.41,2.35,0Zm-2.25-.82h1.46l.09-8.82h-.81Z"/><path class="cls-24" d="M2492.81,1833.84l-28.91-.28.08-8.77,28.92.28Zm-28.11-1.07,27.32.27.07-7.18-27.32-.26Z"/><path class="cls-24" d="M2464.69,1833.52l-17.88-.17.72-8.71,17.25.16Zm-17-1,16.23.16.07-7.13-15.7-.15Z"/><path class="cls-24" d="M2499.51,1833.86l-7.5-.07.09-8.73,6.79.07Zm-6.69-.86,5.83,0-.5-7.13-5.26-.05Z"/><path class="cls-24" d="M2690.66,1845.46l-59-.57.11-10.55,59,.56Zm-58.24-1.36,57.45.55.08-9-57.45-.55Z"/><path class="cls-24" d="M2685.62,1748.86l-47.12-.46.09-8.55,47.11.45Zm-46.31-1.25,45.52.44.07-7-45.52-.44Z"/><path class="cls-24" d="M2676.34,1661l-28.43-.27.05-5.49,28.43.27Zm-27.62-1.06,26.83.26,0-3.9-26.84-.26Z"/><path class="cls-24" d="M2680.61,1741.05l-38.08-.37,0-.42,6.7-80.27,25.59.24Zm-37.22-1.16,36.36.35-5.64-79.22-24.12-.23Z"/><path class="cls-24" d="M2682,1760.09l-41-.4.34-4.08,40.39.39Zm-40.15-1.19,39.29.38-.17-2.49-38.92-.38Z"/><path class="cls-24" d="M2667.33,1758.3l-26.25-.25.87-10.41,25.48.24Zm-25.39-1,24.6.24.08-8.83-23.94-.23Z"/><path class="cls-24" d="M2681.85,1758.44l-15.32-.15.1-10.41,14.47.14Zm-14.52-.93,13.66.13-.63-8.83-12.94-.13Z"/><path class="cls-24" d="M2682.76,1771.36,2640,1771l.34-4.09,42.13.41Zm-41.89-1.2,41,.4-.18-2.5-40.66-.39Z"/><path class="cls-24" d="M2681.28,1769.7l-28.92-.28.1-10.41,28.92.27Zm-28.11-1.06,27.32.26.08-8.83-27.32-.26Z"/><path class="cls-24" d="M2653.16,1769.43l-13-.12.87-10.41,12.25.11Zm-12.16-.91,11.37.11.09-8.83-10.72-.1Z"/><path class="cls-24" d="M2682.65,1769.72l-2.17,0,.1-10.42h1.32Zm-1.36-.81h.5l-.44-6.21Z"/><path class="cls-24" d="M2683.57,1782.64l-44.51-.43.34-4.09,43.88.43Zm-43.64-1.22,42.78.41-.18-2.49-42.39-.41Z"/><path class="cls-24" d="M2667.11,1780.83l-27.91-.27.87-10.41,27.14.26Zm-27-1,26.25.25.09-8.83-25.61-.24Z"/><path class="cls-24" d="M2683.45,1781l-17.14-.17.1-10.41,16.3.15Zm-16.33-1,15.47.14-.63-8.83-14.76-.14Z"/><path class="cls-24" d="M2684.37,1793.91l-46.25-.45.34-4.08,45.62.44Zm-45.38-1.23,44.52.42-.17-2.49-44.14-.43Z"/><path class="cls-24" d="M2681.06,1792.23l-28.91-.28.1-10.41,28.91.27Zm-28.11-1.07,27.32.27.09-8.83-27.32-.26Z"/><path class="cls-24" d="M2652.94,1792l-14.68-.15.87-10.41,13.91.14Zm-13.82-.93,13,.12.09-8.82-12.38-.12Z"/><path class="cls-24" d="M2684.25,1792.27l-4,0,.1-10.42,3.14,0Zm-3.18-.83,2.33,0-.63-8.83h-1.62Z"/><path class="cls-24" d="M2685.18,1805.19l-48-.47.34-4.08,47.36.45Zm-47.13-1.25,46.27.44-.18-2.5-45.88-.44Z"/><path class="cls-24" d="M2666.89,1803.36l-28.91-.28.1-10.41,28.91.27Zm-28.11-1.07,27.32.27.09-8.83-27.32-.26Z"/><path class="cls-24" d="M2685.06,1803.54l-19-.19.1-10.41,18.11.17Zm-18.16-1,17.3.16-.63-8.83-16.58-.16Z"/><path class="cls-24" d="M2639.08,1803.09h-1.76l.74-8.94,0-1.47h1.1Zm-.9-.8h.11v-1.38Z"/><path class="cls-24" d="M2686,1816.46l-49.74-.48.34-4.09,49.11.48Zm-48.87-1.27,48,.46-.18-2.49-47.62-.46Z"/><path class="cls-24" d="M2680.84,1814.76l-28.91-.28.1-10.41,28.91.28Zm-28.11-1.07,27.32.27.09-8.82-27.32-.27Z"/><path class="cls-24" d="M2652.73,1814.5l-16.35-.16.87-10.41,15.58.15Zm-15.48-1,14.69.14.08-8.82-14-.14Z"/><path class="cls-24" d="M2685.86,1814.81l-5.81,0,.1-10.42,5,.05Zm-5-.84,4.15,0-.62-8.83-3.44,0Z"/><path class="cls-24" d="M2686.78,1827.73l-51.48-.49.35-4.09,50.84.49Zm-50.61-1.28,49.75.48-.17-2.5-49.37-.47Z"/><path class="cls-24" d="M2666.68,1825.9l-28.92-.28.1-10.42,28.92.28Zm-28.11-1.07,27.32.26.08-8.82-27.32-.27Z"/><path class="cls-24" d="M2686.66,1826.08l-20.78-.2.1-10.41,19.94.19Zm-20-1,19.12.19-.62-8.83-18.41-.18Z"/><path class="cls-24" d="M2638.56,1825.62l-3.12,0,.87-10.41,2.35,0Zm-2.25-.82,1.46,0,.08-8.82H2637Z"/><path class="cls-24" d="M2680.65,1835.65l-28.92-.28.08-8.77,28.92.28Zm-28.12-1.07,27.33.26.06-7.17-27.32-.27Z"/><path class="cls-24" d="M2652.53,1835.33l-17.89-.17.73-8.72,17.24.17Zm-17-1,16.23.16.07-7.13-15.71-.15Z"/><path class="cls-24" d="M2687.34,1835.67l-7.49-.08.08-8.72,6.79.07Zm-6.69-.87,5.84.06-.51-7.13-5.26-.06Z"/><path class="cls-24" d="M2881.94,1847.29l-59.05-.56.11-10.55,59,.56Zm-58.24-1.35,57.45.55.08-9-57.44-.55Z"/><path class="cls-24" d="M2876.9,1750.7l-47.12-.46.09-8.55,47.12.45Zm-46.31-1.25,45.52.44.07-7-45.52-.44Z"/><path class="cls-24" d="M2867.62,1662.88l-28.43-.27.06-5.49,28.42.27Zm-27.62-1.06,26.83.26,0-3.9-26.84-.26Z"/><path class="cls-24" d="M2871.89,1742.89l-38.08-.37,0-.42,6.7-80.27,25.59.24Zm-37.22-1.16,36.36.35-5.64-79.22-24.12-.23Z"/><path class="cls-24" d="M2873.24,1761.93l-41-.4.34-4.08,40.39.39Zm-40.15-1.19,39.29.38-.17-2.49-38.91-.38Z"/><path class="cls-24" d="M2858.61,1760.14l-26.25-.25.87-10.41,25.48.24Zm-25.38-1,24.59.24.08-8.83-23.94-.23Z"/><path class="cls-24" d="M2873.13,1760.28l-15.32-.15.1-10.41,14.47.14Zm-14.51-.94,13.65.14-.63-8.83-12.94-.13Z"/><path class="cls-24" d="M2874,1773.2l-42.76-.41.34-4.09,42.13.41Zm-41.89-1.2,41,.4-.18-2.5-40.65-.39Z"/><path class="cls-24" d="M2872.56,1771.54l-28.92-.28.1-10.41,28.92.27Zm-28.11-1.07,27.32.27.08-8.83-27.32-.26Z"/><path class="cls-24" d="M2844.44,1771.27l-13-.12.87-10.41,12.25.11Zm-12.16-.91,11.37.11.09-8.83-10.72-.1Z"/><path class="cls-24" d="M2873.93,1771.55l-2.17,0,.1-10.41h1.32Zm-1.36-.81h.5l-.44-6.21Z"/><path class="cls-24" d="M2874.85,1784.48l-44.51-.43.34-4.09,43.88.43Zm-43.64-1.22,42.78.41-.18-2.49-42.39-.41Z"/><path class="cls-24" d="M2858.39,1782.67l-27.91-.27.87-10.41,27.14.26Zm-27-1.06,26.25.26.09-8.83-25.61-.24Z"/><path class="cls-24" d="M2874.73,1782.83l-17.14-.17.1-10.41,16.3.15Zm-16.33-1,15.47.15-.63-8.83-14.76-.14Z"/><path class="cls-24" d="M2875.65,1795.75l-46.25-.45.34-4.08,45.62.44Zm-45.38-1.24,44.52.43-.17-2.49-44.14-.43Z"/><path class="cls-24" d="M2872.34,1794.07l-28.91-.28.1-10.41,28.91.27Zm-28.11-1.07,27.32.27.09-8.83-27.32-.26Z"/><path class="cls-24" d="M2844.23,1793.8l-14.69-.14.87-10.41,13.92.14Zm-13.82-.93,13,.13.08-8.82-12.38-.12Z"/><path class="cls-24" d="M2875.53,1794.11l-4,0,.1-10.42,3.14,0Zm-3.18-.83,2.33,0-.63-8.83-1.61,0Z"/><path class="cls-24" d="M2876.46,1807l-48-.46.35-4.08,47.35.45Zm-47.13-1.25,46.27.45-.18-2.5-45.88-.44Z"/><path class="cls-24" d="M2858.17,1805.2l-28.91-.28.1-10.41,28.91.27Zm-28.11-1.07,27.32.27.09-8.83-27.32-.26Z"/><path class="cls-24" d="M2876.34,1805.38l-19-.19.1-10.41,18.11.17Zm-18.16-1,17.3.17-.63-8.83-16.58-.16Z"/><path class="cls-24" d="M2830.36,1804.93h-1.76l.75-8.94v-1.47h1.1Zm-.89-.8h.1v-1.38Z"/><path class="cls-24" d="M2877.26,1818.3l-49.74-.48.34-4.09,49.11.48Zm-48.87-1.27,48,.46-.18-2.49-47.62-.46Z"/><path class="cls-24" d="M2872.13,1816.6l-28.92-.28.1-10.41,28.92.28Zm-28.11-1.07,27.32.27.08-8.82-27.32-.27Z"/><path class="cls-24" d="M2844,1816.33l-16.35-.15.87-10.41,15.58.15Zm-15.48-.94,14.69.14.08-8.82-14-.14Z"/><path class="cls-24" d="M2877.14,1816.65l-5.81-.05.1-10.42,5,0Zm-5-.84,4.15,0-.62-8.83-3.44,0Z"/><path class="cls-24" d="M2878.06,1829.57l-51.48-.49.35-4.09,50.84.49Zm-50.61-1.28,49.75.48-.17-2.5-49.37-.47Z"/><path class="cls-24" d="M2858,1827.73l-28.92-.27.1-10.42,28.92.28Zm-28.11-1.06,27.32.26.08-8.82-27.32-.27Z"/><path class="cls-24" d="M2877.94,1827.92l-20.78-.2.1-10.41,19.94.19Zm-20-1,19.12.19-.63-8.83-18.41-.18Z"/><path class="cls-24" d="M2829.84,1827.46l-3.12,0,.87-10.41,2.35,0Zm-2.25-.82,1.46,0,.09-8.82h-.82Z"/><path class="cls-24" d="M2871.93,1837.49l-28.92-.28.09-8.77,28.91.28Zm-28.11-1.07,27.32.26.07-7.17-27.33-.27Z"/><path class="cls-24" d="M2843.81,1837.17l-17.89-.17.73-8.72,17.24.17Zm-17-1,16.23.15.07-7.12-15.71-.15Z"/><path class="cls-24" d="M2878.63,1837.5l-7.5-.07.08-8.72,6.79.06Zm-6.7-.86,5.84.06-.51-7.14-5.26,0Z"/><path class="cls-24" d="M2883,1658.33l-442.28-4.25.12-11.71,442.27,4.25Zm-441.47-5,440.68,4.24.09-10.12-440.67-4.23Z"/><path class="cls-24" d="M2883.76,1647.43l-443.53-4.27,13-11.58,417.82,4,.11.11Zm-441.47-5,439.42,4.22-11-10.22-417.2-4Z"/><path class="cls-24" d="M2883,1473.32l-442.28-4.25.12-11.71,442.27,4.25Zm-441.47-5,440.68,4.24.09-10.12-440.67-4.23Z"/><path class="cls-24" d="M2883.76,1462.42l-443.53-4.27,81.25-106.52,297,4,.12.11Zm-441.47-5.05,439.42,4.23-63.54-105.16-296.39-4Z"/><path class="cls-24" d="M2519.86,1632.43l-5.9-.06.5-52.2,5.9.06Zm-5.09-.85,4.3,0,.49-50.6-4.31,0Z"/><path class="cls-24" d="M2606.16,1633.26l-5.9-.06.5-52.2,5.9.06Zm-5.09-.85,4.3,0,.49-50.6-4.31,0Z"/><path class="cls-24" d="M2614.66,1581.93l-107.32-1,0-5.49,107.33,1Zm-106.52-1.82,105.73,1,0-3.89-105.73-1Z"/><path class="cls-24" d="M2615.09,1577.25l-108-1,15.24-23.67,75.6.73.11.16Zm-106.58-1.82,105,1-16.05-22.38-74.75-.72Z"/><path class="cls-24" d="M2315.84,1841.85l-15.74-.15,1.39-144.48,15.74.15Zm-14.94-.94,14.15.14,1.38-142.89-14.15-.14Z"/><path class="cls-24" d="M2607.31,1839.78l-84.07-.81,1.48-154,84.07.8Zm-83.26-1.6,82.47.79,1.47-152.4-82.48-.79Z"/><path class="cls-24" d="M2800.14,1635.71l-84.07-.81,1.48-154,84.07.81Zm-83.26-1.6,82.47.79,1.47-152.39-82.48-.8Z"/><path class="cls-24" d="M2821.68,1778.86l-56.54-.54.87-90.92,56.55.54Zm-55.74-1.33,54.95.53.86-89.33-54.95-.53Z"/><path class="cls-24" d="M2818.48,1732.33l-24-.23.4-40.91,24,.23Zm-23.17-1,22.38.22.38-39.32-22.38-.21Z"/><path class="cls-24" d="M2818.06,1775.87l-24-.23.39-40.91,24,.24Zm-23.17-1,22.38.22.38-39.31-22.38-.22Z"/><path class="cls-24" d="M2753.91,1778.21l-56.55-.54.87-90.92,56.55.54Zm-55.74-1.33,54.95.53.86-89.33-55-.53Z"/><path class="cls-24" d="M2725.43,1731.44l-24-.23.39-40.91,24,.23Zm-23.17-1,22.38.21.38-39.31-22.38-.22Z"/><path class="cls-24" d="M2725,1775l-24-.23.39-40.91,24,.23Zm-23.17-1,22.38.21.38-39.31-22.38-.21Z"/><path class="cls-24" d="M2790.09,1783.66l-62.86-.6,1-101.13,62.85.61Zm-62.05-1.39,61.26.58,1-99.52-61.26-.59Z"/><path class="cls-24" d="M2758.41,1731.59l-26.6-.25.44-45.45,26.6.25Zm-25.79-1,25,.24.42-43.86-25-.24Z"/><path class="cls-24" d="M2786.53,1731.86l-26.6-.25.43-45.45,26.6.25Zm-25.8-1,25,.24.42-43.86-25-.24Z"/><path class="cls-24" d="M2758,1780.06l-26.6-.25.43-45.45,26.6.26Zm-25.8-1,25,.24.42-43.86-25-.24Z"/><path class="cls-24" d="M2786.06,1780.33l-26.6-.25.44-45.45,26.6.26Zm-25.79-1,25,.24.42-43.85-25-.25Z"/><path class="cls-24" d="M2632.41,1844.9,2502,1843.64l.06-5.67,130.39,1.25Zm-129.58-2.05,128.79,1.24,0-4.08-128.79-1.24Z"/><path class="cls-24" d="M2653.78,1853.56l-173.29-1.66.09-9.26,173.29,1.66Zm-172.48-2.45,171.69,1.65.07-7.67-171.69-1.65Z"/><path class="cls-24" d="M2666.33,1862.15l-198.55-1.91.09-9.26,198.55,1.91Zm-197.74-2.7,196.95,1.9.07-7.67-197-1.9Z"/><rect class="cls-9" x="2299.2" y="1873.96" width="586.4" height="1.59" transform="translate(-19.59 27.39) rotate(-0.6)"/><path class="cls-9" d="M2289.59,1878c4.55,1.63,10.2,4.44,13.71,7.44l-2.82-7.56,2.66-7.61C2299.69,1873.3,2294.1,1876.22,2289.59,1878Z"/><path class="cls-9" d="M2895.21,1871.57c-4.51,1.73-10.1,4.66-13.55,7.73l2.66-7.61-2.82-7.56C2885,1867.13,2890.66,1869.94,2895.21,1871.57Z"/><rect class="cls-9" x="2301.28" y="1897.42" width="144.14" height="1.59" transform="translate(-19.81 25.04) rotate(-0.6)"/><path class="cls-9" d="M2291.66,1899.08c4.54,1.63,10.19,4.44,13.71,7.44l-2.83-7.56,2.67-7.61C2301.76,1894.42,2296.17,1897.35,2291.66,1899.08Z"/><path class="cls-9" d="M2455,1897.36c-4.51,1.72-10.1,4.65-13.55,7.72l2.66-7.61-2.82-7.55C2444.84,1892.92,2450.48,1895.72,2455,1897.36Z"/><rect class="cls-9" x="2468.4" y="1534.08" width="69.27" height="1.59" transform="translate(-16.04 26.46) rotate(-0.6)"/><path class="cls-9" d="M2458.78,1535.34c4.54,1.63,10.19,4.44,13.71,7.44l-2.83-7.55,2.67-7.61C2468.88,1530.69,2463.29,1533.61,2458.78,1535.34Z"/><path class="cls-9" d="M2547.29,1534.41c-4.51,1.73-10.1,4.65-13.55,7.73l2.66-7.62-2.82-7.55C2537.09,1530,2542.74,1532.78,2547.29,1534.41Z"/><rect class="cls-9" x="2567.59" y="1533.24" width="69.27" height="1.59" transform="translate(-16.02 27.51) rotate(-0.6)"/><path class="cls-9" d="M2558,1534.51c4.55,1.63,10.2,4.44,13.71,7.44l-2.82-7.56,2.66-7.61C2568.07,1529.85,2562.48,1532.78,2558,1534.51Z"/><path class="cls-9" d="M2646.48,1533.58c-4.51,1.72-10.1,4.65-13.55,7.72l2.67-7.61-2.83-7.55C2636.29,1529.14,2641.94,1531.94,2646.48,1533.58Z"/><rect class="cls-9" x="2310.52" y="1675.84" width="137.25" height="1.59" transform="translate(-17.49 25.1) rotate(-0.6)"/><path class="cls-9" d="M2300.9,1677.46c4.55,1.63,10.2,4.44,13.71,7.44l-2.82-7.56,2.66-7.61C2311,1672.81,2305.41,1675.73,2300.9,1677.46Z"/><path class="cls-9" d="M2457.39,1675.81c-4.51,1.73-10.1,4.66-13.55,7.73l2.66-7.61-2.82-7.56C2447.2,1671.37,2452.85,1674.18,2457.39,1675.81Z"/><rect class="cls-9" x="2724.42" y="1537.74" width="69.27" height="1.59" transform="translate(-16.06 29.16) rotate(-0.6)"/><path class="cls-9" d="M2714.8,1539c4.55,1.64,10.2,4.45,13.71,7.44l-2.82-7.55,2.66-7.61C2724.9,1534.35,2719.31,1537.28,2714.8,1539Z"/><path class="cls-9" d="M2803.31,1538.07c-4.51,1.73-10.1,4.66-13.55,7.73l2.66-7.61-2.82-7.56C2793.12,1533.63,2798.76,1536.44,2803.31,1538.07Z"/><rect class="cls-9" x="2713.65" y="1671.19" width="101.24" height="1.59" transform="translate(-41.76 71.07) rotate(-1.46)"/><path class="cls-9" d="M2704,1673.52c4.57,1.57,10.26,4.29,13.82,7.24l-2.93-7.51,2.54-7.65C2714.07,1668.72,2708.53,1671.73,2704,1673.52Z"/><path class="cls-9" d="M2824.49,1670.45c-4.49,1.8-10,4.81-13.44,7.93l2.55-7.65-2.93-7.51C2814.23,1666.16,2819.92,1668.89,2824.49,1670.45Z"/><rect class="cls-9" x="2406.11" y="1589" width="62.42" height="1.59" transform="translate(715.86 3935.97) rotate(-86.85)"/><path class="cls-9" d="M2435.08,1630.57c1.93-4.43,5.1-9.89,8.32-13.2l-7.72,2.32-7.42-3.15C2431.1,1620.18,2433.65,1626,2435.08,1630.57Z"/><path class="cls-9" d="M2439.55,1549c1.43,4.62,4,10.39,6.83,14l-7.43-3.16-7.72,2.33C2434.46,1558.91,2437.63,1553.45,2439.55,1549Z"/><rect class="cls-9" x="2204.92" y="1778.04" width="117.9" height="1.59" transform="translate(363.2 3941.44) rotate(-86.85)"/><path class="cls-9" d="M2260.12,1847.31c1.92-4.43,5.09-9.88,8.32-13.19l-7.73,2.32-7.42-3.15C2256.14,1836.93,2258.69,1842.7,2260.12,1847.31Z"/><path class="cls-9" d="M2267.63,1710.37c1.43,4.61,4,10.38,6.82,14l-7.42-3.15-7.72,2.32C2262.53,1720.25,2265.7,1714.8,2267.63,1710.37Z"/><rect class="cls-9" x="2245.36" y="1654.73" width="54.01" height="1.59" transform="translate(494.35 3833.39) rotate(-86.85)"/><path class="cls-9" d="M2270.36,1692.1c1.93-4.43,5.1-9.88,8.32-13.19l-7.72,2.32-7.42-3.15C2266.38,1681.72,2268.93,1687.49,2270.36,1692.1Z"/><path class="cls-9" d="M2274.37,1619c1.43,4.61,4,10.38,6.83,14l-7.43-3.16-7.72,2.33C2269.28,1628.84,2272.45,1623.38,2274.37,1619Z"/><rect class="cls-9" x="2150.6" y="1737.08" width="203.19" height="1.59" transform="translate(393.06 3891.07) rotate(-86.85)"/><path class="cls-9" d="M2246.11,1848.93c1.92-4.43,5.09-9.88,8.31-13.19l-7.72,2.32-7.42-3.15C2242.12,1838.55,2244.68,1844.32,2246.11,1848.93Z"/><path class="cls-9" d="M2258.28,1626.83c1.44,4.62,4,10.38,6.83,14l-7.42-3.16L2250,1640C2253.19,1636.71,2256.36,1631.26,2258.28,1626.83Z"/><polygon class="cls-9" points="2400.98 1609.32 2399.49 1609.3 2405.51 1479.77 2407.01 1479.79 2400.98 1609.32"/><path class="cls-9" d="M2400.14,1618.33a45.29,45.29,0,0,1,7.24-12.71l-7.13,2.5-7.09-2.64C2396,1608.77,2398.61,1614.07,2400.14,1618.33Z"/><path class="cls-9" d="M2406.35,1470.76a45.18,45.18,0,0,0,7,12.85l-7.08-2.64-7.14,2.5A45.29,45.29,0,0,0,2406.35,1470.76Z"/><polygon class="cls-9" points="2430.9 1442.75 2429.56 1441.91 2489.17 1355.97 2490.51 1356.81 2430.9 1442.75"/><path class="cls-9" d="M2425.21,1450.41c3.77-2.92,9.11-6.15,13.48-7.49l-7.8-1.65L2426,1435C2426.69,1439.52,2426.16,1445.73,2425.21,1450.41Z"/><path class="cls-9" d="M2494.86,1348.31c-1,4.68-1.48,10.89-.74,15.4l-4.94-6.26-7.79-1.65C2485.75,1354.46,2491.09,1351.24,2494.86,1348.31Z"/><rect class="cls-9" x="2436.59" y="1915.73" width="52.92" height="1.59" transform="translate(-20.09 26.1) rotate(-0.6)"/><path class="cls-9" d="M2427,1916.9c4.55,1.64,10.2,4.44,13.71,7.44l-2.82-7.55,2.66-7.61C2437.07,1912.25,2431.48,1915.18,2427,1916.9Z"/><path class="cls-9" d="M2499.14,1916.14c-4.51,1.73-10.1,4.66-13.55,7.73l2.66-7.61-2.82-7.55C2488.94,1911.71,2494.59,1914.51,2499.14,1916.14Z"/><rect class="cls-9" x="2544.9" y="1768.23" width="52.92" height="1.59" transform="translate(-18.53 27.23) rotate(-0.6)"/><path class="cls-9" d="M2535.28,1769.41c4.54,1.63,10.19,4.44,13.71,7.44l-2.83-7.56,2.67-7.61C2545.37,1764.76,2539.79,1767.68,2535.28,1769.41Z"/><path class="cls-9" d="M2607.44,1768.65c-4.51,1.73-10.1,4.65-13.55,7.73l2.67-7.62-2.83-7.55C2597.25,1764.21,2602.9,1767,2607.44,1768.65Z"/><polygon class="cls-9" points="2568.01 1827.39 2566.41 1827.35 2570.47 1697.04 2572.06 1697.09 2568.01 1827.39"/><path class="cls-9" d="M2566.91,1837c1.82-4.47,4.86-10,8-13.39l-7.66,2.51-7.5-3C2562.68,1826.71,2565.37,1832.41,2566.91,1837Z"/><path class="cls-9" d="M2571.56,1687.45c1.54,4.58,4.23,10.28,7.16,13.86l-7.49-3-7.67,2.51C2566.71,1697.45,2569.75,1691.92,2571.56,1687.45Z"/><rect class="cls-9" x="2472.55" y="1893.24" width="406.63" height="1.59" transform="translate(-19.79 28.27) rotate(-0.6)"/><path class="cls-9" d="M2462.94,1896.27c4.55,1.64,10.19,4.45,13.71,7.45l-2.82-7.56,2.66-7.61C2473,1891.62,2467.45,1894.55,2462.94,1896.27Z"/><path class="cls-9" d="M2888.79,1891.79c-4.51,1.73-10.1,4.66-13.55,7.73l2.67-7.61-2.83-7.56C2878.6,1887.35,2884.25,1890.16,2888.79,1891.79Z"/><polygon class="cls-9" points="2814.62 1316.75 2515.85 1313.2 2515.86 1311.6 2814.63 1315.16 2814.62 1316.75"/><path class="cls-9" d="M2506.23,1312.31c4.51,1.72,10.11,4.64,13.56,7.71l-2.67-7.61,2.81-7.56C2516.42,1307.86,2510.77,1310.68,2506.23,1312.31Z"/><path class="cls-9" d="M2824.25,1316c-4.55,1.64-10.19,4.46-13.7,7.46l2.81-7.55-2.68-7.61C2814.14,1311.41,2819.73,1314.32,2824.25,1316Z"/><rect class="cls-9" x="2666.63" y="1130.17" width="1.59" height="414.78" transform="translate(1307.03 3993.42) rotate(-89.51)"/><path class="cls-9" d="M2450.42,1335.7c4.51,1.72,10.11,4.64,13.56,7.7l-2.67-7.6,2.8-7.56C2460.6,1331.24,2455,1334.06,2450.42,1335.7Z"/><path class="cls-9" d="M2884.43,1339.43c-4.54,1.64-10.18,4.46-13.69,7.46l2.81-7.56-2.68-7.6C2874.33,1334.79,2879.92,1337.71,2884.43,1339.43Z"/><polygon class="cls-9" points="2926.57 1353.91 2930.85 1839 2929.26 1839.02 2924.97 1353.93 2926.57 1353.91"/><path class="cls-9" d="M2930.15,1848.64c1.64-4.55,4.44-10.2,7.44-13.71l-7.55,2.82-7.61-2.66C2925.5,1838.54,2928.43,1844.13,2930.15,1848.64Z"/><path class="cls-9" d="M2925.67,1344.3c1.73,4.51,4.66,10.1,7.73,13.55l-7.61-2.66-7.56,2.82C2921.23,1354.49,2924,1348.85,2925.67,1344.3Z"/></g></svg>