<svg xmlns="http://www.w3.org/2000/svg" viewBox="0 0 4680 3120"><defs><style>.cls-1{fill:#fff;}.cls-2{fill:#ebeff2;}.cls-3{fill:#b3bbc3;}.cls-4{fill:#d3dce2;}.cls-5{fill:#4a5a66;}.cls-6{fill:#99a9b5;}.cls-7{fill:#343d76;}.cls-8{fill:#d9cfc3;}.cls-9{fill:#fa993b;}.cls-10{fill:#6bb14e;}.cls-11{fill:#83d35e;}.cls-12{fill:#f8bd88;}.cls-13{fill:#fc9d6b;}.cls-14{fill:#7ccfd5;}.cls-15{fill:#a6dfea;}.cls-16{fill:#d74f29;}.cls-17{fill:#c43924;}.cls-18{fill:#192057;}.cls-19{fill:#528e36;}.cls-20{fill:#69aa44;}.cls-21{fill:#ff790b;}.cls-22{fill:#ff8736;}</style></defs><title>jipbm_services_jipbm_3</title><g id="Buyers_sending_a_message_to_a_real_estate_agent_or_construction_worker" data-name="Buyers sending a message to a real estate agent or construction worker"><rect class="cls-1" width="4680" height="3120"/><rect class="cls-2" y="2420.64" width="4680" height="699.36"/><path class="cls-2" d="M4227,429.52c.06-25-.62-62.38-5-72.81a13.53,13.53,0,0,0-10.12-8.12l-68.29-.06L3957.23,185.28a19.77,19.77,0,0,0-37.08.51L3440.57,361H3322.82a18.37,18.37,0,0,0-11,3.62l-65,48.21a5.2,5.2,0,0,0-2.1,4.17v.85a5.19,5.19,0,0,0,5.2,5.19h49.51a11.07,11.07,0,0,0-2.37,20.84l-39.93,59L3258,505l40.88-60.46a11.15,11.15,0,0,0,2.9.4h28.6a11.2,11.2,0,0,0,3.55-.59l41,60.65.85-2.08-40.12-59.33a11.07,11.07,0,0,0-3-20.55h543.66c0,.23.07.47.12.7l7.64,32.84h0l-.5,2h.1l-2.59,10.22h-1.86c-.9,0-.9,8.05,0,8.05h26.13V1592.58h-25.11v40.12h-51.76v49.49H4043V1632.7h-51.77v-40.12h-23.81V476.79h20.32c.9,0,.9-8.05,0-8.05h-2.45V458.52h.16v-2h-.16V423h132.87v14.24h108.78C4229.07,437.25,4229.08,429.54,4227,429.52Zm-483.86-18.59-21-19,21-19.6Zm-22.74-20.61-22.84-20.69h45Zm-29.92,20.61-21-19,21-19.6Zm6.61-38.5L3718.59,392,3697,412.12Zm-29.35,17.89-22.84-20.69h45Zm-29.93,20.61-21-19,21-19.6Zm6.61-38.5L3665.93,392l-21.58,20.16ZM3615,390.32l-22.84-20.69h45Zm-29.92,20.61-21-19,21-19.6Zm6.61-38.5L3613.27,392l-21.58,20.16Zm-29.35,17.9-22.84-20.7h45Zm-29.92,20.6-21-19,21-19.6Zm6.6-38.5L3560.6,392,3539,412.13Zm-29.34,17.89-22.85-20.69h45Zm-82.59,20.61-21-19,21-19.6Zm6.61-38.5L3455.27,392l-21.58,20.15Zm.47-2.8h45L3457,390.32Zm45.6,2.71,0,38.59-21-19Zm6.59.09L3507.94,392l-21.58,20.15Zm-82,17.89-22.84-20.69h45Zm-29.93,20.61-21-19,21-19.6Zm6.61-38.5L3402.61,392,3381,412.13Zm-29.35,17.89-22.84-20.69h45ZM3350,392l-21.58,20.16,0-39.7Zm1.78,1.61,22.71,20.58v.2h-45Zm52.66,0,22.72,20.58v.2h-45Zm52.66,0,22.72,20.58v.2h-45Zm52.67,0,22.71,20.58v.2h-44.95Zm52.66,0,22.72,20.58v.2h-45Zm52.67,0,22.71,20.58v.2h-45Zm52.66,0,22.71,20.58v.2h-45Zm52.66,0,22.72,20.58v.2h-45Zm29.33-21.15L3771.26,392l-21.58,20.15Zm.47-2.8h45L3773,390.32Zm361.57,41.3-21-19,21-19.6ZM4089,390.33l-22.84-20.7h45Zm-29.93,20.6-14.71-13.34-6.25-5.65,21-19.6Zm6.61-38.5L4087.24,392l-21.58,20.16Zm-29.35,17.89-22.84-20.69h45ZM4013,372.43,4034.58,392,4013,412.12Zm-55.26-45.27-18.52,24.43h-.75l-19.1-24.46ZM3921.47,319l17.14-27.79,17.67,27.81Zm-20.38,82.81-.1.45,0,0,.14-.63Zm-.73,3.26,0,0-.91,4.34,0,0Zm-18-11.09-2.29-2.07,4.23-3.95Zm14.73,20.35a6.53,6.53,0,0,0,1.63-2.29l0,0a6.49,6.49,0,0,1-1.63,2.27Zm88.15-44.73h20.54l-20.54,19.18Zm-42.35-18,15.85-20.92,1.34,20.92Zm-2.61-63.14,14.26-23.13,3.26,50.71Zm-.55-59.5,12.57,25.66h-26.7l12.2-25.65Zm13,33.77-14.17,23-14.61-23ZM3943.06,229h9.19l1.39,21.6Zm-8.47,0-11.11,23.36,1.53-23.37Zm-12,37.06,14.27,22.47-17.62,28.57Zm-4.24,64.56,16.41,21H3917Zm-32.48,52.74-7.52,7-22.84-20.69h34.76Zm-37.44,27.62-21-19,21-19.6Zm6.61-38.5L3876.58,392,3855,412.13Zm-29.35,17.9-22.84-20.7h45Zm-23.32-17.9L3823.92,392l-21.58,20.16Zm-6.58-.09,0,38.59-20.95-19Zm29.92,21.24,22.72,20.58v.2h-45Zm52.67,0,3.23,2.93-4.52,14.06a24.36,24.36,0,0,0-.92,3.79h-20Zm128.06-21.24,0,38.59-21-19Zm29.93,21.24,22.71,20.58v.2h-45Zm52.66,0,22.72,20.58v.2h-44.95Zm50.75-45.05h-15.39a6.22,6.22,0,0,0-6.22,6.21V361H3985.29v-2.84a6.54,6.54,0,0,0-6.53-6.54h-13.9L3957,229h.38a1.19,1.19,0,0,0,1.19-1.2v-1h0l0-34.37a19.53,19.53,0,0,0-.22-2.77ZM3919,192.39l0,35.35a1.38,1.38,0,0,0,1.2,1.2h.12l-8.05,122.65h-11.43a6.52,6.52,0,0,0-6.21,4.53l-1.53,4.85H3519.34L3919,191.6C3919,191.87,3919,192.13,3919,192.39Zm-6-1.3L3512.87,361H3448ZM3311.69,373.15a19.68,19.68,0,0,1,10.11-3.48l0,44.69h-69.32Zm439.11,41.21L3773,393.58l22.71,20.58v.2H3750.8Zm182.29,62.43,1,1-20,22.09V476.79ZM3915.5,1030.3l20.19-22.28,20.84,22.31Zm21.81-24.06,19.92-22h1.53v45Zm-21.81-28.6,20.19-22.29,20.84,22.31Zm38.5,6.61-18.33,20.23-18.92-20.25Zm-16.69-30.68,19.92-22h1.53v44.95ZM3915.5,925l20.19-22.28L3956.53,925Zm38.5,6.61-18.33,20.24-18.92-20.26Zm-16.69-30.67,19.92-22h1.53v45Zm-21.81-28.6L3935.69,850l20.84,22.3Zm38.5,6.61-18.33,20.23-18.92-20.25Zm-16.69-30.67,19.92-22h1.53v45Zm-21.81-28.6,20.19-22.29,20.84,22.31Zm38.5,6.61-18.33,20.23-18.92-20.25Zm-16.69-30.68,19.92-22h1.53v44.95ZM3915.5,767l20.19-22.28L3956.53,767Zm38.5,6.61-18.33,20.23-18.92-20.25Zm-16.69-30.67,19.92-22h1.53v45Zm-21.81-28.6L3935.69,692l20.84,22.3Zm38.5,6.61-18.33,20.23-18.92-20.25Zm-16.69-30.68,19.92-22h1.53v45Zm-21.81-28.59,20.19-22.29,20.84,22.31Zm38.5,6.6-18.33,20.24-18.92-20.26Zm-16.69-30.67,19.92-22h1.53v45ZM3915.5,609l20.19-22.28L3956.53,609Zm38.5,6.61-18.33,20.23-18.92-20.25Zm-16.69-30.67,19.92-22h1.53v45Zm-1.64-1.76-18.92-20.25,37.25,0Zm-21-26.84,21-23.19,21.68,23.21Zm-.64-2.85V510l20,21.42Zm20,31.47L3914,607V563.52Zm0,52.66-20,22.09V616.19Zm0,52.67-20,22.09V668.85Zm0,52.66L3914,765V721.51Zm0,52.67-20,22.09V774.18Zm0,52.66-20,22.09V826.84Zm0,52.66L3914,923V879.5Zm0,52.67-20,22.09V932.17Zm0,52.66-20,22.09V984.83Zm-17.3,30.63,37.25,0-18.33,20.23Zm17.3,22-20,22.1V1037.5Zm23.18-22h1.53v45l-21.45-23Zm-19.92-505.55,19.92-22h1.53v45Zm-1.64-1.76-18.92-20.25,37.25,0ZM3915.5,1083l20.19-22.29,20.84,22.31Zm38.5,6.61-18.33,20.23-18.92-20.26Zm-39.32-586.82,21-23.18,21.68,23.21Zm-.64,587.4,20,21.43-20,22.09v-43.52Zm1.46,45.47,20.19-22.28,20.84,22.3Zm38.52,6.61-18.35,20.25-19-20.27Zm-40,.61,20,21.43-20,22.09v-43.52Zm1.46,362.35,20.19-22.28,20.84,22.31Zm21.81-24.06,19.92-22h1.53v45Zm-21.81-28.6,20.19-22.29,20.84,22.31Zm38.5,6.61-18.33,20.23-18.92-20.25Zm-16.69-30.68,19.92-22h1.53v45Zm-21.81-28.6,20.19-22.28,20.84,22.31Zm38.5,6.61-18.33,20.24-18.92-20.26Zm-16.69-30.67,19.92-22h1.53v45Zm-21.81-28.6,20.19-22.28,20.84,22.3Zm38.5,6.61-18.33,20.23-18.92-20.25Zm-16.69-30.67,19.92-22h1.53v44.95Zm-21.81-28.6,20.19-22.29,20.84,22.31Zm38.5,6.61-18.33,20.23-18.92-20.25Zm-16.69-30.68,19.92-22h1.53v45Zm-1.64-1.76-18.92-20.25,37.25,0Zm20.86-26.81-41,0,20.19-22.28Zm-19.22-24.09,19.92-22h1.53v45ZM3914,1239.93v-43.52l20,21.43Zm20,30.58-20,22.09v-43.52Zm0,52.66-20,22.09v-43.52Zm0,52.66-20,22.09V1354.4Zm0,52.67-20,22.09v-43.52Zm0,52.66-20,22.09v-43.52Zm-17.3,30.63,37.25,0L3935.67,1532Zm17.3,22-20,22.1V1512.4Zm23.18-22h1.53v45l-21.45-23Zm-21.56-295.75-18.92-20.25,37.25,0Zm0,319.52,20.84,22.31-41,0Zm-21-346.36,21-23.19,21.68,23.21Zm-.65,403.36v-28.13l44.72,0v28.1Zm44.72-405.36-21.45-23,19.94-22h1.51v45Zm0-52.69-21.45-23,19.92-22h1.53v45Zm0-633.77-21.45-23,.91-1h20.54ZM3985.29,395l21.12,19.13v.2h-21.12Z"/><path class="cls-2" d="M2967.49,686.73c0-15,.37-37.41,3-43.67a8.14,8.14,0,0,1,6.07-4.87l41,0,111.76-97.91a11.85,11.85,0,0,1,22.24.31l287.64,105.06h70.62a11,11,0,0,1,6.57,2.17l39,28.91a3.14,3.14,0,0,1,1.26,2.51v.51a3.12,3.12,0,0,1-3.12,3.11h-29.69a6.63,6.63,0,0,1,1.42,12.49l24,35.41-.51,1.25-24.52-36.26a6.7,6.7,0,0,1-1.74.24h-17.16a6.73,6.73,0,0,1-2.12-.35L3478.5,732l-.51-1.25,24.06-35.58a6.64,6.64,0,0,1,1.77-12.32H3177.76c0,.14,0,.28-.07.42l-4.59,19.69h0l.3,1.19h-.06l1.55,6.13H3176c.54,0,.54,4.82,0,4.82h-15.68v669.2h15.06v24.07h31.05V1438H3077.82v-29.68h31v-24.07h14.28V715.08H3111c-.54,0-.54-4.82,0-4.82h1.48v-6.13h-.1v-1.19h.1V682.83h-79.7v8.54h-65.24C2966.21,691.37,2966.21,686.74,2967.49,686.73Zm290.2-11.15,12.57-11.39-12.59-11.75Zm13.64-12.36,13.7-12.41h-27Zm17.94,12.36,12.57-11.39-12.58-11.75Zm-4-23.09-12.93,11.72,12.94,12.09Zm17.6,10.73,13.7-12.41h-27Zm18,12.36,12.57-11.39-12.58-11.75Zm-4-23.09L3304,664.21l12.94,12.09Zm17.6,10.73,13.7-12.41h-27Zm17.94,12.36L3365,664.19l-12.58-11.75Zm-4-23.09-12.93,11.72,12.94,12.09Zm17.6,10.73,13.7-12.41h-27Zm18,12.36,12.57-11.39L3384,652.44Zm-4-23.09-12.93,11.72,12.94,12.09Zm17.6,10.73,13.7-12.41h-27Zm49.53,12.36,12.57-11.39-12.58-11.75Zm-4-23.09-12.93,11.72,12.94,12.09Zm-.29-1.68h-27l13.28,12.41Zm-27.35,1.63,0,23.14,12.57-11.39Zm-3.95,0-12.93,11.72,13,12.09Zm49.19,10.73,13.7-12.41h-27Zm17.95,12.36,12.57-11.39-12.59-11.75Zm-4-23.09-12.93,11.72,13,12.09Zm17.6,10.73,13.7-12.41h-27Zm1.06,1,12.94,12.09V652.49Zm-1.07,1-13.62,12.34v.12h27Zm-31.58,0-13.63,12.34v.12h27Zm-31.59,0-13.62,12.34v.12h27Zm-31.59,0L3384,677.52v.12h27Zm-31.58,0-13.62,12.34v.12h27Zm-31.59,0-13.62,12.34v.12h27Zm-31.58,0-13.63,12.34v.12h27Zm-31.59,0-13.62,12.34v.12h27Zm-17.59-12.69-12.93,11.72,12.95,12.09Zm-.28-1.68h-27l13.29,12.41Zm-216.85,24.77,12.57-11.39-12.58-11.75Zm13.64-12.36,13.7-12.41h-27Zm17.94,12.36,8.83-8,3.74-3.39-12.58-11.75Zm-4-23.09-12.93,11.72,12.94,12.09Zm17.6,10.73,13.7-12.41h-27Zm14-10.73-12.93,11.72,12.94,12.09Zm33.14-27.15L3140,640h.46L3152,625.32Zm21.76-4.87-10.28-16.67-10.59,16.68Zm12.23,49.66.06.27h0l-.08-.38Zm.44,2h0l.55,2.61,0,0Zm10.76-6.65,1.37-1.25-2.53-2.36Zm-8.84,12.2a3.93,3.93,0,0,1-1-1.37h0a4,4,0,0,0,1,1.36Zm-52.86-26.83h-12.32l12.32,11.51Zm25.4-10.82-9.51-12.54-.81,12.54Zm1.56-37.86-8.55-13.88-2,30.42Zm.33-35.69-7.53,15.39h16l-7.31-15.38ZM3132,586.69l8.5,13.78,8.76-13.79Zm5.8-20.25h-5.51l-.83,12.95Zm5.09,0,6.66,14-.92-14Zm7.2,22.23-8.56,13.47,10.57,17.14Zm2.54,38.72-9.84,12.6h10.67ZM3172.06,659l4.51,4.2,13.7-12.41h-20.85Zm22.46,16.56,12.57-11.39-12.59-11.75Zm-4-23.09-12.93,11.72,13,12.09Zm17.6,10.73,13.7-12.41h-27Zm14-10.73-12.93,11.72,12.94,12.09Zm4,0v23.14l12.57-11.39Zm-18,12.74-13.62,12.34v.12h27Zm-31.58,0-1.95,1.76,2.72,8.43a16,16,0,0,1,.55,2.27h12Zm-76.81-12.74v23.14l12.57-11.39Zm-17.95,12.74-13.62,12.34v.12h27Zm-31.59,0-13.62,12.34v.12h27Zm-30.43-27H3029a3.72,3.72,0,0,1,3.72,3.72v3.75h79.7v-1.71a3.92,3.92,0,0,1,3.92-3.92h8.33l4.73-73.54h-.23a.72.72,0,0,1-.72-.72v-.59h0V544.53a11.38,11.38,0,0,1,.13-1.66Zm132.41-93.65v21.2a.71.71,0,0,1-.59.7l-.13,0h-.07l4.83,73.56h6.85a3.92,3.92,0,0,1,3.73,2.72l.92,2.91h224.14L3152.16,544C3152.17,544.2,3152.19,544.35,3152.19,544.51Zm3.62-.78,240,101.89h38.92Zm360.62,109.19a11.86,11.86,0,0,0-6.07-2.08v26.8h41.57Zm-263.36,24.72-13.34-12.46-13.63,12.34v.12h27Zm-109.34,37.44-.57.62,12,13.25V715.08Zm10.55,332-12.11-13.37-12.5,13.38Zm-13.08-14.44-11.94-13.18h-.92v27Zm13.08-17.15-12.11-13.36-12.5,13.37Zm-23.09,4,11,12.13,11.35-12.15Zm10-18.4-11.94-13.19h-.92v27Zm13.08-17.15-12.11-13.37-12.5,13.38Zm-23.09,4,11,12.13,11.35-12.14Zm10-18.4-11.94-13.19h-.92v27Zm13.08-17.15-12.11-13.37-12.5,13.38Zm-23.09,4,11,12.14,11.35-12.15Zm10-18.39-11.94-13.19h-.92v27Zm13.08-17.16-12.11-13.36-12.5,13.38Zm-23.09,4,11,12.13,11.35-12.14Zm10-18.4-11.94-13.19h-.92v27Zm13.08-17.15-12.11-13.37-12.5,13.38Zm-23.09,4,11,12.14,11.35-12.15Zm10-18.39-11.94-13.19h-.92v27Zm13.08-17.16-12.11-13.36-12.5,13.38Zm-23.09,4,11,12.13,11.35-12.15Zm10-18.4-11.94-13.19h-.92v27ZM3154.28,826l-12.11-13.37L3129.67,826Zm-23.09,4,11,12.14,11.35-12.15Zm10-18.4-11.94-13.18h-.92v27Zm13.08-17.15L3142.17,781l-12.5,13.38Zm-23.09,4,11,12.13,11.35-12.15Zm10-18.4-11.94-13.19h-.92v27Zm1-1.06,11.35-12.14h-22.35Zm12.58-16.09-12.6-13.91-13,13.92Zm.39-1.71V735l-12,12.86Zm-12,18.87,12,13.25V767.1Zm0,31.59,12,13.25v-26.1Zm0,31.58,12,13.25v-26.1Zm0,31.59,12,13.25v-26.1Zm0,31.59,12,13.24v-26.1Zm0,31.58,12,13.25V925Zm0,31.59,12,13.25V956.61Zm0,31.58,12,13.25V988.2Zm0,31.59,12,13.25v-26.1Zm10.38,18.37h-22.35l11,12.13Zm-10.38,13.21,12,13.25v-26.1Zm-13.9-13.2h-.92v27l12.86-13.77Zm11.94-303.21-11.94-13.18h-.92v27Zm1-1,11.35-12.15h-22.35Zm12.09,331.88-12.11-13.36-12.5,13.38Zm-23.09,4,11,12.13,11.35-12.15Zm23.58-351.95-12.6-13.91-13,13.92Zm.39,352.3-12,12.85,12,13.25V1083Zm-.88,27.27-12.11-13.37-12.5,13.38Zm-23.1,4,11,12.15,11.36-12.16Zm24,.37-12,12.85,12,13.25v-26.1Zm-.88,217.32-12.11-13.36-12.5,13.38Zm-13.08-14.43-11.94-13.19h-.92v27Zm13.08-17.15-12.11-13.37-12.5,13.38Zm-23.09,4,11,12.13,11.35-12.14Zm10-18.4-11.94-13.18h-.92v27Zm13.08-17.15-12.11-13.36-12.5,13.37Zm-23.09,4,11,12.14,11.35-12.15Zm10-18.39-11.94-13.19h-.92v27Zm13.08-17.15-12.11-13.37-12.5,13.38Zm-23.09,4,11,12.13,11.35-12.14Zm10-18.4-11.94-13.19h-.92v27Zm13.08-17.15-12.11-13.37-12.5,13.38Zm-23.09,4,11,12.14,11.35-12.15Zm10-18.39-11.94-13.19h-.92v27Zm1-1.06,11.35-12.14h-22.35ZM3129.67,1174l24.61,0-12.11-13.36Zm11.53-14.45-11.94-13.19h-.92v27Zm14,13.26v-26.1l-12,12.85Zm-12,18.34,12,13.25v-26.1Zm0,31.59,12,13.25v-26.11Zm0,31.58,12,13.25v-26.1Zm0,31.59,12,13.25V1273Zm0,31.58,12,13.25v-26.1Zm10.38,18.37-22.35,0,11,12.13Zm-10.38,13.22,12,13.25v-26.1Zm-13.9-13.2h-.92v27L3141.2,1349Zm12.93-177.38,11.35-12.15h-22.35Zm0,191.63-12.5,13.38h24.61Zm12.6-207.73-12.6-13.91-13,13.92Zm.39,241.91v-16.86h-26.82v16.85Zm-26.82-243.11,12.86-13.78-12-13.2h-.9v27Zm0-31.6,12.86-13.78-11.94-13.18h-.92v27Zm0-380.11,12.86-13.77-.54-.61h-12.32ZM3112.43,666l-12.67,11.48v.12h12.67Z"/><polygon class="cls-3" points="3520.95 779.94 3521.03 1981.03 3521.03 1981.8 4248.96 1981.8 4248.93 779.94 3520.95 779.94"/><path class="cls-4" d="M4372.42,1023.19H3394.89v729c.15,0,.15.56.15.56h977.45ZM3559,1654.33h-79v-83h79Zm0-242h-79v-83h79Zm0-242h-79v-83h79Zm245,484.07h-79v-83h79Zm0-242h-79v-83h79Zm0-242h-79v-83h79Zm239.72,484.07h-79v-83h79Zm0-242h-79v-83h79Zm0-242h-79v-83h79Zm244.85,484.07h-79v-83h79Zm0-242h-79v-83h79Zm0-242h-79v-83h79Z"/><rect class="cls-5" x="3389.78" y="528.02" width="23.01" height="1453.77"/><rect class="cls-5" x="3631.31" y="528.02" width="23.01" height="1453.77"/><rect class="cls-5" x="3872.84" y="528.02" width="23.01" height="1453.77"/><rect class="cls-5" x="3398.28" y="1741.24" width="969.13" height="23.01"/><rect class="cls-5" x="3398.28" y="1498.05" width="969.13" height="23.01"/><rect class="cls-5" x="3398.28" y="1254.87" width="969.13" height="23.01"/><rect class="cls-5" x="3398.28" y="1011.68" width="969.13" height="23.01"/><rect class="cls-5" x="3394.76" y="768.5" width="972.65" height="23.01"/><rect class="cls-5" x="4114.38" y="528.02" width="23.01" height="1453.77"/><rect class="cls-5" x="4355.91" y="528.02" width="23.01" height="1453.77"/><polygon class="cls-5" points="2634.23 1972.31 2634.26 863.74 3377.56 863.74 3377.53 1229.43 3468.6 1229.43 3468.6 1424.09 3553.25 1424.5 3553.18 1971.99 2634.23 1972.31"/><rect class="cls-6" x="3459.45" y="670.84" width="17.62" height="1301.47" transform="translate(6936.51 2643.15) rotate(180)"/><rect class="cls-6" x="3274.5" y="670.84" width="17.62" height="1301.47" transform="translate(6566.62 2643.15) rotate(180)"/><rect class="cls-6" x="3089.56" y="670.84" width="17.62" height="1301.47" transform="translate(6196.73 2643.15) rotate(180)"/><rect class="cls-6" x="3000.19" y="1331.45" width="17.62" height="930.94" transform="translate(4805.92 -1212.08) rotate(90)"/><rect class="cls-6" x="3000.19" y="1145.24" width="17.62" height="930.94" transform="translate(4619.71 -1398.29) rotate(90)"/><rect class="cls-6" x="3000.19" y="959.03" width="17.62" height="930.94" transform="translate(4433.49 -1584.5) rotate(90)"/><rect class="cls-6" x="3000.19" y="772.82" width="17.62" height="930.94" transform="translate(4247.28 -1770.72) rotate(90)"/><rect class="cls-6" x="3000.19" y="586.61" width="17.62" height="930.94" transform="translate(4061.07 -1956.93) rotate(90)"/><rect class="cls-6" x="2909.02" y="491.57" width="17.62" height="748.59" transform="translate(3783.69 -2051.96) rotate(90)"/><polygon class="cls-6" points="3107.17 670.84 3107.17 688.46 2922.23 688.46 2922.23 1972.31 2904.61 1972.31 2904.61 688.46 2737.28 688.46 2737.28 1972.31 2719.67 1972.31 2719.67 688.46 2552.34 688.46 2552.34 1972.31 2534.72 1972.31 2534.72 670.84 3107.17 670.84"/><ellipse class="cls-6" cx="3488.51" cy="2604.7" rx="342.37" ry="15.67"/><ellipse class="cls-6" cx="3207.66" cy="2235.24" rx="428.11" ry="15.67"/><path class="cls-1" d="M4175.1,1978.75l-63.27-148h-18.06v0h1.45v-20h-29.69V1342.25h11.4v-13.63h68.13v-15.11h-4v-74.77h-12.47a5.45,5.45,0,0,0,.12-1.39,8.5,8.5,0,0,0-8.55-8.55,10.94,10.94,0,0,0-1.26.12v-.05l-59.67-77.16a10.17,10.17,0,0,0,1.32-2.56l9.85,1.78a26.19,26.19,0,0,0,10.3,14.23,27,27,0,0,0,9.18,4l9.62,2.52,38.59,9.65.05-.2h0v0l.12,0c2.64-12.3,5.4-24.55,7.73-36.93a25.55,25.55,0,0,0-6.18-17.56,25.83,25.83,0,0,0-16.4-8.86h0l-46.91-9.86-.19,0,0,.19-3.42,17.7-28.39-5.9a15.14,15.14,0,0,0,.31-3.44,14.85,14.85,0,0,0-4.68-10.44,14.57,14.57,0,0,0-10.69-4.07,14.81,14.81,0,0,0-8.58,3L3878,950.8l-.72.66a10.15,10.15,0,0,0,1.3-6.75,10.93,10.93,0,0,0-3.78-6.33l-.1.12-1.35-1.17-.09-.09h0l-54.9-48.16-164.19,89.1-16.07,3-1.65.31,2.27,7.57,1.44-.43,0,.15,17.79-3.34,1.91,3.77v165.33h3V995.13l.15.29h0a15.8,15.8,0,0,0,11.49,7.58c4.83.85,9.5-1.67,12.82-4.91,6.35-7,15-11.15,23.85-14.19s18.14-4.52,27.39-6.15l27.68-5,57-10.7a13.91,13.91,0,0,0,4.21,11.66,13.28,13.28,0,0,0,3.66,2.5,8.85,8.85,0,0,0-.62,3.24,8.55,8.55,0,0,0,4,7.23l-3.17.72h0l-5.73,1.25,150.72,317.67v.74h0v21.42h0v.3h8.84v13.48h13.1v468.46h-33.79v20H3966v0h-16.68l-63.27,148h-20.29v8.37h71v-8.37H3926l19.39-45.33h67.18v45.33h-16.25v8.37h71v-8.37h-16.26v-45.33h64.6l19.39,45.33h-8.68v8.37h71v-8.37Zm-157.71-168,13.76-17,13.09,17Zm14.37,60.15a10.26,10.26,0,1,1,10.23-10.29A10.24,10.24,0,0,1,4031.76,1870.86Zm11.5,33.54a11.5,11.5,0,1,1-11.5-11.5A11.5,11.5,0,0,1,4043.26,1904.4Zm-11.5,33.83a13.49,13.49,0,1,1-13.49,13.49A13.5,13.5,0,0,1,4031.76,1938.23Zm16.29-127.52-15-19.36,25.27-31.12v50.48Zm-39.55-59.08,23.35-29.49,23.34,29.49Zm25.27-31.92,24.6-31.06v62.13ZM4008.5,1680l23.35-29.49,23.34,29.49Zm46.69,7.78-23.34,29.49-23.35-29.49Zm-21.42-39.7,24.6-31.07v62.14Zm-25.27-39.7,23.35-29.49,23.34,29.49Zm46.7,7.78-23.35,29.49-23.35-29.49Zm-21.43-39.7,24.6-31.07v62.14Zm-25.27-39.7,23.35-29.49,23.34,29.49Zm46.7,7.78-23.35,29.5-23.35-29.5Zm-21.43-39.69,24.6-31.07v62.14Zm-25.27-39.7,23.35-29.49,23.35,29.49Zm46.69,7.78-23.34,29.49L4008.5,1473Zm-21.42-39.7,24.6-31.07v62.14Zm21.43-31.92-23.35,29.49-23.35-29.49Zm-25.28,31.92-24.47,30.91v-61.82Zm0,71.62-24.47,30.91V1474Zm0,71.61-24.47,30.92v-61.83Zm0,71.62L4005.45,1679v-61.82Zm0,71.61-24.47,30.92V1688.8Zm-21.59-326.16,23.58-32.5,23.45,32.5Zm46.82,365.87-23.94,29.48-22.76-29.48Zm3.22-366.86-24.6-34.08,11.77-16.23h12.83Zm-59.18-161.49,1.33.27-12.7,0,1.85-.27-4.61-31.52,28.38-36.91Zm4.55.27,5.76-27.62,25.53,4.81-4.7,22.54,1.13.23Zm31.9-25.76-25.53-4.81,8.16-39.11,25.52,4.81Zm8.77-42-25.53-4.82.89-4.28,8.53-11.09,12.3,2.22a1.36,1.36,0,0,0,0,.2,10.31,10.31,0,0,0,5.62,9.16ZM3828.26,945.64l-8.72-48.83,47.27,41.63Zm-3,.56L3735.17,963l-3.79-21.18,84.93-46Zm-93.09,17.39-62.45,11.67,58.83-31.88Zm309.61,378.66-9.9,13.66-9.86-13.66Zm69.82-104.9a9.33,9.33,0,0,0,.13,1.39h-33.72v0h-3v0h-39.18v-7.45h-1l15.69-75.27.29,0a10.34,10.34,0,0,0,4.67-1.12l58.93,76.1A8.34,8.34,0,0,0,4111.64,1237.35ZM3846.07,974.24a13.49,13.49,0,0,0,3.6-4.68,13.93,13.93,0,0,0-.29-12.41l9.28-1.74,140.15,169.64-31.54,28.8L3855.74,981.93l-2.7.57,0,0-6.44,1.45a8.5,8.5,0,0,0-.5-9.66Zm130.27,324.88,0,.06V1304h0Zm42,43.13,11.71,16.23-24.6,33.92v-50.15Zm-12.89,418.21,23.81,30.85-15.75,19.4h-8.06Zm-7.83,159h-46.24l25.41-59.48h35.82v59.48Zm100.3,0h-46.78V1860h33.23l25.41,59.48Z"/><path class="cls-1" d="M3664.3,1154.57h-5.45v0h-3v28h1.51v0H3659v5.62h-1.1v3h.51l.06.41a11.62,11.62,0,0,0,.64,2,18.54,18.54,0,0,0,1.82,3.2c1.62,2.22,2.43,2.59,2.12,4.18a3.19,3.19,0,0,1-3.46,2.54c-1.74-.28-3-2.31-3.67-4.28.22,2,.77,4.52,3.19,5.71s5.5-.36,6.74-2.85a6,6,0,0,0,.4-4.33c-.58-1.61-1-2.21-1.37-3.16a12.84,12.84,0,0,1-.75-2.59,6.09,6.09,0,0,1-.06-.82h.7v-3h-1v-5.62h2v0h1.47v-28h-3Z"/><path class="cls-7" d="M3392,2235.23l-404.44-6.35a88.1,88.1,0,0,1-86.71-89.44l15.51-1013.93a88.11,88.11,0,0,1,89.48-86.75l404.43,6.34a88.13,88.13,0,0,1,86.72,89.45l-15.51,1013.93A88.11,88.11,0,0,1,3392,2235.23Z"/><path class="cls-2" d="M3407.23,1080.6l-78.41-1.23c-10.52-.17-19.18,8.61-19.35,19.6l-.22,14.23c-.16,11-8.83,19.77-19.34,19.6l-152.85-2.4c-10.51-.16-18.9-9.21-18.73-20.2l.22-14.22c.16-11-8.23-20-18.74-20.21l-27.58-.43-68.63-1.08a61.71,61.71,0,0,0-62.66,60.76l-15.14,989.67a61.7,61.7,0,0,0,60.73,62.64l403.63,6.33a61.69,61.69,0,0,0,62.66-60.75L3468,1143.24A61.7,61.7,0,0,0,3407.23,1080.6Z"/><polygon class="cls-1" points="3412.58 1439.88 3401.44 1919.59 2985.34 1909.93 2999.2 1312.72 3291.34 1319.5 3412.58 1439.88"/><polygon class="cls-7" points="3412.58 1439.88 3288.61 1437 3291.34 1319.5 3412.58 1439.88"/><path class="cls-7" d="M3048.81,1483.34c25.86-.28,51.71-.1,77.56.15s51.69.88,77.54,1.3c25.84.77,51.68,1.35,77.51,2.29l38.75,1.51c12.92.65,25.83,1.16,38.74,2-12.93.19-25.86.1-38.79.16l-38.77-.3c-25.85-.26-51.69-.87-77.54-1.3-25.84-.78-51.68-1.35-77.52-2.31S3074.63,1484.83,3048.81,1483.34Z"/><path class="cls-7" d="M3048,1519.68c25.87-.29,51.72-.11,77.57.14s51.69.88,77.54,1.3c25.83.77,51.68,1.35,77.51,2.29l38.75,1.51c12.91.65,25.83,1.16,38.74,1.95-12.93.19-25.86.1-38.79.16l-38.78-.3c-25.85-.25-51.69-.87-77.53-1.3-25.84-.78-51.69-1.35-77.52-2.3S3073.78,1521.16,3048,1519.68Z"/><path class="cls-6" d="M3041.22,1810.32c25.86-.29,51.71-.11,77.56.15s51.69.87,77.54,1.29c25.84.77,51.68,1.36,77.51,2.3l38.75,1.5c12.92.66,25.83,1.17,38.74,2-12.93.19-25.86.1-38.79.15l-38.77-.29c-25.85-.26-51.69-.88-77.54-1.31-25.84-.78-51.68-1.35-77.52-2.3S3067,1811.81,3041.22,1810.32Z"/><path class="cls-6" d="M3040.37,1846.65c25.87-.29,51.72-.11,77.57.15s51.69.87,77.54,1.29c25.83.77,51.68,1.36,77.51,2.3l38.75,1.5c12.91.66,25.83,1.17,38.74,2-12.93.19-25.86.1-38.79.15l-38.78-.29c-25.85-.26-51.69-.88-77.53-1.31-25.84-.78-51.68-1.35-77.52-2.3S3066.19,1848.14,3040.37,1846.65Z"/><path class="cls-6" d="M3041.22,1964.76c25.86-.29,51.71-.11,77.56.15s51.69.87,77.54,1.29c25.84.77,51.68,1.35,77.51,2.3l38.75,1.5c12.92.66,25.83,1.17,38.74,2-12.93.18-25.86.09-38.79.15l-38.77-.3c-25.85-.25-51.69-.87-77.54-1.3-25.84-.78-51.68-1.35-77.52-2.3S3067,1966.25,3041.22,1964.76Z"/><path class="cls-6" d="M3040.37,2001.09c25.87-.29,51.72-.11,77.57.15s51.69.87,77.54,1.29c25.83.77,51.68,1.35,77.51,2.3l38.75,1.5c12.91.66,25.83,1.17,38.74,2-12.93.18-25.86.09-38.79.15l-38.78-.29c-25.85-.26-51.69-.88-77.53-1.31-25.84-.78-51.68-1.35-77.52-2.3S3066.19,2002.58,3040.37,2001.09Z"/><path class="cls-6" d="M3041.22,2033.51c25.86-.29,51.71-.11,77.56.15s51.69.88,77.54,1.29c25.84.77,51.68,1.36,77.51,2.3l38.75,1.5c12.92.66,25.83,1.17,38.74,2-12.93.19-25.86.1-38.79.15l-38.77-.29c-25.85-.26-51.69-.88-77.54-1.31-25.84-.78-51.68-1.35-77.52-2.3S3067,2035,3041.22,2033.51Z"/><path class="cls-6" d="M3040.37,2069.84c25.87-.29,51.72-.11,77.57.15s51.69.88,77.54,1.3c25.83.76,51.68,1.35,77.51,2.29l38.75,1.5c12.91.66,25.83,1.17,38.74,2-12.93.19-25.86.1-38.79.15l-38.78-.29c-25.85-.26-51.69-.88-77.53-1.31-25.84-.78-51.68-1.34-77.52-2.3S3066.19,2071.33,3040.37,2069.84Z"/><polygon class="cls-6" points="3312.43 1641.06 3215.91 1558.23 3142.18 1609.67 3152.24 1735.19 3309.01 1740.58 3312.43 1641.06"/><polygon class="cls-2" points="3175.74 1639.25 3139.37 1609.58 3101.05 1636.68 3097.73 1733.31 3172.41 1735.88 3175.74 1639.25"/><path class="cls-1" d="M3138.31,1640.51h0a17.76,17.76,0,0,1,17.13,18.35l-1.59,46.2-35.48-1.22,1.59-46.2a17.75,17.75,0,0,1,18.35-17.13Z"/><path class="cls-1" d="M3276,1661h0a17.76,17.76,0,0,1,17.13,18.36l-1.59,46.19-35.48-1.22,1.59-46.2A17.75,17.75,0,0,1,3276,1661Z"/><path class="cls-1" d="M3215.47,1586.22h0a17.74,17.74,0,0,1,17.13,18.35l-1,29.88-35.48-1.22,1-29.88a17.77,17.77,0,0,1,18.35-17.13Z"/><rect class="cls-7" x="3193.34" y="1640.93" width="19.42" height="211.44" transform="translate(1347.31 4887.76) rotate(-88.03)"/><rect class="cls-7" x="3088.7" y="1690.81" width="24.2" height="3.33" transform="translate(1302.72 4733.25) rotate(-88.03)"/><rect class="cls-7" x="3160.06" y="1693.27" width="24.2" height="3.33" transform="translate(1369.17 4806.94) rotate(-88.03)"/><rect class="cls-7" x="3094.64" y="1692.01" width="24.2" height="1.35" transform="translate(1308.26 4739.39) rotate(-88.03)"/><rect class="cls-7" x="3100.59" y="1692.21" width="24.2" height="1.35" transform="translate(1313.79 4745.53) rotate(-88.03)"/><rect class="cls-7" x="3106.54" y="1692.42" width="24.2" height="1.35" transform="matrix(0.03, -1, 1, 0.03, 1319.33, 4751.67)"/><rect class="cls-7" x="3112.48" y="1692.62" width="24.2" height="1.35" transform="translate(1324.87 4757.82) rotate(-88.03)"/><rect class="cls-7" x="3136.01" y="1670.04" width="1.35" height="70.21" transform="translate(1324.7 4781.34) rotate(-88.03)"/><rect class="cls-7" x="3136.79" y="1647.2" width="1.35" height="70.21" transform="translate(1348.29 4760.07) rotate(-88.03)"/><rect class="cls-7" x="3118.43" y="1692.83" width="24.2" height="1.35" transform="translate(1330.41 4763.96) rotate(-88.03)"/><rect class="cls-7" x="3124.38" y="1693.03" width="24.2" height="1.35" transform="matrix(0.03, -1, 1, 0.03, 1335.94, 4770.1)"/><rect class="cls-7" x="3130.32" y="1693.23" width="24.2" height="1.35" transform="matrix(0.03, -1, 1, 0.03, 1341.48, 4776.24)"/><rect class="cls-7" x="3136.27" y="1693.44" width="24.2" height="1.35" transform="translate(1347.02 4782.38) rotate(-88.03)"/><rect class="cls-7" x="3142.22" y="1693.64" width="24.2" height="1.35" transform="translate(1352.56 4788.52) rotate(-88.03)"/><rect class="cls-7" x="3148.16" y="1693.85" width="24.2" height="1.35" transform="translate(1358.09 4794.66) rotate(-88.03)"/><rect class="cls-7" x="3154.11" y="1694.05" width="24.2" height="1.35" transform="translate(1363.63 4800.8) rotate(-88.03)"/><rect class="cls-2" x="3192.82" y="1670.47" width="36.55" height="86.15" transform="translate(60.81 -109.39) rotate(1.97)"/><circle class="cls-8" cx="3223.7" cy="1714.79" r="2.76"/><polygon class="cls-7" points="3179.6 1644.6 3139.3 1611.71 3096.83 1641.75 3094.87 1638.97 3139.45 1607.44 3181.75 1641.96 3179.6 1644.6"/><polygon class="cls-7" points="3320.66 1648.12 3215.91 1558.23 3140.34 1610.97 3138.4 1608.18 3216.13 1553.93 3322.87 1645.54 3320.66 1648.12"/><path class="cls-2" d="M3085.51,1730.17c7.65-5,9.68-14.61,9.69-23.33,0-1.46.21-3-.44-4.29a3,3,0,0,0-3.56-1.66c-1.09.47-1.61,1.72-2.25,2.73a8.56,8.56,0,0,1-3.52,3.15,3.26,3.26,0,0,1-3,.16c-1.23-.73-1.32-2.47-1.26-3.92l.33-8.09a13.54,13.54,0,0,0-.29-4.31,4.46,4.46,0,0,0-2.72-3.13,2.72,2.72,0,0,0-3.43,1.71,13.39,13.39,0,0,0-.1,1.8,1.52,1.52,0,0,1-.94,1.4,1.76,1.76,0,0,1-1.57-.72,19.26,19.26,0,0,1-3.27-5.33,26.52,26.52,0,0,0-3-5.5,7.82,7.82,0,0,0-5.2-3.15,4.67,4.67,0,0,0-4.91,3c-.6,2,.52,4.13,1.76,5.83a32.73,32.73,0,0,0,6.5,6.64,2.68,2.68,0,0,1,1.09,1.25c.28,1-.67,1.9-1.63,2.18a16.63,16.63,0,0,1-3.39.27,3.27,3.27,0,0,0-2.84,1.6c-.64,1.46.54,3,1.72,4.11a27.71,27.71,0,0,0,8,5,9.13,9.13,0,0,1,3,1.58,2.68,2.68,0,0,1,.76,3.1,2.75,2.75,0,0,1-3,1,19.48,19.48,0,0,1-3.13-1.33c-2-.82-4.54-.77-5.87.91a4.59,4.59,0,0,0-.63,4,10.69,10.69,0,0,0,2.07,3.65,27.87,27.87,0,0,0,11.6,8.76c4.55,1.76,8.81,2.34,13.46.82"/><path class="cls-2" d="M3058.19,1678.81s0,0,.13.14l.42.4c.37.34.91.86,1.59,1.54a54,54,0,0,1,5.32,6.15c1,1.38,2.1,2.94,3.21,4.63s2.29,3.51,3.46,5.47a66.6,66.6,0,0,1,3.35,6.31c.52,1.12,1,2.3,1.45,3.5l1.41,3.64a131.92,131.92,0,0,1,4.68,14.1,64.56,64.56,0,0,1,2,12,46.72,46.72,0,0,1-.15,8.17c-.1,1-.2,1.71-.29,2.21,0,.24-.06.43-.09.58s0,.19,0,.19-1.24,8.7.05-.19c0-.14.07-.33.11-.57.11-.5.22-1.24.35-2.2a45.75,45.75,0,0,0,.23-8.21,63.86,63.86,0,0,0-2-12,129.22,129.22,0,0,0-4.66-14.14l-1.42-3.64c-.46-1.2-.93-2.38-1.45-3.51a65.86,65.86,0,0,0-3.38-6.33c-1.18-2-2.36-3.77-3.48-5.46s-2.21-3.25-3.25-4.62a51.66,51.66,0,0,0-5.4-6.12c-.69-.67-1.25-1.17-1.63-1.5l-.43-.38Z"/><path class="cls-2" d="M3075.83,1703.33a2.81,2.81,0,0,0,.17-.62c.09-.39.2-1,.32-1.69.26-1.43.54-3.43.85-5.62s.61-4.18.89-5.61c.13-.71.25-1.29.33-1.69a2.78,2.78,0,0,0,.1-.62,4.58,4.58,0,0,0-.2.6c-.11.39-.26,1-.42,1.67-.32,1.42-.66,3.41-1,5.61s-.56,4.13-.76,5.63c-.1.68-.18,1.25-.25,1.7A4.79,4.79,0,0,0,3075.83,1703.33Z"/><path class="cls-2" d="M3057.35,1699.21a3.52,3.52,0,0,0,.74.11c.47.06,1.16.14,2,.27,1.7.24,4,.66,6.59,1.23s4.84,1.2,6.48,1.7c.83.24,1.49.46,1.94.6a5.78,5.78,0,0,0,.72.21,3.16,3.16,0,0,0-.68-.31c-.45-.17-1.1-.42-1.92-.68-1.63-.55-3.92-1.2-6.49-1.78s-4.9-1-6.61-1.16c-.86-.1-1.55-.16-2-.18A3.32,3.32,0,0,0,3057.35,1699.21Z"/><path class="cls-2" d="M3083.23,1724.28a1,1,0,0,0,.13-.22c.09-.18.21-.4.34-.67.3-.57.7-1.42,1.19-2.47,1-2.1,2.22-5,3.55-8.31s2.56-6.22,3.48-8.34l1.11-2.5c.12-.27.21-.5.29-.68a.84.84,0,0,0,.09-.25,1,1,0,0,0-.13.22l-.35.66c-.29.58-.69,1.42-1.18,2.48-1,2.1-2.22,5-3.55,8.31s-2.56,6.21-3.49,8.33l-1.1,2.51-.3.68A.86.86,0,0,0,3083.23,1724.28Z"/><path class="cls-2" d="M3058.78,1715.46a.86.86,0,0,0,.24.11l.71.26,2.62,1c2.21.81,5.25,2,8.61,3.21s6.41,2.39,8.64,3.14c1.11.38,2,.68,2.64.87l.73.22a.77.77,0,0,0,.26.06.85.85,0,0,0-.25-.11l-.7-.27-2.62-1c-2.21-.8-5.25-1.94-8.61-3.21s-6.41-2.38-8.64-3.14c-1.11-.38-2-.67-2.65-.86l-.72-.22A.88.88,0,0,0,3058.78,1715.46Z"/><path class="cls-2" d="M3321.81,1738.3c-7.3-5.48-8.66-15.24-8.07-23.94.1-1.46,0-3,.73-4.25s2.38-2.07,3.66-1.41c1.07.55,1.5,1.82,2.06,2.88a8.65,8.65,0,0,0,3.3,3.38,3.26,3.26,0,0,0,3,.37c1.28-.65,1.49-2.38,1.53-3.83.07-2.7.15-5.39.23-8.09a13.38,13.38,0,0,1,.58-4.28,4.5,4.5,0,0,1,2.93-2.94,2.71,2.71,0,0,1,3.3,1.94,13.54,13.54,0,0,1,0,1.8,1.54,1.54,0,0,0,.84,1.47,1.76,1.76,0,0,0,1.62-.61,19.3,19.3,0,0,0,3.63-5.1,26.71,26.71,0,0,1,3.41-5.27,7.81,7.81,0,0,1,5.4-2.79,4.67,4.67,0,0,1,4.69,3.36c.46,2.06-.8,4.09-2.15,5.69a32.17,32.17,0,0,1-6.95,6.18,2.7,2.7,0,0,0-1.17,1.17c-.34,1,.54,2,1.48,2.3a17.13,17.13,0,0,0,3.36.49,3.28,3.28,0,0,1,2.72,1.8c.54,1.5-.75,3-2,4a27.41,27.41,0,0,1-8.35,4.44,9.38,9.38,0,0,0-3.09,1.38,2.67,2.67,0,0,0-1,3,2.76,2.76,0,0,0,2.93,1.25,19.17,19.17,0,0,0,3.22-1.11c2-.68,4.57-.45,5.79,1.31a4.56,4.56,0,0,1,.35,4.06,10.53,10.53,0,0,1-2.32,3.51,28,28,0,0,1-12.17,7.94c-4.67,1.44-8.95,1.72-13.48-.11"/><path class="cls-2" d="M3352.59,1688.93s0,0-.14.14l-.45.36c-.39.33-1,.8-1.69,1.43a54.68,54.68,0,0,0-5.73,5.78c-1.12,1.3-2.29,2.78-3.52,4.39s-2.53,3.35-3.82,5.23a66.11,66.11,0,0,0-3.79,6.06c-.59,1.08-1.13,2.22-1.68,3.39s-1.1,2.34-1.66,3.53a132.5,132.5,0,0,0-5.63,13.75,64.85,64.85,0,0,0-2.82,11.79,47.4,47.4,0,0,0-.42,8.17c0,1,.09,1.72.14,2.22,0,.24,0,.44,0,.58s0,.2,0,.2.64,8.76,0-.2c0-.14,0-.33-.07-.57-.07-.51-.13-1.26-.19-2.23a45,45,0,0,1,.33-8.19,63.35,63.35,0,0,1,2.78-11.85,129.66,129.66,0,0,1,5.62-13.78l1.66-3.54c.55-1.16,1.09-2.31,1.7-3.4a64.47,64.47,0,0,1,3.81-6.08c1.3-1.87,2.61-3.6,3.84-5.21s2.42-3.09,3.56-4.39a51,51,0,0,1,5.81-5.73c.73-.62,1.32-1.08,1.72-1.39l.46-.35Z"/><path class="cls-2" d="M3333.3,1712.18a2.81,2.81,0,0,1-.12-.62c-.06-.4-.13-1-.21-1.71-.15-1.45-.3-3.46-.45-5.67s-.33-4.21-.5-5.65c-.09-.72-.17-1.31-.22-1.71a2.47,2.47,0,0,1-.06-.63,4.22,4.22,0,0,1,.16.61c.09.4.19,1,.3,1.7.23,1.44.43,3.45.58,5.66s.28,4.16.38,5.67c.05.68.09,1.26.12,1.72A2.75,2.75,0,0,1,3333.3,1712.18Z"/><path class="cls-2" d="M3352,1709.35a5.15,5.15,0,0,1-.75.06c-.48,0-1.17.06-2,.13-1.71.12-4.06.38-6.65.78s-4.91.86-6.59,1.24l-2,.47a3.93,3.93,0,0,1-.73.15,3.72,3.72,0,0,1,.71-.25c.46-.15,1.12-.34,2-.55a66.86,66.86,0,0,1,6.59-1.33,63,63,0,0,1,6.68-.7c.86,0,1.56,0,2,0A3.48,3.48,0,0,1,3352,1709.35Z"/><path class="cls-2" d="M3324.49,1732.58a1.09,1.09,0,0,1-.12-.23l-.3-.69c-.25-.59-.6-1.46-1-2.55-.82-2.16-1.87-5.18-3-8.53s-2.13-6.38-2.9-8.56c-.39-1-.7-1.93-.93-2.57-.1-.28-.19-.51-.25-.7a.72.72,0,0,1-.07-.26,1,1,0,0,1,.12.24c.08.18.17.41.29.68.26.59.6,1.46,1,2.55.83,2.16,1.87,5.18,3,8.53s2.12,6.38,2.9,8.56c.38,1.06.69,1.93.93,2.57l.25.71A1,1,0,0,1,3324.49,1732.58Z"/><path class="cls-2" d="M3349.48,1725.46a.9.9,0,0,1-.25.09l-.72.22-2.68.77c-2.26.64-5.37,1.57-8.81,2.61s-6.56,1.93-8.83,2.54c-1.14.3-2.06.53-2.7.68l-.74.17-.26,0s.08,0,.25-.1l.72-.21,2.68-.77c2.26-.65,5.37-1.58,8.81-2.61s6.56-1.94,8.83-2.54c1.14-.3,2.06-.53,2.7-.68l.74-.17A.74.74,0,0,1,3349.48,1725.46Z"/><rect class="cls-7" x="3073.03" y="1240.47" width="293.94" height="14.78" rx="4.37"/><rect class="cls-6" x="3137.08" y="1269.19" width="165.84" height="14.78" rx="4.37"/><path class="cls-2" d="M434.14,1972.31l-28.29-484.25s501.63-605,857.5-339.66,376.93,655.28,376.93,655.28Z"/><path class="cls-3" d="M1329.15,1685.31H1077.43a21.89,21.89,0,0,1,0-43.78h251.72a21.89,21.89,0,0,1,0,43.78Z"/><rect class="cls-3" x="1279.53" y="992.34" width="8.75" height="659.25" transform="translate(-138.42 150.22) rotate(-6.35)"/><rect class="cls-3" x="800.07" y="1317.58" width="659.25" height="8.75" transform="translate(-308.88 2298.84) rotate(-83.66)"/><path class="cls-3" d="M1093.22,1649.56a4.38,4.38,0,0,1-1.76-8.39l207.93-91-185.61-100.15a4.38,4.38,0,0,1,2-8.23l164.22-3.77-155.85-80.21a4.37,4.37,0,0,1-.1-7.73l145.15-79.67-127.46-72a4.38,4.38,0,0,1,0-7.63L1253.82,1128l-97.54-62.27a4.38,4.38,0,1,1,4.71-7.38l103.71,66.21a4.38,4.38,0,0,1-.22,7.51l-111.67,62.53,127.52,72.06a4.38,4.38,0,0,1,0,7.65l-144.83,79.49,163.82,84.3a4.38,4.38,0,0,1-1.9,8.27l-164.9,3.8,179,96.56a4.37,4.37,0,0,1-.32,7.86L1095,1649.19A4.37,4.37,0,0,1,1093.22,1649.56Z"/><path class="cls-3" d="M1320.39,1649.56a4.33,4.33,0,0,1-1.75-.37l-216.16-94.56a4.38,4.38,0,0,1-.33-7.86l179-96.56-164.9-3.8a4.38,4.38,0,0,1-1.9-8.27l163.83-84.3-144.83-79.49a4.38,4.38,0,0,1,0-7.65l127.53-72.06-111.68-62.53a4.38,4.38,0,0,1-.21-7.51l103.71-66.21a4.38,4.38,0,0,1,4.71,7.38L1159.78,1128l112.09,62.77a4.37,4.37,0,0,1,0,7.63l-127.46,72,145.16,79.67a4.38,4.38,0,0,1-.1,7.73l-155.85,80.21,164.22,3.77a4.38,4.38,0,0,1,2,8.23l-185.62,100.15,207.94,91a4.38,4.38,0,0,1-1.76,8.39Z"/><path class="cls-3" d="M1158.64,1132.67a4.38,4.38,0,0,1-2.36-8.07L1260,1058.39a4.38,4.38,0,0,1,4.71,7.38L1161,1132A4.33,4.33,0,0,1,1158.64,1132.67Z"/><path class="cls-3" d="M1206.57,1007c-90.72,0-164.53-73.81-164.53-164.53s73.81-164.53,164.53-164.53S1371.1,751.7,1371.1,842.42,1297.29,1007,1206.57,1007Zm0-320.3c-85.89,0-155.77,69.88-155.77,155.77s69.88,155.77,155.77,155.77,155.77-69.88,155.77-155.77S1292.46,686.65,1206.57,686.65Z"/><circle class="cls-3" cx="1206.57" cy="842.42" r="36.85"/><path class="cls-3" d="M1423,757.23l-216.4,85.19h232.57A232.38,232.38,0,0,0,1423,757.23Z"/><path class="cls-3" d="M974.52,857.83l232-15.41L996.29,941.77A232.5,232.5,0,0,1,974.52,857.83Z"/><path class="cls-3" d="M1424.91,937.09l-213.26-92.78,164.45,164.45A232.61,232.61,0,0,0,1424.91,937.09Z"/><path class="cls-3" d="M1036.67,691.12l175,153.19L992.71,765.87A232.56,232.56,0,0,1,1036.67,691.12Z"/><path class="cls-3" d="M1263.91,1078.1l-49.62-227.21-37.06,229.59A232.43,232.43,0,0,0,1263.91,1078.1Z"/><path class="cls-3" d="M1236.06,619.34l-21.77,231.55-64.56-223.43A232.71,232.71,0,0,1,1236.06,619.34Z"/><path class="cls-3" d="M1086,1051.35,1211.62,855.6,1023.06,991.74A232.72,232.72,0,0,0,1086,1051.35Z"/><path class="cls-3" d="M1390.73,707.26,1211.62,855.6,1324,652A232.61,232.61,0,0,1,1390.73,707.26Z"/><path class="cls-4" d="M0,1717.79V1311.47S133.54,1071,357.47,1174.84s279.84,313.73,279.84,313.73Z"/><path class="cls-3" d="M0,1636.18c8.22-44.63,367.8-357.69,790-219.65s422.9,167.3,576.62,146.51,210.08,136.19,395.65,93.87,370.73-164.69,425.55-168.56-37.34,181.78-58.54,220.2-56.36,99.79-56.36,99.79L1929,1951,0,1972.31Z"/><path class="cls-2" d="M2042.69,1740.79c78.83,65.32,226.37,29.7,208.35-69.61s19.14-161.26,70.95-195,83.34-110.37-5.63-196,33.79-236.51-4.51-323.23-289.44-152-305.2-5.63,23.65,174.56,0,210.6-198.22-5.63-223,104.74,57.43,200.47,0,288.31S2042.69,1740.79,2042.69,1740.79Z"/><path class="cls-4" d="M2001.58,1622c51.24,11.82,76.58-28.72,73.77-85.6s61.94-65.32,63.63-135.14-63.07-63.64-29.28-144.16,27.59-157.67-65.89-179.07-183.57,53.5-140.77,149.22,3.94,169.5-52.94,208.92,1.69,209.48,132.9,162.74Z"/><path class="cls-4" d="M1864.46,1927.18c42.24,7.6,58.71-37.59,55.75-61.66s38.86-18.16,11.83-53.21-21.12-75.18-19.43-98.83-55.75-68-110.65-22.81-39.7,107.28-36.75,116.15-29.56,16.47-23.22,46.45,45.19,13.52,46,22.81,3.8,55.32,44.77,50.26S1864.46,1927.18,1864.46,1927.18Z"/><path class="cls-6" d="M1810.69,2607.42c-10.27,4.64,150.35,0,167.24,0S1916,2575.88,1932,2439.89s33.78-160.48-25.34-279.58,16.89-186.67,78.55-234.82,162.18-147,179.07-380.1c0,0-31.68,109-45.19,155s-37.59,83-41,82.78-4.5-39-32.09-83.49-55.19-98.54-33.79-223.55c0,0-17.74,104.32-16.89,125s-52.8-108.54-52.8-108.54,28.3,89.11,41.39,128,50.68,107.27,62.93,150.77-21.26,71-59.41,104.32-82.78,87.28-105.86,66.16-28.72-130.64-28.72-130.64-3.1,87.56-1.41,119.66-9.85,74.61-36.88,163,54.62,115.44,54.62,235.38S1869.25,2581,1810.69,2607.42Z"/><path class="cls-9" d="M1593.71,1963.66a2.52,2.52,0,0,1-1.47-.47,30,30,0,0,1-6.6-6.4,2.54,2.54,0,0,1,4.06-3,24.56,24.56,0,0,0,5.49,5.31,2.54,2.54,0,0,1-1.48,4.6Z"/><path class="cls-9" d="M1626,1972h-.07a89,89,0,0,1-17.28-2,2.53,2.53,0,0,1,1.11-4.94,85.22,85.22,0,0,0,16.3,1.83,2.53,2.53,0,0,1-.06,5.06Zm16.89-.59a2.53,2.53,0,0,1-.21-5.06c5.17-.45,10.76-1.14,16.62-2.07a2.54,2.54,0,1,1,.79,5c-6,.94-11.69,1.65-17,2.11Zm33.46-5.19a2.53,2.53,0,0,1-.52-5c5.23-1.1,10.75-2.38,16.41-3.79a2.53,2.53,0,0,1,1.23,4.91c-5.72,1.44-11.3,2.73-16.6,3.84A2.29,2.29,0,0,1,1676.36,1966.25Zm32.86-8.17a2.54,2.54,0,0,1-.68-5c5.2-1.46,10.64-3.07,16.18-4.77a2.53,2.53,0,0,1,1.5,4.84c-5.59,1.72-11.07,3.34-16.31,4.81A2.35,2.35,0,0,1,1709.22,1958.08Zm32.38-9.95a2.53,2.53,0,0,1-.79-4.94c5.2-1.72,10.58-3.54,16-5.43a2.53,2.53,0,1,1,1.67,4.78c-5.44,1.9-10.85,3.74-16.07,5.46A2.48,2.48,0,0,1,1741.6,1948.13Zm32-11.15a2.53,2.53,0,0,1-.87-4.91q7.86-2.88,15.83-5.91a2.54,2.54,0,0,1,1.81,4.74q-8,3-15.9,5.93A2.65,2.65,0,0,1,1773.59,1937Zm31.66-12a2.53,2.53,0,0,1-.93-4.89q7.82-3.07,15.7-6.28a2.54,2.54,0,0,1,1.91,4.7q-7.9,3.19-15.75,6.29A2.56,2.56,0,0,1,1805.25,1925Zm31.39-12.73a2.53,2.53,0,0,1-1-4.87q7.78-3.24,15.57-6.57a2.53,2.53,0,1,1,2,4.66q-7.8,3.33-15.61,6.59A2.58,2.58,0,0,1,1836.64,1912.22Zm31.14-13.29a2.53,2.53,0,0,1-1-4.85q7.77-3.39,15.51-6.84a2.53,2.53,0,1,1,2.06,4.63q-7.74,3.45-15.54,6.85A2.45,2.45,0,0,1,1867.78,1898.93Zm31-13.78a2.54,2.54,0,0,1-1-4.85q7.74-3.51,15.39-7a2.54,2.54,0,0,1,2.12,4.61q-7.65,3.53-15.41,7.05A2.62,2.62,0,0,1,1898.76,1885.15Zm30.76-14.2a2.53,2.53,0,0,1-1.08-4.82q7.72-3.63,15.3-7.24a2.54,2.54,0,1,1,2.18,4.58q-7.59,3.62-15.33,7.25A2.52,2.52,0,0,1,1929.52,1871Zm30.58-14.57a2.53,2.53,0,0,1-1.11-4.81q7.73-3.73,15.22-7.42a2.53,2.53,0,1,1,2.23,4.55q-7.5,3.69-15.24,7.43A2.56,2.56,0,0,1,1960.1,1856.38Zm30.41-14.92a2.54,2.54,0,0,1-1.13-4.81c5.15-2.56,10.2-5.1,15.12-7.58a2.53,2.53,0,1,1,2.29,4.52q-7.39,3.73-15.15,7.6A2.57,2.57,0,0,1,1990.51,1841.46Zm30.24-15.28a2.53,2.53,0,0,1-1.16-4.79q7.79-4,15-7.78a2.54,2.54,0,1,1,2.34,4.5q-7.26,3.78-15.07,7.79A2.5,2.5,0,0,1,2020.75,1826.18Zm30.05-15.67a2.53,2.53,0,0,1-1.19-4.77q3.1-1.63,6.07-3.23c2.66-1.42,5.65-3,8.93-4.72a2.54,2.54,0,0,1,2.36,4.49q-4.92,2.58-8.9,4.7l-6.08,3.24A2.55,2.55,0,0,1,2050.8,1810.51Zm30-15.82a2.53,2.53,0,0,1-1.17-4.78l.16-.08,14.88-7.78a2.53,2.53,0,1,1,2.35,4.49l-14.89,7.78-.15.08A2.64,2.64,0,0,1,2080.84,1794.69Zm30.07-15.75a2.53,2.53,0,0,1-1.18-4.77l15-7.92a2.53,2.53,0,1,1,2.37,4.47q-7.78,4.14-15,7.93A2.51,2.51,0,0,1,2110.91,1778.94Zm30-15.89a2.53,2.53,0,0,1-1.2-4.77q7.27-3.88,14.92-8a2.53,2.53,0,1,1,2.41,4.46q-7.65,4.14-14.94,8A2.56,2.56,0,0,1,2140.87,1763.05Zm29.82-16.12a2.53,2.53,0,0,1-1.21-4.75c4.85-2.66,9.81-5.37,14.84-8.15a2.54,2.54,0,0,1,2.45,4.44q-7.56,4.17-14.86,8.15A2.57,2.57,0,0,1,2170.69,1746.93Zm316.82-4.74h0c-5.67,0-11.37-.1-16.94-.21a2.54,2.54,0,0,1,.05-5.07h0c5.55.11,11.22.18,16.87.21a2.54,2.54,0,0,1,0,5.07Zm16.9,0a2.54,2.54,0,0,1,0-5.07q8.42-.06,16.85-.24a2.54,2.54,0,1,1,.11,5.07q-8.47.18-16.92.24Zm-50.67-.63h-.09c-5.59-.19-11.29-.41-16.94-.68a2.53,2.53,0,1,1,.24-5.06c5.62.26,11.3.49,16.87.67a2.54,2.54,0,0,1-.08,5.07Zm84.44-.08a2.53,2.53,0,0,1-.09-5.06q8.41-.3,16.85-.69a2.53,2.53,0,0,1,.24,5.06q-8.46.4-16.91.69ZM2419.94,1740h-.15c-5.6-.34-11.29-.73-16.92-1.16a2.53,2.53,0,1,1,.38-5c5.61.42,11.27.81,16.84,1.15a2.54,2.54,0,0,1-.15,5.07Zm152-.09a2.53,2.53,0,0,1-.15-5.06q8.4-.51,16.83-1.13a2.54,2.54,0,0,1,.37,5.06q-8.46.62-16.9,1.13Zm33.71-2.47a2.54,2.54,0,0,1-.22-5.06q8.4-.72,16.8-1.55a2.53,2.53,0,1,1,.5,5q-8.43.84-16.86,1.56Zm-219.44,0H2386c-5.66-.51-11.34-1.07-16.87-1.66a2.53,2.53,0,1,1,.53-5c5.51.58,11.17,1.13,16.8,1.65a2.53,2.53,0,0,1-.23,5.05Zm253.08-3.32a2.53,2.53,0,0,1-.28-5q8.39-.94,16.76-2a2.53,2.53,0,1,1,.63,5q-8.4,1-16.82,2Zm-286.73-.24a1.67,1.67,0,0,1-.31,0c-5.57-.67-11.23-1.41-16.81-2.17a2.53,2.53,0,1,1,.69-5c5.56.76,11.19,1.49,16.74,2.16a2.53,2.53,0,0,1-.31,5Zm-152.18-3.26a2.54,2.54,0,0,1-1.24-4.75q7.29-4.05,14.76-8.28a2.54,2.54,0,1,1,2.49,4.42q-7.49,4.21-14.78,8.29A2.51,2.51,0,0,1,2200.37,1730.56Zm472.47-.69a2.54,2.54,0,0,1-.34-5q8.36-1.14,16.71-2.41a2.54,2.54,0,0,1,.75,5q-8.37,1.26-16.77,2.42Zm-353.81-.66-.39,0c-5.61-.86-11.24-1.78-16.74-2.71a2.54,2.54,0,0,1,.85-5c5.47.93,11.08,1.84,16.66,2.7a2.53,2.53,0,0,1-.38,5Zm387.26-4.39a2.53,2.53,0,0,1-.4-5q8.33-1.36,16.64-2.84a2.53,2.53,0,1,1,.89,5q-8.36,1.49-16.71,2.85Zm-420.61-1.31a2.42,2.42,0,0,1-.47,0c-5.54-1-11.13-2.14-16.65-3.28a2.53,2.53,0,1,1,1-5c5.48,1.13,11,2.23,16.55,3.26a2.53,2.53,0,0,1-.46,5Zm453.94-4.59a2.53,2.53,0,0,1-.47-5q8.29-1.58,16.57-3.26a2.53,2.53,0,1,1,1,5q-8.31,1.7-16.64,3.28A2.56,2.56,0,0,1,2739.62,1718.92Zm-487.08-2.23a2.15,2.15,0,0,1-.56-.07c-5.55-1.24-11.11-2.55-16.52-3.87a2.54,2.54,0,0,1-1.37-.87l-3,1.7a2.53,2.53,0,1,1-2.51-4.4q7.26-4.15,14.67-8.44a2.54,2.54,0,0,1,2.54,4.39l-6,3.46c4.37,1.06,8.82,2.09,13.26,3.09a2.54,2.54,0,0,1-.55,5Zm520.24-4.52a2.53,2.53,0,0,1-.53-5q8.27-1.8,16.49-3.7a2.53,2.53,0,0,1,1.14,4.94q-8.27,1.9-16.55,3.71A2.64,2.64,0,0,1,2772.78,1712.17Zm-553.11-3.51a2.43,2.43,0,0,1-.65-.09c-5.45-1.44-10.95-3-16.36-4.49a2.54,2.54,0,0,1,1.39-4.88c5.38,1.54,10.85,3,16.26,4.47a2.54,2.54,0,0,1-.64,5Zm586.11-4.11a2.53,2.53,0,0,1-.6-5q8.21-2,16.39-4.13a2.53,2.53,0,0,1,1.27,4.9q-8.22,2.13-16.46,4.15A2.46,2.46,0,0,1,2805.78,1704.55Zm-618.65-5.18a2.39,2.39,0,0,1-.74-.12c-5.46-1.68-10.9-3.41-16.17-5.15a2.53,2.53,0,0,1,1.59-4.81c5.23,1.73,10.64,3.45,16.07,5.12a2.54,2.54,0,0,1-.75,5Zm72.07-2.41a2.54,2.54,0,0,1-1.28-4.73q7.24-4.23,14.58-8.59a2.54,2.54,0,1,1,2.59,4.36q-7.35,4.37-14.61,8.61A2.57,2.57,0,0,1,2259.2,1697Zm579.36-.9a2.53,2.53,0,0,1-.66-5c5.37-1.47,10.85-3,16.27-4.56a2.53,2.53,0,1,1,1.4,4.87c-5.44,1.56-10.94,3.11-16.34,4.58A2.52,2.52,0,0,1,2838.56,1696.06ZM2155,1688.75a2.54,2.54,0,0,1-.85-.15c-5.33-1.89-10.69-3.86-15.93-5.85a2.54,2.54,0,0,1,1.8-4.74c5.2,2,10.53,3.93,15.83,5.81a2.54,2.54,0,0,1-.85,4.93Zm716.11-2.06a2.53,2.53,0,0,1-.73-5c5.4-1.64,10.83-3.33,16.14-5a2.53,2.53,0,0,1,1.54,4.83c-5.33,1.7-10.78,3.4-16.22,5A2.64,2.64,0,0,1,2871.12,1686.69Zm-582.78-7a2.53,2.53,0,0,1-1.31-4.7q7.2-4.34,14.48-8.76a2.53,2.53,0,1,1,2.64,4.32q-7.29,4.44-14.51,8.78A2.48,2.48,0,0,1,2288.34,1679.67Zm-165-3a2.53,2.53,0,0,1-1-.19c-5.23-2.13-10.49-4.34-15.64-6.59a2.54,2.54,0,1,1,2-4.65c5.11,2.23,10.33,4.44,15.53,6.55a2.53,2.53,0,0,1-1,4.88Zm780-.3a2.54,2.54,0,0,1-.8-4.94c5.33-1.77,10.71-3.61,16-5.46a2.53,2.53,0,1,1,1.67,4.78c-5.31,1.86-10.71,3.71-16.07,5.49A2.44,2.44,0,0,1,2903.41,1676.41Zm32-11.19a2.53,2.53,0,0,1-.87-4.91c5.31-1.94,10.64-3.94,15.84-5.93a2.53,2.53,0,1,1,1.81,4.73c-5.22,2-10.57,4-15.91,6A2.61,2.61,0,0,1,2935.4,1665.22Zm-843-2a2.56,2.56,0,0,1-1.07-.24c-5.1-2.38-10.25-4.87-15.29-7.38a2.54,2.54,0,1,1,2.26-4.54c5,2.5,10.11,5,15.17,7.32a2.54,2.54,0,0,1-1.07,4.84Zm224.88-1.15a2.53,2.53,0,0,1-1.33-4.69q7.16-4.42,14.36-8.94a2.53,2.53,0,0,1,2.69,4.29q-7.21,4.53-14.39,9A2.47,2.47,0,0,1,2317.26,1662Zm649.8-8.94a2.54,2.54,0,0,1-.94-4.89c5.19-2.08,10.45-4.23,15.65-6.41a2.54,2.54,0,1,1,2,4.68c-5.22,2.18-10.51,4.35-15.73,6.44A2.53,2.53,0,0,1,2967.06,1653.1Zm-904.94-5a2.42,2.42,0,0,1-1.19-.3c-5-2.66-10-5.42-14.87-8.21a2.53,2.53,0,1,1,2.51-4.4c4.84,2.76,9.8,5.5,14.74,8.14a2.53,2.53,0,0,1-1.19,4.77Zm283.83-4a2.53,2.53,0,0,1-1.37-4.67q7.11-4.53,14.23-9.15a2.54,2.54,0,0,1,2.76,4.26q-7.14,4.62-14.26,9.16A2.53,2.53,0,0,1,2346,1644Zm652.39-4a2.54,2.54,0,0,1-1-4.86c5.19-2.27,10.39-4.59,15.45-6.89a2.53,2.53,0,0,1,2.1,4.61c-5.08,2.32-10.3,4.65-15.52,6.93A2.62,2.62,0,0,1,2998.34,1640Zm-965.59-8.73a2.54,2.54,0,0,1-1.32-.37c-4.86-3-9.68-6-14.35-9.09a2.53,2.53,0,0,1,2.77-4.24c4.63,3,9.41,6.06,14.23,9a2.53,2.53,0,0,1-1.33,4.69Zm996.45-5.34a2.53,2.53,0,0,1-1.09-4.82c5.11-2.44,10.23-4.92,15.22-7.4a2.53,2.53,0,0,1,2.25,4.54c-5,2.49-10.16,5-15.29,7.43A2.48,2.48,0,0,1,3029.2,1625.94Zm-654.83-.33A2.53,2.53,0,0,1,2373,1621q7-4.62,14-9.33a2.53,2.53,0,1,1,2.82,4.21q-7,4.71-14.08,9.36A2.53,2.53,0,0,1,2374.37,1625.61Zm-369.9-12.88a2.52,2.52,0,0,1-1.45-.46c-4.66-3.27-9.28-6.64-13.74-10a2.53,2.53,0,1,1,3-4c4.42,3.33,9,6.67,13.6,9.91a2.53,2.53,0,0,1-1.46,4.6Zm1055.11-1.88a2.53,2.53,0,0,1-1.17-4.78c5.05-2.62,10.07-5.28,14.93-7.9a2.53,2.53,0,1,1,2.41,4.45c-4.88,2.65-9.93,5.32-15,8A2.54,2.54,0,0,1,3059.58,1610.85Zm-657.13-4.06a2.53,2.53,0,0,1-1.43-4.62q7-4.77,13.93-9.6a2.54,2.54,0,1,1,2.9,4.16q-7,4.85-14,9.62A2.48,2.48,0,0,1,2402.45,1606.79Zm-425-14.44a2.49,2.49,0,0,1-1.6-.57c-4.41-3.58-8.78-7.27-13-11a2.53,2.53,0,0,1,3.34-3.81c4.17,3.65,8.49,7.29,12.86,10.84a2.53,2.53,0,0,1-1.6,4.5Zm452.8-4.93a2.53,2.53,0,0,1-1.47-4.6q6.9-4.89,13.75-9.85a2.53,2.53,0,0,1,3,4.1q-6.87,5-13.78,9.88A2.52,2.52,0,0,1,2430.29,1587.42Zm-478.24-17.35a2.54,2.54,0,0,1-1.74-.69c-4.13-3.91-8.21-7.92-12.12-11.93a2.53,2.53,0,0,1,3.62-3.54c3.87,4,7.9,7.92,12,11.79a2.53,2.53,0,0,1,.09,3.58A2.48,2.48,0,0,1,1952.05,1570.07Zm505.67-2.52a2.53,2.53,0,0,1-1.51-4.57q6.79-5,13.53-10.13a2.53,2.53,0,1,1,3.06,4q-6.75,5.11-13.58,10.17A2.48,2.48,0,0,1,2457.72,1567.55Zm27-20.46a2.53,2.53,0,0,1-1.55-4.53q6.69-5.2,13.28-10.45a2.53,2.53,0,1,1,3.16,4q-6.62,5.28-13.33,10.49A2.54,2.54,0,0,1,2484.7,1547.09Zm-556.27-1.21a2.54,2.54,0,0,1-1.88-.83c-3.79-4.21-7.52-8.55-11.11-12.89a2.54,2.54,0,1,1,3.91-3.23c3.54,4.29,7.23,8.57,11,12.72a2.54,2.54,0,0,1-1.89,4.23ZM2511.19,1526a2.54,2.54,0,0,1-1.61-4.5c4.37-3.57,8.74-7.21,13-10.8a2.54,2.54,0,0,1,3.27,3.88c-4.27,3.6-8.66,7.25-13.05,10.84A2.5,2.5,0,0,1,2511.19,1526Zm-604.27-6.17a2.54,2.54,0,0,1-2-1c-3.41-4.51-6.75-9.15-9.93-13.78a2.54,2.54,0,0,1,4.18-2.87c3.14,4.57,6.43,9.14,9.8,13.6a2.52,2.52,0,0,1-.5,3.54A2.5,2.5,0,0,1,1906.92,1519.82Zm630.15-15.67a2.53,2.53,0,0,1-1.67-4.44c4.28-3.73,8.54-7.49,12.65-11.19a2.53,2.53,0,1,1,3.39,3.76c-4.13,3.72-8.41,7.51-12.71,11.25A2.5,2.5,0,0,1,2537.07,1504.15ZM1887.81,1492a2.55,2.55,0,0,1-2.16-1.19c-3-4.81-5.9-9.74-8.65-14.66a2.53,2.53,0,0,1,4.42-2.48c2.72,4.85,5.59,9.72,8.54,14.46a2.53,2.53,0,0,1-2.15,3.87Zm674.42-10.51a2.53,2.53,0,0,1-1.73-4.38c4.16-3.89,8.28-7.8,12.23-11.64a2.54,2.54,0,0,1,3.53,3.64c-4,3.86-8.11,7.79-12.3,11.7A2.51,2.51,0,0,1,2562.23,1481.49Zm-690.94-19a2.54,2.54,0,0,1-2.27-1.4c-2.53-5.06-5-10.26-7.27-15.45a2.53,2.53,0,1,1,4.64-2c2.26,5.11,4.67,10.23,7.16,15.22a2.53,2.53,0,0,1-1.13,3.4A2.41,2.41,0,0,1,1871.29,1462.48Zm715.22-4.58a2.53,2.53,0,0,1-1.8-4.31c4-4,7.92-8.12,11.71-12.15a2.54,2.54,0,0,1,3.69,3.48c-3.82,4-7.79,8.17-11.79,12.23A2.54,2.54,0,0,1,2586.51,1457.9Zm23.19-24.66a2.53,2.53,0,0,1-1.89-4.22c3.79-4.25,7.51-8.53,11.05-12.73a2.53,2.53,0,0,1,3.87,3.27c-3.56,4.23-7.31,8.55-11.14,12.83A2.49,2.49,0,0,1,2609.7,1433.24Zm-752.1-1.71a2.51,2.51,0,0,1-2.36-1.62c-2-5.26-4-10.64-5.77-16a2.53,2.53,0,0,1,4.8-1.6c1.77,5.29,3.69,10.6,5.69,15.78a2.53,2.53,0,0,1-1.45,3.28A2.44,2.44,0,0,1,1857.6,1431.53Zm773.89-24.18a2.54,2.54,0,0,1-2-4.11c3.52-4.46,6.95-9,10.19-13.39a2.53,2.53,0,1,1,4.09,3c-3.28,4.48-6.74,9-10.3,13.54A2.51,2.51,0,0,1,2631.49,1407.35Zm-784.61-7.86a2.54,2.54,0,0,1-2.44-1.85c-1-3.42-1.9-6.89-2.77-10.31q-.78-3.09-1.51-6.15a2.52,2.52,0,0,1,1.87-3,2.55,2.55,0,0,1,3.06,1.87q.72,3,1.5,6.09c.85,3.37,1.77,6.8,2.73,10.17a2.53,2.53,0,0,1-1.75,3.13A2.35,2.35,0,0,1,1846.88,1399.49ZM2651.46,1380a2.51,2.51,0,0,1-1.41-.43,2.54,2.54,0,0,1-.69-3.52c3.18-4.73,6.22-9.49,9-14.15a2.53,2.53,0,0,1,4.33,2.63c-2.87,4.73-5.95,9.55-9.17,14.35A2.55,2.55,0,0,1,2651.46,1380ZM1839,1366.61a2.53,2.53,0,0,1-2.48-2c-1.14-5.59-2.17-11.22-3.07-16.74a2.53,2.53,0,1,1,5-.81c.89,5.45,1.91,11,3,16.54a2.54,2.54,0,0,1-2,3A2.92,2.92,0,0,1,1839,1366.61Zm830-15.49a2.56,2.56,0,0,1-1.19-.3,2.53,2.53,0,0,1-1-3.43c2.7-5,5.22-10,7.5-15a2.53,2.53,0,1,1,4.6,2.13c-2.32,5-4.89,10.15-7.63,15.24A2.53,2.53,0,0,1,2669,1351.12Zm-835.46-17.89A2.53,2.53,0,0,1,1831,1331c-.7-5.66-1.28-11.35-1.73-16.93a2.54,2.54,0,0,1,5.06-.41c.44,5.51,1,11.13,1.7,16.72a2.54,2.54,0,0,1-2.21,2.83Zm849.62-12.76a2.36,2.36,0,0,1-.9-.17,2.53,2.53,0,0,1-1.46-3.27c2-5.29,3.83-10.6,5.37-15.78a2.53,2.53,0,0,1,4.86,1.44c-1.58,5.3-3.43,10.74-5.5,16.15A2.54,2.54,0,0,1,2683.13,1320.47Zm-852.31-21a2.54,2.54,0,0,1-2.53-2.45c-.16-4.3-.23-8.63-.23-12.87,0-1.39,0-2.78,0-4.16a2.53,2.53,0,0,1,2.53-2.5h0a2.54,2.54,0,0,1,2.51,2.56c0,1.36,0,2.73,0,4.09,0,4.19.08,8.46.23,12.71a2.53,2.53,0,0,1-2.44,2.62Zm861.85-11.37a2.94,2.94,0,0,1-.51-.05,2.54,2.54,0,0,1-2-3c1.12-5.5,2-11,2.52-16.42a2.53,2.53,0,0,1,5,.52c-.57,5.56-1.44,11.25-2.59,16.91A2.54,2.54,0,0,1,2692.67,1288.15Zm-861.44-22.44h-.16a2.54,2.54,0,0,1-2.37-2.69c.35-5.7.85-11.4,1.49-17a2.53,2.53,0,1,1,5,.58c-.62,5.47-1.12,11.09-1.46,16.7A2.53,2.53,0,0,1,1831.23,1265.71Zm864.82-11.11a2.53,2.53,0,0,1-2.54-2.51,144.55,144.55,0,0,0-1-16.58,2.53,2.53,0,0,1,5-.61,150.14,150.14,0,0,1,1.08,17.16,2.53,2.53,0,0,1-2.52,2.54Zm-861-22.46-.43,0a2.54,2.54,0,0,1-2.07-2.93c1-5.6,2.07-11.22,3.32-16.71a2.54,2.54,0,1,1,4.95,1.13c-1.24,5.39-2.34,10.92-3.27,16.43A2.55,2.55,0,0,1,1835.08,1232.14Zm856.89-11a2.54,2.54,0,0,1-2.46-1.93,144.6,144.6,0,0,0-4.85-15.89,2.53,2.53,0,1,1,4.75-1.75,150.34,150.34,0,0,1,5,16.44,2.54,2.54,0,0,1-1.87,3.06A2.46,2.46,0,0,1,2692,1221.11Zm-849.34-21.9a2.44,2.44,0,0,1-.71-.1,2.53,2.53,0,0,1-1.73-3.14c1.59-5.46,3.36-10.91,5.26-16.22a2.54,2.54,0,0,1,4.78,1.71c-1.87,5.21-3.61,10.57-5.17,15.93A2.53,2.53,0,0,1,1842.63,1199.21Zm837.69-9.77a2.53,2.53,0,0,1-2.27-1.4c-2.43-4.86-5.19-9.74-8.19-14.49a2.53,2.53,0,1,1,4.28-2.71,168.74,168.74,0,0,1,8.44,14.93,2.53,2.53,0,0,1-1.13,3.4A2.44,2.44,0,0,1,2680.32,1189.44Zm-826.3-22a2.52,2.52,0,0,1-2.33-3.53c2.24-5.21,4.67-10.41,7.22-15.46a2.53,2.53,0,1,1,4.52,2.29c-2.5,5-4.88,10.06-7.08,15.17A2.53,2.53,0,0,1,1854,1167.41Zm808.3-6.55a2.53,2.53,0,0,1-2-1c-3.3-4.3-6.89-8.62-10.69-12.84a2.54,2.54,0,1,1,3.77-3.39c3.88,4.31,7.57,8.74,10.94,13.15a2.53,2.53,0,0,1-2,4.07Zm-793.07-23.6a2.54,2.54,0,0,1-2.18-3.82c2.86-4.87,5.92-9.73,9.08-14.43a2.54,2.54,0,1,1,4.21,2.83c-3.11,4.61-6.11,9.38-8.92,14.17A2.54,2.54,0,0,1,1869.25,1137.26Zm770.5-1.54a2.55,2.55,0,0,1-1.76-.71c-3.9-3.78-8.08-7.57-12.4-11.27a2.53,2.53,0,1,1,3.29-3.85c4.41,3.77,8.66,7.63,12.63,11.47a2.53,2.53,0,0,1-1.76,4.36Zm-25.67-22a2.53,2.53,0,0,1-1.54-.52c-4.32-3.32-8.89-6.65-13.56-9.9a2.53,2.53,0,0,1,2.89-4.16c4.74,3.29,9.37,6.67,13.76,10a2.53,2.53,0,0,1-1.55,4.54Zm-726-4.45a2.48,2.48,0,0,1-1.54-.53,2.53,2.53,0,0,1-.47-3.55c3.43-4.48,7.06-8.92,10.78-13.21a2.53,2.53,0,0,1,3.83,3.32c-3.65,4.21-7.22,8.58-10.59,13A2.54,2.54,0,0,1,1888.11,1109.26Zm698.3-15a2.54,2.54,0,0,1-1.39-.42c-4.68-3.09-9.45-6.16-14.18-9.13a2.53,2.53,0,0,1,2.7-4.29c4.76,3,9.56,6.08,14.27,9.19a2.53,2.53,0,0,1-1.4,4.65Zm-676.15-10.54a2.53,2.53,0,0,1-1.81-4.31c4-4,8.08-8,12.3-11.86a2.53,2.53,0,0,1,3.41,3.75c-4.14,3.77-8.21,7.69-12.09,11.66A2.54,2.54,0,0,1,1910.26,1083.73Zm647.51-7.46a2.58,2.58,0,0,1-1.3-.36c-4.81-2.87-9.71-5.73-14.57-8.48a2.53,2.53,0,0,1,2.5-4.41c4.9,2.78,9.83,5.65,14.67,8.54a2.53,2.53,0,0,1-1.3,4.71Zm-622.5-15.33a2.53,2.53,0,0,1-1.6-4.5c4.37-3.55,8.91-7,13.5-10.39a2.53,2.53,0,0,1,3,4.1c-4.51,3.28-9,6.73-13.29,10.22A2.47,2.47,0,0,1,1935.27,1060.94Zm593.07-1.36a2.56,2.56,0,0,1-1.19-.3c-4.92-2.65-9.94-5.28-14.94-7.82a2.54,2.54,0,0,1,2.3-4.52c5,2.56,10.09,5.21,15,7.87a2.54,2.54,0,0,1-1.21,4.77Zm-30.15-15.34a2.48,2.48,0,0,1-1.09-.25c-5.06-2.43-10.2-4.83-15.28-7.12a2.54,2.54,0,1,1,2.09-4.62c5.11,2.31,10.29,4.72,15.38,7.17a2.53,2.53,0,0,1-1.1,4.82Zm-535.6-3.2a2.54,2.54,0,0,1-1.39-4.66c4.7-3.06,9.58-6.07,14.5-8.94a2.54,2.54,0,0,1,2.56,4.38c-4.86,2.83-9.66,5.79-14.29,8.81A2.52,2.52,0,0,1,1962.59,1041Zm504.78-10.74a2.47,2.47,0,0,1-1-.2c-5.16-2.19-10.41-4.35-15.59-6.41a2.53,2.53,0,1,1,1.87-4.71c5.22,2.08,10.5,4.25,15.7,6.45a2.54,2.54,0,0,1-1,4.87Zm-475.58-6.3a2.53,2.53,0,0,1-1.17-4.78c5-2.59,10.11-5.12,15.27-7.52a2.54,2.54,0,0,1,2.14,4.6c-5.1,2.36-10.17,4.86-15.07,7.41A2.5,2.5,0,0,1,1991.79,1024Zm444.14-6.19a2.48,2.48,0,0,1-.88-.16c-5.25-1.94-10.6-3.85-15.88-5.67a2.53,2.53,0,1,1,1.65-4.79c5.32,1.83,10.7,3.75,16,5.71a2.54,2.54,0,0,1-.88,4.91Zm-413.48-8.06a2.54,2.54,0,0,1-1-4.88c5.19-2.14,10.52-4.21,15.87-6.15a2.53,2.53,0,0,1,1.73,4.76c-5.28,1.92-10.55,4-15.67,6.08A2.54,2.54,0,0,1,2022.45,1009.75Zm381.48-2.93a2.51,2.51,0,0,1-.76-.12c-5.35-1.7-10.78-3.35-16.13-4.9a2.54,2.54,0,0,1,1.41-4.87c5.4,1.57,10.86,3.23,16.25,4.94a2.53,2.53,0,0,1-.77,5Zm-349.7-8.65a2.53,2.53,0,0,1-.77-4.95c5.33-1.7,10.82-3.34,16.3-4.86a2.54,2.54,0,0,1,1.35,4.89c-5.41,1.5-10.84,3.11-16.11,4.8A2.63,2.63,0,0,1,2054.23,998.17Zm317.22-.8a2.41,2.41,0,0,1-.65-.08c-5.4-1.43-10.9-2.81-16.35-4.11a2.53,2.53,0,0,1,1.18-4.93c5.49,1.31,11,2.7,16.47,4.14a2.53,2.53,0,0,1-.65,5Zm-32.91-7.84a3.27,3.27,0,0,1-.53,0c-5.49-1.17-11.05-2.28-16.52-3.29a2.54,2.54,0,0,1,.92-5c5.52,1,11.12,2.14,16.65,3.32a2.53,2.53,0,0,1-.52,5Zm-251.72-.4a2.53,2.53,0,0,1-.59-5c5.48-1.31,11.07-2.53,16.62-3.64a2.53,2.53,0,1,1,1,5c-5.48,1.1-11,2.31-16.44,3.6A2.87,2.87,0,0,1,2086.82,989.13Zm218.46-5.78a2.69,2.69,0,0,1-.4,0c-5.54-.88-11.15-1.7-16.67-2.44a2.53,2.53,0,1,1,.66-5c5.57.74,11.22,1.57,16.81,2.45a2.54,2.54,0,0,1-.4,5Zm-185.3-.87a2.54,2.54,0,0,1-.41-5c5.55-.91,11.21-1.74,16.82-2.48a2.54,2.54,0,0,1,.66,5c-5.56.72-11.16,1.55-16.65,2.46Zm151.76-3.58h-.26c-5.61-.6-11.25-1.11-16.78-1.55a2.53,2.53,0,1,1,.39-5.05c5.58.44,11.27,1,16.92,1.56a2.53,2.53,0,0,1-.27,5Zm-118.22-.8a2.54,2.54,0,0,1-.24-5.06c5.54-.55,11.24-1,16.94-1.39a2.54,2.54,0,0,1,.33,5.06c-5.64.37-11.28.83-16.78,1.37Zm84.5-1.85h-.14c-5.62-.29-11.29-.49-16.83-.62a2.54,2.54,0,0,1,.06-5.07h.06c5.59.13,11.3.34,17,.63a2.53,2.53,0,0,1-.12,5.06Zm-50.74-.4a2.54,2.54,0,0,1-.09-5.07c5.62-.2,11.34-.32,17-.35h0a2.53,2.53,0,1,1,0,5.06c-5.6,0-11.27.16-16.84.36Z"/><path class="cls-9" d="M3088.52,1595.23a2.54,2.54,0,0,1-1.24-4.75q3.67-2.06,7.32-4.16a2.54,2.54,0,0,1,2.53,4.4c-2.45,1.4-4.91,2.8-7.37,4.18A2.53,2.53,0,0,1,3088.52,1595.23Z"/><ellipse class="cls-6" cx="1270.71" cy="2611.77" rx="761.04" ry="10.98"/><path class="cls-10" d="M1859.58,2607.42l18.9-.86s26.83-35.06,38.61-71c16.57-50.5-7-82.92-20.91-84.19s-23.74,11.17-16.71,48.85C1883.61,2522.49,1882.19,2564.27,1859.58,2607.42Z"/><path class="cls-1" d="M1874.39,2591.59l-.14-.09a1.17,1.17,0,0,1-.29-1.63c28.46-40.64,35.43-97.57,25.56-127a1.18,1.18,0,0,1,2.23-.75c10,30,3,87.87-25.87,129.11A1.18,1.18,0,0,1,1874.39,2591.59Z"/><path class="cls-11" d="M1833.75,2607.42l11.43-.52s16.22-21.19,23.34-42.91c10-30.53-4.22-50.12-12.65-50.9s-14.35,6.76-10.1,29.54C1848.28,2556.07,1847.42,2581.33,1833.75,2607.42Z"/><path class="cls-1" d="M1842.7,2597.85l-.08,0a.72.72,0,0,1-.18-1c17.21-24.57,21.42-59,15.46-76.79a.69.69,0,0,1,.44-.89.71.71,0,0,1,.9.44c6.07,18.13,1.82,53.12-15.64,78A.7.7,0,0,1,1842.7,2597.85Z"/><path class="cls-12" d="M1322.23,1487.67a22.76,22.76,0,0,1-1.79,7.43c-.22.51-.46,1-.69,1.54h0c-7.13,14.56-27.23,25.83-32.42,31-6.2,6.2-7,27-10.69,26.48s-21.69-9.3-42.81,2.24c-8.93,4.89-22.79,14.85-38.13,32.15-21.87-10.37-44.49-31.64-50.54-50.75,6.6-4.81,13.18-9.51,19.68-14.09l0,0q12.57-8.87,24.75-17.18l3.45-2.35c39.46-26.86,66.14-42.43,84.09-50.93,46.16-21.88,34.67,3,34.67,3Z"/><path class="cls-13" d="M1320.44,1495.1c-.22.51-.46,1-.69,1.54h0c-38.23,4.19-34.34-15.48-36.84-17.33s-3.92,0-3.92,0-22.27,6.43-34.31,2.53a128.55,128.55,0,0,1-11,8c-4.66,3.16-25,9.59-40.64,14.27-10.53,3.14-18.92,5.49-18.92,5.49s13.31-22.5,26.82-42.57c9.6-14.22,52.22-14.75,76.19-13.85,9.82.37,16.51,1,16.51,1Z"/><path class="cls-14" d="M893.6,1912.33c-37.07,213.63-45,528.14-38.19,547.7s39.39,6,39.39,6,122.12-232.61,113.77-427.81S893.6,1912.33,893.6,1912.33Z"/><path class="cls-15" d="M893.6,1912.33c-.14,1.79-.24,3.6-.34,5.41a429.68,429.68,0,0,0,7.2,102.35q6.84,36.53,14.49,70.8c49.48,222.64,119,369.14,119,369.14h55.67s6.53-315.82,20.71-542C1082.75,1924.29,974,1945.53,893.6,1912.33Z"/><path class="cls-16" d="M1195.68,1588.52c-20.91,23.58-44.54,60.82-62.1,117.36-2.24,7.23-4.39,17.48-6.45,30.31-2.26,14.07-4.43,31.2-6.47,50.76-3.83,36.61-7.28,81.71-10.37,131.11-27.54,6.23-136.31,27.47-216.69-5.73.3-4.76.71-9.49,1.2-14.17,15.27-146.64,111.44-251.61,210.08-329.86,13.43-10.66,26.93-20.81,40.26-30.53C1151.19,1556.88,1173.81,1578.15,1195.68,1588.52Z"/><path class="cls-17" d="M1127.13,1736.19c-2.26,14.07-4.43,31.2-6.47,50.76-44.36,36.62-112.91,91.31-167.28,126.16-25.39,16.27-44.82,7.43-58.58-14.95,15.27-146.64,111.44-251.61,210.08-329.86,18.92-2.21,33.47-2.13,40.26.44l14.32,11.25c-.11,25.8-46.15,95.48-49.53,128.42C1108.63,1721.13,1116.71,1730,1127.13,1736.19Z"/><path class="cls-7" d="M1318.57,1496.4c-27.88-1.13-26.75-24.21-29.57-19.43s-34.34,13.23-49.55-9c0,0-.28,3.06-21.32,19.7l-.37.28c-21.38,16.9-52.37,32.39-57.15,28.17s0-12.67,13.23-19.67c11.12-5.86,15.29-17.8,12-37.4a117.32,117.32,0,0,0-2.69-12c-7.31-26.9,15.78-52.26,46.81-49.47s56.24,20.87,57.93,14.68,18.58-26.76,46.46-4.8,3.11,34.08,1.42,43.08,14.63,3.11,20,17.47S1346.44,1497.53,1318.57,1496.4Z"/><path class="cls-12" d="M1275.44,1734.72c-20,2.24-78.29,11-119.68,31.81S915,1912.92,910.54,1820c-2.53-52.09,19.19-95,45.12-128.22A365.24,365.24,0,0,1,992.2,1652c53.27,6.08,93.34,16.88,118.12,25.12-8.45,17.71-12.23,32.71-4.1,39.84,25.34,22.25,144.72-19.72,154.28-35.48s9-42.79,14.94-37.16-5.65,34.92-1.69,40,16.89.85,18,12.1S1295.42,1732.47,1275.44,1734.72Z"/><path class="cls-16" d="M1110.32,1677.14c-24.78-8.24-64.85-19-118.12-25.12,8.25-7.85,16-14.68,22.51-20.47,80-71,130.72-72.81,143.67-54.23C1167.18,1589.94,1128.25,1639.62,1110.32,1677.14Z"/><path class="cls-13" d="M1110.32,1677.14c-77.74-5.64-128.25,5.7-154.66,14.67A365.24,365.24,0,0,1,992.2,1652C1045.47,1658.1,1085.54,1668.9,1110.32,1677.14Z"/><path class="cls-13" d="M1195.68,1588.52c-21.87-10.37-44.49-31.64-50.54-50.75,6.6-4.81,13.18-9.51,19.68-14.09C1154.18,1534,1158.37,1552.71,1195.68,1588.52Z"/><path class="cls-18" d="M1229,1456.3a184.17,184.17,0,0,1-10.82,31.37l-.37.28c-21.38,16.9-52.37,32.39-57.15,28.17s0-12.67,13.23-19.67c11.12-5.86,15.29-17.8,12-37.4C1202.05,1457.55,1229,1456.3,1229,1456.3Z"/><path class="cls-12" d="M1250.57,1499.92c6.76-32.24-20.41-55.18-35.9-37.73s-.14,43.64,16.33,46.88S1250.57,1499.92,1250.57,1499.92Z"/><path class="cls-13" d="M1232.69,1493.59c6.25-9.38,2.68-29.43-6.9-24.92s2.26,7.32,3.8,10.7-4.22,5.49-.28,7.32S1231,1496.12,1232.69,1493.59Z"/><path class="cls-3" d="M946.65,2478.76v101.47a29,29,0,0,1-29,29H615.26a29,29,0,0,1-29-29V2478.76c0,4,2.6,7.71,6.88,10.55,5.33,3.54,13.27,5.78,22.14,5.78H917.63c8.86,0,16.81-2.24,22.13-5.78C944.05,2486.47,946.65,2482.78,946.65,2478.76Z"/><path class="cls-4" d="M946.65,2377.27v101.49c0,4-2.6,7.71-6.89,10.55-5.32,3.54-13.27,5.78-22.13,5.78H615.26c-8.87,0-16.81-2.24-22.14-5.78-4.28-2.84-6.88-6.53-6.88-10.55V2377.27a29,29,0,0,1,28-29h303.4c.56,0,1.12,0,1.68.05h.1c.53,0,1,.08,1.56.13s1,.13,1.5.23,1.14.2,1.72.33c.88.2,1.74.45,2.59.73A29.87,29.87,0,0,1,932,2352c.35.19.68.39,1,.61s.89.56,1.32.87.65.47,1,.73l.76.6c.25.2.51.41.74.63.39.34.77.69,1.15,1.06l.48.48a21.6,21.6,0,0,1,1.63,1.82A28.93,28.93,0,0,1,946.65,2377.27Z"/><path class="cls-1" d="M802.64,2507.91H730.25a8.28,8.28,0,0,1-8.27-8.27v-7.45a8.26,8.26,0,0,1,8.27-8.27h72.39a8.26,8.26,0,0,1,8.27,8.27v7.45a8.29,8.29,0,0,1-8.27,8.27Z"/><path class="cls-11" d="M1682,2520.49c-10.54,2.82-49.34,22.69-61.17,30.38l-16.48-15.6c-49.94-47.25-107.87-101-127.24-99.06a64,64,0,0,0-17.74,4.73c-29.75,12.16-59.4,42.59-59.4,42.59s-163.26,16.37-213.68-3.8c-8-3.18-13.15-7.28-14.38-12.52-9-38.3,42.79-61.95,42.79-61.95,193.43-141.06,282.12-185.82,333.64-120.79C1582.25,2327.3,1642.43,2444.49,1682,2520.49Z"/><path class="cls-19" d="M1459.34,2440.94c-29.75,12.16-59.4,42.59-59.4,42.59s-163.26,16.37-213.68-3.8c31.89-22.61,71.49-33.5,71.49-33.5C1306.64,2419.45,1425,2432.58,1459.34,2440.94Z"/><path class="cls-12" d="M1763.91,2601.51a129.94,129.94,0,0,0-13.45-.54.18.18,0,0,1-.1,0c-20.36-.2-56,.56-69.23.56-2.06,0-6.07-2.4-11.59-6.65-2.67-2.05-5.69-4.53-9-7.39-3.61-3.09-7.6-6.62-11.87-10.49,12-5.67,37.58-18.82,47.69-25.29a2,2,0,0,1,.22-.15c11.11,20.91,18.68,34.33,20.64,35.12C1725.63,2590,1772.93,2602.88,1763.91,2601.51Z"/><path class="cls-11" d="M1698.12,2550.48l-1.58,1.06c-10,6.44-35.8,19.73-47.91,25.44l-1.56.73c-2.94,1.37-4.74,2.11-4.88,2,0,0-24.14-23.5-24.83-26-.07-.29.62-.93,2-1.84l1.48-1c11.83-7.69,50.63-27.56,61.17-30.38l.38-.1a7.08,7.08,0,0,1,1.67-.24c6.69.48,15.42,25.29,16.54,28C1700.69,2548.48,1699.8,2549.29,1698.12,2550.48Z"/><path class="cls-19" d="M1682,2520.49c-10.54,2.82-49.34,22.69-61.17,30.38l-16.48-15.6C1632.61,2542.86,1662.61,2519.58,1682,2520.49Z"/><path class="cls-13" d="M1696.32,2551.69c-3,2.11-34.6,24.8-35.8,31.24a9.65,9.65,0,0,0,0,4.54c-3.61-3.09-7.6-6.62-11.87-10.49C1660.65,2571.31,1686.21,2558.16,1696.32,2551.69Z"/><path class="cls-13" d="M1750.36,2601c-20.36-.2-56,.56-69.23.56-2.06,0-6.07-2.4-11.59-6.65,12.77,3.48,63.52,6.3,77.27,5.93A24.23,24.23,0,0,1,1750.36,2601Z"/><path class="cls-7" d="M1733,2602.21a1.15,1.15,0,0,1-1.07-.72,7.79,7.79,0,0,1,1.4-8.26,6,6,0,0,1,5.81-2.21,1.16,1.16,0,0,1,.8,1.42,1.15,1.15,0,0,1-1.42.8,3.88,3.88,0,0,0-3.48,1.53,5.45,5.45,0,0,0-1,5.86,1.16,1.16,0,0,1-.65,1.5A1,1,0,0,1,1733,2602.21Z"/><path class="cls-7" d="M1764.79,2604.24h-85.63a1.73,1.73,0,1,1,0-3.45h85.63a1.73,1.73,0,1,1,0,3.45Z"/><path class="cls-11" d="M1395.43,2604.18c-57,0-144.44-2.53-251.71,0-74.25,1.76-126.85-24-151.21-54.46-10.85-13.55-16.1-28-15.19-41.41-7.48-49.72,64.55-60.19,118.44-61.17a518.08,518.08,0,0,1,56.41,2s199.34-26.18,292.25,29.57S1452.44,2604.18,1395.43,2604.18Z"/><path class="cls-19" d="M1202.36,2510.83c-26.12,26.2-18.94,38-40.48,36.34s-60-39.7-98.4-31.26c-32.59,7.17-56.68,17.07-71,33.81-10.85-13.55-16.1-28-15.19-41.41-7.48-49.72,64.55-60.19,118.44-61.17C1157.27,2468.17,1202.36,2510.83,1202.36,2510.83Z"/><path class="cls-20" d="M996.79,2554.7c9.67,1.33,21.5-12.6,22.76-14.29s58.29,29.56,63.35,41.39-6.33,17.31-29.14,13.09S1000.63,2565.62,996.79,2554.7Z"/><path class="cls-1" d="M924.6,2348.25c.61,0,1.22,0,1.82.06C925.81,2348.28,925.21,2348.25,924.6,2348.25Z"/><path class="cls-9" d="M1365.58,2101.74c-23.92,14.07-48.23,19.54-58.92,39.85a42.79,42.79,0,0,0-3.13,7.62v0a51.38,51.38,0,0,0-1.57,6.57c-1.07,6.16-4.61,8.85-9.7,9-21.76.65-71.39-45.26-71.39-60.79,0-19.15-22-116.56-4.51-143.59s89.86-149.24,89.86-149.24a48.24,48.24,0,0,0,2.68,6.53c15.81,32.13,60,36,49.92,75.14-10.69,41.66-52.92,77.13-29.27,127.81S1394.3,2084.85,1365.58,2101.74Z"/><path class="cls-21" d="M1306.66,2141.59a62.23,62.23,0,0,1-3.13,7.62v0a55.61,55.61,0,0,1-11.27,15.56c-21.76.65-71.39-45.26-71.39-60.79,0-19.15-22-116.56-4.51-143.59s89.86-149.24,89.86-149.24a48.24,48.24,0,0,0,2.68,6.53c-3.53,10.77-7.3,22.82-6.7,32.72.64,10.56-10.38,44.38-3.91,58.74s-23.51,30.69-38.78,48.43,5,94.06,37.94,128.1C1310.1,2098.75,1313.33,2121.69,1306.66,2141.59Z"/><path class="cls-9" d="M1290.69,1825c-10.47,1.82-4.22,36.74-55.32,29.56,0,0-.58,5.63-1.61,14.92-3.88,35.29-14.12,123.52-23,157.39-11.27,42.79-32.1,67-108.12,101.36-37,16.71-53.72,10.9-60-.91-6.67-12.43-1.76-31.51,3.16-37.79,9.58-12.23,21.4-17.05,13-59.84s44.48-49.56,80.51-90.66a49.56,49.56,0,0,0,7-10.21c6.86-13.31,5.41-26.91,1.71-40.59-6.86-25.58-21.48-51.41-3.79-75.9,29.57-41,60.82-12.25,76-46.46s92.07-37.59,114.88-2.11S1301.17,1823.15,1290.69,1825Z"/><path class="cls-21" d="M1233.76,1869.46c-3.88,35.29-14.12,123.52-23,157.39-11.27,42.79-32.1,67-108.12,101.36-37,16.71-53.72,10.9-60-.91,15.68-12.3,34.68-22.64,43.7-28.65,24.08-16.05,78-72.64,93.47-106.43s13.25-81.65,12.12-84.75c-.7-1.88-25.9,11-45.65,21.33,6.86-13.31,5.41-26.91,1.71-40.59,12.29-11.74,50.49-44.23,60.09-50.53C1208,1837.68,1224.28,1852.19,1233.76,1869.46Z"/><path class="cls-12" d="M1578.44,2009.11c-1.58,12.89-38.62,15.07-68.12,31.37-13,7.18-24.6,17.13-31,32-20.85,48.44-70.23,239.33-166.89,195.41q-9.71-4.41-18.4-9c-6.84-3.6-13.22-7.28-19.2-11,11.65-25.88,43.63-82.61,62.28-112.22l0,0c16.72,8.55,32.91,5.34,49.83-11.28,22.13-21.76,64.74-71.63,91-117.06,13.16-22.77,18.27-57.25,22.59-60.81,6.57-5.44,4.51,12.39,2.77,29.41-1.67,16.5-3,32.23,4.12,25.13C1558.86,1950,1580.68,1990.53,1578.44,2009.11Z"/><path class="cls-18" d="M1337.15,2135.56c-18.65,29.61-50.65,86.36-62.3,112.24-65-40.88-80.13-89.52-65.23-121.28,17.43-37.16,76.56-46.74,76.56-46.74C1304.43,2108.24,1321,2127.35,1337.15,2135.56Z"/><path class="cls-7" d="M1274.22,2186.92c-44.77,49.41-43.21,206.52-17.32,238.06s-2.82,37.72-13,47.3-32.66,27.58-44.9,42.37-32-21.12-55.9-24.08-108.39-5.62-125.84-8.16c-17.23-2.5-30.33,44.3-40.68,44.5a3.1,3.1,0,0,1-.44,0c-10.41-1.13-28.43-60.81,26.47-124.16,27.52-31.76,54.41-73.5,76.29-117.34h0c7.41-14.89,14.27-30,20.37-45.06,11.79-29,20.8-57.89,25.8-84.24,9.47-50,29.41-87.16,44.95-116.47,8.85-16.7,16.27-30.86,19.51-43.35,15.68,3,41-.32,54.8-2.6,4.33,20.63,15.7,44.38,34.94,61.48C1313.07,2085.13,1319,2137.5,1274.22,2186.92Z"/><path class="cls-12" d="M1300.27,1870.3c0,7.89,11,41.39-12.67,58.57a91.71,91.71,0,0,1-13.77,8.38c-.47.25-.94.47-1.42.69-5.67,2.64-10,3.87-13.82,5.73-4.54,2.23-8.26,5.34-12.38,12.79-4.36,7.87-5.08,21.65-1.81,37.21-13.78,2.28-39.12,5.63-54.8,2.6.22-.79.41-1.58.58-2.36,1-4.73,2.21-10.25,3.49-16.29,4.8-22.33,11.24-51.79,18.77-74.95,0,0,0,0,0,0,5.34-16.45,11.22-29.73,17.42-35,6.94-5.93,18.16-19.93,29.63-33.21,17.13-19.87,34.81-38.15,39.63-25.49,5.35,26.47-.56,43.92,10.13,47S1300.27,1862.43,1300.27,1870.3Z"/><path class="cls-13" d="M1259.51,1834.42c-7.55,16.5-14.53,26.08-19.21,31.1-3.6,3.84-16.24,19.8-27.84,37.13,5.34-16.45,11.22-29.73,17.42-35C1236.82,1861.7,1248,1847.7,1259.51,1834.42Z"/><path class="cls-12" d="M1250.15,1863.83c-16.61-36-50.4-40.54-50.68-2.81s56.59,13.79,56.59,13.79Z"/><path class="cls-13" d="M1236.86,1864.8c-5-14.91-21.61-13-22.11-3.49s13.13-2.08,14.79,3.83S1240.6,1875.94,1236.86,1864.8Z"/><path class="cls-13" d="M1272.41,1937.94c-5.67,2.64-10,3.87-13.82,5.73-16.57-4.48-23.41-16-25.07-19.28C1237.93,1932.71,1257.66,1944.31,1272.41,1937.94Z"/><path class="cls-13" d="M1244.4,1993.67c-13.78,2.28-39.12,5.63-54.8,2.6.22-.79.41-1.58.58-2.36,1-4.73,2.21-10.25,3.49-16.29,1.27,4.45,3.15,8.72,6,11.42C1207.91,1996.87,1244.4,1993.67,1244.4,1993.67Z"/><path class="cls-18" d="M1256.57,2103.43c-15.73,33.33-104,99.28-157.23,136.9,11.79-29,20.8-57.89,25.8-84.24,9.47-50,29.41-87.16,44.95-116.47,14.73-1.67,39.85-2.73,63.67,2.71C1233.76,2042.33,1279.34,2055.15,1256.57,2103.43Z"/><path class="cls-12" d="M1143.15,2194.28c-16,9.29-32.59,18.26-49.22,26.68-13.92,7.06-27.85,13.73-41.43,19.88-42.56,19.27-79.56,39-110.79,56.19C889.88,2325.58,854,2347.2,835,2348.25c-30.4,1.69-71.37,0-81.93,0-4.61,0,4.12-1.37,17.15-3.47,16.84-2.72,40.86-6.65,52.54-10.47,20.69-6.76,106.71-103.61,161-159.93,19.14-19.83,42.74-40.15,68.11-58.77,12.54-9.21,25.51-18,38.61-26.1C1119.33,2116,1135.48,2164.36,1143.15,2194.28Z"/><path class="cls-7" d="M1143.15,2194.28c-7.67-29.92-23.82-78.3-52.64-104.77,67-41.56,137-65.18,166.39-35.07C1291.35,2089.71,1225.48,2146.39,1143.15,2194.28Z"/><path class="cls-13" d="M1337.13,2135.58c-15.37,42.16-41.74,88.86-43.08,123.27-6.84-3.6-13.22-7.28-19.2-11C1286.5,2221.92,1318.48,2165.19,1337.13,2135.58Z"/><path class="cls-13" d="M1578.44,2009.11c-1.58,12.89-38.62,15.07-68.12,31.37-14.71-2.39-30.83-5.87-31.13-9.69-.56-7,18.28-40.34,24.17-55-1.67,16.5-3,32.23,4.12,25.13C1558.86,1950,1580.68,1990.53,1578.44,2009.11Z"/><path class="cls-7" d="M1552.24,2044.69l-51.73-22.09a12.26,12.26,0,0,1-6.46-16.08l55.33-129.71a12.25,12.25,0,0,1,16.08-6.47l51.73,22.09a12.27,12.27,0,0,1,6.46,16.08l-55.33,129.72A12.25,12.25,0,0,1,1552.24,2044.69Z"/><path class="cls-1" d="M1614.93,1896.84l-10-4.28a2.7,2.7,0,0,0-3.52,1.51l-.78,1.81a2.7,2.7,0,0,1-3.52,1.51l-19.55-8.35a2.7,2.7,0,0,1-1.35-3.58l.77-1.82a2.71,2.71,0,0,0-1.35-3.59l-3.52-1.51-8.78-3.74a8.57,8.57,0,0,0-11.26,4.52l-54,126.61a8.58,8.58,0,0,0,4.53,11.26l51.63,22a8.59,8.59,0,0,0,11.26-4.53l54-126.61A8.58,8.58,0,0,0,1614.93,1896.84Z"/><polygon class="cls-9" points="1593.63 1939.73 1582.07 1969.89 1532.98 1951.08 1544.54 1920.92 1564.48 1942.34 1593.63 1939.73"/><polygon class="cls-21" points="1593.63 1939.73 1564.48 1942.34 1544.54 1920.92 1593.63 1939.73"/><circle class="cls-1" cx="1564.48" cy="1942.34" r="2.74"/><path class="cls-10" d="M1553.1,1973.26c.78-.15,14.43,16.65,14.11,17.39s-20.21,5.42-20.91,4.35,2.66-5.62,1-6.92-22.41-8.06-22.71-9.62.91-6.3,2.45-7.24c.88-.54,21.81,10,23.38,8.61C1551.17,1979.12,1553.1,1973.26,1553.1,1973.26Z"/><path class="cls-13" d="M941.71,2297C889.88,2325.58,854,2347.2,835,2348.25c-30.4,1.69-71.37,0-81.93,0-4.61,0,4.12-1.37,17.15-3.47a279.36,279.36,0,0,0,28,1.36C834.37,2346.17,896.44,2318.78,941.71,2297Z"/><path class="cls-13" d="M1093.93,2221c9.36-10.58,21.07-92.46-3.42-131.45,28.82,26.47,45,74.85,52.64,104.77C1127.16,2203.57,1110.56,2212.54,1093.93,2221Z"/><path class="cls-18" d="M976.78,2484.66a253.92,253.92,0,0,0-.15,42.25,3.1,3.1,0,0,1-.44,0c-10.41-1.13-28.43-60.81,26.47-124.16,27.52-31.76,54.41-73.5,76.29-117.34h0C1066,2345,981,2431.16,976.78,2484.66Z"/><polygon class="cls-9" points="1947.26 1810.8 1982.47 1897.95 1840.62 1955.28 1805.4 1868.12 1890.35 1874.17 1947.26 1810.8"/><polygon class="cls-21" points="1947.26 1810.8 1890.35 1874.17 1805.4 1868.12 1947.26 1810.8"/><circle class="cls-1" cx="1890.35" cy="1874.17" r="7.97"/><path class="cls-21" d="M1746.22,1982a1.66,1.66,0,0,1-1.23-.54,1.68,1.68,0,0,1,.08-2.38c.33-.32,34.25-31.79,81.88-42.33a1.69,1.69,0,0,1,.73,3.3c-46.73,10.34-80,41.18-80.3,41.49A1.68,1.68,0,0,1,1746.22,1982Z"/><path class="cls-21" d="M1753.39,1940.38a1.65,1.65,0,0,1-1.23-.53,1.68,1.68,0,0,1,.08-2.39c.33-.31,13.59-17.9,61.21-28.43a1.69,1.69,0,1,1,.73,3.3c-46.73,10.33-59.3,27.29-59.63,27.6A1.71,1.71,0,0,1,1753.39,1940.38Z"/><path class="cls-21" d="M1723.69,1920.18a1.69,1.69,0,0,1-1.15-2.92c.33-.32,24.45-24.84,72.08-35.38a1.69,1.69,0,1,1,.72,3.3c-46.72,10.34-70.16,34.23-70.49,34.54A1.68,1.68,0,0,1,1723.69,1920.18Z"/><path class="cls-7" d="M3601.94,1931.5a126.54,126.54,0,0,1-42.08,2.92c-26-2.29-48.12-12.55-67-27.58-2.05-1.64-4.08-3.33-6.07-5.11-25.74-22.71-45-54.28-59.11-85.38a471.05,471.05,0,0,1-20.23-53.44,0,0,0,0,0,0,0,.23.23,0,0,0,.14-.07c15.49-10.54,44.34-32.5,51.27-39.41,7.62,5.18,15.53,10.26,23.35,15.12,17,10.56,33.67,19.91,45.94,26,8.94,4.5,15.53,7.26,18.29,7.53,1.34.14,3.33-.73,5.86-2.37v0c15.23-10,50.42-48.58,87.35-67.49,16.24-8.35,32.82-12.86,48.16-9.46,0,0,8.51-1,17.13,22.76,3,8.21,6,19.36,8.69,34.55C3722.7,1801.45,3685.57,1910.33,3601.94,1931.5Z"/><path class="cls-18" d="M3601.94,1931.5a126.54,126.54,0,0,1-42.08,2.92c-26-2.29-48.12-12.55-67-27.58-2.05-1.64-4.08-3.33-6.07-5.11,5.87.82,11.57.64,14.87-2,8.81-7.16,17.11-63.84,50.66-130v0c15.23-10,50.42-48.58,87.35-67.49,16.24-8.35,32.82-12.86,48.16-9.46,0,0,8.51-1,17.13,22.76,3,8.21,6,19.36,8.69,34.55C3722.7,1801.45,3685.57,1910.33,3601.94,1931.5Z"/><path class="cls-12" d="M3387.31,1675.16c-11.48,8.87-38.32,3.25-32.23,18.12,4.45,10.83,26.93,19.26,41.54,30.53,5.44,4.19,9.79,8.78,11.71,14,7.09,19.4,41,6.35,19.56-36a120.26,120.26,0,0,0-6.55-11.33c-25-38.45-69.06-62.88-73.88-60.8C3342.19,1632,3398.79,1666.29,3387.31,1675.16Z"/><path class="cls-13" d="M3396.68,1723.63l-.06.18c5.44,4.19,9.79,8.78,11.71,14,7.09,19.4,41,6.35,19.56-36a120.26,120.26,0,0,0-6.55-11.33C3417,1709.94,3398.07,1718.54,3396.68,1723.63Z"/><path class="cls-7" d="M3398,1768.51c.71-.1,2.52-1.11,5.11-2.74,1.26-.8,2.73-1.77,4.32-2.86,15.45-10.49,44.49-32.57,51.44-39.49,1.15-1.16,1.7-1.88,1.47-2.08-9.05-7.88-14.2-19.67-21.42-21.41-1.39-.34-4.26.45-7.94,2-.26.13-.53.23-.8.35-9.63,4.2-24.31,13.19-33.53,21.37-5.69,5-9.31,9.78-8.41,12.88C3391.29,1746.77,3393.07,1769.26,3398,1768.51Z"/><circle class="cls-18" cx="3402.47" cy="1741.91" r="6.59"/><path class="cls-18" d="M3482.25,1738.54c-7.76-.77-16.1-1.57-20.2-1.84-8.45-.52-51.52,24.44-54.42,26.12,15.47-10.53,44.34-32.51,51.28-39.41C3466.51,1728.58,3474.43,1733.68,3482.25,1738.54Z"/><path class="cls-12" d="M3660.72,1663.9c1.14-5.56.81-9.66-.77-13.16h0c-3.22-7.23-11.71-11.87-23.3-21.6-1-.86-2.09-1.77-3.18-2.72-1.38-1.22-2.79-2.52-4.26-3.9-21.54-20.46,1.86-45,1.45-58.49s-10.24-4.76-13.17-10,27.72-23,27-46.7c0,0,4.69-.47,12.45-.84,4.94-.25,11.13-.48,18.15-.52,18-.08,32.6,33.59,33.32,44.35s1.38,42.62.19,68c-.27,5.7,2.31,20,6.36,40.11-7.58.29-47.81,9.94-58.16,14.67C3659,1669.1,3660.28,1666.11,3660.72,1663.9Z"/><path class="cls-13" d="M3710.78,1653.4c2.34-3.76-8.9-26.8-6.19-41.28s-.28-13.19-2.4-21.67,1.14-15.86-1.59-23.07-1.44-17.19-1.44-17.19-14.06-6.51-17.33-13.13-4.62-10.32-4.62-10.32-2.56-5.48-6.09-4-18.44,3.13-25.74-.45a78.07,78.07,0,0,1,11.6-15.87c4.94-.25,11.13-.48,18.15-.52,18-.08,32.6,33.59,33.32,44.35s1.38,42.62.19,68c-.27,5.7,2.31,20,6.36,40.11-7.58.29-47.81,9.94-58.16,14.67C3665.9,1665.64,3708.44,1657.16,3710.78,1653.4Z"/><path class="cls-9" d="M3766.05,2528.7c-.29,6.47-.59,12.5-.92,18l-57.91,2.56c-11.27-25.07-36.3-74.7-62.75-127.25-14.68-29.15-29.79-59.19-43.24-86.44-20.18-40.9-36.63-75.51-42.22-91.3-12.07-34.14,74.62-143,136.47-214.63,33.06-38.3,59-66,59-66C3769.6,2111.2,3771.61,2403.27,3766.05,2528.7Z"/><path class="cls-21" d="M3739.21,2029.64c3.94,88.88-70.83,320.83-94.74,392.41-14.68-29.15-29.79-59.19-43.24-86.44-20.18-40.9-36.63-75.51-42.22-91.3-12.07-34.14,74.62-143,136.47-214.63A389.59,389.59,0,0,1,3739.21,2029.64Z"/><path class="cls-9" d="M3754.5,1963.7c-8.53,130-75.86,261.82-153.27,371.91-59.91,85.18-125.82,157.34-175.2,205.64-8,7.83-15.55,15-22.57,21.51L3331,2566c23.4-75.4,77.71-307.8,158-532q12.87-35.92,25.11-67.48c11.8-30.5,23.13-58,33.87-83,17.59-40.78,33.66-74.42,47.8-102.11,29.4-40.25,71.64-89.08,93.33-86.23,20.11,3.93,37.15,39.07,39.16,71.36s4.38,122.59,6.73,131.74c1.46,5.61,2.85,16.51,19.84,18.33A460.46,460.46,0,0,1,3754.5,1963.7Z"/><path class="cls-7" d="M3716.54,1666c-.64,2.89-62.13,29.57-64.73,31.41-1.94,1.39-1-9.22.73-16.73a27,27,0,0,1,1.91-6.12,5.82,5.82,0,0,1,2.39-1.54c10.35-4.73,50.58-14.38,58.16-14.67.68,0,1.1,0,1.21.16C3717.76,1660.37,3717.18,1663.14,3716.54,1666Z"/><path class="cls-7" d="M3403.46,2562.77c-29.66,27.52-49.93,43.08-53.61,43.25-16.94.75-71.55,3.94-77,3.41s34.93-12.35,47.77-18.32c2.16-1,5.64-9.84,10.39-25.14Z"/><path class="cls-7" d="M3765.13,2546.74c-1.53,26.06-3.49,55-5.79,55.14L3643.88,2607c-8.46.38,67.57-17.21,69.59-27.33.28-1.37-2-21-6.25-30.36Z"/><path class="cls-21" d="M3766.05,2528.7c-.29,6.47-.59,12.5-.92,18l-57.91,2.56s52-6.74,53.35-7C3761.35,2542.17,3764,2534.88,3766.05,2528.7Z"/><path class="cls-21" d="M3426,2541.25c-8,7.82-15.54,15-22.56,21.52L3331,2566s70.52-11.22,74-11.37C3406.78,2554.52,3416.69,2547.82,3426,2541.25Z"/><circle class="cls-21" cx="3719.26" cy="1913.55" r="10.83"/><path class="cls-16" d="M3768.25,1553.88c-2.84,9.56-22.79,11.94-23.11,13.72s19.54,19.38,5.81,31.27c-.28.24-.59.49-.91.73-15.48,11.87-23.89,4.92-23.51,8.94s-15.2,13.6-19.28,21.88-5-20.4,0-25.84-7-10.87-2.25-24.76a32,32,0,0,0,1.37-11.79c-.55-11.72-5.37-23.45-5.37-23.45-25.25,1.63-22.11-23.19-29.32-23.38s-26.33,9-32.78-5.87a39.21,39.21,0,0,1-2.28-6.87c-2.81-12.31,2.17-22.76,21.54-19.7,18.08,2.86,66.69,20.79,90,31.94,6.24,3,10.66,5.5,12.19,7.11C3767.62,1535.4,3771.1,1544.3,3768.25,1553.88Z"/><path class="cls-17" d="M3768.25,1553.88c-2.84,9.56-22.79,11.94-23.11,13.72s19.54,19.38,5.81,31.27L3706.38,1568s9-6.49,15.09-14.21,5.45-21.45,5.45-21.58l-90.29-23.78c1.26.08,74.5,4.5,99.7,9.68,3.88.8,7.85,1.64,11.82,2.56,6.24,3,10.66,5.5,12.19,7.11C3767.62,1535.4,3771.1,1544.3,3768.25,1553.88Z"/><path class="cls-12" d="M3688.11,1556.46c8.83-26.87,42.87-33.14,46-15.41s-29.91,29.86-37.93,28.55S3688.11,1556.46,3688.11,1556.46Z"/><path class="cls-13" d="M3697.35,1559.13c1.52-8.43,15.12-21.36,20.53-15.43s-8.66,4.74-10.3,6.88-.25,4.51-2.42,4.86S3697.13,1560.35,3697.35,1559.13Z"/><path class="cls-21" d="M3773,1516.51l-11.57-1.86a2.68,2.68,0,0,0,.07-.27c.08-.26.14-.51.19-.75,18.65-72.52-91.52-108.26-115.58-29.55q-1.24,4.05-2.18,8.53c-.2,1-.39,2-.58,3l-11.22-1.8-.36,0q.27-1.66.6-3.33c.63-3.12,1.39-6.22,2.3-9.3,4.39-14.81,12.27-28.7,24.57-38.36,15.55-12.57,36.81-17.12,56.34-13.36,19.61,3.56,37.71,15,48.81,31.56C3775.35,1477.09,3777.94,1497.91,3773,1516.51Z"/><path class="cls-22" d="M3761.69,1513.63c-.05.24-.11.49-.19.75a2.68,2.68,0,0,1-.07.27l-118.08-19c.19-1,.38-2,.58-3q.93-4.48,2.18-8.53C3670.17,1405.37,3780.34,1441.11,3761.69,1513.63Z"/><path class="cls-9" d="M3771.25,1530.13,3627.71,1507a7.24,7.24,0,0,1-1.42-.39,6.84,6.84,0,0,1,3.23-13.17l.37,0,11.22,1.81,118.07,19,11.57,1.86,2.68.43a6.85,6.85,0,0,1-2.18,13.52Z"/><path class="cls-18" d="M3705.25,1751.43c10.82,59.31,7.53,107.43,1.26,148.48s-77.11,40.13-107.33,4,14-120.79,58.89-160.84Z"/><path class="cls-13" d="M3660,1650.73c-3.22-7.23-11.71-11.87-23.3-21.6,9.91,7.56,27.4,13.75,29.91,14.09C3669.37,1643.57,3657.35,1644,3660,1650.73Z"/><path class="cls-12" d="M3605.86,1618.48c-11.9-31-15.3-40.83-7.38-35.38s12,20.51,24,33.35c2.64,2.85,3,14.66,2.16,31.2a162.39,162.39,0,0,0-23.49-2.15C3605.57,1632.48,3607.62,1623,3605.86,1618.48Z"/><path class="cls-7" d="M3625,1674.85c-.13.37-1.07.62-2.57.73-6.64.6-24.25-.93-31.68-2.67-2.1-.5-3.38-1-3.38-1.48,0-2.28,7.05-23.37,8.76-25.29.41-.46,2.3-.64,5-.64a162.39,162.39,0,0,1,23.49,2.15,4.47,4.47,0,0,1,1.94.59C3627.12,1649.38,3626,1672.37,3625,1674.85Z"/><path class="cls-18" d="M3716.54,1666c-.64,2.89-62.13,29.57-64.73,31.41-1.94,1.39-1-9.22.73-16.73-4.15,7.08-9.76,16.24-16.69,28a52.79,52.79,0,0,1,8.9-5.27,51.59,51.59,0,0,0-8.89,5.28c-10.54,17.78-24.09,41.48-40.08,72.79,29.4-40.25,71.64-89.08,93.33-86.23a52.6,52.6,0,0,0-16.7-.16,52.55,52.55,0,0,1,16.69.15c20.13,3.94,37.17,39.08,39.16,71.38s4.38,122.57,6.74,131.72c1.46,5.62,2.86,16.51,19.84,18.35C3751.48,1829.77,3728.84,1726.28,3716.54,1666Z"/><path class="cls-7" d="M3563.83,1965.48c-84.18-43.65-8.32-205,26.94-292.57,7.43,1.74,25,3.27,31.68,2.67-.23,2.44-.48,4.91-.73,7.42-5.93,59.68-17.27,136.61-10.5,130.27,10.59-9.92,24.64-40.9,40.26-62,25.77-34.81,53-36.79,56.4,20.13C3711.41,1831.49,3716,2044.37,3563.83,1965.48Z"/><circle class="cls-18" cx="3619.42" cy="1660.61" r="3.85"/><path class="cls-18" d="M3622.45,1675.58c-.23,2.44-.48,4.91-.73,7.42-8.44-2.56-22.15-5.71-30.95-10.09C3598.2,1674.65,3615.81,1676.18,3622.45,1675.58Z"/><path class="cls-10" d="M2729.24,2481.1l18.9-.86s26.83-35.06,38.61-71c16.57-50.49-7-82.91-20.91-84.19s-23.74,11.17-16.71,48.86C2753.27,2396.17,2751.85,2438,2729.24,2481.1Z"/><path class="cls-1" d="M2744.05,2465.26l-.14-.08a1.17,1.17,0,0,1-.29-1.63c28.46-40.64,35.43-97.57,25.56-127a1.18,1.18,0,1,1,2.23-.75c10,30,3,87.86-25.87,129.1A1.16,1.16,0,0,1,2744.05,2465.26Z"/><path class="cls-11" d="M2703.41,2481.1l11.43-.52s16.22-21.2,23.34-42.91c10-30.53-4.22-50.13-12.65-50.9s-14.35,6.75-10.1,29.54C2717.94,2429.75,2717.08,2455,2703.41,2481.1Z"/><path class="cls-1" d="M2712.36,2471.53l-.08-.05a.72.72,0,0,1-.18-1c17.21-24.57,21.42-59,15.46-76.79a.71.71,0,0,1,.44-.9.72.72,0,0,1,.9.45c6.07,18.12,1.82,53.12-15.64,78.05A.71.71,0,0,1,2712.36,2471.53Z"/><path class="cls-10" d="M747.76,2035.08l18.9-.87s26.83-35.06,38.61-71c16.57-50.5-7-82.92-20.91-84.19s-23.74,11.17-16.71,48.85C771.79,1950.14,770.37,1991.92,747.76,2035.08Z"/><path class="cls-1" d="M762.57,2019.24a.67.67,0,0,1-.14-.09,1.17,1.17,0,0,1-.29-1.63c28.46-40.64,35.43-97.57,25.56-127a1.17,1.17,0,0,1,2.23-.74c10,30,3,87.86-25.87,129.1A1.18,1.18,0,0,1,762.57,2019.24Z"/><path class="cls-11" d="M721.93,2035.08l11.43-.53s16.22-21.19,23.34-42.91c10-30.52-4.22-50.12-12.64-50.89s-14.36,6.75-10.11,29.53C736.46,1983.73,735.6,2009,721.93,2035.08Z"/><path class="cls-1" d="M730.88,2025.5l-.08,0a.72.72,0,0,1-.18-1c17.21-24.57,21.42-59,15.46-76.79a.69.69,0,0,1,.45-.89.7.7,0,0,1,.89.45c6.08,18.12,1.82,53.11-15.64,78A.7.7,0,0,1,730.88,2025.5Z"/><path class="cls-10" d="M3811.05,2598.52l18.91-.86s26.82-35.06,38.6-71c16.57-50.5-7-82.92-20.91-84.2s-23.74,11.18-16.71,48.86C3835.09,2513.59,3833.66,2555.37,3811.05,2598.52Z"/><path class="cls-1" d="M3825.86,2582.69l-.14-.09a1.17,1.17,0,0,1-.29-1.63c28.46-40.64,35.43-97.57,25.57-127a1.17,1.17,0,1,1,2.22-.75c10,30,3,87.87-25.87,129.1A1.17,1.17,0,0,1,3825.86,2582.69Z"/><path class="cls-11" d="M3785.22,2598.52l11.43-.52s16.22-21.19,23.34-42.91c10-30.53-4.22-50.13-12.64-50.9s-14.36,6.76-10.11,29.54C3799.75,2547.17,3798.89,2572.43,3785.22,2598.52Z"/><path class="cls-1" d="M3794.17,2589l-.08,0a.71.71,0,0,1-.17-1c17.2-24.57,21.41-59,15.45-76.79a.71.71,0,0,1,.45-.89.69.69,0,0,1,.89.44c6.08,18.13,1.83,53.12-15.63,78A.71.71,0,0,1,3794.17,2589Z"/><path class="cls-5" d="M4116.07,2018.06v-168.8a4.58,4.58,0,0,1,9.16,0v168.8C4125.23,2020.59,4116.07,2020.59,4116.07,2018.06Z"/><path class="cls-5" d="M3966.9,2018.06v-168.8a4.58,4.58,0,1,1,9.16,0v168.8C3976.06,2020.59,3966.9,2020.59,3966.9,2018.06Z"/><path class="cls-5" d="M3975.67,1927.74h140.64c2.11,0,2.11,9.16,0,9.16H3975.67C3973.56,1936.9,3973.56,1927.74,3975.67,1927.74Z"/><path class="cls-5" d="M3975.67,1956.31h140.64c2.11,0,2.11,9.16,0,9.16H3975.67C3973.56,1965.47,3973.56,1956.31,3975.67,1956.31Z"/><rect class="cls-3" x="3948.09" y="1858.1" width="195.95" height="63.46" rx="0.4"/><path class="cls-1" d="M3976.79,1921.56H3962l63.46-63.46h14.8Zm-28.7-45.64v14.8l32.63-32.62h-14.81ZM4070,1858.1h-14.8l-63.46,63.46h14.8Zm-74.34,0-47.59,47.58v12a3.76,3.76,0,0,0,.7,2.08l61.69-61.69ZM4144,1903.15v-14.8l-33.21,33.21h14.8Zm0-29.77v-11.44a3.76,3.76,0,0,0-.93-2.43l-62,62h14.8Zm-14.48-15.28h-14.8l-63.47,63.46h14.81Zm-29.77,0H4085l-63.46,63.46h14.8Z"/><path class="cls-5" d="M4140.2,1856.79H3951.94a5.16,5.16,0,0,0-5.15,5.15v55.77a5.16,5.16,0,0,0,5.15,5.16H4140.2a5.16,5.16,0,0,0,5.15-5.16v-55.77A5.16,5.16,0,0,0,4140.2,1856.79Zm2.53,60.92a2.54,2.54,0,0,1-2.53,2.54H3951.94a2.54,2.54,0,0,1-2.54-2.54v-55.77a2.54,2.54,0,0,1,2.54-2.54H4140.2a2.54,2.54,0,0,1,2.53,2.54Z"/><path class="cls-5" d="M2726.92,2018.06v-168.8a4.58,4.58,0,0,1,9.16,0v168.8C2736.08,2020.59,2726.92,2020.59,2726.92,2018.06Z"/><path class="cls-5" d="M2577.75,2018.06v-168.8a4.58,4.58,0,0,1,9.16,0v168.8C2586.91,2020.59,2577.75,2020.59,2577.75,2018.06Z"/><path class="cls-5" d="M2586.52,1927.74h140.64c2.11,0,2.11,9.16,0,9.16H2586.52C2584.41,1936.9,2584.41,1927.74,2586.52,1927.74Z"/><path class="cls-5" d="M2586.52,1956.31h140.64c2.11,0,2.11,9.16,0,9.16H2586.52C2584.41,1965.47,2584.41,1956.31,2586.52,1956.31Z"/><rect class="cls-3" x="2558.94" y="1858.1" width="195.95" height="63.46" rx="0.4"/><path class="cls-1" d="M2587.64,1921.56h-14.81l63.47-63.46h14.8Zm-28.7-45.64v14.8l32.62-32.62h-14.8Zm121.93-17.82h-14.81l-63.46,63.46h14.81Zm-74.34,0-47.59,47.58v12a3.75,3.75,0,0,0,.69,2.08l61.7-61.69Zm148.36,45.05v-14.8l-33.21,33.21h14.8Zm0-29.77v-11.44a3.81,3.81,0,0,0-.93-2.43l-62.05,62h14.8Zm-14.49-15.28h-14.8l-63.46,63.46h14.8Zm-29.77,0h-14.8l-63.46,63.46h14.8Z"/><path class="cls-5" d="M2751,1856.79H2562.78a5.16,5.16,0,0,0-5.15,5.15v55.77a5.16,5.16,0,0,0,5.15,5.16H2751a5.16,5.16,0,0,0,5.16-5.16v-55.77A5.16,5.16,0,0,0,2751,1856.79Zm2.54,60.92a2.54,2.54,0,0,1-2.54,2.54H2562.78a2.54,2.54,0,0,1-2.53-2.54v-55.77a2.54,2.54,0,0,1,2.53-2.54H2751a2.54,2.54,0,0,1,2.54,2.54Z"/></g></svg>