<svg xmlns="http://www.w3.org/2000/svg" viewBox="0 0 4680 3120"><defs><style>.cls-1{fill:#fff;}.cls-2{fill:#ebeff2;}.cls-3{fill:#99a9b5;}.cls-4{fill:#4a5a66;}.cls-5{fill:#b3bbc3;}.cls-6{fill:#343d76;}.cls-7{fill:#192057;}.cls-8{fill:#6bb14e;}.cls-9{fill:#fa993b;}.cls-10{fill:#d9cfc3;}.cls-11{fill:#57a542;}.cls-12{fill:#f8bd88;}.cls-13{fill:#fc9d6b;}.cls-14{fill:#a6dfea;}.cls-15{fill:#7ccfd5;}.cls-16{fill:#fea500;}.cls-17{fill:#d74f29;}.cls-18{fill:#c43924;}.cls-19{fill:#ff790b;}.cls-20{fill:#ff8736;}.cls-21{fill:#83d35e;}</style></defs><title>jipbm_services_projecthouseselection</title><g id="Buyers_builder_looking_at_a_job_site" data-name="Buyers &amp; builder looking at a job site"><rect class="cls-1" width="4680" height="3120"/><rect class="cls-2" y="2295.52" width="4680" height="824.48"/><rect class="cls-3" x="1955.97" y="516.47" width="563.82" height="1475.79" transform="translate(4475.77 2508.72) rotate(180)"/><rect class="cls-4" x="1955.97" y="516.47" width="281.91" height="1475.79"/><rect class="cls-3" x="2256.32" y="341.04" width="199.1" height="175.42" transform="translate(4711.73 857.51) rotate(180)"/><rect class="cls-4" x="2256.32" y="341.04" width="47.45" height="175.42" transform="translate(4560.09 857.51) rotate(180)"/><rect class="cls-4" x="1939.47" y="506.23" width="627.31" height="10.23" transform="translate(4506.26 1022.7) rotate(180)"/><rect class="cls-1" x="2360.78" y="592.98" width="47.73" height="100.63" transform="translate(4769.28 1286.58) rotate(180)"/><path class="cls-1" d="M2237.89,733.1c0,1.06,63.11,1.93,140.94,1.93s141-.87,141-1.93-63.1-1.92-141-1.92S2237.89,732,2237.89,733.1Z"/><rect class="cls-1" x="2076.41" y="592.98" width="47.72" height="100.63" transform="translate(4200.55 1286.58) rotate(180)"/><path class="cls-1" d="M1953.52,733.1c0,1.06,63.11,1.93,140.95,1.93s141-.87,141-1.93-63.1-1.92-141-1.92S1953.52,732,1953.52,733.1Z"/><rect class="cls-1" x="2076.41" y="792.77" width="47.72" height="100.63" transform="translate(4200.55 1686.18) rotate(180)"/><path class="cls-1" d="M1953.52,932.9c0,1.06,63.11,1.92,140.95,1.92s141-.86,141-1.92-63.1-1.92-141-1.92S1953.52,931.84,1953.52,932.9Z"/><rect class="cls-1" x="2076.41" y="998.6" width="47.72" height="100.63" transform="translate(4200.55 2097.82) rotate(180)"/><path class="cls-1" d="M1953.52,1138.72c0,1.06,63.11,1.93,140.95,1.93s141-.87,141-1.93-63.1-1.92-141-1.92S1953.52,1137.66,1953.52,1138.72Z"/><rect class="cls-1" x="2076.41" y="1204.42" width="47.72" height="100.63" transform="translate(4200.55 2509.47) rotate(180)"/><path class="cls-1" d="M1953.52,1344.55c0,1.06,63.11,1.92,140.95,1.92s141-.86,141-1.92-63.1-1.92-141-1.92S1953.52,1343.49,1953.52,1344.55Z"/><rect class="cls-1" x="2076.41" y="1404.36" width="47.72" height="100.63" transform="translate(4200.55 2909.35) rotate(180)"/><path class="cls-1" d="M1953.52,1544.49c0,1.06,63.11,1.92,140.95,1.92s141-.86,141-1.92-63.1-1.93-141-1.93S1953.52,1543.42,1953.52,1544.49Z"/><rect class="cls-1" x="2076.41" y="1605.1" width="47.72" height="100.63" transform="translate(4200.55 3310.83) rotate(180)"/><rect class="cls-1" x="2076.41" y="1808.48" width="47.72" height="100.63" transform="translate(4200.55 3717.58) rotate(180)"/><path class="cls-1" d="M1953.52,1745.23c0,1.06,63.11,1.92,140.95,1.92s141-.86,141-1.92-63.1-1.92-141-1.92S1953.52,1744.17,1953.52,1745.23Z"/><rect class="cls-1" x="2360.78" y="795.82" width="47.73" height="100.63" transform="translate(4769.28 1692.27) rotate(180)"/><path class="cls-1" d="M2237.89,936c0,1.06,63.11,1.92,140.94,1.92s141-.86,141-1.92-63.1-1.92-141-1.92S2237.89,934.89,2237.89,936Z"/><rect class="cls-1" x="2360.78" y="998.67" width="47.73" height="100.63" transform="translate(4769.28 2097.97) rotate(180)"/><path class="cls-1" d="M2237.89,1138.79c0,1.07,63.11,1.93,140.94,1.93s141-.86,141-1.93-63.1-1.92-141-1.92S2237.89,1137.73,2237.89,1138.79Z"/><rect class="cls-1" x="2360.78" y="1201.51" width="47.73" height="100.63" transform="translate(4769.28 2503.66) rotate(180)"/><path class="cls-1" d="M2237.89,1341.64c0,1.06,63.11,1.92,140.94,1.92s141-.86,141-1.92-63.1-1.92-141-1.92S2237.89,1340.58,2237.89,1341.64Z"/><rect class="cls-1" x="2360.78" y="1404.36" width="47.73" height="100.63" transform="translate(4769.28 2909.35) rotate(180)"/><path class="cls-1" d="M2237.89,1544.49c0,1.06,63.11,1.92,140.94,1.92s141-.86,141-1.92-63.1-1.93-141-1.93S2237.89,1543.42,2237.89,1544.49Z"/><rect class="cls-1" x="2360.78" y="1607.2" width="47.73" height="100.63" transform="translate(4769.28 3315.04) rotate(180)"/><path class="cls-1" d="M2237.89,1747.33c0,1.06,63.11,1.92,140.94,1.92s141-.86,141-1.92-63.1-1.92-141-1.92S2237.89,1746.27,2237.89,1747.33Z"/><rect class="cls-1" x="2360.78" y="1810.05" width="47.73" height="100.63" transform="translate(4769.28 3720.73) rotate(180)"/><polygon class="cls-5" points="3445.61 1161.6 3445.61 1057.4 3159.96 1057.4 3159.96 1487.71 2592.99 1487.71 2592.99 1206.12 2334.85 1206.12 2334.85 1091.02 1773.03 1091.02 1773.03 748.19 1419.41 748.19 1419.41 879.22 1075.72 879.22 1075.72 1457.57 902.09 1457.57 902.09 1661.54 930.31 1992.25 3645.24 1992.25 3645.24 1790.17 3645.24 1536.77 3645.24 1161.6 3445.61 1161.6"/><rect class="cls-3" x="780.06" y="516.47" width="563.82" height="1475.79"/><rect class="cls-4" x="1061.97" y="516.47" width="281.91" height="1475.79"/><rect class="cls-3" x="844.44" y="341.04" width="199.1" height="175.42"/><rect class="cls-4" x="996.08" y="341.04" width="47.45" height="175.42"/><rect class="cls-4" x="733.07" y="506.23" width="627.31" height="10.23"/><rect class="cls-1" x="891.35" y="592.98" width="47.73" height="100.63"/><path class="cls-1" d="M1062,733.1c0,1.06-63.12,1.93-141,1.93s-141-.87-141-1.93,63.1-1.92,141-1.92S1062,732,1062,733.1Z"/><rect class="cls-1" x="1175.72" y="592.98" width="47.72" height="100.63"/><path class="cls-1" d="M1346.33,733.1c0,1.06-63.11,1.93-140.95,1.93s-141-.87-141-1.93,63.1-1.92,141-1.92S1346.33,732,1346.33,733.1Z"/><rect class="cls-1" x="1175.72" y="792.77" width="47.72" height="100.63"/><path class="cls-1" d="M1346.33,932.9c0,1.06-63.11,1.92-140.95,1.92s-141-.86-141-1.92,63.1-1.92,141-1.92S1346.33,931.84,1346.33,932.9Z"/><rect class="cls-1" x="1175.72" y="998.6" width="47.72" height="100.63"/><path class="cls-1" d="M1346.33,1138.72c0,1.06-63.11,1.93-140.95,1.93s-141-.87-141-1.93,63.1-1.92,141-1.92S1346.33,1137.66,1346.33,1138.72Z"/><rect class="cls-1" x="1175.72" y="1204.42" width="47.72" height="100.63"/><path class="cls-1" d="M1346.33,1344.55c0,1.06-63.11,1.92-140.95,1.92s-141-.86-141-1.92,63.1-1.92,141-1.92S1346.33,1343.49,1346.33,1344.55Z"/><rect class="cls-1" x="1175.72" y="1404.36" width="47.72" height="100.63"/><path class="cls-1" d="M1346.33,1544.49c0,1.06-63.11,1.92-140.95,1.92s-141-.86-141-1.92,63.1-1.93,141-1.93S1346.33,1543.42,1346.33,1544.49Z"/><rect class="cls-1" x="1175.72" y="1605.1" width="47.72" height="100.63"/><rect class="cls-1" x="1175.72" y="1808.48" width="47.72" height="100.63"/><path class="cls-1" d="M1346.33,1745.23c0,1.06-63.11,1.92-140.95,1.92s-141-.86-141-1.92,63.1-1.92,141-1.92S1346.33,1744.17,1346.33,1745.23Z"/><rect class="cls-1" x="891.35" y="795.82" width="47.73" height="100.63"/><path class="cls-1" d="M1062,936c0,1.06-63.12,1.92-141,1.92s-141-.86-141-1.92S843.16,934,921,934,1062,934.89,1062,936Z"/><rect class="cls-1" x="891.35" y="998.67" width="47.73" height="100.63"/><path class="cls-1" d="M1062,1138.79c0,1.07-63.12,1.93-141,1.93s-141-.86-141-1.93,63.1-1.92,141-1.92S1062,1137.73,1062,1138.79Z"/><rect class="cls-1" x="891.35" y="1201.51" width="47.73" height="100.63"/><path class="cls-1" d="M1062,1341.64c0,1.06-63.12,1.92-141,1.92s-141-.86-141-1.92,63.1-1.92,141-1.92S1062,1340.58,1062,1341.64Z"/><rect class="cls-1" x="891.35" y="1404.36" width="47.73" height="100.63"/><path class="cls-1" d="M1062,1544.49c0,1.06-63.12,1.92-141,1.92s-141-.86-141-1.92,63.1-1.93,141-1.93S1062,1543.42,1062,1544.49Z"/><rect class="cls-1" x="891.35" y="1607.2" width="47.73" height="100.63"/><path class="cls-1" d="M1062,1747.33c0,1.06-63.12,1.92-141,1.92s-141-.86-141-1.92,63.1-1.92,141-1.92S1062,1746.27,1062,1747.33Z"/><rect class="cls-1" x="891.35" y="1810.05" width="47.73" height="100.63"/><polygon class="cls-4" points="3812.2 1992.25 3812.16 491.25 2805.73 491.25 2805.77 986.39 2682.45 986.39 2682.46 1249.97 2050.05 1250.51 2050.14 1991.83 3812.2 1992.25"/><rect class="cls-3" x="2671" y="230.06" width="23.85" height="1762.19"/><rect class="cls-3" x="2921.41" y="230.06" width="23.85" height="1762.19"/><rect class="cls-3" x="3171.83" y="230.06" width="23.85" height="1762.19"/><rect class="cls-3" x="2674.51" y="1742.85" width="1260.5" height="23.85"/><rect class="cls-3" x="2674.51" y="1490.72" width="1260.5" height="23.85"/><rect class="cls-3" x="2674.51" y="1238.58" width="1260.5" height="23.85"/><rect class="cls-3" x="2674.51" y="986.45" width="1260.5" height="23.85"/><rect class="cls-3" x="2674.51" y="734.32" width="1260.5" height="23.85"/><rect class="cls-3" x="2921.41" y="482.19" width="1013.59" height="23.85"/><polygon class="cls-3" points="3171.83 230.06 3171.83 253.91 3422.24 253.91 3422.24 1992.25 3446.1 1992.25 3446.1 253.91 3672.66 253.91 3672.66 1992.25 3696.51 1992.25 3696.51 253.91 3923.08 253.91 3923.08 1992.25 3946.93 1992.25 3946.93 230.06 3171.83 230.06"/><rect class="cls-3" x="1919.28" y="986.39" width="23.85" height="1005.87"/><rect class="cls-3" x="2169.7" y="725.27" width="23.85" height="1266.99"/><rect class="cls-3" x="1922.87" y="1742.85" width="759.59" height="23.85"/><rect class="cls-3" x="1922.87" y="1490.72" width="759.59" height="23.85"/><rect class="cls-3" x="1922.87" y="1238.58" width="759.59" height="23.85"/><rect class="cls-3" x="2670.53" y="725.27" width="23.85" height="1266.99"/><path class="cls-2" d="M3147.34,1022.41c0-19.37-.48-48.3-3.84-56.37a10.47,10.47,0,0,0-7.84-6.29l-52.87,0-144.27-126.4a15.31,15.31,0,0,0-28.71.4l-371.3,135.63h-91.17a14.29,14.29,0,0,0-8.48,2.79l-50.36,37.33a4,4,0,0,0-1.62,3.23v.66a4,4,0,0,0,4,4h38.33a8.56,8.56,0,0,0-1.84,16.13l-30.91,45.71.66,1.61,31.65-46.81a8.37,8.37,0,0,0,2.25.31h22.14a8.67,8.67,0,0,0,2.75-.46l31.75,47,.66-1.61-31.06-45.93a8.58,8.58,0,0,0-2.29-15.91H2875.9c0,.18.06.36.1.54l5.91,25.43h0l-.38,1.52h.07l-2,7.92h-1.44c-.7,0-.7,6.22,0,6.22h20.23v863.87h-19.44v31.07h-40.07v38.31h166.06v-38.31h-40.08v-31.07H2946.4V1059h15.74c.7,0,.7-6.22,0-6.22h-1.9v-7.92h.12v-1.52h-.12v-26h102.87v11h84.22C3149,1028.39,3149,1022.42,3147.34,1022.41ZM2772.72,1008l-16.22-14.7,16.24-15.17Zm-17.6-16-17.69-16h34.84ZM2732,1008l-16.23-14.7L2732,978.14Zm5.12-29.8,16.69,15.12-16.71,15.61Zm-22.73,13.85-17.68-16h34.84Zm-23.16,16L2675,993.31l16.24-15.17Zm5.11-29.8L2713,993.33l-16.7,15.61Zm-22.72,13.85-17.68-16h34.83Zm-23.17,16-16.22-14.7,16.24-15.17Zm5.12-29.8,16.69,15.12-16.71,15.61Zm-22.72,13.85-17.69-16H2650Zm-23.17,16-16.23-14.7,16.25-15.17Zm5.12-29.8,16.69,15.12-16.71,15.61ZM2592,992.06l-17.68-16h34.84Zm-63.94,16-16.22-14.7,16.24-15.17Zm5.12-29.8,16.69,15.12-16.71,15.61Zm.37-2.17h34.83l-17.15,16Zm35.3,2.1V1008l-16.23-14.7Zm5.1.07,16.69,15.12-16.7,15.61Zm-63.49,13.85-17.69-16h34.84Zm-23.17,16-16.23-14.7,16.25-15.17Zm5.12-29.8,16.69,15.12-16.71,15.61Zm-22.73,13.85L2452,976h34.84Zm-1.36,1.27-16.71,15.61,0-30.73Zm1.38,1.25,17.59,15.94v.15H2452.5Zm40.78,0,17.58,15.94v.15h-34.8Zm40.77,0,17.58,15.94v.15h-34.8Zm40.77,0,17.59,15.94v.15h-34.81Zm40.78,0,17.58,15.94v.15h-34.8Zm40.77,0,17.58,15.94v.15h-34.8Zm40.77,0,17.59,15.94v.15h-34.81Zm40.78,0,17.58,15.94v.15h-34.8Zm22.7-16.37,16.69,15.12-16.71,15.61Zm.37-2.17H2813l-17.15,16Zm279.93,32-16.23-14.7,16.24-15.17Zm-17.61-16-17.68-16h34.84Zm-23.17,16L3006,997.69l-4.83-4.38,16.24-15.17Zm5.12-29.8,16.69,15.12-16.71,15.61Zm-22.72,13.85-17.69-16h34.84Zm-18.05-13.85,16.69,15.12-16.71,15.61Zm-42.79-35.06-14.33,18.92H2924l-14.79-18.94Zm-28.09-6.29,13.27-21.51,13.68,21.53ZM2895.05,1001l-.08.35h0l.11-.49Zm-.57,2.53,0,0-.71,3.37,0,0Zm-13.89-8.58-1.77-1.61,3.27-3Zm11.4,15.75a5,5,0,0,0,1.26-1.77h0a5,5,0,0,1-1.25,1.76ZM2960.24,976h15.9l-15.9,14.85Zm-32.79-14,12.27-16.19,1,16.19Zm-2-48.88,11-17.91,2.52,39.26Zm-.43-46.07,9.73,19.87h-20.66l9.44-19.86Zm10,26.14-11,17.79-11.31-17.8Zm-7.49-26.13h7.11l1.08,16.72Zm-6.57,0-8.6,18.09,1.19-18.09Zm-9.29,28.69,11,17.4-13.65,22.12Zm-3.28,50,12.7,16.27h-13.77Zm-25.15,40.83-5.82,5.43-17.69-16h26.91Zm-29,21.38L2838,993.31l16.25-15.17Zm5.12-29.8,16.69,15.12-16.71,15.61Zm-22.73,13.85L2819,976h34.84Zm-18-13.85,16.69,15.12-16.7,15.61Zm-5.1-.07V1008l-16.23-14.7Zm23.17,16.44,17.59,15.94v.15h-34.81Zm40.78,0,2.5,2.27-3.5,10.88a18.52,18.52,0,0,0-.71,2.94h-15.51Zm99.15-16.44,0,29.87-16.23-14.7Zm23.17,16.44,17.58,15.94v.15h-34.8Zm40.77,0,17.59,15.94v.15h-34.81Zm39.29-34.88h-11.92a4.81,4.81,0,0,0-4.81,4.81v4.84H2960.24v-2.21a5.07,5.07,0,0,0-5.06-5.06h-10.76l-6.1-94.94h.29a.93.93,0,0,0,.93-.92v-.76h0l0-26.61a15.07,15.07,0,0,0-.17-2.14ZM2908.91,838.82l0,27.37a.91.91,0,0,0,.77.89.9.9,0,0,0,.16,0h.09l-6.23,95h-8.84a5.06,5.06,0,0,0-4.82,3.51l-1.18,3.76H2599.49L2908.94,838.2C2908.94,838.41,2908.91,838.61,2908.91,838.82Zm-4.67-1L2594.48,969.34h-50.25Zm-465.52,141a15.25,15.25,0,0,1,7.83-2.69l0,34.6h-53.66Zm340,31.91,17.22-16.09,17.59,15.94v.15h-34.8ZM2919.82,1059l.75.8-15.5,17.1V1059Zm-13.61,428.55,15.63-17.26,16.13,17.27Zm16.88-18.64,15.42-17h1.19v34.81Zm-16.88-22.14,15.63-17.25,16.13,17.27Zm29.8,5.12-14.19,15.66-14.65-15.68Zm-12.92-23.75,15.42-17h1.19v34.8ZM2906.21,1406l15.63-17.25L2938,1406Zm29.8,5.12-14.19,15.66-14.65-15.68Zm-12.92-23.75,15.42-17h1.19v34.81Zm-16.88-22.14,15.63-17.26,16.13,17.27Zm29.8,5.11L2921.82,1386l-14.65-15.68Zm-12.92-23.75,15.42-17h1.19v34.81Zm-16.88-22.14,15.63-17.25,16.13,17.27Zm29.8,5.12-14.19,15.66-14.65-15.68Zm-12.92-23.75,15.42-17h1.19v34.8Zm-16.88-22.14,15.63-17.25L2938,1283.7Zm29.8,5.12-14.19,15.66-14.65-15.68Zm-12.92-23.75,15.42-17h1.19v34.81Zm-16.88-22.14,15.63-17.26,16.13,17.27ZM2936,1248l-14.19,15.67L2907.17,1248Zm-12.92-23.75,15.42-17h1.19v34.81Zm-16.88-22.14,15.63-17.25,16.13,17.27Zm29.8,5.12-14.19,15.66-14.65-15.68Zm-12.92-23.75,15.42-17h1.19v34.8Zm-16.88-22.14,15.63-17.25,16.13,17.27Zm29.8,5.11-14.19,15.67-14.65-15.68Zm-12.92-23.74,15.42-17h1.19v34.81Zm-1.27-1.36-14.65-15.68H2936Zm-16.24-20.79,16.26-17.95,16.79,18Zm-.51-2.2v-33.7l15.5,16.59Zm15.5,24.36-15.5,17.11v-33.7Zm0,40.78-15.5,17.1v-33.69Zm0,40.77-15.5,17.1V1207.7Zm0,40.77-15.5,17.11v-33.7Zm0,40.78-15.5,17.1v-33.69Zm0,40.77-15.5,17.1V1330Zm0,40.77-15.5,17.11v-33.7Zm0,40.78-15.5,17.1v-33.69Zm0,40.77-15.5,17.11v-33.7Zm-13.4,23.72H2936l-14.19,15.67Zm13.4,17.06-15.5,17.1v-33.69Zm17.94-17h1.19v34.81l-16.61-17.78Zm-15.42-391.41,15.42-17h1.19V1119Zm-1.27-1.36-14.65-15.68,28.84,0Zm-15.61,428.43,15.63-17.25,16.13,17.27Zm29.8,5.12-14.19,15.66-14.65-15.68Zm-30.43-454.33,16.26-17.95,16.79,18Zm-.51,454.78,15.5,16.59-15.5,17.1v-33.69Zm1.14,35.2,15.63-17.25,16.13,17.27Zm29.82,5.12-14.21,15.68-14.67-15.7Zm-31,.47,15.5,16.59-15.5,17.1v-33.69Zm1.14,280.54,15.63-17.25,16.13,17.27Zm16.88-18.63,15.42-17h1.19v34.8Zm-16.88-22.14,15.63-17.25,16.13,17.27Zm29.8,5.12-14.19,15.66-14.65-15.68Zm-12.92-23.75,15.42-17h1.19v34.8Zm-16.88-22.14,15.63-17.26,16.13,17.27Zm29.8,5.11-14.19,15.67-14.65-15.68ZM2923.09,1755l15.42-17h1.19v34.81Zm-16.88-22.14,15.63-17.25,16.13,17.27ZM2936,1738l-14.19,15.66L2907.17,1738Zm-12.92-23.75,15.42-17h1.19v34.8Zm-16.88-22.14,15.63-17.25,16.13,17.27Zm29.8,5.12-14.19,15.66-14.65-15.68Zm-12.92-23.75,15.42-17h1.19v34.8Zm-1.27-1.36-14.65-15.68H2936Zm16.15-20.77h-31.76l15.63-17.26Zm-14.88-18.65,15.42-17h1.19v34.81Zm-18,17.13v-33.7l15.5,16.59Zm15.5,23.67-15.5,17.1v-33.69Zm0,40.77-15.5,17.1V1697.7Zm0,40.77-15.5,17.11v-33.7Zm0,40.78-15.5,17.1v-33.69Zm0,40.77-15.5,17.1V1820Zm-13.4,23.71,28.84,0L2921.82,1876Zm13.4,17.06-15.5,17.11v-33.7Zm17.94-17h1.19v34.81l-16.61-17.79Zm-16.69-229-14.65-15.68,28.84,0Zm0,247.38L2938,1896h-31.76Zm-16.26-268.16,16.26-17.95,16.79,18Zm-.51,312.29V1901.1l34.63,0v21.75ZM2939.7,1609l-16.61-17.79,15.44-17h1.17V1609Zm0-40.8-16.61-17.78,15.42-17h1.19v34.8Zm0-490.67-16.61-17.79.71-.78h15.9Zm20.54-81.87,16.35,14.82v.15h-16.35Z"/><path class="cls-2" d="M892.9,771.2c0-24.39.6-60.81,4.84-71a13.19,13.19,0,0,1,9.86-7.92l66.57,0,181.64-159.13a19.27,19.27,0,0,1,36.15.5l467.47,170.75h114.78a17.93,17.93,0,0,1,10.68,3.53l63.4,47a5.1,5.1,0,0,1,2,4.07v.83a5.06,5.06,0,0,1-5.06,5.06H1797a10.78,10.78,0,0,1,2.31,20.31l38.92,57.55-.83,2-39.85-58.94a10.49,10.49,0,0,1-2.82.39h-27.88a11,11,0,0,1-3.46-.57l-40,59.12-.83-2,39.11-57.83a10.79,10.79,0,0,1,2.88-20H1234.64c0,.23-.07.45-.11.67l-7.45,32h0l.49,1.92h-.1l2.52,10h1.82c.87,0,.87,7.84,0,7.84h-25.47V1904.9h24.47V1944h50.46v48.24H1072.21V1944h50.46V1904.9h23.21V817.28h-19.81c-.88,0-.88-7.84,0-7.84h2.39v-10h-.15v-1.92h.15V764.86H998.94v13.88h-106C890.83,778.74,890.83,771.22,892.9,771.2Zm471.65-18.12L1385,734.57l-20.45-19.1ZM1386.71,733,1409,712.82h-43.86Zm29.17,20.08,20.43-18.51-20.45-19.1Zm-6.44-37.52-21,19,21,19.65ZM1438.05,733l22.26-20.18h-43.86Zm29.17,20.08,20.43-18.51-20.45-19.1Zm-6.44-37.52-21,19,21,19.65Zm28.6,17.44,22.27-20.18h-43.86Zm29.17,20.08L1539,734.57l-20.45-19.1Zm-6.44-37.52-21,19,21,19.65ZM1540.72,733,1563,712.82h-43.86Zm29.17,20.08,20.43-18.51-20.45-19.1Zm-6.45-37.52-21,19,21,19.65ZM1592.05,733l22.27-20.18h-43.86Zm80.51,20.08L1693,734.57l-20.45-19.1Zm-6.45-37.52-21,19,21,19.65Zm-.46-2.74h-43.86l21.6,20.18Zm-44.45,2.65,0,37.61,20.43-18.51Zm-6.42.09-21,19,21,19.65ZM1694.72,733,1717,712.82h-43.87Zm29.17,20.08,20.43-18.51-20.45-19.1Zm-6.44-37.52-21,19,21,19.65ZM1746.06,733l22.26-20.18h-43.86Zm1.71,1.6,21,19.65,0-38.69Zm-1.74,1.57-22.14,20.06v.19h43.82Zm-51.33,0-22.14,20.06v.19h43.82Zm-51.34,0-22.14,20.06v.19H1665Zm-51.33,0-22.14,20.06v.19h43.82Zm-51.34,0-22.14,20.06v.19h43.82Zm-51.33,0-22.14,20.06v.19H1511Zm-51.33,0-22.14,20.06v.19h43.82Zm-51.34,0-22.14,20.06v.19h43.82Zm-28.58-20.61-21,19,21,19.65Zm-.47-2.74h-43.86l21.6,20.18Zm-352.43,40.26,20.43-18.51-20.45-19.1ZM1027.37,733l22.27-20.18h-43.86Zm29.17,20.08,14.35-13,6.08-5.51-20.45-19.1Zm-6.44-37.52-21,19,21,19.65ZM1078.71,733,1101,712.82h-43.86Zm22.72-17.44-21,19,21,19.65Zm53.87-44.14,18,23.82h.74l18.61-23.84Zm35.37-7.92L1174,636.41l-17.23,27.11Zm19.87,80.72.09.44,0,0-.13-.61Zm.71,3.18,0,0,.89,4.24,0,0Zm17.5-10.81,2.23-2-4.12-3.85Zm-14.37,19.83a6.43,6.43,0,0,1-1.58-2.23l0,0a6.32,6.32,0,0,0,1.58,2.2Zm-85.92-43.6h-20l20,18.7Zm41.29-17.58-15.45-20.39L1153,695.24Zm2.54-61.54-13.9-22.55-3.18,49.43Zm.54-58-12.25,25,26,0-11.88-25Zm-12.64,32.91L1174,631l14.24-22.41Zm9.44-32.91h-9l-1.36,21Zm8.26,0,10.83,22.76-1.5-22.77Zm11.7,36.12-13.91,21.9,17.18,27.86Zm4.13,62.93-16,20.49h17.34Zm31.67,51.4,7.32,6.85L1255,712.82H1221.1Zm36.49,26.93,20.43-18.51-20.45-19.1Zm-6.44-37.52-21,19,21,19.65ZM1284.05,733l22.26-20.18h-43.86Zm22.72-17.44-21,19,21,19.65Zm6.42-.09,0,37.61,20.43-18.51ZM1284,736.17l-22.14,20.06v.19h43.82Zm-51.33,0-3.16,2.86,4.41,13.7a23.34,23.34,0,0,1,.89,3.69h19.54Zm-124.83-20.7,0,37.61,20.43-18.51Zm-29.17,20.7-22.15,20.06v.19h43.83Zm-51.34,0-22.14,20.06v.19H1049Zm-49.47-43.91h15a6,6,0,0,1,6.05,6v6.08h129.52v-2.77a6.37,6.37,0,0,1,6.37-6.37h13.55l7.68-119.53h-.37a1.18,1.18,0,0,1-1.17-1.16v-1h0l0-33.5a19.94,19.94,0,0,1,.21-2.7Zm215.2-152.2,0,34.46a1.16,1.16,0,0,1-1,1.13,1.42,1.42,0,0,1-.2,0h-.12l7.85,119.55h11.14a6.38,6.38,0,0,1,6.06,4.42l1.49,4.72h364.29L1193,539.29C1193.06,539.55,1193.08,539.8,1193.08,540.06Zm5.89-1.27,390,165.59h63.27Zm586.09,177.47a19.13,19.13,0,0,0-9.86-3.4l0,43.56h67.56Zm-428,40.16-21.68-20.25-22.14,20.06v.19H1357Zm-177.69,60.86-.94,1,19.51,21.54V817.28Zm17.14,539.54-19.68-21.72-20.31,21.74Zm-21.26-23.46-19.41-21.43h-1.5v43.82Zm21.26-27.88-19.68-21.72-20.31,21.75Zm-37.52,6.45,17.86,19.72,18.45-19.74Zm16.26-29.9-19.41-21.44h-1.5v43.82Zm21.26-27.88-19.68-21.72-20.31,21.74Zm-37.52,6.44,17.86,19.72,18.45-19.74Zm16.26-29.9-19.42-21.43h-1.49v43.82Zm21.26-27.87-19.68-21.73-20.31,21.75Zm-37.52,6.44,17.86,19.72,18.45-19.74Zm16.26-29.9-19.42-21.43h-1.49v43.82Zm21.26-27.88-19.68-21.72-20.31,21.74Zm-37.52,6.44,17.86,19.72,18.45-19.74Zm16.26-29.9-19.42-21.43h-1.49v43.82Zm21.26-27.87-19.68-21.73-20.31,21.75Zm-37.52,6.44,17.86,19.72,18.45-19.74Zm16.26-29.9-19.41-21.43h-1.5v43.82Zm21.26-27.88-19.68-21.72-20.31,21.74Zm-37.52,6.44,17.86,19.73,18.45-19.75Zm16.26-29.9-19.41-21.43h-1.5v43.82Zm21.26-27.87-19.68-21.72L1156.5,997.5Zm-37.52,6.44,17.86,19.72,18.45-19.74Zm16.26-29.9-19.42-21.43h-1.49v43.82Zm21.26-27.88-19.68-21.72-20.31,21.75ZM1159,952.59l17.86,19.72,18.45-19.74Zm16.26-29.9-19.42-21.44h-1.49v43.83Zm1.6-1.72,18.45-19.74-36.31,0Zm20.46-26.16-20.48-22.6-21.14,22.62Zm.63-2.78V849.61l-19.51,20.89Zm-19.51,30.68,19.51,21.53V901.82Zm0,51.33,19.51,21.54V953.16Zm0,51.34,19.51,21.53v-42.42Zm0,51.33,19.51,21.54v-42.43Zm0,51.34,19.51,21.53v-42.42Zm0,51.33,19.51,21.53v-42.42Zm0,51.33,19.51,21.54v-42.42Zm0,51.34,19.51,21.53v-42.42Zm0,51.33,19.51,21.54V1312.5Zm16.87,29.86-36.31,0,17.86,19.72Zm-16.87,21.48,19.51,21.53v-42.42Zm-22.6-21.46h-1.49v43.82l20.91-22.38Zm19.42-492.79L1155.81,849h-1.49v43.82Zm1.6-1.71L1195.28,849,1159,849Zm19.66,539.39-19.68-21.72-20.31,21.75ZM1159,1414.6l17.86,19.72,18.45-19.74Zm38.32-572L1176.81,820l-21.14,22.63Zm.63,572.57-19.51,20.88,19.51,21.54v-42.42Zm-1.43,44.32-19.68-21.72-20.31,21.74Zm-37.55,6.44,17.89,19.74,18.47-19.76Zm39,.59-19.51,20.89,19.51,21.53v-42.42Zm-1.43,353.21L1176.81,1798l-20.31,21.74Zm-21.26-23.46-19.42-21.43h-1.49v43.82Zm21.26-27.87-19.68-21.73-20.31,21.75Zm-37.52,6.44,17.86,19.72,18.45-19.74Zm16.26-29.9-19.41-21.43h-1.5v43.82Zm21.26-27.88-19.68-21.72-20.31,21.74ZM1159,1723.5l17.86,19.73,18.45-19.75Zm16.26-29.9-19.41-21.43h-1.5V1716Zm21.26-27.87L1176.81,1644l-20.31,21.74Zm-37.52,6.44,17.86,19.72,18.45-19.74Zm16.26-29.9-19.42-21.43h-1.49v43.82Zm21.26-27.88-19.68-21.72-20.31,21.75Zm-37.52,6.45,17.86,19.72,18.45-19.75Zm16.26-29.9-19.42-21.44h-1.49v43.82Zm1.6-1.72,18.45-19.74-36.31,0Zm-20.33-26.14,40,0-19.68-21.72Zm18.73-23.48-19.42-21.43h-1.49V1562Zm22.69,21.56v-42.42l-19.51,20.88Zm-19.51,29.8,19.51,21.53v-42.42Zm0,51.33,19.51,21.54V1621.4Zm0,51.34,19.51,21.53v-42.42Zm0,51.33,19.51,21.53v-42.42Zm0,51.34,19.51,21.53v-42.42Zm16.87,29.85-36.31,0,17.86,19.72Zm-16.87,21.48,19.51,21.53v-42.42Zm-22.6-21.46h-1.49V1870l20.91-22.39Zm21-288.28,18.45-19.74-36.31,0Zm0,311.45-20.31,21.75,40,0Zm20.48-337.62-20.48-22.6-21.14,22.63Zm.63,393.18v-27.41l-43.6,0v27.39Zm-43.6-395.12,20.91-22.39-19.44-21.46h-1.47v43.85Zm0-51.36,20.91-22.39-19.42-21.43h-1.49v43.82Zm0-617.77,20.91-22.39-.89-1h-20Zm-25.86-103.07-20.58,18.65v.19h20.58Z"/><path class="cls-5" d="M3746.46,524.18c.07-29.32-.73-73.11-5.82-85.33a15.84,15.84,0,0,0-11.85-9.52l-80-.06-218.4-191.33a23.17,23.17,0,0,0-43.46.6l-562,205.3h-138a21.58,21.58,0,0,0-12.84,4.24l-76.22,56.5a6.09,6.09,0,0,0-2.47,4.89v1a6.09,6.09,0,0,0,6.09,6.08h58a13,13,0,0,0-2.78,24.42l-46.78,69.19,1,2.44,47.91-70.85a13.16,13.16,0,0,0,3.4.46h33.52a13,13,0,0,0,4.16-.69l48.07,71.08,1-2.44-47-69.53a13,13,0,0,0-3.48-24.08h637.15c.05.27.09.55.14.81l9,38.5h0l-.58,2.31h.11l-3,12H3339c-1.06,0-1.06,9.42,0,9.42h30.62V1887.23h-29.42v47H3279.5v58h251.37v-58H3470.2v-47h-27.9V579.57h23.82c1.05,0,1.05-9.42,0-9.42h-2.88v-12h.19v-2.31h-.19V516.55H3619v16.69h127.49C3749,533.24,3749,524.2,3746.46,524.18ZM3179.4,502.39l-24.57-22.26,24.59-23Zm-26.65-24.15L3126,454h52.73Zm-35.07,24.15-24.57-22.26,24.59-23Zm7.74-45.11,25.27,22.89-25.29,23.62Zm-34.39,21L3064.26,454H3117ZM3056,502.39l-24.57-22.26,24.59-23Zm7.74-45.11L3089,480.17l-25.29,23.62Zm-34.39,21L3002.54,454h52.73Zm-35.07,24.15-24.57-22.25,24.59-23Zm7.74-45.11,25.27,22.89L3002,503.79Zm-34.39,21L2940.82,454h52.73Zm-35.07,24.15L2908,480.13l24.58-23Zm7.74-45.11,25.27,22.89-25.29,23.62Zm-34.39,21L2879.1,454h52.73Zm-96.79,24.15-24.56-22.26,24.58-23Zm7.74-45.11,25.27,22.89-25.29,23.62Zm.56-3.29h52.73l-26,24.25Zm53.44,3.18,0,45.22-24.56-22.26Zm7.72.11,25.27,22.89-25.29,23.62Zm-96.11,21L2755.66,454h52.73Zm-35.07,24.15-24.56-22.26,24.58-23Zm7.75-45.11,25.26,22.89-25.29,23.62Zm-34.4,21L2693.94,454h52.74Zm-2.06,1.93-25.29,23.62,0-46.51Zm2.09,1.89,26.62,24.12v.23h-52.69Zm61.72,0,26.62,24.12v.23h-52.69Zm61.72,0,26.62,24.12v.23h-52.69Zm61.72,0,26.62,24.12v.23h-52.69Zm61.72,0,26.62,24.12v.23h-52.69Zm61.71,0L3056,506.18v.23h-52.68Zm61.72,0,26.62,24.12v.23H3065Zm61.72,0,26.62,24.12v.23h-52.68Zm34.37-24.78,25.27,22.89-25.29,23.62Zm.56-3.29h52.73l-26,24.25Zm423.73,48.4-24.56-22.25,24.59-23Zm-26.65-24.15L3558,454h52.74Zm-35.07,24.15-17.24-15.63-7.32-6.63,24.59-23Zm7.75-45.11,25.26,22.89-25.29,23.62Zm-34.4,21L3496.29,454H3549Zm-27.32-21L3521,480.17l-25.29,23.62ZM3431,404.21l-21.7,28.64h-.89L3386,404.18Zm-42.53-9.52,20.08-32.57,20.71,32.6Zm-23.89,97.05-.11.52,0,0,.15-.74Zm-.86,3.82.05,0-1.08,5.09,0,0Zm-21-13-2.68-2.43,5-4.62Zm17.27,23.85a7.74,7.74,0,0,0,1.91-2.68l0,0a7.86,7.86,0,0,1-1.9,2.65ZM3463.24,454h24.07l-24.07,22.48Zm-49.63-21.14,18.57-24.52,1.58,24.52Zm-3.06-74,16.71-27.1,3.82,59.43Zm-.64-69.73,14.72,30.08-31.28,0,14.3-30.06Zm15.18,39.57-16.6,26.93-17.12-26.95Zm-11.34-39.56h10.78l1.62,25.31Zm-9.93,0-13,27.38,1.8-27.39Zm-14.07,43.43,16.73,26.33-20.66,33.49Zm-5,75.67L3404,432.85h-20.84ZM3346.71,470l-8.8,8.22L3311.14,454h40.73Zm-43.87,32.37-24.57-22.25,24.59-23Zm7.74-45.11,25.27,22.89-25.3,23.62Zm-34.39,21L3249.42,454h52.73Zm-27.33-21,25.27,22.89-25.3,23.62Zm-7.72-.11,0,45.22-24.57-22.26Zm35.07,24.89,26.62,24.12v.23h-52.68Zm61.72,0,3.8,3.44-5.3,16.47a29.33,29.33,0,0,0-1.08,4.44h-23.48ZM3488,457.17l0,45.22-24.56-22.26Zm35.07,24.89,26.62,24.12v.23H3497Zm61.72,0,26.62,24.12v.23h-52.69Zm59.48-52.8h-18a7.28,7.28,0,0,0-7.29,7.27v7.32H3463.24v-3.33a7.66,7.66,0,0,0-7.65-7.66h-16.3l-9.23-143.71h.45a1.4,1.4,0,0,0,1.4-1.4v-1.15h0l0-40.28a24.7,24.7,0,0,0-.25-3.24Zm-258.74-183,0,41.43a1.38,1.38,0,0,0,1.17,1.35,1,1,0,0,0,.23.05h.14l-9.43,143.74h-13.39a7.67,7.67,0,0,0-7.29,5.31l-1.79,5.68h-438L3385.6,245.35C3385.58,245.66,3385.55,246,3385.55,246.28Zm-7.08-1.53L2909.58,443.84h-76.06ZM2673.81,458.12a23,23,0,0,1,11.86-4.08l0,52.37h-81.23Zm514.62,48.29,26.06-24.35,26.62,24.12v.23h-52.68Zm213.64,73.16,1.12,1.21-23.45,25.89v-27.1Zm-20.62,648.7,23.67-26.12,24.42,26.15Zm25.56-28.21,23.35-25.76h1.8V1227Zm-25.56-33.51,23.67-26.12,24.42,26.15Zm45.12,7.74L3405.09,1198l-22.18-23.73Zm-19.56-36,23.35-25.76h1.8v52.68Zm-25.56-33.51,23.67-26.12,24.42,26.15Zm45.12,7.74-21.48,23.71-22.18-23.73ZM3407,1076.63l23.35-25.77h1.8v52.68Zm-25.56-33.52,23.67-26.12,24.42,26.15Zm45.12,7.74-21.48,23.72-22.18-23.74ZM3407,1014.91l23.35-25.77h1.8v52.68Zm-25.56-33.52,23.67-26.12,24.42,26.15Zm45.12,7.75-21.48,23.71-22.18-23.74ZM3407,953.19l23.35-25.77h1.8v52.69Zm-25.56-33.52,23.67-26.12,24.42,26.15Zm45.12,7.75-21.48,23.71-22.18-23.74ZM3407,891.47l23.35-25.77h1.8v52.68ZM3381.45,858l23.67-26.12L3429.54,858Zm45.12,7.75-21.48,23.71-22.18-23.74Zm-19.56-36L3430.36,804h1.8v52.69Zm-25.56-33.52,23.67-26.12,24.42,26.15Zm45.12,7.75-21.48,23.71L3382.91,804ZM3407,768l23.35-25.77h1.8V795Zm-25.56-33.52,23.67-26.11,24.42,26.14Zm45.12,7.75L3405.09,766l-22.18-23.74Zm-19.56-36,23.35-25.77h1.8v52.69Zm-1.92-2.06-22.18-23.74,43.66,0Zm-24.59-31.46,24.62-27.17,25.41,27.2Zm-.76-3.34v-51l23.45,25.11Zm23.45,36.89-23.45,25.89v-51Zm0,61.71-23.45,25.89v-51Zm0,61.72-23.45,25.89v-51Zm0,61.72-23.45,25.89v-51Zm0,61.72-23.45,25.89v-51Zm0,61.72-23.45,25.89v-51Zm0,61.72-23.45,25.89v-51Zm0,61.72-23.45,25.89v-51Zm0,61.72L3379.74,1226v-51Zm-20.28,35.9,43.66,0-21.48,23.71Zm20.28,25.82-23.45,25.89v-51Zm27.17-25.79h1.8v52.68L3407,1261.78ZM3407,643.53l23.35-25.77h1.8v52.69Zm-1.92-2.06-22.18-23.73,43.66,0ZM3381.45,1290l23.67-26.12,24.42,26.14Zm45.12,7.74-21.48,23.71-22.18-23.73ZM3380.5,610l24.62-27.18,25.41,27.2Zm-.76,688.4,23.45,25.11-23.45,25.89v-51Zm1.71,53.29,23.67-26.12,24.42,26.14Zm45.15,7.74-21.51,23.74-22.2-23.76Zm-46.86.72,23.45,25.11-23.45,25.89v-51Zm1.71,424.66,23.67-26.12,24.42,26.15Zm25.56-28.2,23.35-25.77h1.8v52.68Zm-25.56-33.52,23.67-26.12,24.42,26.15Zm45.12,7.74-21.48,23.72-22.18-23.74ZM3407,1694.91l23.35-25.77h1.8v52.68Zm-25.56-33.52,23.67-26.12,24.42,26.15Zm45.12,7.75-21.48,23.71-22.18-23.74Zm-19.56-36,23.35-25.77h1.8v52.68Zm-25.56-33.52,23.67-26.12,24.42,26.15Zm45.12,7.75-21.48,23.71-22.18-23.74Zm-19.56-36,23.35-25.77h1.8v52.69ZM3381.45,1538l23.67-26.12,24.42,26.15Zm45.12,7.75-21.48,23.71-22.18-23.74Zm-19.56-36,23.35-25.77h1.8v52.69Zm-1.92-2.06L3382.91,1484l43.66,0Zm24.45-31.43-48.09,0,23.67-26.12ZM3407,1448l23.35-25.77h1.8V1475Zm-27.27,25.91v-51l23.45,25.11Zm23.45,35.83-23.45,25.89v-51Zm0,61.72-23.45,25.89v-51Zm0,61.72-23.45,25.89v-51Zm0,61.72-23.45,25.89v-51Zm0,61.72-23.45,25.89v-51Zm-20.28,35.9,43.66,0-21.48,23.71Zm20.28,25.82-23.45,25.89v-51Zm27.17-25.79h1.8v52.68L3407,1818.34ZM3405.09,1446l-22.18-23.74,43.66,0Zm0,374.46,24.42,26.15-48.09,0Zm-24.62-405.92,24.62-27.17,25.41,27.2Zm-.76,472.72v-33l52.42,0v32.93Zm52.42-475.06L3407,1385.25l23.37-25.8h1.78v52.71Zm0-61.75L3407,1323.5l23.35-25.77h1.8v52.68Zm0-742.75L3407,580.76l1.07-1.19h24.08Zm31.08-123.92L3488,506.18v.23h-24.75Z"/><ellipse class="cls-3" cx="1370.89" cy="2675.47" rx="389.78" ry="8.41"/><ellipse class="cls-3" cx="2253.19" cy="2101.45" rx="818.78" ry="17.75"/><ellipse class="cls-3" cx="2693.39" cy="2679.93" rx="318.89" ry="8.41"/><path class="cls-1" d="M2930.6,1189.64v854.75c0,25.94-21.37,47-47.75,47H1558.29c-26.37,0-47.74-21-47.74-47V1189.64c0-25.94,21.37-47,47.74-47H2882.85C2909.23,1142.68,2930.6,1163.7,2930.6,1189.64Z"/><path class="cls-5" d="M2930.6,1195.85v848.54a47,47,0,0,1-47,47H2859.1v-895.5Z"/><path class="cls-6" d="M2930.6,1189.64v52.85h-1420v-52.85c0-25.94,21.37-47,47.74-47H2882.85C2909.23,1142.68,2930.6,1163.7,2930.6,1189.64Z"/><path class="cls-7" d="M1886.41,1142.68l-101.48,99.81H1510.55v-52.85c0-25.94,21.37-47,47.74-47Z"/><circle class="cls-6" cx="1618.66" cy="1195.84" r="15.6"/><circle class="cls-6" cx="1682.25" cy="1195.84" r="15.6"/><circle class="cls-6" cx="1745.84" cy="1195.84" r="15.6"/><rect class="cls-1" x="2873.76" y="1361.68" width="42.17" height="199.45" rx="5.28"/><path class="cls-5" d="M1809.06,1419.72H1587.9a22.87,22.87,0,0,1-22.88-22.87v-51A22.86,22.86,0,0,1,1587.9,1323h221.16a22.86,22.86,0,0,1,22.87,22.87v51a22.85,22.85,0,0,1-22.87,22.87Z"/><path class="cls-8" d="M1809.06,1516.43H1587.9a22.87,22.87,0,0,1-22.88-22.88v-51a22.86,22.86,0,0,1,22.88-22.88h221.16a22.88,22.88,0,0,1,22.87,22.88v51a22.87,22.87,0,0,1-22.87,22.88Z"/><path class="cls-5" d="M1809.06,1613.13H1587.9a22.86,22.86,0,0,1-22.88-22.87v-51a22.86,22.86,0,0,1,22.88-22.88h221.16a22.86,22.86,0,0,1,22.87,22.88v51a22.85,22.85,0,0,1-22.87,22.87Z"/><path class="cls-3" d="M1809.06,1709.84H1587.9A22.87,22.87,0,0,1,1565,1687v-51a22.89,22.89,0,0,1,22.88-22.88h221.16a22.88,22.88,0,0,1,22.87,22.88v51a22.87,22.87,0,0,1-22.87,22.88Z"/><path class="cls-5" d="M1809.06,1806.55H1587.9a22.87,22.87,0,0,1-22.88-22.88v-51a22.86,22.86,0,0,1,22.88-22.88h221.16a22.86,22.86,0,0,1,22.87,22.88v51a22.87,22.87,0,0,1-22.87,22.88Z"/><path class="cls-3" d="M1809.06,1903.25H1587.9a22.87,22.87,0,0,1-22.88-22.87v-51a22.86,22.86,0,0,1,22.88-22.87h221.16a22.86,22.86,0,0,1,22.87,22.87v51a22.85,22.85,0,0,1-22.87,22.87Z"/><path class="cls-5" d="M1809.06,2000H1587.9a22.87,22.87,0,0,1-22.88-22.88v-50.95a22.86,22.86,0,0,1,22.88-22.88h221.16a22.86,22.86,0,0,1,22.87,22.88v50.95a22.87,22.87,0,0,1-22.87,22.88Z"/><path class="cls-6" d="M1885.66,1878.52V1408.68a38.69,38.69,0,0,1,38.71-38.71h838.34a38.72,38.72,0,0,1,38.72,38.71v469.84a38.72,38.72,0,0,1-38.72,38.71H1924.37a38.71,38.71,0,0,1-38.71-38.71Z"/><path class="cls-1" d="M2663.83,1866.47H2023.25a38.7,38.7,0,0,1-38.71-38.72V1429.52a38.71,38.71,0,0,1,38.71-38.71h640.58a38.7,38.7,0,0,1,38.71,38.71v398.23a38.71,38.71,0,0,1-38.71,38.72Z"/><polygon class="cls-3" points="2555.16 1601.09 2355.97 1441.72 2211.72 1549.93 2240.54 1800.83 2555.16 1800.83 2555.16 1601.09"/><polygon class="cls-5" points="2281.03 1606.9 2206.08 1549.93 2131.14 1606.9 2131.14 1800.83 2281.03 1800.83 2281.03 1606.9"/><path class="cls-1" d="M2206.08,1612h0a35.61,35.61,0,0,1,35.61,35.6v92.71h-71.21v-92.71a35.58,35.58,0,0,1,35.6-35.6Z"/><path class="cls-1" d="M2483.41,1643.6h0a35.59,35.59,0,0,1,35.6,35.6v92.71h-71.2V1679.2a35.58,35.58,0,0,1,35.6-35.6Z"/><path class="cls-1" d="M2357,1497.86h0a35.59,35.59,0,0,1,35.6,35.6v60h-71.2v-60a35.58,35.58,0,0,1,35.6-35.6Z"/><rect class="cls-6" x="2131.14" y="1800.83" width="424.09" height="38.95"/><rect class="cls-6" x="2131.14" y="1694.49" width="6.68" height="48.54"/><rect class="cls-6" x="2274.35" y="1694.49" width="6.68" height="48.54"/><rect class="cls-6" x="2145.06" y="1694.49" width="2.7" height="48.54"/><rect class="cls-6" x="2157" y="1694.49" width="2.7" height="48.54"/><rect class="cls-6" x="2168.93" y="1694.49" width="2.7" height="48.54"/><rect class="cls-6" x="2180.87" y="1694.49" width="2.7" height="48.54"/><rect class="cls-6" x="2136.86" y="1740.33" width="140.83" height="2.7"/><rect class="cls-6" x="2136.86" y="1694.49" width="140.83" height="2.7"/><rect class="cls-6" x="2192.8" y="1694.49" width="2.7" height="48.54"/><rect class="cls-6" x="2204.73" y="1694.49" width="2.7" height="48.54"/><rect class="cls-6" x="2216.67" y="1694.49" width="2.7" height="48.54"/><rect class="cls-6" x="2228.6" y="1694.49" width="2.7" height="48.54"/><rect class="cls-6" x="2240.54" y="1694.49" width="2.7" height="48.54"/><rect class="cls-6" x="2252.47" y="1694.49" width="2.7" height="48.54"/><rect class="cls-6" x="2264.4" y="1694.49" width="2.7" height="48.54"/><rect class="cls-9" x="2320.37" y="1667" width="73.31" height="172.78"/><circle class="cls-10" cx="2382.38" cy="1755.01" r="5.54"/><polygon class="cls-6" points="2289.14 1617.35 2206.08 1554.21 2123.03 1617.35 2118.91 1611.92 2206.08 1545.65 2293.26 1611.92 2289.14 1617.35"/><polygon class="cls-6" points="2572.13 1614.68 2355.97 1441.72 2208.13 1552.66 2204.04 1547.2 2356.11 1433.1 2576.39 1609.35 2572.13 1614.68"/><path class="cls-8" d="M2106.42,1795.37c15-10.48,18.41-29.94,17.82-47.43-.1-2.92.22-6-1.17-8.56s-4.63-4.32-7.24-3.09c-2.17,1-3.12,3.55-4.33,5.63a17,17,0,0,1-6.85,6.54c-1.86,1-4.16,1.56-6,.55-2.52-1.39-2.82-4.87-2.8-7.78q.06-8.12.1-16.23a27.13,27.13,0,0,0-.87-8.63c-.91-2.76-2.9-5.32-5.66-6.09s-6.18.82-6.77,3.66a27.24,27.24,0,0,0-.08,3.62c-.08,1.2-.64,2.54-1.79,2.87s-2.32-.48-3.19-1.33c-3-2.93-5-6.71-6.93-10.47s-3.74-7.6-6.46-10.8-6.49-5.73-10.64-6-8.59,2.33-9.65,6.41,1.34,8.25,3.94,11.56a64.81,64.81,0,0,0,13.49,12.87,5.33,5.33,0,0,1,2.26,2.42c.63,1.94-1.2,3.86-3.11,4.5-2.17.72-4.52.5-6.78.76s-4.72,1.27-5.57,3.41c-1.19,3,1.29,6.08,3.73,8.12a55.47,55.47,0,0,0,16.44,9.48c2.13.78,4.38,1.47,6.1,3s2.76,4.11,1.72,6.16-3.71,2.7-5.95,2.28-4.24-1.63-6.37-2.43c-4-1.51-9.14-1.23-11.7,2.22a9.17,9.17,0,0,0-1,8.12,21.16,21.16,0,0,0,4.4,7.18,55.83,55.83,0,0,0,23.85,16.76c9.25,3.21,17.83,4.08,27,.71"/><path class="cls-11" d="M2048.12,1694.3a2.29,2.29,0,0,0,.28.27l.86.77c.76.67,1.89,1.67,3.3,3a110.36,110.36,0,0,1,11.09,12c2.16,2.7,4.4,5.74,6.75,9.06s4.84,6.88,7.31,10.73a131.28,131.28,0,0,1,7.16,12.41c1.12,2.22,2.12,4.54,3.14,6.91l3.08,7.2a269.31,269.31,0,0,1,10.35,28,129.58,129.58,0,0,1,4.84,23.83,95.77,95.77,0,0,1,.27,16.4c-.15,1.93-.3,3.43-.44,4.44-.05.49-.1.87-.13,1.16a2,2,0,0,0,0,.4s-1.89,17.51.08-.39c0-.29.11-.67.19-1.15.17-1,.35-2.51.54-4.44a91.52,91.52,0,0,0-.11-16.46,127.23,127.23,0,0,0-4.74-23.93,261.56,261.56,0,0,0-10.33-28c-1-2.43-2.07-4.84-3.09-7.2s-2-4.71-3.15-6.94a129.55,129.55,0,0,0-7.22-12.44c-2.49-3.85-5-7.41-7.36-10.72s-4.64-6.35-6.82-9a103.89,103.89,0,0,0-11.25-11.88c-1.43-1.3-2.57-2.27-3.36-2.91l-.89-.73A1.83,1.83,0,0,0,2048.12,1694.3Z"/><path class="cls-11" d="M2085.18,1742.23a5.41,5.41,0,0,0,.29-1.24c.15-.8.33-2,.54-3.42.41-2.89.84-6.9,1.3-11.33s.94-8.42,1.4-11.29c.22-1.44.41-2.61.55-3.41a6.66,6.66,0,0,0,.17-1.26,5.09,5.09,0,0,0-.37,1.22c-.21.79-.46,1.94-.73,3.38-.55,2.87-1.1,6.88-1.55,11.31s-.84,8.32-1.15,11.34c-.14,1.36-.27,2.51-.37,3.43A7,7,0,0,0,2085.18,1742.23Z"/><path class="cls-11" d="M2047.85,1735.25a7.7,7.7,0,0,0,1.49.18c1,.09,2.34.2,4,.4,3.42.37,8.13,1,13.29,2s9.79,2.06,13.11,3c1.67.43,3,.81,3.94,1.07a8,8,0,0,0,1.45.36,7.3,7.3,0,0,0-1.39-.56c-.91-.32-2.24-.76-3.9-1.24-3.31-1-7.94-2.13-13.12-3.12a131.82,131.82,0,0,0-13.34-1.86c-1.72-.15-3.12-.21-4.08-.23A8.3,8.3,0,0,0,2047.85,1735.25Z"/><path class="cls-11" d="M2101.45,1783.72a1.81,1.81,0,0,0,.25-.46c.18-.36.39-.81.64-1.35.55-1.17,1.3-2.89,2.2-5,1.8-4.28,4.11-10.27,6.56-16.91s4.69-12.64,6.4-17c.84-2.09,1.53-3.82,2-5.1l.55-1.39a2.42,2.42,0,0,0,.16-.5,1.84,1.84,0,0,0-.26.46l-.64,1.35c-.55,1.17-1.3,2.9-2.2,5-1.8,4.27-4.1,10.26-6.55,16.9s-4.7,12.64-6.41,17c-.84,2.1-1.52,3.82-2,5.1-.22.55-.4,1-.54,1.39A1.82,1.82,0,0,0,2101.45,1783.72Z"/><path class="cls-11" d="M2051.83,1767.73a1.94,1.94,0,0,0,.5.2l1.44.48,5.31,1.73c4.49,1.45,10.66,3.53,17.48,5.84s13,4.33,17.53,5.7c2.26.68,4.09,1.21,5.37,1.55l1.47.39a.27.27,0,1,0,0-.1l-1.44-.49-5.32-1.72c-4.48-1.45-10.66-3.53-17.48-5.84s-13-4.34-17.53-5.7c-2.26-.68-4.09-1.21-5.36-1.56l-1.47-.38A1.61,1.61,0,0,0,2051.83,1767.73Z"/><path class="cls-8" d="M2580.66,1795.37c-15-10.48-18.41-29.94-17.82-47.43.1-2.92-.22-6,1.17-8.56s4.63-4.32,7.24-3.09c2.17,1,3.12,3.55,4.33,5.63a17,17,0,0,0,6.85,6.54c1.86,1,4.16,1.56,6,.55,2.52-1.39,2.82-4.87,2.8-7.78q0-8.12-.1-16.23a26.85,26.85,0,0,1,.88-8.63c.9-2.76,2.89-5.32,5.66-6.09s6.18.82,6.76,3.66a27.24,27.24,0,0,1,.08,3.62c.08,1.2.64,2.54,1.79,2.87s2.32-.48,3.19-1.33c3-2.93,5-6.71,6.93-10.47s3.75-7.6,6.47-10.8,6.48-5.73,10.64-6,8.59,2.33,9.64,6.41-1.34,8.25-3.94,11.56a64.56,64.56,0,0,1-13.49,12.87,5.33,5.33,0,0,0-2.26,2.42c-.63,1.94,1.2,3.86,3.12,4.5,2.16.72,4.51.5,6.77.76s4.72,1.27,5.58,3.41c1.19,3-1.3,6.08-3.74,8.12a55.41,55.41,0,0,1-16.43,9.48c-2.14.78-4.39,1.47-6.11,3s-2.76,4.11-1.72,6.16,3.71,2.7,5.95,2.28,4.24-1.63,6.37-2.43c4-1.51,9.15-1.23,11.7,2.22a9.17,9.17,0,0,1,1,8.12,21.16,21.16,0,0,1-4.4,7.18,55.86,55.86,0,0,1-23.84,16.76c-9.26,3.21-17.84,4.08-27,.71"/><path class="cls-11" d="M2639,1694.3a2.29,2.29,0,0,1-.28.27l-.86.77c-.76.67-1.88,1.67-3.29,3a109.27,109.27,0,0,0-11.1,12c-2.16,2.7-4.4,5.74-6.75,9.06s-4.83,6.88-7.3,10.73a129.17,129.17,0,0,0-7.17,12.41c-1.12,2.22-2.12,4.54-3.13,6.91l-3.09,7.2a269.31,269.31,0,0,0-10.35,28,129.49,129.49,0,0,0-4.83,23.83,94.93,94.93,0,0,0-.28,16.4c.15,1.93.3,3.43.44,4.44.06.49.1.87.13,1.16a2,2,0,0,1,0,.4s1.89,17.51-.08-.39c-.05-.29-.11-.67-.19-1.15-.17-1-.35-2.51-.53-4.44a90.42,90.42,0,0,1,.1-16.46,127.23,127.23,0,0,1,4.74-23.93,261.56,261.56,0,0,1,10.33-28c1.05-2.43,2.07-4.84,3.09-7.2s2-4.71,3.15-6.94a129.58,129.58,0,0,1,7.23-12.44c2.48-3.85,5-7.41,7.35-10.72s4.64-6.35,6.82-9a103.89,103.89,0,0,1,11.25-11.88c1.43-1.3,2.57-2.27,3.36-2.91l.9-.73A2.13,2.13,0,0,1,2639,1694.3Z"/><path class="cls-11" d="M2601.9,1742.23a5.41,5.41,0,0,1-.29-1.24c-.15-.8-.33-2-.54-3.42-.41-2.89-.84-6.9-1.29-11.33s-1-8.42-1.4-11.29c-.23-1.44-.42-2.61-.56-3.41a5.28,5.28,0,0,1-.16-1.26,6.24,6.24,0,0,1,.36,1.22c.21.79.46,1.94.73,3.38.55,2.87,1.1,6.88,1.56,11.31s.83,8.32,1.14,11.34c.15,1.36.27,2.51.37,3.43A7,7,0,0,1,2601.9,1742.23Z"/><path class="cls-11" d="M2639.23,1735.25a7.7,7.7,0,0,1-1.49.18c-.95.09-2.34.2-4,.4-3.42.37-8.12,1-13.28,2s-9.79,2.06-13.12,3c-1.67.43-3,.81-3.94,1.07a8,8,0,0,1-1.45.36,7.71,7.71,0,0,1,1.39-.56c.91-.32,2.24-.76,3.9-1.24,3.31-1,7.94-2.13,13.12-3.12a132,132,0,0,1,13.35-1.86c1.71-.15,3.11-.21,4.07-.23A8.3,8.3,0,0,1,2639.23,1735.25Z"/><path class="cls-11" d="M2585.63,1783.72a2.31,2.31,0,0,1-.25-.46c-.18-.36-.39-.81-.64-1.35-.55-1.17-1.3-2.89-2.2-5-1.8-4.28-4.1-10.27-6.55-16.91s-4.7-12.64-6.41-17c-.84-2.09-1.53-3.82-2-5.1l-.55-1.39a1.56,1.56,0,0,1-.15-.5,2.8,2.8,0,0,1,.25.46l.64,1.35c.55,1.17,1.3,2.9,2.2,5,1.8,4.27,4.1,10.26,6.55,16.9s4.7,12.64,6.41,17l2,5.1.55,1.39A1.56,1.56,0,0,1,2585.63,1783.72Z"/><path class="cls-11" d="M2635.25,1767.73a2,2,0,0,1-.49.2l-1.45.48-5.31,1.73c-4.48,1.45-10.66,3.53-17.47,5.84s-13,4.33-17.54,5.7c-2.26.68-4.09,1.21-5.36,1.55l-1.47.39a2,2,0,0,1-.53.1,1.94,1.94,0,0,1,.5-.2l1.44-.49,5.31-1.72c4.48-1.45,10.66-3.53,17.48-5.84s13-4.34,17.53-5.7c2.26-.68,4.09-1.21,5.37-1.56l1.47-.38A1.54,1.54,0,0,1,2635.25,1767.73Z"/><circle class="cls-1" cx="2268.75" cy="1890.12" r="11.93"/><circle class="cls-1" cx="2343.54" cy="1890.12" r="11.93"/><circle class="cls-9" cx="2418.34" cy="1890.12" r="11.93"/><path class="cls-1" d="M1931.15,1626.65l22.5-13a4.57,4.57,0,0,1,6.86,4v52a4.57,4.57,0,0,1-6.86,4l-22.5-13-22.5-13a4.57,4.57,0,0,1,0-7.92Z"/><path class="cls-1" d="M2760.65,1626.65l-22.5-13a4.57,4.57,0,0,0-6.86,4v52a4.57,4.57,0,0,0,6.86,4l22.5-13,22.5-13a4.57,4.57,0,0,0,0-7.92Z"/><rect class="cls-1" x="2999.03" y="1304.82" width="298.53" height="234.62" rx="3.93"/><rect class="cls-8" x="2999.03" y="1304.82" width="298.53" height="51.21" rx="3.93"/><rect class="cls-1" x="3020.54" y="1322.28" width="86.81" height="9.21" rx="3.04"/><rect class="cls-1" x="3115.95" y="1322.28" width="16.14" height="9.21" rx="3.04"/><rect class="cls-8" x="3020.54" y="1379.32" width="127" height="9.21" rx="3.04"/><rect class="cls-8" x="3160.13" y="1379.32" width="23.62" height="9.21" rx="3.04"/><rect class="cls-8" x="3136.75" y="1411.54" width="74.61" height="9.21" rx="3.04" transform="translate(6348.12 2832.28) rotate(180)"/><rect class="cls-8" x="3020.54" y="1411.54" width="106.18" height="9.21" rx="3.04" transform="translate(6147.25 2832.28) rotate(180)"/><rect class="cls-8" x="3020.54" y="1443.76" width="74.61" height="9.21" rx="3.04"/><path class="cls-8" d="M3132.09,1556.77a1.43,1.43,0,0,1-1.43-1.44v-7.17a1.44,1.44,0,1,1,2.87,0v7.17A1.44,1.44,0,0,1,3132.09,1556.77Z"/><path class="cls-8" d="M3132.09,1633.66a1.43,1.43,0,0,1-1.43-1.43v-12.82a1.44,1.44,0,0,1,2.87,0v12.82A1.44,1.44,0,0,1,3132.09,1633.66Zm0-25.63a1.43,1.43,0,0,1-1.43-1.43v-12.82a1.44,1.44,0,0,1,2.87,0v12.82A1.44,1.44,0,0,1,3132.09,1608Zm0-25.63a1.43,1.43,0,0,1-1.43-1.43v-12.82a1.44,1.44,0,1,1,2.87,0V1581A1.44,1.44,0,0,1,3132.09,1582.4Z"/><path class="cls-8" d="M3132.09,1653.65h-7.17a1.44,1.44,0,1,1,0-2.87h5.74V1645a1.44,1.44,0,0,1,2.87,0v7.18A1.44,1.44,0,0,1,3132.09,1653.65Z"/><path class="cls-8" d="M3110.67,1653.65h-14.24a1.44,1.44,0,0,1,0-2.87h14.24a1.44,1.44,0,1,1,0,2.87Zm-28.48,0h-14.25a1.44,1.44,0,0,1,0-2.87h14.25a1.44,1.44,0,0,1,0,2.87Zm-28.49,0h-14.25a1.44,1.44,0,0,1,0-2.87h14.25a1.44,1.44,0,0,1,0,2.87Zm-28.49,0H3011a1.44,1.44,0,1,1,0-2.87h14.24a1.44,1.44,0,1,1,0,2.87Zm-28.49,0h-14.24a1.44,1.44,0,0,1,0-2.87h14.24a1.44,1.44,0,1,1,0,2.87Zm-28.48,0H2954a1.44,1.44,0,0,1,0-2.87h14.25a1.44,1.44,0,0,1,0,2.87Zm-28.49,0H2925.5a1.44,1.44,0,0,1,0-2.87h14.25a1.44,1.44,0,0,1,0,2.87Zm-28.49,0H2897a1.44,1.44,0,1,1,0-2.87h14.24a1.44,1.44,0,1,1,0,2.87Zm-28.49,0h-14.24a1.44,1.44,0,1,1,0-2.87h14.24a1.44,1.44,0,1,1,0,2.87Zm-28.48,0H2840a1.44,1.44,0,0,1,0-2.87h14.25a1.44,1.44,0,0,1,0,2.87Zm-28.49,0h-14.25a1.44,1.44,0,0,1,0-2.87h14.25a1.44,1.44,0,0,1,0,2.87Zm-28.49,0h-14.24a1.44,1.44,0,1,1,0-2.87h14.24a1.44,1.44,0,1,1,0,2.87Zm-28.49,0h-14.24a1.44,1.44,0,1,1,0-2.87h14.24a1.44,1.44,0,1,1,0,2.87Zm-28.48,0h-14.25a1.44,1.44,0,0,1,0-2.87h14.25a1.44,1.44,0,0,1,0,2.87Zm-28.49,0H2697.6a1.44,1.44,0,0,1,0-2.87h14.25a1.44,1.44,0,0,1,0,2.87Zm-28.49,0h-14.24a1.44,1.44,0,1,1,0-2.87h14.24a1.44,1.44,0,1,1,0,2.87Zm-28.49,0h-14.24a1.44,1.44,0,1,1,0-2.87h14.24a1.44,1.44,0,1,1,0,2.87Zm-28.48,0h-14.25a1.44,1.44,0,0,1,0-2.87h14.25a1.44,1.44,0,0,1,0,2.87Z"/><path class="cls-8" d="M2597.9,1653.65h-7.18a1.44,1.44,0,0,1,0-2.87h7.18a1.44,1.44,0,0,1,0,2.87Z"/><path class="cls-12" d="M2842.24,1816c1.29-5.12,1.15-9-.17-12.27h0c-2.7-6.86-10.4-11.52-20.79-21-.92-.85-1.87-1.74-2.84-2.67-1.24-1.19-2.5-2.45-3.8-3.8-19.2-19.92,3.58-41.8,3.76-54.35s-9.33-4.85-11.84-9.87,26.73-20.26,27.07-42.33c0,0,4.39-.24,11.62-.27,4.61,0,10.38,0,16.91.27,16.74.66,28.94,32.58,29.17,42.63s-.48,39.7-2.63,63.26c-.49,5.29,1.32,18.68,4.26,37.58-7.06-.05-44.88,7.27-54.71,11.24C2840.39,1820.79,2841.74,1818.07,2842.24,1816Z"/><path class="cls-13" d="M2889.25,1808.32c2.32-3.4-7.18-25.29-4.06-38.65s.28-12.28-1.34-20.26,1.71-14.71-.53-21.52-.63-16.06-.63-16.06-12.81-6.62-15.58-12.92-3.88-9.79-3.88-9.79-2.15-5.21-5.49-3.94-17.29,2.15-23.93-1.48a72.6,72.6,0,0,1,11.44-14.29c4.61,0,10.38,0,16.91.27,16.74.66,28.94,32.58,29.17,42.63s-.48,39.7-2.63,63.26c-.49,5.29,1.32,18.68,4.26,37.58-7.06-.05-44.88,7.27-54.71,11.24C2847,1817.87,2886.91,1811.73,2889.25,1808.32Z"/><path class="cls-6" d="M2904.57,2624.84c-.53,6-1.06,11.61-1.59,16.75h-54c-9.46-23.79-30.69-71-53.13-121-12.46-27.72-25.27-56.29-36.66-82.19-17.09-38.88-31-71.75-35.51-86.67-9.82-32.26,75.31-129.91,135.8-194,32.33-34.26,57.62-58.94,57.62-58.94C2925.09,2236.61,2914.91,2508.39,2904.57,2624.84Z"/><path class="cls-7" d="M2900.18,2159.49c0,82.85-79.12,295.53-104.31,361.13-12.46-27.72-25.27-56.29-36.66-82.19-17.09-38.88-31-71.75-35.51-86.67-9.82-32.26,75.31-129.91,135.8-194A362.27,362.27,0,0,1,2900.18,2159.49Z"/><path class="cls-6" d="M2919.38,2055.05a430,430,0,0,1-2.26,43.74c-13.3,120.61-81.36,240.43-157.91,339.64-59.23,76.77-123.52,141.19-171.46,184.07-7.75,6.95-15.08,13.32-21.88,19.09h-67.49c24.88-69.17,85-283.12,168.87-488.34q13.45-32.91,26.14-61.75c12.23-27.88,23.89-53,34.91-75.76,38.47-79.3,69.13-128.72,89-159.09,9.56-6.7,33.73-14.26,50.09-10.3,18.57,4.49,27,24.27,27.53,54.4s-8.36,126-6.54,134.63C2889.46,2040.66,2903.65,2052.64,2919.38,2055.05Z"/><path class="cls-14" d="M2894.08,1820.32c-.72,2.67-59,25-61.51,26.56-1.86,1.2-.52-8.63,1.36-15.54a25.07,25.07,0,0,1,2-5.61,5.47,5.47,0,0,1,2.28-1.34c9.83-4,47.65-11.29,54.71-11.24.63,0,1,.07,1.12.2C2895.44,1815.1,2894.8,1817.65,2894.08,1820.32Z"/><path class="cls-9" d="M2565.87,2641.59c-28.73,24.37-48.22,38-51.65,38-15.79,0-66.72.72-71.74,0s33-10,45.19-15.07c2-.84,5.66-8.92,10.71-22.95Z"/><path class="cls-9" d="M2903,2641.59c-2.5,24.17-4.95,38.34-7.11,38.34H2788.26c-7.89,0,63.57-13.23,65.86-22.56.32-1.26-1.58-6.89-5.12-15.78Z"/><path class="cls-7" d="M2904.57,2624.84c-.53,6-1.06,11.61-1.59,16.75h-54s48.67-4.13,49.92-4.31C2899.65,2637.18,2902.37,2630.51,2904.57,2624.84Z"/><path class="cls-7" d="M2847.56,2030.36s-81.38,64.57-154.17,61.14c12.23-27.88,23.89-53,34.91-75.76C2769.81,2012,2847.56,2030.36,2847.56,2030.36Z"/><path class="cls-7" d="M2587.75,2622.5c-7.75,6.95-15.08,13.32-21.88,19.09h-67.49s66-7.54,69.28-7.54C2569.3,2634.05,2578.8,2628.23,2587.75,2622.5Z"/><path class="cls-15" d="M2919.38,2055.05c-15.73-2.41-29.92-14.39-31-19.67-1.82-8.61,7.06-104.49,6.54-134.63s-9-49.91-27.53-54.4c-16.36-4-40.53,3.6-50.09,10.3,6.93-10.6,12.53-18.9,16.67-25.31-1.88,6.91-3.22,16.74-1.36,15.54,2.5-1.61,60.79-23.89,61.51-26.56C2903,1876.87,2919.84,1974.07,2919.38,2055.05Z"/><path class="cls-15" d="M2885.44,1916.05c-1,29.66-18.89,116.22-22.16,120.53s-85.65,33.65-137.73,18S2885.44,1916.05,2885.44,1916.05Z"/><path class="cls-16" d="M2581.71,1773.49a1.91,1.91,0,0,0,1.08-3.42l-142-108.57a1.91,1.91,0,0,0-2.32,3l142,108.57A1.86,1.86,0,0,0,2581.71,1773.49Z"/><path class="cls-12" d="M2635.29,1815.58c-9.57,2.09-24.61,7.61-34.53,13.39-.18-5.06-.27-9.08-.35-11.81-.31-10.89-6.25-18.52-13.39-24.79-11.75-10.3-26.79-16.93-25.41-28.31,2-16.27,35.65-4.39,53.53,20.59a61.76,61.76,0,0,1,4.79,7.76c.39.75.76,1.48,1.12,2.24a67,67,0,0,0,4,7.12h0A152.44,152.44,0,0,0,2635.29,1815.58Z"/><path class="cls-14" d="M2593.8,1870.2a21.09,21.09,0,0,0,5.16-1.58c1.3-.5,2.82-1.11,4.47-1.82,16-6.75,46.57-21.61,54.18-26.66,1.26-.84,1.9-1.4,1.72-1.63-6.82-8.85-9.36-20.55-15.64-23.46-1.21-.57-4-.37-7.61.36l-.79.18a137.48,137.48,0,0,0-34.53,13.38c-6.11,3.56-10.28,7.23-10,10.23C2591.6,1849.11,2589.12,1870,2593.8,1870.2Z"/><path class="cls-14" d="M2885.36,1911c-1.14,48.57-54.93,141.2-135.16,145.25a117.71,117.71,0,0,1-39-5c-58.87-17.23-86.24-76.74-99.11-131.95a441.36,441.36,0,0,1-8.7-52.48,0,0,0,0,0,0,0,.3.3,0,0,0,.13,0c16.06-6.79,46.43-21.58,54-26.62,6,6.12,12.3,12.21,18.55,18.08,13.63,12.74,27.11,24.32,37.18,32.17,7.34,5.73,12.87,9.46,15.32,10.22,11.61,3.61,94.71-68.18,143.6-46.62C2872.26,1854,2886.65,1855.2,2885.36,1911Z"/><circle class="cls-15" cx="2602.71" cy="1846.72" r="6.14"/><circle class="cls-7" cx="2875.35" cy="2057.95" r="10.09"/><path class="cls-17" d="M2946.81,1718.12c-3,8.78-21.69,10.17-22.07,11.81s17.38,18.84,4.12,29.32c-.27.22-.57.43-.87.65-14.9,10.4-22.43,3.59-22.24,7.35s-14.71,12-18.84,19.55-3.78-19.18,1.07-24-6.09-10.4-1.07-23.13a29.81,29.81,0,0,0,1.76-10.9c0-10.94-4-22-4-22-23.56.47-19.61-22.49-26.31-23s-24.87,7.29-30.25-6.81a37,37,0,0,1-1.84-6.49c-2.11-11.56,3-21.08,20.85-17.43,16.7,3.4,61.18,22.08,82.39,33.41,5.68,3,9.68,5.56,11.05,7.12C2947,1700.9,2949.85,1709.32,2946.81,1718.12Z"/><path class="cls-18" d="M2946.81,1718.12c-3,8.78-21.69,10.17-22.07,11.81s17.38,18.84,4.12,29.32l-40.19-30.51a81.18,81.18,0,0,0,14.62-12.6c5.94-6.9,6-19.73,6-19.86l-83-25.84c1.17.13,69.12,7.26,92.35,13.11,3.57.91,7.23,1.85,10.89,2.87,5.68,3,9.68,5.56,11.05,7.12C2947,1700.9,2949.85,1709.32,2946.81,1718.12Z"/><path class="cls-12" d="M2872.15,1717.21c9.32-24.63,41.25-29,43.4-12.43s-29.05,26.54-36.47,25S2872.15,1717.21,2872.15,1717.21Z"/><path class="cls-13" d="M2880.64,1720.08c1.76-7.78,14.94-19.25,19.73-13.51s-8.25,4.06-9.87,6-.42,4.18-2.45,4.42S2880.38,1721.21,2880.64,1720.08Z"/><path class="cls-19" d="M2952.76,1683.55l-10.68-2.2c0-.09.06-.17.08-.25.08-.24.14-.47.21-.69,20.33-66.7-80.68-104.48-106.31-32.25-.88,2.47-1.68,5.08-2.38,7.84-.23.91-.44,1.84-.66,2.79l-10.36-2.13a1.86,1.86,0,0,0-.34-.06c.21-1,.45-2,.7-3.08q1.07-4.32,2.52-8.55c4.7-13.6,12.6-26.2,24.44-34.67,15-11.06,34.94-14.41,53-10.12,18.09,4.13,34.47,15.49,44.1,31.38C2956.58,1647,2958.13,1666.45,2952.76,1683.55Z"/><path class="cls-20" d="M2942.37,1680.41c-.07.22-.13.45-.21.69,0,.08-.06.16-.08.25L2833,1658.79c.22-1,.43-1.88.66-2.79.7-2.76,1.5-5.37,2.38-7.84C2861.69,1575.93,2962.7,1613.71,2942.37,1680.41Z"/><path class="cls-9" d="M2950.57,1696.15,2818,1668.73a6.18,6.18,0,0,1-1.3-.42,6.37,6.37,0,0,1,3.54-12.12l.35.06,10.36,2.14L2940,1681l10.69,2.2,2.47.51a6.38,6.38,0,0,1-2.59,12.49Z"/><path class="cls-13" d="M2842.07,1803.75c-2.7-6.86-10.4-11.52-20.79-21,8.91,7.43,24.92,13.92,27.25,14.33C2851.12,1797.48,2839.93,1797.38,2842.07,1803.75Z"/><path class="cls-13" d="M2635.29,1815.58c-9.57,2.09-24.61,7.61-34.53,13.39,4.39-7.55,26.09-14,26.45-16,.2-1.09-1-6.55-2.15-11.21A152.44,152.44,0,0,0,2635.29,1815.58Z"/><path class="cls-15" d="M2676.16,1858.21c-6.94-2.12-14.42-4.37-18.1-5.36-7.62-2-51.51,12.9-54.47,13.9,16.06-6.79,46.43-21.58,54-26.62C2663.61,1846.25,2669.91,1852.34,2676.16,1858.21Z"/><path class="cls-7" d="M1278.08,1524.74c22.83.43,27.59,47.64,4,47.77S1262,1526.08,1278.08,1524.74Z"/><path class="cls-12" d="M1302.24,1653.14c-9.65,16.12-38.06,31.33-40.73,53-.85,6.84-1.31,20.07-1.52,35-13.42-1.78-45.28-2.68-58.26-2.32.64-4.34,1.25-8.73,1.86-13.13,4.24-31,7.69-62.49,6.22-75.43-.16-1.35-.36-2.78-.59-4.29-1.24-7.93-3.53-17.8-5.76-28.25-6.43-30-12.49-64.64,7.6-71.38,16.07-5.38,32.5-4.87,43.73-3.39a98.45,98.45,0,0,1,14.24,2.83c1.36,4.6,4.42,9,8,12.91,7.84,8.65,18.08,15.13,18.08,16.93,0,2.64-12.51,11.57-11.52,25.46S1311.88,1637,1302.24,1653.14Z"/><path class="cls-13" d="M1277,1558.61a20.17,20.17,0,0,1-9.08,2.44c-17.46,1.19-17.32-6.7-26.6,6s-18.12,15.79-20.75,18.41,10.81,25.83,10.81,25.83c6.53,6.57-5.84,26.67-13.35,30.2s-6,2.56-6,5.2c0,.66-1.22.37-2.86-.78-4.53-3.23-12.23-13.2-5.76-28.25.38-.9.83-1.84,1.33-2.78,11.71-22.24-9.81-32.53,7.89-46.16s28.7-25.83,41.84-25.83h.27a98.45,98.45,0,0,1,14.24,2.83C1270.39,1550.3,1273.45,1554.68,1277,1558.61Z"/><path class="cls-6" d="M1287.68,2155.63c0,16.93-.6,34.12-1.61,51.46-3,51-9.74,103.19-18.32,153.06-41.22,3-137.78,8.37-206.47-.53-4.75-37.4-7.6-75-7.57-111,0-38.7,3.41-75.46,11.32-107.87Z"/><path class="cls-7" d="M1287.68,2155.63c0,16.93-.6,34.12-1.61,51.46-95.27,10.41-202.62-48.82-215-9.72-4.95,15.66-11.36,34.25-17.4,51.24,0-38.7,3.41-75.46,11.32-107.87Z"/><path class="cls-12" d="M1257.81,2675.48c-.88,0-6.37.26-14.51.57-25.09,1-75.27,2.64-92.17-.57-4.69-.89-13.24-16.57-23.42-42.56-15-38.38-33.54-99.23-48.31-168.09-7.23-33.71-13.56-69.34-18.12-105.21,68.69,8.9,165.25,3.52,206.47.53-27.32,158.82-72.86,294.51-71.09,296.92C1199.17,2660.47,1261.39,2675.48,1257.81,2675.48Z"/><path class="cls-13" d="M1247.05,2674s-1.34.79-3.75,2c-25.09,1-75.27,2.64-92.17-.57-4.69-.89-13.24-16.57-23.42-42.56,12.3,22.37,25.36,36.52,30.38,37.95S1247.05,2674,1247.05,2674Z"/><path class="cls-6" d="M1255.77,2678.35H1149.1a2.16,2.16,0,1,1,0-4.31h106.67a2.16,2.16,0,1,1,0,4.31Z"/><path class="cls-6" d="M1213.69,2676.79a1.44,1.44,0,0,1-1.33-.9,9.73,9.73,0,0,1,1.74-10.29c2.08-2.31,4.92-3.39,7.24-2.75a1.44,1.44,0,0,1-.77,2.77c-1.24-.35-3,.43-4.33,1.9a6.8,6.8,0,0,0-1.21,7.3,1.45,1.45,0,0,1-.8,1.87A1.47,1.47,0,0,1,1213.69,2676.79Z"/><path class="cls-13" d="M1267.75,2360.15c-122.75,26.63-184.44,11.8-186.6,28.18-.87,6.69-2.48,37.09-1.75,76.5-7.23-33.71-13.56-69.34-18.12-105.21C1130,2368.52,1226.53,2363.14,1267.75,2360.15Z"/><path class="cls-17" d="M1306.19,2086c.11,40.72-4.82,69.14-18.51,69.61-48.21,1.67-204.75-11.3-222.65-14.89-14.84-3,59.35-200.56,97.91-303.14,3.76-10,7.19-19.14,10.14-27.09,3.33-8.89,6.08-16.3,8.09-21.86.2.61,10.85,1.31,12.53,1.45,12.22,1,49.13,4.87,66.26,5.44,4.25.15,7.27.07,8.41-.27,0,0,0,0,0,0a.75.75,0,0,0,.43-.21h0C1273.59,1802.23,1305.94,1983.26,1306.19,2086Z"/><path class="cls-18" d="M1306.19,2086c.11,40.72-4.82,69.14-18.51,69.61-48.21,1.67-204.75-11.3-222.65-14.89-14.84-3,59.35-200.56,97.91-303.14,16.5-10.56,31.22-17.87,41.29-20.09l30.71,24c4,26.3-19.39,114.36,6.44,158.1C1260.55,2032.11,1289.27,2061.05,1306.19,2086Z"/><path class="cls-17" d="M1268.83,1795c-.44.56-3.78.69-8.87.52-17.14-.58-54-4.41-66.27-5.45-1.67-.14-12.31-.85-12.51-1.45-1.65-4.93,14.94-49.4,14.94-49.4.21-.27,2.29-.43,5.61-.52,13-.35,44.85.55,58.26,2.33,3.67.48,6,1,6.09,1.65C1266.87,1746.12,1270.94,1792.3,1268.83,1795Z"/><path class="cls-12" d="M1329.07,2164.87c-2.06,2.19-6,3.51-10.38,4.5a30.42,30.42,0,0,0-10.67-1.87,40.46,40.46,0,0,0-12.29,2c-41.55,13.14-217,4.47-228-108.57-.09-1-.18-1.94-.25-2.93a223.26,223.26,0,0,1,.81-39.8c40.46-20.66,111.68-38.68,147.14-46.43,3.94,21.69,14.42,43.16,33.3,67.26,28.33,36.16,61.35,60.66,83.83,88.44C1336.92,2146.65,1333.84,2159.87,1329.07,2164.87Z"/><path class="cls-13" d="M1355.9,2171c13.32,50.6,6.78,63.07-.27,51.79-4.27-6.82-10-29.66-23-43.75a36.15,36.15,0,0,0-13.93-9.66c4.34-1,8.31-2.3,10.39-4.49,4.75-5,7.84-18.22,3.53-37.36,1.59,2,3.15,4,4.64,6C1345.7,2145,1352.25,2157.11,1355.9,2171Z"/><path class="cls-17" d="M1226.33,1886.71c-10.91,32.11-15.67,58.77-10.86,85.1-32.06,7-93.34,22.41-134.7,40.56-4.39,1.92-8.56,3.89-12.44,5.87,4.66-42.56,21.12-81.8,42.72-114.5,28.31-42.87,65.49-74.52,96.65-87.78C1228.22,1807.22,1246.21,1828.15,1226.33,1886.71Z"/><path class="cls-6" d="M1213.11,1573.83c34.29.64,24.54-21.44,34-21.2s32.51,4.22,36.36-15.39.62-47.06-15.86-47.28-18.29,15.93-21.74,12.62-22.45-18-40-3.63-2.69,30.08-7.09,32.19-48.4,3.43-47.65,32.76,12.25,26.37,15.32,32.13-24.37,32.29-6.56,43.07,27.17,6.5,24.81,18.94,25.32,56.86,37.34,25-13.78-35.16-8.26-41.55,19.9-11.79,5-27.51S1213.11,1573.83,1213.11,1573.83Z"/><path class="cls-12" d="M1238.46,1612.12c-4-40.55-39.46-69.46-55.13-33.23s47.83,40.21,52.37,38.15S1238.46,1612.12,1238.46,1612.12Z"/><path class="cls-13" d="M1231.34,1604.16c-7.67-25.57-33.42-23.8-33-14.49s15.75,2,18.1,5.94,6.14,4.2,7.82,2.74S1231.93,1606.14,1231.34,1604.16Z"/><path class="cls-18" d="M1268.37,1795.27c-1.95.85-11.18,3.54-47.57,1.81-29.38-1.39-42.42,7.63-47.72,13.43,3.33-8.89,6.08-16.3,8.09-21.86.2.61,10.85,1.31,12.53,1.45,12.22,1,49.13,4.87,66.26,5.44C1264.21,1795.69,1267.23,1795.61,1268.37,1795.27Z"/><path class="cls-13" d="M1215.47,1971.81c-76.21,26.14-136.94,54.84-143.89,74.21a81.94,81.94,0,0,0-3.81,14.95c-.09-1-.18-1.94-.25-2.93a223.26,223.26,0,0,1,.81-39.8C1108.79,1997.58,1180,1979.56,1215.47,1971.81Z"/><path class="cls-13" d="M1260,1741.06c-13.42-1.78-45.28-2.68-58.26-2.32.64-4.34,1.25-8.73,1.86-13.13C1211.92,1728,1226.57,1735.39,1260,1741.06Z"/><path class="cls-6" d="M1656.35,1675.58c-3.13,11.76-9.14,26.08-20.43,41.62-29.53,40.62-36.33-2.38-33.22-21,2.89-17.29-8.58-48.34-9.62-62.5a19.66,19.66,0,0,1-.06-3c.3-4.63,1.88-16.73,5-23.19,2.08-4.32,8.32-3.64,20.69-8.63l40.22,45.45S1661.39,1656.6,1656.35,1675.58Z"/><path class="cls-7" d="M1656.35,1675.58c-3.13,11.76-9.14,26.08-20.43,41.62-29.53,40.62-36.33-2.38-33.22-21,2.89-17.29-8.58-48.34-9.62-62.5,5.06,24.53,15.12,47.76,15.36,67.27s29.66-21.52,21-45.19C1621.79,1634.54,1651.43,1653.24,1656.35,1675.58Z"/><path class="cls-6" d="M1595.77,1605.77s-2.75,24.87-6.22,23.08-27.74,6.09-13.39,37.27c2.78,6.07,4.55,15.11,5.5,26.13,4,45.66-5.83,125.1-13.15,165.56-8.62,47.61-88.55,83.61-131.5,36.32a79.88,79.88,0,0,1-6.73-8.57c-40.64-59.79,46.41-134.64,72.46-161.66s-5.25-69.59,23.92-111.58S1585,1593.58,1595.77,1605.77Z"/><path class="cls-7" d="M1568.51,1857.81c-8.62,47.61-88.55,83.61-131.5,36.32,10.26-4.45,20.12-10.86,23.65-22.44,7.47-24.47,60.26-67,85.84-89,21.1-18.19,34.71-59,35.16-90.39C1585.63,1737.91,1575.83,1817.35,1568.51,1857.81Z"/><path class="cls-7" d="M1599.77,1605.38s7.6-1.91,12.53-2-10.22,1.16-10.67,3.23,6.92,4.06,4.9,5.71-6.75-.69-6.76,2.09,3.2,9,3,12.19-4.66-4.93-5.47-1.7,3.23,11.66.45,11.21-4.57-3.86-4.75-5.47-1.2-2.06-4.19-2.15a29.7,29.7,0,0,0-11.32,1.79c-3.68,1.53,2.06-1.7,7-4.93s-1.79-.45-6.28-2.33,7.09-2.23,10-3.27.54-5.34-2.78-6.15,4.84-.9,5.83-2.6-15.61-5.29-9.42-7.08,10.68.87,12.47.22S1599.77,1605.38,1599.77,1605.38Z"/><path class="cls-6" d="M1624.73,2394c-4.08,98.78-16,171.2-23.07,210-.9,5-1.73,9.44-2.45,13.31-11.57,1.19-22.6,1.72-31.34,1.92-1.91.05-3.71.07-5.38.08-5.32.07-9.34,0-11.45,0-6.45-28.49-24.07-77.77-43.49-130.61-30.31-82.6-65-173.87-68.13-207.86-6.39-68.91,109.71-177,145.08-208.16,6.33-5.58,10.07-8.7,10.07-8.7q5.88,20.82,10.46,41.6c1.37,6.12,2.64,12.26,3.85,18.39q2,10.33,3.8,20.67C1627,2228.62,1628.13,2312.05,1624.73,2394Z"/><path class="cls-7" d="M1507.55,2488.71c-30.31-82.6-65-173.87-68.13-207.86-6.39-68.91,109.71-177,145.08-208.16a163.54,163.54,0,0,1,20.53,32.9c1.91,4,2.83,6.51,2.83,6.51.49,3.76.82,7.73,1,11.88C1613.17,2219.45,1538.9,2412.08,1507.55,2488.71Z"/><path class="cls-1" d="M1576.29,2635.06a1.19,1.19,0,0,0,1-1.29c-.08-2-.17-4.45-.29-7.44a1.15,1.15,0,0,0-1.11-1.18,1.24,1.24,0,0,0-1,1.3c.12,3,.22,5.47.29,7.43a1.14,1.14,0,0,0,1.1,1.18Zm-.61-14.86a1.18,1.18,0,0,0,1-1.3q-.15-3.45-.34-7.43a1.13,1.13,0,0,0-1.11-1.17h0a1.17,1.17,0,0,0-1,1.3c.12,2.66.23,5.13.33,7.43a1.13,1.13,0,0,0,1.11,1.17Zm-.69-14.85a1.2,1.2,0,0,0,1-1.31q-.18-3.55-.38-7.43a1.13,1.13,0,0,0-1.12-1.16h0a1.18,1.18,0,0,0-1,1.31c.13,2.58.25,5.06.37,7.42a1.13,1.13,0,0,0,1.11,1.17Zm-.76-14.85a1.18,1.18,0,0,0,1-1.31c-.13-2.41-.26-4.88-.41-7.43a1.14,1.14,0,0,0-1.12-1.16,1.19,1.19,0,0,0-1,1.32c.14,2.55.28,5,.4,7.42a1.14,1.14,0,0,0,1.12,1.16Zm-.83-14.84h0a1.19,1.19,0,0,0,1-1.32q-.21-3.63-.44-7.43a1.13,1.13,0,0,0-1.12-1.15h0a1.2,1.2,0,0,0-1,1.33c.15,2.52.3,5,.44,7.41A1.13,1.13,0,0,0,1573.4,2575.66Zm-.89-14.85h0a1.18,1.18,0,0,0,1-1.32c-.15-2.44-.31-4.91-.47-7.43a1.11,1.11,0,0,0-1.12-1.14h0a1.19,1.19,0,0,0-1,1.32q.24,3.78.47,7.43A1.12,1.12,0,0,0,1572.51,2560.81Zm-1-14.84h0a1.2,1.2,0,0,0,1-1.34c-.16-2.43-.32-4.91-.49-7.42a1.14,1.14,0,0,0-1.12-1.14h0a1.21,1.21,0,0,0-1,1.34q.25,3.77.5,7.42A1.13,1.13,0,0,0,1571.56,2546Zm-1-14.84h0a1.21,1.21,0,0,0,1-1.34c-.18-2.44-.35-4.92-.53-7.42a1.12,1.12,0,0,0-1.12-1.13h0a1.2,1.2,0,0,0-1,1.34q.27,3.75.52,7.41A1.13,1.13,0,0,0,1570.55,2531.13Zm-1.06-14.83h0a1.2,1.2,0,0,0,1-1.35q-.27-3.66-.55-7.41a1.15,1.15,0,0,0-1.14-1.13,1.2,1.2,0,0,0-1,1.35q.29,3.73.55,7.41A1.13,1.13,0,0,0,1569.49,2516.3Zm-1.12-14.83h0a1.19,1.19,0,0,0,1-1.35q-.28-3.67-.58-7.41a1.12,1.12,0,0,0-1.12-1.12h0a1.21,1.21,0,0,0-.95,1.35q.3,3.73.58,7.41A1.12,1.12,0,0,0,1568.37,2501.47Zm-1.18-14.81h0a1.19,1.19,0,0,0,1-1.35q-.3-3.68-.61-7.41a1.09,1.09,0,0,0-1.15-1.11,1.19,1.19,0,0,0-.94,1.35q.3,3.73.6,7.41A1.14,1.14,0,0,0,1567.19,2486.66Zm-1.23-14.82h0a1.21,1.21,0,0,0,1-1.36q-.32-3.67-.64-7.4a1.13,1.13,0,0,0-1.16-1.11,1.2,1.2,0,0,0-.94,1.36q.33,3.72.64,7.4A1.11,1.11,0,0,0,1566,2471.84Zm-1.3-14.8h0a1.21,1.21,0,0,0,.93-1.37q-.33-3.68-.66-7.4a1.12,1.12,0,0,0-1.12-1.1h0a1.22,1.22,0,0,0-.93,1.37q.34,3.72.67,7.39A1.12,1.12,0,0,0,1564.66,2457Zm-1.35-14.8h0a1.21,1.21,0,0,0,.93-1.37q-.35-3.67-.7-7.4a1.11,1.11,0,0,0-1.16-1.09,1.21,1.21,0,0,0-.93,1.37c.23,2.48.47,4.94.7,7.39A1.11,1.11,0,0,0,1563.31,2442.24Zm-1.41-14.78h0a1.21,1.21,0,0,0,.93-1.37c-.24-2.45-.48-4.92-.73-7.39a1.1,1.1,0,0,0-1.17-1.09,1.21,1.21,0,0,0-.93,1.37q.38,3.72.73,7.39A1.13,1.13,0,0,0,1561.9,2427.46Zm-1.48-14.78h.06a1.21,1.21,0,0,0,.92-1.38q-.37-3.67-.76-7.39a1.11,1.11,0,0,0-1.17-1.08,1.23,1.23,0,0,0-.92,1.39q.39,3.7.76,7.38A1.12,1.12,0,0,0,1560.42,2412.68Zm-1.53-14.77h.06a1.2,1.2,0,0,0,.91-1.38q-.39-3.69-.79-7.39a1.09,1.09,0,0,0-1.18-1.07,1.21,1.21,0,0,0-.91,1.39q.4,3.69.79,7.37A1.12,1.12,0,0,0,1558.89,2397.91Zm-1.61-14.76h.07a1.22,1.22,0,0,0,.91-1.39q-.4-3.67-.83-7.38a1.09,1.09,0,0,0-1.18-1.06,1.21,1.21,0,0,0-.91,1.39q.42,3.69.83,7.37A1.12,1.12,0,0,0,1557.28,2383.15Zm-1.67-14.75h.08a1.23,1.23,0,0,0,.9-1.4c-.29-2.45-.57-4.91-.86-7.37a1.12,1.12,0,0,0-1.19-1.06,1.22,1.22,0,0,0-.9,1.4q.43,3.69.86,7.37A1.11,1.11,0,0,0,1555.61,2368.4Zm-1.74-14.74h.08a1.22,1.22,0,0,0,.9-1.4l-.9-7.37a1.1,1.1,0,0,0-1.2-1.05,1.24,1.24,0,0,0-.89,1.41l.9,7.36A1.12,1.12,0,0,0,1553.87,2353.66Zm-1.81-14.73h.09a1.22,1.22,0,0,0,.88-1.4c-.3-2.45-.62-4.91-.93-7.37a1.11,1.11,0,0,0-1.2-1,1.23,1.23,0,0,0-.88,1.41l.93,7.36A1.1,1.1,0,0,0,1552.06,2338.93Zm-1.89-14.71h.1a1.23,1.23,0,0,0,.88-1.41q-.48-3.68-1-7.36a1.09,1.09,0,0,0-1.2-1,1.23,1.23,0,0,0-.88,1.42q.5,3.68,1,7.34A1.12,1.12,0,0,0,1550.17,2324.22Zm-2-14.7h.1a1.24,1.24,0,0,0,.87-1.42q-.5-3.68-1-7.35a1.08,1.08,0,0,0-1.21-1,1.22,1.22,0,0,0-.87,1.42q.51,3.68,1,7.34A1.11,1.11,0,0,0,1548.21,2309.52Zm-2-14.68.1,0a1.23,1.23,0,0,0,.87-1.42c-.35-2.45-.7-4.89-1.06-7.34a1.08,1.08,0,0,0-1.21-1,1.25,1.25,0,0,0-.87,1.43c.36,2.45.71,4.89,1.06,7.34A1.11,1.11,0,0,0,1546.17,2294.84Zm-2.13-14.67h.11a1.25,1.25,0,0,0,.86-1.44q-.54-3.66-1.1-7.33a1.09,1.09,0,0,0-1.22-1,1.24,1.24,0,0,0-.86,1.44q.56,3.66,1.1,7.32A1.1,1.1,0,0,0,1544,2280.17Zm-2.22-14.68h.12a1.25,1.25,0,0,0,.85-1.44q-.57-3.67-1.15-7.35a1.08,1.08,0,0,0-1.23-1,1.23,1.23,0,0,0-.84,1.44c.38,2.45.77,4.89,1.14,7.34A1.11,1.11,0,0,0,1541.82,2265.49Zm-2.32-14.66.13,0a1.25,1.25,0,0,0,.84-1.45q-.59-3.66-1.19-7.32a1.08,1.08,0,0,0-1.24-1,1.25,1.25,0,0,0-.83,1.46q.6,3.64,1.19,7.31A1.11,1.11,0,0,0,1539.5,2250.83Zm-2.4-14.63.13,0a1.22,1.22,0,0,0,.83-1.45c-.4-2.44-.82-4.87-1.24-7.3a1.05,1.05,0,0,0-1.24-1,1.23,1.23,0,0,0-.82,1.46c.41,2.42.83,4.85,1.24,7.29A1.1,1.1,0,0,0,1537.1,2236.2Zm-2.51-14.58.15,0a1.24,1.24,0,0,0,.82-1.46l-1.29-7.28a1.07,1.07,0,0,0-1.25-1,1.26,1.26,0,0,0-.82,1.47q.66,3.63,1.29,7.27A1.1,1.1,0,0,0,1534.59,2221.62Zm-2.6-14.53.15,0a1.26,1.26,0,0,0,.81-1.47q-.66-3.63-1.34-7.26a1.07,1.07,0,0,0-1.26-.94,1.25,1.25,0,0,0-.8,1.48q.67,3.61,1.34,7.24A1.08,1.08,0,0,0,1532,2207.09Zm-2.72-14.47.17,0a1.26,1.26,0,0,0,.79-1.48q-.69-3.65-1.4-7.26a1.07,1.07,0,0,0-1.27-.93,1.25,1.25,0,0,0-.79,1.48q.7,3.61,1.4,7.25A1.12,1.12,0,0,0,1529.27,2192.62Zm-2.84-14.5.17,0a1.27,1.27,0,0,0,.79-1.49l-1.47-7.25a1.06,1.06,0,0,0-1.27-.91,1.26,1.26,0,0,0-.78,1.5q.74,3.6,1.47,7.23A1.09,1.09,0,0,0,1526.43,2178.12Zm-3-14.47a.57.57,0,0,0,.18,0,1.26,1.26,0,0,0,.77-1.5c-.5-2.41-1-4.82-1.53-7.22a1.05,1.05,0,0,0-1.28-.9,1.27,1.27,0,0,0-.77,1.5q.78,3.6,1.54,7.21A1.08,1.08,0,0,0,1523.46,2163.65Zm-3.11-14.42a.71.71,0,0,0,.2,0,1.26,1.26,0,0,0,.75-1.51q-.79-3.61-1.6-7.2a1,1,0,0,0-1.29-.88,1.27,1.27,0,0,0-.75,1.52c.54,2.38,1.07,4.78,1.6,7.18A1.09,1.09,0,0,0,1520.35,2149.23Zm-3.25-14.38.21,0a1.28,1.28,0,0,0,.74-1.52c-.56-2.4-1.12-4.8-1.68-7.18a1,1,0,0,0-1.3-.86,1.28,1.28,0,0,0-.74,1.53q.86,3.55,1.69,7.16A1.07,1.07,0,0,0,1517.1,2134.85Zm-3.41-14.33a.93.93,0,0,0,.23,0,1.29,1.29,0,0,0,.72-1.54c-.58-2.39-1.17-4.78-1.77-7.15a1,1,0,0,0-1.31-.84,1.27,1.27,0,0,0-.71,1.54q.89,3.56,1.76,7.14A1.08,1.08,0,0,0,1513.69,2120.52Zm-3.57-14.27.24-.05a1.29,1.29,0,0,0,.7-1.55c-.61-2.38-1.23-4.76-1.85-7.12a1,1,0,0,0-1.32-.82,1.3,1.3,0,0,0-.7,1.55c.63,2.36,1.24,4.73,1.86,7.11A1.08,1.08,0,0,0,1510.12,2106.25Zm-3.75-14.21a1.14,1.14,0,0,0,.25-.06,1.29,1.29,0,0,0,.68-1.55q-1-3.57-2-7.09a1,1,0,0,0-1.33-.79,1.29,1.29,0,0,0-.67,1.56q1,3.51,1.94,7.07A1.09,1.09,0,0,0,1506.37,2092Zm-3.95-14.14a.66.66,0,0,0,.27-.06,1.31,1.31,0,0,0,.66-1.57q-1-3.54-2.06-7.05a1,1,0,0,0-1.34-.76,1.3,1.3,0,0,0-.65,1.58c.69,2.32,1.37,4.67,2,7A1.06,1.06,0,0,0,1502.42,2077.9Zm-4.17-14.05a.73.73,0,0,0,.29-.07,1.31,1.31,0,0,0,.64-1.58c-.72-2.35-1.44-4.69-2.17-7a1,1,0,0,0-1.36-.74,1.33,1.33,0,0,0-.62,1.6q1.1,3.46,2.16,7A1.06,1.06,0,0,0,1498.25,2063.85Zm-4.39-13.95a.84.84,0,0,0,.3-.08,1.3,1.3,0,0,0,.61-1.6q-1.14-3.49-2.29-6.95a1,1,0,0,0-1.37-.69,1.33,1.33,0,0,0-.6,1.61c.77,2.28,1.54,4.59,2.29,6.92A1.06,1.06,0,0,0,1493.86,2049.9Zm-4.66-13.83a.84.84,0,0,0,.33-.1,1.31,1.31,0,0,0,.58-1.61q-1.21-3.48-2.44-6.88a1,1,0,0,0-1.38-.66,1.31,1.31,0,0,0-.56,1.62c.82,2.27,1.62,4.55,2.43,6.86A1.06,1.06,0,0,0,1489.2,2036.07Zm-4.94-13.7a1,1,0,0,0,.36-.11,1.32,1.32,0,0,0,.54-1.63q-1.29-3.44-2.59-6.81a1,1,0,0,0-1.4-.61,1.33,1.33,0,0,0-.52,1.64q1.3,3.36,2.58,6.78A1.06,1.06,0,0,0,1484.26,2022.37Zm-5.25-13.54a1,1,0,0,0,.39-.12,1.34,1.34,0,0,0,.5-1.65q-1.38-3.39-2.77-6.71a1,1,0,0,0-1.41-.56,1.34,1.34,0,0,0-.48,1.66c.93,2.2,1.84,4.42,2.75,6.68A1,1,0,0,0,1479,2008.83Zm-5.6-13.34a.9.9,0,0,0,.41-.13,1.35,1.35,0,0,0,.45-1.67c-1-2.23-2-4.43-3-6.6a1,1,0,0,0-1.43-.51,1.35,1.35,0,0,0-.43,1.68q1.49,3.24,2.94,6.56A1,1,0,0,0,1473.41,1995.49Zm-6-13.09a1.06,1.06,0,0,0,.45-.16,1.36,1.36,0,0,0,.4-1.69q-1.57-3.29-3.18-6.46a1,1,0,0,0-1.44-.44,1.37,1.37,0,0,0-.37,1.7q1.59,3.17,3.16,6.42A1,1,0,0,0,1467.4,1982.4Z"/><path class="cls-1" d="M1584.75,2634.48c0-3-2.9-300.59-56.42-508.66l-2,.72c53.43,207.73,56.31,505,56.33,508Z"/><path class="cls-6" d="M1603.24,2097.71c-1.67,8.72-3.71,18.77-6,29.31-4.71,22.06-10.37,46.32-15.48,65.27-45.68,169.67-141.16,336.84-176,409.78l-6,12.47h-.09c-10.49-1.87-21.54-4.19-31.58-6.46l-3.9-.9c-4.52-1.05-8.78-2.05-12.61-3-.66-72.9,2.18-212.16,14.3-347.23,5.54-61.63,13-122.38,23-175.57,2.68-14.34,5.54-28.12,8.59-41.23C1448.76,2070.05,1545.48,2105.56,1603.24,2097.71Z"/><path class="cls-7" d="M1597.28,2127s-195.81,23-204.06,31.79c-7.2,7.69-8.39,72.11-27.23,98.11,5.54-61.63,13-122.38,23-175.57C1476.44,2076.73,1597.28,2127,1597.28,2127Z"/><path class="cls-1" d="M1376.36,2621.16c0-.12.44-1.59,1.19-4.31a1.13,1.13,0,0,0-.6-1.37.91.91,0,0,0-1.17.7l-1.19,4.29Zm1.77-9.85a.91.91,0,0,0,1.13-.72q.77-2.79,1.7-6.27a1.13,1.13,0,0,0-.6-1.37.91.91,0,0,0-1.17.71c-.63,2.32-1.19,4.41-1.7,6.26a1.14,1.14,0,0,0,.6,1.38Zm3.38-12.53a.92.92,0,0,0,1.14-.72l1.68-6.28a1.15,1.15,0,0,0-.61-1.37h0a.92.92,0,0,0-1.14.73l-1.68,6.27a1.15,1.15,0,0,0,.61,1.37Zm3.34-12.54a.93.93,0,0,0,1.14-.73l1.66-6.28a1.14,1.14,0,0,0-.61-1.37.91.91,0,0,0-1.17.72l-1.66,6.28a1.15,1.15,0,0,0,.62,1.37Zm3.31-12.56a.91.91,0,0,0,1.14-.73l1.64-6.29a1.12,1.12,0,0,0-.61-1.36.92.92,0,0,0-1.17.72l-1.64,6.28a1.15,1.15,0,0,0,.62,1.37Zm3.27-12.57a.92.92,0,0,0,1.15-.74l1.62-6.28a1.15,1.15,0,0,0-.62-1.37h0a.92.92,0,0,0-1.14.74q-.83,3.21-1.63,6.29a1.13,1.13,0,0,0,.62,1.36Zm3.25-12.58a.92.92,0,0,0,1.14-.74l1.61-6.29a1.12,1.12,0,0,0-.63-1.36h0a.93.93,0,0,0-1.15.74l-1.6,6.29a1.15,1.15,0,0,0,.62,1.37Zm3.21-12.59a.92.92,0,0,0,1.14-.74l1.6-6.3a1.14,1.14,0,0,0-.63-1.36,1,1,0,0,0-1.16.74l-1.59,6.29a1.15,1.15,0,0,0,.62,1.37Zm3.18-12.6a.91.91,0,0,0,1.14-.74l1.58-6.3a1.12,1.12,0,0,0-.63-1.36h0a.92.92,0,0,0-1.14.75l-1.58,6.3a1.12,1.12,0,0,0,.63,1.36Zm3.15-12.61a.92.92,0,0,0,1.15-.74l1.56-6.31a1.13,1.13,0,0,0-.63-1.36h0a.93.93,0,0,0-1.15.75l-1.56,6.3a1.14,1.14,0,0,0,.63,1.36Zm3.13-12.61a.92.92,0,0,0,1.14-.75l1.55-6.32a1.12,1.12,0,0,0-.63-1.35.93.93,0,0,0-1.16.75l-1.55,6.31a1.12,1.12,0,0,0,.64,1.35Zm3.09-12.63a.92.92,0,0,0,1.15-.75l1.54-6.32a1.15,1.15,0,0,0-.64-1.36h0a.92.92,0,0,0-1.14.76l-1.54,6.31a1.14,1.14,0,0,0,.64,1.36Zm3.07-12.64a.92.92,0,0,0,1.15-.75l1.52-6.33a1.14,1.14,0,0,0-.64-1.35h0a.92.92,0,0,0-1.14.76l-1.53,6.32a1.13,1.13,0,0,0,.65,1.35Zm3-12.64a.93.93,0,0,0,1.15-.76l1.51-6.33a1.14,1.14,0,0,0-.65-1.35.93.93,0,0,0-1.15.76l-1.51,6.33a1.13,1.13,0,0,0,.65,1.35Zm3-12.66h0a.93.93,0,0,0,1.15-.76l1.49-6.33a1.13,1.13,0,0,0-.64-1.35h0a.92.92,0,0,0-1.14.76l-1.5,6.33A1.14,1.14,0,0,0,1419.56,2447.55Zm3-12.66h0a.92.92,0,0,0,1.14-.77l1.48-6.34a1.11,1.11,0,0,0-.65-1.34h0a.93.93,0,0,0-1.15.77l-1.47,6.33A1.14,1.14,0,0,0,1422.54,2434.89Zm3-12.68h0a.93.93,0,0,0,1.15-.76l1.46-6.35a1.13,1.13,0,0,0-.65-1.34h0a.93.93,0,0,0-1.15.77l-1.46,6.34A1.11,1.11,0,0,0,1425.5,2422.21Zm2.92-12.68h0a.93.93,0,0,0,1.14-.77c.48-2.11,1-4.22,1.45-6.35a1.13,1.13,0,0,0-.65-1.34h0a.92.92,0,0,0-1.14.77c-.48,2.13-1,4.24-1.45,6.35A1.14,1.14,0,0,0,1428.42,2409.53Zm2.89-12.7h0a.93.93,0,0,0,1.14-.78c.48-2.11,1-4.22,1.44-6.35a1.14,1.14,0,0,0-.65-1.34h0a.93.93,0,0,0-1.14.78l-1.44,6.35A1.12,1.12,0,0,0,1431.31,2396.83Zm2.86-12.7h0a.93.93,0,0,0,1.14-.78l1.42-6.36a1.12,1.12,0,0,0-.67-1.34.93.93,0,0,0-1.13.78l-1.42,6.36A1.13,1.13,0,0,0,1434.17,2384.13Zm2.84-12.71h0a.92.92,0,0,0,1.14-.78l1.41-6.36a1.14,1.14,0,0,0-.66-1.33h0a.93.93,0,0,0-1.14.79l-1.4,6.36A1.12,1.12,0,0,0,1437,2371.42Zm2.8-12.72h0a.93.93,0,0,0,1.13-.78l1.39-6.37a1.12,1.12,0,0,0-.65-1.33h0a.92.92,0,0,0-1.13.79l-1.39,6.36A1.12,1.12,0,0,0,1439.81,2358.7Zm2.77-12.73h0a.92.92,0,0,0,1.13-.79l1.38-6.37a1.12,1.12,0,0,0-.68-1.33.93.93,0,0,0-1.13.79c-.46,2.13-.91,4.26-1.37,6.37A1.12,1.12,0,0,0,1442.58,2346Zm2.74-12.75h0a.93.93,0,0,0,1.13-.79l1.36-6.38a1.12,1.12,0,0,0-.68-1.33.93.93,0,0,0-1.13.8l-1.36,6.37A1.12,1.12,0,0,0,1445.32,2333.22Zm2.7-12.75h0a.92.92,0,0,0,1.12-.8l1.34-6.38a1.08,1.08,0,0,0-.68-1.32.93.93,0,0,0-1.13.8l-1.33,6.38A1.11,1.11,0,0,0,1448,2320.47Zm2.67-12.76h0a.92.92,0,0,0,1.12-.8l1.33-6.39a1.15,1.15,0,0,0-.69-1.32.93.93,0,0,0-1.12.81l-1.33,6.38A1.14,1.14,0,0,0,1450.69,2307.71Zm2.63-12.77h0a.94.94,0,0,0,1.13-.81q.66-3.18,1.3-6.39a1.13,1.13,0,0,0-.69-1.32.94.94,0,0,0-1.12.81c-.43,2.14-.87,4.27-1.3,6.39A1.12,1.12,0,0,0,1453.32,2294.94Zm2.6-12.78h0a.93.93,0,0,0,1.12-.81q.64-3.2,1.28-6.4a1.15,1.15,0,0,0-.69-1.32,1,1,0,0,0-1.12.82l-1.29,6.39A1.13,1.13,0,0,0,1455.92,2282.16Zm2.56-12.79h0a.94.94,0,0,0,1.12-.82c.42-2.13.85-4.26,1.27-6.4a1.13,1.13,0,0,0-.66-1.3h0a.94.94,0,0,0-1.12.82c-.42,2.13-.84,4.27-1.27,6.39A1.13,1.13,0,0,0,1458.48,2269.37Zm2.52-12.8h0a.93.93,0,0,0,1.11-.82c.42-2.14.84-4.27,1.25-6.41a1.11,1.11,0,0,0-.7-1.31,1,1,0,0,0-1.12.82c-.41,2.14-.83,4.27-1.24,6.41A1.13,1.13,0,0,0,1461,2256.57Zm2.49-12.82,0,0a1,1,0,0,0,1.12-.83l1.23-6.44a1.07,1.07,0,0,0-.71-1.3.93.93,0,0,0-1.11.82l-1.23,6.44A1.11,1.11,0,0,0,1463.49,2243.75Zm2.45-12.87,0,0a.94.94,0,0,0,1.11-.83c.41-2.15.81-4.29,1.21-6.44a1.12,1.12,0,0,0-.71-1.31,1,1,0,0,0-1.11.84c-.4,2.14-.8,4.29-1.21,6.43A1.12,1.12,0,0,0,1465.94,2230.88Zm2.41-12.87.05,0a1,1,0,0,0,1.11-.84c.4-2.15.79-4.29,1.19-6.44a1.11,1.11,0,0,0-.72-1.3.94.94,0,0,0-1.1.84c-.4,2.14-.79,4.29-1.19,6.43A1.13,1.13,0,0,0,1468.35,2218Zm2.36-12.88.06,0a.93.93,0,0,0,1.1-.84l1.17-6.44a1.09,1.09,0,0,0-.72-1.3.93.93,0,0,0-1.1.84l-1.17,6.44A1.12,1.12,0,0,0,1470.71,2205.13Zm2.32-12.87h.06a.93.93,0,0,0,1.1-.84q.58-3.22,1.14-6.45a1.1,1.1,0,0,0-.72-1.29,1,1,0,0,0-1.1.85l-1.14,6.44A1.13,1.13,0,0,0,1473,2192.26Zm2.27-12.89.06,0a.94.94,0,0,0,1.1-.85q.57-3.23,1.12-6.45a1.11,1.11,0,0,0-.73-1.29,1,1,0,0,0-1.1.86l-1.11,6.44A1.11,1.11,0,0,0,1475.3,2179.37Zm2.22-12.88.07,0a1,1,0,0,0,1.09-.86c.37-2.15.73-4.3,1.1-6.45a1.11,1.11,0,0,0-.74-1.29,1,1,0,0,0-1.09.86c-.36,2.15-.73,4.3-1.09,6.45A1.12,1.12,0,0,0,1477.52,2166.49Zm2.17-12.9.07,0a.94.94,0,0,0,1.09-.86c.36-2.15.71-4.3,1.07-6.45a1.1,1.1,0,0,0-.74-1.28.94.94,0,0,0-1.09.87q-.52,3.21-1.07,6.44A1.11,1.11,0,0,0,1479.69,2153.59Zm2.11-12.89.08,0a1,1,0,0,0,1.09-.87c.35-2.15.69-4.3,1-6.45a1.11,1.11,0,0,0-.75-1.28,1,1,0,0,0-1.08.87c-.35,2.15-.69,4.3-1,6.45A1.12,1.12,0,0,0,1481.8,2140.7Zm2.06-12.9.08,0a1,1,0,0,0,1.09-.87q.51-3.24,1-6.46a1.11,1.11,0,0,0-.75-1.27.94.94,0,0,0-1.08.88c-.34,2.15-.67,4.3-1,6.45A1.11,1.11,0,0,0,1483.86,2127.8Zm2-12.9.09,0a1,1,0,0,0,1.08-.88q.49-3.24,1-6.46a1.08,1.08,0,0,0-.75-1.27,1,1,0,0,0-1.08.89q-.48,3.23-1,6.45A1.12,1.12,0,0,0,1485.86,2114.9Zm2-12.91.09,0a1,1,0,0,0,1.08-.89c.32-2.15.63-4.31,1-6.46a1.09,1.09,0,0,0-.77-1.26,1,1,0,0,0-1.07.89q-.46,3.23-.95,6.45A1.12,1.12,0,0,0,1487.81,2102Zm1.88-12.92a.29.29,0,0,0,.1,0,1,1,0,0,0,1.07-.9c.31-2.15.61-4.31.91-6.46a1.09,1.09,0,0,0-.76-1.26,1,1,0,0,0-1.07.9c-.31,2.15-.61,4.3-.92,6.46A1.09,1.09,0,0,0,1489.69,2089.07Zm1.81-12.91.1,0a1,1,0,0,0,1.07-.9q.45-3.26.89-6.49a1.1,1.1,0,0,0-.78-1.26,1,1,0,0,0-1.06.91q-.43,3.24-.89,6.49A1.13,1.13,0,0,0,1491.5,2076.16Zm1.75-13,.11,0a1,1,0,0,0,1.07-.92c.28-2.17.57-4.33.85-6.5a1.08,1.08,0,0,0-.78-1.24,1,1,0,0,0-1.07.91q-.42,3.26-.85,6.49A1.13,1.13,0,0,0,1493.25,2063.18Zm1.69-13,.11,0a1,1,0,0,0,1.06-.93l.81-6.5a1.07,1.07,0,0,0-.79-1.24,1,1,0,0,0-1.05.92l-.81,6.5A1.12,1.12,0,0,0,1494.94,2050.19Zm1.6-13,.12,0a1,1,0,0,0,1-.93c.27-2.17.52-4.34.78-6.51a1.07,1.07,0,0,0-.8-1.23,1,1,0,0,0-1,.93q-.37,3.24-.77,6.5A1.11,1.11,0,0,0,1496.54,2037.18Zm1.52-13,.13,0a1,1,0,0,0,1-.94q.38-3.27.73-6.52a1.07,1.07,0,0,0-.8-1.23,1,1,0,0,0-1.05,1q-.36,3.24-.73,6.51A1.1,1.1,0,0,0,1498.06,2024.16Z"/><path class="cls-1" d="M1381.18,2622.91c25.29-68,106.31-440.59,128.44-604.1l-1.83-.35c-22.12,163.41-103.06,535.62-128.31,603.57Z"/><path class="cls-17" d="M1427.17,2679.93c-1-.09-12.48-3.83-26.13-8.35h0l-6.78-2.25c-18-6-37.15-12.44-40.19-13.43-1.14-.38-2.11-19.61-2.38-51.73,4.33,1.07,9.19,2.22,14.34,3.41,10.62,2.43,22.54,5,33.83,7-.81,1.69-1.57,3.28-2.3,4.78-4.8,10-7.58,15.73-7.76,16.48-1.29,5.39,24,29.69,33.73,39.75C1426.18,2678.29,1427.68,2680,1427.17,2679.93Z"/><path class="cls-18" d="M1394.26,2669.32c-18-6-37.15-12.44-40.19-13.43-1.14-.38-2.11-19.61-2.38-51.73,4.33,1.07,9.19,2.22,14.34,3.41-3,13.4-6.37,37.43-2,43C1367.09,2654.6,1384.67,2663.8,1394.26,2669.32Z"/><path class="cls-1" d="M1500.6,2223.73a1.43,1.43,0,0,1-.22-2.85c.41-.07,41.5-7.29,57.9-67.62a1.42,1.42,0,0,1,1.76-1,1.45,1.45,0,0,1,1,1.76c-16.91,62.22-59.79,69.64-60.23,69.71Z"/><path class="cls-12" d="M1866,1859.4c-2.56,1.58-6.92,0-11.87-1.36l-1.12-.3h-.09c-.58-.16-1.19-.32-1.79-.45-4.16-1-8.56-1.28-12.54.75-2.44,1.25-13.67,11.52-30.78,26.21h0q-3.11,2.67-6.46,5.51s0,0,0,0c-33.59,28.48-85.39,69.68-138,96.11a296.55,296.55,0,0,1-39.2,16.57c-4.53,1.53-9.05,2.89-13.52,4-14.13,3.7-27.86,5.57-40.84,5-1.19,0-2.36-.11-3.49-.2-49.24-3.34-54.94-32.67-48.11-61.48,5.21-3.64,12.28-8.49,20.6-14,26.63-17.5,66.19-41.38,99.58-52.89,4.48,5.47,9.51,9.66,15,11.51,27.8,9.37,131.17-41,170.34-62.94,0,0,0,0,0,0,13.11-7.35,22-13.3,22.82-15.9,1.35-3.93,2.06-9,2.63-13.68,1-7.66,1.64-14,4.35-11.46,4.34,4.06.17,22.91,3.14,25.8s8.19-.89,9.54,8.55S1871.14,1856.23,1866,1859.4Z"/><path class="cls-13" d="M1610.62,2006.5c-14.13,3.7-27.86,5.57-40.84,5-1.19,0-2.36-.11-3.49-.2-10-19.25-20.56-46.72-27.51-75.44,26.63-17.5,66.19-41.38,99.58-52.89C1621.27,1897,1606.18,1968.13,1610.62,2006.5Z"/><path class="cls-17" d="M1628.53,2675.22l-21-.21-39.11.46c-3.31-.17-9.79-22.75-17.36-56.15,2.35,0,7.07.1,13.35,0,9.17-.14,21.64-.63,34.81-2-.51,2.72-1,5.17-1.35,7.33-1.26,6.89-5.15,31.4-4.83,32.22C1594.12,2659.63,1630,2675.29,1628.53,2675.22Z"/><path class="cls-18" d="M1607.51,2675l-39.11.46c-3.31-.17-9.79-22.75-17.36-56.15,2.35,0,7.07.1,13.35,0,1.94,14.69,8.6,47.43,15,50.17C1584.29,2671.55,1599.3,2672.86,1607.51,2675Z"/><path class="cls-19" d="M1638.36,1883c-43.83,15.1-98.28,51.52-120.18,66.84,7-29.48,27.11-58.41,27.11-58.41q12.07-19.83,24.33-36.42c53.55,2.24,27-32.27,46.58-29.22C1614.75,1832.56,1623.45,1864.81,1638.36,1883Z"/><path class="cls-9" d="M1609.88,2123.49c3.14,5.23-110.27,3.61-178.16,1.78-25.28-.68-44.25-1.39-48.54-1.78-13.14-1.19,54.16-172,125.63-275a411.62,411.62,0,0,1,27.42-35.62c5.22-6,10.42-11.45,15.54-16.29-1.79,7.41,56.53,23.84,66.57,23.89a2.8,2.8,0,0,0,1.34-.21C1604.14,1893.93,1605.57,2116.32,1609.88,2123.49Z"/><path class="cls-12" d="M1715.09,1668.91c-2.87,3.58-13.14.71-16.73,12.66-3.5,11.68,3.27,43.25-27,48.69l-.66.11c-.49.09-1,.16-1.51.23a29.29,29.29,0,0,0-7.85,2.18c-18.69,8.08-29.63,34.42-34.59,49.86l-.13,0-.3-.08c-10.51-2.73-32.69-7.43-46.22-10.4A190.45,190.45,0,0,1,1591,1755c12.29-17.67,29.91-40.26,40.9-55.81,5.22-7.42,9-13.23,9.87-16.17a141.74,141.74,0,0,1,8.14-18.82c1.75-3.49,3.66-7,5.61-10.48,5.69-10,11.84-19,16-22l.45-.32c9-6.14,31.83-16.07,31.83-16.07,4.06,17-.25,32.28,2.39,39.7S1718,1665.32,1715.09,1668.91Z"/><path class="cls-13" d="M1649.94,1664.19a47.9,47.9,0,0,0,3.7,13.08c-6.33,9.4-15.22,17-21.71,21.91,5.22-7.42,9-13.23,9.87-16.17A141.74,141.74,0,0,1,1649.94,1664.19Z"/><path class="cls-13" d="M1685.45,1643.75s-16.74,8-29.3,9.85a4.21,4.21,0,0,0-.6.11c5.69-10,11.84-19,16-22l.45-.32A19.27,19.27,0,0,1,1685.45,1643.75Z"/><path class="cls-6" d="M1658.91,1644.27l-40.22-45.45a143.08,143.08,0,0,0,20.36-10c22.24-13.39,68.87-15.07,80.84,13.87S1692.62,1649.29,1658.91,1644.27Z"/><path class="cls-9" d="M1594.69,1603.38c1.92.19,4.77.17,5.08,2s-3.76,25.14-6.75,25.26-4.54-.6-4.19-2.15S1593.38,1603.24,1594.69,1603.38Z"/><path class="cls-9" d="M1619.68,1820.28c-3.34,2.38-69.82-15.79-67.91-23.68s13.9-28.13,17.46-27c1.26.39,5.34,1.32,10.86,2.56,13.72,3,36.33,7.8,46.65,10.51,3.07.81,5,1.44,5.38,1.77C1634,1786.32,1623,1817.88,1619.68,1820.28Z"/><path class="cls-19" d="M1484.62,2073.15c-20.14,21.19-38.45,38.82-52.9,52.12-25.28-.68-44.25-1.39-48.54-1.78-13.14-1.19,54.16-172,125.63-275,23.92-10.28,43.3-16.11,54.34-16.52l23.61,32C1590,1924.3,1532.26,2023,1484.62,2073.15Z"/><path class="cls-12" d="M1505.45,2007.71c-56,56.77-122.93,125.21-134.75,160.54-13.13,39.31-26.86,73-42.16,72.05s5.94-71.55,22.34-98.41,13.56-111.34,39.73-169.74a146.69,146.69,0,0,1,12.27-21.74c9.46-14,21.62-27.73,35.15-40.63C1453.59,1966,1482.54,1997,1505.45,2007.71Z"/><path class="cls-9" d="M1524,1989c-6,6.06-12.16,12.34-18.49,18.76-22.91-10.74-51.88-41.74-67.43-97.93,53.3-50.78,127.73-88.4,141.23-76.68C1598,1849.33,1582.55,1929.34,1524,1989Z"/><path class="cls-13" d="M1505.45,2007.71c-52.68-9.29-66.56-81-74.68-78.63-5.06,1.49-17.57,11-27.89,21.33,9.46-14,21.62-27.73,35.15-40.63C1453.59,1966,1482.54,1997,1505.45,2007.71Z"/><path class="cls-13" d="M1626.31,1782.53c-10.51-2.73-32.69-7.43-46.22-10.4A190.45,190.45,0,0,1,1591,1755c-1.44,5.24-3.15,11.88-3,13.75C1588.17,1771.77,1622.07,1781.34,1626.31,1782.53Z"/><path class="cls-13" d="M1670.69,1730.37c-.49.09-1,.16-1.51.23a29.29,29.29,0,0,0-7.85,2.18l-2.94-1.26a29.76,29.76,0,0,1-15.14-14.94C1648,1724.58,1662.91,1731.45,1670.69,1730.37Z"/><path class="cls-12" d="M1664.76,1669.87c7-23-3.92-48.24-29.22-36s4.79,53.14,12.91,50.64S1664.76,1669.87,1664.76,1669.87Z"/><path class="cls-13" d="M1657.26,1669.22c2.9-13.87-6.88-27.82-14.54-19.28s9.57,5.89,8.64,9.36-2.46,4.36.24,4.7S1656.58,1672.47,1657.26,1669.22Z"/><path class="cls-13" d="M1851.14,1857.28c-4.16-1-8.56-1.28-12.54.75-2.44,1.25-13.67,11.52-30.78,26.21h0q-3.11,2.67-6.46,5.51c10.84-13,28-33,32.72-35.45C1840.58,1851,1843.05,1855.09,1851.14,1857.28Z"/><path class="cls-19" d="M1618.34,1820.49c-19.81,2.86-66.84-10.57-74.1-9.42a78.25,78.25,0,0,0-8,1.82c5.22-6,10.42-11.45,15.54-16.29C1550,1804,1608.3,1820.44,1618.34,1820.49Z"/><path class="cls-8" d="M3283.29,2647.7l24.55-1.12s34.82-45.52,50.12-92.15c21.51-65.57-9.06-107.65-27.15-109.31s-30.83,14.5-21.7,63.43C3314.5,2537.42,3312.65,2591.67,3283.29,2647.7Z"/><path class="cls-1" d="M3302.52,2627.14a1.08,1.08,0,0,1-.18-.11,1.52,1.52,0,0,1-.38-2.12c36.95-52.76,46-126.69,33.19-164.91a1.52,1.52,0,0,1,2.89-1c13,38.93,3.91,114.08-33.59,167.63A1.51,1.51,0,0,1,3302.52,2627.14Z"/><path class="cls-21" d="M3248.1,2651.29l14.84-.67s21.06-27.53,30.31-55.72c13-39.64-5.48-65.08-16.42-66.08s-18.64,8.76-13.12,38.35C3267,2584.62,3265.85,2617.42,3248.1,2651.29Z"/><path class="cls-1" d="M3259.73,2638.86a.41.41,0,0,1-.11-.07.92.92,0,0,1-.23-1.28c22.34-31.9,27.81-76.59,20.07-99.7a.92.92,0,0,1,1.74-.58c7.89,23.53,2.37,69-20.3,101.34A.92.92,0,0,1,3259.73,2638.86Z"/><path class="cls-8" d="M1675.16,2647.7l24.55-1.12s34.83-45.52,50.13-92.15c21.51-65.57-9.07-107.65-27.16-109.31s-30.82,14.5-21.69,63.43C1706.37,2537.42,1704.53,2591.67,1675.16,2647.7Z"/><path class="cls-1" d="M1694.39,2627.14l-.18-.11a1.51,1.51,0,0,1-.37-2.12c37-52.76,46-126.69,33.19-164.91a1.52,1.52,0,1,1,2.88-1c13,38.93,3.91,114.08-33.58,167.63A1.53,1.53,0,0,1,1694.39,2627.14Z"/><path class="cls-21" d="M1640,2651.29l14.84-.67s21-27.53,30.3-55.72c13-39.64-5.48-65.08-16.42-66.08s-18.63,8.76-13.11,38.35C1658.84,2584.62,1657.73,2617.42,1640,2651.29Z"/><path class="cls-1" d="M1651.6,2638.86l-.11-.07a.92.92,0,0,1-.23-1.28c22.34-31.9,27.81-76.59,20.07-99.7a.92.92,0,0,1,.58-1.16.93.93,0,0,1,1.17.58c7.88,23.53,2.36,69-20.31,101.34A.91.91,0,0,1,1651.6,2638.86Z"/><g id="Plants"><path class="cls-8" d="M1780.48,2057.35l23.19-1s32.91-43,47.36-87.06c20.32-62-8.56-101.71-25.65-103.27s-29.12,13.7-20.5,59.92C1810,1953.17,1808.22,2004.42,1780.48,2057.35Z"/><path class="cls-1" d="M1798.65,2037.93l-.17-.11a1.44,1.44,0,0,1-.36-2c34.91-49.85,43.46-119.68,31.36-155.79a1.44,1.44,0,0,1,2.73-.92c12.32,36.77,3.69,107.78-31.73,158.36A1.43,1.43,0,0,1,1798.65,2037.93Z"/><path class="cls-21" d="M1716,2060.6c-3.66.18-7.68-6.38-9.15-9a30.39,30.39,0,0,1-3.71-14.93,28.55,28.55,0,0,1,5.55-16.38,67.49,67.49,0,0,1,6.08-7.11q3.13-3.36,6.29-6.7c2.06-2.21,4.18-4.5,5.21-7.34,2.07-5.72-.77-11.93-3.45-17.4-3-6-5.52-13.35-2.17-19.81,2.58-5,7.54-8.29,12.64-10.63s10.55-3.91,15.46-6.61c3.54-2,6.9-4.64,8.41-8.39a18.49,18.49,0,0,0,1-7.4c-.13-5.38-1.16-10.79-.42-16.12s3.85-10.85,9-12.28c4.26-1.17,8.76.67,12.55,2.94,3.51,2.1,6.22,5.56,8.49,8.95,7.34,11,7,26.15,15.62,36.13,3.33,3.85,7.75,6.58,11.54,10s7.11,7.94,7.06,13c-.1,10-12.57,16.09-14.1,26-1.36,8.78,4.46,15.4,5.09,24.26a18,18,0,0,1-3.12,10.81,52.94,52.94,0,0,1-12.66,14.49c-5.06,4.17-16.78,10.28-16.78,10.28C1780.23,2057.44,1716.54,2060.57,1716,2060.6Z"/><path class="cls-1" d="M1753.05,2060l0,0a1.44,1.44,0,0,1-.56-2c28.14-49.69,32.94-118,23.89-143.22a1.44,1.44,0,1,1,2.71-1c9.23,25.71,4.44,95.21-24.1,145.61A1.43,1.43,0,0,1,1753.05,2060Z"/><path class="cls-1" d="M1776.18,1996.12a1.66,1.66,0,0,1-.34-.25c-13.73-13.41-33.61-24.72-33.81-24.83a1.44,1.44,0,0,1-.54-2,1.4,1.4,0,0,1,2-.55c.2.12,20.39,11.61,34.39,25.28a1.44,1.44,0,0,1-1.66,2.31Z"/></g><g id="Plants-2" data-name="Plants"><path class="cls-8" d="M3505.7,2312.18l18.81,1.45s22.25-38.17,29.34-79.32c10-57.86-17.84-99.48-31.95-102.82s-22.29,10.17-10.32,55.89C3518.64,2214.36,3522.68,2263.84,3505.7,2312.18Z"/><path class="cls-1" d="M3518.45,2295.29a.79.79,0,0,1-.15-.12,1.73,1.73,0,0,1-.5-2c23.15-44.59,22.67-111.36,8.95-147.65-.29-.75,0-1.5.55-1.66a1.47,1.47,0,0,1,1.58,1.07c14,36.95,14.51,104.84-9,150.08A.92.92,0,0,1,3518.45,2295.29Z"/><path class="cls-21" d="M3453.44,2308.44c-3-.22-7-7-8.44-9.72a40.11,40.11,0,0,1-4.61-14.87,26.38,26.38,0,0,1,2.78-15.28,43.91,43.91,0,0,1,4.2-6.24l4.41-5.83a16.19,16.19,0,0,0,3.47-6.55c1.07-5.33-1.91-11.65-4.67-17.24-3.06-6.18-5.93-13.52-3.89-19.42,1.57-4.56,5.27-7.24,9.18-8.95s8.19-2.67,11.91-4.76a11.47,11.47,0,0,0,6-7.23,19.93,19.93,0,0,0,.05-7.07c-.68-5.23-2.1-10.58-2.06-15.67s2-10.1,6.07-10.93c3.35-.68,7.21,1.58,10.55,4.19,3.08,2.41,5.66,6,7.88,9.58,7.16,11.42,8.47,26.08,16.59,36.68,3.13,4.08,7,7.2,10.48,10.9s6.64,8.45,7.15,13.38c1,9.72-8.54,14.25-8.73,23.71-.17,8.36,5.28,15.39,6.74,24.05a17.3,17.3,0,0,1-1.39,10.14,35.28,35.28,0,0,1-8.78,12.69c-3.68,3.51-12.59,8.18-12.59,8.18C3505.5,2312.23,3453.89,2308.48,3453.44,2308.44Z"/><path class="cls-1" d="M3483.61,2311.83l0,0a1.81,1.81,0,0,1-.67-2c17.65-45.16,14.28-110.86,4.21-136.26a1.21,1.21,0,0,1,.51-1.69,1.47,1.47,0,0,1,1.59,1c10.27,25.9,13.78,92.75-4.12,138.55A.93.93,0,0,1,3483.61,2311.83Z"/><path class="cls-1" d="M3495.66,2252.37a1.57,1.57,0,0,1-.31-.28c-12.62-14.45-30-27.53-30.22-27.66a1.83,1.83,0,0,1-.65-2c.24-.63.88-.81,1.54-.32.18.14,17.87,13.42,30.75,28.17a1.63,1.63,0,0,1,.24,2A1,1,0,0,1,3495.66,2252.37Z"/></g><polygon class="cls-9" points="3831.89 1838.58 3774.09 1595.78 3575.08 1501.05 3452.26 1562.75 3452.26 1717.22 3449.55 1717.22 3449.55 1561.07 3575.05 1498.03 3776.43 1593.89 3776.58 1594.52 3834.52 1837.95 3831.89 1838.58"/><circle class="cls-7" cx="3775.26" cy="1594.99" r="7.09"/><rect class="cls-7" x="3732.82" y="1609.68" width="52.5" height="5.42" transform="translate(-12.25 3195.91) rotate(-45.99)"/><circle class="cls-7" cx="3833.2" cy="1838.26" r="8.66"/><rect class="cls-7" x="3830.76" y="1835.22" width="6.62" height="64.1" transform="translate(-20.46 42.62) rotate(-0.64)"/><circle class="cls-7" cx="3574.15" cy="1499.54" r="5.13"/><rect class="cls-7" x="3573.1" y="1497.72" width="3.92" height="37.97" transform="translate(-49.49 122.4) rotate(-1.95)"/><circle class="cls-7" cx="3450.91" cy="1561.91" r="3.63"/><rect class="cls-7" x="3456.76" y="1558.25" width="2.77" height="26.85" transform="translate(-270.24 2298.36) rotate(-35.47)"/><polygon class="cls-7" points="3564.27 1565.9 3563.39 1566.65 3540.66 1540.05 3540.4 1575.8 3518.58 1552.38 3519.55 1581.21 3501.27 1560.88 3501.33 1587.47 3486.71 1568.13 3485.61 1591.56 3484.46 1591.51 3485.71 1564.89 3500.16 1584.01 3500.11 1557.86 3518.28 1578.08 3517.32 1549.33 3539.27 1572.89 3539.53 1536.94 3564.27 1565.9"/><path class="cls-6" d="M3562.28,1526.41l9.71,38.32-96.45,31.74-10.21-22.24,1-.49Zm6.94,36.8-8.48-33.46-92.37,45.56,8.41,18.32Z"/><circle class="cls-7" cx="3469.88" cy="1586.75" r="15.9"/><circle class="cls-6" cx="3469.88" cy="1586.75" r="4.05"/><polygon class="cls-7" points="3682.4 1644.89 3680.69 1644.43 3694.56 1592.64 3649.19 1623.34 3659.83 1575.45 3624.25 1601.69 3634.07 1560.97 3600.54 1584.11 3612.27 1548.87 3581.73 1567.82 3580.8 1566.31 3615.5 1544.79 3603.89 1579.64 3636.88 1556.88 3627.11 1597.38 3662.58 1571.21 3651.88 1619.37 3697.5 1588.51 3682.4 1644.89"/><path class="cls-6" d="M3730.55,1608.1l-40,45.52-123.79-94.27,19.22-32.19,1.51.84Zm-40.46,40.7,34.91-39.75-137.72-77.12-15.83,26.52Z"/><circle class="cls-7" cx="3574.15" cy="1543.77" r="24.36"/><circle class="cls-6" cx="3574.15" cy="1543.77" r="6.2"/><polygon class="cls-7" points="3716.51 1870.7 3715.31 1868.27 3788.87 1831.92 3707.76 1810.74 3773.57 1774.63 3707.47 1760.22 3764.21 1730.39 3703.74 1715.21 3756.1 1693.12 3703.48 1677.13 3704.27 1674.54 3764.06 1692.7 3712.26 1714.55 3771.75 1729.49 3715.32 1759.16 3781.22 1773.52 3715.04 1809.84 3796.58 1831.13 3716.51 1870.7"/><path class="cls-6" d="M3807.43,1888.91h-92.7l-16.6-237.52,56.42-10.4.55,2.58Zm-87.65-5.42h80.95l-50.38-236.21-46.47,8.57Z"/><circle class="cls-7" cx="3723.48" cy="1644.13" r="37.28"/><circle class="cls-6" cx="3723.48" cy="1644.13" r="9.49"/><rect class="cls-9" x="3650.85" y="1778.21" width="36.82" height="36.82"/><path class="cls-6" d="M3509.05,1992.05v1.6h7.55v-1.6a35.08,35.08,0,0,1,.42-5.25c.06-.54.17-1.13.27-1.66a27.19,27.19,0,0,1,.75-2.89l-7.23-2.2A41.19,41.19,0,0,0,3509.05,1992.05Z"/><path class="cls-6" d="M3516.71,1998.47l-7.5.59a40.44,40.44,0,0,0,3.37,13.49l6.91-3a10.32,10.32,0,0,1-.75-1.93c-.32-.8-.59-1.66-.86-2.46a3,3,0,0,0-.11-.32,11.79,11.79,0,0,1-.26-1.29,24.28,24.28,0,0,1-.75-4.55v-.11A.92.92,0,0,1,3516.71,1998.47Z"/><path class="cls-6" d="M3512.8,1974.81l6.85,3.16a30.14,30.14,0,0,1,2.89-4.93,15.81,15.81,0,0,1,1.71-2.19,23,23,0,0,1,1.93-2l-5.25-5.46A38.13,38.13,0,0,0,3512.8,1974.81Z"/><path class="cls-6" d="M3521.57,2013.46l-6.36,4a35.35,35.35,0,0,0,9.63,10.28l4.39-6.1c-.06-.06-.11-.11-.16-.11a18.73,18.73,0,0,1-2-1.6,19.17,19.17,0,0,1-2-2,13.59,13.59,0,0,1-1.44-1.71A25,25,0,0,1,3521.57,2013.46Z"/><path class="cls-7" d="M3516.6,1993.65v2.2a26.58,26.58,0,0,0,.16,3v.11a30.2,30.2,0,0,0,.75,4.55,11.79,11.79,0,0,0,.26,1.29,3,3,0,0,1,.11.32,20.43,20.43,0,0,0,.86,2.46,10.32,10.32,0,0,0,.75,1.93,25.67,25.67,0,0,0,2.08,4,25,25,0,0,0,2,2.78,19.72,19.72,0,0,0,1.44,1.71c.65.7,1.34,1.34,2,2s1.28,1.06,2,1.6c0,0,.1,0,.16.11a24.79,24.79,0,0,0,3.8,2.24,23.83,23.83,0,0,0,10.6,2.47h347.25a24.09,24.09,0,0,0,2.68-.16h.21a23.77,23.77,0,0,0,8.35-2.63c.06,0,.11,0,.11,0,.75-.43,1.5-.86,2.25-1.34a20.7,20.7,0,0,0,2.14-1.55c.1-.11.27-.21.37-.32a19.15,19.15,0,0,0,1.61-1.45c.16-.16.32-.26.37-.43a10.1,10.1,0,0,0,1.5-1.66c.11,0,.16-.15.22-.21a30.64,30.64,0,0,0,2.62-3.69c.48-.8.91-1.66,1.34-2.52a22.44,22.44,0,0,0,1.12-2.67,34.23,34.23,0,0,0,1.56-5.36,37.25,37.25,0,0,0,.58-6.47v-3.8a35.79,35.79,0,0,0-.43-5.41c-.05-.22-.05-.43-.1-.65a32.66,32.66,0,0,0-1.34-5c-.21-.69-.48-1.33-.75-2,0,0-.06-.1-.11-.21a14,14,0,0,0-.91-1.93,6.59,6.59,0,0,0-.53-1.07c-.27-.48-.54-1-.86-1.44a30.71,30.71,0,0,0-1.93-2.68,26.23,26.23,0,0,0-3.1-3.32c-.7-.64-1.44-1.23-2.14-1.82a25.07,25.07,0,0,0-7.28-3.75,19.9,19.9,0,0,0-4.28-1l-1.13-.16c-.69-.05-1.45-.11-2.14-.11H3543.63a21.47,21.47,0,0,0-4.93.54,5,5,0,0,0-.8.21,9.6,9.6,0,0,0-1.61.43,14.86,14.86,0,0,0-1.55.53,2.05,2.05,0,0,0-.48.22,15.91,15.91,0,0,0-1.92.91,3.49,3.49,0,0,0-.76.43,9.85,9.85,0,0,0-1.44.85,5.11,5.11,0,0,0-.54.33,25.59,25.59,0,0,0-3.42,2.83c-.7.65-1.29,1.34-1.93,2s-1.18,1.44-1.71,2.19a32.26,32.26,0,0,0-2.84,4.93h0a29.67,29.67,0,0,0-1.61,4.28,27.19,27.19,0,0,0-.75,2.89c-.1.53-.21,1.07-.27,1.66a35.08,35.08,0,0,0-.42,5.25Zm30.72,9.85v-21.79h291v21.79ZM3875.25,1993a13.84,13.84,0,1,1,13.86,13.86A13.82,13.82,0,0,1,3875.25,1993Z"/><path class="cls-6" d="M3525.32,1959.77l4.28,6.21a5.11,5.11,0,0,1,.54-.33,6.43,6.43,0,0,1,1.44-.85,3.49,3.49,0,0,1,.76-.43,10.64,10.64,0,0,1,1.92-.91,2.05,2.05,0,0,1,.48-.22,14.86,14.86,0,0,1,1.55-.53,9.6,9.6,0,0,1,1.61-.43,5,5,0,0,1,.8-.21,7,7,0,0,1,1.07-.22l-1.23-7.44A33.07,33.07,0,0,0,3525.32,1959.77Z"/><path class="cls-6" d="M3533,2023.89l-3.32,6.8a31.79,31.79,0,0,0,13.92,3.22h.16l-.16-7.55A23.83,23.83,0,0,1,3533,2023.89Z"/><rect class="cls-6" x="3544.22" y="1953.98" width="12.69" height="7.55"/><rect class="cls-6" x="3548.88" y="2026.36" width="12.69" height="7.55"/><rect class="cls-6" x="3561.99" y="1953.98" width="12.68" height="7.55"/><rect class="cls-6" x="3566.64" y="2026.36" width="12.69" height="7.55"/><rect class="cls-6" x="3579.76" y="1953.98" width="12.69" height="7.55"/><rect class="cls-6" x="3584.42" y="2026.36" width="12.69" height="7.55"/><rect class="cls-6" x="3597.53" y="1953.98" width="12.69" height="7.55"/><rect class="cls-6" x="3602.19" y="2026.36" width="12.69" height="7.55"/><rect class="cls-6" x="3615.31" y="1953.98" width="12.68" height="7.55"/><rect class="cls-6" x="3619.96" y="2026.36" width="12.69" height="7.55"/><rect class="cls-6" x="3633.08" y="1953.98" width="12.69" height="7.55"/><rect class="cls-6" x="3637.73" y="2026.36" width="12.69" height="7.55"/><polygon class="cls-6" points="3647.26 1937.66 3647.26 1946.49 3689.82 1946.49 3756.89 1946.49 3799.45 1946.49 3799.45 1937.66 3647.26 1937.66"/><rect class="cls-6" x="3650.85" y="1953.98" width="12.69" height="7.55"/><rect class="cls-6" x="3655.51" y="2026.36" width="12.69" height="7.55"/><rect class="cls-6" x="3668.68" y="1953.98" width="12.69" height="7.55"/><rect class="cls-6" x="3673.28" y="2026.36" width="12.68" height="7.55"/><polygon class="cls-7" points="3689.82 1946.49 3689.82 1969.17 3699.08 1969.17 3699.08 1971.77 3704.17 1971.77 3704.17 1969.17 3716.91 1969.17 3716.91 1971.77 3721.94 1971.77 3721.94 1969.17 3734.68 1969.17 3734.68 1971.77 3739.77 1971.77 3739.77 1969.17 3752.45 1969.17 3752.45 1971.77 3756.89 1971.77 3756.89 1946.49 3689.82 1946.49"/><rect class="cls-6" x="3691.05" y="2026.36" width="12.69" height="7.55"/><rect class="cls-6" x="3708.82" y="2026.36" width="12.69" height="7.55"/><rect class="cls-6" x="3726.6" y="2026.36" width="12.68" height="7.55"/><polygon class="cls-6" points="3686.39 1953.98 3686.39 1961.53 3699.08 1961.53 3699.08 1954.84 3699.08 1953.98 3689.82 1953.98 3686.39 1953.98"/><polygon class="cls-6" points="3704.17 1954.84 3704.17 1961.53 3716.91 1961.53 3716.91 1954.84 3716.91 1953.98 3704.17 1953.98 3704.17 1954.84"/><polygon class="cls-6" points="3721.94 1954.84 3721.94 1961.53 3734.68 1961.53 3734.68 1954.84 3734.68 1953.98 3721.94 1953.98 3721.94 1954.84"/><polygon class="cls-6" points="3739.77 1953.98 3739.77 1954.84 3739.77 1961.53 3752.45 1961.53 3752.45 1954.84 3752.45 1953.98 3739.77 1953.98"/><rect class="cls-6" x="3744.37" y="2026.36" width="12.74" height="7.55"/><rect class="cls-6" x="3757.53" y="1953.98" width="12.69" height="7.55"/><rect class="cls-6" x="3762.14" y="2026.36" width="12.74" height="7.55"/><rect class="cls-6" x="3775.31" y="1953.98" width="12.69" height="7.55"/><rect class="cls-6" x="3779.91" y="2026.36" width="12.74" height="7.55"/><rect class="cls-6" x="3793.08" y="1953.98" width="12.69" height="7.55"/><rect class="cls-6" x="3797.74" y="2026.36" width="12.68" height="7.55"/><rect class="cls-6" x="3810.85" y="1953.98" width="12.69" height="7.55"/><rect class="cls-6" x="3815.51" y="2026.36" width="12.69" height="7.55"/><rect class="cls-6" x="3828.62" y="1953.98" width="12.69" height="7.55"/><rect class="cls-6" x="3833.28" y="2026.36" width="12.69" height="7.55"/><rect class="cls-6" x="3846.4" y="1953.98" width="12.69" height="7.55"/><rect class="cls-6" x="3851.06" y="2026.36" width="12.68" height="7.55"/><rect class="cls-6" x="3864.17" y="1953.98" width="12.69" height="7.55"/><rect class="cls-6" x="3868.82" y="2026.36" width="12.69" height="7.55"/><path class="cls-6" d="M3889.11,1979.2a13.84,13.84,0,1,0,13.81,13.81A13.82,13.82,0,0,0,3889.11,1979.2Z"/><path class="cls-6" d="M3881.94,1954v7.55h8.94c.69,0,1.45.06,2.14.11a4.06,4.06,0,0,1,1.13.16l1-7.49a26.37,26.37,0,0,0-4.23-.33Z"/><path class="cls-6" d="M3886.6,2026.36v7.55h4.28a30.74,30.74,0,0,0,9.37-1.45l-2.2-7.17a30.71,30.71,0,0,1-4.28.91h-.21a23.39,23.39,0,0,1-2.68.16Z"/><path class="cls-6" d="M3900.73,1955.59l-2.3,7.17a25.07,25.07,0,0,1,7.28,3.75c.75.59,1.44,1.18,2.14,1.82l5.14-5.57A34.13,34.13,0,0,0,3900.73,1955.59Z"/><path class="cls-6" d="M3902.12,2023.57l3.48,6.75a36.32,36.32,0,0,0,10.92-8.94l-5.83-4.82c-.06.06-.11.16-.22.21a10.1,10.1,0,0,1-1.5,1.66c0,.17-.21.27-.37.43a10.55,10.55,0,0,1-1.61,1.45c-.1.11-.27.21-.37.32a15.23,15.23,0,0,1-2.14,1.55,12.15,12.15,0,0,1-2.25,1.34S3902.18,2023.57,3902.12,2023.57Z"/><path class="cls-6" d="M3911,1971.65a30.71,30.71,0,0,1,1.93,2.68c.32.48.59,1,.86,1.44a6.59,6.59,0,0,1,.53,1.07,14,14,0,0,1,.91,1.93c.05.11.11.16.11.21.27.65.54,1.29.75,2a3,3,0,0,1,.21.59l7.18-2.3a38.57,38.57,0,0,0-6.59-12.31Z"/><path class="cls-6" d="M3914.65,2010.35c-.43.86-.86,1.72-1.34,2.52l6.48,3.9a40.29,40.29,0,0,0,4.92-13.06l-7.38-1.39a34.23,34.23,0,0,1-1.56,5.36A22.44,22.44,0,0,1,3914.65,2010.35Z"/><path class="cls-6" d="M3917.38,1986c0,.22,0,.43.1.65a29.41,29.41,0,0,1,.43,5.41v3.8c0,.64,0,1.28,0,1.92l7.55.43c.05-.8.05-1.55.05-2.35v-3.8a42.38,42.38,0,0,0-.64-7.39Z"/><rect class="cls-6" x="3547.32" y="1981.71" width="291.04" height="21.79"/><rect class="cls-19" x="3647.26" y="1869.48" width="205.48" height="68.18"/><rect class="cls-9" x="3588.05" y="1805.32" width="112.96" height="121.54"/><polygon class="cls-1" points="3624.99 1815.04 3594.85 1840.34 3594.85 1895.91 3647.26 1895.91 3647.26 1815.04 3624.99 1815.04"/><path class="cls-6" d="M3449.65,1757.89a12.94,12.94,0,0,1-12.35-8.71c-6.61-17,4.69-24,9.52-27,.46-.29,1-.62,1.37-.88,0-.41,0-.82,0-1.26.05-1.92.13-4.54,0-10.15a2.72,2.72,0,0,1,5.43-.16c.16,5.76.09,8.47,0,10.45,0,.74,0,1.38,0,2,0,2.11-1.74,3.19-3.93,4.55-4.9,3-12.31,7.66-7.33,20.45a7.62,7.62,0,0,0,9.25,5,8.6,8.6,0,0,0,6.76-9.46,2.71,2.71,0,0,1,5.4-.47,14.22,14.22,0,0,1-14.11,15.58Z"/><path class="cls-7" d="M3390,1815.75l-2-1.84,60.53-65.18a1.39,1.39,0,0,1,1-.43,1.35,1.35,0,0,1,1,.48l53.66,63.36-2.07,1.76-52.68-62.21Z"/><rect class="cls-6" x="3379.87" y="1810.18" width="133.85" height="79.63"/><rect class="cls-7" x="3297.18" y="1954.27" width="133.85" height="79.63"/><rect class="cls-6" x="3163.33" y="1954.27" width="133.85" height="79.63"/><rect class="cls-6" x="3222.97" y="1874.64" width="133.85" height="79.63"/></g></svg>