<svg xmlns="http://www.w3.org/2000/svg" viewBox="0 0 4680 3120"><defs><style>.cls-1{fill:#fff;}.cls-2{fill:#ebeff2;}.cls-3{fill:#99a9b5;}.cls-4{fill:#b3bbc3;}.cls-5{fill:#4a5a66;}.cls-6{fill:#343d76;}.cls-7{fill:#192057;}.cls-8{fill:#39457f;}.cls-9{fill:#d74f29;}.cls-10{fill:#c43924;}.cls-11{fill:#ff790b;}.cls-12{fill:#f2e5d6;}.cls-13{fill:#f8bd88;}.cls-14{fill:#fc9d6b;}.cls-15{fill:#ff8736;}.cls-16{fill:#fa993b;}.cls-17{fill:#e9b9af;}.cls-18{fill:#eb928c;}.cls-19{fill:#c4cace;}.cls-20{fill:#6bb14e;}.cls-21{fill:#57a542;}.cls-22{fill:#83d35e;}.cls-23{fill:#d3dce2;}</style></defs><title>jipbm_services_projectmanagment</title><g id="color"><rect class="cls-1" width="4680" height="3120"/><rect class="cls-1" y="2368.59" width="4680" height="751.41"/><rect class="cls-2" width="4680" height="2373.04"/><ellipse class="cls-3" cx="1171.69" cy="2571.76" rx="590.62" ry="15.1"/><ellipse class="cls-3" cx="3508.31" cy="2571.76" rx="590.62" ry="15.1"/><path class="cls-4" d="M3703.19,714.06V1918.28c0,36.54-30.11,66.16-67.27,66.16H1769.81c-37.16,0-67.27-29.62-67.27-66.16V714.06c0-36.54,30.11-66.15,67.27-66.15H3635.92C3673.08,647.91,3703.19,677.52,3703.19,714.06Z"/><path class="cls-5" d="M3703.19,722.81V1918.28a66.15,66.15,0,0,1-66.15,66.16h-34.58V722.81Z"/><path class="cls-6" d="M3703.19,714.06v74.46H1702.54V714.06c0-36.54,30.11-66.15,67.27-66.15H3635.92C3673.08,647.91,3703.19,677.52,3703.19,714.06Z"/><path class="cls-7" d="M2232.08,647.91l-143,140.61H1702.54V714.06c0-36.54,30.11-66.15,67.27-66.15Z"/><circle class="cls-6" cx="1854.86" cy="722.8" r="21.97"/><circle class="cls-6" cx="1944.45" cy="722.8" r="21.97"/><circle class="cls-6" cx="2034.04" cy="722.8" r="21.97"/><rect class="cls-1" x="3623.12" y="956.44" width="59.42" height="280.99" rx="5.28"/><path class="cls-1" d="M3434.92,1176.39H1909.54a83.59,83.59,0,0,1-45.52-13.15c-18.88-12.25-31.13-31.93-31.13-54.13V940.93c0-19.91,9.86-37.81,25.52-50.12,13.57-10.67,31.49-17.15,51.13-17.15H3434.92A84,84,0,0,1,3477.48,885c20.56,12.07,34.09,32.63,34.09,56v168.18c0,19.7-9.64,37.42-25,49.72C3472.93,1169.74,3454.81,1176.39,3434.92,1176.39Z"/><path class="cls-4" d="M2125.42,1025a112.18,112.18,0,1,1-112.17-112.17A111.9,111.9,0,0,1,2125.42,1025Z"/><circle class="cls-1" cx="2010.99" cy="1009.41" r="36.6"/><path class="cls-1" d="M2086.89,1109.62a112.11,112.11,0,0,1-147.29,0A74.44,74.44,0,0,1,2011,1046h.13c.21,0,.41,0,.62,0h.67A74.44,74.44,0,0,1,2086.89,1109.62Z"/><rect class="cls-4" x="2204.84" y="960.76" width="940.17" height="12.08" rx="2.42"/><rect class="cls-4" x="2415.22" y="1077.2" width="519.41" height="12.08" rx="2.42"/><rect class="cls-4" x="2204.84" y="1018.98" width="940.17" height="12.08" rx="2.42"/><path class="cls-5" d="M3445.46,1089.84H3238.28a29.77,29.77,0,0,1-29.77-29.77V997.12a29.77,29.77,0,0,1,29.77-29.77h207.18a29.77,29.77,0,0,1,29.77,29.77v62.95a29.77,29.77,0,0,1-29.77,29.77Z"/><path class="cls-4" d="M3445.46,1083.25H3238.28a29.77,29.77,0,0,1-29.77-29.77v-63a29.75,29.75,0,0,1,29.77-29.76h207.18a29.75,29.75,0,0,1,29.77,29.76v63a29.77,29.77,0,0,1-29.77,29.77Z"/><path class="cls-1" d="M3247.72,1027.41q2.45-6.18,3.8-9.82l1.41-3.88a12.61,12.61,0,0,1,2.06-3.56,2.27,2.27,0,0,1,1.75-.83,2.3,2.3,0,0,1,1.62.65,2,2,0,0,1,.7,1.56,2.18,2.18,0,0,1-.44,1.28,16.14,16.14,0,0,0-1.6,3.06s-.43,1.11-1.2,3.21q-1.47,3.75-4.35,11.25a29.45,29.45,0,0,1-1.84,3.92,2.19,2.19,0,0,1-2,1.27,2.37,2.37,0,0,1-2.35-1.59,115.7,115.7,0,0,1-4.4-13.62q-.66-2.19-1.35-4.38a18.06,18.06,0,0,1-.9-4.24,2,2,0,0,1,.71-1.59,2.35,2.35,0,0,1,1.59-.58,2.22,2.22,0,0,1,2.18,1.62c.21.94.43,1.88.64,2.81.36,1.17.87,2.92,1.55,5.26C3246.11,1022.3,3246.93,1025,3247.72,1027.41Z"/><path class="cls-1" d="M3275,1015c-.52,0-1.94-.15-4.27-.46q-.23,3-.22,7.94l0,7.29c1.44,0,2.91,0,4.4,0a2.16,2.16,0,0,1,1.61.65,2.13,2.13,0,0,1,.65,1.56,2.1,2.1,0,0,1-.66,1.55,2.3,2.3,0,0,1-1.65.64c-.62,0-1.55,0-2.79,0l-2.78,0a27.73,27.73,0,0,0-3.29.28,27.94,27.94,0,0,1-3.28.29,2.3,2.3,0,0,1-1.65-.64,2.09,2.09,0,0,1-.65-1.55,2,2,0,0,1,.68-1.56,2.39,2.39,0,0,1,1.73-.65,24.59,24.59,0,0,0,3.1-.25c0-1.27,0-3.72,0-7.33q0-4.41.33-8.43l-3.53.1a2.28,2.28,0,0,1-1.63-.63,2.09,2.09,0,0,1-.65-1.58,2,2,0,0,1,.63-1.55,2.34,2.34,0,0,1,1.43-.64c.92-.08,2.52-.13,4.81-.13a58.88,58.88,0,0,1,7.94.69,2,2,0,0,1,1.94,2.24,2,2,0,0,1-.75,1.63A2.14,2.14,0,0,1,3275,1015Z"/><path class="cls-1" d="M3296,1013.41a2.77,2.77,0,0,1-.68-.09,19.32,19.32,0,0,0-5.11-.72,19,19,0,0,0-2.62.2,29.17,29.17,0,0,0-3,.58q0,2.16-.14,6.41c.6,0,2.72-.24,6.34-.6,2.07-.2,3.38-.31,3.93-.31a2.41,2.41,0,0,1,1.64.61,2.09,2.09,0,0,1,.68,1.62,2,2,0,0,1-2.06,2.19c-.87.06-2.16.17-3.88.32-1.54.18-3.85.39-7,.64-.07,1.37-.11,2.48-.11,3.32,0,2.12.12,3.33.37,3.62a4.72,4.72,0,0,0,2.05.21c.67,0,1.68,0,3,0s2.37,0,3,0a8.17,8.17,0,0,0,1-.1,6.11,6.11,0,0,1,.94-.1,2.44,2.44,0,0,1,1.6.54,2,2,0,0,1,.77,1.69,2,2,0,0,1-1.9,2.17,44.78,44.78,0,0,1-6.74.31q-5.28,0-6.89-1.43c-1.19-1.05-1.77-3.32-1.77-6.82,0-1.45.1-3.62.31-6.53s.32-5.08.32-6.52a14.51,14.51,0,0,0-.16-1.68,12.65,12.65,0,0,1-.17-1.68q0-2.46,2.28-2.46a2.3,2.3,0,0,1,1.31.4,33.57,33.57,0,0,1,3.58-.7,22.94,22.94,0,0,1,3.21-.24,18.88,18.88,0,0,1,6.54.94,2.07,2.07,0,0,1,1.49,2.06,2.16,2.16,0,0,1-.58,1.5A2.1,2.1,0,0,1,3296,1013.41Z"/><path class="cls-1" d="M3332.08,1013.4c-.18.44-.4,1-.65,1.64s-.48,1.56-.89,2.79q-.91,2.38-2.94,6.95c-1.37,3.09-2.36,5.4-2.95,6.93a20.75,20.75,0,0,1-1.25,2.72,2.5,2.5,0,0,1-2.32,1.35,2.93,2.93,0,0,1-1.67-.5,2,2,0,0,1-.95-1.54,16,16,0,0,1-.93-3.06q-.72-3.47-2-10.43a50.29,50.29,0,0,1-2.27,5.86,36.62,36.62,0,0,0-2.38,6.12,2.1,2.1,0,0,1,.14.76,1.94,1.94,0,0,1-.89,1.64,3,3,0,0,1-1.72.53,3.14,3.14,0,0,1-2-.6,2.27,2.27,0,0,1-.87-1.82l-.5-1.89q-.54-2.53-1.76-7.57-1.07-3.84-3.58-10.95a2.32,2.32,0,0,1-.15-.81,1.85,1.85,0,0,1,.75-1.55,2.54,2.54,0,0,1,1.6-.52,2.31,2.31,0,0,1,2,1,8.87,8.87,0,0,1,.92,2.06,134.35,134.35,0,0,1,3.59,13.35c.86-2.11,1.75-4.6,2.64-7.47a46.78,46.78,0,0,1,1.77-5q1.64-3.54,3.31-3.54a2.42,2.42,0,0,1,2.32,1.74,13.53,13.53,0,0,1,.7,3c.07.44.21,1.53.43,3.26s.9,5.25,2,10.16q1.73-4,4.63-11.6c.11-.31.4-1.3.84-3a9.11,9.11,0,0,1,1.19-2.87,2.39,2.39,0,0,1,2.07-1.14,2.28,2.28,0,0,1,1.64.61,2.06,2.06,0,0,1,.65,1.57A7.32,7.32,0,0,1,3332.08,1013.4Z"/><path class="cls-1" d="M3356.33,1021.4c-.48,1.75-1.17,4.4-2,7.94-.21,1.22-.41,2.44-.6,3.65-.45,1.53-1.26,2.3-2.45,2.3a2.19,2.19,0,0,1-1.77-.76,2.3,2.3,0,0,1-.56-1.54,23.53,23.53,0,0,1,1.12-6.41q1.68-5.67,1.81-6.28c.31-1.67.63-3.34.95-5a13.11,13.11,0,0,1,1.59-4.59,2.57,2.57,0,0,1,2.15-1.14,2.29,2.29,0,0,1,2.17,1.49,28.11,28.11,0,0,1,1.4,5.78,81.51,81.51,0,0,0,2.12,9.12q1.86-4.82,3.44-10.58l.91-3.73c.59-1.55,1.49-2.33,2.71-2.33s2.06.9,2.63,2.7a26.36,26.36,0,0,1,.77,4.06,81.39,81.39,0,0,0,2.37,11.84q1.44,5,1.44,5.46a2,2,0,0,1-.76,1.6,2.5,2.5,0,0,1-1.61.59c-1.18,0-2.06-.84-2.63-2.53l-.91-3.93q-.78-2.92-1.68-8.39-.74,2.17-2.42,6.83l-1,3a16.71,16.71,0,0,1-1.25,2.9,2.64,2.64,0,0,1-2.4,1.51,2.55,2.55,0,0,1-2.34-1.8l-.91-3Q3357.34,1026,3356.33,1021.4Z"/><path class="cls-1" d="M3389.85,1035.21a12.51,12.51,0,0,1-8.18-2.76,9.43,9.43,0,0,1-3.61-7.64,16.25,16.25,0,0,1,3.46-10.06,11.81,11.81,0,0,1,9.77-5.12q5.67,0,8.49,2.6c1.88,1.73,2.83,4.33,2.83,7.81a16.84,16.84,0,0,1-3.19,10A11.21,11.21,0,0,1,3389.85,1035.21Zm1.44-21.18q-3.61,0-6.2,3.51a12,12,0,0,0-2.42,7.27,5.36,5.36,0,0,0,2.1,4.38,7.83,7.83,0,0,0,5.08,1.62q3.57,0,6-3.5a12.5,12.5,0,0,0,2.2-7.27q0-3.42-1.53-4.74T3391.29,1014Z"/><path class="cls-1" d="M3421.9,1034.42a2.3,2.3,0,0,1-1.6-.68,27.29,27.29,0,0,0-10.81-6.4c.11,3.15.17,4.9.17,5.24a2.13,2.13,0,0,1-.64,1.57,2.23,2.23,0,0,1-1.63.64,2.19,2.19,0,0,1-1.62-.64,2.14,2.14,0,0,1-.65-1.57c0-.81,0-2,0-3.64s0-2.83,0-3.64l0-13.1a3.18,3.18,0,0,1,.63-1.92,2.46,2.46,0,0,1,2.29-1l4,.31a11.48,11.48,0,0,1,3.86,1.09q6.93,3.48,6.93,8.65a5.48,5.48,0,0,1-1.45,3.76,11.17,11.17,0,0,1-4.36,2.75,24,24,0,0,1,6.48,4.9,2.13,2.13,0,0,1-.11,3A2.27,2.27,0,0,1,3421.9,1034.42ZM3411.5,1014c-.09,0-.72-.06-1.9-.13v8.62h.71a13.44,13.44,0,0,0,5.9-1,5.75,5.75,0,0,0,1.51-1.12q.69-.69.69-1c0-1.21-.77-2.38-2.3-3.51A9.35,9.35,0,0,0,3411.5,1014Z"/><path class="cls-1" d="M3442.9,1013.41a2.83,2.83,0,0,1-.68-.09,19.32,19.32,0,0,0-5.11-.72,19,19,0,0,0-2.61.2,28.65,28.65,0,0,0-3,.58q0,2.16-.15,6.41c.61,0,2.72-.24,6.35-.6,2.06-.2,3.37-.31,3.92-.31a2.4,2.4,0,0,1,1.64.61,2.07,2.07,0,0,1,.69,1.62,2,2,0,0,1-2.07,2.19c-.86.06-2.15.17-3.88.32-1.53.18-3.85.39-6.94.64-.08,1.37-.12,2.48-.12,3.32,0,2.12.13,3.33.38,3.62a4.69,4.69,0,0,0,2,.21c.67,0,1.69,0,3,0s2.36,0,3,0a7.78,7.78,0,0,0,1-.1,6.23,6.23,0,0,1,.94-.1,2.49,2.49,0,0,1,1.61.54,2,2,0,0,1,.76,1.69,2,2,0,0,1-1.9,2.17,44.62,44.62,0,0,1-6.73.31q-5.29,0-6.9-1.43-1.77-1.58-1.77-6.82c0-1.45.1-3.62.32-6.53s.31-5.08.31-6.52a12.55,12.55,0,0,0-.16-1.68,12.27,12.27,0,0,1-.16-1.68c0-1.64.75-2.46,2.27-2.46a2.27,2.27,0,0,1,1.31.4,33.57,33.57,0,0,1,3.58-.7,22.94,22.94,0,0,1,3.21-.24,18.8,18.8,0,0,1,6.54.94,2.07,2.07,0,0,1,1.49,2.06,2.16,2.16,0,0,1-.58,1.5A2.09,2.09,0,0,1,3442.9,1013.41Z"/><path class="cls-6" d="M3434.92,1545.78H1909.54a83.59,83.59,0,0,1-45.52-13.15c-18.88-12.25-31.13-31.93-31.13-54.13V1310.32c0-19.92,9.86-37.81,25.52-50.13a82.72,82.72,0,0,1,51.13-17.15H3434.92a84,84,0,0,1,42.56,11.32c20.56,12.07,34.09,32.62,34.09,56V1478.5c0,19.7-9.64,37.42-25,49.72C3472.93,1539.13,3454.81,1545.78,3434.92,1545.78Z"/><path class="cls-1" d="M2125.42,1394.4a112.18,112.18,0,1,1-112.17-112.17A111.92,111.92,0,0,1,2125.42,1394.4Z"/><circle class="cls-6" cx="2010.99" cy="1378.8" r="36.6"/><path class="cls-6" d="M2086.89,1479a112.11,112.11,0,0,1-147.29,0A74.44,74.44,0,0,1,2011,1415.4h.13c.21,0,.41,0,.62,0h.67A74.44,74.44,0,0,1,2086.89,1479Z"/><rect class="cls-1" x="2204.84" y="1330.14" width="940.17" height="12.08" rx="2.42"/><rect class="cls-1" x="2415.22" y="1446.59" width="519.41" height="12.08" rx="2.42"/><rect class="cls-1" x="2204.84" y="1388.37" width="940.17" height="12.08" rx="2.42"/><path class="cls-7" d="M3445.46,1459.23H3238.28a29.77,29.77,0,0,1-29.77-29.77v-63a29.77,29.77,0,0,1,29.77-29.76h207.18a29.77,29.77,0,0,1,29.77,29.76v63a29.77,29.77,0,0,1-29.77,29.77Z"/><path class="cls-8" d="M3445.46,1452.63H3238.28a29.77,29.77,0,0,1-29.77-29.76v-63a29.77,29.77,0,0,1,29.77-29.77h207.18a29.77,29.77,0,0,1,29.77,29.77v63a29.75,29.75,0,0,1-29.77,29.76Z"/><path class="cls-1" d="M3247.72,1396.79q2.45-6.16,3.8-9.82c.47-1.28.94-2.58,1.41-3.88a12.54,12.54,0,0,1,2.06-3.55,2.27,2.27,0,0,1,1.75-.83,2.33,2.33,0,0,1,1.62.64,2,2,0,0,1,.7,1.57,2.18,2.18,0,0,1-.44,1.28,16,16,0,0,0-1.6,3s-.43,1.12-1.2,3.22q-1.47,3.75-4.35,11.24a30.16,30.16,0,0,1-1.84,3.93,2.19,2.19,0,0,1-2,1.27,2.37,2.37,0,0,1-2.35-1.59,115.7,115.7,0,0,1-4.4-13.62q-.66-2.19-1.35-4.38a18.16,18.16,0,0,1-.9-4.24,2,2,0,0,1,.71-1.59,2.35,2.35,0,0,1,1.59-.58,2.22,2.22,0,0,1,2.18,1.62c.21.94.43,1.88.64,2.81.36,1.17.87,2.92,1.55,5.26Q3246.53,1393.24,3247.72,1396.79Z"/><path class="cls-1" d="M3275,1384.43c-.52,0-1.94-.16-4.27-.46q-.23,3-.22,7.94l0,7.29c1.44,0,2.91,0,4.4,0a2.22,2.22,0,0,1,2.26,2.2,2.06,2.06,0,0,1-.66,1.55,2.26,2.26,0,0,1-1.65.64c-.62,0-1.55,0-2.79,0l-2.78,0a27.73,27.73,0,0,0-3.29.28,27.44,27.44,0,0,1-3.28.28,2.26,2.26,0,0,1-1.65-.64,2.05,2.05,0,0,1-.65-1.55,2.08,2.08,0,0,1,.68-1.56,2.42,2.42,0,0,1,1.73-.64,26.64,26.64,0,0,0,3.1-.25c0-1.27,0-3.72,0-7.33,0-3,.11-5.75.33-8.43l-3.53.1a2.28,2.28,0,0,1-1.63-.63,2.1,2.1,0,0,1-.65-1.58,2.06,2.06,0,0,1,.63-1.56,2.38,2.38,0,0,1,1.43-.63c.92-.09,2.52-.13,4.81-.13a60.29,60.29,0,0,1,7.94.68,2,2,0,0,1,1.94,2.24,2,2,0,0,1-.75,1.64A2.14,2.14,0,0,1,3275,1384.43Z"/><path class="cls-1" d="M3296,1382.8a2.77,2.77,0,0,1-.68-.09,19.32,19.32,0,0,0-5.11-.72,19,19,0,0,0-2.62.2,29.17,29.17,0,0,0-3,.58q0,2.16-.14,6.41c.6,0,2.72-.24,6.34-.6,2.07-.21,3.38-.31,3.93-.31a2.37,2.37,0,0,1,1.64.61,2.08,2.08,0,0,1,.68,1.62,2,2,0,0,1-2.06,2.19c-.87.06-2.16.17-3.88.32-1.54.17-3.85.39-7,.63-.07,1.38-.11,2.49-.11,3.33,0,2.12.12,3.33.37,3.62a4.72,4.72,0,0,0,2.05.21c.67,0,1.68,0,3,0s2.37,0,3,0a7.67,7.67,0,0,0,1-.09,6.11,6.11,0,0,1,.94-.1,2.44,2.44,0,0,1,1.6.54,2,2,0,0,1,.77,1.68,2,2,0,0,1-1.9,2.18,46.24,46.24,0,0,1-6.74.31q-5.28,0-6.89-1.43c-1.19-1-1.77-3.32-1.77-6.82q0-2.17.31-6.53t.32-6.52a14.14,14.14,0,0,0-.16-1.68,12.65,12.65,0,0,1-.17-1.68q0-2.46,2.28-2.46a2.3,2.3,0,0,1,1.31.4,33.57,33.57,0,0,1,3.58-.7,22.94,22.94,0,0,1,3.21-.24,18.64,18.64,0,0,1,6.54.94,2.07,2.07,0,0,1,1.49,2.06,2.18,2.18,0,0,1-.58,1.5A2.14,2.14,0,0,1,3296,1382.8Z"/><path class="cls-1" d="M3332.08,1382.79c-.18.44-.4,1-.65,1.64s-.48,1.55-.89,2.79q-.91,2.38-2.94,6.94c-1.37,3.1-2.36,5.41-2.95,6.93a20.36,20.36,0,0,1-1.25,2.73,2.5,2.5,0,0,1-2.32,1.35,2.87,2.87,0,0,1-1.67-.51,1.94,1.94,0,0,1-.95-1.54,15.69,15.69,0,0,1-.93-3q-.72-3.46-2-10.43a50.1,50.1,0,0,1-2.27,5.85,37.3,37.3,0,0,0-2.38,6.12,2.19,2.19,0,0,1,.14.77,2,2,0,0,1-.89,1.64,3,3,0,0,1-1.72.53,3.14,3.14,0,0,1-2-.6,2.27,2.27,0,0,1-.87-1.82l-.5-1.9c-.36-1.68-.95-4.21-1.76-7.56q-1.07-3.84-3.58-11a2.32,2.32,0,0,1-.15-.81,1.83,1.83,0,0,1,.75-1.54,2.54,2.54,0,0,1,1.6-.52,2.31,2.31,0,0,1,2,1,8.87,8.87,0,0,1,.92,2.06,134,134,0,0,1,3.59,13.34c.86-2.11,1.75-4.6,2.64-7.46a48,48,0,0,1,1.77-5q1.64-3.52,3.31-3.53a2.42,2.42,0,0,1,2.32,1.73,13.81,13.81,0,0,1,.7,3c.07.44.21,1.53.43,3.26s.9,5.25,2,10.16q1.73-4,4.63-11.61c.11-.3.4-1.29.84-3a9.28,9.28,0,0,1,1.19-2.88,2.4,2.4,0,0,1,2.07-1.13,2.28,2.28,0,0,1,1.64.61,2,2,0,0,1,.65,1.56A7.34,7.34,0,0,1,3332.08,1382.79Z"/><path class="cls-1" d="M3356.33,1390.79c-.48,1.75-1.17,4.4-2,7.93-.21,1.23-.41,2.44-.6,3.66-.45,1.53-1.26,2.3-2.45,2.3a2.19,2.19,0,0,1-1.77-.76,2.3,2.3,0,0,1-.56-1.54A23.47,23.47,0,0,1,3350,1396c1.12-3.78,1.72-5.87,1.81-6.29.31-1.66.63-3.33.95-5a13,13,0,0,1,1.59-4.59,2.57,2.57,0,0,1,2.15-1.14,2.27,2.27,0,0,1,2.17,1.49,28.11,28.11,0,0,1,1.4,5.78,81.51,81.51,0,0,0,2.12,9.12q1.86-4.83,3.44-10.58l.91-3.74c.59-1.54,1.49-2.32,2.71-2.32s2.06.9,2.63,2.7a26.15,26.15,0,0,1,.77,4,81.83,81.83,0,0,0,2.37,11.85c1,3.35,1.44,5.16,1.44,5.46a2,2,0,0,1-.76,1.6,2.5,2.5,0,0,1-1.61.59c-1.18,0-2.06-.85-2.63-2.54l-.91-3.92q-.78-2.93-1.68-8.39c-.49,1.45-1.3,3.72-2.42,6.83l-1,3a17.42,17.42,0,0,1-1.25,2.9,2.64,2.64,0,0,1-2.4,1.51,2.55,2.55,0,0,1-2.34-1.8l-.91-3Q3357.34,1395.37,3356.33,1390.79Z"/><path class="cls-1" d="M3389.85,1404.6a12.51,12.51,0,0,1-8.18-2.76,9.44,9.44,0,0,1-3.61-7.64,16.28,16.28,0,0,1,3.46-10.07,11.8,11.8,0,0,1,9.77-5.11q5.67,0,8.49,2.6c1.88,1.73,2.83,4.33,2.83,7.8a16.87,16.87,0,0,1-3.19,10A11.23,11.23,0,0,1,3389.85,1404.6Zm1.44-21.18a7.56,7.56,0,0,0-6.2,3.5,12,12,0,0,0-2.42,7.28,5.37,5.37,0,0,0,2.1,4.38,7.83,7.83,0,0,0,5.08,1.62q3.57,0,6-3.5a12.53,12.53,0,0,0,2.2-7.28q0-3.4-1.53-4.73T3391.29,1383.42Z"/><path class="cls-1" d="M3421.9,1403.8a2.26,2.26,0,0,1-1.6-.68,27.39,27.39,0,0,0-10.81-6.39c.11,3.15.17,4.89.17,5.24a2.13,2.13,0,0,1-.64,1.57,2.27,2.27,0,0,1-1.63.64,2.23,2.23,0,0,1-1.62-.64,2.14,2.14,0,0,1-.65-1.57c0-.81,0-2,0-3.64s0-2.84,0-3.65l0-13.09a3.16,3.16,0,0,1,.63-1.92,2.42,2.42,0,0,1,2.29-1c2.63.19,4,.3,4,.31a11.26,11.26,0,0,1,3.86,1.09q6.93,3.48,6.93,8.65a5.46,5.46,0,0,1-1.45,3.75,11,11,0,0,1-4.36,2.75,24.26,24.26,0,0,1,6.48,4.91,2.13,2.13,0,0,1-.11,3A2.26,2.26,0,0,1,3421.9,1403.8Zm-10.4-20.41c-.09,0-.72-.06-1.9-.13v8.62h.71a13.44,13.44,0,0,0,5.9-1,5.75,5.75,0,0,0,1.51-1.12c.46-.46.69-.82.69-1,0-1.22-.77-2.38-2.3-3.51A9.35,9.35,0,0,0,3411.5,1383.39Z"/><path class="cls-1" d="M3442.9,1382.8a2.83,2.83,0,0,1-.68-.09,19.32,19.32,0,0,0-5.11-.72,19,19,0,0,0-2.61.2,28.65,28.65,0,0,0-3,.58q0,2.16-.15,6.41c.61,0,2.72-.24,6.35-.6,2.06-.21,3.37-.31,3.92-.31a2.35,2.35,0,0,1,1.64.61,2.21,2.21,0,0,1-1.38,3.81c-.86.06-2.15.17-3.88.32-1.53.17-3.85.39-6.94.63q-.12,2.07-.12,3.33c0,2.12.13,3.33.38,3.62a4.69,4.69,0,0,0,2,.21c.67,0,1.69,0,3,0s2.36,0,3,0a7.36,7.36,0,0,0,1-.09,6.23,6.23,0,0,1,.94-.1,2.49,2.49,0,0,1,1.61.54,2,2,0,0,1,.76,1.68,2,2,0,0,1-1.9,2.18,46.07,46.07,0,0,1-6.73.31q-5.29,0-6.9-1.43-1.77-1.57-1.77-6.82c0-1.45.1-3.63.32-6.53s.31-5.08.31-6.52a12.27,12.27,0,0,0-.16-1.68,12.27,12.27,0,0,1-.16-1.68c0-1.64.75-2.46,2.27-2.46a2.27,2.27,0,0,1,1.31.4,33.57,33.57,0,0,1,3.58-.7,22.94,22.94,0,0,1,3.21-.24,18.56,18.56,0,0,1,6.54.94,2.07,2.07,0,0,1,1.49,2.06,2.18,2.18,0,0,1-.58,1.5A2.12,2.12,0,0,1,3442.9,1382.8Z"/><path class="cls-1" d="M3434.92,1915.16H1909.54A83.59,83.59,0,0,1,1864,1902c-18.88-12.25-31.13-31.94-31.13-54.13V1679.7c0-19.91,9.86-37.8,25.52-50.12a82.72,82.72,0,0,1,51.13-17.15H3434.92a84,84,0,0,1,42.56,11.32c20.56,12.06,34.09,32.62,34.09,56v168.19c0,19.7-9.64,37.42-25,49.72C3472.93,1908.51,3454.81,1915.16,3434.92,1915.16Z"/><path class="cls-4" d="M2125.42,1763.79a112.18,112.18,0,1,1-112.17-112.17A111.92,111.92,0,0,1,2125.42,1763.79Z"/><circle class="cls-1" cx="2010.99" cy="1748.19" r="36.6"/><path class="cls-1" d="M2086.89,1848.4a112.15,112.15,0,0,1-147.29,0,74.44,74.44,0,0,1,71.37-63.61h.13c.21,0,.41,0,.62,0h.67A74.44,74.44,0,0,1,2086.89,1848.4Z"/><rect class="cls-4" x="2204.84" y="1699.53" width="940.17" height="12.08" rx="2.42"/><rect class="cls-4" x="2415.22" y="1815.98" width="519.41" height="12.08" rx="2.42"/><rect class="cls-4" x="2204.84" y="1757.76" width="940.17" height="12.08" rx="2.42"/><path class="cls-5" d="M3445.46,1828.62H3238.28a29.77,29.77,0,0,1-29.77-29.77v-63a29.75,29.75,0,0,1,29.77-29.76h207.18a29.75,29.75,0,0,1,29.77,29.76v63a29.77,29.77,0,0,1-29.77,29.77Z"/><path class="cls-4" d="M3445.46,1822H3238.28a29.77,29.77,0,0,1-29.77-29.76v-63a29.77,29.77,0,0,1,29.77-29.77h207.18a29.77,29.77,0,0,1,29.77,29.77v63a29.77,29.77,0,0,1-29.77,29.76Z"/><path class="cls-1" d="M3247.72,1766.18q2.45-6.17,3.8-9.82l1.41-3.88a12.54,12.54,0,0,1,2.06-3.55,2.31,2.31,0,0,1,3.37-.19,2,2,0,0,1,.7,1.57,2.18,2.18,0,0,1-.44,1.28,15.74,15.74,0,0,0-1.6,3.05s-.43,1.12-1.2,3.21q-1.47,3.75-4.35,11.25a30.16,30.16,0,0,1-1.84,3.93,2.21,2.21,0,0,1-2,1.27,2.37,2.37,0,0,1-2.35-1.59,115.7,115.7,0,0,1-4.4-13.62q-.66-2.19-1.35-4.38a18.16,18.16,0,0,1-.9-4.24,2,2,0,0,1,.71-1.59,2.35,2.35,0,0,1,1.59-.59,2.23,2.23,0,0,1,2.18,1.63c.21.94.43,1.88.64,2.81.36,1.16.87,2.92,1.55,5.25Q3246.53,1762.63,3247.72,1766.18Z"/><path class="cls-1" d="M3275,1753.81c-.52,0-1.94-.15-4.27-.45q-.23,3-.22,7.94l0,7.28c1.44,0,2.91,0,4.4,0a2.22,2.22,0,0,1,2.26,2.21,2.08,2.08,0,0,1-.66,1.55,2.26,2.26,0,0,1-1.65.64l-2.79,0c-1.23,0-2.16,0-2.78,0a28.25,28.25,0,0,0-3.29.29,27.44,27.44,0,0,1-3.28.28,2.26,2.26,0,0,1-1.65-.64,2.15,2.15,0,0,1,0-3.11,2.43,2.43,0,0,1,1.73-.65,26.27,26.27,0,0,0,3.1-.24c0-1.28,0-3.72,0-7.34q0-4.41.33-8.42l-3.53.1a2.25,2.25,0,0,1-1.63-.64,2.23,2.23,0,0,1,0-3.13,2.27,2.27,0,0,1,1.43-.63c.92-.09,2.52-.13,4.81-.13a60.29,60.29,0,0,1,7.94.68,2,2,0,0,1,1.94,2.24,2,2,0,0,1-.75,1.64A2.13,2.13,0,0,1,3275,1753.81Z"/><path class="cls-1" d="M3296,1752.19a2.38,2.38,0,0,1-.68-.1,19.71,19.71,0,0,0-5.11-.71,18.9,18.9,0,0,0-2.62.19,29.33,29.33,0,0,0-3,.59c0,1.44,0,3.57-.14,6.41.6,0,2.72-.24,6.34-.6,2.07-.21,3.38-.31,3.93-.31a2.37,2.37,0,0,1,1.64.61,2.21,2.21,0,0,1-1.38,3.8l-3.88.33c-1.54.17-3.85.38-7,.63-.07,1.38-.11,2.49-.11,3.33,0,2.12.12,3.33.37,3.62a4.72,4.72,0,0,0,2.05.21c.67,0,1.68,0,3,0s2.37-.05,3-.05a6.44,6.44,0,0,0,1-.1,7.27,7.27,0,0,1,.94-.09,2.49,2.49,0,0,1,1.6.53,2.21,2.21,0,0,1-1.13,3.87,46.75,46.75,0,0,1-6.74.3q-5.28,0-6.89-1.42c-1.19-1-1.77-3.33-1.77-6.82q0-2.17.31-6.53t.32-6.52a14.14,14.14,0,0,0-.16-1.68,12.65,12.65,0,0,1-.17-1.68c0-1.64.76-2.47,2.28-2.47a2.31,2.31,0,0,1,1.31.41,36.43,36.43,0,0,1,3.58-.71,24.48,24.48,0,0,1,3.21-.23,18.64,18.64,0,0,1,6.54.94,2.07,2.07,0,0,1,1.49,2.06,2.15,2.15,0,0,1-.58,1.49A2.11,2.11,0,0,1,3296,1752.19Z"/><path class="cls-1" d="M3332.08,1752.17c-.18.45-.4,1-.65,1.64s-.48,1.56-.89,2.79c-.61,1.6-1.59,3.91-2.94,7s-2.36,5.41-2.95,6.93a20.36,20.36,0,0,1-1.25,2.73,2.5,2.5,0,0,1-2.32,1.35,2.87,2.87,0,0,1-1.67-.51,2,2,0,0,1-.95-1.54,15.69,15.69,0,0,1-.93-3c-.48-2.32-1.14-5.79-2-10.44a49.6,49.6,0,0,1-2.27,5.86,37.3,37.3,0,0,0-2.38,6.12,2.14,2.14,0,0,1,.14.76,1.94,1.94,0,0,1-.89,1.64,3,3,0,0,1-1.72.54,3.14,3.14,0,0,1-2-.6,2.29,2.29,0,0,1-.87-1.82l-.5-1.9q-.54-2.53-1.76-7.56-1.07-3.86-3.58-11a2.32,2.32,0,0,1-.15-.81,1.83,1.83,0,0,1,.75-1.54,2.48,2.48,0,0,1,1.6-.52,2.31,2.31,0,0,1,2,1,8.67,8.67,0,0,1,.92,2.06,134,134,0,0,1,3.59,13.34c.86-2.11,1.75-4.6,2.64-7.46a48,48,0,0,1,1.77-5q1.64-3.54,3.31-3.54a2.42,2.42,0,0,1,2.32,1.74,13.53,13.53,0,0,1,.7,3c.07.45.21,1.53.43,3.27s.9,5.24,2,10.16q1.73-4,4.63-11.61c.11-.3.4-1.3.84-3a9.18,9.18,0,0,1,1.19-2.88,2.38,2.38,0,0,1,2.07-1.13,2.32,2.32,0,0,1,1.64.6,2.07,2.07,0,0,1,.65,1.57A7.18,7.18,0,0,1,3332.08,1752.17Z"/><path class="cls-1" d="M3356.33,1760.18c-.48,1.75-1.17,4.39-2,7.93-.21,1.22-.41,2.44-.6,3.65-.45,1.54-1.26,2.31-2.45,2.31a2.22,2.22,0,0,1-1.77-.76,2.33,2.33,0,0,1-.56-1.55,23.53,23.53,0,0,1,1.12-6.41c1.12-3.77,1.72-5.87,1.81-6.28.31-1.66.63-3.33.95-5a13,13,0,0,1,1.59-4.58,2.58,2.58,0,0,1,2.15-1.15,2.28,2.28,0,0,1,2.17,1.5,28,28,0,0,1,1.4,5.77,81.14,81.14,0,0,0,2.12,9.13c1.24-3.22,2.38-6.74,3.44-10.59l.91-3.73c.59-1.55,1.49-2.32,2.71-2.32s2.06.9,2.63,2.69a26.62,26.62,0,0,1,.77,4.06,81.83,81.83,0,0,0,2.37,11.85q1.44,5,1.44,5.45a2,2,0,0,1-.76,1.61,2.49,2.49,0,0,1-1.61.58c-1.18,0-2.06-.84-2.63-2.53l-.91-3.92q-.78-2.92-1.68-8.4-.74,2.17-2.42,6.84l-1,3a17.2,17.2,0,0,1-1.25,2.91,2.66,2.66,0,0,1-2.4,1.51,2.55,2.55,0,0,1-2.34-1.8l-.91-3Q3357.34,1764.76,3356.33,1760.18Z"/><path class="cls-1" d="M3389.85,1774a12.51,12.51,0,0,1-8.18-2.76,9.45,9.45,0,0,1-3.61-7.65,16.28,16.28,0,0,1,3.46-10.06,11.8,11.8,0,0,1,9.77-5.11c3.78,0,6.61.86,8.49,2.6s2.83,4.33,2.83,7.8a16.89,16.89,0,0,1-3.19,10A11.23,11.23,0,0,1,3389.85,1774Zm1.44-21.18a7.56,7.56,0,0,0-6.2,3.5,12,12,0,0,0-2.42,7.27,5.38,5.38,0,0,0,2.1,4.39,7.83,7.83,0,0,0,5.08,1.62q3.57,0,6-3.51a12.48,12.48,0,0,0,2.2-7.27q0-3.4-1.53-4.74T3391.29,1752.81Z"/><path class="cls-1" d="M3421.9,1773.19a2.26,2.26,0,0,1-1.6-.68,27.39,27.39,0,0,0-10.81-6.39c.11,3.14.17,4.89.17,5.24a2.09,2.09,0,0,1-.64,1.56,2.24,2.24,0,0,1-1.63.65,2.2,2.2,0,0,1-1.62-.65,2.1,2.1,0,0,1-.65-1.56c0-.81,0-2,0-3.65s0-2.83,0-3.64l0-13.1a3.15,3.15,0,0,1,.63-1.91,2.42,2.42,0,0,1,2.29-1c2.63.19,4,.3,4,.31a11.49,11.49,0,0,1,3.86,1.08q6.93,3.49,6.93,8.65a5.48,5.48,0,0,1-1.45,3.76,11,11,0,0,1-4.36,2.75,24.25,24.25,0,0,1,6.48,4.9,2.16,2.16,0,0,1,.57,1.45,2.14,2.14,0,0,1-.68,1.57A2.31,2.31,0,0,1,3421.9,1773.19Zm-10.4-20.42-1.9-.13v8.62l.71,0a13.44,13.44,0,0,0,5.9-1,6,6,0,0,0,1.51-1.12c.46-.47.69-.82.69-1.06,0-1.21-.77-2.38-2.3-3.5A9.47,9.47,0,0,0,3411.5,1752.77Z"/><path class="cls-1" d="M3442.9,1752.19a2.43,2.43,0,0,1-.68-.1,19.71,19.71,0,0,0-5.11-.71,18.87,18.87,0,0,0-2.61.19,28.8,28.8,0,0,0-3,.59c0,1.44-.05,3.57-.15,6.41.61,0,2.72-.24,6.35-.6,2.06-.21,3.37-.31,3.92-.31a2.35,2.35,0,0,1,1.64.61,2.2,2.2,0,0,1-1.38,3.8l-3.88.33c-1.53.17-3.85.38-6.94.63q-.12,2.07-.12,3.33c0,2.12.13,3.33.38,3.62a4.69,4.69,0,0,0,2,.21c.67,0,1.69,0,3,0s2.36-.05,3-.05a6.2,6.2,0,0,0,1-.1,7.43,7.43,0,0,1,.94-.09,2.53,2.53,0,0,1,1.61.53,2.22,2.22,0,0,1-1.14,3.87,46.58,46.58,0,0,1-6.73.3q-5.29,0-6.9-1.42c-1.18-1-1.77-3.33-1.77-6.82,0-1.45.1-3.63.32-6.53s.31-5.08.31-6.52a12.27,12.27,0,0,0-.16-1.68,12.27,12.27,0,0,1-.16-1.68c0-1.64.75-2.47,2.27-2.47a2.28,2.28,0,0,1,1.31.41,36.43,36.43,0,0,1,3.58-.71,24.48,24.48,0,0,1,3.21-.23,18.56,18.56,0,0,1,6.54.94,2.07,2.07,0,0,1,1.49,2.06,2.15,2.15,0,0,1-.58,1.49A2.1,2.1,0,0,1,3442.9,1752.19Z"/><path class="cls-9" d="M1579.7,1311.14c-19,10.7-48.53,24.14-46.63,75.31s-32,52.23-58.36,23.74-109.62-3.29-109.62-3.29-82.7,76-110.8,76.77-8.31-34.43,3.57-57-7.13-106.84,41.94-116.33c41.88-8.11,85.51-47.65,101.79-74a52.41,52.41,0,0,0,5.84-12.22c6.94-23.49,4.5-49.23,17.86-82.67.36-.94.74-1.87,1.14-2.8,0,0,70.44-26.52,92.07-31.27,4.09-.9,9.1,1.54,14.5,6.3a88.08,88.08,0,0,1,11.4,12.62q2.08,2.76,4.16,5.78a211.62,211.62,0,0,1,15.21,26c11.67,23.46,19.52,49,15.93,62.16C1571.78,1249.28,1598.69,1300.45,1579.7,1311.14Z"/><path class="cls-10" d="M1482,1256.67c-37.54,36-166.68,102.35-187.43,125s-35.64,41.8-37.75,52.56,35.35,32.68,107.11-9.94S1482,1256.67,1482,1256.67Z"/><path class="cls-10" d="M1572.31,1227.11c-6.85,28.49-42.21,43.8-51.7,71.23s-17.64,84.15-11.11,100.78,13.89,52.53-17,25.21-13.58-149.65,17-172.38S1572.31,1227.11,1572.31,1227.11Z"/><path class="cls-9" d="M1438,2512.85h-95.4c-3.2-10.06-6.57-21-10.1-32.71-12.42-41.33-26.58-91.6-40.24-142.43-31.54-117.43-60.48-237.93-59.7-258.53,1.44-38.24,172.23-238.45,202.71-273.89,3-3.49,4.64-5.37,4.64-5.37C1448.13,1885.52,1436.08,2380.18,1438,2512.85Z"/><path class="cls-10" d="M1438,2512.85h-95.4c-3.2-10.06-6.57-21-10.1-32.71,5,8.69,10.78,17.93,13.76,19.26C1352,2502,1438,2512.85,1438,2512.85Z"/><path class="cls-10" d="M1435.24,1805.29l-143,532.42c-31.54-117.43-60.48-237.93-59.7-258.53C1234,2040.94,1404.76,1840.73,1435.24,1805.29Z"/><path class="cls-11" d="M1399,2552.29c0-.16-.33-2.16-.87-5.86a1.39,1.39,0,0,1,1.05-1.63,1.35,1.35,0,0,1,1.48,1.2c.55,3.69.85,5.69.88,5.84Zm-.7-13.16a1.33,1.33,0,0,1-1.42-1.21q-.55-3.8-1.23-8.52a1.4,1.4,0,0,1,1.07-1.62,1.33,1.33,0,0,1,1.47,1.21q.67,4.73,1.22,8.51a1.4,1.4,0,0,1-1.06,1.63Zm-2.43-17a1.33,1.33,0,0,1-1.43-1.22q-.57-4-1.19-8.52a1.39,1.39,0,0,1,1.07-1.61h0a1.35,1.35,0,0,1,1.43,1.23q.62,4.48,1.19,8.51a1.4,1.4,0,0,1-1.07,1.62Zm-2.38-17a1.33,1.33,0,0,1-1.42-1.22l-1.17-8.52a1.39,1.39,0,0,1,1.08-1.62,1.33,1.33,0,0,1,1.46,1.23l1.17,8.51a1.4,1.4,0,0,1-1.08,1.62Zm-2.32-17a1.35,1.35,0,0,1-1.43-1.23l-1.14-8.52a1.38,1.38,0,0,1,1.08-1.61,1.35,1.35,0,0,1,1.46,1.22l1.14,8.52a1.37,1.37,0,0,1-1.08,1.61Zm-2.27-17a1.35,1.35,0,0,1-1.43-1.24q-.56-4.17-1.13-8.52a1.4,1.4,0,0,1,1.09-1.61h0a1.34,1.34,0,0,1,1.43,1.24q.57,4.35,1.12,8.52a1.38,1.38,0,0,1-1.08,1.6Zm-2.24-17.05a1.34,1.34,0,0,1-1.43-1.24l-1.1-8.53a1.39,1.39,0,0,1,1.09-1.6h0a1.34,1.34,0,0,1,1.43,1.24l1.1,8.52a1.4,1.4,0,0,1-1.09,1.61Zm-2.18-17.05a1.35,1.35,0,0,1-1.43-1.25l-1.08-8.52a1.29,1.29,0,1,1,2.54-.36l1.08,8.53a1.39,1.39,0,0,1-1.09,1.6Zm-2.15-17.06a1.35,1.35,0,0,1-1.43-1.25l-1.06-8.53a1.39,1.39,0,0,1,1.1-1.59h0a1.35,1.35,0,0,1,1.43,1.25l1.06,8.53a1.4,1.4,0,0,1-1.1,1.6Zm-2.1-17.06a1.36,1.36,0,0,1-1.44-1.25l-1-8.54a1.38,1.38,0,0,1,1.1-1.59h0a1.35,1.35,0,0,1,1.44,1.25l1,8.53a1.39,1.39,0,0,1-1.1,1.6Zm-2.07-17.07a1.34,1.34,0,0,1-1.43-1.25l-1-8.54a1.39,1.39,0,0,1,1.11-1.59,1.34,1.34,0,0,1,1.44,1.25l1,8.54a1.39,1.39,0,0,1-1.1,1.59Zm-2-17.07a1.35,1.35,0,0,1-1.43-1.26l-1-8.54a1.39,1.39,0,0,1,1.11-1.59h0a1.35,1.35,0,0,1,1.44,1.26l1,8.54a1.38,1.38,0,0,1-1.1,1.59Zm-2-17.08a1.35,1.35,0,0,1-1.44-1.26l-1-8.55a1.39,1.39,0,0,1,1.11-1.58h0a1.35,1.35,0,0,1,1.44,1.27l1,8.53a1.38,1.38,0,0,1-1.11,1.59Zm-2-17.08a1.35,1.35,0,0,1-1.43-1.27l-1-8.54a1.39,1.39,0,0,1,1.12-1.58,1.33,1.33,0,0,1,1.43,1.26l1,8.55a1.39,1.39,0,0,1-1.11,1.58Zm-1.9-17.09h0a1.33,1.33,0,0,1-1.43-1.27l-.94-8.55a1.38,1.38,0,0,1,1.12-1.57h0a1.33,1.33,0,0,1,1.43,1.27l.94,8.54A1.39,1.39,0,0,1,1370.3,2317.4Zm-1.86-17.09h0A1.36,1.36,0,0,1,1367,2299l-.91-8.55a1.39,1.39,0,0,1,1.12-1.57h0a1.35,1.35,0,0,1,1.42,1.28l.92,8.55A1.39,1.39,0,0,1,1368.44,2300.31Zm-1.82-17.1h0a1.36,1.36,0,0,1-1.43-1.28l-.89-8.55a1.39,1.39,0,0,1,1.12-1.57h0a1.35,1.35,0,0,1,1.42,1.28l.9,8.55A1.38,1.38,0,0,1,1366.62,2283.21Zm-1.78-17.1h0a1.35,1.35,0,0,1-1.42-1.28c-.29-2.84-.59-5.69-.88-8.56a1.37,1.37,0,0,1,1.12-1.56h0a1.35,1.35,0,0,1,1.42,1.28q.44,4.31.87,8.55A1.39,1.39,0,0,1,1364.84,2266.11Zm-1.73-17.11h0a1.35,1.35,0,0,1-1.42-1.28c-.29-2.84-.57-5.7-.85-8.56a1.37,1.37,0,0,1,1.12-1.56h0a1.34,1.34,0,0,1,1.42,1.29c.29,2.86.57,5.71.86,8.55A1.39,1.39,0,0,1,1363.11,2249Zm-1.7-17.11h0a1.34,1.34,0,0,1-1.41-1.29l-.83-8.56a1.29,1.29,0,1,1,2.55-.26l.83,8.55A1.38,1.38,0,0,1,1361.41,2231.89Zm-1.65-17.12h0a1.35,1.35,0,0,1-1.41-1.3l-.81-8.56a1.37,1.37,0,0,1,1.12-1.55h0a1.36,1.36,0,0,1,1.42,1.3l.8,8.56A1.36,1.36,0,0,1,1359.76,2214.77Zm-1.6-17.12h0a1.36,1.36,0,0,1-1.41-1.31l-.78-8.56a1.37,1.37,0,0,1,1.12-1.55h0a1.36,1.36,0,0,1,1.41,1.3l.79,8.56A1.38,1.38,0,0,1,1358.16,2197.65Zm-1.56-17.12h0a1.36,1.36,0,0,1-1.41-1.3q-.39-4.28-.76-8.57a1.29,1.29,0,1,1,2.56-.24c.25,2.86.5,5.72.76,8.56A1.38,1.38,0,0,1,1356.6,2180.53Zm-1.51-17.13h0a1.35,1.35,0,0,1-1.4-1.31l-.74-8.57a1.29,1.29,0,1,1,2.56-.23l.74,8.57A1.39,1.39,0,0,1,1355.09,2163.4Zm-1.47-17.14h0a1.36,1.36,0,0,1-1.4-1.32l-.71-8.57a1.34,1.34,0,0,1,1.16-1.54,1.36,1.36,0,0,1,1.4,1.32l.71,8.57A1.36,1.36,0,0,1,1353.62,2146.26Zm-1.42-17.13h0a1.36,1.36,0,0,1-1.4-1.32l-.69-8.57a1.4,1.4,0,0,1,1.17-1.53,1.35,1.35,0,0,1,1.39,1.32l.69,8.57A1.37,1.37,0,0,1,1352.2,2129.13Zm-1.37-17.14h0a1.37,1.37,0,0,1-1.4-1.32l-.66-8.58a1.39,1.39,0,0,1,1.17-1.53,1.36,1.36,0,0,1,1.39,1.33l.66,8.57A1.37,1.37,0,0,1,1350.83,2112Zm-1.31-17.15h0a1.36,1.36,0,0,1-1.39-1.33q-.33-4.28-.64-8.57a1.4,1.4,0,0,1,1.17-1.53,1.37,1.37,0,0,1,1.39,1.33c.21,2.87.42,5.72.64,8.58A1.37,1.37,0,0,1,1349.52,2094.84Zm-1.27-17.15h0a1.37,1.37,0,0,1-1.39-1.34c-.2-2.86-.41-5.72-.61-8.58a1.37,1.37,0,0,1,1.12-1.51h.06a1.36,1.36,0,0,1,1.38,1.34q.3,4.29.62,8.57A1.38,1.38,0,0,1,1348.25,2077.69Zm-1.21-17.16H1347a1.36,1.36,0,0,1-1.38-1.34q-.3-4.29-.58-8.58a1.29,1.29,0,1,1,2.56-.17c.19,2.86.39,5.72.58,8.57A1.36,1.36,0,0,1,1347,2060.53Zm-1.15-17.15h-.07a1.36,1.36,0,0,1-1.38-1.34c-.18-2.87-.37-5.74-.55-8.62a1.33,1.33,0,0,1,1.19-1.51,1.37,1.37,0,0,1,1.37,1.35q.27,4.31.56,8.61A1.39,1.39,0,0,1,1345.89,2043.38Zm-1.11-17.23h-.07a1.37,1.37,0,0,1-1.37-1.35c-.18-2.87-.35-5.74-.53-8.62a1.29,1.29,0,1,1,2.57-.15c.17,2.88.35,5.75.52,8.61A1.36,1.36,0,0,1,1344.78,2026.15Zm-1-17.21h-.08a1.37,1.37,0,0,1-1.36-1.36q-.25-4.29-.5-8.6a1.29,1.29,0,1,1,2.57-.14c.16,2.87.32,5.73.49,8.6A1.38,1.38,0,0,1,1343.74,2008.94Zm-1-17.21h-.08a1.36,1.36,0,0,1-1.36-1.36q-.24-4.3-.47-8.61a1.35,1.35,0,0,1,1.21-1.49,1.37,1.37,0,0,1,1.36,1.37c.15,2.86.31,5.73.46,8.6A1.37,1.37,0,0,1,1342.76,1991.73Zm-.92-17.21h-.08a1.37,1.37,0,0,1-1.36-1.37q-.23-4.29-.43-8.6a1.29,1.29,0,1,1,2.56-.12c.15,2.87.29,5.74.44,8.6A1.36,1.36,0,0,1,1341.84,1974.52Zm-.85-17.19h-.09a1.38,1.38,0,0,1-1.35-1.38c-.14-2.87-.27-5.73-.4-8.6a1.35,1.35,0,0,1,1.22-1.48,1.38,1.38,0,0,1,1.35,1.38c.13,2.86.26,5.73.4,8.59A1.37,1.37,0,0,1,1341,1957.33Zm-.78-17.19h-.1a1.38,1.38,0,0,1-1.35-1.38l-.36-8.6a1.35,1.35,0,0,1,1.22-1.47,1.37,1.37,0,0,1,1.35,1.38l.36,8.59A1.36,1.36,0,0,1,1340.21,1940.14Zm-.71-17.18h-.11a1.39,1.39,0,0,1-1.34-1.39l-.33-8.59a1.35,1.35,0,0,1,1.24-1.47,1.37,1.37,0,0,1,1.33,1.39l.33,8.59A1.36,1.36,0,0,1,1339.5,1923Zm-.64-17.17h-.11a1.39,1.39,0,0,1-1.34-1.4c-.09-2.86-.19-5.73-.29-8.59a1.29,1.29,0,1,1,2.57-.06c.1,2.86.19,5.72.29,8.58A1.37,1.37,0,0,1,1338.86,1905.79Zm-.56-17.16h-.12a1.39,1.39,0,0,1-1.33-1.41q-.13-4.29-.25-8.58a1.36,1.36,0,0,1,1.25-1.46,1.39,1.39,0,0,1,1.32,1.41q.12,4.29.25,8.58A1.37,1.37,0,0,1,1338.3,1888.63Zm-.49-17.16h-.12a1.38,1.38,0,0,1-1.32-1.41l-.21-8.58a1.34,1.34,0,0,1,1.25-1.45,1.39,1.39,0,0,1,1.32,1.42l.21,8.57A1.37,1.37,0,0,1,1337.81,1871.47Zm-.4-17.14h-.13a1.37,1.37,0,0,1-1.31-1.42q-.09-4.29-.17-8.57a1.33,1.33,0,0,1,1.26-1.44,1.38,1.38,0,0,1,1.31,1.42c.05,2.86.11,5.71.17,8.57A1.38,1.38,0,0,1,1337.41,1854.33Zm-.31-17.14H1337a1.4,1.4,0,0,1-1.31-1.43l-.12-8.57a1.34,1.34,0,0,1,1.27-1.43,1.38,1.38,0,0,1,1.3,1.43l.12,8.56A1.36,1.36,0,0,1,1337.1,1837.19Zm-.22-17.13h-.15a1.38,1.38,0,0,1-1.3-1.44c0-2.86,0-5.73-.08-8.59a1.36,1.36,0,0,1,1.28-1.43,1.4,1.4,0,0,1,1.3,1.45c0,2.85,0,5.72.07,8.58A1.36,1.36,0,0,1,1336.88,1820.06Zm-.13-17.18h-.16a1.39,1.39,0,0,1-1.29-1.44q0-4.31,0-8.6a1.31,1.31,0,0,1,1.28-1.41,1.4,1.4,0,0,1,1.29,1.45q0,4.29,0,8.59A1.35,1.35,0,0,1,1336.75,1802.88Zm0-17.19h-.16a1.41,1.41,0,0,1-1.29-1.46c0-2.87,0-5.74,0-8.6a1.33,1.33,0,0,1,1.29-1.4,1.4,1.4,0,0,1,1.28,1.46l0,8.59A1.36,1.36,0,0,1,1336.72,1785.69Zm.08-17.19h-.17a1.39,1.39,0,0,1-1.28-1.46c0-2.88.05-5.74.08-8.6a1.33,1.33,0,0,1,1.3-1.39,1.39,1.39,0,0,1,1.27,1.47c0,2.85-.06,5.72-.08,8.58A1.34,1.34,0,0,1,1336.8,1768.5Zm.18-17.18h-.18a1.39,1.39,0,0,1-1.26-1.48c0-2.87.08-5.73.14-8.59a1.32,1.32,0,0,1,1.31-1.38,1.4,1.4,0,0,1,1.26,1.48q-.07,4.28-.14,8.58A1.35,1.35,0,0,1,1337,1751.32Z"/><path class="cls-11" d="M1392.1,2553.33c-22.64-94.15-68.26-595.26-70-811.82h2.57c1.69,216.43,47.26,717.08,69.87,811.11Z"/><path class="cls-6" d="M1511.11,2578.35c-7.55-.62-63.52-.39-103.47-.17-18.73.08-33.94.17-39,.17-3.75,0-13.47-25.7-26.08-65.5H1438c.27,20.09.87,31.85,1.91,32.69C1447.8,2551.9,1522.19,2579.24,1511.11,2578.35Z"/><path class="cls-7" d="M1407.64,2578.18c-18.73.08-33.94.17-39,.17-3.75,0-13.47-25.7-26.08-65.5h22.7c6.22,14.45,24,55.56,25.61,57.84C1392.57,2573.14,1404.82,2577.26,1407.64,2578.18Z"/><path class="cls-9" d="M1140.93,2512.74c-24.58.08-60.85.18-78.48.07-.44-10.21-.87-21.45-1.25-33.62-3.64-116-3.56-314.83,12.93-487.76a.06.06,0,0,0,0,0c7.63-80.07,18.79-154.59,34.74-212.72,0,0,93.52-9.59,181.79-9.15,72.83.35,142.1,7.54,152.34,32.55,0,.11.09.24.12.36a16.48,16.48,0,0,1,1.13,5C1448.13,1861.62,1182,2365.79,1140.93,2512.74Z"/><path class="cls-10" d="M1140.93,2512.74c-24.58.08-60.85.18-78.48.07-.44-10.21-.87-21.45-1.25-33.62,4.73,7.86,11.24,18.18,14.1,20.21,4.2,3,52.29,11.13,63.37,13C1140.11,2512.62,1140.93,2512.74,1140.93,2512.74Z"/><path class="cls-6" d="M1197.72,2577.56c-11.54,0-74,1-107.88.76-12.64-.08-21.31-.33-21.93-.87-1.64-1.41-3.75-25.33-5.46-64.64,9.69.06,25,.06,40.92,0l37.56-.1c-6.43,22.94-9.77,36.47-8.91,37.33C1138.35,2556.46,1213.55,2577.56,1197.72,2577.56Z"/><path class="cls-11" d="M1096.11,2527.73c0-.17.36-2.16,1-5.84a1.39,1.39,0,0,1,1.51-1.22,1.36,1.36,0,0,1,1,1.61c-.64,3.67-1,5.66-1,5.82Zm3.45-12.72a1.34,1.34,0,0,1-1-1.6c.44-2.51.94-5.34,1.5-8.47a1.4,1.4,0,0,1,1.52-1.21,1.35,1.35,0,0,1,1,1.62c-.56,3.12-1.06,6-1.5,8.46a1.39,1.39,0,0,1-1.52,1.21Zm3-16.93a1.33,1.33,0,0,1-1-1.6q.72-4,1.53-8.47a1.39,1.39,0,0,1,1.52-1.2h0a1.33,1.33,0,0,1,1,1.61c-.54,3-1,5.79-1.52,8.46a1.4,1.4,0,0,1-1.52,1.2Zm3.07-16.91a1.35,1.35,0,0,1-1-1.62l1.55-8.45a1.4,1.4,0,0,1,1.53-1.2,1.32,1.32,0,0,1,1,1.62l-1.55,8.45a1.4,1.4,0,0,1-1.53,1.2Zm3.12-16.91a1.34,1.34,0,0,1-1-1.62l1.57-8.45a1.39,1.39,0,0,1,1.53-1.19,1.36,1.36,0,0,1,1,1.62l-1.58,8.45a1.38,1.38,0,0,1-1.53,1.19Zm3.17-16.9a1.35,1.35,0,0,1-1-1.62c.52-2.76,1.06-5.58,1.6-8.45a1.4,1.4,0,0,1,1.54-1.19h0a1.35,1.35,0,0,1,1,1.62c-.55,2.88-1.08,5.69-1.6,8.45a1.39,1.39,0,0,1-1.54,1.18Zm3.2-16.89a1.34,1.34,0,0,1-1-1.62l1.62-8.45a1.39,1.39,0,0,1,1.54-1.18h0a1.34,1.34,0,0,1,1,1.63l-1.62,8.44a1.38,1.38,0,0,1-1.53,1.19Zm3.26-16.88a1.34,1.34,0,0,1-1-1.63l1.64-8.44a1.29,1.29,0,1,1,2.53.46l-1.64,8.43a1.39,1.39,0,0,1-1.54,1.18Zm3.29-16.87a1.35,1.35,0,0,1-1-1.64l1.66-8.43a1.4,1.4,0,0,1,1.54-1.18h0a1.34,1.34,0,0,1,1,1.63l-1.66,8.43a1.38,1.38,0,0,1-1.54,1.18Zm3.33-16.87a1.35,1.35,0,0,1-1-1.64l1.69-8.43a1.38,1.38,0,0,1,1.54-1.17h0a1.32,1.32,0,0,1,1,1.63l-1.68,8.43a1.38,1.38,0,0,1-1.54,1.17Zm3.38-16.86a1.35,1.35,0,0,1-1-1.64l1.7-8.43a1.39,1.39,0,0,1,1.55-1.16,1.34,1.34,0,0,1,1,1.64l-1.7,8.43a1.38,1.38,0,0,1-1.55,1.16Zm3.41-16.85a1.35,1.35,0,0,1-1-1.64l1.73-8.43a1.39,1.39,0,0,1,1.55-1.16h0a1.33,1.33,0,0,1,1,1.64l-1.72,8.42a1.38,1.38,0,0,1-1.55,1.16Zm3.46-16.84a1.35,1.35,0,0,1-1-1.65l1.74-8.42a1.39,1.39,0,0,1,1.56-1.15h0a1.35,1.35,0,0,1,1,1.65l-1.75,8.41a1.38,1.38,0,0,1-1.55,1.16Zm3.49-16.83a1.36,1.36,0,0,1-1-1.66l1.76-8.41a1.37,1.37,0,0,1,1.55-1.15,1.35,1.35,0,0,1,1,1.65l-1.76,8.41a1.39,1.39,0,0,1-1.56,1.16Zm3.54-16.83h0a1.35,1.35,0,0,1-1-1.65l1.78-8.42a1.38,1.38,0,0,1,1.56-1.14h0a1.34,1.34,0,0,1,1,1.65l-1.78,8.41A1.38,1.38,0,0,1,1142.28,2295.64Zm3.57-16.82h0a1.34,1.34,0,0,1-.95-1.66l1.8-8.4a1.39,1.39,0,0,1,1.55-1.15h0a1.37,1.37,0,0,1,1,1.66l-1.81,8.41A1.37,1.37,0,0,1,1145.85,2278.82Zm3.62-16.81h0a1.35,1.35,0,0,1-1-1.66l1.83-8.4a1.37,1.37,0,0,1,1.55-1.14h0a1.35,1.35,0,0,1,.95,1.66l-1.82,8.4A1.38,1.38,0,0,1,1149.47,2262Zm3.66-16.8h0a1.35,1.35,0,0,1-.95-1.66q.91-4.18,1.85-8.4a1.37,1.37,0,0,1,1.55-1.14h0a1.36,1.36,0,0,1,1,1.67q-.93,4.21-1.84,8.39A1.38,1.38,0,0,1,1153.13,2245.21Zm3.69-16.79h0a1.36,1.36,0,0,1-1-1.67q.93-4.18,1.87-8.4a1.39,1.39,0,0,1,1.55-1.13h0a1.35,1.35,0,0,1,1,1.67q-.95,4.2-1.87,8.39A1.38,1.38,0,0,1,1156.82,2228.42Zm3.74-16.78h0a1.36,1.36,0,0,1-.94-1.67l1.89-8.39a1.29,1.29,0,1,1,2.51.55l-1.89,8.39A1.39,1.39,0,0,1,1160.56,2211.64Zm3.79-16.78h0a1.35,1.35,0,0,1-.93-1.68l1.9-8.38a1.4,1.4,0,0,1,1.55-1.13h0a1.34,1.34,0,0,1,.93,1.67l-1.9,8.39A1.38,1.38,0,0,1,1164.35,2194.86Zm3.82-16.76h0a1.35,1.35,0,0,1-.94-1.67l1.93-8.39a1.39,1.39,0,0,1,1.55-1.12h0a1.36,1.36,0,0,1,.93,1.68l-1.93,8.38A1.38,1.38,0,0,1,1168.17,2178.1Zm3.87-16.76h0a1.37,1.37,0,0,1-.93-1.68q1-4.18,2-8.38a1.29,1.29,0,1,1,2.5.57l-2,8.38A1.38,1.38,0,0,1,1172,2161.34Zm3.92-16.74h0a1.36,1.36,0,0,1-.93-1.68l2-8.37a1.29,1.29,0,1,1,2.5.58l-2,8.37A1.38,1.38,0,0,1,1176,2144.6Zm4-16.73h0a1.36,1.36,0,0,1-.92-1.69l2-8.36a1.34,1.34,0,0,1,1.58-1.1,1.37,1.37,0,0,1,.92,1.69l-2,8.36A1.39,1.39,0,0,1,1179.93,2127.87Zm4-16.73h0a1.37,1.37,0,0,1-.91-1.7l2-8.35a1.42,1.42,0,0,1,1.59-1.1,1.37,1.37,0,0,1,.91,1.7l-2,8.35A1.37,1.37,0,0,1,1183.93,2111.14Zm4.06-16.71h0a1.35,1.35,0,0,1-.91-1.69q1-4.17,2-8.36a1.39,1.39,0,0,1,1.59-1.08,1.36,1.36,0,0,1,.9,1.69c-.68,2.79-1.37,5.57-2,8.35A1.38,1.38,0,0,1,1188,2094.43Zm4.11-16.7h0a1.36,1.36,0,0,1-.9-1.69l2.07-8.35a1.4,1.4,0,0,1,1.6-1.08,1.36,1.36,0,0,1,.9,1.7q-1,4.17-2.08,8.34A1.36,1.36,0,0,1,1192.1,2077.73Zm4.16-16.68h0a1.37,1.37,0,0,1-.9-1.7l2.1-8.35a1.37,1.37,0,0,1,1.54-1.08h0a1.37,1.37,0,0,1,.9,1.7l-2.1,8.34A1.38,1.38,0,0,1,1196.26,2061.05Zm4.21-16.67-.06,0a1.37,1.37,0,0,1-.89-1.7l2.13-8.34a1.29,1.29,0,1,1,2.49.64l-2.13,8.33A1.39,1.39,0,0,1,1200.47,2044.38Zm4.27-16.66-.06,0a1.36,1.36,0,0,1-.89-1.71l2.16-8.36a1.34,1.34,0,0,1,1.6-1.06,1.37,1.37,0,0,1,.89,1.71c-.73,2.79-1.45,5.57-2.16,8.36A1.38,1.38,0,0,1,1204.74,2027.72Zm4.34-16.71-.07,0a1.36,1.36,0,0,1-.88-1.71q1.08-4.17,2.19-8.34a1.29,1.29,0,1,1,2.48.65l-2.19,8.35A1.37,1.37,0,0,1,1209.08,2011Zm4.39-16.68-.08,0a1.37,1.37,0,0,1-.87-1.71c.74-2.78,1.47-5.56,2.22-8.34a1.29,1.29,0,1,1,2.48.67l-2.22,8.33A1.37,1.37,0,0,1,1213.47,1994.33Zm4.45-16.65-.08,0a1.37,1.37,0,0,1-.87-1.72q1.11-4.17,2.24-8.32a1.36,1.36,0,0,1,1.62-1,1.38,1.38,0,0,1,.86,1.73q-1.12,4.15-2.24,8.31A1.37,1.37,0,0,1,1217.92,1977.68Zm4.5-16.63-.08,0a1.36,1.36,0,0,1-.86-1.72q1.13-4.15,2.27-8.31a1.36,1.36,0,0,1,1.62-1,1.38,1.38,0,0,1,.86,1.73L1224,1960A1.37,1.37,0,0,1,1222.42,1961.05Zm4.57-16.6-.09,0a1.37,1.37,0,0,1-.85-1.73q1.14-4.15,2.3-8.29a1.29,1.29,0,1,1,2.47.7q-1.15,4.14-2.3,8.29A1.37,1.37,0,0,1,1227,1944.45Zm4.63-16.57-.1,0a1.39,1.39,0,0,1-.85-1.74l2.34-8.28a1.29,1.29,0,1,1,2.47.72l-2.34,8.27A1.36,1.36,0,0,1,1231.62,1927.88Zm4.69-16.54-.1,0a1.38,1.38,0,0,1-.84-1.74l2.37-8.26a1.35,1.35,0,0,1,1.63-1,1.38,1.38,0,0,1,.84,1.74l-2.37,8.26A1.38,1.38,0,0,1,1236.31,1911.34Zm4.76-16.51-.11,0a1.39,1.39,0,0,1-.83-1.75c.8-2.75,1.61-5.49,2.41-8.24a1.34,1.34,0,0,1,1.63-1,1.37,1.37,0,0,1,.83,1.74c-.8,2.75-1.61,5.49-2.41,8.24A1.37,1.37,0,0,1,1241.07,1894.83Zm4.83-16.48-.11,0a1.37,1.37,0,0,1-.82-1.75q1.21-4.12,2.44-8.23a1.36,1.36,0,0,1,1.64-1,1.38,1.38,0,0,1,.82,1.75q-1.23,4.11-2.45,8.22A1.36,1.36,0,0,1,1245.9,1878.35Zm4.91-16.45-.12,0a1.38,1.38,0,0,1-.82-1.75c.83-2.74,1.65-5.48,2.48-8.22a1.35,1.35,0,0,1,1.64-1,1.38,1.38,0,0,1,.81,1.76c-.82,2.73-1.65,5.46-2.47,8.2A1.37,1.37,0,0,1,1250.81,1861.9Zm5-16.41-.12,0a1.39,1.39,0,0,1-.81-1.76l2.52-8.2a1.33,1.33,0,0,1,1.65-1,1.38,1.38,0,0,1,.8,1.76l-2.52,8.19A1.36,1.36,0,0,1,1255.78,1845.49Zm5.06-16.38-.13,0a1.39,1.39,0,0,1-.8-1.77c.85-2.73,1.71-5.45,2.56-8.17a1.35,1.35,0,0,1,1.65-1,1.4,1.4,0,0,1,.8,1.77q-1.29,4.08-2.56,8.17A1.36,1.36,0,0,1,1260.84,1829.11Zm5.15-16.33-.14,0a1.39,1.39,0,0,1-.79-1.77q1.31-4.11,2.61-8.19a1.35,1.35,0,0,1,1.66-1,1.4,1.4,0,0,1,.78,1.78c-.87,2.72-1.75,5.45-2.61,8.18A1.37,1.37,0,0,1,1266,1812.78Zm5.25-16.37-.15,0a1.4,1.4,0,0,1-.78-1.78q1.32-4.1,2.66-8.17a1.33,1.33,0,0,1,1.66-1,1.39,1.39,0,0,1,.77,1.78q-1.34,4.08-2.65,8.17A1.37,1.37,0,0,1,1271.24,1796.41Zm5.34-16.34-.16,0a1.38,1.38,0,0,1-.76-1.78q1.35-4.1,2.71-8.16a1.34,1.34,0,0,1,1.67-.93,1.4,1.4,0,0,1,.75,1.79c-.9,2.71-1.8,5.42-2.7,8.15A1.35,1.35,0,0,1,1276.58,1780.07Zm5.45-16.3-.17,0a1.39,1.39,0,0,1-.75-1.79c.92-2.72,1.84-5.44,2.76-8.14a1.34,1.34,0,0,1,1.67-.92,1.4,1.4,0,0,1,.75,1.79l-2.76,8.14A1.35,1.35,0,0,1,1282,1763.77Zm5.54-16.26a.64.64,0,0,1-.17,0,1.39,1.39,0,0,1-.74-1.79q1.41-4.08,2.82-8.13a1.33,1.33,0,0,1,1.68-.9,1.41,1.41,0,0,1,.73,1.8l-2.82,8.11A1.34,1.34,0,0,1,1287.57,1747.51Z"/><path class="cls-11" d="M1089.24,2526.56c7.92-96.51,121.22-586.77,187.3-793l2.44.82c-66,206.11-179.25,695.92-187.16,792.3Z"/><path class="cls-7" d="M1103.37,2512.84l-13.53,65.48c-12.64-.08-21.31-.33-21.93-.87-1.64-1.41-3.75-25.33-5.46-64.64C1072.14,2512.87,1087.46,2512.87,1103.37,2512.84Z"/><path class="cls-10" d="M1444.31,1802.37l-1.17.05c-19,.75-262.21,10.39-285.38,17.65-19.22,6-59.33,70.5-83.61,171.31,7.63-80.07,18.79-154.59,34.74-212.72,0,0,93.52-9.59,181.79-9.15,74.3,14.11,142.21,30.14,152.34,32.55Z"/><path class="cls-1" d="M1761,1300.37c-31.5,78.64-113.25,274-199.36,301.69-13.45,4.36-27,4.59-40.52-.34-111.64-40.87-104-143-102.79-154.13.08-.64.13-1,.13-1l3.23-3.52,65.62-71.4c5.35,9.37,10.75,18.28,16.18,26.5,24.56,37.23,49.94,60.43,76.73,47.89,15.85-7.4,69.49-72.57,122.14-138.53l.17-.19c7.65-9.57,15.28-19.18,22.76-28.63,7.49,5.71,27.42,18.25,35.7,21.64Z"/><path class="cls-12" d="M1561.65,1602.06c-13.45,4.36-27,4.59-40.52-.34-111.64-40.87-104-143-102.79-154.13q1.67-2.28,3.36-4.51l65.62-71.4c5.35,9.37,10.75,18.28,16.18,26.5.08,74-.68,153.08,8.62,179.9C1516.79,1591.55,1538.29,1598.52,1561.65,1602.06Z"/><path class="cls-13" d="M1823.63,1219.2c-9.53,15.6-37.82,27.09-49.23,48.6-5.36-3.83-21-11.07-28.87-14.61,5.19-6.55,10.24-12.93,15.13-19.07,31.22-39.37,55.12-69,59.63-71.14,13.72-6.57-19.52,29.32-15.29,36.69S1833.3,1203.38,1823.63,1219.2Z"/><path class="cls-1" d="M1487.32,1411.25c-1.19,6.56-2.34,13.25-3.5,20.06-9.91,58.82-18.37,126.32-23.55,189.45-11.87,144.81,0,182.8,0,182.8l-108.57-8.07-130.44-9.69-112.37-8.36s17.7-47.84,44-109.18c27.66-64.56,64.88-144.09,101-198.46,24.45-36.82,55-69.15,85.76-97,15.19-13.76,30.44-26.42,45-38,10-7.9,19.6-15.26,28.68-22.11C1426,1322.44,1467.82,1383.92,1487.32,1411.25Z"/><path class="cls-13" d="M1611,1152.65c-1.77,3.57-22,14-21.37,23.15s26.45,27.83,1.13,52.63a75.47,75.47,0,0,1-25.3,16.67c-8.56,3.61-16.63,6.19-25.55,13.66a86.76,86.76,0,0,0-14.3,15.84c-7.49,10.32-15.44,33.39-23.19,64.62-31.44.53-74.43-24.52-84-30.28,10.67-8,20.49-15.23,29.07-21.74,12.22-9.24,21.93-17,28-23.15,13.15-13.5,21-29.57,25.37-44.69a120.3,120.3,0,0,0,4.67-28.14,69.89,69.89,0,0,0-1.16-17.79c-3.56-15.43,48.28-33.24,56.07-33.24s19.91-4.16,19.91-4.16C1589.07,1151.27,1612.81,1149.1,1611,1152.65Z"/><path class="cls-14" d="M1528,1174.62c5.27-10.42,26.13-14,26.13-14s-31-3.46-33.19,1.1S1528,1174.62,1528,1174.62Z"/><path class="cls-9" d="M1598,1107.34c12.66,20-3.17,43.14-40.16,52.44s-44.32-4.55-44.32-4.55l-9.47-38.78Z"/><path class="cls-10" d="M1602.27,1118.9l-.11,0-53.6,13.11-38.45,9.4-6.09,1.49.9,56.09-103.33,37.28a52.41,52.41,0,0,0,5.84-12.22c6.94-23.49,4.5-49.23,17.86-82.67l82.28-10.47,36.83-4.68,57.76-7.34Z"/><path class="cls-11" d="M1608.78,1099.31l-15.41,2.52c0-.12,0-.25,0-.37,0-.36,0-.7-.08-1-7-99.55-161.29-98.37-158.58,11.28q.12,5.65.83,11.7c.16,1.34.35,2.7.55,4.07l-15,2.46a2.7,2.7,0,0,0-.48.09c-.25-1.49-.45-3-.64-4.47-.52-4.21-.87-8.45-1-12.72-.68-20.58,3.44-41.46,14.93-58.85,14.36-22.44,39.33-37.14,65.6-40.61,26.3-3.75,54,3.07,75,19.37C1595.17,1048.48,1607.2,1073.71,1608.78,1099.31Z"/><path class="cls-15" d="M1593.27,1100.43c0,.33.06.67.08,1,0,.12,0,.25,0,.37l-157.3,25.65c-.2-1.37-.39-2.73-.55-4.07q-.72-6-.83-11.7C1432,1002.06,1586.32,1000.88,1593.27,1100.43Z"/><path class="cls-16" d="M1612.29,1117.27l-191.22,31.19a8.57,8.57,0,0,1-2,.1,9.11,9.11,0,0,1-1.47-18l.49-.1,14.94-2.44,157.31-25.65,15.41-2.52,3.56-.58a9.12,9.12,0,0,1,2.93,18Z"/><path class="cls-12" d="M1358.37,1742.05c3.78,21.86.85,39.8-6.67,53.44l-130.44-9.69c-29.3-29.85-57.19-72.94-68.36-117.54,27.66-64.56,64.88-144.09,101-198.46,24.45-36.82,55-69.15,85.76-97,30.74-7.6,57.69-12.76,66.13-12.1,18.79,1.48,26.83,56.15,26.83,56.15-37.06,54.51-144.12,139.19-134.51,182.72S1348.08,1682.68,1358.37,1742.05Z"/><path class="cls-1" d="M1497.47,1424.31c-.4.35-4.26-4.8-10.15-13.06-19.5-27.33-61.29-88.81-74-98.48a6.71,6.71,0,0,0-2.15-1.24c-1.64-.44,4.54-4.14,5.34-3.76.07,0,.76.45,1.93,1.17,9.54,5.76,52.53,30.81,84,30.28,1.2,0,2.37-.08,3.53-.18C1508.74,1339.22,1499.27,1422.73,1497.47,1424.31Z"/><path class="cls-1" d="M1296.16,1552.47c-24.15,38.34-1.27,79.13,20.58,118.88-11.37,3.92-52.41,29.07-58.69,36.13-51.72-49.73-120.94-122.76-113.84-179.54,11.08-88.64,119.5-121.88,215.26-153.54,23.76-7.85,69.65-31,84.69,7.81S1332.57,1494.7,1296.16,1552.47Z"/><path class="cls-1" d="M1332.25,1695.37c0,.24-.6.92-1.81,2-7.78,6.71-38.65,28-48,33.27a8.47,8.47,0,0,1-2.6,1.17c-2.78-.19-21-19-22.57-22.76-.12-.3.16-.83.8-1.54,6.28-7.06,47.32-32.21,58.69-36.13,1.56-.54,2.58-.68,2.85-.32C1325.47,1678.91,1331.85,1693.4,1332.25,1695.37Z"/><path class="cls-1" d="M1776.24,1269.86c-.79,2.89-10,28-11.6,31.11-.26.53-1.59.24-3.63-.6-8.26-3.38-28.22-15.94-35.71-21.65-2-1.5-3.07-2.53-2.88-2.8,1.06-1.58,13.46-18.73,18.47-24.8,0,0,1.82.79,4.64,2.07,7.87,3.54,23.51,10.78,28.87,14.61C1775.67,1268.72,1776.35,1269.43,1776.24,1269.86Z"/><path class="cls-7" d="M1272.74,1798.39h11.2c.27-13.67,6.32-33.47,19-44.6,5.71-5,12.08-7.54,18.94-7.47,16.13.15,36.21,15.18,39.68,57l11.17-.94c-1.91-23-8.53-40.6-19.67-52.2-8.47-8.81-19.71-13.93-30.86-14a39.85,39.85,0,0,0-27,10.4C1280.2,1759.76,1273.05,1782.68,1272.74,1798.39Z"/><path class="cls-6" d="M1157.89,1809.71l-1.1,80.74c-.13,9.39,329.22,12.93,329.42-1.87l1.11-80.75a21.24,21.24,0,0,0-7.14-16,26,26,0,0,0-17.66-6.56l-279.21,1.6a26.34,26.34,0,0,0-21.56,11A21.46,21.46,0,0,0,1157.89,1809.71Z"/><path class="cls-7" d="M1156.79,1890.45l-1.11,80.74a21.07,21.07,0,0,0,6,14.87,25.73,25.73,0,0,0,18.84,7.71l279.21-1.6a26.89,26.89,0,0,0,16.85-5.91,22.27,22.27,0,0,0,8.57-17l1.1-80.73C1486,1903.38,1156.66,1899.84,1156.79,1890.45Z"/><path class="cls-1" d="M1302.7,1909.35l51.25-.3a6.91,6.91,0,0,0,3.93-1.22,5.75,5.75,0,0,0,2.56-4.62l.13-9.64a5.5,5.5,0,0,0-2.41-4.57,6.72,6.72,0,0,0-3.92-1.2l-51.25.29a6.92,6.92,0,0,0-4.35,1.55,5.69,5.69,0,0,0-2.14,4.3l-.13,9.64a5.43,5.43,0,0,0,2.14,4.37A6.67,6.67,0,0,0,1302.7,1909.35Z"/><path class="cls-13" d="M1312,1762.2c-.7-3-6.51-9.37-15.59-18.26-4.07-4-8.79-8.43-14-13.33,9.37-5.23,40.19-26.53,48-33.26h0c5.48,11.23,10,22.33,12.41,33.2C1355.52,1787.53,1316,1779.61,1312,1762.2Z"/><path class="cls-12" d="M1487.32,1411.25c-1.19,6.56-2.34,13.25-3.5,20.06-14.34-36-68.14-113.92-69.39-115.22-1.46-1.52-21.34,13.15-29.76,18.79,10-7.9,19.6-15.26,28.68-22.11C1426,1322.44,1467.82,1383.92,1487.32,1411.25Z"/><path class="cls-12" d="M1761,1300.37c-15.37,1.54-34.14-14-38.6-11.52-4.18,2.34-18.14,16.73-19.87,18.5,7.65-9.57,15.28-19.18,22.76-28.63,7.49,5.71,27.42,18.25,35.7,21.64Z"/><path class="cls-14" d="M1774.4,1267.8c-5.36-3.83-21-11.07-28.87-14.61,5.19-6.55,10.24-12.93,15.13-19.07-4.16,7.67-7,15.81-5.88,18.55C1756.15,1256.13,1774.24,1266.5,1774.4,1267.8Z"/><path class="cls-14" d="M1502.44,1339.22c-31.44.53-74.43-24.52-84-30.28,10.67-8,20.49-15.23,29.07-21.74-2.88,4.2-4.82,9-7.39,16.94C1435.26,1319.18,1475.5,1338.17,1502.44,1339.22Z"/><path class="cls-14" d="M1517.74,1193.61c-4.43,13.57-9.78,19.41-16.87,25.75a120.3,120.3,0,0,0,4.67-28.14C1513.49,1192.69,1517.74,1193.61,1517.74,1193.61Z"/><path class="cls-13" d="M1531.36,1185c2.77-18.47-12.53-57.12-35.35-37.33s4.88,57.38,19.52,54.47S1531.36,1185,1531.36,1185Z"/><path class="cls-14" d="M1520.94,1183.85c-.68-11.59-9.5-29.15-16-19.13s7.78,6.6,8,10.16,1.91,4.75,3.89,5S1521,1185.42,1520.94,1183.85Z"/><path class="cls-14" d="M1565.48,1245.08v0c-8.56,3.61-16.63,6.19-25.55,13.66-10.33.36-22.17-1-21.3-1C1540.13,1255.6,1541,1254,1565.48,1245.08Z"/><path class="cls-12" d="M1316.74,1671.35c-11.37,3.92-52.41,29.07-58.69,36.13C1260.74,1697.83,1294.26,1663.32,1316.74,1671.35Z"/><path class="cls-14" d="M1292,1733.55c1.06,3.41,5.73,8.91,4.42,10.39-4.07-4-8.79-8.43-14-13.33,9.37-5.23,40.19-26.53,48-33.26h0C1328.69,1707.64,1290.68,1729.39,1292,1733.55Z"/><path class="cls-7" d="M3413.08,2402.64a13.91,13.91,0,0,1-2.31-7.19l-15.71-485.56a13.87,13.87,0,1,1,27.73-1l15.71,485.56a13.88,13.88,0,0,1-25.42,8.18Z"/><path class="cls-6" d="M3303.29,1845.56A13.87,13.87,0,0,1,3314,1823l190.48-3.12a13.87,13.87,0,0,1,8.45,24.91l-96,73a13.9,13.9,0,0,1-15.49.89L3307,1848.75A13.69,13.69,0,0,1,3303.29,1845.56Zm159.91,2.15-98.87,2.82,43.22,39.51Z"/><path class="cls-6" d="M3432.41,2382.28H3316.35s26,198.49,114.6,191.34c88.59,7.15,114.59-191.34,114.59-191.34Z"/><path class="cls-17" d="M3434.74,1822.9c-14.36-.54-27-1-37.34-1-6.77,0-12.69,0-17.84-.23-56.84-1.77-19.68-13.81-6-14,14.32-.63,33.42-6,55.65-15C3430.36,1799.85,3432.66,1813.68,3434.74,1822.9Z"/><path class="cls-6" d="M3840.45,1686a207.28,207.28,0,0,1-28.43,40c-54.84,61.34-136.28,85.5-214.61,94.25-26.69,3-53,4.14-77.8,4.41-11.28.12-22.25,0-32.77-.14-.83-10.14-9.81-39.24-15.38-51.38,25.67-13.09,53.54-29.26,81.85-47.3,16.72-10.65,33.61-22,50.29-33.72,83.69-58.93,162.11-128.43,189.52-177.92v0a5.19,5.19,0,0,0,.37-.65c6-10.93,9.43-20.86,9.87-29.48C3803.36,1484,3899,1577.33,3840.45,1686Z"/><path class="cls-6" d="M3486.47,1827.91c-3.52,3.51-46.57,10.54-49.64,2.63a59.13,59.13,0,0,1-2.09-7.64c-2.08-9.22-4.38-23.05-5.52-30.24-.46-2.9-.74-4.73-.74-4.73,11.86-3.51,35.64-17.48,39.15-20.11.74-.55,2.13,1.58,3.83,5.32,5.57,12.14,14.55,41.24,15.38,51.38C3487,1826.29,3486.89,1827.49,3486.47,1827.91Z"/><path class="cls-7" d="M3840.45,1686a207.28,207.28,0,0,1-28.43,40c-54.84,61.34-136.28,85.5-214.61,94.25-15.34-23.88-35.18-59.3-44.1-94.41,16.72-10.65,33.61-22,50.29-33.72,14.6,23.19,31.29,69.69,78.34,57.6,62.43-16,107.68-219.39,111.18-235.52v0l.21-1,.16.33C3796.09,1518.89,3829.45,1589.66,3840.45,1686Z"/><path class="cls-7" d="M3519.61,1824.66c-11.28.12-22.25,0-32.77-.14-.83-10.14-9.81-39.24-15.38-51.38,5.78,4,19.4,44.51,24.23,47.11C3498.08,1821.53,3509.08,1823.25,3519.61,1824.66Z"/><circle class="cls-7" cx="3458.79" cy="1818.98" r="5.34"/><path class="cls-18" d="M3434.74,1822.9c-14.36-.54-27-1-37.34-1-6.77,0-12.69,0-17.84-.23,6.07-1.44,41.45-.63,44.53-1.93s2.53-25.27,5.13-27.13C3430.36,1799.85,3432.66,1813.68,3434.74,1822.9Z"/><path class="cls-13" d="M3888.52,1442c-18.55,1.77-72.88,26.59-91.83,37.21-.58.31-.88.49-.88.49.3-11.27-.35-19.62-2.19-24.14-15.39-37.79-64.12-52.35-74.2-88.18s46.2-66.08,49.56-73.62-20.45-18.51-9.79-22.4,26-10.37,30.24-32.48c0,0,26.77-5.33,53.64,16.33,13.64,11,13.44,10.82,9.14,18.81a88.7,88.7,0,0,0-5.84,13c-3.63,10-7.42,25.6-9.25,51-.68,9.29-1.3,16.46-1.64,22.22-1.41,23.83,2.06,23.83,27.8,52.34,2.75,3.05,5.73,6.41,9,10.15C3877.1,1428.25,3882.47,1434.59,3888.52,1442Z"/><path class="cls-14" d="M3863.28,1412.59c-7.24-3.29-19.44-10-25.67-20.31-9.21-15.21-15.05-38.77-13.26-62.45s8.65-21.3,10.15-26.9-6.16-19.42-5.31-31.17c0,0,11.76,9.74,17.18,15.23-3.63,10-7.42,25.6-9.25,51-.68,9.29-1.3,16.46-1.64,22.22C3834.07,1384.08,3837.54,1384.08,3863.28,1412.59Z"/><path class="cls-6" d="M3955.82,1319.35c-4.86,23.52-36.59,9-35.83,13.82s17.53,29.12,0,37-40.32-12.7-26.52,4.48a14.14,14.14,0,0,1,2.6,14c-4.53,13.15-26.93,23.79-49.17,14-12.18-5.35-21.74-38.81-16.5-69.81.09-.54.18-1.08.29-1.61,5.64-29.37,25.46-29.37,25.46-29.37l14.61-17.27,6.85-8.1,16.33-19.29,2.33-2.75,54.69,29.88a20.36,20.36,0,0,1,2.26,3.71C3955.76,1293.1,3959.07,1303.52,3955.82,1319.35Z"/><path class="cls-16" d="M3500.23,2294c-8.84,13.34-39.12,43.4-77.49,79-38.62,35.89-85.4,77.37-126.75,113.16-16.3,14.06-31.76,27.28-45.56,38.9L3160,2514c53.66-86.61,151.23-292.76,197.84-406.14v0c9.18-22.33,16.39-41,20.89-54.56C3378.7,2053.25,3529.89,2249.23,3500.23,2294Z"/><path class="cls-11" d="M3500.23,2294c-8.84,13.34-39.12,43.4-77.49,79-21.66-70.73-61.93-205.25-64.93-265.21v0c9.18-22.33,16.39-41,20.89-54.56C3378.7,2053.25,3529.89,2249.23,3500.23,2294Z"/><path class="cls-19" d="M3811.69,2553.5V2109.28c0-7.41,5-13.41,11.16-13.41s11.17,6,11.17,13.41V2553.5c0,7.4-5,13.41-11.17,13.41S3811.69,2560.9,3811.69,2553.5Z"/><path class="cls-19" d="M3846.73,2571.76h-53.31c-11.6-10.19-4.53-23.11,5.55-23.11h53.31C3863.88,2558.84,3856.81,2571.76,3846.73,2571.76Z"/><path class="cls-19" d="M4023.89,2121.06H3621.82a14,14,0,1,1,0-28h402.07a14,14,0,1,1,0,28Z"/><path class="cls-16" d="M4004.72,1755.36C3954.32,1478.75,3895,1464.2,3851.85,1496c-38.86,28.65-56.73,133.94-78.46,151.74.14-.87.3-1.74.43-2.64-14.63,87.6-30.8,177.3-28.53,202.83,0,.25,0,.47,0,.7,1.61,25.24-32.16,33-77.85,37.8-44.64,4.69-100.64,6.5-146.17,19-92.59,25.37-232.2,31.35-147.08,252,60.94,158,124.37,266.37,156.71,320.67l.07,0,89-29.83c-2.15-16.91-4.48-35.72-6.74-55.7-1.86-16.11-3.67-33-5.33-50.2-8.27-85.73-13-180.39-.2-235.28,0,0,4.05-14,14-14h310.1c6.78,0,14.89-2.51,23.78-7.3,47.15-25.45,115.89-115.46,120.93-238.81C4045.37,1854.52,4018.69,1832.05,4004.72,1755.36Zm-48.16,69.32c-21.63,12.28-60.07-1.38-65.51-1-1.39.09-1.66-9.59-1.19-25.6,2.29-74,20.94-283.2,20.94-283.2,40.16,63,56.4,213.61,60.32,275.2C3972.31,1808.87,3966.06,1819.26,3956.56,1824.68Z"/><path class="cls-6" d="M3785.22,1203.82c-3.08,24.64.28,49,20.44,55.44s21,1.68,21.84,11.2,10.64,19,19.59,16.79,40.79-3.54,42.47-4.48,6.72-28.37,6.72-28.37Z"/><path class="cls-6" d="M3903.55,1455.24c-.23.4-1.3.94-3,1.68-11.9,5-55.15,18.32-67.55,45.73-14.18,31.36-15.68,61.21-26.5,33.22-5-12.93-9.21-24.19-12.14-33-3.41-10.24-5.09-17.09-4.28-19.29.2-.58,2.29-2,5.73-4,18.1-10.33,73.87-35.9,92.71-37.7,2.46-.24,4.3-.08,5.33.59C3900.3,1446.68,3905.38,1452.06,3903.55,1455.24Z"/><path class="cls-7" d="M3955.82,1319.35c-4.86,23.52-36.59,9-35.83,13.82s17.53,29.12,0,37-40.32-12.7-26.52,4.48a14.14,14.14,0,0,1,2.6,14c-2.38.12-4.89.21-7.55.29-49,1.66-57.83-57.71-57.83-57.71s59.31-44.58,57.18-46.73c-.14-.13-.63-.53-1.43-1.18-1.68-1.32-4.78-3.72-8.83-6.83-25.56-19.65-90.08-68.5-92.57-70.38,2.2,1,57.61,25.87,108.9,51.09l1.66.83c21.43,10.55,42,21.14,57.62,30C3955.76,1293.1,3959.07,1303.52,3955.82,1319.35Z"/><path class="cls-13" d="M3824.77,1294.35c18.48-17,70.18-26.69,69.43,6s-64.95,35.28-72.61,28S3824.77,1294.35,3824.77,1294.35Z"/><path class="cls-14" d="M3833.38,1311.24c19,2.77,34.13-3.8,31.48-10.71s-18.68,5.71-21,5-3.17-4.66-5.8-2.11S3822.76,1309.69,3833.38,1311.24Z"/><path class="cls-11" d="M3979.22,1296.61l-15.8-9.39c.09-.12.19-.23.27-.35.25-.33.49-.67.71-1,69.1-95-70.88-210.74-151.45-109.89q-4.15,5.19-8.11,11.17c-.87,1.34-1.72,2.7-2.59,4.09l-15.32-9.11c-.17-.1-.33-.2-.5-.28.9-1.52,1.83-3,2.8-4.51q4.08-6.28,8.72-12.22c15-19.06,34.48-34.76,58-41.74,29.94-9.35,63.56-3.69,89.87,13.07,26.54,16.53,46.34,43.65,52.92,74.24C4005.43,1240.5,3997.18,1272.35,3979.22,1296.61Z"/><path class="cls-15" d="M3964.4,1285.88c-.22.32-.46.66-.71,1-.08.12-.18.23-.27.35l-161.17-96c.87-1.39,1.72-2.75,2.59-4.09q3.94-6,8.11-11.17C3893.52,1075.14,4033.5,1190.92,3964.4,1285.88Z"/><path class="cls-16" d="M3968.79,1315.45,3772.86,1198.8a11.19,11.19,0,0,1-1.84-1.38,10.73,10.73,0,0,1,12.32-17.35l.51.29,15.31,9.11,161.18,96,15.79,9.4,3.65,2.17a10.73,10.73,0,0,1-11,18.44Z"/><path class="cls-13" d="M3581.83,1521.8c-16.2,5.58-42.24,17.27-55.06,26.61-11.57-32.59-27.95-60.88-43.11-72.3-20.56-15.52,14.56-21.52,12-27.53s-25.94-25.93-33.85-28.46,9.17-6.34,32.26,14.85c9.11,8.33,34.4,32.47,64.64,63.11C3566.19,1505.63,3573.94,1513.58,3581.83,1521.8Z"/><path class="cls-6" d="M3638,1570.32c-.14.4-2.67,2.08-6.88,4.59-18.07,10.86-66.79,37.42-86.23,46-4.32,1.88-7.19,2.89-8,2.62-5-1.66-14.83-54-17.63-65.49-.61-2.47,2.4-5.85,7.52-9.59,12.82-9.34,38.86-21,55.06-26.61,7.52-2.6,12.92-3.87,13.86-3C3608.41,1530.74,3638.79,1567.78,3638,1570.32Z"/><path class="cls-7" d="M4076.64,1846.9c-31.27,7.62-57.95-14.85-71.92-91.54C3954.32,1478.75,3895,1464.2,3851.85,1496c-38.86,28.65-56.73,133.94-78.46,151.74.14-.87.3-1.74.43-2.64.9-5.29,1.77-10.71,2.69-16.22,6.78-41,12.94-80.65,16.42-112,.15-1.26.29-2.49.4-3.72s.27-2.4.38-3.58c0,0,0-.12,0-.16.23-2.24.45-4.41.63-6.54,2.93,8.78,7.14,20,12.14,33,10.82,28,12.32-1.86,26.5-33.22,12.4-27.41,55.65-40.72,67.55-45.73,24.43,31,57.65,76.64,102.62,145.83C4060.76,1691.35,4079.57,1774.8,4076.64,1846.9Z"/><path class="cls-7" d="M3776.51,1628.88c6.29-38.63,12.94-81.72,16.42-112C3789.45,1548.23,3783.29,1587.85,3776.51,1628.88Z"/><path class="cls-7" d="M3794.36,1502.9c-.18,2.08-.4,4.25-.63,6.54C3794,1507.2,3794.18,1505,3794.36,1502.9Z"/><path class="cls-7" d="M3891.05,1823.68c-7.84.56,19.75-308.8,19.75-308.8,40.16,63,56.4,213.61,60.32,275.2S3898.89,1823.12,3891.05,1823.68Z"/><path class="cls-6" d="M3629.56,2528.82c-3.74,4.12-116.85,44.79-128,49.27s54.52-46.27,51.16-61.21c-1-4.25-8.89-17.29-21.73-38.81l89.12-29.86C3626.06,2495.25,3630.77,2527.5,3629.56,2528.82Z"/><path class="cls-11" d="M3956.56,1824.68c-3.85,23.34-14.38,54.83-39.19,94.19-57.25,90.75-178.09,38.72-249.89-32.44,45.69-4.79,79.46-12.56,77.85-37.8l144.53-50.55c-.47,16-.2,25.69,1.19,25.6C3896.49,1823.3,3934.93,1837,3956.56,1824.68Z"/><path class="cls-6" d="M3658.38,1866.9c-69.63-69.65-99.35-181.46-113.53-246l0,0c19.47-8.53,68.14-35.07,86.21-45.93,10.39,11.71,20.38,23.33,29.54,34.58a509.45,509.45,0,0,1,31.52,42.29c47.23,72.54,113.22-8.38,129.07-79.29s109.66-166.55,120.64,100.63C3955.13,1997.06,3744.43,1952.93,3658.38,1866.9Z"/><path class="cls-11" d="M3955.71,2085.71c-8.89,4.79-17,7.3-23.78,7.3h-310.1c-10,0-14,14-14,14-12.77,54.89-8.07,149.55.2,235.28-17.07-76.75-47.22-228-26.21-254C3609.09,2054.55,3817.21,2093.46,3955.71,2085.71Z"/><path class="cls-11" d="M3620.06,2448.21,3531,2478c2.48-1.09,72.3-31.91,76.42-42.64,2.4-6.21,4.5-26.52,5.89-42.89C3615.58,2412.49,3617.91,2431.3,3620.06,2448.21Z"/><path class="cls-6" d="M3250.43,2525.1c-33.1,27.89-56.53,46.66-58.74,46.66H3048.23s46-9,79.62-17.92c6.21-1.66,17.54-16.35,32.12-39.87Z"/><path class="cls-11" d="M3296,2486.2c-16.3,14.06-31.76,27.28-45.56,38.9L3160,2514s82.49.29,93.31-4.55C3258.47,2507.09,3277.51,2496.54,3296,2486.2Z"/><path class="cls-14" d="M3566.46,1518.53c-.42-4-4.57-13-7.72-20.45,7.45,7.55,15.2,15.5,23.09,23.72-16.2,5.58-42.24,17.27-55.06,26.61C3538.47,1538.49,3567.23,1525.45,3566.46,1518.53Z"/><path class="cls-7" d="M3660.62,1609.49c-4.5.89-12.81-7.15-24.52-14.27-14.76-9-53.94,9.34-91.23,25.62,19.47-8.53,68.14-35.07,86.21-45.93C3641.47,1586.62,3651.46,1598.24,3660.62,1609.49Z"/><circle class="cls-7" cx="3542.63" cy="1593.96" r="7.84"/><path class="cls-14" d="M3888.52,1442c-18.55,1.77-72.88,26.59-91.83,37.21,8-4.53,68.87-39,73-41.46,3.27-2,7-5.51,2.62-15C3877.1,1428.25,3882.47,1434.59,3888.52,1442Z"/><path class="cls-20" d="M820,2361.68c41.89-29.26,51.4-83.59,49.74-132.42-.28-8.15.62-16.74-3.26-23.9s-12.92-12-20.22-8.6c-6.05,2.85-8.69,9.89-12.08,15.71A47.65,47.65,0,0,1,815,2230.73c-5.19,2.7-11.61,4.34-16.73,1.52-7-3.88-7.86-13.6-7.81-21.7q.13-22.66.28-45.33c0-8.11.08-16.39-2.45-24.08s-8.09-14.84-15.8-17-17.25,2.28-18.88,10.22c-.68,3.3,0,6.73-.23,10.09s-1.79,7.09-5,8-6.48-1.35-8.9-3.72c-8.37-8.19-14-18.73-19.35-29.22s-10.46-21.22-18-30.15-18.1-16-29.71-16.66-24,6.51-26.91,17.91,3.72,23,11,32.27a180.77,180.77,0,0,0,37.68,35.92c2.55,1.81,5.32,3.77,6.3,6.78,1.76,5.4-3.36,10.77-8.7,12.55-6,2-12.6,1.38-18.92,2.13s-13.17,3.53-15.56,9.5c-3.32,8.29,3.61,17,10.43,22.66a155.24,155.24,0,0,0,45.88,26.49c6,2.18,12.24,4.09,17,8.28s7.71,11.48,4.8,17.19-10.36,7.54-16.61,6.38S707,2266.24,701,2264c-11.14-4.21-25.53-3.44-32.66,6.19-4.69,6.33-5.11,15.14-2.73,22.69s7.18,14,12.29,20c17.85,21,40.71,37.82,66.56,46.78s49.79,11.39,75.47,2"/><path class="cls-21" d="M657.2,2079.52a5.65,5.65,0,0,0,.79.77l2.4,2.15c2.13,1.87,5.26,4.64,9.19,8.32a303.59,303.59,0,0,1,31,33.42c6,7.51,12.3,16,18.86,25.27s13.49,19.22,20.39,30a368.52,368.52,0,0,1,20,34.64c3.12,6.2,5.91,12.69,8.75,19.3l8.6,20.1c11.52,27.19,21.65,53.47,28.89,78A361.81,361.81,0,0,1,819.56,2398a265.09,265.09,0,0,1,.75,45.79c-.42,5.39-.83,9.58-1.21,12.41-.16,1.35-.28,2.42-.38,3.22a8.37,8.37,0,0,0-.08,1.11s-5.27,48.9.23-1.08c.13-.8.31-1.86.53-3.21.47-2.82,1-7,1.49-12.41a252.64,252.64,0,0,0-.29-45.94,356.29,356.29,0,0,0-13.24-66.81c-7.19-24.64-17.31-51-28.84-78.21l-8.61-20.11c-2.84-6.6-5.66-13.14-8.81-19.36a361.31,361.31,0,0,0-20.16-34.74C734,2167.91,727,2158,720.42,2148.72s-13-17.72-19.06-25.22A288.55,288.55,0,0,0,670,2090.32c-4-3.61-7.19-6.31-9.38-8.12-1.06-.85-1.88-1.52-2.5-2A5.59,5.59,0,0,0,657.2,2079.52Z"/><path class="cls-21" d="M760.67,2213.33a16.68,16.68,0,0,0,.8-3.46c.42-2.24.93-5.5,1.5-9.54,1.15-8.07,2.35-19.27,3.63-31.63s2.64-23.51,3.9-31.54c.62-4,1.16-7.26,1.56-9.5a16.76,16.76,0,0,0,.45-3.52,15.7,15.7,0,0,0-1,3.39c-.57,2.21-1.27,5.44-2,9.45-1.54,8-3.07,19.19-4.35,31.56-1.23,12.2-2.35,23.23-3.2,31.66-.4,3.8-.75,7-1,9.59A17.07,17.07,0,0,0,760.67,2213.33Z"/><path class="cls-21" d="M656.44,2193.85a23.7,23.7,0,0,0,4.16.5c2.68.24,6.55.56,11.32,1.11,9.54,1,22.68,2.92,37.08,5.63s27.33,5.78,36.62,8.24c4.66,1.2,8.4,2.27,11,3a21.85,21.85,0,0,0,4.06,1,21.61,21.61,0,0,0-3.89-1.56c-2.54-.9-6.25-2.13-10.88-3.47-9.24-2.73-22.18-5.94-36.62-8.69A368.1,368.1,0,0,0,672,2194.4c-4.8-.42-8.7-.58-11.39-.64A21.8,21.8,0,0,0,656.44,2193.85Z"/><path class="cls-21" d="M806.08,2329.15a5.51,5.51,0,0,0,.71-1.27l1.78-3.77c1.54-3.28,3.63-8.09,6.14-14.06,5-11.94,11.46-28.65,18.3-47.19s13.11-35.29,17.88-47.32l5.7-14.23,1.52-3.88a5.08,5.08,0,0,0,.44-1.4,5.78,5.78,0,0,0-.71,1.28l-1.78,3.76c-1.54,3.28-3.63,8.09-6.14,14.06-5,11.94-11.46,28.66-18.3,47.2s-13.11,35.29-17.88,47.32c-2.34,5.84-4.27,10.65-5.7,14.23l-1.52,3.88A5,5,0,0,0,806.08,2329.15Z"/><path class="cls-21" d="M667.57,2284.51a5.43,5.43,0,0,0,1.38.57l4,1.35,14.83,4.8c12.52,4.07,29.75,9.87,48.79,16.32s36.34,12.1,48.95,15.9c6.3,1.91,11.42,3.39,15,4.35l4.11,1.08a5.25,5.25,0,0,0,1.46.27,6.21,6.21,0,0,0-1.38-.57l-4-1.34-14.83-4.81c-12.52-4.06-29.76-9.87-48.8-16.31s-36.33-12.1-48.94-15.91c-6.3-1.9-11.42-3.39-15-4.34l-4.1-1.08A5.59,5.59,0,0,0,667.57,2284.51Z"/><path class="cls-22" d="M828.87,2407.81c-31-21.69-38.1-62-36.87-98.16.21-6-.46-12.41,2.42-17.71s9.58-8.93,15-6.38c4.49,2.11,6.44,7.33,9,11.65a35.4,35.4,0,0,0,14.17,13.53c3.85,2,8.61,3.22,12.41,1.13,5.21-2.88,5.83-10.08,5.79-16.09l-.21-33.6c0-6-.06-12.15,1.81-17.85s6-11,11.72-12.6,12.79,1.69,14,7.57c.51,2.45,0,5,.17,7.49s1.33,5.25,3.7,5.95,4.81-1,6.6-2.76c6.2-6.07,10.41-13.89,14.35-21.66s7.75-15.73,13.38-22.35,13.41-11.86,22-12.35,17.77,4.82,20,13.27-2.76,17.07-8.14,23.93a134,134,0,0,1-27.93,26.62c-1.9,1.35-3.95,2.8-4.67,5-1.31,4,2.49,8,6.44,9.3,4.48,1.49,9.34,1,14,1.58s9.76,2.62,11.53,7.05c2.46,6.14-2.67,12.58-7.73,16.79a114.88,114.88,0,0,1-34,19.64c-4.42,1.61-9.07,3-12.63,6.14s-5.72,8.51-3.57,12.74,7.69,5.59,12.32,4.73,8.77-3.37,13.18-5c8.26-3.11,18.93-2.55,24.22,4.59,3.47,4.69,3.78,11.23,2,16.82s-5.32,10.41-9.11,14.85c-13.24,15.53-30.18,28-49.34,34.68s-36.91,8.44-56,1.47"/><path class="cls-20" d="M949.53,2198.65a4.26,4.26,0,0,1-.59.57l-1.78,1.59c-1.58,1.39-3.9,3.45-6.81,6.17a225.52,225.52,0,0,0-23,24.78c-4.47,5.57-9.11,11.87-14,18.73s-10,14.25-15.11,22.21a273.58,273.58,0,0,0-14.83,25.68c-2.31,4.59-4.38,9.4-6.49,14.3l-6.37,14.91c-8.54,20.15-16.05,39.63-21.42,57.83a267.72,267.72,0,0,0-10,49.31,196.09,196.09,0,0,0-.57,33.94c.32,4,.62,7.11.9,9.2.12,1,.21,1.8.28,2.39a4.22,4.22,0,0,1,.06.82s3.91,36.25-.17-.8c-.09-.59-.22-1.38-.39-2.38-.35-2.09-.73-5.19-1.11-9.19a188.18,188.18,0,0,1,.22-34.06,263.29,263.29,0,0,1,9.82-49.53c5.32-18.27,12.83-37.81,21.37-58l6.39-14.91c2.1-4.89,4.19-9.74,6.53-14.35a268.31,268.31,0,0,1,14.94-25.76c5.15-8,10.33-15.33,15.21-22.18s9.61-13.14,14.13-18.69a213,213,0,0,1,23.27-24.6c3-2.68,5.33-4.68,7-6l1.85-1.51A4.31,4.31,0,0,1,949.53,2198.65Z"/><path class="cls-20" d="M872.82,2297.84a12.26,12.26,0,0,1-.58-2.56c-.32-1.66-.7-4.08-1.12-7.07-.85-6-1.74-14.29-2.69-23.45s-1.95-17.43-2.89-23.38c-.46-3-.86-5.39-1.16-7.05a11.82,11.82,0,0,1-.33-2.6,12,12,0,0,1,.75,2.51c.43,1.64,1,4,1.51,7,1.14,6,2.27,14.23,3.22,23.4s1.74,17.22,2.37,23.47c.3,2.82.56,5.2.76,7.11A11.24,11.24,0,0,1,872.82,2297.84Z"/><path class="cls-20" d="M950.09,2283.4a15.85,15.85,0,0,1-3.08.37c-2,.18-4.86.42-8.39.83-7.08.76-16.82,2.16-27.49,4.17s-20.26,4.28-27.15,6.11c-3.45.89-6.22,1.68-8.14,2.22a15.37,15.37,0,0,1-3,.74,17.18,17.18,0,0,1,2.89-1.15c1.89-.67,4.63-1.58,8.06-2.57,6.86-2,16.44-4.41,27.15-6.45a270.94,270.94,0,0,1,27.62-3.86c3.56-.31,6.45-.43,8.44-.47A16.79,16.79,0,0,1,950.09,2283.4Z"/><path class="cls-20" d="M839.17,2383.7a3.55,3.55,0,0,1-.53-.94c-.36-.76-.8-1.68-1.32-2.8-1.14-2.43-2.69-6-4.55-10.42-3.73-8.85-8.5-21.24-13.57-35s-9.72-26.16-13.26-35.08l-4.22-10.55c-.45-1.15-.82-2.1-1.13-2.88a3.43,3.43,0,0,1-.32-1,4.82,4.82,0,0,1,.53.94c.35.76.79,1.68,1.32,2.8,1.13,2.43,2.69,6,4.55,10.42,3.73,8.85,8.49,21.24,13.56,35s9.72,26.15,13.26,35.07l4.22,10.55c.45,1.15.82,2.1,1.13,2.88A4.37,4.37,0,0,1,839.17,2383.7Z"/><path class="cls-20" d="M941.84,2350.61a4,4,0,0,1-1,.42l-3,1-11,3.56c-9.28,3-22.05,7.32-36.16,12.09s-26.94,9-36.29,11.79c-4.67,1.42-8.46,2.52-11.1,3.23l-3,.8a3.81,3.81,0,0,1-1.08.2,4,4,0,0,1,1-.42l3-1,11-3.56c9.28-3,22.06-7.32,36.17-12.1s26.93-9,36.28-11.78c4.68-1.41,8.47-2.52,11.11-3.23l3-.8A3.81,3.81,0,0,1,941.84,2350.61Z"/><polygon class="cls-6" points="781.35 2578.37 868.49 2578.37 902.92 2434.33 748.33 2434.33 781.35 2578.37"/><path class="cls-6" d="M712.64,1000a68,68,0,0,1-68-68V418.67a68,68,0,0,1,68-68H1499a68,68,0,0,1,68,68V932a68,68,0,0,1-68,68Z"/><path class="cls-1" d="M1499,970H712.64a38,38,0,0,1-38-38V418.67a38,38,0,0,1,38-38H1499a38,38,0,0,1,38,38V932a38,38,0,0,1-38,38Z"/><polygon class="cls-23" points="1468.05 912.51 1468.04 584.1 1247.83 584.1 1247.84 692.43 1082.49 692.43 1082.51 912.42 1468.05 912.51"/><path class="cls-4" d="M1494.91,695.06H1438.5l-.09,55.17-52.3,0,0-55.15H1219.22V804.4H1053.9v56.11s165.36,0,165.36,0h275.67ZM1092.22,837.72h-17.91V818.89h17.91Zm55.57,0h-17.91V818.89h17.91Zm54.38,0h-17.91V818.89h17.91Zm54.62,0h-17.91V818.89h17.91Zm0-54.4h-17.91V764.49h17.91Zm0-55.14h-17.91V709.34h17.91Zm55.57,109.54h-17.91V818.89h17.91Zm0-54.4h-17.91V764.49h17.91Zm0-55.14h-17.91V709.34h17.91Zm54.38,109.54h-17.91V818.89h17.91Zm0-54.4h-17.91V764.49h17.91Zm0-55.14h-17.91V709.34h17.91Zm55.55,109.54h-17.91V818.89h17.91Zm0-54.4h-17.91V764.49h17.91Zm54.38,54.4h-17.91V818.89h17.91Zm0-54.4h-17.91V764.49h17.91Zm0-55.14h-17.91V709.34h17.91Z"/><rect class="cls-2" x="1218.35" y="526.95" width="5.22" height="385.57"/><rect class="cls-2" x="1273.15" y="526.95" width="5.22" height="385.57"/><rect class="cls-2" x="1327.94" y="526.95" width="5.22" height="385.57"/><rect class="cls-2" x="1354.41" y="722.66" width="5.22" height="275.79" transform="translate(2217.57 -496.47) rotate(90)"/><rect class="cls-2" x="1354.41" y="667.49" width="5.22" height="275.79" transform="translate(2162.41 -551.63) rotate(90)"/><rect class="cls-2" x="1354.41" y="612.32" width="5.22" height="275.79" transform="translate(2107.24 -606.8) rotate(90)"/><rect class="cls-2" x="1354.41" y="557.16" width="5.22" height="275.79" transform="translate(2052.08 -661.96) rotate(90)"/><rect class="cls-2" x="1354.41" y="501.99" width="5.22" height="275.79" transform="translate(1996.91 -717.13) rotate(90)"/><rect class="cls-2" x="1381.42" y="473.84" width="5.22" height="221.77" transform="translate(1968.76 -799.31) rotate(90)"/><polygon class="cls-2" points="1327.94 526.95 1327.94 532.17 1382.73 532.17 1382.73 912.51 1387.95 912.51 1387.95 532.17 1437.52 532.17 1437.52 912.51 1442.74 912.51 1442.74 532.17 1492.31 532.17 1492.31 912.51 1497.53 912.51 1497.53 526.95 1327.94 526.95"/><rect class="cls-2" x="1053.88" y="692.43" width="5.22" height="220.08"/><rect class="cls-2" x="1108.67" y="635.3" width="5.22" height="277.22"/><rect class="cls-2" x="1135.15" y="777.45" width="5.22" height="166.2" transform="translate(1998.32 -277.21) rotate(90)"/><rect class="cls-2" x="1135.15" y="722.29" width="5.22" height="166.2" transform="translate(1943.15 -332.38) rotate(90)"/><rect class="cls-2" x="1135.16" y="667.12" width="5.22" height="166.2" transform="translate(1887.99 -387.54) rotate(90)"/><rect class="cls-2" x="1163.46" y="635.3" width="5.22" height="277.22"/><rect class="cls-2" x="1218.25" y="635.3" width="5.22" height="277.22"/><polygon class="cls-23" points="1176.06 912.51 1176.06 584.1 955.85 584.1 955.86 692.43 790.51 692.43 790.53 912.42 1176.06 912.51"/><path class="cls-4" d="M1202.92,695.06h-56.4l-.1,55.17-52.29,0,0-55.15H927.24V804.4H761.91v56.11s165.36,0,165.36,0h275.67ZM800.24,837.72H782.32V818.89h17.92Zm55.57,0H837.9V818.89h17.91Zm54.38,0H892.28V818.89h17.91Zm54.62,0H946.89V818.89h17.92Zm0-54.4H946.89V764.49h17.92Zm0-55.14H946.89V709.34h17.92Zm55.57,109.54h-17.91V818.89h17.91Zm0-54.4h-17.91V764.49h17.91Zm0-55.14h-17.91V709.34h17.91Zm54.38,109.54h-17.91V818.89h17.91Zm0-54.4h-17.91V764.49h17.91Zm0-55.14h-17.91V709.34h17.91Zm55.54,109.54h-17.91V818.89h17.91Zm0-54.4h-17.91V764.49h17.91Zm54.39,54.4h-17.92V818.89h17.92Zm0-54.4h-17.92V764.49h17.92Zm0-55.14H1166.8V709.34h17.92Z"/><rect class="cls-2" x="926.37" y="526.95" width="5.22" height="385.57"/><rect class="cls-2" x="981.16" y="526.95" width="5.22" height="385.57"/><rect class="cls-2" x="1035.95" y="526.95" width="5.22" height="385.57"/><rect class="cls-2" x="1062.43" y="722.66" width="5.22" height="275.79" transform="translate(1925.59 -204.48) rotate(90)"/><rect class="cls-2" x="1062.43" y="667.49" width="5.22" height="275.79" transform="translate(1870.42 -259.65) rotate(90)"/><rect class="cls-2" x="1062.43" y="612.32" width="5.22" height="275.79" transform="translate(1815.26 -314.81) rotate(90)"/><rect class="cls-2" x="1062.43" y="557.16" width="5.22" height="275.79" transform="translate(1760.09 -369.98) rotate(90)"/><rect class="cls-2" x="1062.43" y="501.99" width="5.22" height="275.79" transform="translate(1704.93 -425.15) rotate(90)"/><rect class="cls-2" x="1089.44" y="473.84" width="5.22" height="221.77" transform="translate(1676.77 -507.32) rotate(90)"/><polygon class="cls-2" points="1035.95 526.95 1035.95 532.17 1090.74 532.17 1090.74 912.51 1095.96 912.51 1095.96 532.17 1145.53 532.17 1145.53 912.51 1150.75 912.51 1150.75 532.17 1200.32 532.17 1200.32 912.51 1205.54 912.51 1205.54 526.95 1035.95 526.95"/><rect class="cls-2" x="761.9" y="692.43" width="5.22" height="220.08"/><rect class="cls-2" x="816.69" y="635.3" width="5.22" height="277.22"/><rect class="cls-2" x="843.17" y="777.45" width="5.22" height="166.2" transform="translate(1706.33 14.77) rotate(90)"/><rect class="cls-2" x="843.17" y="722.29" width="5.22" height="166.2" transform="translate(1651.17 -40.39) rotate(90)"/><rect class="cls-2" x="843.17" y="667.12" width="5.22" height="166.2" transform="translate(1596 -95.56) rotate(90)"/><rect class="cls-2" x="871.48" y="635.3" width="5.22" height="277.22"/><rect class="cls-2" x="926.27" y="635.3" width="5.22" height="277.22"/><path class="cls-5" d="M780,923.22V870.09a1.45,1.45,0,0,1,2.89,0v53.13C782.84,924,780,924,780,923.22Z"/><path class="cls-5" d="M733,923.22V870.09a1.45,1.45,0,0,1,2.89,0v53.13C735.89,924,733,924,733,923.22Z"/><path class="cls-5" d="M735.76,894.79H780c.66,0,.66,2.89,0,2.89H735.76C735.1,897.68,735.1,894.79,735.76,894.79Z"/><path class="cls-5" d="M735.76,903.79H780c.66,0,.66,2.88,0,2.88H735.76C735.1,906.67,735.1,903.79,735.76,903.79Z"/><rect class="cls-4" x="727.08" y="872.87" width="61.68" height="19.98" rx="0.4"/><path class="cls-1" d="M736.11,892.85h-4.65l20-20h4.66Zm-9-14.37v4.66l10.27-10.27h-4.66Zm38.38-5.61H760.8l-20,20h4.66Zm-23.4,0-15,15v3.79a1.15,1.15,0,0,0,.22.65l19.42-19.42Zm46.7,14.18v-4.66L778.3,892.85H783Zm0-9.37v-3.6a1.17,1.17,0,0,0-.3-.76l-19.53,19.53h4.66Zm-4.56-4.81h-4.66l-20,20h4.66Zm-9.37,0h-4.66l-20,20h4.66Z"/><path class="cls-5" d="M787.55,872.46H728.29a1.63,1.63,0,0,0-1.62,1.62v17.56a1.63,1.63,0,0,0,1.62,1.62h59.26a1.63,1.63,0,0,0,1.62-1.62V874.08A1.63,1.63,0,0,0,787.55,872.46Zm.8,19.18a.8.8,0,0,1-.8.8H728.29a.8.8,0,0,1-.8-.8V874.08a.8.8,0,0,1,.8-.8h59.26a.8.8,0,0,1,.8.8Z"/><path class="cls-5" d="M884.18,526.43c0-7.86.19-19.6,1.56-22.88a4.27,4.27,0,0,1,3.18-2.55l21.45,0,58.55-51.29a6.21,6.21,0,0,1,11.65.16l150.68,55h37a5.8,5.8,0,0,1,3.44,1.14l20.43,15.15a1.6,1.6,0,0,1,.66,1.31v.26a1.63,1.63,0,0,1-1.63,1.63h-15.56a3.48,3.48,0,0,1,.75,6.55l12.54,18.55-.26.65-12.85-19a3.39,3.39,0,0,1-.91.12h-9a3.4,3.4,0,0,1-1.11-.18l-12.89,19-.26-.65,12.6-18.64a3.48,3.48,0,0,1,.93-6.46H994.33a1.43,1.43,0,0,1,0,.22l-2.4,10.32h0l.16.62h0l.82,3.21h.58c.29,0,.29,2.53,0,2.53h-8.21V891.84h7.89v12.61h16.27V920H942V904.45h16.26V891.84h7.48V541.28h-6.38c-.29,0-.29-2.53,0-2.53h.77v-3.21h-.05v-.62h.05V524.38H918.36v4.48H884.18C883.51,528.86,883.51,526.43,884.18,526.43Zm152-5.84,6.59-6-6.59-6.16Zm7.15-6.48,7.17-6.5h-14.13Zm9.4,6.48,6.58-6-6.59-6.16Zm-2.08-12.1-6.77,6.14,6.78,6.33Zm9.22,5.62,7.18-6.5h-14.14Zm9.4,6.48,6.59-6-6.59-6.16Zm-2.07-12.1-6.77,6.14,6.78,6.33Zm9.22,5.62,7.18-6.5h-14.14Zm9.4,6.48,6.59-6-6.6-6.16Zm-2.08-12.1-6.77,6.14,6.78,6.33Zm9.23,5.62,7.17-6.5H1086Zm9.4,6.48,6.58-6-6.59-6.16Zm-2.08-12.1-6.77,6.14,6.78,6.33Zm9.22,5.62,7.18-6.5h-14.14Zm26,6.48,6.58-6-6.59-6.16Zm-2.08-12.1-6.77,6.14,6.78,6.33Zm-.15-.88h-14.13l7,6.5Zm-14.32.85v12.13l6.59-6Zm-2.07,0-6.78,6.14,6.78,6.33Zm25.76,5.62,7.18-6.5h-14.14Zm9.41,6.48,6.58-6-6.59-6.16Zm-2.08-12.1-6.77,6.14L1150,521Zm9.22,5.62,7.18-6.5h-14.14Zm.55.52,6.78,6.33V508.49Zm-.56.51L1152,521.6v.06h14.12Zm-16.54,0-7.14,6.46v.06h14.12Zm-16.55,0-7.14,6.46v.06h14.13Zm-16.55,0-7.13,6.46v.06h14.12Zm-16.54,0-7.14,6.46v.06H1100Zm-16.55,0-7.13,6.46v.06h14.12Zm-16.54,0-7.14,6.46v.06h14.12Zm-16.55,0-7.14,6.46v.06h14.13Zm-9.21-6.65-6.78,6.14,6.78,6.33Zm-.15-.88h-14.14l7,6.5Zm-113.6,13,6.58-6-6.59-6.16Zm7.14-6.48,7.18-6.5H920.56Zm9.4,6.48,4.63-4.19,2-1.78-6.59-6.16Zm-2.07-12.1-6.77,6.14,6.78,6.33Zm9.22,5.62,7.18-6.5H937.11Zm7.32-5.62-6.77,6.14L951.4,521Zm17.37-14.22,5.81,7.67h.24l6-7.68Zm11.4-2.56L974.77,483l-5.55,8.74Zm6.4,26,0,.14h0l0-.2Zm.23,1h0l.29,1.37h0Zm5.64-3.49.72-.65-1.33-1.24Zm-4.63,6.39a2,2,0,0,1-.51-.71h0a1.93,1.93,0,0,0,.51.71Zm-27.69-14h-6.46l6.46,6Zm13.3-5.67-5-6.57-.42,6.57Zm.82-19.83-4.48-7.27-1,15.93Zm.18-18.7-3.95,8.07h8.38L975,463.41ZM970.33,474l4.45,7.22,4.59-7.23Zm3-10.61h-2.88l-.44,6.78Zm2.67,0,3.49,7.34-.48-7.34Zm3.77,11.65-4.48,7.05,5.53,9Zm1.33,20.28-5.15,6.6h5.58Zm10.21,16.57,2.36,2.2,7.17-6.5H990Zm11.76,8.68,6.58-6-6.59-6.16Zm-2.08-12.1-6.77,6.14L1001,521Zm9.22,5.62,7.18-6.5h-14.14Zm7.33-5.62-6.77,6.14,6.78,6.33Zm2.07,0v12.13l6.58-6Zm-9.4,6.68-7.14,6.46v.06h14.12Zm-16.55,0-1,.92,1.42,4.41a7.12,7.12,0,0,1,.29,1.19h6.3Zm-40.24-6.68v12.13l6.59-6Zm-9.4,6.68-7.13,6.46v.06h14.12Zm-16.54,0-7.14,6.46v.06H934.5ZM911.57,501h4.84a2,2,0,0,1,2,1.95v2h41.75V504a2.05,2.05,0,0,1,2-2.06h4.37L969,463.42h-.12a.38.38,0,0,1-.37-.38v-.31h0V451.94a6.13,6.13,0,0,1,.07-.87Zm69.37-49.05V463a.37.37,0,0,1-.31.37h-.1l2.53,38.53h3.59a2,2,0,0,1,2,1.43l.48,1.52H1106.5L980.92,451.68A2,2,0,0,1,980.94,451.93Zm1.89-.41,125.71,53.37h20.39Zm188.91,57.2a6.18,6.18,0,0,0-3.18-1.1v14h21.78Zm-138,12.94-7-6.52-7.13,6.46v.06h14.12Zm-57.27,19.62-.31.32,6.29,6.94v-7.26ZM982,715.19l-6.34-7-6.55,7Zm-6.85-7.57-6.26-6.9h-.48v14.12Zm6.85-9-6.34-7-6.55,7Zm-12.09,2.08,5.76,6.35,5.94-6.36Zm5.24-9.64-6.26-6.91h-.48V698.3Zm6.85-9-6.34-7-6.55,7Zm-12.09,2.08,5.76,6.36,5.94-6.37Zm5.24-9.64-6.26-6.91h-.48v14.13Zm6.85-9-6.34-7-6.55,7Zm-12.09,2.07L975.7,674l5.94-6.36Zm5.24-9.63-6.26-6.91h-.48V665.2Zm6.85-9-6.34-7-6.55,7Zm-12.09,2.08,5.76,6.35,5.94-6.36Zm5.24-9.64-6.26-6.91h-.48v14.13Zm6.85-9-6.34-7-6.55,7Zm-12.09,2.08,5.76,6.36,5.94-6.37Zm5.24-9.64-6.26-6.9h-.48v14.12Zm6.85-9-6.34-7-6.55,7ZM969.94,618l5.76,6.36,5.94-6.36Zm5.24-9.63-6.26-6.91h-.48v14.12Zm6.85-9-6.34-7-6.55,7Zm-12.09,2.08,5.76,6.36,5.94-6.37Zm5.24-9.64-6.26-6.91h-.48V599Zm6.85-9-6.34-7-6.55,7Zm-12.09,2.07,5.76,6.36,5.94-6.36Zm5.24-9.64-6.26-6.9h-.48v14.12Zm.52-.55,5.94-6.36h-11.7Zm6.59-8.43-6.6-7.29-6.81,7.3Zm.2-.9V551.7l-6.29,6.73Zm-6.29,9.89,6.29,6.94V568.53Zm0,16.55,6.29,6.94V585.08Zm0,16.54,6.29,6.95V601.62Zm0,16.55,6.29,6.94V618.17Zm0,16.55,6.29,6.94V634.71Zm0,16.54,6.29,6.94V651.26Zm0,16.55,6.29,6.94V667.81Zm0,16.55,6.29,6.94V684.35Zm0,16.54,6.29,6.94V700.9Zm5.44,9.63h-11.7l5.76,6.36Zm-5.44,6.92,6.29,6.94V717.45Zm-7.28-6.92h-.48v14.13l6.74-7.22Zm6.26-158.83-6.26-6.91h-.48v14.12Zm.52-.56,5.94-6.36h-11.7ZM982,731.73l-6.34-7-6.55,7Zm-12.09,2.08,5.76,6.36,5.94-6.37Zm12.35-184.37-6.6-7.28-6.81,7.29Zm.2,184.55-6.29,6.73,6.29,6.95V734ZM982,748.28l-6.34-7-6.55,7Zm-12.1,2.07,5.77,6.37,5.95-6.37Zm12.56.2-6.29,6.73,6.29,6.94V750.55ZM982,864.39l-6.34-7-6.55,7Zm-6.85-7.56-6.26-6.91h-.48v14.13Zm6.85-9-6.34-7-6.55,7Zm-12.09,2.07,5.76,6.36,5.94-6.36Zm5.24-9.63-6.26-6.91h-.48V847.5Zm6.85-9-6.34-7-6.55,7Zm-12.09,2.08,5.76,6.35,5.94-6.36Zm5.24-9.64-6.26-6.91h-.48V831Zm6.85-9-6.34-7-6.55,7Zm-12.09,2.08,5.76,6.36,5.94-6.37Zm5.24-9.64-6.26-6.91h-.48v14.12Zm6.85-9-6.34-7-6.55,7Zm-12.09,2.07,5.76,6.36,5.94-6.36Zm5.24-9.63-6.26-6.91h-.48v14.12Zm.52-.56,5.94-6.36h-11.7Zm-6.56-8.42H982l-6.34-7Zm6-7.57-6.26-6.91h-.48v14.13Zm7.31,6.95V767.38l-6.29,6.73Zm-6.29,9.6,6.29,6.94V783.92Zm0,16.55,6.29,6.94V800.47Zm0,16.55,6.29,6.94V817Zm0,16.54,6.29,6.94V833.56Zm0,16.55,6.29,6.94V850.11Zm5.44,9.62h-11.7l5.76,6.36Zm-5.44,6.93,6.29,6.94V866.65Zm-7.28-6.92h-.48v14.12l6.74-7.21Zm6.78-92.92,5.94-6.36h-11.7Zm0,100.39-6.55,7H982Zm6.6-108.82-6.6-7.29-6.81,7.29Zm.2,126.72V883h-14v8.82Zm-14-127.35,6.74-7.22-6.26-6.91h-.48v14.13Zm0-16.56,6.74-7.21-6.26-6.91h-.48v14.12Zm0-199.12,6.74-7.21-.28-.32h-6.46Zm-8.33-33.22-6.64,6v.06h6.64Z"/><polygon class="cls-16" points="1433.73 830.83 1405.85 713.72 1309.86 668.03 1250.63 697.79 1250.63 772.29 1249.32 772.29 1249.32 696.98 1309.85 666.58 1406.98 712.81 1407.05 713.12 1435 830.52 1433.73 830.83"/><circle class="cls-7" cx="1406.41" cy="713.34" r="3.42"/><rect class="cls-7" x="1385.95" y="720.43" width="25.32" height="2.61" transform="translate(-92.18 1226.27) rotate(-45.99)"/><circle class="cls-7" cx="1434.36" cy="830.68" r="4.18"/><rect class="cls-7" x="1433.18" y="829.21" width="3.19" height="30.92" transform="translate(-9.28 15.96) rotate(-0.64)"/><circle class="cls-7" cx="1309.42" cy="667.3" r="2.47"/><rect class="cls-7" x="1308.91" y="666.43" width="1.89" height="18.31" transform="translate(-22.21 44.92) rotate(-1.95)"/><circle class="cls-7" cx="1249.98" cy="697.39" r="1.75"/><rect class="cls-7" x="1252.8" y="695.62" width="1.34" height="12.95" transform="translate(-174.79 857.65) rotate(-35.47)"/><polygon class="cls-7" points="1304.65 699.31 1304.23 699.67 1293.27 686.84 1293.14 704.09 1282.61 692.79 1283.08 706.7 1274.27 696.89 1274.29 709.71 1267.24 700.39 1266.71 711.69 1266.16 711.66 1266.76 698.82 1273.73 708.05 1273.71 695.43 1282.47 705.18 1282.01 691.32 1292.59 702.68 1292.72 685.35 1304.65 699.31"/><path class="cls-6" d="M1303.69,680.26l4.68,18.49-46.52,15.3-4.92-10.72.49-.24ZM1307,698,1303,681.87l-44.55,22,4,8.83Z"/><circle class="cls-7" cx="1259.13" cy="709.37" r="7.67"/><circle class="cls-6" cx="1259.13" cy="709.37" r="1.95"/><polygon class="cls-7" points="1361.63 737.41 1360.8 737.19 1367.49 712.21 1345.61 727.01 1350.74 703.92 1333.58 716.57 1338.32 696.93 1322.14 708.1 1327.8 691.1 1313.07 700.24 1312.62 699.51 1329.36 689.13 1323.76 705.94 1339.67 694.96 1334.96 714.49 1352.07 701.87 1346.91 725.1 1368.91 710.22 1361.63 737.41"/><path class="cls-6" d="M1384.85,719.66l-19.28,22-59.71-45.47,9.27-15.52.73.4Zm-19.51,19.64,16.83-19.18-66.42-37.19-7.64,12.79Z"/><circle class="cls-7" cx="1309.42" cy="688.64" r="11.75"/><circle class="cls-6" cx="1309.42" cy="688.64" r="2.99"/><polygon class="cls-7" points="1378.08 846.32 1377.5 845.15 1412.98 827.62 1373.86 817.4 1405.6 799.98 1373.72 793.03 1401.09 778.65 1371.92 771.32 1397.17 760.67 1371.8 752.96 1372.18 751.71 1401.01 760.47 1376.03 771.01 1404.72 778.21 1377.51 792.52 1409.29 799.45 1377.37 816.97 1416.7 827.24 1378.08 846.32"/><path class="cls-6" d="M1421.93,855.1h-44.71l-8-114.55,27.22-5,.26,1.24Zm-42.27-2.61h39l-24.3-113.93L1372,742.69Z"/><circle class="cls-7" cx="1381.44" cy="737.04" r="17.98"/><circle class="cls-6" cx="1381.44" cy="737.04" r="4.58"/><rect class="cls-16" x="1346.41" y="801.71" width="17.76" height="17.76"/><path class="cls-6" d="M1278,904.85v.77h3.64v-.77a17.62,17.62,0,0,1,.2-2.53c0-.26.08-.55.13-.8a12.49,12.49,0,0,1,.37-1.4l-3.49-1.06A19.69,19.69,0,0,0,1278,904.85Z"/><path class="cls-6" d="M1281.71,907.94l-3.61.29a19.36,19.36,0,0,0,1.62,6.5l3.33-1.47a4.86,4.86,0,0,1-.36-.93c-.15-.38-.28-.8-.41-1.18a1,1,0,0,1,0-.16,3.25,3.25,0,0,1-.13-.62,11.25,11.25,0,0,1-.36-2.19v0A.42.42,0,0,1,1281.71,907.94Z"/><path class="cls-6" d="M1279.82,896.53l3.31,1.53a14.94,14.94,0,0,1,1.39-2.38,9,9,0,0,1,.83-1.06,10.63,10.63,0,0,1,.93-1l-2.53-2.63A18.49,18.49,0,0,0,1279.82,896.53Z"/><path class="cls-6" d="M1284.06,915.17l-3.07,1.94a17.08,17.08,0,0,0,4.64,5l2.12-3s0,0-.08,0a9.7,9.7,0,0,1-1-.77,8.89,8.89,0,0,1-1-1,7.6,7.6,0,0,1-.7-.82A11.28,11.28,0,0,1,1284.06,915.17Z"/><path class="cls-7" d="M1281.66,905.62v1.06a11.53,11.53,0,0,0,.08,1.45v0a13.34,13.34,0,0,0,.36,2.19,3.25,3.25,0,0,0,.13.62,1,1,0,0,0,0,.16,9.12,9.12,0,0,0,.41,1.18,4.86,4.86,0,0,0,.36.93,12,12,0,0,0,1,1.91,11.28,11.28,0,0,0,1,1.35c.21.28.47.56.7.82s.64.65,1,1l1,.77s0,0,.08,0a12,12,0,0,0,7,2.28h167.48a11.17,11.17,0,0,0,1.29-.08h.1a11.31,11.31,0,0,0,4-1.27s.05,0,.05,0c.36-.21.73-.42,1.09-.65a8.19,8.19,0,0,0,1-.75l.18-.15a9.84,9.84,0,0,0,.78-.7.81.81,0,0,0,.18-.2,5.43,5.43,0,0,0,.72-.81.24.24,0,0,0,.1-.1,14.3,14.3,0,0,0,1.27-1.78c.23-.39.44-.8.64-1.21a12.19,12.19,0,0,0,.55-1.29,17.65,17.65,0,0,0,.75-2.59,18.76,18.76,0,0,0,.28-3.12v-1.83a17.34,17.34,0,0,0-.21-2.61c0-.1,0-.21,0-.31a15.25,15.25,0,0,0-.65-2.43,9.8,9.8,0,0,0-.36-1s0,0,0-.11a7.81,7.81,0,0,0-.44-.93,3.38,3.38,0,0,0-.25-.51c-.14-.23-.26-.47-.42-.7a12.74,12.74,0,0,0-.93-1.29,11.9,11.9,0,0,0-1.5-1.6c-.33-.31-.69-.59-1-.88a12,12,0,0,0-3.51-1.81,9.88,9.88,0,0,0-2.06-.46l-.55-.08c-.33,0-.69,0-1,0H1294.7a10.52,10.52,0,0,0-2.38.26,1.86,1.86,0,0,0-.39.1,4.41,4.41,0,0,0-.77.21,5.51,5.51,0,0,0-.75.26.77.77,0,0,0-.23.1,7.81,7.81,0,0,0-.93.44,1.42,1.42,0,0,0-.36.21,3.87,3.87,0,0,0-.7.41l-.26.15a13,13,0,0,0-1.65,1.37c-.34.31-.62.65-.93,1s-.57.7-.83,1.06a15,15,0,0,0-1.36,2.38h0a13.4,13.4,0,0,0-.77,2.06,12.49,12.49,0,0,0-.37,1.4c0,.25-.1.51-.13.8a17.62,17.62,0,0,0-.2,2.53Zm14.82,4.75V899.86h140.37v10.51Zm158.16-5.06a6.68,6.68,0,1,1,6.69,6.69A6.67,6.67,0,0,1,1454.64,905.31Z"/><path class="cls-6" d="M1285.87,889.28l2.06,3,.26-.15a2.86,2.86,0,0,1,.7-.41,1.42,1.42,0,0,1,.36-.21,5,5,0,0,1,.93-.44.77.77,0,0,1,.23-.1,5.51,5.51,0,0,1,.75-.26,4.41,4.41,0,0,1,.77-.21,1.86,1.86,0,0,1,.39-.1,2.82,2.82,0,0,1,.52-.1l-.6-3.59A15.84,15.84,0,0,0,1285.87,889.28Z"/><path class="cls-6" d="M1289.58,920.21l-1.6,3.28a15.38,15.38,0,0,0,6.72,1.55h.07l-.07-3.64A11.63,11.63,0,0,1,1289.58,920.21Z"/><rect class="cls-6" x="1294.98" y="886.49" width="6.12" height="3.64"/><rect class="cls-6" x="1297.23" y="921.4" width="6.12" height="3.64"/><rect class="cls-6" x="1303.55" y="886.49" width="6.12" height="3.64"/><rect class="cls-6" x="1305.8" y="921.4" width="6.12" height="3.64"/><rect class="cls-6" x="1312.12" y="886.49" width="6.12" height="3.64"/><rect class="cls-6" x="1314.37" y="921.4" width="6.12" height="3.64"/><rect class="cls-6" x="1320.7" y="886.49" width="6.12" height="3.64"/><rect class="cls-6" x="1322.94" y="921.4" width="6.12" height="3.64"/><rect class="cls-6" x="1329.27" y="886.49" width="6.12" height="3.64"/><rect class="cls-6" x="1331.51" y="921.4" width="6.12" height="3.64"/><rect class="cls-6" x="1337.84" y="886.49" width="6.12" height="3.64"/><rect class="cls-6" x="1340.08" y="921.4" width="6.12" height="3.64"/><polygon class="cls-6" points="1344.68 878.62 1344.68 882.88 1365.21 882.88 1397.56 882.88 1418.08 882.88 1418.08 878.62 1344.68 878.62"/><rect class="cls-6" x="1346.41" y="886.49" width="6.12" height="3.64"/><rect class="cls-6" x="1348.66" y="921.4" width="6.12" height="3.64"/><rect class="cls-6" x="1355.01" y="886.49" width="6.12" height="3.64"/><rect class="cls-6" x="1357.23" y="921.4" width="6.12" height="3.64"/><polygon class="cls-7" points="1365.21 882.88 1365.21 893.82 1369.67 893.82 1369.67 895.07 1372.13 895.07 1372.13 893.82 1378.27 893.82 1378.27 895.07 1380.7 895.07 1380.7 893.82 1386.84 893.82 1386.84 895.07 1389.3 895.07 1389.3 893.82 1395.41 893.82 1395.41 895.07 1397.56 895.07 1397.56 882.88 1365.21 882.88"/><rect class="cls-6" x="1365.8" y="921.4" width="6.12" height="3.64"/><rect class="cls-6" x="1374.37" y="921.4" width="6.12" height="3.64"/><rect class="cls-6" x="1382.94" y="921.4" width="6.12" height="3.64"/><polygon class="cls-6" points="1363.55 886.49 1363.55 890.13 1369.67 890.13 1369.67 886.9 1369.67 886.49 1365.21 886.49 1363.55 886.49"/><polygon class="cls-6" points="1372.13 886.9 1372.13 890.13 1378.27 890.13 1378.27 886.9 1378.27 886.49 1372.13 886.49 1372.13 886.9"/><polygon class="cls-6" points="1380.7 886.9 1380.7 890.13 1386.84 890.13 1386.84 886.9 1386.84 886.49 1380.7 886.49 1380.7 886.9"/><polygon class="cls-6" points="1389.3 886.49 1389.3 886.9 1389.3 890.13 1395.41 890.13 1395.41 886.9 1395.41 886.49 1389.3 886.49"/><rect class="cls-6" x="1391.51" y="921.4" width="6.14" height="3.64"/><rect class="cls-6" x="1397.87" y="886.49" width="6.12" height="3.64"/><rect class="cls-6" x="1400.09" y="921.4" width="6.14" height="3.64"/><rect class="cls-6" x="1406.44" y="886.49" width="6.12" height="3.64"/><rect class="cls-6" x="1408.66" y="921.4" width="6.14" height="3.64"/><rect class="cls-6" x="1415.01" y="886.49" width="6.12" height="3.64"/><rect class="cls-6" x="1417.26" y="921.4" width="6.12" height="3.64"/><rect class="cls-6" x="1423.58" y="886.49" width="6.12" height="3.64"/><rect class="cls-6" x="1425.83" y="921.4" width="6.12" height="3.64"/><rect class="cls-6" x="1432.15" y="886.49" width="6.12" height="3.64"/><rect class="cls-6" x="1434.4" y="921.4" width="6.12" height="3.64"/><rect class="cls-6" x="1440.73" y="886.49" width="6.12" height="3.64"/><rect class="cls-6" x="1442.97" y="921.4" width="6.12" height="3.64"/><rect class="cls-6" x="1449.3" y="886.49" width="6.12" height="3.64"/><rect class="cls-6" x="1451.54" y="921.4" width="6.12" height="3.64"/><path class="cls-6" d="M1461.33,898.65a6.68,6.68,0,1,0,6.66,6.66A6.67,6.67,0,0,0,1461.33,898.65Z"/><path class="cls-6" d="M1457.87,886.49v3.64h4.31c.34,0,.7,0,1,0a2.15,2.15,0,0,1,.55.08l.46-3.62a13.5,13.5,0,0,0-2-.15Z"/><path class="cls-6" d="M1460.11,921.4V925h2.07a14.62,14.62,0,0,0,4.52-.7l-1.06-3.46a13.14,13.14,0,0,1-2.07.44h-.1a10.76,10.76,0,0,1-1.29.08Z"/><path class="cls-6" d="M1466.93,887.27l-1.11,3.45a12,12,0,0,1,3.51,1.81c.36.29.7.57,1,.88l2.48-2.69A16.25,16.25,0,0,0,1466.93,887.27Z"/><path class="cls-6" d="M1467.6,920.05l1.68,3.26a17.66,17.66,0,0,0,5.27-4.31l-2.82-2.33a.24.24,0,0,1-.1.1,5.43,5.43,0,0,1-.72.81.81.81,0,0,1-.18.2,5.2,5.2,0,0,1-.78.7l-.18.15a6,6,0,0,1-1,.75,5.71,5.71,0,0,1-1.09.65S1467.63,920.05,1467.6,920.05Z"/><path class="cls-6" d="M1471.86,895a12.74,12.74,0,0,1,.93,1.29c.16.23.28.47.42.7a3.38,3.38,0,0,1,.25.51,7.81,7.81,0,0,1,.44.93c0,.06,0,.08,0,.11a9.8,9.8,0,0,1,.36,1,1.15,1.15,0,0,1,.11.29l3.46-1.11a18.59,18.59,0,0,0-3.18-5.94Z"/><path class="cls-6" d="M1473.64,913.68c-.2.41-.41.82-.64,1.21l3.12,1.88a19.4,19.4,0,0,0,2.38-6.29l-3.56-.68a17.65,17.65,0,0,1-.75,2.59A12.19,12.19,0,0,1,1473.64,913.68Z"/><path class="cls-6" d="M1475,901.93c0,.1,0,.21,0,.31a14.15,14.15,0,0,1,.21,2.61v1.83c0,.31,0,.62,0,.93l3.64.21c0-.39,0-.75,0-1.14v-1.83a21.33,21.33,0,0,0-.31-3.57Z"/><rect class="cls-6" x="1296.48" y="899.86" width="140.37" height="10.51"/><rect class="cls-11" x="1344.68" y="845.73" width="99.1" height="32.88"/><rect class="cls-16" x="1316.12" y="814.79" width="54.48" height="58.62"/><polygon class="cls-1" points="1333.94 819.47 1319.4 831.68 1319.4 858.48 1344.68 858.48 1344.68 819.47 1333.94 819.47"/><path class="cls-6" d="M1249.37,791.91a6.23,6.23,0,0,1-6-4.2c-3.18-8.2,2.26-11.58,4.59-13l.67-.43c0-.19,0-.39,0-.61,0-.92.06-2.18,0-4.89a1.31,1.31,0,1,1,2.62-.08c.08,2.78,0,4.09,0,5,0,.36,0,.67,0,1,0,1-.84,1.54-1.9,2.2-2.36,1.47-5.93,3.69-3.53,9.86a3.68,3.68,0,0,0,4.46,2.43,4.17,4.17,0,0,0,3.26-4.57,1.3,1.3,0,0,1,2.6-.22,6.76,6.76,0,0,1-5.27,7.33A6.47,6.47,0,0,1,1249.37,791.91Z"/><path class="cls-7" d="M1220.6,819.82l-.95-.89,29.19-31.44a.73.73,0,0,1,.5-.21.69.69,0,0,1,.48.23l25.88,30.57-1,.84-25.41-30Z"/><rect class="cls-6" x="1215.71" y="817.13" width="64.56" height="38.41"/><rect class="cls-7" x="1175.83" y="886.63" width="64.56" height="38.41"/><rect class="cls-6" x="1111.27" y="886.63" width="64.56" height="38.41"/><rect class="cls-6" x="1140.04" y="848.22" width="64.56" height="38.41"/></g></svg>