<svg xmlns="http://www.w3.org/2000/svg" xmlns:xlink="http://www.w3.org/1999/xlink" viewBox="0 0 251.59 64.72"><defs><style>.cls-1{fill:#75a641;}.cls-2{fill:#f36d21;}.cls-3{fill:#0696c4;}.cls-4{fill:#cc1d56;}.cls-5{fill:#fff;}.cls-6,.cls-7,.cls-8,.cls-9{opacity:0.34;isolation:isolate;}.cls-6{fill:url(#linear-gradient);}.cls-7{fill:url(#linear-gradient-2);}.cls-8{fill:url(#linear-gradient-3);}.cls-9{fill:url(#linear-gradient-4);}.cls-10{fill:#010101;}</style><linearGradient id="linear-gradient" x1="4.63" y1="19.27" x2="33.02" y2="19.27" gradientTransform="matrix(1, 0, 0, -1, 0, 66.94)" gradientUnits="userSpaceOnUse"><stop offset="0" stop-color="#fdfeff"/><stop offset="0.06" stop-color="#fdfeff" stop-opacity="0.86"/><stop offset="0.16" stop-color="#fdfeff" stop-opacity="0.66"/><stop offset="0.26" stop-color="#fdfeff" stop-opacity="0.48"/><stop offset="0.37" stop-color="#fdfeff" stop-opacity="0.33"/><stop offset="0.48" stop-color="#fdfeff" stop-opacity="0.21"/><stop offset="0.59" stop-color="#fdfeff" stop-opacity="0.12"/><stop offset="0.71" stop-color="#fdfeff" stop-opacity="0.05"/><stop offset="0.84" stop-color="#fdfeff" stop-opacity="0.01"/><stop offset="1" stop-color="#fdfeff" stop-opacity="0"/></linearGradient><linearGradient id="linear-gradient-2" x1="38.73" y1="15.27" x2="62.84" y2="15.27" gradientTransform="matrix(1, 0, 0, -1, 0, 66.94)" gradientUnits="userSpaceOnUse"><stop offset="0" stop-color="#fdfeff" stop-opacity="0"/><stop offset="0.16" stop-color="#fdfeff" stop-opacity="0.01"/><stop offset="0.29" stop-color="#fdfeff" stop-opacity="0.05"/><stop offset="0.41" stop-color="#fdfeff" stop-opacity="0.12"/><stop offset="0.52" stop-color="#fdfeff" stop-opacity="0.21"/><stop offset="0.63" stop-color="#fdfeff" stop-opacity="0.33"/><stop offset="0.74" stop-color="#fdfeff" stop-opacity="0.48"/><stop offset="0.84" stop-color="#fdfeff" stop-opacity="0.66"/><stop offset="0.94" stop-color="#fdfeff" stop-opacity="0.86"/><stop offset="1" stop-color="#fdfeff"/></linearGradient><linearGradient id="linear-gradient-3" x1="37.23" y1="47.21" x2="62.53" y2="47.21" xlink:href="#linear-gradient"/><linearGradient id="linear-gradient-4" x1="6.4" y1="51.04" x2="34.42" y2="51.04" xlink:href="#linear-gradient"/></defs><title>header-logo-white-textAsset 2</title><g id="Layer_2" data-name="Layer 2"><g id="Layer_1-2" data-name="Layer 1"><g id="Layer_1-2-2" data-name="Layer 1-2"><rect class="cls-1" x="4.63" y="33.48" width="28.4" height="28.4"/><rect class="cls-2" x="38.94" y="39.62" width="24.11" height="24.11"/><rect class="cls-3" x="37.24" y="7.08" width="25.29" height="25.29"/><path class="cls-4" d="M0,12.15,21.18,0,34.42,19.05l-6.35-1.28-2.81,14L3.87,27.55l2.81-14Z"/><rect class="cls-5" x="13.13" y="11.91" width="4.15" height="4.15" transform="translate(-1.5 26.15) rotate(-78.66)"/><rect class="cls-5" x="19.52" y="13.24" width="4.15" height="4.15" transform="translate(2.27 33.42) rotate(-78.47)"/><rect class="cls-5" x="11.99" y="17.6" width="4.15" height="4.15" transform="translate(-7.99 29.6) rotate(-78.66)"/><rect class="cls-5" x="18.32" y="18.86" width="4.15" height="4.15" transform="translate(-4.14 36.82) rotate(-78.66)"/><path class="cls-6" d="M30.81,33.48A52.69,52.69,0,0,0,4.63,57.79v4.08H33V33.48Z"/><path class="cls-7" d="M54.23,46.91a38.32,38.32,0,0,0-10.78-7.29H38.73v24.1H62.84V59.37A38.5,38.5,0,0,0,54.23,46.91Z"/><path class="cls-8" d="M62.53,32.37V7.08H58.85A55.33,55.33,0,0,0,37.23,32.36h25.3Z"/><path class="cls-9" d="M28.07,17.78l6.35,1.28L21.18,0,6.4,8.48a60.87,60.87,0,0,1,9.64,9A60.84,60.84,0,0,1,25.16,31.8h.08Z"/><path class="cls-10" d="M89.62,44.83q-2.25,3.6-7.68,4.54l-1.64.14-2.8,0H68.29V44h8.32a11.12,11.12,0,0,0,4.49-.79,5,5,0,0,0,2.71-3.46l.37-2.53L84.28,16h7.29V36C91.58,39.73,90.92,42.69,89.62,44.83Z"/><path class="cls-10" d="M96.44,49.55V43.71H102v5.84Z"/><path class="cls-10" d="M107.28,49.55V16h7.39v33.6Z"/><path class="cls-10" d="M148.51,47.41q-2.85,2.13-27.29,2.13v-6h17.67a8.65,8.65,0,0,0,3.74-.61,2.63,2.63,0,0,0,1.73-2.34,9.85,9.85,0,0,0-.14-2.1,1.66,1.66,0,0,0-.28-.86,1.77,1.77,0,0,0-.37-.6c-.82-.8-3.12-1.2-6.88-1.2H135.1l-2.29,0a23.15,23.15,0,0,1-7.71-.94q-5.28-2.05-5.27-8.14t3.27-8.65Q126,16,131.6,16h18.56v6H132.71a7.29,7.29,0,0,0-4,1,3.6,3.6,0,0,0-1.49,3.13,3.58,3.58,0,0,0,1.28,3Q129.79,30,141,30l2.66,0,1.12.14,1,.19a7.37,7.37,0,0,1,2.14.85l.79.61,1,.86a5.55,5.55,0,0,1,1.59,3,25.36,25.36,0,0,1,.49,5.5A7.43,7.43,0,0,1,148.51,47.41Z"/><path class="cls-10" d="M180.62,49.55l-3.08-8H162.89l-2.9,8h-7.46L166.65,16h7.48l14.35,33.6ZM170.14,22.72,165.2,35.58h10.06Z"/><path class="cls-10" d="M214.42,49.55l-3.08-8H196.71l-2.9,8h-7.46L200.46,16h7.46l14.36,33.6ZM204,22.72l-5,12.86h10.06Z"/><path class="cls-10" d="M238.17,49.55l-3-.14-1.08,0a3.37,3.37,0,0,1-.89-.14,1.28,1.28,0,0,1-.37-.14,3,3,0,0,1-.43-.09,11.91,11.91,0,0,1-7.67-5.94,17.07,17.07,0,0,1-2.29-8.6,34.63,34.63,0,0,1,.75-7.86A14.77,14.77,0,0,1,225.73,21a10.7,10.7,0,0,1,5.12-3.84,23.37,23.37,0,0,1,3.6-.89q2-.27,15.57-.28V21.7H238.45a7.6,7.6,0,0,0-5.38,1.86,9,9,0,0,0-2.24,4.35,26.37,26.37,0,0,0-.65,5.94,17.31,17.31,0,0,0,.85,5.71A5.88,5.88,0,0,0,235,43.43l.75.19.85.05,13.51,0v5.84Z"/><path class="cls-10" d="M72.56,59.65a1.52,1.52,0,0,1-.91.7l-.16,0-.27.07-.3,0h-2.3v2.19H67.3V56.42h2.86a8.72,8.72,0,0,1,1,.06,2.3,2.3,0,0,1,.85.28,1.51,1.51,0,0,1,.62.7,2.58,2.58,0,0,1,.22,1.06A2.23,2.23,0,0,1,72.56,59.65ZM71,57.72a1.8,1.8,0,0,0-.88-.17H68.63v1.83h1.59a1.51,1.51,0,0,0,.83-.18.84.84,0,0,0,.36-.75A.76.76,0,0,0,71,57.72Z"/><path class="cls-10" d="M78,62.68l-1.38-2.44H75.08v2.44H73.77V56.42h3.55l.25,0,.18,0h.11l.21,0a1.32,1.32,0,0,1,.86.67,2.4,2.4,0,0,1,.27,1.12,2,2,0,0,1-.31,1.1,1.57,1.57,0,0,1-1,.62l1.54,2.62Zm-.35-4.92a1.55,1.55,0,0,0-1-.21H75.08v1.58H76.7a1.45,1.45,0,0,0,1-.21.79.79,0,0,0,.22-.59A.72.72,0,0,0,77.66,57.76Z"/><path class="cls-10" d="M85.38,62a2.5,2.5,0,0,1-1,.61,4.17,4.17,0,0,1-1.4.21A3.08,3.08,0,0,1,80.66,62a3.45,3.45,0,0,1-.77-2.45,3.41,3.41,0,0,1,.77-2.41,2.77,2.77,0,0,1,2.13-.83,4.49,4.49,0,0,1,2.07.41A2.35,2.35,0,0,1,86,58.19a5.24,5.24,0,0,1,.15.79,9.23,9.23,0,0,1,0,1.05A2.8,2.8,0,0,1,85.38,62Zm-1-4A1.7,1.7,0,0,0,82,57.75a2,2,0,0,0-.29.29,2.34,2.34,0,0,0-.37,1.31,5,5,0,0,0,.17,1.38,1.64,1.64,0,0,0,.22.51,1.08,1.08,0,0,0,.45.34l.43.12a4.25,4.25,0,0,0,.8,0,1.2,1.2,0,0,0,1-.65,3.56,3.56,0,0,0,0-3.06Z"/><path class="cls-10" d="M90.32,61.81a2,2,0,0,1-1.43.85l-.3,0H86.36v-1h1.55a2.06,2.06,0,0,0,.85-.15.94.94,0,0,0,.51-.65l.07-.46v-4h1.35v3.73A3.19,3.19,0,0,1,90.32,61.81Z"/><path class="cls-10" d="M94.41,62.68l-.56,0h-.19a.47.47,0,0,1-.17,0l-.07,0h-.08a2.25,2.25,0,0,1-1.43-1.11,3.41,3.41,0,0,1-.43-1.62,6.43,6.43,0,0,1,.15-1.45,2.83,2.83,0,0,1,.46-1,2.13,2.13,0,0,1,1-.72,4.07,4.07,0,0,1,.67-.16c.26,0,1.22-.06,2.9-.06v1.09H94.46A1.3,1.3,0,0,0,93,59h3.64v1.08H93a2.7,2.7,0,0,0,.07.63,1.11,1.11,0,0,0,.07.26,1.07,1.07,0,0,0,.15.22l.24.22a.7.7,0,0,0,.27.14,1.28,1.28,0,0,0,.33.06h2.51v1.07Z"/><path class="cls-10" d="M100.29,62.68l-.55,0h-.2a.51.51,0,0,1-.17,0l-.07,0h-.08A2.21,2.21,0,0,1,97.8,61.5a3.12,3.12,0,0,1-.43-1.6,6.51,6.51,0,0,1,.14-1.46A2.81,2.81,0,0,1,98,57.38a2,2,0,0,1,1-.71,3.84,3.84,0,0,1,.67-.16c.24,0,1.21-.06,2.9-.06v1.07h-2.16a1.4,1.4,0,0,0-1,.35,1.56,1.56,0,0,0-.43.81,5.08,5.08,0,0,0-.12,1.1A3,3,0,0,0,99,60.85a1.08,1.08,0,0,0,.73.72l.14,0h2.67v1.07Z"/><path class="cls-10" d="M106.18,57.53v5.15h-1.37V57.53h-2V56.44h5.39v1.09Z"/><path class="cls-10" d="M117,62.68l.11-4.86-1.59,4.86h-1.4l-1.64-4.9.14,4.9H111.3V56.42h1.93l1.58,4.8,1.6-4.8h1.93v6.26Z"/><path class="cls-10" d="M124,62.68l-.58-1.49H120.7l-.54,1.49h-1.39l2.62-6.26h1.42l2.65,6.26Zm-2-5-.92,2.39H123Z"/><path class="cls-10" d="M129.88,62.68,127.2,58l0,4.72h-1.34V56.42h1.67l2.56,4.52-.08-4.52h1.33v6.26Z"/><path class="cls-10" d="M137.06,62.68l-.58-1.49h-2.72l-.55,1.49h-1.39l2.63-6.26h1.4l2.67,6.26Zm-2-5-.92,2.39h1.87Z"/><path class="cls-10" d="M141,62.68h-.21a1.09,1.09,0,0,1-.26,0l-.47-.15a2.43,2.43,0,0,1-.35-.2l-.31-.24a2.33,2.33,0,0,1-.66-1.08,5.2,5.2,0,0,1-.18-1.47,4,4,0,0,1,.29-1.56,2.48,2.48,0,0,1,1.22-1.25,2,2,0,0,1,.67-.18q.42-.06,3.6-.06v1.09h-2.82a1.3,1.3,0,0,0-1.19.62,2.34,2.34,0,0,0-.29,1.24l0,.66c0,.09,0,.16,0,.22h0c0,.08,0,.17,0,.25a1.33,1.33,0,0,0,.43.74,5.4,5.4,0,0,0,2.43.29V60.08h-1.75V59h3.09v3.7Z"/><path class="cls-10" d="M147.93,62.68l-.55,0h-.2a.51.51,0,0,1-.17,0l-.07,0h-.08a2.21,2.21,0,0,1-1.42-1.11,3.15,3.15,0,0,1-.32-.76,3.56,3.56,0,0,1-.11-.86,6.43,6.43,0,0,1,.14-1.45,2.7,2.7,0,0,1,.47-1,2,2,0,0,1,1-.72,3.84,3.84,0,0,1,.67-.16c.25,0,1.22-.06,2.9-.06v1.09H148A1.31,1.31,0,0,0,146.49,59h3.64v1.08h-3.64a3.36,3.36,0,0,0,.06.63,2,2,0,0,0,.08.26,1.07,1.07,0,0,0,.15.22l.23.22a.82.82,0,0,0,.28.14,1.28,1.28,0,0,0,.33.06h2.51v1.07Z"/><path class="cls-10" d="M157.05,62.68l.1-4.86-1.59,4.86h-1.4l-1.64-4.9.14,4.9h-1.35V56.42h1.93l1.59,4.8,1.59-4.8h1.92v6.26Z"/><path class="cls-10" d="M162.15,62.68l-.56,0h-.2a.45.45,0,0,1-.16,0l-.07,0h-.08a2.25,2.25,0,0,1-1.43-1.11,3.25,3.25,0,0,1-.42-1.62,6.42,6.42,0,0,1,.13-1.45,2.87,2.87,0,0,1,.48-1,1.88,1.88,0,0,1,.95-.72,3.84,3.84,0,0,1,.67-.16c.26,0,1.22-.06,2.9-.06v1.09H162.2A1.3,1.3,0,0,0,160.72,59h3.64v1.08h-3.64a3.36,3.36,0,0,0,.06.63,2,2,0,0,0,.08.26,1.07,1.07,0,0,0,.15.22l.23.22a.78.78,0,0,0,.29.14,1.13,1.13,0,0,0,.31.06h2.52v1.07Z"/><path class="cls-10" d="M169.5,62.68,166.82,58l.05,4.72h-1.35V56.42h1.67l2.56,4.52-.05-4.52H171v6.26Z"/><path class="cls-10" d="M175,57.53v5.15h-1.37V57.53h-2V56.44H177v1.09Z"/><path class="cls-10" d="M181.19,64.72V56h.89v8.68Z"/><path class="cls-10" d="M189.54,62.68l-.56,0h-.2a.51.51,0,0,1-.17,0l-.07,0h-.07A2.2,2.2,0,0,1,187,61.5a3.22,3.22,0,0,1-.43-1.6,6.51,6.51,0,0,1,.14-1.46,2.81,2.81,0,0,1,.47-1.06,2,2,0,0,1,1-.71,3.84,3.84,0,0,1,.67-.16c.24,0,1.21-.06,2.9-.06v1.07h-2.16a1.4,1.4,0,0,0-1,.35,1.6,1.6,0,0,0-.43.81,5.08,5.08,0,0,0-.12,1.1,3.26,3.26,0,0,0,.15,1.07,1.11,1.11,0,0,0,.74.72l.13,0h2.68v1.07Z"/><path class="cls-10" d="M197.8,62a2.46,2.46,0,0,1-1,.61,4.17,4.17,0,0,1-1.4.21,3.09,3.09,0,0,1-2.36-.83,3.35,3.35,0,0,1-.75-2.45,3.4,3.4,0,0,1,.76-2.41,2.79,2.79,0,0,1,2.13-.83,4.36,4.36,0,0,1,2.07.4,2.36,2.36,0,0,1,1.11,1.47,5.37,5.37,0,0,1,.15.8,8.94,8.94,0,0,1,.05,1A2.83,2.83,0,0,1,197.8,62Zm-1-4a1.71,1.71,0,0,0-2.4-.29,1.33,1.33,0,0,0-.29.29,2.34,2.34,0,0,0-.37,1.31,5.37,5.37,0,0,0,.16,1.38,2,2,0,0,0,.23.51,1.11,1.11,0,0,0,.46.34l.42.12a4.3,4.3,0,0,0,.8,0,1.2,1.2,0,0,0,1-.65,2.87,2.87,0,0,0,.36-1.52A2.93,2.93,0,0,0,196.79,58Z"/><path class="cls-10" d="M203.4,62.68,200.72,58l.05,4.72h-1.34V56.42h1.67l2.56,4.52-.06-4.52h1.33v6.26Z"/><path class="cls-10" d="M211.19,62.28c-.35.27-2.05.4-5.08.4V61.56h3.29a1.48,1.48,0,0,0,.69-.11.5.5,0,0,0,.33-.43,2.56,2.56,0,0,0,0-.39.25.25,0,0,0,0-.15.35.35,0,0,0-.07-.12,2.15,2.15,0,0,0-1.28-.23h-.72a4.13,4.13,0,0,1-1.44-.17,1.47,1.47,0,0,1-1-1.51,1.94,1.94,0,0,1,.61-1.62,2.52,2.52,0,0,1,1.58-.42h3.47v1.16h-3.25a1.33,1.33,0,0,0-.75.18.66.66,0,0,0-.28.58.68.68,0,0,0,.24.57,8,8,0,0,0,2.33.16h.5l.2,0,.19,0a1.52,1.52,0,0,1,.4.16l.15.11.19.16a1.08,1.08,0,0,1,.29.56,4.44,4.44,0,0,1,.09,1A1.35,1.35,0,0,1,211.19,62.28Z"/><path class="cls-10" d="M218.1,61.25a2.7,2.7,0,0,1-.48.92,1.24,1.24,0,0,1-.6.38l-.4.13a2,2,0,0,1-.42,0l-.74,0-.72,0a2.07,2.07,0,0,1-.35,0,1.66,1.66,0,0,1-.45-.12,1.29,1.29,0,0,1-.6-.37,3.28,3.28,0,0,1-.27-.38c-.07-.12-.14-.25-.2-.38a2.27,2.27,0,0,1-.13-.82V56.43h1.32v3.76a1.93,1.93,0,0,0,.27,1.18,1.39,1.39,0,0,0,1.13.39,1.34,1.34,0,0,0,1.12-.39c.19-.24.28-1.88.28-4.94h1.31v3.8A5,5,0,0,1,218.1,61.25Z"/><path class="cls-10" d="M221.74,62.68a2.39,2.39,0,0,1-1.85-.62q-.58-.63-.57-5.64h1.3v4.26a.9.9,0,0,0,.48.76,8.17,8.17,0,0,0,2.49.19v1Z"/><path class="cls-10" d="M225.86,57.53v5.15H224.5V57.53h-2V56.44h5.39v1.09Z"/><path class="cls-10" d="M232.13,62.68l-.58-1.49h-2.73l-.53,1.49H226.9l2.62-6.26h1.4l2.67,6.26Zm-1.95-5-.93,2.39h1.87Z"/><path class="cls-10" d="M238,62.68,235.33,58l.06,4.72H234V56.42h1.67l2.56,4.52-.05-4.52h1.32v6.26Z"/><path class="cls-10" d="M243.31,62.68l-.56,0h-.2a.45.45,0,0,1-.16,0l-.07,0h-.08a2.25,2.25,0,0,1-1.43-1.11,3.21,3.21,0,0,1-.42-1.6,6.51,6.51,0,0,1,.14-1.46,2.81,2.81,0,0,1,.47-1.06,2.1,2.1,0,0,1,.95-.71,4,4,0,0,1,.68-.16c.24,0,1.2-.06,2.89-.06v1.07h-2.16a1.43,1.43,0,0,0-1,.35,1.66,1.66,0,0,0-.42.81,4.08,4.08,0,0,0-.12,1.1,3.26,3.26,0,0,0,.15,1.07,1.1,1.1,0,0,0,.73.72l.14,0h2.67v1.07Z"/><path class="cls-10" d="M249.2,59.93v2.75h-1.33V59.93l-2.37-3.51H247l1.55,2.43,1.56-2.41h1.51Z"/></g></g></g></svg>