<svg xmlns="http://www.w3.org/2000/svg" viewBox="0 0 4680 3120"><defs><style>.cls-1{fill:#fff;}.cls-2{fill:#ebeff2;}.cls-3{fill:#b3bbc3;}.cls-4{fill:#d8dfe5;}.cls-5{fill:#192057;}.cls-6{fill:#1f2a68;}.cls-7{fill:#7ccfd5;}.cls-8{fill:#fc9d6b;}.cls-9{fill:#f8bd88;}.cls-10{fill:#343d76;}.cls-11{fill:#ff8736;}.cls-12{fill:#fa993b;}.cls-13{fill:#ff790b;}.cls-14{fill:#a6dfea;}.cls-15{fill:#c43924;}.cls-16{fill:#d9cfc3;}.cls-17{fill:#d74f29;}.cls-18{fill:#151c44;}.cls-19{fill:#6bb14e;}.cls-20{fill:#4a5a66;}</style></defs><title>jipbm_services_jipbm_1</title><g id="A_For_Sale_sign_in_front_of_a_built_house" data-name="A “For Sale” sign in front of a built house"><rect class="cls-1" width="4680" height="3120"/><rect class="cls-1" y="2510.74" width="4680" height="609.26"/><rect class="cls-2" y="2496.97" width="4680" height="623.03"/><polygon class="cls-3" points="4189.55 387.08 3828.03 387.08 3828.03 186.84 3363.44 186.84 3363.44 710.76 2625.3 710.76 2625.3 886.65 2286.15 886.65 2286.15 1316.99 1541.24 1316.99 1541.24 659.37 1165.94 659.37 1165.94 818.62 903.66 818.62 903.66 1391.96 903.66 1779.22 903.66 2088.05 4189.55 2088.05 4189.55 387.08"/><rect class="cls-4" x="2135.25" y="400.72" width="582.25" height="1687.32"/><rect class="cls-1" x="2289.72" y="590.85" width="59.41" height="225.77"/><rect class="cls-1" x="2396.66" y="590.85" width="59.41" height="225.77"/><rect class="cls-1" x="2503.61" y="590.85" width="59.41" height="225.77"/><rect class="cls-1" x="2610.55" y="590.85" width="59.41" height="225.77"/><rect class="cls-1" x="2182.78" y="864.14" width="59.41" height="225.77"/><rect class="cls-1" x="2289.72" y="864.14" width="59.41" height="225.77"/><rect class="cls-1" x="2503.61" y="864.14" width="59.41" height="225.77"/><rect class="cls-1" x="2182.78" y="1137.44" width="59.41" height="225.77"/><rect class="cls-1" x="2289.72" y="1137.44" width="59.41" height="225.77"/><rect class="cls-1" x="2396.66" y="1137.44" width="59.41" height="225.77"/><rect class="cls-1" x="2503.61" y="1137.44" width="59.41" height="225.77"/><rect class="cls-1" x="2610.55" y="1137.44" width="59.41" height="225.77"/><rect class="cls-1" x="2182.78" y="1410.74" width="59.41" height="225.77"/><rect class="cls-1" x="2396.66" y="1410.74" width="59.41" height="225.77"/><rect class="cls-1" x="2503.61" y="1410.74" width="59.41" height="225.77"/><rect class="cls-1" x="2610.55" y="1410.74" width="59.41" height="225.77"/><rect class="cls-1" x="2182.78" y="1684.04" width="59.41" height="225.77"/><rect class="cls-1" x="2289.72" y="1684.04" width="59.41" height="225.77"/><rect class="cls-1" x="2396.66" y="1684.04" width="59.41" height="225.77"/><rect class="cls-1" x="2610.55" y="1684.04" width="59.41" height="225.77"/><rect class="cls-4" x="1322.42" y="567.08" width="522.83" height="1520.97"/><rect class="cls-1" x="1465.01" y="745.32" width="47.53" height="202"/><rect class="cls-1" x="1655.13" y="745.32" width="47.53" height="202"/><rect class="cls-1" x="1750.19" y="745.32" width="47.53" height="202"/><rect class="cls-1" x="1465.01" y="994.85" width="47.53" height="202"/><rect class="cls-1" x="1560.07" y="994.85" width="47.53" height="202"/><rect class="cls-1" x="1750.19" y="994.85" width="47.53" height="202"/><rect class="cls-1" x="1465.01" y="1232.5" width="47.53" height="202"/><rect class="cls-1" x="1655.13" y="1232.5" width="47.53" height="202"/><rect class="cls-1" x="1750.19" y="1232.5" width="47.53" height="202"/><rect class="cls-1" x="1465.01" y="1482.04" width="47.53" height="202"/><rect class="cls-1" x="1560.07" y="1482.04" width="47.53" height="202"/><rect class="cls-1" x="1750.19" y="1482.04" width="47.53" height="202"/><rect class="cls-1" x="1560.07" y="1719.69" width="47.53" height="213.89"/><rect class="cls-1" x="1750.19" y="1719.69" width="47.53" height="213.89"/><polygon class="cls-4" points="4189.55 353.19 3738.01 186.84 3738.01 2088.05 4189.55 2088.05 4189.55 353.19"/><rect class="cls-1" x="3785.54" y="460.14" width="356.48" height="35.65"/><rect class="cls-1" x="3785.54" y="531.43" width="356.48" height="35.65"/><rect class="cls-1" x="3785.54" y="602.73" width="356.48" height="35.65"/><rect class="cls-1" x="3785.54" y="674.02" width="356.48" height="35.65"/><rect class="cls-1" x="3785.54" y="745.32" width="356.48" height="35.65"/><rect class="cls-1" x="3785.54" y="816.61" width="356.48" height="35.65"/><rect class="cls-1" x="3785.54" y="887.91" width="356.48" height="35.65"/><rect class="cls-1" x="3785.54" y="959.21" width="356.48" height="35.65"/><rect class="cls-1" x="3785.54" y="1101.8" width="356.48" height="35.65"/><rect class="cls-1" x="3785.54" y="1173.09" width="356.48" height="35.65"/><rect class="cls-1" x="3785.54" y="1244.39" width="356.48" height="35.65"/><rect class="cls-1" x="3785.54" y="1315.68" width="356.48" height="35.65"/><rect class="cls-1" x="3785.54" y="1386.98" width="356.48" height="35.65"/><rect class="cls-1" x="3785.54" y="1458.27" width="356.48" height="35.65"/><rect class="cls-1" x="3785.54" y="1529.57" width="356.48" height="35.65"/><rect class="cls-1" x="3785.54" y="1600.86" width="356.48" height="35.65"/><rect class="cls-1" x="3785.54" y="1743.45" width="356.48" height="35.65"/><rect class="cls-1" x="3785.54" y="1814.75" width="356.48" height="35.65"/><rect class="cls-1" x="3785.54" y="1886.05" width="356.48" height="35.65"/><path class="cls-4" d="M882.58,400.72V258.13H549.86V400.72H490.45V2088.05H1072.7V400.72ZM633,1874.16H549.86V1791H633Zm0-118.82H549.86v-83.18H633Zm0-237.65H549.86v-83.18H633Zm0-118.83H549.86v-83.18H633ZM633,1280H549.86v-83.17H633Zm0-118.82H549.86V1078H633Zm0-237.65H549.86V840.38H633Zm0-118.83H549.86V721.55H633Zm0-118.82H549.86V602.73H633ZM751.87,1755.34h-71.3v-83.18h71.3Zm0-118.83h-71.3v-83.18h71.3Zm0-118.82h-71.3v-83.18h71.3Zm0-118.83h-71.3v-83.18h71.3Zm0-118.83h-71.3v-83.17h71.3Zm0-118.82h-71.3V1078h71.3Zm0-118.83h-71.3V959.21h71.3Zm0-118.82h-71.3V840.38h71.3Zm0-237.65h-71.3V602.73h71.3ZM882.58,1874.16h-71.3V1791h71.3Zm0-118.82h-71.3v-83.18h71.3Zm0-118.83h-71.3v-83.18h71.3Zm0-118.82h-71.3v-83.18h71.3Zm0-237.66h-71.3v-83.17h71.3Zm0-118.82h-71.3V1078h71.3Zm0-118.83h-71.3V959.21h71.3Zm0-118.82h-71.3V840.38h71.3Zm0-118.83h-71.3V721.55h71.3Zm0-118.82h-71.3V602.73h71.3ZM1001.4,1874.16H930.11V1791h71.29Zm0-237.65H930.11v-83.18h71.29Zm0-118.82H930.11v-83.18h71.29Zm0-118.83H930.11v-83.18h71.29Zm0-118.83H930.11v-83.17h71.29Zm0-118.82H930.11V1078h71.29Zm0-118.83H930.11V959.21h71.29Zm0-118.82H930.11V840.38h71.29Zm0-237.65H930.11V602.73h71.29Z"/><rect class="cls-1" x="549.86" y="602.73" width="83.18" height="83.18"/><rect class="cls-1" x="680.57" y="602.73" width="71.3" height="83.18"/><rect class="cls-1" x="811.28" y="602.73" width="71.3" height="83.18"/><rect class="cls-1" x="930.11" y="602.73" width="71.3" height="83.18"/><rect class="cls-1" x="549.86" y="721.55" width="83.18" height="83.18"/><rect class="cls-1" x="811.28" y="721.55" width="71.3" height="83.18"/><rect class="cls-1" x="549.86" y="840.38" width="83.18" height="83.18"/><rect class="cls-1" x="680.57" y="840.38" width="71.3" height="83.18"/><rect class="cls-1" x="811.28" y="840.38" width="71.3" height="83.18"/><rect class="cls-1" x="930.11" y="840.38" width="71.3" height="83.18"/><rect class="cls-1" x="680.57" y="959.21" width="71.3" height="83.18"/><rect class="cls-1" x="811.28" y="959.21" width="71.3" height="83.18"/><rect class="cls-1" x="930.11" y="959.21" width="71.3" height="83.18"/><rect class="cls-1" x="549.86" y="1078.03" width="83.18" height="83.18"/><rect class="cls-1" x="680.57" y="1078.03" width="71.3" height="83.18"/><rect class="cls-1" x="811.28" y="1078.03" width="71.3" height="83.18"/><rect class="cls-1" x="930.11" y="1078.03" width="71.3" height="83.18"/><rect class="cls-1" x="549.86" y="1196.86" width="83.18" height="83.18"/><rect class="cls-1" x="680.57" y="1196.86" width="71.3" height="83.18"/><rect class="cls-1" x="811.28" y="1196.86" width="71.3" height="83.18"/><rect class="cls-1" x="930.11" y="1196.86" width="71.3" height="83.18"/><rect class="cls-1" x="549.86" y="1315.68" width="83.18" height="83.18"/><rect class="cls-1" x="680.57" y="1315.68" width="71.3" height="83.18"/><rect class="cls-1" x="930.11" y="1315.68" width="71.3" height="83.18"/><rect class="cls-1" x="549.86" y="1434.51" width="83.18" height="83.18"/><rect class="cls-1" x="680.57" y="1434.51" width="71.3" height="83.18"/><rect class="cls-1" x="811.28" y="1434.51" width="71.3" height="83.18"/><rect class="cls-1" x="930.11" y="1434.51" width="71.3" height="83.18"/><rect class="cls-1" x="680.57" y="1553.33" width="71.3" height="83.18"/><rect class="cls-1" x="811.28" y="1553.33" width="71.3" height="83.18"/><rect class="cls-1" x="930.11" y="1553.33" width="71.3" height="83.18"/><rect class="cls-1" x="549.86" y="1672.16" width="83.18" height="83.18"/><rect class="cls-1" x="680.57" y="1672.16" width="71.3" height="83.18"/><rect class="cls-1" x="811.28" y="1672.16" width="71.3" height="83.18"/><rect class="cls-1" x="549.86" y="1790.98" width="83.18" height="83.18"/><rect class="cls-1" x="811.28" y="1790.98" width="71.3" height="83.18"/><rect class="cls-1" x="930.11" y="1790.98" width="71.3" height="83.18"/><path class="cls-4" d="M3354.88,638.38V448.25H3176.64V210.6h-59.41V448.25H2950.87V638.38h-95.06V2088.05h582.25V638.38ZM3224.17,507.67h59.42V626.49h-59.42Zm-106.94,95.06V507.67h59.41V626.49h-59.41Zm-106.94-95.06h59.41V626.49h-59.41Zm-47.53,1390.26h-59.42V1779.1h59.42Zm0-178.24h-59.42V1600.86h59.42Zm0-178.24h-59.42V1422.63h59.42Zm0-178.24h-59.42V1244.39h59.42Zm0-178.24h-59.42V1066.15h59.42Zm0-178.23h-59.42V887.91h59.42Zm0-178.24h-59.42V709.67h59.42ZM3069.7,1897.93h-59.41V1779.1h59.41Zm0-178.24h-59.41V1600.86h59.41Zm0-356.48h-59.41V1244.39h59.41Zm0-356.47h-59.41V887.91h59.41Zm0-178.24h-59.41V709.67h59.41Zm106.94,1069.43h-59.41V1779.1h59.41Zm0-356.48h-59.41V1422.63h59.41Zm0-178.24h-59.41V1244.39h59.41Zm0-178.24h-59.41V1066.15h59.41Zm0-178.23h-59.41V887.91h59.41Zm0-178.24h-59.41V709.67h59.41Zm107,1069.43h-59.42V1779.1h59.42Zm0-178.24h-59.42V1600.86h59.42Zm0-178.24h-59.42V1422.63h59.42Zm0-178.24h-59.42V1244.39h59.42Zm0-178.24h-59.42V1066.15h59.42Zm0-356.47h-59.42V709.67h59.42Zm106.94,1069.43h-59.41V1779.1h59.41Zm0-178.24h-59.41V1600.86h59.41Zm0-178.24h-59.41V1422.63h59.41Zm0-178.24h-59.41V1244.39h59.41Zm0-178.24h-59.41V1066.15h59.41Zm0-178.23h-59.41V887.91h59.41Zm0-178.24h-59.41V709.67h59.41Z"/><rect class="cls-1" x="2903.34" y="709.67" width="59.41" height="118.83"/><rect class="cls-1" x="3010.29" y="709.67" width="59.41" height="118.83"/><rect class="cls-1" x="3117.23" y="709.67" width="59.41" height="118.83"/><rect class="cls-1" x="3224.17" y="709.67" width="59.41" height="118.83"/><rect class="cls-1" x="3331.12" y="709.67" width="59.41" height="118.83"/><rect class="cls-1" x="2903.34" y="887.91" width="59.41" height="118.83"/><rect class="cls-1" x="3010.29" y="887.91" width="59.41" height="118.83"/><rect class="cls-1" x="3117.23" y="887.91" width="59.41" height="118.83"/><rect class="cls-1" x="3331.12" y="887.91" width="59.41" height="118.83"/><rect class="cls-1" x="2903.34" y="1066.15" width="59.41" height="118.83"/><rect class="cls-1" x="3117.23" y="1066.15" width="59.41" height="118.83"/><rect class="cls-1" x="3224.17" y="1066.15" width="59.41" height="118.83"/><rect class="cls-1" x="3331.12" y="1066.15" width="59.41" height="118.83"/><rect class="cls-1" x="2903.34" y="1244.39" width="59.41" height="118.83"/><rect class="cls-1" x="3010.29" y="1244.39" width="59.41" height="118.83"/><rect class="cls-1" x="3117.23" y="1244.39" width="59.41" height="118.83"/><rect class="cls-1" x="3224.17" y="1244.39" width="59.41" height="118.83"/><rect class="cls-1" x="3331.12" y="1244.39" width="59.41" height="118.83"/><rect class="cls-1" x="2903.34" y="1422.63" width="59.41" height="118.83"/><rect class="cls-1" x="3117.23" y="1422.63" width="59.41" height="118.83"/><rect class="cls-1" x="3224.17" y="1422.63" width="59.41" height="118.83"/><rect class="cls-1" x="3331.12" y="1422.63" width="59.41" height="118.83"/><rect class="cls-1" x="2903.34" y="1600.86" width="59.41" height="118.83"/><rect class="cls-1" x="3010.29" y="1600.86" width="59.41" height="118.83"/><rect class="cls-1" x="3224.17" y="1600.86" width="59.41" height="118.83"/><rect class="cls-1" x="3331.12" y="1600.86" width="59.41" height="118.83"/><rect class="cls-1" x="2903.34" y="1779.1" width="59.41" height="118.83"/><rect class="cls-1" x="3010.29" y="1779.1" width="59.41" height="118.83"/><rect class="cls-1" x="3117.23" y="1779.1" width="59.41" height="118.83"/><rect class="cls-1" x="3224.17" y="1779.1" width="59.41" height="118.83"/><rect class="cls-1" x="3331.12" y="1779.1" width="59.41" height="118.83"/><rect class="cls-1" x="3010.29" y="507.67" width="59.41" height="118.83"/><polygon class="cls-1" points="3176.64 602.73 3176.64 507.67 3117.23 507.67 3117.23 602.73 3117.23 626.49 3176.64 626.49 3176.64 602.73"/><rect class="cls-1" x="3224.17" y="507.67" width="59.41" height="118.83"/><rect class="cls-5" x="1383.97" y="1486.25" width="787.91" height="509.29"/><polygon class="cls-6" points="1825.06 2036.01 2293.86 1771.81 2293.86 1748.2 2179.2 1748.2 2179.2 1799.92 2071.27 1799.92 2071.27 1860.63 1973.46 1860.63 1973.46 1916.84 1873.4 1916.84 1873.4 1967.43 1782.34 1967.43 1782.34 2016.9 1707.01 2016.9 1707.01 2036.01 1825.06 2036.01"/><path class="cls-7" d="M3201.85,1402.86c-4.71,21.91-84.85,99.41-87.34,112-23.36,11.9-45.84,25-60.71,37.47-19.26-5.45-33-11.91-31.84-19.95,3.37-22.67,130.48-150.82,151-165C3173,1367.4,3206.62,1380.52,3201.85,1402.86Z"/><path class="cls-7" d="M3365,1636.89S3115.81,1652,3107,1647c-1.05-.59-1.08-4.43-.27-10.78,2.19-17.4,10.72-53.59,22-92.75,8.45-29.36,18.43-60.37,28.43-86.39,3.81-9.92,7.64-19.11,11.37-27.18,8.89-19.19,17.3-32.21,24.17-34.12,31.16-8.67,76.51-1.85,82,0,1.84.61,7,8.21,13,18.11,1.8,2.95,3.69,6.11,5.6,9.34q4.32,7.37,8.12,15a247,247,0,0,1,10.46,24,253.89,253.89,0,0,1,8.8,28.43c2.14,8.72,5.48,20.66,9.38,34,9.56,32.6,22.5,73.5,29.65,95.84C3362.93,1630.57,3365,1636.89,3365,1636.89Z"/><path class="cls-7" d="M3317.13,1435.73c13.33,4.12,22.54,12.81,27.16,23.57l68.21-6.16c16.06-26.24,22.48-50.62,1.65-59.57-50.64-21.76-130.63-12.56-153.73-25,0,0-13.56,6.14-11.71,29.4S3287,1426.44,3317.13,1435.73Z"/><path class="cls-8" d="M3247.94,1318.73c-.74,13.27-2.22,71.89-2.22,74.1s-53.09,3-53.09,3l4.43-79.64Z"/><path class="cls-9" d="M3266.88,1286c-4.42,26.56-23.06,55.47-49.82,52.9s-39.34-52-35.95-65.1,78.94-10.26,83.46-2.88A20.44,20.44,0,0,1,3266.88,1286Z"/><path class="cls-9" d="M3264.57,1270.92c16-9.62,26.69,15.12.18,21.39S3264.57,1270.92,3264.57,1270.92Z"/><path class="cls-9" d="M3183.42,1270.92c-16-9.62-26.69,15.12-.17,21.39S3183.42,1270.92,3183.42,1270.92Z"/><path class="cls-10" d="M3272.25,1264c-1.76,12.85-12.52,9.31-13.33,7.87s-3.21,3.37-10,3.21-8.19-5.3-8.67-3.69-8,7.55-13.81,5.3-7.55-6.75-8-5.14-9.8,11.72-18.47,7.55-14.6-1.41-18.87-7-10.36-5.32-2.82-8S3272.25,1264,3272.25,1264Z"/><path class="cls-11" d="M3185.85,1221a52.1,52.1,0,0,1,36.49-17c13.76-.72,27.91,4.42,37.38,14.53,7.52,7.79,11.6,18.08,13.21,28.65q.5,3.3.69,6.6c0,.79.08,1.56.09,2.34h-.25l-7.87.17-82.82,1.8-8.11.18C3173,1245,3176.8,1231,3185.85,1221Z"/><path class="cls-12" d="M3174.57,1267.77l100.67-2.19a4.74,4.74,0,0,0,.05-9.48H3275l-7.87.16-82.81,1.81-8.12.18-1.87,0a4.74,4.74,0,0,0,.21,9.48Z"/><path class="cls-13" d="M3228.88,1202.61c-3.6-.65-11.55-.62-15.07.49s-1.94,54.37-1.94,54.37l16.8-.48S3229.56,1202.73,3228.88,1202.61Z"/><path class="cls-14" d="M3249.68,1360c-10.61.44-32.86,29-32.38,32.22s34.79,25.49,36.07,21.32,3.68-42.4,11.22-46.16C3265.87,1366.75,3253.53,1359.86,3249.68,1360Z"/><path class="cls-14" d="M3187.9,1360c10.61.44,32.86,29,32.38,32.22s-34.79,25.49-36.07,21.32-3.69-42.4-11.22-46.16C3171.71,1366.75,3184.05,1359.86,3187.9,1360Z"/><path class="cls-11" d="M3359.7,1620.45c-66.09,4.32-189.57,12.72-253,15.78,2.19-17.4,10.72-53.59,22-92.75,19.65-28.58,36.39-53.88,36.51-59,.09-4.28-3.42-15-8.08-27.37-9.17-24.49-22.76-55.73-21.78-57.81,1.46-3.14,15.11-17.32,17.13-17.69,1-.18,8.25,24.29,16,48.32,7.34,22.64,15.14,44.89,18.82,45.7,7.57,1.65,81.12,0,84.81-.93,2.12-.52,9.39-33.09,15.6-60.78,4.53-20.32,8.5-38,9.42-38.53,2.21-1.2,15.42-1.1,20,.37,1.57.51-7.6,34.1-15.67,62.5-5.68,20-10.81,37.35-11.26,38.9s17.86,22.26,39.9,47.47C3339.61,1557.21,3352.55,1598.11,3359.7,1620.45Z"/><path class="cls-7" d="M3393.39,1480.09a278.25,278.25,0,0,0,19.11-26.95l-68.21,6.16a42.52,42.52,0,0,1,3,10.68,6,6,0,0,1,.86-.6C3352.65,1466.74,3380.71,1472.6,3393.39,1480.09Z"/><path class="cls-1" d="M3324.77,1534s-26.51,14.5-34.72,15.83-44,8-45.76,8.07,38.79-11.56,44.77-13.64,29.78-10.64,32.51-11.14S3324.77,1534,3324.77,1534Z"/><path class="cls-14" d="M3343.55,1486.85c0,1,.88,1.67,2.46,2.22,6.37,2.29,23.89,2.15,35.66,5a34.75,34.75,0,0,1,5.61,1.88s11.16,1.79,12.33-8.53c.28-2.47-2.18-5-6.22-7.37-12.68-7.49-40.74-13.35-45.26-10.71a6,6,0,0,0-.86.6C3342.36,1473.76,3343.69,1481.68,3343.55,1486.85Z"/><path class="cls-5" d="M3310.66,1543.05l34.73-13.92a3.32,3.32,0,1,0-2.47-6.16l-34.73,13.92a3.32,3.32,0,1,0,2.47,6.16Z"/><path class="cls-9" d="M3335.76,1537.26c6.95-3.31,26.6-21.06,45.91-43.15-11.77-2.89-29.29-2.75-35.66-5a56.92,56.92,0,0,1-7,15.81C3321.78,1532.24,3317.12,1546.16,3335.76,1537.26Z"/><rect class="cls-15" x="3118.35" y="1549.51" width="114.64" height="54.36"/><path class="cls-7" d="M3116.09,1518.7c-14.68,6.73-22.73,32.26-24.2,42.44-13.3-2.64-26.66-5.54-38.09-8.78,14.87-12.46,37.35-25.57,60.71-37.47a2.15,2.15,0,0,0-.07.65A4.52,4.52,0,0,0,3116.09,1518.7Z"/><path class="cls-9" d="M3156,1575.71c-6.73-3.23-22.21-6.42-40.39-10,5.29-6.44,11.28-31.67,24.69-38.78,13.34,3.69,30.42,9.27,47.74,20.86C3225.17,1572.68,3178,1586.25,3156,1575.71Z"/><path class="cls-14" d="M3144.86,1525.34a15.37,15.37,0,0,0-4.53,1.64c-13.41,7.11-19.4,32.34-24.69,38.78a3.51,3.51,0,0,1-2.19,1.52c-6.53.63-19.18-.42-21.51-1.9-.38-.24-.4-1.81-.05-4.24,1.47-10.18,9.52-35.71,24.2-42.44a17.53,17.53,0,0,1,8.94-1.59C3149.48,1519.22,3144.86,1525.34,3144.86,1525.34Z"/><path class="cls-3" d="M2946.2,1622.83c24.17-18,35.41-1.12,52.27-3.37s20.24-10,31.48-5,31.32-3.09,55,3.37,33.26.6,55.74,0,40.92.53,51.94,2.78,37.35-5.63,48.36-5.06,48.11,1.75,62.72,2.28,145.59-5.94,156.13-1.72,32.46,8.85,54.81,4.64,89.8-14.76,102.45-9.7,38.78-5.06,43.84.42,103.71,13.68,13.49,36.56-746.22-1.57-742.85-11.68S2946.2,1622.83,2946.2,1622.83Z"/><path class="cls-7" d="M2019.82,1036.52c-.57,24,4.24,105.29,4.24,105.29s197.6,4.33,205.29,0-40.06-161.39-67.15-168.92-66.51-1.6-71.31,0S2019.82,1036.52,2019.82,1036.52Z"/><path class="cls-7" d="M2179.28,948.21c40.94,21.48,117.07,164.3,116.42,175.81s-61,8.65-79.77,2.4-72-143.59-65.37-153.53S2179.28,948.21,2179.28,948.21Z"/><path class="cls-7" d="M2061.23,1014.25c-10.79,5.54-17.37,14.36-19.69,24.27l-59.33,5c-17.71-20-26.89-39.95-10.41-50.76,40.08-26.27,110-30.46,127.85-44.57,0,0,12.54,3.21,14.47,23.4S2085.6,1001.75,2061.23,1014.25Z"/><path class="cls-8" d="M2114.12,905.9c.64,11.54,1.93,62.5,1.93,64.43s46.15,2.56,46.15,2.56l-3.84-69.23Z"/><path class="cls-9" d="M2097.65,877.46c3.85,23.08,20,48.21,43.32,46s34.19-45.24,31.25-56.6-68.62-8.91-72.56-2.5A17.8,17.8,0,0,0,2097.65,877.46Z"/><path class="cls-9" d="M2099.66,864.34c-13.88-8.36-23.2,13.15-.15,18.6S2099.66,864.34,2099.66,864.34Z"/><path class="cls-9" d="M2170.21,864.34c13.88-8.36,23.2,13.15.15,18.6S2170.21,864.34,2170.21,864.34Z"/><path class="cls-10" d="M2093,858.33c1.54,11.17,10.89,8.09,11.59,6.84s2.79,2.93,8.66,2.79,7.12-4.61,7.54-3.21,7,6.56,12,4.61,6.56-5.87,7-4.47,8.52,10.19,16.06,6.56,12.69-1.22,16.4-6.13,9-4.62,2.45-7S2093,858.33,2093,858.33Z"/><path class="cls-11" d="M2168.1,820.94a45.35,45.35,0,0,0-31.73-14.79c-12-.62-24.26,3.85-32.49,12.64-6.54,6.77-10.09,15.71-11.48,24.91q-.43,2.87-.6,5.73c0,.69-.07,1.36-.09,2h.22l6.85.14,72,1.57,7.06.16C2179.23,841.83,2176,829.63,2168.1,820.94Z"/><path class="cls-12" d="M2177.91,861.6l-87.52-1.9a4.24,4.24,0,0,1-.88-.12,4.12,4.12,0,0,1,.83-8.12h.23l6.84.15,72,1.57,7.06.16,1.63,0a4.12,4.12,0,0,1-.18,8.24Z"/><path class="cls-13" d="M2130.69,805c3.13-.56,10-.53,13.1.43s1.68,47.27,1.68,47.27l-14.6-.42S2130.1,805.06,2130.69,805Z"/><path class="cls-14" d="M2112.61,941.8c9.22.39,28.56,25.23,28.15,28s-30.24,22.16-31.36,18.54-3.2-36.86-9.75-40.14C2098.53,947.66,2109.26,941.66,2112.61,941.8Z"/><path class="cls-14" d="M2166.32,941.8c-9.23.39-28.57,25.23-28.15,28s30.24,22.16,31.35,18.54,3.21-36.86,9.76-40.14C2180.39,947.66,2169.66,941.66,2166.32,941.8Z"/><path class="cls-11" d="M2056.43,961.51c4-1.27,11.07-4.41,13-3.36s20.51,82.53,23.72,83.34,67.15,2.24,73.72.8,28.53-82.06,30.29-81.74,13.62,12.66,14.9,15.39-26.2,63-26,74,24,72.6,20.68,76-152.41,3.37-163.47,3.37,35.09-82.42,34.13-85.68S2054.1,962.27,2056.43,961.51Z"/><path class="cls-7" d="M2002.63,1063.73a244,244,0,0,1-20.42-20.19l59.33-5a37.37,37.37,0,0,0-1,9.59,5.14,5.14,0,0,0-.82-.38C2035.5,1046.15,2012.36,1055.4,2002.63,1063.73Z"/><path class="cls-1" d="M2069.51,1099.53s24.9,8.42,32.12,8.32,38.85.19,40.4,0-35-4-40.4-4.92-27.09-4.62-29.51-4.64S2069.51,1099.53,2069.51,1099.53Z"/><path class="cls-14" d="M2046.33,1062c.17.81-.5,1.56-1.77,2.27-5.12,2.92-20.14,5.44-29.77,9.69a29.68,29.68,0,0,0-4.52,2.46s-9.29,3.21-11.85-5.44c-.62-2.08,1.12-4.62,4.21-7.25,9.73-8.33,32.87-17.58,37.14-16a5.14,5.14,0,0,1,.82.38C2045.36,1050.61,2045.42,1057.59,2046.33,1062Z"/><path class="cls-5" d="M2076,1103.06l-32-5.67a2.88,2.88,0,1,1,1-5.68l32,5.67a2.88,2.88,0,0,1-1,5.68Z"/><path class="cls-9" d="M2060.6,1104c-6.45-1.79-25.95-14-45.81-30,9.63-4.25,24.65-6.77,29.77-9.69a49.33,49.33,0,0,0,8.34,12.48C2071.81,1097.58,2077.9,1108.79,2060.6,1104Z"/><path class="cls-16" d="M1888.83,1101.18c7-14,17.43,21.17,52.84,15.08s60.15-13.09,74.77-4.81,41.6,22.9,65.77,11.65,43.28-19.48,57.9-10.58,141.65-10.68,154.58-3.47,7.31-2.41,48.34,2.4,74.77-3.52,88.82-3,61.27,32,14.05,54-586.79,6.75-599.47-9.27S1888.83,1101.18,1888.83,1101.18Z"/><polygon class="cls-16" points="2063.94 1186.62 1767.98 1193.37 1767.98 1098.36 1895.86 1098.36 1895.86 1120.57 2146.29 1166.67 2063.94 1186.62"/><rect class="cls-16" x="2931.58" y="1661.62" width="739.52" height="457.01"/><rect class="cls-17" x="3074.43" y="2097.25" width="114.64" height="54.36" transform="translate(6263.51 4248.86) rotate(180)"/><rect class="cls-15" x="2959.79" y="2097.25" width="114.64" height="54.36" transform="translate(6034.23 4248.86) rotate(180)"/><rect class="cls-17" x="3303.71" y="2097.25" width="114.64" height="54.36" transform="translate(6722.06 4248.86) rotate(180)"/><rect class="cls-15" x="3189.07" y="2097.25" width="114.64" height="54.36" transform="translate(6492.79 4248.86) rotate(180)"/><rect class="cls-17" x="3532.99" y="2097.25" width="114.64" height="54.36" transform="translate(7180.62 4248.86) rotate(180)"/><rect class="cls-15" x="3418.35" y="2097.25" width="114.64" height="54.36" transform="translate(6951.34 4248.86) rotate(180)"/><rect class="cls-17" x="3475.67" y="2038.39" width="114.64" height="54.36"/><rect class="cls-15" x="3590.31" y="2038.39" width="114.64" height="54.36"/><rect class="cls-17" x="3246.39" y="2038.39" width="114.64" height="54.36"/><rect class="cls-15" x="3361.03" y="2038.39" width="114.64" height="54.36"/><rect class="cls-17" x="3017.11" y="2038.39" width="114.64" height="54.36"/><rect class="cls-15" x="3131.75" y="2038.39" width="114.64" height="54.36"/><rect class="cls-17" x="2787.84" y="2038.39" width="114.64" height="54.36"/><rect class="cls-15" x="2902.47" y="2038.39" width="114.64" height="54.36"/><rect class="cls-17" x="3074.43" y="1979.54" width="114.64" height="54.36" transform="translate(6263.51 4013.43) rotate(180)"/><rect class="cls-15" x="2959.79" y="1979.54" width="114.64" height="54.36" transform="translate(6034.23 4013.43) rotate(180)"/><rect class="cls-17" x="3303.71" y="1979.54" width="114.64" height="54.36" transform="translate(6722.06 4013.43) rotate(180)"/><rect class="cls-15" x="3189.07" y="1979.54" width="114.64" height="54.36" transform="translate(6492.79 4013.43) rotate(180)"/><rect class="cls-17" x="3532.99" y="1979.54" width="114.64" height="54.36" transform="translate(7180.62 4013.43) rotate(180)"/><rect class="cls-15" x="3418.35" y="1979.54" width="114.64" height="54.36" transform="translate(6951.34 4013.43) rotate(180)"/><rect class="cls-17" x="3475.67" y="1920.68" width="114.64" height="54.36"/><rect class="cls-15" x="3590.31" y="1920.68" width="114.64" height="54.36"/><rect class="cls-17" x="3246.39" y="1920.68" width="114.64" height="54.36"/><rect class="cls-15" x="3361.03" y="1920.68" width="114.64" height="54.36"/><rect class="cls-17" x="3017.11" y="1920.68" width="114.64" height="54.36"/><rect class="cls-15" x="3131.75" y="1920.68" width="114.64" height="54.36"/><rect class="cls-17" x="2787.84" y="1920.68" width="114.64" height="54.36"/><rect class="cls-15" x="2902.47" y="1920.68" width="114.64" height="54.36"/><rect class="cls-17" x="3074.43" y="1861.82" width="114.64" height="54.36" transform="translate(6263.51 3778) rotate(180)"/><rect class="cls-15" x="2959.79" y="1861.82" width="114.64" height="54.36" transform="translate(6034.23 3778) rotate(180)"/><rect class="cls-17" x="3303.71" y="1861.82" width="114.64" height="54.36" transform="translate(6722.06 3778) rotate(180)"/><rect class="cls-15" x="3189.07" y="1861.82" width="114.64" height="54.36" transform="translate(6492.79 3778) rotate(180)"/><rect class="cls-17" x="3532.99" y="1861.82" width="114.64" height="54.36" transform="translate(7180.62 3778) rotate(180)"/><rect class="cls-15" x="3418.35" y="1861.82" width="114.64" height="54.36" transform="translate(6951.34 3778) rotate(180)"/><rect class="cls-17" x="3475.67" y="1802.96" width="114.64" height="54.36"/><rect class="cls-15" x="3590.31" y="1802.96" width="114.64" height="54.36"/><rect class="cls-17" x="3246.39" y="1802.96" width="114.64" height="54.36"/><rect class="cls-15" x="3361.03" y="1802.96" width="114.64" height="54.36"/><rect class="cls-17" x="3017.11" y="1802.96" width="114.64" height="54.36"/><rect class="cls-15" x="3131.75" y="1802.96" width="114.64" height="54.36"/><rect class="cls-17" x="2787.84" y="1802.96" width="114.64" height="54.36"/><rect class="cls-15" x="2902.47" y="1802.96" width="114.64" height="54.36"/><rect class="cls-17" x="3074.43" y="1744.1" width="114.64" height="54.36" transform="translate(6263.51 3542.57) rotate(180)"/><rect class="cls-15" x="2959.79" y="1744.1" width="114.64" height="54.36" transform="translate(6034.23 3542.57) rotate(180)"/><rect class="cls-17" x="3303.71" y="1744.1" width="114.64" height="54.36" transform="translate(6722.06 3542.57) rotate(180)"/><rect class="cls-15" x="3189.07" y="1744.1" width="114.64" height="54.36" transform="translate(6492.79 3542.57) rotate(180)"/><rect class="cls-17" x="3532.99" y="1744.1" width="114.64" height="54.36" transform="translate(7180.62 3542.57) rotate(180)"/><rect class="cls-15" x="3418.35" y="1744.1" width="114.64" height="54.36" transform="translate(6951.34 3542.57) rotate(180)"/><rect class="cls-17" x="3475.67" y="1685.25" width="114.64" height="54.36"/><rect class="cls-15" x="3590.31" y="1685.25" width="114.64" height="54.36"/><rect class="cls-17" x="3246.39" y="1685.25" width="114.64" height="54.36"/><rect class="cls-15" x="3361.03" y="1685.25" width="114.64" height="54.36"/><rect class="cls-17" x="3017.11" y="1685.25" width="114.64" height="54.36"/><rect class="cls-15" x="3131.75" y="1685.25" width="114.64" height="54.36"/><rect class="cls-17" x="2787.84" y="1685.25" width="114.64" height="54.36"/><rect class="cls-15" x="2902.47" y="1685.25" width="114.64" height="54.36"/><rect class="cls-17" x="3074.43" y="1626.39" width="114.64" height="54.36" transform="translate(6263.51 3307.14) rotate(180)"/><rect class="cls-15" x="2959.79" y="1626.39" width="114.64" height="54.36" transform="translate(6034.23 3307.14) rotate(180)"/><rect class="cls-17" x="3303.71" y="1626.39" width="114.64" height="54.36" transform="translate(6722.06 3307.14) rotate(180)"/><rect class="cls-15" x="3189.07" y="1626.39" width="114.64" height="54.36" transform="translate(6492.79 3307.14) rotate(180)"/><rect class="cls-17" x="3532.99" y="1626.39" width="114.64" height="54.36" transform="translate(7180.62 3307.14) rotate(180)"/><rect class="cls-15" x="3418.35" y="1626.39" width="114.64" height="54.36" transform="translate(6951.34 3307.14) rotate(180)"/><rect class="cls-17" x="1781.22" y="1174.44" width="114.64" height="54.36"/><rect class="cls-15" x="1895.86" y="1174.44" width="114.64" height="54.36"/><rect class="cls-17" x="2010.5" y="1174.44" width="114.64" height="54.36"/><rect class="cls-15" x="2125.13" y="1174.44" width="114.64" height="54.36"/><rect class="cls-17" x="1846.43" y="1116.26" width="114.64" height="54.36" transform="translate(3807.49 2286.88) rotate(180)"/><rect class="cls-15" x="1731.79" y="1116.26" width="114.64" height="54.36" transform="translate(3578.21 2286.88) rotate(180)"/><rect class="cls-17" x="2075.71" y="1116.26" width="114.64" height="54.36" transform="translate(4266.05 2286.88) rotate(180)"/><rect class="cls-15" x="1961.07" y="1116.26" width="114.64" height="54.36" transform="translate(4036.77 2286.88) rotate(180)"/><rect class="cls-17" x="2304.98" y="1116.26" width="114.64" height="54.36" transform="translate(4724.61 2286.88) rotate(180)"/><rect class="cls-15" x="2190.34" y="1116.26" width="114.64" height="54.36" transform="translate(4495.33 2286.88) rotate(180)"/><rect class="cls-17" x="1781.22" y="1057.54" width="114.64" height="54.36"/><path class="cls-10" d="M1619.68,1230.4V1085.62h125.76v-28.08H1268.11a14,14,0,1,0,0,28.08h42.7V1230.4h-7V1317H1755.4V1230.4Zm-18.72,0h-58.8V1085.62H1601Zm-132.2-144.78h54.68V1230.4h-54.68ZM1450,1230.4h-51.48V1085.62H1450Zm-120.51-144.78h50.31V1230.4h-50.31Z"/><rect class="cls-5" x="1672.13" y="862.29" width="109.09" height="411.41"/><rect class="cls-5" x="1690.54" y="709.67" width="5.06" height="190.28"/><rect class="cls-5" x="1706.98" y="722.74" width="5.06" height="190.28"/><rect class="cls-5" x="1747.45" y="709.67" width="5.06" height="190.28"/><rect class="cls-5" x="1761.37" y="719.79" width="5.06" height="190.28"/><polygon class="cls-5" points="1763.9 783.87 1712.04 783.87 1692.97 781.76 1693.16 780.08 1712.13 782.19 1763.9 782.19 1763.9 783.87"/><polygon class="cls-5" points="1763.9 810.43 1712.04 810.43 1692.97 808.32 1693.16 806.64 1712.13 808.75 1763.9 808.74 1763.9 810.43"/><polygon class="cls-5" points="1762.13 838.25 1710.28 838.25 1691.21 836.14 1691.4 834.46 1710.37 836.57 1762.13 836.57 1762.13 838.25"/><polygon class="cls-5" points="1763.9 761.11 1712.04 761.11 1692.97 758.99 1693.16 757.32 1712.13 759.42 1763.9 759.42 1763.9 761.11"/><path class="cls-18" d="M1726.14,1626.64H1594.9a7.59,7.59,0,0,1,0-15.18h131.24a7.59,7.59,0,0,1,0,15.18Z"/><path class="cls-18" d="M1589.55,2019.57a7.7,7.7,0,0,1-2.49-.42,7.59,7.59,0,0,1-4.68-9.66L1719,1616.56a7.59,7.59,0,1,1,14.33,5l-136.59,392.93A7.59,7.59,0,0,1,1589.55,2019.57Z"/><path class="cls-18" d="M1458.05,2019.57a7.7,7.7,0,0,1-2.49-.42,7.59,7.59,0,0,1-4.68-9.66l136.6-392.93a7.59,7.59,0,1,1,14.33,5l-136.59,392.93A7.59,7.59,0,0,1,1458.05,2019.57Z"/><path class="cls-18" d="M1700.85,1698.71H1569.61a7.59,7.59,0,1,1,0-15.17h131.24a7.59,7.59,0,1,1,0,15.17Z"/><path class="cls-18" d="M1674.6,1774.81H1543.35a7.59,7.59,0,0,1,0-15.17H1674.6a7.59,7.59,0,0,1,0,15.17Z"/><path class="cls-18" d="M1649.46,1846.89H1518.22a7.59,7.59,0,1,1,0-15.18h131.24a7.59,7.59,0,0,1,0,15.18Z"/><path class="cls-18" d="M1621.12,1928H1489.88a7.59,7.59,0,1,1,0-15.17h131.24a7.59,7.59,0,1,1,0,15.17Z"/><path class="cls-18" d="M1596,2000.07H1464.74a7.59,7.59,0,0,1,0-15.18H1596a7.59,7.59,0,0,1,0,15.18Z"/><path class="cls-18" d="M1732.11,2023.79a7.62,7.62,0,0,0,7.17-10.09l-136.6-392.92a7.59,7.59,0,1,0-14.34,5l136.6,392.93A7.6,7.6,0,0,0,1732.11,2023.79Z"/><path class="cls-18" d="M1863.61,2023.79a7.62,7.62,0,0,0,7.17-10.09l-136.6-392.92a7.59,7.59,0,1,0-14.34,5l136.6,392.93A7.6,7.6,0,0,0,1863.61,2023.79Z"/><path class="cls-18" d="M1620.81,1702.93h131.24a7.59,7.59,0,1,0,0-15.18H1620.81a7.59,7.59,0,1,0,0,15.18Z"/><path class="cls-18" d="M1647.06,1779H1778.3a7.59,7.59,0,0,0,0-15.18H1647.06a7.59,7.59,0,1,0,0,15.18Z"/><path class="cls-18" d="M1672.2,1851.1h131.24a7.59,7.59,0,1,0,0-15.17H1672.2a7.59,7.59,0,1,0,0,15.17Z"/><path class="cls-18" d="M1700.53,1932.21h131.24a7.59,7.59,0,0,0,0-15.18H1700.53a7.59,7.59,0,1,0,0,15.18Z"/><path class="cls-18" d="M1725.67,2004.28h131.24a7.59,7.59,0,1,0,0-15.17H1725.67a7.59,7.59,0,1,0,0,15.17Z"/><polygon class="cls-10" points="2959.79 1111.45 2959.79 2151.61 2849.76 2151.61 2849.76 1486.25 2450.03 1486.25 2450.03 2151.61 1383.97 2151.61 1383.97 1995.54 2171.88 1995.54 2171.88 1486.25 1383.97 1486.25 1383.97 1371.9 2959.79 1111.45"/><polygon class="cls-5" points="1291.17 1403.03 1275.64 1312 3043.63 1010.69 3059.18 1101.71 1291.17 1403.03"/><rect class="cls-5" x="2450.04" y="1486.25" width="399.72" height="665.36"/><polygon class="cls-6" points="2171.88 1653.2 1838.55 1486.25 1953.22 1486.25 1953.22 1504.8 2033.33 1504.8 2033.33 1545.27 2107.53 1545.27 2107.53 1590.81 2171.88 1590.81 2171.88 1653.2"/><rect class="cls-5" x="3647.63" y="1332.78" width="109.09" height="818.84"/><rect class="cls-5" x="3666.04" y="1180.16" width="5.06" height="190.28"/><rect class="cls-5" x="3682.48" y="1193.23" width="5.06" height="190.28"/><rect class="cls-5" x="3722.96" y="1180.16" width="5.06" height="190.28"/><rect class="cls-5" x="3736.87" y="1190.28" width="5.06" height="190.28"/><polygon class="cls-5" points="3739.4 1254.36 3687.54 1254.36 3668.48 1252.25 3668.66 1250.57 3687.64 1252.68 3739.4 1252.67 3739.4 1254.36"/><polygon class="cls-5" points="3739.4 1280.92 3687.54 1280.92 3668.48 1278.8 3668.66 1277.13 3687.64 1279.24 3739.4 1279.23 3739.4 1280.92"/><polygon class="cls-5" points="3737.64 1308.74 3685.78 1308.74 3666.71 1306.63 3666.9 1304.95 3685.87 1307.06 3737.64 1307.06 3737.64 1308.74"/><polygon class="cls-5" points="3739.4 1231.59 3687.54 1231.59 3668.48 1229.48 3668.66 1227.81 3687.64 1229.91 3739.4 1229.91 3739.4 1231.59"/><rect class="cls-13" x="1660.52" y="2099.48" width="36.41" height="411.26"/><path class="cls-12" d="M1841.41,2132.76H1536.89a37,37,0,0,1-37.05-37.05v-134a37.06,37.06,0,0,1,37.05-37.05h304.52a37,37,0,0,1,37,37.05v134a37,37,0,0,1-37,37.05Z"/><path class="cls-1" d="M1583,2014.41a5,5,0,0,1-1.43-.25,28.57,28.57,0,0,0-8.82-1.18c-1.14,0-2.45.08-3.93.23s-3.14.37-5,.67q.06,5.37,0,9.24a31.08,31.08,0,0,1,7.06-1,74.58,74.58,0,0,1,9.07.48q3.62.45,3.62,3.81a3.61,3.61,0,0,1-1.15,2.71,3.91,3.91,0,0,1-2.8,1.09c-1,0-2.43-.07-4.37-.22s-3.4-.22-4.37-.22a33.55,33.55,0,0,0-7.06,1.29v17.55a3.43,3.43,0,0,1-1.27,2.72,4.37,4.37,0,0,1-2.93,1.09,3.43,3.43,0,0,1-2.63-1.08,3.85,3.85,0,0,1-1-2.73v-32.09c0-.73,0-1.83,0-3.3s0-2.58,0-3.31a3.68,3.68,0,0,1,1.1-2.74A3.81,3.81,0,0,1,1560,2006a4,4,0,0,1,1.87.42c2.17-.38,4.16-.65,6-.83s3.45-.27,4.9-.27a31.79,31.79,0,0,1,8,1.32q6.08,1.65,6.07,3.84a3.74,3.74,0,0,1-1.13,2.74A3.7,3.7,0,0,1,1583,2014.41Z"/><path class="cls-1" d="M1610.24,2051.12a21.63,21.63,0,0,1-14.12-4.76,16.27,16.27,0,0,1-6.21-13.19,28,28,0,0,1,6-17.36q6.69-8.82,16.86-8.82,9.76,0,14.65,4.48t4.87,13.47a29.08,29.08,0,0,1-5.49,17.25Q1620.43,2051.11,1610.24,2051.12Zm2.49-36.54q-6.24,0-10.7,6.05a20.64,20.64,0,0,0-4.17,12.54,9.25,9.25,0,0,0,3.61,7.56,13.52,13.52,0,0,0,8.77,2.8q6.15,0,10.27-6a21.65,21.65,0,0,0,3.78-12.54c0-3.92-.87-6.65-2.63-8.18S1617,2014.58,1612.73,2014.58Z"/><path class="cls-1" d="M1665.54,2049.75a4,4,0,0,1-2.77-1.18,47.08,47.08,0,0,0-18.65-11c.21,5.43.31,8.45.31,9a3.65,3.65,0,0,1-1.12,2.71,4.11,4.11,0,0,1-5.6,0,3.65,3.65,0,0,1-1.12-2.71q0-2.1.05-6.28t.06-6.29l.06-22.6a5.43,5.43,0,0,1,1.09-3.3,4.22,4.22,0,0,1,4-1.71c4.53.34,6.86.51,7,.53a20.05,20.05,0,0,1,6.66,1.88q12,6,12,14.92a9.47,9.47,0,0,1-2.5,6.49,19.24,19.24,0,0,1-7.52,4.74,42,42,0,0,1,11.17,8.46,3.72,3.72,0,0,1,1,2.49,3.62,3.62,0,0,1-1.18,2.71A3.9,3.9,0,0,1,1665.54,2049.75Zm-18-35.23-3.27-.22v14.87c.46,0,.87,0,1.23,0,4.57,0,8-.56,10.16-1.7a10,10,0,0,0,2.62-1.94c.8-.8,1.19-1.4,1.19-1.82q0-3.13-4-6A16.17,16.17,0,0,0,1647.59,2014.52Z"/><path class="cls-1" d="M1711.58,2051.12q-7.11,0-11.2-3.16c-2.3-1.76-3.45-3.78-3.45-6.08A4.18,4.18,0,0,1,1698,2039a3.8,3.8,0,0,1,2.94-1.16,3.87,3.87,0,0,1,3.69,2.58q1.61,3.44,7.23,3.44a21.89,21.89,0,0,0,9.33-2.1c3.11-1.44,4.67-3,4.67-4.73q0-3.52-2.91-4.65-2.07-.81-8.32-.95a22.5,22.5,0,0,1-8.68-1.82q-5.17-2.32-5.1-6.67.09-5.46,5.83-10a19.92,19.92,0,0,1,12.66-4.55,23.44,23.44,0,0,1,6.77,1.26c3.34,1.05,5,2.25,5,3.62a3.74,3.74,0,0,1-1,2.57,3.69,3.69,0,0,1-2.89,1.26,21,21,0,0,1-3.93-.56,21.11,21.11,0,0,0-4-.56,14.77,14.77,0,0,0-6.86,1.74c-2.24,1.16-3.36,2.41-3.36,3.78a2,2,0,0,0,1,1.75,7.25,7.25,0,0,0,3.06,1l7.15.4q6.21.46,9.82,3.5a11.49,11.49,0,0,1,4,9.29q0,7.23-8.23,11A34.46,34.46,0,0,1,1711.58,2051.12Z"/><path class="cls-1" d="M1770.36,2050.25q-2.22-.08-4.45-5.21a44.86,44.86,0,0,1-2.55-7.61c-1.38.2-3.64.41-6.78.61q-4.42.32-6.78.73c-.85,2.06-2.35,5.14-4.48,9.27a3.83,3.83,0,0,1-3.41,2,4.15,4.15,0,0,1-2.77-1,3.34,3.34,0,0,1-1.24-2.68q0-1.42,4.09-9.69a3.3,3.3,0,0,1-.33-1.62c.07-.9,1-1.6,2.71-2.1q4-6.89,8.85-14.28,7-10.62,8.63-10.62c2.05,0,3.42,1.25,4.11,3.73.38,2,1,5,1.77,9q1.71,8.05,4.17,18.45a36.33,36.33,0,0,0,1.43,3.7,10.59,10.59,0,0,1,1,3.61,3.52,3.52,0,0,1-1.22,2.72A3.83,3.83,0,0,1,1770.36,2050.25Zm-10.45-28.73q-2.17,3.75-6,10.22a29.05,29.05,0,0,1,3.92-.44c2.09-.14,3.41-.24,4-.31C1761.31,2028.56,1760.7,2025.41,1759.91,2021.52Z"/><path class="cls-1" d="M1806.48,2048.35a45.4,45.4,0,0,1-10.22,2.6,65.19,65.19,0,0,1-10.39,1.07q-6.86,0-6.86-6,0,.46.56-8.88.73-12.15.73-27a3.81,3.81,0,0,1,3.89-3.84,3.81,3.81,0,0,1,2.8,1.12,3.69,3.69,0,0,1,1.12,2.72q0,14.92-.75,27.5-.25,2.23-.54,6.86,6.65-.12,17-3.25a4.26,4.26,0,0,1,1.23-.2,3.57,3.57,0,0,1,2.86,1.29,3.91,3.91,0,0,1,1,2.58A3.65,3.65,0,0,1,1806.48,2048.35Z"/><path class="cls-1" d="M1840,2013.51a4.52,4.52,0,0,1-1.18-.16,33.2,33.2,0,0,0-8.82-1.24,31.92,31.92,0,0,0-4.51.34,49,49,0,0,0-5.12,1c0,2.48-.09,6.17-.25,11.06,1-.08,4.69-.42,10.94-1q5.35-.52,6.78-.53a4.12,4.12,0,0,1,2.83,1,3.57,3.57,0,0,1,1.18,2.79q0,3.33-3.56,3.78-2.23.17-6.69.56-4,.45-12,1.09c-.13,2.37-.19,4.28-.19,5.74q0,5.49.64,6.24c.2.25,1.38.37,3.53.37,1.16,0,2.9,0,5.23-.09s4.08-.08,5.24-.08a12.15,12.15,0,0,0,1.65-.17,12.24,12.24,0,0,1,1.63-.17,4.27,4.27,0,0,1,2.77.93,3.49,3.49,0,0,1,1.32,2.91c0,2.09-1.1,3.34-3.28,3.75a77.3,77.3,0,0,1-11.62.54q-9.13,0-11.9-2.47-3.06-2.71-3.06-11.76c0-2.5.19-6.26.55-11.27s.55-8.76.55-11.25a23.1,23.1,0,0,0-.28-2.89,21.42,21.42,0,0,1-.28-2.9c0-2.84,1.3-4.26,3.92-4.26a4,4,0,0,1,2.26.7,59.49,59.49,0,0,1,6.18-1.22,40.33,40.33,0,0,1,5.53-.4,32.26,32.26,0,0,1,11.29,1.62,3.58,3.58,0,0,1,2.57,3.56,3.68,3.68,0,0,1-1,2.57A3.6,3.6,0,0,1,1840,2013.51Z"/><path class="cls-19" d="M1675.52,2511l-18.82-.85s-26.7-34.9-38.43-70.65c-16.49-50.27,7-82.53,20.82-83.8s23.63,11.12,16.63,48.63C1651.6,2426.46,1653,2468.05,1675.52,2511Z"/><path class="cls-1" d="M1660.78,2495.24l.14-.08a1.17,1.17,0,0,0,.28-1.63c-28.32-40.45-35.26-97.12-25.44-126.42a1.18,1.18,0,0,0-.74-1.48,1.16,1.16,0,0,0-1.47.73c-10,29.84-3,87.46,25.74,128.51A1.18,1.18,0,0,0,1660.78,2495.24Z"/><path class="cls-19" d="M1710.54,2511l-28.3-.31s4.85-71.06,28.84-127.12c33.73-78.83,96.8-93,115-79.72s16.86,38.83-31.81,77C1765.6,2403.37,1729.12,2434.63,1710.54,2511Z"/><path class="cls-1" d="M1703.16,2496.91l.26.05a1.89,1.89,0,0,0,2.08-1.67c8.82-79.56,61-156,104.35-181.11a1.89,1.89,0,1,0-1.9-3.27c-44.1,25.61-97.25,103.23-106.2,184A1.89,1.89,0,0,0,1703.16,2496.91Z"/><path class="cls-13" d="M3574.71,2288.23s-67-25.67-110.08-78.12-46.72-70.66-46.72-70.66l355.77-53.19s12.23,108.66-41.32,134.2S3574.71,2288.23,3574.71,2288.23Z"/><path class="cls-10" d="M3601.52,2287.38a8.26,8.26,0,0,0,4.62-.74l258-123a8.3,8.3,0,0,0,4.66-8.42l-5.86-51.07,80.75,10.44a8.28,8.28,0,0,0,2.12-16.43l-91.24-11.79a8.27,8.27,0,0,0-9.29,9.15l6.39,55.71L3599,2271.69a8.28,8.28,0,0,0,2.51,15.69Z"/><path class="cls-5" d="M3931.33,2115.73l48.91,6.32a11,11,0,0,0,2.83-21.9l-48.91-6.32a11,11,0,0,0-2.83,21.9Z"/><path class="cls-10" d="M3809.6,2355.48a8.36,8.36,0,0,0,3.57-.32,8.28,8.28,0,0,0,5.73-7.07l17.5-175.49a8.28,8.28,0,1,0-16.48-1.64l-15.59,156.36-88.48-102.08a8.28,8.28,0,0,0-12.52,10.85l101.08,116.6A8.27,8.27,0,0,0,3809.6,2355.48Z"/><circle class="cls-5" cx="3574.7" cy="2287.87" r="67.41"/><circle class="cls-10" cx="3574.71" cy="2288.23" r="20.06"/><path class="cls-12" d="M3404.13,2149.79a8.48,8.48,0,0,0,1.23-.09l382.07-57.13a8.28,8.28,0,0,0-2.45-16.38l-382.07,57.13a8.28,8.28,0,0,0,1.22,16.47Z"/><path class="cls-12" d="M2937.42,2275.21c-5.74,24.6-22.9,25.19-33.44,39.39s37.57,12.83,36.65,27.49-36.65,34.81-8.7,30.23,55-41.68,85.65-26.57,47.64,32.07,67.34,11.45,70.54-15.11,131.46,11,105.81-9.16,65.5-41.23-53.13-105.81-74.2-145.2-156.66-110.4-221.24-38S2940,2264,2937.42,2275.21Z"/><path class="cls-5" d="M3130.86,2184.26a6.87,6.87,0,0,1,1.14-3.55l133.32-199a6.84,6.84,0,1,1,11.39,7.58l-133.31,199a6.84,6.84,0,0,1-12.54-4Z"/><path class="cls-10" d="M3247.06,1929.55a6.84,6.84,0,0,1,10.8-6l77.19,53.52a6.84,6.84,0,0,1-3.78,12.41l-59.47,1.64a6.83,6.83,0,0,1-6.45-4.09l-17.73-55.16A6.73,6.73,0,0,1,3247.06,1929.55Zm63.43,46.84-40.41-27.3,6,28.25Z"/><path class="cls-10" d="M3144.46,2181.66l-1.17-.84L3098,2148.29s-46.66,87-9.11,109.59c33.43,28.34,100.91-43.69,100.91-43.69Z"/><path class="cls-12" d="M3058.35,2204c27.14-11.68,37.79,5.15,59.09,19.93s45.71-3.52,42.94,7.56-5.49,36.75,14.43,37.44-61.15,14.09-86.57,18.9-58.63-81.81-41.57-83.83S3058.35,2204,3058.35,2204Z"/><path class="cls-20" d="M991.48,2388.77V2029.71a9.74,9.74,0,0,1,19.48,0v359.06C1011,2394.15,991.48,2394.15,991.48,2388.77Z"/><path class="cls-20" d="M674.17,2388.77V2029.71a9.74,9.74,0,0,1,19.48,0v359.06C693.65,2394.15,674.17,2394.15,674.17,2388.77Z"/><path class="cls-20" d="M692.82,2196.65H992c4.48,0,4.48,19.48,0,19.48H692.82C688.33,2216.13,688.33,2196.65,692.82,2196.65Z"/><path class="cls-20" d="M692.82,2257.42H992c4.48,0,4.48,19.48,0,19.48H692.82C688.33,2276.9,688.33,2257.42,692.82,2257.42Z"/><rect class="cls-3" x="634.16" y="2048.5" width="416.82" height="135" rx="0.4"/><path class="cls-1" d="M695.2,2183.5H663.71l135-135H830.2Zm-61-97.1v31.49l69.39-69.39H672.06Zm259.36-37.9H862l-135,135h31.48Zm-158.14,0L634.16,2149.73v25.59a8,8,0,0,0,1.47,4.42L766.87,2048.5Zm315.6,95.84v-31.49l-70.65,70.65h31.49Zm0-63.33v-24.34a8.07,8.07,0,0,0-2-5.17l-132,132h31.48Zm-30.81-32.51H988.68l-135,135h31.49Zm-63.33,0H925.35l-135,135h31.48Z"/><path class="cls-20" d="M1042.8,2045.71H642.33a11,11,0,0,0-11,11v118.65a11,11,0,0,0,11,11H1042.8a11,11,0,0,0,11-11V2056.67A11,11,0,0,0,1042.8,2045.71Zm5.39,129.61a5.39,5.39,0,0,1-5.39,5.39H642.33a5.4,5.4,0,0,1-5.39-5.39V2056.67a5.4,5.4,0,0,1,5.39-5.39H1042.8a5.39,5.39,0,0,1,5.39,5.39Z"/></g></svg>