<svg id="Logo" xmlns="http://www.w3.org/2000/svg" viewBox="0 0 204.83 177.13"><defs><style>.cls-1{fill:#1d2f44;}.cls-2{fill:#7ab1dd;}</style></defs><title>Chatjobs</title><path class="cls-1" d="M347.35,249.33c-8.44,0-15.13-2-15.13-12.51,0-9.71-.5-25.84-.63-29.95H304.86c0,5.43.06,12,.08,18.76h19.49c0,1.93,0,3.55,0,4.94H305c0,3.67,0,7.34,0,10.86h19.75a17.92,17.92,0,0,0,1.3,4.93H305c0,4,0,7.75,0,10.87h48.06a2.47,2.47,0,1,1,0,4.93H305a45.19,45.19,0,0,1-1.5,12.18h49.57a2.47,2.47,0,0,1,0,4.94H301.58c-3.88,7.22-11,10.44-21.45,10.44-6.54,0-12.47,0-17.69,0V298a15.81,15.81,0,0,0,15.8,15.8h41c6.05,9.13,7.72,20.41,7.35,22.82-.44,2.85,3.73,5,11-4,4.26-5.29,9.79-13.34,13.5-18.87h8.44a15.8,15.8,0,0,0,15.8-15.8V249.33Zm5.76,45.74h-67.8a2.47,2.47,0,0,1,0-4.93h67.8a2.47,2.47,0,1,1,0,4.93Zm-5.87-50.24h27.47l-37.93-37.15c-.08,6.36-.29,22-.29,29.14C336.49,243.09,341.48,244.83,347.24,244.83Z" transform="translate(-170.5 -162.02)"/><path class="cls-2" d="M214.6,196c0-8.13-.23-25.87-.33-33.09l-43.08,42.19h31.2C208.93,205.13,214.6,203.15,214.6,196Zm66.16-34H220.17c-.15,4.67-.71,23-.71,34,0,12-7.6,14.2-17.19,14.2H170.5v55.32a17.94,17.94,0,0,0,17.94,17.94H198c4.21,6.28,10.49,15.43,15.32,21.43,8.23,10.22,13,7.72,12.46,4.49-.42-2.73,1.48-15.54,8.35-25.92h46.6a17.94,17.94,0,0,0,17.94-17.94V180A17.94,17.94,0,0,0,280.76,162Zm-8,100.17h-77a2.81,2.81,0,0,1,0-5.61h77a2.81,2.81,0,0,1,0,5.61Zm0-17.94h-77a2.81,2.81,0,0,1,0-5.61h77a2.81,2.81,0,0,1,0,5.61Zm0-19.44h-77a2.81,2.81,0,0,1,0-5.61h77a2.81,2.81,0,0,1,0,5.61Zm0-17.94H226.47a21.16,21.16,0,0,0,1.47-5.61h44.78a2.81,2.81,0,0,1,0,5.61Zm0-17.94H228.25c0-1.58,0-3.42.05-5.61h44.42a2.81,2.81,0,0,1,0,5.61Z" transform="translate(-170.5 -162.02)"/></svg>